<svg xmlns="http://www.w3.org/2000/svg" xmlns:v="https://svgstorm.com"
viewBox = "0 0 256 256"
width="256"
height="256">
<g fill="None" fill-opacity="0.0" stroke="#000000" stroke-opacity="0.00" stroke-width="0.3"><path d="
M 0.00 256.00 
L 256.00 256.00
L 256.00 0.00
L 0.00 0.00
L 0.00 256.00
M 177.00 98.00 
C 174.65 98.77 173.73 96.74 173.00 95.00
C 174.54 94.63 175.40 96.43 177.00 96.00
C 179.15 96.02 179.11 98.93 178.00 100.00
C 203.23 99.35 213.62 129.16 209.00 150.00
C 209.03 152.12 210.09 155.06 211.00 157.00
C 211.37 157.89 210.35 159.81 212.00 160.00
C 214.74 148.82 220.50 147.95 224.30 136.30 C 228.11 124.66 240.85 129.64 234.23 140.23 C 227.61 150.82 226.96 153.63 222.00 164.00
C 229.08 157.66 242.21 166.05 233.75 171.75 C 225.29 177.45 218.95 174.98 210.00 178.00
C 213.53 183.76 206.85 196.24 212.30 201.70 C 217.75 207.16 219.18 212.91 220.93 220.07 C 222.67 227.24 221.88 236.76 224.00 244.00
C 214.00 244.00 204.00 244.00 194.00 244.00
C 184.20 224.75 187.01 201.88 179.00 182.00
C 178.84 181.66 178.04 181.22 178.00 181.00
C 174.13 202.35 176.65 223.05 178.00 244.00
C 142.33 244.00 106.67 244.00 71.00 244.00
C 72.01 223.24 75.79 202.17 71.00 181.00
C 71.00 181.02 70.00 181.00 70.00 181.00
C 68.80 191.18 63.86 199.79 63.00 210.00 C 62.14 220.21 62.50 231.13 57.07 240.07 C 51.65 249.02 34.22 241.53 25.00 244.00
C 29.72 233.84 23.96 220.45 30.93 210.93 C 37.89 201.41 39.28 192.17 39.00 180.00 C 38.72 167.83 42.37 158.66 39.07 146.93 C 35.78 135.20 41.85 124.98 45.77 114.77 C 49.69 104.56 60.08 102.14 70.00 100.00 C 79.92 97.87 86.97 92.05 97.69 88.69 C 108.41 85.34 101.34 66.74 98.22 59.78 C 95.11 52.81 83.14 37.34 96.00 35.00
C 83.62 -3.95 164.73 -3.87 152.00 35.00
C 166.14 37.70 151.88 52.04 149.07 59.07 C 146.26 66.10 138.72 83.75 149.08 87.92 C 159.43 92.10 167.76 96.60 177.00 98.00 Z"/>
</g>
<g fill="None" fill-opacity="0.0" stroke="#FFFFFF" stroke-opacity="0.98" stroke-width="0.3"><path d="
M 70.00 181.00 
C 68.95 179.62 68.66 177.69 71.00 177.00
C 71.00 178.33 71.00 179.67 71.00 181.00
C 75.79 202.17 72.01 223.24 71.00 244.00
C 106.67 244.00 142.33 244.00 178.00 244.00
C 176.65 223.05 174.13 202.35 178.00 181.00
C 177.73 179.44 177.61 176.54 180.00 177.00
C 179.61 178.57 180.94 181.22 179.00 182.00
C 187.01 201.88 184.20 224.75 194.00 244.00
C 204.00 244.00 214.00 244.00 224.00 244.00
C 221.88 236.76 222.67 227.24 220.93 220.07 C 219.18 212.91 217.75 207.16 212.30 201.70 C 206.85 196.24 213.53 183.76 210.00 178.00
C 208.53 177.81 208.92 177.95 208.00 177.00
C 203.39 172.25 205.21 164.40 201.68 159.32 C 198.14 154.25 199.80 143.18 207.00 150.00
C 207.26 150.25 208.82 149.76 209.00 150.00
C 213.62 129.16 203.23 99.35 178.00 100.00
C 179.11 98.93 179.15 96.02 177.00 96.00
C 177.24 96.19 177.24 97.67 177.00 98.00
C 167.76 96.60 159.43 92.10 149.08 87.92 C 138.72 83.75 146.26 66.10 149.07 59.07 C 151.88 52.04 166.14 37.70 152.00 35.00
C 164.73 -3.87 83.62 -3.95 96.00 35.00
C 83.14 37.34 95.11 52.81 98.22 59.78 C 101.34 66.74 108.41 85.34 97.69 88.69 C 86.97 92.05 79.92 97.87 70.00 100.00 C 60.08 102.14 49.69 104.56 45.77 114.77 C 41.85 124.98 35.78 135.20 39.07 146.93 C 42.37 158.66 38.72 167.83 39.00 180.00 C 39.28 192.17 37.89 201.41 30.93 210.93 C 23.96 220.45 29.72 233.84 25.00 244.00
C 34.22 241.53 51.65 249.02 57.07 240.07 C 62.50 231.13 62.14 220.21 63.00 210.00 C 63.86 199.79 68.80 191.18 70.00 181.00 Z"/>
</g>
<g fill="None" fill-opacity="0.0" stroke="#FFFFFF" stroke-opacity="0.31" stroke-width="0.3"><path d="
M 177.00 98.00 
C 177.24 97.67 177.24 96.19 177.00 96.00
C 175.40 96.43 174.54 94.63 173.00 95.00
C 173.73 96.74 174.65 98.77 177.00 98.00 Z"/>
</g>
<g fill="None" fill-opacity="0.0" stroke="#FEFEFE" stroke-opacity="0.88" stroke-width="0.3"><path d="
M 211.00 157.00 
C 210.93 156.82 209.24 157.25 209.00 157.00
C 209.85 163.08 207.03 172.07 208.00 177.00
C 208.92 177.95 208.53 177.81 210.00 178.00
C 218.95 174.98 225.29 177.45 233.75 171.75 C 242.21 166.05 229.08 157.66 222.00 164.00
C 226.96 153.63 227.61 150.82 234.23 140.23 C 240.85 129.64 228.11 124.66 224.30 136.30 C 220.50 147.95 214.74 148.82 212.00 160.00
C 210.35 159.81 211.37 157.89 211.00 157.00 Z"/>
</g>
<g fill="None" fill-opacity="0.0" stroke="#000000" stroke-opacity="0.00" stroke-width="0.3"><path d="
M 208.00 177.00 
C 207.03 172.07 209.85 163.08 209.00 157.00
C 208.75 155.21 206.40 151.83 207.00 150.00
C 199.80 143.18 198.14 154.25 201.68 159.32 C 205.21 164.40 203.39 172.25 208.00 177.00 Z"/>
</g>
<g fill="None" fill-opacity="0.0" stroke="#FFFFFF" stroke-opacity="0.19" stroke-width="0.3"><path d="
M 209.00 157.00 
C 209.24 157.25 210.93 156.82 211.00 157.00
C 210.09 155.06 209.03 152.12 209.00 150.00
C 208.82 149.76 207.26 150.25 207.00 150.00
C 206.40 151.83 208.75 155.21 209.00 157.00 Z"/>
</g>
<g fill="None" fill-opacity="0.0" stroke="#FFFFFF" stroke-opacity="0.42" stroke-width="0.3"><path d="
M 70.00 181.00 
C 70.00 181.00 71.00 181.02 71.00 181.00
C 71.00 179.67 71.00 178.33 71.00 177.00
C 68.66 177.69 68.95 179.62 70.00 181.00 Z"/>
</g>
<g fill="None" fill-opacity="0.0" stroke="#FFFFFF" stroke-opacity="0.41" stroke-width="0.3"><path d="
M 178.00 181.00 
C 178.04 181.22 178.84 181.66 179.00 182.00
C 180.94 181.22 179.61 178.57 180.00 177.00
C 177.61 176.54 177.73 179.44 178.00 181.00 Z"/>
</g>
<g fill="#000000" fill-opacity="0.00" stroke="None">
<path d="
M 0.00 256.00 
L 256.00 256.00
L 256.00 0.00
L 0.00 0.00
L 0.00 256.00
M 177.00 98.00 
C 174.65 98.77 173.73 96.74 173.00 95.00
C 174.54 94.63 175.40 96.43 177.00 96.00
C 179.15 96.02 179.11 98.93 178.00 100.00
C 203.23 99.35 213.62 129.16 209.00 150.00
C 209.03 152.12 210.09 155.06 211.00 157.00
C 211.37 157.89 210.35 159.81 212.00 160.00
C 214.74 148.82 220.50 147.95 224.30 136.30 C 228.11 124.66 240.85 129.64 234.23 140.23 C 227.61 150.82 226.96 153.63 222.00 164.00
C 229.08 157.66 242.21 166.05 233.75 171.75 C 225.29 177.45 218.95 174.98 210.00 178.00
C 213.53 183.76 206.85 196.24 212.30 201.70 C 217.75 207.16 219.18 212.91 220.93 220.07 C 222.67 227.24 221.88 236.76 224.00 244.00
C 214.00 244.00 204.00 244.00 194.00 244.00
C 184.20 224.75 187.01 201.88 179.00 182.00
C 178.84 181.66 178.04 181.22 178.00 181.00
C 174.13 202.35 176.65 223.05 178.00 244.00
C 142.33 244.00 106.67 244.00 71.00 244.00
C 72.01 223.24 75.79 202.17 71.00 181.00
C 71.00 181.02 70.00 181.00 70.00 181.00
C 68.80 191.18 63.86 199.79 63.00 210.00 C 62.14 220.21 62.50 231.13 57.07 240.07 C 51.65 249.02 34.22 241.53 25.00 244.00
C 29.72 233.84 23.96 220.45 30.93 210.93 C 37.89 201.41 39.28 192.17 39.00 180.00 C 38.72 167.83 42.37 158.66 39.07 146.93 C 35.78 135.20 41.85 124.98 45.77 114.77 C 49.69 104.56 60.08 102.14 70.00 100.00 C 79.92 97.87 86.97 92.05 97.69 88.69 C 108.41 85.34 101.34 66.74 98.22 59.78 C 95.11 52.81 83.14 37.34 96.00 35.00
C 83.62 -3.95 164.73 -3.87 152.00 35.00
C 166.14 37.70 151.88 52.04 149.07 59.07 C 146.26 66.10 138.72 83.75 149.08 87.92 C 159.43 92.10 167.76 96.60 177.00 98.00 Z"/>
</g>
<g fill="#FFFFFF" fill-opacity="0.98" stroke="None">
<path d="
M 70.00 181.00 
C 68.95 179.62 68.66 177.69 71.00 177.00
C 71.00 178.33 71.00 179.67 71.00 181.00
C 75.79 202.17 72.01 223.24 71.00 244.00
C 106.67 244.00 142.33 244.00 178.00 244.00
C 176.65 223.05 174.13 202.35 178.00 181.00
C 177.73 179.44 177.61 176.54 180.00 177.00
C 179.61 178.57 180.94 181.22 179.00 182.00
C 187.01 201.88 184.20 224.75 194.00 244.00
C 204.00 244.00 214.00 244.00 224.00 244.00
C 221.88 236.76 222.67 227.24 220.93 220.07 C 219.18 212.91 217.75 207.16 212.30 201.70 C 206.85 196.24 213.53 183.76 210.00 178.00
C 208.53 177.81 208.92 177.95 208.00 177.00
C 203.39 172.25 205.21 164.40 201.68 159.32 C 198.14 154.25 199.80 143.18 207.00 150.00
C 207.26 150.25 208.82 149.76 209.00 150.00
C 213.62 129.16 203.23 99.35 178.00 100.00
C 179.11 98.93 179.15 96.02 177.00 96.00
C 177.24 96.19 177.24 97.67 177.00 98.00
C 167.76 96.60 159.43 92.10 149.08 87.92 C 138.72 83.75 146.26 66.10 149.07 59.07 C 151.88 52.04 166.14 37.70 152.00 35.00
C 164.73 -3.87 83.62 -3.95 96.00 35.00
C 83.14 37.34 95.11 52.81 98.22 59.78 C 101.34 66.74 108.41 85.34 97.69 88.69 C 86.97 92.05 79.92 97.87 70.00 100.00 C 60.08 102.14 49.69 104.56 45.77 114.77 C 41.85 124.98 35.78 135.20 39.07 146.93 C 42.37 158.66 38.72 167.83 39.00 180.00 C 39.28 192.17 37.89 201.41 30.93 210.93 C 23.96 220.45 29.72 233.84 25.00 244.00
C 34.22 241.53 51.65 249.02 57.07 240.07 C 62.50 231.13 62.14 220.21 63.00 210.00 C 63.86 199.79 68.80 191.18 70.00 181.00 Z"/>
</g>
<g fill="#FFFFFF" fill-opacity="0.31" stroke="None">
<path d="
M 177.00 98.00 
C 177.24 97.67 177.24 96.19 177.00 96.00
C 175.40 96.43 174.54 94.63 173.00 95.00
C 173.73 96.74 174.65 98.77 177.00 98.00 Z"/>
</g>
<g fill="#FEFEFE" fill-opacity="0.88" stroke="None">
<path d="
M 211.00 157.00 
C 210.93 156.82 209.24 157.25 209.00 157.00
C 209.85 163.08 207.03 172.07 208.00 177.00
C 208.92 177.95 208.53 177.81 210.00 178.00
C 218.95 174.98 225.29 177.45 233.75 171.75 C 242.21 166.05 229.08 157.66 222.00 164.00
C 226.96 153.63 227.61 150.82 234.23 140.23 C 240.85 129.64 228.11 124.66 224.30 136.30 C 220.50 147.95 214.74 148.82 212.00 160.00
C 210.35 159.81 211.37 157.89 211.00 157.00 Z"/>
</g>
<g fill="#000000" fill-opacity="0.00" stroke="None">
<path d="
M 208.00 177.00 
C 207.03 172.07 209.85 163.08 209.00 157.00
C 208.75 155.21 206.40 151.83 207.00 150.00
C 199.80 143.18 198.14 154.25 201.68 159.32 C 205.21 164.40 203.39 172.25 208.00 177.00 Z"/>
</g>
<g fill="#FFFFFF" fill-opacity="0.19" stroke="None">
<path d="
M 209.00 157.00 
C 209.24 157.25 210.93 156.82 211.00 157.00
C 210.09 155.06 209.03 152.12 209.00 150.00
C 208.82 149.76 207.26 150.25 207.00 150.00
C 206.40 151.83 208.75 155.21 209.00 157.00 Z"/>
</g>
<g fill="#FFFFFF" fill-opacity="0.42" stroke="None">
<path d="
M 70.00 181.00 
C 70.00 181.00 71.00 181.02 71.00 181.00
C 71.00 179.67 71.00 178.33 71.00 177.00
C 68.66 177.69 68.95 179.62 70.00 181.00 Z"/>
</g>
<g fill="#FFFFFF" fill-opacity="0.41" stroke="None">
<path d="
M 178.00 181.00 
C 178.04 181.22 178.84 181.66 179.00 182.00
C 180.94 181.22 179.61 178.57 180.00 177.00
C 177.61 176.54 177.73 179.44 178.00 181.00 Z"/>
</g>
</svg>