<svg xmlns="http://www.w3.org/2000/svg" xmlns:v="https://svgstorm.com"
viewBox = "0 0 512 512"
width="512"
height="512">
<g fill="None" fill-opacity="0.0" stroke="#000000" stroke-opacity="0.00" stroke-width="0.3"><path d="
M 0.00 512.00 
L 512.00 512.00
L 512.00 0.00
L 0.00 0.00
L 0.00 512.00
M 178.00 63.00 
C 177.78 63.57 176.05 62.66 177.27 61.25 C 178.49 59.83 180.00 60.00 180.00 60.00
C 191.01 51.74 198.96 37.77 213.00 34.00
C 210.90 31.59 215.12 30.19 217.00 30.00
C 216.75 31.88 214.45 31.46 214.00 33.00
C 220.84 27.49 230.55 27.65 239.01 25.01 C 247.47 22.37 261.08 23.81 270.00 24.00 C 278.92 24.19 287.33 29.56 295.23 31.77 C 303.13 33.98 310.19 42.07 316.00 41.00
C 319.74 48.32 327.00 52.66 332.75 60.25 C 338.50 67.83 342.95 74.86 346.92 84.08 C 350.90 93.29 353.28 104.36 354.00 115.00 C 354.72 125.64 352.80 139.65 350.07 149.07 C 347.35 158.50 340.31 167.04 342.00 173.00
C 330.38 182.10 322.93 194.88 308.30 203.30 C 293.68 211.73 274.85 218.90 256.99 218.99 C 239.14 219.08 219.99 212.28 205.25 203.75 C 190.51 195.21 182.64 182.32 171.00 173.00
C 172.51 166.04 165.76 159.44 163.22 150.78 C 160.69 142.11 158.85 130.84 159.00 121.00 C 159.15 111.16 160.24 100.15 163.32 91.32 C 166.41 82.50 170.96 76.55 172.00 68.00
C 174.23 72.07 175.61 64.44 178.00 63.00
M 158.00 110.00 
C 158.00 117.33 158.00 124.67 158.00 132.00
C 156.36 125.74 156.31 116.19 158.00 110.00
M 356.00 110.00 
C 356.00 117.33 356.00 124.67 356.00 132.00
C 354.36 125.74 354.31 116.19 356.00 110.00
M 182.00 225.00 
C 185.66 227.98 188.64 231.89 192.00 235.00
C 209.72 248.99 229.01 258.54 252.00 259.00
C 254.99 259.06 258.01 259.06 261.00 259.00
C 283.27 258.55 304.16 249.39 321.00 235.00
C 323.76 232.24 328.06 224.93 332.00 224.00
C 338.02 222.58 344.90 228.82 350.23 230.77 C 355.56 232.72 361.20 238.36 366.25 240.75 C 371.29 243.14 377.16 250.26 381.00 248.00
C 383.02 250.39 382.28 253.60 386.00 255.00
C 385.51 254.78 386.55 252.88 388.25 254.76 C 389.95 256.64 388.27 256.89 389.00 258.00
C 407.50 271.22 425.23 294.43 435.00 314.00
C 435.47 314.51 440.28 317.81 440.00 321.00
C 438.75 320.70 438.29 319.17 437.00 319.00
C 443.54 332.34 448.35 345.51 452.33 359.67 C 456.31 373.83 460.99 390.97 450.23 402.23 C 439.47 413.49 433.49 420.50 425.00 431.00
C 422.31 427.56 419.08 433.96 415.75 435.75 C 412.42 437.55 407.85 440.54 405.00 443.00
C 403.80 444.19 404.74 444.64 402.92 445.92 C 401.09 447.19 400.97 445.01 401.00 445.00
C 387.75 453.91 369.52 462.07 354.00 465.00
C 354.30 465.05 355.90 466.47 356.00 467.00
C 352.75 466.73 350.28 469.27 347.00 469.00
C 347.88 466.93 351.04 467.79 352.00 466.00
C 322.36 476.10 289.24 477.94 257.00 478.00 C 224.76 478.06 190.75 476.13 161.00 466.00
C 162.46 466.93 164.87 467.46 166.00 469.00
C 162.75 469.27 160.28 466.73 157.00 467.00
C 157.08 465.74 159.06 466.44 159.00 465.00
C 143.48 462.07 125.25 453.91 112.00 445.00
C 112.36 445.08 111.57 447.23 109.92 446.06 C 108.26 444.89 109.03 444.02 108.00 443.00
C 97.01 432.12 79.79 423.11 69.00 413.00
C 72.32 411.77 68.92 409.01 67.00 408.00
C 66.43 407.63 66.94 408.33 64.75 407.24 C 62.56 406.15 64.73 404.29 65.00 405.00
C 56.73 394.66 54.93 388.54 56.93 375.93 C 58.92 363.31 63.64 354.12 65.00 342.00
C 65.18 340.35 63.28 337.91 65.00 336.00
C 67.59 336.65 64.08 339.48 66.00 340.00
C 69.01 326.64 79.20 314.75 81.00 302.00
C 84.22 304.58 91.47 292.36 90.00 288.00
C 91.95 285.73 94.90 287.42 96.00 284.00
C 95.25 285.41 95.72 278.90 98.00 278.00
C 99.86 278.46 98.16 280.04 98.00 281.00
C 98.84 279.66 100.15 278.61 101.00 277.00
C 101.93 275.22 101.69 275.80 104.00 274.00
C 109.93 269.36 114.34 262.19 120.70 257.70 C 127.05 253.20 132.34 246.75 139.08 243.08 C 145.82 239.42 152.35 233.23 159.23 230.23 C 166.11 227.23 176.19 220.27 182.00 225.00
M 227.00 478.00 
C 221.97 481.00 215.68 477.13 210.00 478.00
C 215.00 475.14 221.22 479.32 227.00 478.00
M 295.00 478.00 
C 292.90 480.08 288.85 478.50 286.00 479.00
C 288.10 476.92 292.15 478.50 295.00 478.00
M 244.00 479.00 
C 240.25 481.22 234.51 479.41 230.00 480.00
C 233.75 477.78 239.49 479.59 244.00 479.00
M 283.00 479.00 
C 279.25 481.22 273.51 479.41 269.00 480.00
C 272.75 477.78 278.49 479.59 283.00 479.00 Z"/>
</g>
<g fill="None" fill-opacity="0.0" stroke="#FEFEFE" stroke-opacity="0.98" stroke-width="0.3"><path d="
M 214.00 33.00 
C 212.57 34.80 214.24 33.67 213.00 34.00
C 198.96 37.77 191.01 51.74 180.00 60.00
C 178.78 61.92 179.14 61.57 178.00 63.00
C 175.61 64.44 174.23 72.07 172.00 68.00
C 170.96 76.55 166.41 82.50 163.32 91.32 C 160.24 100.15 159.15 111.16 159.00 121.00 C 158.85 130.84 160.69 142.11 163.22 150.78 C 165.76 159.44 172.51 166.04 171.00 173.00
C 182.64 182.32 190.51 195.21 205.25 203.75 C 219.99 212.28 239.14 219.08 256.99 218.99 C 274.85 218.90 293.68 211.73 308.30 203.30 C 322.93 194.88 330.38 182.10 342.00 173.00
C 340.31 167.04 347.35 158.50 350.07 149.07 C 352.80 139.65 354.72 125.64 354.00 115.00 C 353.28 104.36 350.90 93.29 346.92 84.08 C 342.95 74.86 338.50 67.83 332.75 60.25 C 327.00 52.66 319.74 48.32 316.00 41.00
C 310.19 42.07 303.13 33.98 295.23 31.77 C 287.33 29.56 278.92 24.19 270.00 24.00 C 261.08 23.81 247.47 22.37 239.01 25.01 C 230.55 27.65 220.84 27.49 214.00 33.00 Z"/>
</g>
<g fill="None" fill-opacity="0.0" stroke="#B6B6B6" stroke-opacity="0.09" stroke-width="0.3"><path d="
M 213.00 34.00 
C 214.24 33.67 212.57 34.80 214.00 33.00
C 214.45 31.46 216.75 31.88 217.00 30.00
C 215.12 30.19 210.90 31.59 213.00 34.00 Z"/>
</g>
<g fill="None" fill-opacity="0.0" stroke="#949494" stroke-opacity="0.09" stroke-width="0.3"><path d="
M 178.00 63.00 
C 179.14 61.57 178.78 61.92 180.00 60.00
C 180.00 60.00 178.49 59.83 177.27 61.25 C 176.05 62.66 177.78 63.57 178.00 63.00 Z"/>
</g>
<g fill="None" fill-opacity="0.0" stroke="#FFFFFF" stroke-opacity="0.01" stroke-width="0.3"><path d="
M 158.00 110.00 
C 156.31 116.19 156.36 125.74 158.00 132.00
C 158.00 124.67 158.00 117.33 158.00 110.00 Z"/>
</g>
<g fill="None" fill-opacity="0.0" stroke="#FFFFFF" stroke-opacity="0.01" stroke-width="0.3"><path d="
M 356.00 110.00 
C 354.31 116.19 354.36 125.74 356.00 132.00
C 356.00 124.67 356.00 117.33 356.00 110.00 Z"/>
</g>
<g fill="None" fill-opacity="0.0" stroke="#FEFEFE" stroke-opacity="0.99" stroke-width="0.3"><path d="
M 104.00 274.00 
C 103.56 274.73 105.02 275.32 103.74 276.75 C 102.45 278.18 101.68 276.44 101.00 277.00
C 100.15 278.61 98.84 279.66 98.00 281.00
C 96.61 283.21 97.65 282.38 96.00 284.00
C 94.90 287.42 91.95 285.73 90.00 288.00
C 91.47 292.36 84.22 304.58 81.00 302.00
C 79.20 314.75 69.01 326.64 66.00 340.00
C 66.15 342.92 66.12 340.02 65.00 342.00
C 63.64 354.12 58.92 363.31 56.93 375.93 C 54.93 388.54 56.73 394.66 65.00 405.00
C 65.90 406.12 65.82 406.39 67.00 408.00
C 68.92 409.01 72.32 411.77 69.00 413.00
C 79.79 423.11 97.01 432.12 108.00 443.00
C 108.76 443.43 110.28 443.84 112.00 445.00
C 125.25 453.91 143.48 462.07 159.00 465.00
C 160.52 465.29 159.93 465.32 161.00 466.00
C 190.75 476.13 224.76 478.06 257.00 478.00 C 289.24 477.94 322.36 476.10 352.00 466.00
C 352.88 465.44 352.72 465.24 354.00 465.00
C 369.52 462.07 387.75 453.91 401.00 445.00
C 402.87 443.74 403.96 443.60 405.00 443.00
C 407.85 440.54 412.42 437.55 415.75 435.75 C 419.08 433.96 422.31 427.56 425.00 431.00
C 433.49 420.50 439.47 413.49 450.23 402.23 C 460.99 390.97 456.31 373.83 452.33 359.67 C 448.35 345.51 443.54 332.34 437.00 319.00
C 436.20 317.37 435.76 315.52 435.00 314.00
C 425.23 294.43 407.50 271.22 389.00 258.00
C 388.44 257.60 387.19 256.35 386.00 255.00
C 382.28 253.60 383.02 250.39 381.00 248.00
C 377.16 250.26 371.29 243.14 366.25 240.75 C 361.20 238.36 355.56 232.72 350.23 230.77 C 344.90 228.82 338.02 222.58 332.00 224.00
C 329.14 224.88 323.54 232.83 321.00 235.00
C 304.16 249.39 283.27 258.55 261.00 259.00
C 258.03 259.36 254.91 259.35 252.00 259.00
C 229.01 258.54 209.72 248.99 192.00 235.00
C 188.27 232.06 185.32 228.19 182.00 225.00
C 176.19 220.27 166.11 227.23 159.23 230.23 C 152.35 233.23 145.82 239.42 139.08 243.08 C 132.34 246.75 127.05 253.20 120.70 257.70 C 114.34 262.19 109.93 269.36 104.00 274.00
M 353.00 310.00 
C 377.18 313.93 373.05 341.13 362.08 356.08 C 351.12 371.03 343.26 385.79 333.70 402.70 C 324.13 419.61 292.11 417.41 289.22 396.78 C 286.34 376.15 305.01 361.69 312.77 345.77 C 320.53 329.85 332.26 306.63 353.00 310.00 Z"/>
</g>
<g fill="None" fill-opacity="0.0" stroke="#B16D6D" stroke-opacity="0.24" stroke-width="0.3"><path d="
M 321.00 235.00 
C 323.54 232.83 329.14 224.88 332.00 224.00
C 328.06 224.93 323.76 232.24 321.00 235.00 Z"/>
</g>
<g fill="None" fill-opacity="0.0" stroke="#B77B7A" stroke-opacity="0.29" stroke-width="0.3"><path d="
M 192.00 235.00 
C 188.64 231.89 185.66 227.98 182.00 225.00
C 185.32 228.19 188.27 232.06 192.00 235.00 Z"/>
</g>
<g fill="None" fill-opacity="0.0" stroke="#B3B3B3" stroke-opacity="0.21" stroke-width="0.3"><path d="
M 386.00 255.00 
C 387.19 256.35 388.44 257.60 389.00 258.00
C 388.27 256.89 389.95 256.64 388.25 254.76 C 386.55 252.88 385.51 254.78 386.00 255.00 Z"/>
</g>
<g fill="None" fill-opacity="0.0" stroke="#C08989" stroke-opacity="0.27" stroke-width="0.3"><path d="
M 261.00 259.00 
C 258.01 259.06 254.99 259.06 252.00 259.00
C 254.91 259.35 258.03 259.36 261.00 259.00 Z"/>
</g>
<g fill="None" fill-opacity="0.0" stroke="#ADADAD" stroke-opacity="0.26" stroke-width="0.3"><path d="
M 101.00 277.00 
C 101.68 276.44 102.45 278.18 103.74 276.75 C 105.02 275.32 103.56 274.73 104.00 274.00
C 101.69 275.80 101.93 275.22 101.00 277.00 Z"/>
</g>
<g fill="None" fill-opacity="0.0" stroke="#949494" stroke-opacity="0.06" stroke-width="0.3"><path d="
M 96.00 284.00 
C 97.65 282.38 96.61 283.21 98.00 281.00
C 98.16 280.04 99.86 278.46 98.00 278.00
C 95.72 278.90 95.25 285.41 96.00 284.00 Z"/>
</g>
<g fill="None" fill-opacity="0.0" stroke="#010101" stroke-opacity="0.03" stroke-width="0.3"><path d="
M 353.00 310.00 
C 332.26 306.63 320.53 329.85 312.77 345.77 C 305.01 361.69 286.34 376.15 289.22 396.78 C 292.11 417.41 324.13 419.61 333.70 402.70 C 343.26 385.79 351.12 371.03 362.08 356.08 C 373.05 341.13 377.18 313.93 353.00 310.00
M 346.00 372.00 
C 335.38 366.47 325.91 358.69 315.00 354.00
C 324.00 341.03 334.59 304.76 357.23 317.77 C 379.87 330.79 353.66 357.51 346.00 372.00
M 345.00 373.00 
C 336.01 385.97 325.41 422.24 302.77 409.23 C 280.13 396.21 306.33 369.49 314.00 355.00
C 324.62 360.53 334.09 368.31 345.00 373.00 Z"/>
</g>
<g fill="None" fill-opacity="0.0" stroke="#8C8C8C" stroke-opacity="0.00" stroke-width="0.3"><path d="
M 435.00 314.00 
C 435.76 315.52 436.20 317.37 437.00 319.00
C 438.29 319.17 438.75 320.70 440.00 321.00
C 440.28 317.81 435.47 314.51 435.00 314.00 Z"/>
</g>
<g fill="None" fill-opacity="0.0" stroke="#FAFAFA" stroke-opacity="0.97" stroke-width="0.3"><path d="
M 346.00 372.00 
C 353.66 357.51 379.87 330.79 357.23 317.77 C 334.59 304.76 324.00 341.03 315.00 354.00
C 325.91 358.69 335.38 366.47 346.00 372.00 Z"/>
</g>
<g fill="None" fill-opacity="0.0" stroke="#B6B6B6" stroke-opacity="0.09" stroke-width="0.3"><path d="
M 65.00 342.00 
C 66.12 340.02 66.15 342.92 66.00 340.00
C 64.08 339.48 67.59 336.65 65.00 336.00
C 63.28 337.91 65.18 340.35 65.00 342.00 Z"/>
</g>
<g fill="None" fill-opacity="0.0" stroke="#FAFAFA" stroke-opacity="0.97" stroke-width="0.3"><path d="
M 345.00 373.00 
C 334.09 368.31 324.62 360.53 314.00 355.00
C 306.33 369.49 280.13 396.21 302.77 409.23 C 325.41 422.24 336.01 385.97 345.00 373.00 Z"/>
</g>
<g fill="None" fill-opacity="0.0" stroke="#949494" stroke-opacity="0.08" stroke-width="0.3"><path d="
M 67.00 408.00 
C 65.82 406.39 65.90 406.12 65.00 405.00
C 64.73 404.29 62.56 406.15 64.75 407.24 C 66.94 408.33 66.43 407.63 67.00 408.00 Z"/>
</g>
<g fill="None" fill-opacity="0.0" stroke="#808080" stroke-opacity="0.08" stroke-width="0.3"><path d="
M 108.00 443.00 
C 109.03 444.02 108.26 444.89 109.92 446.06 C 111.57 447.23 112.36 445.08 112.00 445.00
C 110.28 443.84 108.76 443.43 108.00 443.00 Z"/>
</g>
<g fill="None" fill-opacity="0.0" stroke="#808080" stroke-opacity="0.07" stroke-width="0.3"><path d="
M 401.00 445.00 
C 400.97 445.01 401.09 447.19 402.92 445.92 C 404.74 444.64 403.80 444.19 405.00 443.00
C 403.96 443.60 402.87 443.74 401.00 445.00 Z"/>
</g>
<g fill="None" fill-opacity="0.0" stroke="#B3B3B3" stroke-opacity="0.01" stroke-width="0.3"><path d="
M 161.00 466.00 
C 159.93 465.32 160.52 465.29 159.00 465.00
C 159.06 466.44 157.08 465.74 157.00 467.00
C 160.28 466.73 162.75 469.27 166.00 469.00
C 164.87 467.46 162.46 466.93 161.00 466.00 Z"/>
</g>
<g fill="None" fill-opacity="0.0" stroke="#B3B3B3" stroke-opacity="0.01" stroke-width="0.3"><path d="
M 352.00 466.00 
C 351.04 467.79 347.88 466.93 347.00 469.00
C 350.28 469.27 352.75 466.73 356.00 467.00
C 355.90 466.47 354.30 465.05 354.00 465.00
C 352.72 465.24 352.88 465.44 352.00 466.00 Z"/>
</g>
<g fill="None" fill-opacity="0.0" stroke="#FFFFFF" stroke-opacity="0.01" stroke-width="0.3"><path d="
M 227.00 478.00 
C 221.22 479.32 215.00 475.14 210.00 478.00
C 215.68 477.13 221.97 481.00 227.00 478.00 Z"/>
</g>
<g fill="None" fill-opacity="0.0" stroke="#FFFFFF" stroke-opacity="0.01" stroke-width="0.3"><path d="
M 295.00 478.00 
C 292.15 478.50 288.10 476.92 286.00 479.00
C 288.85 478.50 292.90 480.08 295.00 478.00 Z"/>
</g>
<g fill="None" fill-opacity="0.0" stroke="#FFFFFF" stroke-opacity="0.00" stroke-width="0.3"><path d="
M 244.00 479.00 
C 239.49 479.59 233.75 477.78 230.00 480.00
C 234.51 479.41 240.25 481.22 244.00 479.00 Z"/>
</g>
<g fill="None" fill-opacity="0.0" stroke="#FFFFFF" stroke-opacity="0.00" stroke-width="0.3"><path d="
M 283.00 479.00 
C 278.49 479.59 272.75 477.78 269.00 480.00
C 273.51 479.41 279.25 481.22 283.00 479.00 Z"/>
</g>
<g fill="#000000" fill-opacity="0.00" stroke="None">
<path d="
M 0.00 512.00 
L 512.00 512.00
L 512.00 0.00
L 0.00 0.00
L 0.00 512.00
M 178.00 63.00 
C 177.78 63.57 176.05 62.66 177.27 61.25 C 178.49 59.83 180.00 60.00 180.00 60.00
C 191.01 51.74 198.96 37.77 213.00 34.00
C 210.90 31.59 215.12 30.19 217.00 30.00
C 216.75 31.88 214.45 31.46 214.00 33.00
C 220.84 27.49 230.55 27.65 239.01 25.01 C 247.47 22.37 261.08 23.81 270.00 24.00 C 278.92 24.19 287.33 29.56 295.23 31.77 C 303.13 33.98 310.19 42.07 316.00 41.00
C 319.74 48.32 327.00 52.66 332.75 60.25 C 338.50 67.83 342.95 74.86 346.92 84.08 C 350.90 93.29 353.28 104.36 354.00 115.00 C 354.72 125.64 352.80 139.65 350.07 149.07 C 347.35 158.50 340.31 167.04 342.00 173.00
C 330.38 182.10 322.93 194.88 308.30 203.30 C 293.68 211.73 274.85 218.90 256.99 218.99 C 239.14 219.08 219.99 212.28 205.25 203.75 C 190.51 195.21 182.64 182.32 171.00 173.00
C 172.51 166.04 165.76 159.44 163.22 150.78 C 160.69 142.11 158.85 130.84 159.00 121.00 C 159.15 111.16 160.24 100.15 163.32 91.32 C 166.41 82.50 170.96 76.55 172.00 68.00
C 174.23 72.07 175.61 64.44 178.00 63.00
M 158.00 110.00 
C 158.00 117.33 158.00 124.67 158.00 132.00
C 156.36 125.74 156.31 116.19 158.00 110.00
M 356.00 110.00 
C 356.00 117.33 356.00 124.67 356.00 132.00
C 354.36 125.74 354.31 116.19 356.00 110.00
M 182.00 225.00 
C 185.66 227.98 188.64 231.89 192.00 235.00
C 209.72 248.99 229.01 258.54 252.00 259.00
C 254.99 259.06 258.01 259.06 261.00 259.00
C 283.27 258.55 304.16 249.39 321.00 235.00
C 323.76 232.24 328.06 224.93 332.00 224.00
C 338.02 222.58 344.90 228.82 350.23 230.77 C 355.56 232.72 361.20 238.36 366.25 240.75 C 371.29 243.14 377.16 250.26 381.00 248.00
C 383.02 250.39 382.28 253.60 386.00 255.00
C 385.51 254.78 386.55 252.88 388.25 254.76 C 389.95 256.64 388.27 256.89 389.00 258.00
C 407.50 271.22 425.23 294.43 435.00 314.00
C 435.47 314.51 440.28 317.81 440.00 321.00
C 438.75 320.70 438.29 319.17 437.00 319.00
C 443.54 332.34 448.35 345.51 452.33 359.67 C 456.31 373.83 460.99 390.97 450.23 402.23 C 439.47 413.49 433.49 420.50 425.00 431.00
C 422.31 427.56 419.08 433.96 415.75 435.75 C 412.42 437.55 407.85 440.54 405.00 443.00
C 403.80 444.19 404.74 444.64 402.92 445.92 C 401.09 447.19 400.97 445.01 401.00 445.00
C 387.75 453.91 369.52 462.07 354.00 465.00
C 354.30 465.05 355.90 466.47 356.00 467.00
C 352.75 466.73 350.28 469.27 347.00 469.00
C 347.88 466.93 351.04 467.79 352.00 466.00
C 322.36 476.10 289.24 477.94 257.00 478.00 C 224.76 478.06 190.75 476.13 161.00 466.00
C 162.46 466.93 164.87 467.46 166.00 469.00
C 162.75 469.27 160.28 466.73 157.00 467.00
C 157.08 465.74 159.06 466.44 159.00 465.00
C 143.48 462.07 125.25 453.91 112.00 445.00
C 112.36 445.08 111.57 447.23 109.92 446.06 C 108.26 444.89 109.03 444.02 108.00 443.00
C 97.01 432.12 79.79 423.11 69.00 413.00
C 72.32 411.77 68.92 409.01 67.00 408.00
C 66.43 407.63 66.94 408.33 64.75 407.24 C 62.56 406.15 64.73 404.29 65.00 405.00
C 56.73 394.66 54.93 388.54 56.93 375.93 C 58.92 363.31 63.64 354.12 65.00 342.00
C 65.18 340.35 63.28 337.91 65.00 336.00
C 67.59 336.65 64.08 339.48 66.00 340.00
C 69.01 326.64 79.20 314.75 81.00 302.00
C 84.22 304.58 91.47 292.36 90.00 288.00
C 91.95 285.73 94.90 287.42 96.00 284.00
C 95.25 285.41 95.72 278.90 98.00 278.00
C 99.86 278.46 98.16 280.04 98.00 281.00
C 98.84 279.66 100.15 278.61 101.00 277.00
C 101.93 275.22 101.69 275.80 104.00 274.00
C 109.93 269.36 114.34 262.19 120.70 257.70 C 127.05 253.20 132.34 246.75 139.08 243.08 C 145.82 239.42 152.35 233.23 159.23 230.23 C 166.11 227.23 176.19 220.27 182.00 225.00
M 227.00 478.00 
C 221.97 481.00 215.68 477.13 210.00 478.00
C 215.00 475.14 221.22 479.32 227.00 478.00
M 295.00 478.00 
C 292.90 480.08 288.85 478.50 286.00 479.00
C 288.10 476.92 292.15 478.50 295.00 478.00
M 244.00 479.00 
C 240.25 481.22 234.51 479.41 230.00 480.00
C 233.75 477.78 239.49 479.59 244.00 479.00
M 283.00 479.00 
C 279.25 481.22 273.51 479.41 269.00 480.00
C 272.75 477.78 278.49 479.59 283.00 479.00 Z"/>
</g>
<g fill="#FEFEFE" fill-opacity="0.98" stroke="None">
<path d="
M 214.00 33.00 
C 212.57 34.80 214.24 33.67 213.00 34.00
C 198.96 37.77 191.01 51.74 180.00 60.00
C 178.78 61.92 179.14 61.57 178.00 63.00
C 175.61 64.44 174.23 72.07 172.00 68.00
C 170.96 76.55 166.41 82.50 163.32 91.32 C 160.24 100.15 159.15 111.16 159.00 121.00 C 158.85 130.84 160.69 142.11 163.22 150.78 C 165.76 159.44 172.51 166.04 171.00 173.00
C 182.64 182.32 190.51 195.21 205.25 203.75 C 219.99 212.28 239.14 219.08 256.99 218.99 C 274.85 218.90 293.68 211.73 308.30 203.30 C 322.93 194.88 330.38 182.10 342.00 173.00
C 340.31 167.04 347.35 158.50 350.07 149.07 C 352.80 139.65 354.72 125.64 354.00 115.00 C 353.28 104.36 350.90 93.29 346.92 84.08 C 342.95 74.86 338.50 67.83 332.75 60.25 C 327.00 52.66 319.74 48.32 316.00 41.00
C 310.19 42.07 303.13 33.98 295.23 31.77 C 287.33 29.56 278.92 24.19 270.00 24.00 C 261.08 23.81 247.47 22.37 239.01 25.01 C 230.55 27.65 220.84 27.49 214.00 33.00 Z"/>
</g>
<g fill="#B6B6B6" fill-opacity="0.09" stroke="None">
<path d="
M 213.00 34.00 
C 214.24 33.67 212.57 34.80 214.00 33.00
C 214.45 31.46 216.75 31.88 217.00 30.00
C 215.12 30.19 210.90 31.59 213.00 34.00 Z"/>
</g>
<g fill="#949494" fill-opacity="0.09" stroke="None">
<path d="
M 178.00 63.00 
C 179.14 61.57 178.78 61.92 180.00 60.00
C 180.00 60.00 178.49 59.83 177.27 61.25 C 176.05 62.66 177.78 63.57 178.00 63.00 Z"/>
</g>
<g fill="#FFFFFF" fill-opacity="0.01" stroke="None">
<path d="
M 158.00 110.00 
C 156.31 116.19 156.36 125.74 158.00 132.00
C 158.00 124.67 158.00 117.33 158.00 110.00 Z"/>
</g>
<g fill="#FFFFFF" fill-opacity="0.01" stroke="None">
<path d="
M 356.00 110.00 
C 354.31 116.19 354.36 125.74 356.00 132.00
C 356.00 124.67 356.00 117.33 356.00 110.00 Z"/>
</g>
<g fill="#FEFEFE" fill-opacity="0.99" stroke="None">
<path d="
M 104.00 274.00 
C 103.56 274.73 105.02 275.32 103.74 276.75 C 102.45 278.18 101.68 276.44 101.00 277.00
C 100.15 278.61 98.84 279.66 98.00 281.00
C 96.61 283.21 97.65 282.38 96.00 284.00
C 94.90 287.42 91.95 285.73 90.00 288.00
C 91.47 292.36 84.22 304.58 81.00 302.00
C 79.20 314.75 69.01 326.64 66.00 340.00
C 66.15 342.92 66.12 340.02 65.00 342.00
C 63.64 354.12 58.92 363.31 56.93 375.93 C 54.93 388.54 56.73 394.66 65.00 405.00
C 65.90 406.12 65.82 406.39 67.00 408.00
C 68.92 409.01 72.32 411.77 69.00 413.00
C 79.79 423.11 97.01 432.12 108.00 443.00
C 108.76 443.43 110.28 443.84 112.00 445.00
C 125.25 453.91 143.48 462.07 159.00 465.00
C 160.52 465.29 159.93 465.32 161.00 466.00
C 190.75 476.13 224.76 478.06 257.00 478.00 C 289.24 477.94 322.36 476.10 352.00 466.00
C 352.88 465.44 352.72 465.24 354.00 465.00
C 369.52 462.07 387.75 453.91 401.00 445.00
C 402.87 443.74 403.96 443.60 405.00 443.00
C 407.85 440.54 412.42 437.55 415.75 435.75 C 419.08 433.96 422.31 427.56 425.00 431.00
C 433.49 420.50 439.47 413.49 450.23 402.23 C 460.99 390.97 456.31 373.83 452.33 359.67 C 448.35 345.51 443.54 332.34 437.00 319.00
C 436.20 317.37 435.76 315.52 435.00 314.00
C 425.23 294.43 407.50 271.22 389.00 258.00
C 388.44 257.60 387.19 256.35 386.00 255.00
C 382.28 253.60 383.02 250.39 381.00 248.00
C 377.16 250.26 371.29 243.14 366.25 240.75 C 361.20 238.36 355.56 232.72 350.23 230.77 C 344.90 228.82 338.02 222.58 332.00 224.00
C 329.14 224.88 323.54 232.83 321.00 235.00
C 304.16 249.39 283.27 258.55 261.00 259.00
C 258.03 259.36 254.91 259.35 252.00 259.00
C 229.01 258.54 209.72 248.99 192.00 235.00
C 188.27 232.06 185.32 228.19 182.00 225.00
C 176.19 220.27 166.11 227.23 159.23 230.23 C 152.35 233.23 145.82 239.42 139.08 243.08 C 132.34 246.75 127.05 253.20 120.70 257.70 C 114.34 262.19 109.93 269.36 104.00 274.00
M 353.00 310.00 
C 377.18 313.93 373.05 341.13 362.08 356.08 C 351.12 371.03 343.26 385.79 333.70 402.70 C 324.13 419.61 292.11 417.41 289.22 396.78 C 286.34 376.15 305.01 361.69 312.77 345.77 C 320.53 329.85 332.26 306.63 353.00 310.00 Z"/>
</g>
<g fill="#B16D6D" fill-opacity="0.24" stroke="None">
<path d="
M 321.00 235.00 
C 323.54 232.83 329.14 224.88 332.00 224.00
C 328.06 224.93 323.76 232.24 321.00 235.00 Z"/>
</g>
<g fill="#B77B7A" fill-opacity="0.29" stroke="None">
<path d="
M 192.00 235.00 
C 188.64 231.89 185.66 227.98 182.00 225.00
C 185.32 228.19 188.27 232.06 192.00 235.00 Z"/>
</g>
<g fill="#B3B3B3" fill-opacity="0.21" stroke="None">
<path d="
M 386.00 255.00 
C 387.19 256.35 388.44 257.60 389.00 258.00
C 388.27 256.89 389.95 256.64 388.25 254.76 C 386.55 252.88 385.51 254.78 386.00 255.00 Z"/>
</g>
<g fill="#C08989" fill-opacity="0.27" stroke="None">
<path d="
M 261.00 259.00 
C 258.01 259.06 254.99 259.06 252.00 259.00
C 254.91 259.35 258.03 259.36 261.00 259.00 Z"/>
</g>
<g fill="#ADADAD" fill-opacity="0.26" stroke="None">
<path d="
M 101.00 277.00 
C 101.68 276.44 102.45 278.18 103.74 276.75 C 105.02 275.32 103.56 274.73 104.00 274.00
C 101.69 275.80 101.93 275.22 101.00 277.00 Z"/>
</g>
<g fill="#949494" fill-opacity="0.06" stroke="None">
<path d="
M 96.00 284.00 
C 97.65 282.38 96.61 283.21 98.00 281.00
C 98.16 280.04 99.86 278.46 98.00 278.00
C 95.72 278.90 95.25 285.41 96.00 284.00 Z"/>
</g>
<g fill="#010101" fill-opacity="0.03" stroke="None">
<path d="
M 353.00 310.00 
C 332.26 306.63 320.53 329.85 312.77 345.77 C 305.01 361.69 286.34 376.15 289.22 396.78 C 292.11 417.41 324.13 419.61 333.70 402.70 C 343.26 385.79 351.12 371.03 362.08 356.08 C 373.05 341.13 377.18 313.93 353.00 310.00
M 346.00 372.00 
C 335.38 366.47 325.91 358.69 315.00 354.00
C 324.00 341.03 334.59 304.76 357.23 317.77 C 379.87 330.79 353.66 357.51 346.00 372.00
M 345.00 373.00 
C 336.01 385.97 325.41 422.24 302.77 409.23 C 280.13 396.21 306.33 369.49 314.00 355.00
C 324.62 360.53 334.09 368.31 345.00 373.00 Z"/>
</g>
<g fill="#8C8C8C" fill-opacity="0.00" stroke="None">
<path d="
M 435.00 314.00 
C 435.76 315.52 436.20 317.37 437.00 319.00
C 438.29 319.17 438.75 320.70 440.00 321.00
C 440.28 317.81 435.47 314.51 435.00 314.00 Z"/>
</g>
<g fill="#FAFAFA" fill-opacity="0.97" stroke="None">
<path d="
M 346.00 372.00 
C 353.66 357.51 379.87 330.79 357.23 317.77 C 334.59 304.76 324.00 341.03 315.00 354.00
C 325.91 358.69 335.38 366.47 346.00 372.00 Z"/>
</g>
<g fill="#B6B6B6" fill-opacity="0.09" stroke="None">
<path d="
M 65.00 342.00 
C 66.12 340.02 66.15 342.92 66.00 340.00
C 64.08 339.48 67.59 336.65 65.00 336.00
C 63.28 337.91 65.18 340.35 65.00 342.00 Z"/>
</g>
<g fill="#FAFAFA" fill-opacity="0.97" stroke="None">
<path d="
M 345.00 373.00 
C 334.09 368.31 324.62 360.53 314.00 355.00
C 306.33 369.49 280.13 396.21 302.77 409.23 C 325.41 422.24 336.01 385.97 345.00 373.00 Z"/>
</g>
<g fill="#949494" fill-opacity="0.08" stroke="None">
<path d="
M 67.00 408.00 
C 65.82 406.39 65.90 406.12 65.00 405.00
C 64.73 404.29 62.56 406.15 64.75 407.24 C 66.94 408.33 66.43 407.63 67.00 408.00 Z"/>
</g>
<g fill="#808080" fill-opacity="0.08" stroke="None">
<path d="
M 108.00 443.00 
C 109.03 444.02 108.26 444.89 109.92 446.06 C 111.57 447.23 112.36 445.08 112.00 445.00
C 110.28 443.84 108.76 443.43 108.00 443.00 Z"/>
</g>
<g fill="#808080" fill-opacity="0.07" stroke="None">
<path d="
M 401.00 445.00 
C 400.97 445.01 401.09 447.19 402.92 445.92 C 404.74 444.64 403.80 444.19 405.00 443.00
C 403.96 443.60 402.87 443.74 401.00 445.00 Z"/>
</g>
<g fill="#B3B3B3" fill-opacity="0.01" stroke="None">
<path d="
M 161.00 466.00 
C 159.93 465.32 160.52 465.29 159.00 465.00
C 159.06 466.44 157.08 465.74 157.00 467.00
C 160.28 466.73 162.75 469.27 166.00 469.00
C 164.87 467.46 162.46 466.93 161.00 466.00 Z"/>
</g>
<g fill="#B3B3B3" fill-opacity="0.01" stroke="None">
<path d="
M 352.00 466.00 
C 351.04 467.79 347.88 466.93 347.00 469.00
C 350.28 469.27 352.75 466.73 356.00 467.00
C 355.90 466.47 354.30 465.05 354.00 465.00
C 352.72 465.24 352.88 465.44 352.00 466.00 Z"/>
</g>
<g fill="#FFFFFF" fill-opacity="0.01" stroke="None">
<path d="
M 227.00 478.00 
C 221.22 479.32 215.00 475.14 210.00 478.00
C 215.68 477.13 221.97 481.00 227.00 478.00 Z"/>
</g>
<g fill="#FFFFFF" fill-opacity="0.01" stroke="None">
<path d="
M 295.00 478.00 
C 292.15 478.50 288.10 476.92 286.00 479.00
C 288.85 478.50 292.90 480.08 295.00 478.00 Z"/>
</g>
<g fill="#FFFFFF" fill-opacity="0.00" stroke="None">
<path d="
M 244.00 479.00 
C 239.49 479.59 233.75 477.78 230.00 480.00
C 234.51 479.41 240.25 481.22 244.00 479.00 Z"/>
</g>
<g fill="#FFFFFF" fill-opacity="0.00" stroke="None">
<path d="
M 283.00 479.00 
C 278.49 479.59 272.75 477.78 269.00 480.00
C 273.51 479.41 279.25 481.22 283.00 479.00 Z"/>
</g>
</svg>