<svg xmlns="http://www.w3.org/2000/svg" xmlns:v="https://svgstorm.com"
viewBox = "0 0 512 512"
width="512"
height="512">
<g fill="None" fill-opacity="0.0" stroke="#000000" stroke-opacity="0.00" stroke-width="0.3"><path d="
M 0.00 512.00 
L 512.00 512.00
L 512.00 0.00
L 0.00 0.00
L 0.00 512.00
M 382.00 18.00 
C 442.07 23.81 488.56 80.97 482.67 141.67 C 476.78 202.37 420.23 248.41 359.33 242.67 C 298.43 236.93 252.49 180.04 258.33 119.33 C 264.17 58.62 320.65 12.06 382.00 18.00
M 284.00 23.00 
C 272.70 30.33 272.05 45.45 257.00 45.00 C 241.95 44.55 223.86 45.20 208.00 45.00 C 192.14 44.80 174.21 45.10 158.00 45.00 C 141.79 44.90 125.38 45.05 109.00 45.00 C 92.62 44.95 75.45 45.04 59.00 45.00
C 59.00 182.33 59.00 319.67 59.00 457.00
C 159.67 457.00 260.33 457.00 361.00 457.00
C 361.00 392.67 361.00 328.33 361.00 264.00
C 368.85 263.56 376.05 265.76 384.00 265.00
C 384.02 283.77 383.97 303.31 384.00 322.00 C 384.03 340.69 383.95 361.69 384.00 380.00 C 384.05 398.31 383.89 419.69 384.00 437.00 C 384.11 454.31 388.90 479.17 368.00 479.00 C 347.10 478.83 329.90 479.09 310.00 479.00 C 290.10 478.91 272.34 479.08 253.00 479.00 C 233.66 478.92 213.92 479.12 195.00 479.00 C 176.08 478.88 155.23 479.25 137.00 479.00 C 118.77 478.75 96.87 479.54 80.00 479.00 C 63.13 478.46 37.33 485.33 36.00 465.00 C 34.68 444.66 36.61 426.70 36.00 407.00 C 35.39 387.30 36.28 369.39 36.00 350.00 C 35.72 330.61 36.15 311.23 36.00 292.00 C 35.85 272.77 36.12 254.12 36.00 235.00 C 35.88 215.88 36.18 195.97 36.00 177.00 C 35.82 158.03 36.35 137.57 36.00 119.00 C 35.65 100.43 36.77 79.75 36.00 62.00 C 35.23 44.25 32.80 21.48 54.00 22.00 C 75.20 22.52 91.90 21.72 112.00 22.00 C 132.10 22.28 149.43 21.77 169.00 22.00 C 188.57 22.23 207.67 21.68 227.00 22.00 C 246.33 22.32 265.22 20.93 284.00 23.00
M 256.00 195.00 
C 242.21 194.63 227.72 195.49 214.00 195.00 C 200.28 194.51 185.47 195.94 172.00 195.00 C 158.53 194.06 142.86 197.02 130.00 195.00 C 117.14 192.98 101.41 201.28 92.10 190.90 C 82.79 180.52 97.49 169.45 110.00 172.00 C 122.51 174.55 138.64 171.08 152.00 172.00 C 165.36 172.92 180.22 172.10 194.00 172.00 C 207.78 171.90 221.95 173.20 236.00 172.00 C 250.05 170.80 251.03 184.65 256.00 195.00
M 294.00 236.00 
C 281.14 240.29 265.54 237.15 251.00 238.00 C 236.46 238.85 219.56 237.12 205.00 238.00 C 190.44 238.88 174.16 236.47 160.00 238.00 C 145.84 239.53 127.13 234.88 114.00 238.00 C 100.87 241.12 82.14 231.95 91.77 219.77 C 101.40 207.59 118.54 217.19 132.00 215.00 C 145.46 212.81 163.98 215.68 178.00 215.00 C 192.02 214.32 209.19 214.54 223.00 215.00 C 236.81 215.46 256.25 213.17 269.00 215.00 C 281.75 216.83 281.67 234.37 294.00 236.00
M 321.00 258.00 
C 337.03 261.32 330.76 283.12 315.00 280.00 C 299.24 276.88 282.67 281.37 267.00 280.00 C 251.33 278.63 234.36 280.53 219.00 280.00 C 203.64 279.47 185.61 280.04 171.00 280.00 C 156.39 279.96 135.95 279.58 123.00 280.00 C 110.05 280.42 85.67 283.08 89.93 266.93 C 94.18 250.77 115.64 259.62 129.00 258.00 C 142.36 256.38 162.25 258.50 177.00 258.00 C 191.75 257.50 209.69 257.70 225.00 258.00 C 240.31 258.30 257.59 256.72 273.00 258.00 C 288.41 259.28 305.89 254.87 321.00 258.00
M 321.00 301.00 
C 336.01 304.11 331.42 325.57 316.00 324.00 C 300.57 322.43 283.49 324.67 268.00 324.00 C 252.51 323.33 235.22 324.20 220.00 324.00 C 204.78 323.80 186.42 323.87 172.00 324.00 C 157.58 324.13 136.56 323.46 124.00 324.00 C 111.44 324.54 86.24 326.50 89.33 310.33 C 92.43 294.15 115.19 302.43 128.00 301.00 C 140.81 299.57 161.48 301.40 176.00 301.00 C 190.52 300.60 208.75 300.64 224.00 301.00 C 239.25 301.36 256.52 299.65 272.00 301.00 C 287.48 302.35 305.75 297.84 321.00 301.00
M 321.00 344.00 
C 336.22 346.88 331.45 368.54 316.00 367.00 C 300.55 365.46 283.51 367.65 268.00 367.00 C 252.49 366.35 235.24 367.20 220.00 367.00 C 204.76 366.80 186.46 366.88 172.00 367.00 C 157.54 367.12 136.65 366.48 124.00 367.00 C 111.35 367.52 86.46 369.56 89.33 353.33 C 92.20 337.09 115.15 345.45 128.00 344.00 C 140.85 342.55 161.45 344.43 176.00 344.00 C 190.55 343.57 208.72 343.70 224.00 344.00 C 239.28 344.30 256.47 342.77 272.00 344.00 C 287.53 345.23 305.64 341.09 321.00 344.00
M 321.00 387.00 
C 336.22 389.88 331.44 411.54 316.00 410.00 C 300.55 408.46 283.51 410.65 268.00 410.00 C 252.49 409.35 235.24 410.20 220.00 410.00 C 204.76 409.80 186.46 409.88 172.00 410.00 C 157.54 410.12 136.65 409.48 124.00 410.00 C 111.35 410.52 86.46 412.56 89.33 396.33 C 92.20 380.09 115.15 388.45 128.00 387.00 C 140.85 385.55 161.45 387.43 176.00 387.00 C 190.55 386.57 208.72 386.70 224.00 387.00 C 239.28 387.30 256.47 385.77 272.00 387.00 C 287.53 388.23 305.64 384.09 321.00 387.00 Z"/>
</g>
<g fill="None" fill-opacity="0.0" stroke="#FEFEFE" stroke-opacity="0.98" stroke-width="0.3"><path d="
M 382.00 18.00 
C 320.65 12.06 264.17 58.62 258.33 119.33 C 252.49 180.04 298.43 236.93 359.33 242.67 C 420.23 248.41 476.78 202.37 482.67 141.67 C 488.56 80.97 442.07 23.81 382.00 18.00
M 368.00 47.00 
C 371.11 56.12 374.93 64.28 378.77 73.23 C 382.61 82.18 385.30 90.25 389.77 99.23 C 394.24 108.21 408.54 105.23 419.07 106.93 C 429.61 108.62 443.99 108.05 455.00 109.00
C 439.78 123.77 422.80 136.75 407.00 151.00
C 412.24 171.60 416.65 192.41 422.00 213.00
C 414.97 207.49 407.51 205.04 400.30 199.70 C 393.10 194.36 385.97 192.37 378.75 186.25 C 371.54 180.12 363.43 180.11 356.30 186.30 C 349.18 192.50 342.00 194.51 334.77 199.77 C 327.54 205.03 320.22 207.86 313.00 213.00
C 318.27 192.42 322.68 171.59 328.00 151.00
C 311.80 137.87 296.43 123.67 280.00 111.00
C 300.07 106.99 321.87 106.20 343.00 105.00
C 351.23 85.77 357.81 64.98 368.00 47.00 Z"/>
</g>
<g fill="None" fill-opacity="0.0" stroke="#FFFFFF" stroke-opacity="0.95" stroke-width="0.3"><path d="
M 284.00 23.00 
C 265.22 20.93 246.33 22.32 227.00 22.00 C 207.67 21.68 188.57 22.23 169.00 22.00 C 149.43 21.77 132.10 22.28 112.00 22.00 C 91.90 21.72 75.20 22.52 54.00 22.00 C 32.80 21.48 35.23 44.25 36.00 62.00 C 36.77 79.75 35.65 100.43 36.00 119.00 C 36.35 137.57 35.82 158.03 36.00 177.00 C 36.18 195.97 35.88 215.88 36.00 235.00 C 36.12 254.12 35.85 272.77 36.00 292.00 C 36.15 311.23 35.72 330.61 36.00 350.00 C 36.28 369.39 35.39 387.30 36.00 407.00 C 36.61 426.70 34.68 444.66 36.00 465.00 C 37.33 485.33 63.13 478.46 80.00 479.00 C 96.87 479.54 118.77 478.75 137.00 479.00 C 155.23 479.25 176.08 478.88 195.00 479.00 C 213.92 479.12 233.66 478.92 253.00 479.00 C 272.34 479.08 290.10 478.91 310.00 479.00 C 329.90 479.09 347.10 478.83 368.00 479.00 C 388.90 479.17 384.11 454.31 384.00 437.00 C 383.89 419.69 384.05 398.31 384.00 380.00 C 383.95 361.69 384.03 340.69 384.00 322.00 C 383.97 303.31 384.02 283.77 384.00 265.00
C 376.05 265.76 368.85 263.56 361.00 264.00
C 361.00 328.33 361.00 392.67 361.00 457.00
C 260.33 457.00 159.67 457.00 59.00 457.00
C 59.00 319.67 59.00 182.33 59.00 45.00
C 75.45 45.04 92.62 44.95 109.00 45.00 C 125.38 45.05 141.79 44.90 158.00 45.00 C 174.21 45.10 192.14 44.80 208.00 45.00 C 223.86 45.20 241.95 44.55 257.00 45.00 C 272.05 45.45 272.70 30.33 284.00 23.00 Z"/>
</g>
<g fill="None" fill-opacity="0.0" stroke="#000000" stroke-opacity="0.00" stroke-width="0.3"><path d="
M 368.00 47.00 
C 357.81 64.98 351.23 85.77 343.00 105.00
C 321.87 106.20 300.07 106.99 280.00 111.00
C 296.43 123.67 311.80 137.87 328.00 151.00
C 322.68 171.59 318.27 192.42 313.00 213.00
C 320.22 207.86 327.54 205.03 334.77 199.77 C 342.00 194.51 349.18 192.50 356.30 186.30 C 363.43 180.11 371.54 180.12 378.75 186.25 C 385.97 192.37 393.10 194.36 400.30 199.70 C 407.51 205.04 414.97 207.49 422.00 213.00
C 416.65 192.41 412.24 171.60 407.00 151.00
C 422.80 136.75 439.78 123.77 455.00 109.00
C 443.99 108.05 429.61 108.62 419.07 106.93 C 408.54 105.23 394.24 108.21 389.77 99.23 C 385.30 90.25 382.61 82.18 378.77 73.23 C 374.93 64.28 371.11 56.12 368.00 47.00 Z"/>
</g>
<g fill="None" fill-opacity="0.0" stroke="#FFFFFF" stroke-opacity="0.92" stroke-width="0.3"><path d="
M 256.00 195.00 
C 251.03 184.65 250.05 170.80 236.00 172.00 C 221.95 173.20 207.78 171.90 194.00 172.00 C 180.22 172.10 165.36 172.92 152.00 172.00 C 138.64 171.08 122.51 174.55 110.00 172.00 C 97.49 169.45 82.79 180.52 92.10 190.90 C 101.41 201.28 117.14 192.98 130.00 195.00 C 142.86 197.02 158.53 194.06 172.00 195.00 C 185.47 195.94 200.28 194.51 214.00 195.00 C 227.72 195.49 242.21 194.63 256.00 195.00 Z"/>
</g>
<g fill="None" fill-opacity="0.0" stroke="#FFFFFF" stroke-opacity="0.92" stroke-width="0.3"><path d="
M 294.00 236.00 
C 281.67 234.37 281.75 216.83 269.00 215.00 C 256.25 213.17 236.81 215.46 223.00 215.00 C 209.19 214.54 192.02 214.32 178.00 215.00 C 163.98 215.68 145.46 212.81 132.00 215.00 C 118.54 217.19 101.40 207.59 91.77 219.77 C 82.14 231.95 100.87 241.12 114.00 238.00 C 127.13 234.88 145.84 239.53 160.00 238.00 C 174.16 236.47 190.44 238.88 205.00 238.00 C 219.56 237.12 236.46 238.85 251.00 238.00 C 265.54 237.15 281.14 240.29 294.00 236.00 Z"/>
</g>
<g fill="None" fill-opacity="0.0" stroke="#FFFFFF" stroke-opacity="0.96" stroke-width="0.3"><path d="
M 321.00 258.00 
C 305.89 254.87 288.41 259.28 273.00 258.00 C 257.59 256.72 240.31 258.30 225.00 258.00 C 209.69 257.70 191.75 257.50 177.00 258.00 C 162.25 258.50 142.36 256.38 129.00 258.00 C 115.64 259.62 94.18 250.77 89.93 266.93 C 85.67 283.08 110.05 280.42 123.00 280.00 C 135.95 279.58 156.39 279.96 171.00 280.00 C 185.61 280.04 203.64 279.47 219.00 280.00 C 234.36 280.53 251.33 278.63 267.00 280.00 C 282.67 281.37 299.24 276.88 315.00 280.00 C 330.76 283.12 337.03 261.32 321.00 258.00 Z"/>
</g>
<g fill="None" fill-opacity="0.0" stroke="#FFFFFF" stroke-opacity="0.94" stroke-width="0.3"><path d="
M 321.00 301.00 
C 305.75 297.84 287.48 302.35 272.00 301.00 C 256.52 299.65 239.25 301.36 224.00 301.00 C 208.75 300.64 190.52 300.60 176.00 301.00 C 161.48 301.40 140.81 299.57 128.00 301.00 C 115.19 302.43 92.43 294.15 89.33 310.33 C 86.24 326.50 111.44 324.54 124.00 324.00 C 136.56 323.46 157.58 324.13 172.00 324.00 C 186.42 323.87 204.78 323.80 220.00 324.00 C 235.22 324.20 252.51 323.33 268.00 324.00 C 283.49 324.67 300.57 322.43 316.00 324.00 C 331.42 325.57 336.01 304.11 321.00 301.00 Z"/>
</g>
<g fill="None" fill-opacity="0.0" stroke="#FFFFFF" stroke-opacity="0.94" stroke-width="0.3"><path d="
M 321.00 344.00 
C 305.64 341.09 287.53 345.23 272.00 344.00 C 256.47 342.77 239.28 344.30 224.00 344.00 C 208.72 343.70 190.55 343.57 176.00 344.00 C 161.45 344.43 140.85 342.55 128.00 344.00 C 115.15 345.45 92.20 337.09 89.33 353.33 C 86.46 369.56 111.35 367.52 124.00 367.00 C 136.65 366.48 157.54 367.12 172.00 367.00 C 186.46 366.88 204.76 366.80 220.00 367.00 C 235.24 367.20 252.49 366.35 268.00 367.00 C 283.51 367.65 300.55 365.46 316.00 367.00 C 331.45 368.54 336.22 346.88 321.00 344.00 Z"/>
</g>
<g fill="None" fill-opacity="0.0" stroke="#FFFFFF" stroke-opacity="0.94" stroke-width="0.3"><path d="
M 321.00 387.00 
C 305.64 384.09 287.53 388.23 272.00 387.00 C 256.47 385.77 239.28 387.30 224.00 387.00 C 208.72 386.70 190.55 386.57 176.00 387.00 C 161.45 387.43 140.85 385.55 128.00 387.00 C 115.15 388.45 92.20 380.09 89.33 396.33 C 86.46 412.56 111.35 410.52 124.00 410.00 C 136.65 409.48 157.54 410.12 172.00 410.00 C 186.46 409.88 204.76 409.80 220.00 410.00 C 235.24 410.20 252.49 409.35 268.00 410.00 C 283.51 410.65 300.55 408.46 316.00 410.00 C 331.44 411.54 336.22 389.88 321.00 387.00 Z"/>
</g>
<g fill="#000000" fill-opacity="0.00" stroke="None">
<path d="
M 0.00 512.00 
L 512.00 512.00
L 512.00 0.00
L 0.00 0.00
L 0.00 512.00
M 382.00 18.00 
C 442.07 23.81 488.56 80.97 482.67 141.67 C 476.78 202.37 420.23 248.41 359.33 242.67 C 298.43 236.93 252.49 180.04 258.33 119.33 C 264.17 58.62 320.65 12.06 382.00 18.00
M 284.00 23.00 
C 272.70 30.33 272.05 45.45 257.00 45.00 C 241.95 44.55 223.86 45.20 208.00 45.00 C 192.14 44.80 174.21 45.10 158.00 45.00 C 141.79 44.90 125.38 45.05 109.00 45.00 C 92.62 44.95 75.45 45.04 59.00 45.00
C 59.00 182.33 59.00 319.67 59.00 457.00
C 159.67 457.00 260.33 457.00 361.00 457.00
C 361.00 392.67 361.00 328.33 361.00 264.00
C 368.85 263.56 376.05 265.76 384.00 265.00
C 384.02 283.77 383.97 303.31 384.00 322.00 C 384.03 340.69 383.95 361.69 384.00 380.00 C 384.05 398.31 383.89 419.69 384.00 437.00 C 384.11 454.31 388.90 479.17 368.00 479.00 C 347.10 478.83 329.90 479.09 310.00 479.00 C 290.10 478.91 272.34 479.08 253.00 479.00 C 233.66 478.92 213.92 479.12 195.00 479.00 C 176.08 478.88 155.23 479.25 137.00 479.00 C 118.77 478.75 96.87 479.54 80.00 479.00 C 63.13 478.46 37.33 485.33 36.00 465.00 C 34.68 444.66 36.61 426.70 36.00 407.00 C 35.39 387.30 36.28 369.39 36.00 350.00 C 35.72 330.61 36.15 311.23 36.00 292.00 C 35.85 272.77 36.12 254.12 36.00 235.00 C 35.88 215.88 36.18 195.97 36.00 177.00 C 35.82 158.03 36.35 137.57 36.00 119.00 C 35.65 100.43 36.77 79.75 36.00 62.00 C 35.23 44.25 32.80 21.48 54.00 22.00 C 75.20 22.52 91.90 21.72 112.00 22.00 C 132.10 22.28 149.43 21.77 169.00 22.00 C 188.57 22.23 207.67 21.68 227.00 22.00 C 246.33 22.32 265.22 20.93 284.00 23.00
M 256.00 195.00 
C 242.21 194.63 227.72 195.49 214.00 195.00 C 200.28 194.51 185.47 195.94 172.00 195.00 C 158.53 194.06 142.86 197.02 130.00 195.00 C 117.14 192.98 101.41 201.28 92.10 190.90 C 82.79 180.52 97.49 169.45 110.00 172.00 C 122.51 174.55 138.64 171.08 152.00 172.00 C 165.36 172.92 180.22 172.10 194.00 172.00 C 207.78 171.90 221.95 173.20 236.00 172.00 C 250.05 170.80 251.03 184.65 256.00 195.00
M 294.00 236.00 
C 281.14 240.29 265.54 237.15 251.00 238.00 C 236.46 238.85 219.56 237.12 205.00 238.00 C 190.44 238.88 174.16 236.47 160.00 238.00 C 145.84 239.53 127.13 234.88 114.00 238.00 C 100.87 241.12 82.14 231.95 91.77 219.77 C 101.40 207.59 118.54 217.19 132.00 215.00 C 145.46 212.81 163.98 215.68 178.00 215.00 C 192.02 214.32 209.19 214.54 223.00 215.00 C 236.81 215.46 256.25 213.17 269.00 215.00 C 281.75 216.83 281.67 234.37 294.00 236.00
M 321.00 258.00 
C 337.03 261.32 330.76 283.12 315.00 280.00 C 299.24 276.88 282.67 281.37 267.00 280.00 C 251.33 278.63 234.36 280.53 219.00 280.00 C 203.64 279.47 185.61 280.04 171.00 280.00 C 156.39 279.96 135.95 279.58 123.00 280.00 C 110.05 280.42 85.67 283.08 89.93 266.93 C 94.18 250.77 115.64 259.62 129.00 258.00 C 142.36 256.38 162.25 258.50 177.00 258.00 C 191.75 257.50 209.69 257.70 225.00 258.00 C 240.31 258.30 257.59 256.72 273.00 258.00 C 288.41 259.28 305.89 254.87 321.00 258.00
M 321.00 301.00 
C 336.01 304.11 331.42 325.57 316.00 324.00 C 300.57 322.43 283.49 324.67 268.00 324.00 C 252.51 323.33 235.22 324.20 220.00 324.00 C 204.78 323.80 186.42 323.87 172.00 324.00 C 157.58 324.13 136.56 323.46 124.00 324.00 C 111.44 324.54 86.24 326.50 89.33 310.33 C 92.43 294.15 115.19 302.43 128.00 301.00 C 140.81 299.57 161.48 301.40 176.00 301.00 C 190.52 300.60 208.75 300.64 224.00 301.00 C 239.25 301.36 256.52 299.65 272.00 301.00 C 287.48 302.35 305.75 297.84 321.00 301.00
M 321.00 344.00 
C 336.22 346.88 331.45 368.54 316.00 367.00 C 300.55 365.46 283.51 367.65 268.00 367.00 C 252.49 366.35 235.24 367.20 220.00 367.00 C 204.76 366.80 186.46 366.88 172.00 367.00 C 157.54 367.12 136.65 366.48 124.00 367.00 C 111.35 367.52 86.46 369.56 89.33 353.33 C 92.20 337.09 115.15 345.45 128.00 344.00 C 140.85 342.55 161.45 344.43 176.00 344.00 C 190.55 343.57 208.72 343.70 224.00 344.00 C 239.28 344.30 256.47 342.77 272.00 344.00 C 287.53 345.23 305.64 341.09 321.00 344.00
M 321.00 387.00 
C 336.22 389.88 331.44 411.54 316.00 410.00 C 300.55 408.46 283.51 410.65 268.00 410.00 C 252.49 409.35 235.24 410.20 220.00 410.00 C 204.76 409.80 186.46 409.88 172.00 410.00 C 157.54 410.12 136.65 409.48 124.00 410.00 C 111.35 410.52 86.46 412.56 89.33 396.33 C 92.20 380.09 115.15 388.45 128.00 387.00 C 140.85 385.55 161.45 387.43 176.00 387.00 C 190.55 386.57 208.72 386.70 224.00 387.00 C 239.28 387.30 256.47 385.77 272.00 387.00 C 287.53 388.23 305.64 384.09 321.00 387.00 Z"/>
</g>
<g fill="#FEFEFE" fill-opacity="0.98" stroke="None">
<path d="
M 382.00 18.00 
C 320.65 12.06 264.17 58.62 258.33 119.33 C 252.49 180.04 298.43 236.93 359.33 242.67 C 420.23 248.41 476.78 202.37 482.67 141.67 C 488.56 80.97 442.07 23.81 382.00 18.00
M 368.00 47.00 
C 371.11 56.12 374.93 64.28 378.77 73.23 C 382.61 82.18 385.30 90.25 389.77 99.23 C 394.24 108.21 408.54 105.23 419.07 106.93 C 429.61 108.62 443.99 108.05 455.00 109.00
C 439.78 123.77 422.80 136.75 407.00 151.00
C 412.24 171.60 416.65 192.41 422.00 213.00
C 414.97 207.49 407.51 205.04 400.30 199.70 C 393.10 194.36 385.97 192.37 378.75 186.25 C 371.54 180.12 363.43 180.11 356.30 186.30 C 349.18 192.50 342.00 194.51 334.77 199.77 C 327.54 205.03 320.22 207.86 313.00 213.00
C 318.27 192.42 322.68 171.59 328.00 151.00
C 311.80 137.87 296.43 123.67 280.00 111.00
C 300.07 106.99 321.87 106.20 343.00 105.00
C 351.23 85.77 357.81 64.98 368.00 47.00 Z"/>
</g>
<g fill="#FFFFFF" fill-opacity="0.95" stroke="None">
<path d="
M 284.00 23.00 
C 265.22 20.93 246.33 22.32 227.00 22.00 C 207.67 21.68 188.57 22.23 169.00 22.00 C 149.43 21.77 132.10 22.28 112.00 22.00 C 91.90 21.72 75.20 22.52 54.00 22.00 C 32.80 21.48 35.23 44.25 36.00 62.00 C 36.77 79.75 35.65 100.43 36.00 119.00 C 36.35 137.57 35.82 158.03 36.00 177.00 C 36.18 195.97 35.88 215.88 36.00 235.00 C 36.12 254.12 35.85 272.77 36.00 292.00 C 36.15 311.23 35.72 330.61 36.00 350.00 C 36.28 369.39 35.39 387.30 36.00 407.00 C 36.61 426.70 34.68 444.66 36.00 465.00 C 37.33 485.33 63.13 478.46 80.00 479.00 C 96.87 479.54 118.77 478.75 137.00 479.00 C 155.23 479.25 176.08 478.88 195.00 479.00 C 213.92 479.12 233.66 478.92 253.00 479.00 C 272.34 479.08 290.10 478.91 310.00 479.00 C 329.90 479.09 347.10 478.83 368.00 479.00 C 388.90 479.17 384.11 454.31 384.00 437.00 C 383.89 419.69 384.05 398.31 384.00 380.00 C 383.95 361.69 384.03 340.69 384.00 322.00 C 383.97 303.31 384.02 283.77 384.00 265.00
C 376.05 265.76 368.85 263.56 361.00 264.00
C 361.00 328.33 361.00 392.67 361.00 457.00
C 260.33 457.00 159.67 457.00 59.00 457.00
C 59.00 319.67 59.00 182.33 59.00 45.00
C 75.45 45.04 92.62 44.95 109.00 45.00 C 125.38 45.05 141.79 44.90 158.00 45.00 C 174.21 45.10 192.14 44.80 208.00 45.00 C 223.86 45.20 241.95 44.55 257.00 45.00 C 272.05 45.45 272.70 30.33 284.00 23.00 Z"/>
</g>
<g fill="#000000" fill-opacity="0.00" stroke="None">
<path d="
M 368.00 47.00 
C 357.81 64.98 351.23 85.77 343.00 105.00
C 321.87 106.20 300.07 106.99 280.00 111.00
C 296.43 123.67 311.80 137.87 328.00 151.00
C 322.68 171.59 318.27 192.42 313.00 213.00
C 320.22 207.86 327.54 205.03 334.77 199.77 C 342.00 194.51 349.18 192.50 356.30 186.30 C 363.43 180.11 371.54 180.12 378.75 186.25 C 385.97 192.37 393.10 194.36 400.30 199.70 C 407.51 205.04 414.97 207.49 422.00 213.00
C 416.65 192.41 412.24 171.60 407.00 151.00
C 422.80 136.75 439.78 123.77 455.00 109.00
C 443.99 108.05 429.61 108.62 419.07 106.93 C 408.54 105.23 394.24 108.21 389.77 99.23 C 385.30 90.25 382.61 82.18 378.77 73.23 C 374.93 64.28 371.11 56.12 368.00 47.00 Z"/>
</g>
<g fill="#FFFFFF" fill-opacity="0.92" stroke="None">
<path d="
M 256.00 195.00 
C 251.03 184.65 250.05 170.80 236.00 172.00 C 221.95 173.20 207.78 171.90 194.00 172.00 C 180.22 172.10 165.36 172.92 152.00 172.00 C 138.64 171.08 122.51 174.55 110.00 172.00 C 97.49 169.45 82.79 180.52 92.10 190.90 C 101.41 201.28 117.14 192.98 130.00 195.00 C 142.86 197.02 158.53 194.06 172.00 195.00 C 185.47 195.94 200.28 194.51 214.00 195.00 C 227.72 195.49 242.21 194.63 256.00 195.00 Z"/>
</g>
<g fill="#FFFFFF" fill-opacity="0.92" stroke="None">
<path d="
M 294.00 236.00 
C 281.67 234.37 281.75 216.83 269.00 215.00 C 256.25 213.17 236.81 215.46 223.00 215.00 C 209.19 214.54 192.02 214.32 178.00 215.00 C 163.98 215.68 145.46 212.81 132.00 215.00 C 118.54 217.19 101.40 207.59 91.77 219.77 C 82.14 231.95 100.87 241.12 114.00 238.00 C 127.13 234.88 145.84 239.53 160.00 238.00 C 174.16 236.47 190.44 238.88 205.00 238.00 C 219.56 237.12 236.46 238.85 251.00 238.00 C 265.54 237.15 281.14 240.29 294.00 236.00 Z"/>
</g>
<g fill="#FFFFFF" fill-opacity="0.96" stroke="None">
<path d="
M 321.00 258.00 
C 305.89 254.87 288.41 259.28 273.00 258.00 C 257.59 256.72 240.31 258.30 225.00 258.00 C 209.69 257.70 191.75 257.50 177.00 258.00 C 162.25 258.50 142.36 256.38 129.00 258.00 C 115.64 259.62 94.18 250.77 89.93 266.93 C 85.67 283.08 110.05 280.42 123.00 280.00 C 135.95 279.58 156.39 279.96 171.00 280.00 C 185.61 280.04 203.64 279.47 219.00 280.00 C 234.36 280.53 251.33 278.63 267.00 280.00 C 282.67 281.37 299.24 276.88 315.00 280.00 C 330.76 283.12 337.03 261.32 321.00 258.00 Z"/>
</g>
<g fill="#FFFFFF" fill-opacity="0.94" stroke="None">
<path d="
M 321.00 301.00 
C 305.75 297.84 287.48 302.35 272.00 301.00 C 256.52 299.65 239.25 301.36 224.00 301.00 C 208.75 300.64 190.52 300.60 176.00 301.00 C 161.48 301.40 140.81 299.57 128.00 301.00 C 115.19 302.43 92.43 294.15 89.33 310.33 C 86.24 326.50 111.44 324.54 124.00 324.00 C 136.56 323.46 157.58 324.13 172.00 324.00 C 186.42 323.87 204.78 323.80 220.00 324.00 C 235.22 324.20 252.51 323.33 268.00 324.00 C 283.49 324.67 300.57 322.43 316.00 324.00 C 331.42 325.57 336.01 304.11 321.00 301.00 Z"/>
</g>
<g fill="#FFFFFF" fill-opacity="0.94" stroke="None">
<path d="
M 321.00 344.00 
C 305.64 341.09 287.53 345.23 272.00 344.00 C 256.47 342.77 239.28 344.30 224.00 344.00 C 208.72 343.70 190.55 343.57 176.00 344.00 C 161.45 344.43 140.85 342.55 128.00 344.00 C 115.15 345.45 92.20 337.09 89.33 353.33 C 86.46 369.56 111.35 367.52 124.00 367.00 C 136.65 366.48 157.54 367.12 172.00 367.00 C 186.46 366.88 204.76 366.80 220.00 367.00 C 235.24 367.20 252.49 366.35 268.00 367.00 C 283.51 367.65 300.55 365.46 316.00 367.00 C 331.45 368.54 336.22 346.88 321.00 344.00 Z"/>
</g>
<g fill="#FFFFFF" fill-opacity="0.94" stroke="None">
<path d="
M 321.00 387.00 
C 305.64 384.09 287.53 388.23 272.00 387.00 C 256.47 385.77 239.28 387.30 224.00 387.00 C 208.72 386.70 190.55 386.57 176.00 387.00 C 161.45 387.43 140.85 385.55 128.00 387.00 C 115.15 388.45 92.20 380.09 89.33 396.33 C 86.46 412.56 111.35 410.52 124.00 410.00 C 136.65 409.48 157.54 410.12 172.00 410.00 C 186.46 409.88 204.76 409.80 220.00 410.00 C 235.24 410.20 252.49 409.35 268.00 410.00 C 283.51 410.65 300.55 408.46 316.00 410.00 C 331.44 411.54 336.22 389.88 321.00 387.00 Z"/>
</g>
</svg>