<?xml version="1.0" standalone="no"?>
<!DOCTYPE svg PUBLIC "-//W3C//DTD SVG 20010904//EN"
 "http://www.w3.org/TR/2001/REC-SVG-20010904/DTD/svg10.dtd">
<svg version="1.0" xmlns="http://www.w3.org/2000/svg"
 width="300.000000pt" height="300.000000pt" viewBox="0 0 300.000000 300.000000"
 preserveAspectRatio="xMidYMid meet">
<metadata>
Created by potrace 1.10, written by Peter Selinger 2001-2011
</metadata>
<g transform="translate(0.000000,300.000000) scale(0.100000,-0.100000)"
fill="#000000" stroke="none">
<path d="M990 2985 c-175 -28 -377 -113 -518 -217 -302 -223 -486 -608 -469
-983 16 -355 169 -656 447 -880 293 -236 702 -310 1077 -195 77 24 202 81 264
120 25 17 48 30 51 30 3 0 8 -13 11 -29 9 -44 77 -119 423 -463 341 -338 378
-368 470 -368 138 0 254 116 254 254 0 91 -30 129 -368 469 -344 346 -419 415
-463 424 -16 3 -29 8 -29 11 0 3 13 26 30 51 127 199 190 468 169 718 -25 294
-142 538 -356 746 -156 151 -350 254 -573 302 -105 22 -315 28 -420 10z m405
-310 c75 -21 208 -82 272 -126 169 -115 300 -301 354 -504 29 -106 32 -307 7
-410 -81 -332 -315 -572 -642 -658 -114 -30 -317 -29 -431 2 -258 69 -461 241
-574 483 -63 135 -75 192 -75 363 0 163 10 220 64 347 112 264 367 467 650
517 78 14 303 5 375 -14z"/>
</g>
</svg>
