<?xml version="1.0" standalone="no"?>
<!DOCTYPE svg PUBLIC "-//W3C//DTD SVG 20010904//EN"
 "http://www.w3.org/TR/2001/REC-SVG-20010904/DTD/svg10.dtd">
<svg version="1.0" xmlns="http://www.w3.org/2000/svg"
 width="2400.000000pt" height="2400.000000pt" viewBox="0 0 2400.000000 2400.000000"
 preserveAspectRatio="xMidYMid meet">
<metadata>
Created by potrace 1.10, written by Peter Selinger 2001-2011
</metadata>
<g transform="translate(0.000000,2400.000000) scale(0.100000,-0.100000)"
fill="#000000" stroke="none">
<path d="M1462 22518 c-17 -17 -17 -2519 0 -2536 9 -9 304 -12 1264 -12 1125
0 1254 2 1268 16 14 14 16 143 16 1268 0 960 -3 1255 -12 1264 -17 17 -2519
17 -2536 0z m2176 -1257 c1 -654 -1 -897 -9 -907 -10 -12 -161 -14 -908 -12
l-896 3 -3 908 -2 907 907 -2 908 -3 3 -894z"/>
<path d="M2185 21788 c-3 -7 -4 -251 -3 -543 l3 -530 540 0 540 0 0 540 0 540
-538 3 c-425 2 -539 0 -542 -10z"/>
<path d="M4735 22517 c-3 -6 -4 -170 -3 -362 l3 -350 175 -3 c124 -2 176 -6
182 -15 5 -6 8 -82 8 -167 -1 -85 -1 -161 0 -168 0 -10 39 -12 178 -10 l177 3
3 358 2 357 166 0 c95 0 174 4 185 10 18 10 19 23 19 173 0 114 -4 167 -12
175 -18 18 -332 17 -347 -1 -6 -8 -12 -79 -13 -183 l-3 -169 -145 -3 c-80 -2
-160 0 -177 3 l-33 6 0 167 c0 117 -4 172 -12 180 -17 17 -347 17 -353 -1z"/>
<path d="M6932 22522 c-9 -7 -12 -86 -10 -363 l3 -354 178 -3 177 -2 0 -180 0
-180 -360 0 -360 0 -2 358 -3 357 -177 3 c-139 2 -178 0 -178 -10 0 -7 -1
-332 -3 -723 l-2 -710 -182 -3 -183 -2 -2 177 -3 178 -174 3 c-133 2 -176 -1
-183 -10 -13 -21 -10 -322 4 -336 8 -8 64 -12 185 -12 l173 0 2 -547 3 -548
170 -3 c145 -2 172 -5 183 -19 8 -12 12 -65 12 -180 l0 -163 -182 -2 -183 -3
-3 -169 c-2 -116 1 -173 9 -182 18 -22 322 -20 343 2 13 13 16 44 16 185 l0
169 178 -2 177 -3 3 -175 c2 -124 6 -176 15 -182 16 -10 318 -10 334 0 10 6
13 94 15 363 l3 354 177 3 178 2 2 -177 3 -178 180 -5 180 -5 0 -180 0 -180
-176 -3 c-173 -2 -177 -3 -183 -25 -3 -12 -6 -93 -6 -179 l0 -158 -168 0
c-117 0 -172 -4 -180 -12 -13 -13 -18 -311 -6 -342 5 -14 31 -16 180 -16 l174
0 0 -353 c0 -261 3 -356 12 -365 8 -8 64 -12 185 -12 l173 0 2 -177 3 -178
169 -3 c106 -1 175 -7 183 -14 11 -8 13 -47 11 -177 l-3 -166 -545 0 -545 0
-5 175 -5 175 -175 5 -175 5 -3 177 -2 178 177 2 178 3 3 178 2 177 -180 0
-180 0 0 -180 0 -180 -180 0 -180 0 0 -534 c0 -442 -2 -536 -14 -545 -9 -8
-66 -11 -182 -9 l-169 3 -3 354 c-2 269 -5 357 -15 363 -6 4 -85 8 -173 8
-123 0 -164 -3 -173 -13 -7 -9 -12 -126 -13 -363 l-3 -349 -177 -3 -178 -2 0
354 c0 287 -3 356 -14 365 -9 8 -113 11 -362 9 l-349 -3 -3 -177 -2 -178 177
-2 178 -3 5 -180 5 -180 180 -5 180 -5 0 -180 0 -180 -362 -3 -363 -2 0 169
c0 93 -3 176 -6 185 -5 14 -31 16 -180 16 l-174 0 0 169 c0 141 -3 172 -16
185 -13 13 -44 16 -185 16 l-169 0 0 180 0 180 183 2 182 3 3 177 2 178 178 2
177 3 3 177 2 177 171 3 c94 2 175 1 180 -2 5 -3 10 -84 11 -180 l3 -175 360
0 360 0 0 1090 0 1090 -175 6 c-96 3 -176 6 -177 7 -2 1 -3 81 -3 177 l0 175
168 0 c92 0 173 4 180 8 9 7 12 50 10 183 l-3 174 -177 3 -178 2 0 166 c0 95
-4 174 -10 185 -10 18 -25 19 -354 19 -278 0 -346 -3 -355 -14 -8 -9 -10 -161
-9 -547 l3 -534 175 -5 175 -5 3 -177 2 -178 -177 -2 -178 -3 -5 -360 -5 -360
-177 -3 -178 -2 0 167 c0 93 -4 174 -8 180 -6 9 -58 13 -182 15 l-175 3 -3
182 -2 183 182 2 183 3 3 155 c1 85 0 165 -3 178 -5 22 -6 22 -183 20 l-177
-3 -3 -177 -2 -178 -363 -2 -362 -3 -5 -180 -5 -180 -180 0 -180 0 -5 360 -5
360 -358 3 -357 2 2 -362 3 -363 357 -3 358 -2 2 -178 3 -177 174 -3 c133 -2
176 1 183 10 4 7 8 88 8 181 l0 167 365 0 365 0 2 -177 3 -178 180 -5 180 -5
3 -183 2 -182 -1092 2 -1093 3 -5 170 c-3 94 -9 176 -13 183 -11 17 -328 17
-345 0 -14 -14 -17 -1054 -4 -1076 7 -9 86 -12 363 -10 l354 3 3 178 2 177
180 0 180 0 0 -164 c0 -90 3 -171 6 -180 6 -14 63 -16 550 -16 l544 0 0 -180
0 -180 -547 -2 -548 -3 0 -175 0 -175 545 -5 545 -5 5 -180 5 -180 183 -3 182
-2 -2 -183 -3 -182 -350 -2 c-209 -2 -356 1 -365 7 -12 7 -16 43 -20 182 l-5
173 -175 0 -175 0 -5 -170 c-3 -93 -9 -176 -13 -182 -12 -19 -330 -18 -346 0
-6 8 -12 79 -13 183 l-3 169 -177 3 -178 2 0 173 c0 121 -4 177 -12 185 -9 9
-101 12 -353 12 -252 0 -344 -3 -353 -12 -17 -17 -17 -699 0 -716 17 -17 334
-17 345 1 4 6 10 89 13 182 l5 170 178 3 177 2 -2 -362 -3 -363 -349 -3 c-241
-1 -353 -6 -363 -14 -11 -8 -13 -47 -11 -182 l3 -171 360 -5 360 -5 5 -175 5
-175 175 0 175 0 3 350 c2 315 4 351 19 363 26 19 686 17 702 -2 8 -9 11 -66
9 -182 l-3 -169 -175 -3 c-96 -1 -177 -6 -180 -11 -3 -5 -3 -85 0 -177 l5
-169 714 -3 c507 -1 718 -5 728 -13 10 -9 13 -51 13 -180 l0 -169 363 -2 362
-3 3 -169 c2 -116 -1 -173 -9 -182 -9 -11 -49 -14 -179 -14 -144 0 -169 -2
-174 -16 -3 -9 -6 -256 -6 -550 l0 -534 -177 -2 -178 -3 -3 -357 -2 -358 177
-2 178 -3 5 -180 5 -180 719 -3 c519 -1 723 1 732 9 11 9 14 83 16 363 l3 351
175 0 175 0 3 -177 2 -178 180 0 180 0 0 -179 c0 -154 2 -180 16 -185 20 -8
678 -8 698 0 14 5 16 30 16 173 0 117 -4 171 -12 179 -9 9 -104 12 -365 12
l-353 0 2 178 3 177 177 3 177 2 3 170 c2 94 2 175 0 180 -2 6 -70 10 -171 10
-117 0 -171 4 -179 12 -9 9 -12 104 -12 365 l0 353 176 0 c159 0 176 2 180 18
3 9 6 171 7 359 1 188 6 345 10 350 5 4 169 10 365 13 l357 5 3 164 c2 112 -1
168 -9 177 -9 11 -47 14 -169 14 -87 0 -165 3 -174 6 -14 6 -16 78 -16 718 0
540 3 715 12 724 17 17 329 17 346 0 8 -8 12 -61 12 -173 0 -112 4 -165 12
-173 8 -8 63 -12 180 -12 l168 0 -2 -177 -3 -178 -166 -3 c-126 -2 -170 -6
-178 -16 -8 -9 -11 -68 -9 -182 l3 -169 178 -3 177 -2 0 -168 c0 -92 4 -173 8
-179 6 -9 58 -13 182 -15 l175 -3 0 -360 0 -360 -170 -3 c-145 -2 -172 -5
-182 -19 -10 -13 -13 -139 -13 -550 l0 -533 -164 0 c-90 0 -171 3 -180 6 -14
5 -16 62 -16 538 0 400 -3 535 -12 544 -18 18 -332 17 -347 -2 -8 -9 -10 -208
-9 -727 l3 -714 169 -3 c102 -1 175 -7 183 -13 9 -8 13 -56 15 -178 l3 -166
178 -3 c138 -2 177 0 177 10 0 7 0 169 0 361 l0 347 185 0 185 0 2 -542 3
-543 355 0 355 0 0 180 0 180 -175 5 -175 5 0 175 0 175 178 3 177 2 0 355 c0
340 1 355 19 365 31 16 326 13 340 -3 7 -9 12 -126 13 -363 l3 -349 363 -3
362 -2 0 -180 0 -180 -346 0 c-219 0 -352 -4 -365 -10 -18 -10 -19 -23 -19
-179 0 -145 2 -170 16 -175 9 -3 251 -6 538 -6 393 0 525 3 534 12 9 9 12 104
12 365 l0 353 543 2 542 3 0 175 0 175 -172 3 c-159 2 -173 4 -183 22 -7 12
-9 198 -8 547 l3 528 169 3 c104 1 175 7 183 13 10 9 13 81 13 349 0 186 -3
345 -6 354 -5 14 -31 16 -180 16 -172 0 -174 0 -179 23 -3 12 -4 175 -3 362
l3 340 174 1 c134 2 175 5 182 15 14 23 11 1063 -3 1077 -19 19 -691 17 -707
-2 -8 -9 -11 -66 -9 -182 l3 -169 175 -5 175 -5 3 -362 2 -363 -180 0 -180 0
-2 178 -3 177 -175 5 -175 5 -3 169 c-1 104 -7 175 -13 183 -9 10 -52 13 -175
13 -151 0 -164 -1 -174 -19 -6 -11 -10 -89 -10 -180 0 -89 -1 -162 -2 -163 -2
-1 -82 -4 -178 -7 l-175 -6 -3 -169 c-1 -94 2 -174 7 -179 5 -5 74 -8 154 -8
80 1 157 -1 171 -5 l26 -6 -2 -177 -3 -176 -340 -3 c-187 -1 -350 0 -362 3
-23 5 -23 7 -23 173 0 117 -4 172 -12 180 -9 9 -144 12 -545 12 l-533 0 -2
178 -3 177 -180 5 -180 5 0 358 c0 307 2 359 15 367 24 16 325 13 339 -3 6 -8
12 -79 13 -183 l3 -169 178 -3 177 -2 0 -173 c0 -121 4 -177 12 -185 17 -17
689 -17 706 0 8 8 12 61 12 173 0 112 4 165 12 173 8 8 61 12 174 12 122 0
164 3 173 13 6 8 12 79 13 183 l3 169 360 5 360 5 5 175 5 175 175 5 175 5 0
175 0 175 -175 5 -175 5 -3 547 -2 548 177 2 178 3 3 178 2 177 180 0 180 0 0
-168 c0 -117 4 -172 12 -180 8 -8 63 -12 180 -12 166 0 168 0 173 23 3 12 4
175 3 362 l-3 340 -360 0 -360 0 -3 -182 -2 -183 -180 0 -180 0 -2 363 -3 362
-174 3 c-133 2 -176 -1 -183 -10 -13 -22 -10 -692 4 -706 8 -8 64 -12 185 -12
l173 0 0 -180 0 -180 -362 2 -363 3 -3 529 c-1 371 -6 533 -13 543 -9 10 -81
13 -364 13 -313 0 -354 -2 -359 -16 -3 -9 -6 -168 -6 -354 0 -325 1 -340 19
-350 11 -6 89 -10 180 -10 158 0 161 0 166 -22 3 -13 4 -93 3 -178 l-3 -155
-360 0 -360 0 -5 905 -5 905 -175 0 -175 0 -3 -171 c-2 -130 -6 -175 -16 -183
-9 -8 -68 -11 -182 -9 l-169 3 -5 545 -5 545 -175 5 -175 5 -3 363 -2 362 180
0 180 0 2 -177 3 -178 360 0 360 0 0 540 0 540 -349 3 c-249 2 -353 -1 -362
-9 -11 -9 -14 -50 -14 -185 l0 -174 -177 -2 -178 -3 -3 -178 -2 -177 -368 2
-367 3 -3 155 c-1 85 0 165 3 178 5 22 7 22 173 22 117 0 172 4 180 12 8 8 12
62 12 179 0 143 -2 168 -16 173 -24 9 -687 7 -702 -2z m1813 -542 l0 -175
-180 0 -180 0 -3 178 -2 177 182 -2 183 -3 0 -175z m-1106 -554 c8 -9 11 -66
9 -182 l-3 -169 -174 -3 c-133 -2 -176 1 -183 10 -9 16 -11 342 -1 351 3 4 82
7 173 7 130 0 170 -3 179 -14z m-359 -906 l0 -550 185 0 185 0 0 -167 c0 -93
-4 -174 -8 -181 -7 -9 -50 -12 -183 -10 l-174 3 -3 178 -2 177 -168 0 c-117 0
-172 4 -180 12 -9 9 -12 141 -12 534 0 287 3 529 6 538 5 14 31 16 180 16
l174 0 0 -550z m740 382 c0 -117 -4 -172 -12 -180 -13 -13 -311 -18 -342 -6
-14 5 -16 31 -16 180 l0 174 185 0 185 0 0 -168z m-1472 -204 c19 -19 17 -701
-2 -717 -9 -8 -65 -11 -177 -9 l-164 3 -3 368 -2 367 168 0 c117 0 172 -4 180
-12z m-1453 -543 l0 -180 -169 -3 c-116 -2 -173 1 -182 9 -11 9 -14 49 -14
179 0 91 3 170 7 174 4 3 86 5 182 4 l176 -3 0 -180z m2914 171 c8 -9 11 -66
9 -182 l-3 -169 -180 0 -180 0 -3 169 c-2 116 1 173 9 182 9 11 48 14 174 14
126 0 165 -3 174 -14z m371 -519 c0 -115 4 -168 13 -180 10 -14 37 -17 182
-19 l170 -3 0 -540 0 -540 -170 -3 c-145 -2 -172 -5 -182 -19 -9 -12 -13 -63
-13 -168 0 -105 4 -156 13 -168 10 -14 37 -17 182 -19 l170 -3 0 -180 0 -180
-345 -2 c-190 -1 -353 -3 -362 -3 -16 0 -18 -15 -18 -168 0 -117 -4 -172 -12
-180 -8 -8 -64 -12 -185 -12 l-173 0 -2 363 -3 362 -175 3 c-124 2 -176 6
-182 15 -10 16 -10 328 0 344 6 9 58 13 182 15 l175 3 3 178 2 177 166 0 c95
0 174 4 185 10 18 10 19 27 19 545 l0 535 180 0 180 0 0 -163z m-3290 -1306
c5 -11 10 -84 10 -166 0 -82 -5 -155 -10 -166 -10 -18 -23 -19 -179 -19 -145
0 -170 2 -175 16 -3 9 -6 85 -6 169 0 84 3 160 6 169 5 14 30 16 175 16 156 0
169 -1 179 -19z m-732 -359 c9 -7 12 -50 10 -183 l-3 -174 -177 -3 -178 -2 -2
-178 -3 -177 -183 -3 -182 -2 2 177 3 178 183 3 182 2 0 185 0 185 168 0 c92
0 173 -4 180 -8z m6207 -537 l0 -540 -177 -3 -178 -2 -2 177 -3 178 -182 3
-183 2 0 -180 0 -180 183 -2 182 -3 3 -178 2 -177 -182 2 -183 3 -3 177 -2
178 -363 2 -362 3 -5 175 -5 175 -175 5 -175 5 -3 177 -2 177 350 3 c192 2
355 2 360 0 6 -2 10 -69 10 -171 0 -117 4 -171 12 -179 8 -8 64 -12 185 -12
l173 0 2 178 3 177 173 5 c139 4 175 8 182 20 5 8 10 87 10 176 0 88 3 164 7
168 4 3 84 5 177 4 l171 -3 0 -540z m-1100 -1090 l0 -180 -177 -3 -178 -2 0
175 c0 173 0 176 23 185 12 5 92 8 177 7 l155 -2 0 -180z m-2187 -552 l2 -363
-175 0 c-96 0 -176 1 -177 3 -1 1 -4 81 -7 177 l-6 175 -175 5 -175 5 -3 170
c-1 93 0 175 2 182 4 11 76 13 358 11 l353 -3 3 -362z m-2908 -183 l0 -180
-180 0 -180 0 0 180 0 180 180 0 180 0 0 -180z m1085 0 l0 -175 -175 0 -175 0
-3 178 -2 177 177 -2 178 -3 0 -175z m-1447 -354 c2 -117 -1 -173 -9 -182 -10
-12 -46 -14 -183 -12 l-171 3 -3 169 c-2 117 1 173 9 182 10 12 46 14 183 12
l171 -3 3 -169z m720 -13 l2 -183 183 -2 182 -3 0 -175 0 -175 -180 0 -180 0
-3 177 -2 178 -178 2 -177 3 -3 170 c-1 93 0 175 3 182 3 11 42 13 177 11
l173 -3 3 -182z m1813 177 c18 -10 19 -23 19 -185 l0 -175 359 0 c228 0 361
-4 363 -10 2 -5 2 -86 0 -180 l-3 -170 -359 0 -360 0 -2 -177 -3 -178 -727 -3
-728 -2 0 180 0 180 178 2 177 3 5 175 5 175 180 0 180 0 5 -175 5 -175 363
-3 362 -2 0 180 0 180 -177 2 -178 3 -3 170 c-1 93 0 175 2 182 7 16 307 19
337 3z m4759 -535 l0 -545 -180 0 -180 0 0 539 c0 422 3 540 13 544 6 3 87 6
180 6 l167 1 0 -545z m-1100 -204 c6 -13 10 -199 10 -535 0 -454 -2 -516 -16
-530 -14 -14 -76 -16 -530 -16 -336 0 -522 4 -535 10 -18 10 -19 27 -19 538 0
397 3 531 12 540 9 9 143 12 540 12 511 0 528 -1 538 -19z m1458 -528 l2 -183
-180 0 -180 0 -2 -362 -3 -363 -175 -5 -175 -5 -3 -362 -2 -363 -185 0 -185 0
0 529 c0 291 3 536 6 545 5 14 30 16 174 16 127 0 170 3 179 13 6 8 12 79 13
183 l3 169 178 3 177 2 0 179 c0 98 3 181 7 185 4 3 84 5 177 4 l171 -3 3
-182z m-5468 -202 c13 -26 14 -1019 0 -1055 l-9 -26 -173 -2 -173 -3 -5 -355
-5 -355 -362 -3 -363 -2 0 167 c0 93 -4 174 -8 180 -6 9 -58 13 -182 15 l-175
3 -3 178 -2 177 173 0 c121 0 177 4 185 12 8 8 12 63 12 180 0 92 1 169 3 170
1 1 164 5 362 8 l360 5 0 175 0 175 -173 5 c-139 4 -175 8 -182 20 -15 23 -13
323 2 338 9 9 103 12 360 12 333 0 348 -1 358 -19z m728 -168 l2 -183 -168 0
c-117 0 -172 4 -180 12 -13 13 -18 339 -5 352 4 3 84 5 177 4 l171 -3 3 -182z
m2180 -551 c9 -7 12 -50 10 -183 l-3 -174 -177 -3 -178 -2 0 178 c0 98 3 182
7 185 9 10 325 8 341 -1z"/>
<path d="M9486 14494 c-22 -21 -24 -325 -2 -343 9 -8 66 -11 182 -9 l169 3 3
169 c2 116 -1 173 -9 182 -18 22 -322 20 -343 -2z"/>
<path d="M9482 22518 c-9 -9 -12 -304 -12 -1264 0 -1125 2 -1254 16 -1268 14
-14 143 -16 1268 -16 960 0 1255 3 1264 12 17 17 17 2519 0 2536 -17 17 -2519
17 -2536 0z m2176 -1265 l-3 -908 -894 -3 c-652 -1 -897 1 -907 9 -12 10 -14
164 -14 904 0 490 3 895 7 898 3 4 413 7 910 7 l903 0 -2 -907z"/>
<path d="M10215 21788 c-3 -7 -4 -251 -3 -543 l3 -530 540 0 540 0 0 540 0
540 -538 3 c-425 2 -539 0 -542 -10z"/>
<path d="M4377 21434 c-4 -4 -7 -85 -7 -180 0 -172 0 -174 23 -179 12 -3 92
-4 177 -3 l155 3 0 180 0 180 -171 3 c-93 1 -173 -1 -177 -4z"/>
<path d="M11307 18144 c-13 -13 -8 -339 5 -352 8 -8 63 -12 180 -12 l168 0 2
-357 3 -358 180 0 180 0 3 353 c2 308 0 353 -13 358 -8 4 -91 7 -183 8 l-167
1 -5 180 -5 180 -171 3 c-93 1 -173 -1 -177 -4z"/>
<path d="M1462 14498 c-17 -17 -17 -2519 0 -2536 17 -17 2519 -17 2536 0 9 9
12 304 12 1264 0 1125 -2 1254 -16 1268 -14 14 -143 16 -1268 16 -960 0 -1255
-3 -1264 -12z m2167 -372 c8 -10 10 -255 9 -907 l-3 -894 -907 -3 -908 -2 0
903 c0 497 3 907 7 910 3 4 408 7 898 7 740 0 894 -2 904 -14z"/>
<path d="M2185 13758 c-3 -7 -4 -251 -3 -543 l3 -530 540 0 540 0 0 540 0 540
-538 3 c-425 2 -539 0 -542 -10z"/>
<path d="M11676 12304 c-13 -13 -16 -43 -16 -173 0 -109 4 -161 12 -169 8 -8
61 -12 173 -12 112 0 165 4 173 12 8 8 12 61 12 173 0 112 -4 165 -12 173 -8
8 -60 12 -169 12 -130 0 -160 -3 -173 -16z"/>
</g>
</svg>
