<svg xmlns="http://www.w3.org/2000/svg" xmlns:v="https://svgstorm.com"
viewBox = "0 0 256 256"
width="256"
height="256">
<g fill="None" fill-opacity="0.0" stroke="#000000" stroke-opacity="0.00" stroke-width="0.3"><path d="
M 0.00 256.00 
L 256.00 256.00
L 256.00 0.00
L 0.00 0.00
L 0.00 256.00
M 75.00 12.00 
C 70.19 18.48 68.02 26.78 63.08 33.08 C 58.13 39.37 58.74 52.00 55.23 58.23 C 51.72 64.46 49.81 81.62 44.00 73.00
C 43.31 80.72 30.61 78.96 32.00 71.00 C 33.39 63.04 33.16 54.85 35.00 47.00
C 31.65 50.00 22.35 55.44 23.00 47.00
C 36.03 38.19 51.47 29.42 51.00 12.00
C 59.00 12.00 67.00 12.00 75.00 12.00
M 160.00 144.00 
C 160.48 142.87 162.37 141.94 163.00 141.00
C 169.79 130.82 173.93 118.25 181.00 108.00
C 183.91 108.60 186.10 111.08 189.00 112.00
C 191.59 104.94 195.00 98.25 197.00 91.00
C 200.11 92.00 201.90 95.04 205.00 96.00
C 200.22 104.56 195.41 113.89 190.00 122.00
C 187.59 120.89 186.38 118.04 184.00 117.00
C 177.72 125.60 170.62 133.91 164.00 142.00
C 162.80 143.56 163.35 144.83 161.00 145.00
C 161.32 145.60 161.84 148.47 162.00 149.00
C 162.26 148.35 164.44 147.39 165.00 147.00
C 165.89 146.38 165.73 146.30 167.00 146.00
C 172.50 142.07 176.99 135.53 182.00 131.00
C 185.12 131.17 186.86 134.84 190.00 135.00
C 192.95 129.85 198.95 127.87 202.00 123.00
C 208.36 130.57 214.85 125.03 220.00 119.00
C 222.27 120.89 225.66 122.89 226.00 126.00
C 218.68 127.34 209.09 140.94 204.00 132.00
C 198.48 134.60 192.76 138.23 188.00 142.00
C 182.12 135.01 175.08 146.08 168.00 147.00
C 167.21 147.44 165.91 148.42 165.00 149.00
C 164.86 149.09 162.36 151.43 162.00 151.00
C 161.30 162.11 163.12 173.49 158.68 183.68 C 154.23 193.87 153.47 204.62 149.68 214.68 C 145.88 224.74 151.63 234.47 157.00 242.00
C 154.23 242.27 151.93 244.22 149.00 244.00
C 147.39 244.35 146.36 244.07 145.00 244.00
C 133.92 245.75 130.15 243.53 132.00 234.00 C 133.84 224.47 129.94 221.83 132.93 212.93 C 135.92 204.02 131.54 196.14 132.22 187.78 C 132.90 179.41 130.82 170.65 132.00 162.00 C 133.18 153.35 133.31 145.30 130.67 137.33 C 128.04 129.35 129.32 122.58 128.02 113.98 C 126.72 105.37 128.59 94.73 128.00 86.00 C 127.41 77.27 126.10 68.68 126.00 60.00
C 126.00 59.99 125.00 60.00 125.00 60.00
C 125.21 69.72 123.40 77.52 123.02 87.02 C 122.65 96.52 123.53 108.39 123.00 118.00 C 122.47 127.61 121.22 133.77 119.02 143.02 C 116.83 152.28 119.15 159.92 119.00 170.00 C 118.85 180.08 118.46 189.38 118.00 200.00 C 117.54 210.62 119.96 216.69 119.02 228.02 C 118.09 239.35 123.20 246.70 107.00 244.00
C 105.34 244.03 103.88 244.46 102.00 244.00
C 99.33 243.34 96.86 242.08 94.00 242.00
C 98.87 236.36 102.14 229.88 101.98 221.98 C 101.81 214.08 99.53 206.94 97.02 198.98 C 94.52 191.02 92.50 184.18 90.07 175.93 C 87.65 167.67 88.49 158.38 89.93 149.93 C 91.36 141.47 93.55 132.54 93.93 123.93 C 94.31 115.31 89.29 107.50 88.02 98.98 C 86.76 90.45 83.82 83.78 82.07 74.93 C 80.32 66.07 81.44 55.72 81.00 46.00 C 80.56 36.28 84.46 30.36 84.60 20.26 C 84.74 10.16 95.06 11.52 105.00 12.00 C 114.94 12.48 124.92 11.76 135.00 12.00 C 145.08 12.24 155.86 11.82 166.00 12.00
C 168.38 32.69 172.96 58.43 168.01 80.01 C 163.06 101.58 153.78 120.91 160.00 144.00
M 217.00 48.00 
C 217.75 56.26 217.27 62.28 218.99 70.01 C 220.72 77.74 208.41 81.79 207.00 73.00
C 200.44 79.67 198.86 64.66 195.74 58.26 C 192.63 51.86 192.63 40.33 188.23 33.77 C 183.83 27.21 180.23 19.16 177.00 12.00
C 183.03 13.77 197.25 8.66 200.77 14.23 C 204.28 19.81 200.74 30.50 208.70 33.30 C 216.65 36.10 215.80 39.78 223.25 44.75 C 230.69 49.73 224.42 54.33 217.00 48.00
M 172.00 153.00 
C 169.09 153.20 165.24 155.05 163.00 153.00
C 165.04 151.60 168.22 150.98 171.00 151.00
C 180.33 149.10 189.47 146.24 199.00 145.00
C 203.30 155.60 219.04 144.62 228.00 145.00
C 231.24 155.13 221.33 153.00 215.00 154.00 C 208.67 155.00 202.53 156.70 196.00 157.00
C 195.64 146.30 179.30 154.94 172.00 153.00 Z"/>
</g>
<g fill="None" fill-opacity="0.0" stroke="#FEFEFE" stroke-opacity="0.92" stroke-width="0.3"><path d="
M 75.00 12.00 
C 67.00 12.00 59.00 12.00 51.00 12.00
C 51.47 29.42 36.03 38.19 23.00 47.00
C 22.35 55.44 31.65 50.00 35.00 47.00
C 33.16 54.85 33.39 63.04 32.00 71.00 C 30.61 78.96 43.31 80.72 44.00 73.00
C 49.81 81.62 51.72 64.46 55.23 58.23 C 58.74 52.00 58.13 39.37 63.08 33.08 C 68.02 26.78 70.19 18.48 75.00 12.00
M 48.00 66.00 
C 48.41 72.80 42.39 67.64 48.00 66.00 Z"/>
</g>
<g fill="None" fill-opacity="0.0" stroke="#FFFFFF" stroke-opacity="0.96" stroke-width="0.3"><path d="
M 102.00 244.00 
C 103.13 244.05 105.63 243.77 107.00 244.00
C 123.20 246.70 118.09 239.35 119.02 228.02 C 119.96 216.69 117.54 210.62 118.00 200.00 C 118.46 189.38 118.85 180.08 119.00 170.00 C 119.15 159.92 116.83 152.28 119.02 143.02 C 121.22 133.77 122.47 127.61 123.00 118.00 C 123.53 108.39 122.65 96.52 123.02 87.02 C 123.40 77.52 125.21 69.72 125.00 60.00
C 124.88 58.68 125.09 57.32 125.00 56.00
C 127.31 55.18 127.82 59.47 126.00 60.00
C 126.10 68.68 127.41 77.27 128.00 86.00 C 128.59 94.73 126.72 105.37 128.02 113.98 C 129.32 122.58 128.04 129.35 130.67 137.33 C 133.31 145.30 133.18 153.35 132.00 162.00 C 130.82 170.65 132.90 179.41 132.22 187.78 C 131.54 196.14 135.92 204.02 132.93 212.93 C 129.94 221.83 133.84 224.47 132.00 234.00 C 130.15 243.53 133.92 245.75 145.00 244.00
C 146.25 243.80 148.01 243.99 149.00 244.00
C 151.93 244.22 154.23 242.27 157.00 242.00
C 151.63 234.47 145.88 224.74 149.68 214.68 C 153.47 204.62 154.23 193.87 158.68 183.68 C 163.12 173.49 161.30 162.11 162.00 151.00
C 162.03 150.50 162.14 149.46 162.00 149.00
C 161.84 148.47 161.32 145.60 161.00 145.00
C 158.57 145.17 160.08 144.42 160.00 144.00
C 153.78 120.91 163.06 101.58 168.01 80.01 C 172.96 58.43 168.38 32.69 166.00 12.00
C 155.86 11.82 145.08 12.24 135.00 12.00 C 124.92 11.76 114.94 12.48 105.00 12.00 C 95.06 11.52 84.74 10.16 84.60 20.26 C 84.46 30.36 80.56 36.28 81.00 46.00 C 81.44 55.72 80.32 66.07 82.07 74.93 C 83.82 83.78 86.76 90.45 88.02 98.98 C 89.29 107.50 94.31 115.31 93.93 123.93 C 93.55 132.54 91.36 141.47 89.93 149.93 C 88.49 158.38 87.65 167.67 90.07 175.93 C 92.50 184.18 94.52 191.02 97.02 198.98 C 99.53 206.94 101.81 214.08 101.98 221.98 C 102.14 229.88 98.87 236.36 94.00 242.00
C 96.86 242.08 99.33 243.34 102.00 244.00 Z"/>
</g>
<g fill="None" fill-opacity="0.0" stroke="#FEFEFE" stroke-opacity="0.92" stroke-width="0.3"><path d="
M 217.00 48.00 
C 224.42 54.33 230.69 49.73 223.25 44.75 C 215.80 39.78 216.65 36.10 208.70 33.30 C 200.74 30.50 204.28 19.81 200.77 14.23 C 197.25 8.66 183.03 13.77 177.00 12.00
C 180.23 19.16 183.83 27.21 188.23 33.77 C 192.63 40.33 192.63 51.86 195.74 58.26 C 198.86 64.66 200.44 79.67 207.00 73.00
C 208.41 81.79 220.72 77.74 218.99 70.01 C 217.27 62.28 217.75 56.26 217.00 48.00
M 206.00 71.00 
C 200.80 69.73 206.09 65.74 206.00 71.00 Z"/>
</g>
<g fill="None" fill-opacity="0.0" stroke="#FFFFFF" stroke-opacity="0.55" stroke-width="0.3"><path d="
M 125.00 60.00 
C 125.00 60.00 126.00 59.99 126.00 60.00
C 127.82 59.47 127.31 55.18 125.00 56.00
C 125.09 57.32 124.88 58.68 125.00 60.00 Z"/>
</g>
<g fill="None" fill-opacity="0.0" stroke="#FFFFFF" stroke-opacity="0.39" stroke-width="0.3"><path d="
M 48.00 66.00 
C 42.39 67.64 48.41 72.80 48.00 66.00 Z"/>
</g>
<g fill="None" fill-opacity="0.0" stroke="#FFFFFF" stroke-opacity="0.32" stroke-width="0.3"><path d="
M 206.00 71.00 
C 206.09 65.74 200.80 69.73 206.00 71.00 Z"/>
</g>
<g fill="None" fill-opacity="0.0" stroke="#FFFFFF" stroke-opacity="0.79" stroke-width="0.3"><path d="
M 163.00 141.00 
C 163.02 141.34 163.94 141.77 164.00 142.00
C 170.62 133.91 177.72 125.60 184.00 117.00
C 186.38 118.04 187.59 120.89 190.00 122.00
C 195.41 113.89 200.22 104.56 205.00 96.00
C 201.90 95.04 200.11 92.00 197.00 91.00
C 195.00 98.25 191.59 104.94 189.00 112.00
C 186.10 111.08 183.91 108.60 181.00 108.00
C 173.93 118.25 169.79 130.82 163.00 141.00 Z"/>
</g>
<g fill="None" fill-opacity="0.0" stroke="#FFFFFF" stroke-opacity="0.80" stroke-width="0.3"><path d="
M 167.00 146.00 
C 167.08 145.98 167.67 147.01 168.00 147.00
C 175.08 146.08 182.12 135.01 188.00 142.00
C 192.76 138.23 198.48 134.60 204.00 132.00
C 209.09 140.94 218.68 127.34 226.00 126.00
C 225.66 122.89 222.27 120.89 220.00 119.00
C 214.85 125.03 208.36 130.57 202.00 123.00
C 198.95 127.87 192.95 129.85 190.00 135.00
C 186.86 134.84 185.12 131.17 182.00 131.00
C 176.99 135.53 172.50 142.07 167.00 146.00 Z"/>
</g>
<g fill="None" fill-opacity="0.0" stroke="#FFFFFF" stroke-opacity="0.37" stroke-width="0.3"><path d="
M 160.00 144.00 
C 160.08 144.42 158.57 145.17 161.00 145.00
C 163.35 144.83 162.80 143.56 164.00 142.00
C 163.94 141.77 163.02 141.34 163.00 141.00
C 162.37 141.94 160.48 142.87 160.00 144.00 Z"/>
</g>
<g fill="None" fill-opacity="0.0" stroke="#FFFFFF" stroke-opacity="0.76" stroke-width="0.3"><path d="
M 171.00 151.00 
C 171.41 151.18 171.74 152.88 172.00 153.00
C 179.30 154.94 195.64 146.30 196.00 157.00
C 202.53 156.70 208.67 155.00 215.00 154.00 C 221.33 153.00 231.24 155.13 228.00 145.00
C 219.04 144.62 203.30 155.60 199.00 145.00
C 189.47 146.24 180.33 149.10 171.00 151.00 Z"/>
</g>
<g fill="None" fill-opacity="0.0" stroke="#FFFFFF" stroke-opacity="0.55" stroke-width="0.3"><path d="
M 165.00 147.00 
C 164.87 147.46 165.14 148.54 165.00 149.00
C 165.91 148.42 167.21 147.44 168.00 147.00
C 167.67 147.01 167.08 145.98 167.00 146.00
C 165.73 146.30 165.89 146.38 165.00 147.00 Z"/>
</g>
<g fill="None" fill-opacity="0.0" stroke="#FFFFFF" stroke-opacity="0.33" stroke-width="0.3"><path d="
M 162.00 149.00 
C 162.14 149.46 162.03 150.50 162.00 151.00
C 162.36 151.43 164.86 149.09 165.00 149.00
C 165.14 148.54 164.87 147.46 165.00 147.00
C 164.44 147.39 162.26 148.35 162.00 149.00 Z"/>
</g>
<g fill="None" fill-opacity="0.0" stroke="#FFFFFF" stroke-opacity="0.30" stroke-width="0.3"><path d="
M 172.00 153.00 
C 171.74 152.88 171.41 151.18 171.00 151.00
C 168.22 150.98 165.04 151.60 163.00 153.00
C 165.24 155.05 169.09 153.20 172.00 153.00 Z"/>
</g>
<g fill="None" fill-opacity="0.0" stroke="#FFFFFF" stroke-opacity="0.65" stroke-width="0.3"><path d="
M 102.00 244.00 
C 103.67 244.00 105.33 244.00 107.00 244.00
C 105.63 243.77 103.13 244.05 102.00 244.00 Z"/>
</g>
<g fill="None" fill-opacity="0.0" stroke="#FFFFFF" stroke-opacity="0.34" stroke-width="0.3"><path d="
M 145.00 244.00 
C 146.36 244.07 147.39 244.35 149.00 244.00
C 148.01 243.99 146.25 243.80 145.00 244.00 Z"/>
</g>
<g fill="None" fill-opacity="0.0" stroke="#FFFFFF" stroke-opacity="0.03" stroke-width="0.3"><path d="
M 107.00 244.00 
C 105.33 244.00 103.67 244.00 102.00 244.00
C 103.88 244.46 105.34 244.03 107.00 244.00 Z"/>
</g>
<g fill="#000000" fill-opacity="0.00" stroke="None">
<path d="
M 0.00 256.00 
L 256.00 256.00
L 256.00 0.00
L 0.00 0.00
L 0.00 256.00
M 75.00 12.00 
C 70.19 18.48 68.02 26.78 63.08 33.08 C 58.13 39.37 58.74 52.00 55.23 58.23 C 51.72 64.46 49.81 81.62 44.00 73.00
C 43.31 80.72 30.61 78.96 32.00 71.00 C 33.39 63.04 33.16 54.85 35.00 47.00
C 31.65 50.00 22.35 55.44 23.00 47.00
C 36.03 38.19 51.47 29.42 51.00 12.00
C 59.00 12.00 67.00 12.00 75.00 12.00
M 160.00 144.00 
C 160.48 142.87 162.37 141.94 163.00 141.00
C 169.79 130.82 173.93 118.25 181.00 108.00
C 183.91 108.60 186.10 111.08 189.00 112.00
C 191.59 104.94 195.00 98.25 197.00 91.00
C 200.11 92.00 201.90 95.04 205.00 96.00
C 200.22 104.56 195.41 113.89 190.00 122.00
C 187.59 120.89 186.38 118.04 184.00 117.00
C 177.72 125.60 170.62 133.91 164.00 142.00
C 162.80 143.56 163.35 144.83 161.00 145.00
C 161.32 145.60 161.84 148.47 162.00 149.00
C 162.26 148.35 164.44 147.39 165.00 147.00
C 165.89 146.38 165.73 146.30 167.00 146.00
C 172.50 142.07 176.99 135.53 182.00 131.00
C 185.12 131.17 186.86 134.84 190.00 135.00
C 192.95 129.85 198.95 127.87 202.00 123.00
C 208.36 130.57 214.85 125.03 220.00 119.00
C 222.27 120.89 225.66 122.89 226.00 126.00
C 218.68 127.34 209.09 140.94 204.00 132.00
C 198.48 134.60 192.76 138.23 188.00 142.00
C 182.12 135.01 175.08 146.08 168.00 147.00
C 167.21 147.44 165.91 148.42 165.00 149.00
C 164.86 149.09 162.36 151.43 162.00 151.00
C 161.30 162.11 163.12 173.49 158.68 183.68 C 154.23 193.87 153.47 204.62 149.68 214.68 C 145.88 224.74 151.63 234.47 157.00 242.00
C 154.23 242.27 151.93 244.22 149.00 244.00
C 147.39 244.35 146.36 244.07 145.00 244.00
C 133.92 245.75 130.15 243.53 132.00 234.00 C 133.84 224.47 129.94 221.83 132.93 212.93 C 135.92 204.02 131.54 196.14 132.22 187.78 C 132.90 179.41 130.82 170.65 132.00 162.00 C 133.18 153.35 133.31 145.30 130.67 137.33 C 128.04 129.35 129.32 122.58 128.02 113.98 C 126.72 105.37 128.59 94.73 128.00 86.00 C 127.41 77.27 126.10 68.68 126.00 60.00
C 126.00 59.99 125.00 60.00 125.00 60.00
C 125.21 69.72 123.40 77.52 123.02 87.02 C 122.65 96.52 123.53 108.39 123.00 118.00 C 122.47 127.61 121.22 133.77 119.02 143.02 C 116.83 152.28 119.15 159.92 119.00 170.00 C 118.85 180.08 118.46 189.38 118.00 200.00 C 117.54 210.62 119.96 216.69 119.02 228.02 C 118.09 239.35 123.20 246.70 107.00 244.00
C 105.34 244.03 103.88 244.46 102.00 244.00
C 99.33 243.34 96.86 242.08 94.00 242.00
C 98.87 236.36 102.14 229.88 101.98 221.98 C 101.81 214.08 99.53 206.94 97.02 198.98 C 94.52 191.02 92.50 184.18 90.07 175.93 C 87.65 167.67 88.49 158.38 89.93 149.93 C 91.36 141.47 93.55 132.54 93.93 123.93 C 94.31 115.31 89.29 107.50 88.02 98.98 C 86.76 90.45 83.82 83.78 82.07 74.93 C 80.32 66.07 81.44 55.72 81.00 46.00 C 80.56 36.28 84.46 30.36 84.60 20.26 C 84.74 10.16 95.06 11.52 105.00 12.00 C 114.94 12.48 124.92 11.76 135.00 12.00 C 145.08 12.24 155.86 11.82 166.00 12.00
C 168.38 32.69 172.96 58.43 168.01 80.01 C 163.06 101.58 153.78 120.91 160.00 144.00
M 217.00 48.00 
C 217.75 56.26 217.27 62.28 218.99 70.01 C 220.72 77.74 208.41 81.79 207.00 73.00
C 200.44 79.67 198.86 64.66 195.74 58.26 C 192.63 51.86 192.63 40.33 188.23 33.77 C 183.83 27.21 180.23 19.16 177.00 12.00
C 183.03 13.77 197.25 8.66 200.77 14.23 C 204.28 19.81 200.74 30.50 208.70 33.30 C 216.65 36.10 215.80 39.78 223.25 44.75 C 230.69 49.73 224.42 54.33 217.00 48.00
M 172.00 153.00 
C 169.09 153.20 165.24 155.05 163.00 153.00
C 165.04 151.60 168.22 150.98 171.00 151.00
C 180.33 149.10 189.47 146.24 199.00 145.00
C 203.30 155.60 219.04 144.62 228.00 145.00
C 231.24 155.13 221.33 153.00 215.00 154.00 C 208.67 155.00 202.53 156.70 196.00 157.00
C 195.64 146.30 179.30 154.94 172.00 153.00 Z"/>
</g>
<g fill="#FEFEFE" fill-opacity="0.92" stroke="None">
<path d="
M 75.00 12.00 
C 67.00 12.00 59.00 12.00 51.00 12.00
C 51.47 29.42 36.03 38.19 23.00 47.00
C 22.35 55.44 31.65 50.00 35.00 47.00
C 33.16 54.85 33.39 63.04 32.00 71.00 C 30.61 78.96 43.31 80.72 44.00 73.00
C 49.81 81.62 51.72 64.46 55.23 58.23 C 58.74 52.00 58.13 39.37 63.08 33.08 C 68.02 26.78 70.19 18.48 75.00 12.00
M 48.00 66.00 
C 48.41 72.80 42.39 67.64 48.00 66.00 Z"/>
</g>
<g fill="#FFFFFF" fill-opacity="0.96" stroke="None">
<path d="
M 102.00 244.00 
C 103.13 244.05 105.63 243.77 107.00 244.00
C 123.20 246.70 118.09 239.35 119.02 228.02 C 119.96 216.69 117.54 210.62 118.00 200.00 C 118.46 189.38 118.85 180.08 119.00 170.00 C 119.15 159.92 116.83 152.28 119.02 143.02 C 121.22 133.77 122.47 127.61 123.00 118.00 C 123.53 108.39 122.65 96.52 123.02 87.02 C 123.40 77.52 125.21 69.72 125.00 60.00
C 124.88 58.68 125.09 57.32 125.00 56.00
C 127.31 55.18 127.82 59.47 126.00 60.00
C 126.10 68.68 127.41 77.27 128.00 86.00 C 128.59 94.73 126.72 105.37 128.02 113.98 C 129.32 122.58 128.04 129.35 130.67 137.33 C 133.31 145.30 133.18 153.35 132.00 162.00 C 130.82 170.65 132.90 179.41 132.22 187.78 C 131.54 196.14 135.92 204.02 132.93 212.93 C 129.94 221.83 133.84 224.47 132.00 234.00 C 130.15 243.53 133.92 245.75 145.00 244.00
C 146.25 243.80 148.01 243.99 149.00 244.00
C 151.93 244.22 154.23 242.27 157.00 242.00
C 151.63 234.47 145.88 224.74 149.68 214.68 C 153.47 204.62 154.23 193.87 158.68 183.68 C 163.12 173.49 161.30 162.11 162.00 151.00
C 162.03 150.50 162.14 149.46 162.00 149.00
C 161.84 148.47 161.32 145.60 161.00 145.00
C 158.57 145.17 160.08 144.42 160.00 144.00
C 153.78 120.91 163.06 101.58 168.01 80.01 C 172.96 58.43 168.38 32.69 166.00 12.00
C 155.86 11.82 145.08 12.24 135.00 12.00 C 124.92 11.76 114.94 12.48 105.00 12.00 C 95.06 11.52 84.74 10.16 84.60 20.26 C 84.46 30.36 80.56 36.28 81.00 46.00 C 81.44 55.72 80.32 66.07 82.07 74.93 C 83.82 83.78 86.76 90.45 88.02 98.98 C 89.29 107.50 94.31 115.31 93.93 123.93 C 93.55 132.54 91.36 141.47 89.93 149.93 C 88.49 158.38 87.65 167.67 90.07 175.93 C 92.50 184.18 94.52 191.02 97.02 198.98 C 99.53 206.94 101.81 214.08 101.98 221.98 C 102.14 229.88 98.87 236.36 94.00 242.00
C 96.86 242.08 99.33 243.34 102.00 244.00 Z"/>
</g>
<g fill="#FEFEFE" fill-opacity="0.92" stroke="None">
<path d="
M 217.00 48.00 
C 224.42 54.33 230.69 49.73 223.25 44.75 C 215.80 39.78 216.65 36.10 208.70 33.30 C 200.74 30.50 204.28 19.81 200.77 14.23 C 197.25 8.66 183.03 13.77 177.00 12.00
C 180.23 19.16 183.83 27.21 188.23 33.77 C 192.63 40.33 192.63 51.86 195.74 58.26 C 198.86 64.66 200.44 79.67 207.00 73.00
C 208.41 81.79 220.72 77.74 218.99 70.01 C 217.27 62.28 217.75 56.26 217.00 48.00
M 206.00 71.00 
C 200.80 69.73 206.09 65.74 206.00 71.00 Z"/>
</g>
<g fill="#FFFFFF" fill-opacity="0.55" stroke="None">
<path d="
M 125.00 60.00 
C 125.00 60.00 126.00 59.99 126.00 60.00
C 127.82 59.47 127.31 55.18 125.00 56.00
C 125.09 57.32 124.88 58.68 125.00 60.00 Z"/>
</g>
<g fill="#FFFFFF" fill-opacity="0.39" stroke="None">
<path d="
M 48.00 66.00 
C 42.39 67.64 48.41 72.80 48.00 66.00 Z"/>
</g>
<g fill="#FFFFFF" fill-opacity="0.32" stroke="None">
<path d="
M 206.00 71.00 
C 206.09 65.74 200.80 69.73 206.00 71.00 Z"/>
</g>
<g fill="#FFFFFF" fill-opacity="0.79" stroke="None">
<path d="
M 163.00 141.00 
C 163.02 141.34 163.94 141.77 164.00 142.00
C 170.62 133.91 177.72 125.60 184.00 117.00
C 186.38 118.04 187.59 120.89 190.00 122.00
C 195.41 113.89 200.22 104.56 205.00 96.00
C 201.90 95.04 200.11 92.00 197.00 91.00
C 195.00 98.25 191.59 104.94 189.00 112.00
C 186.10 111.08 183.91 108.60 181.00 108.00
C 173.93 118.25 169.79 130.82 163.00 141.00 Z"/>
</g>
<g fill="#FFFFFF" fill-opacity="0.80" stroke="None">
<path d="
M 167.00 146.00 
C 167.08 145.98 167.67 147.01 168.00 147.00
C 175.08 146.08 182.12 135.01 188.00 142.00
C 192.76 138.23 198.48 134.60 204.00 132.00
C 209.09 140.94 218.68 127.34 226.00 126.00
C 225.66 122.89 222.27 120.89 220.00 119.00
C 214.85 125.03 208.36 130.57 202.00 123.00
C 198.95 127.87 192.95 129.85 190.00 135.00
C 186.86 134.84 185.12 131.17 182.00 131.00
C 176.99 135.53 172.50 142.07 167.00 146.00 Z"/>
</g>
<g fill="#FFFFFF" fill-opacity="0.37" stroke="None">
<path d="
M 160.00 144.00 
C 160.08 144.42 158.57 145.17 161.00 145.00
C 163.35 144.83 162.80 143.56 164.00 142.00
C 163.94 141.77 163.02 141.34 163.00 141.00
C 162.37 141.94 160.48 142.87 160.00 144.00 Z"/>
</g>
<g fill="#FFFFFF" fill-opacity="0.76" stroke="None">
<path d="
M 171.00 151.00 
C 171.41 151.18 171.74 152.88 172.00 153.00
C 179.30 154.94 195.64 146.30 196.00 157.00
C 202.53 156.70 208.67 155.00 215.00 154.00 C 221.33 153.00 231.24 155.13 228.00 145.00
C 219.04 144.62 203.30 155.60 199.00 145.00
C 189.47 146.24 180.33 149.10 171.00 151.00 Z"/>
</g>
<g fill="#FFFFFF" fill-opacity="0.55" stroke="None">
<path d="
M 165.00 147.00 
C 164.87 147.46 165.14 148.54 165.00 149.00
C 165.91 148.42 167.21 147.44 168.00 147.00
C 167.67 147.01 167.08 145.98 167.00 146.00
C 165.73 146.30 165.89 146.38 165.00 147.00 Z"/>
</g>
<g fill="#FFFFFF" fill-opacity="0.33" stroke="None">
<path d="
M 162.00 149.00 
C 162.14 149.46 162.03 150.50 162.00 151.00
C 162.36 151.43 164.86 149.09 165.00 149.00
C 165.14 148.54 164.87 147.46 165.00 147.00
C 164.44 147.39 162.26 148.35 162.00 149.00 Z"/>
</g>
<g fill="#FFFFFF" fill-opacity="0.30" stroke="None">
<path d="
M 172.00 153.00 
C 171.74 152.88 171.41 151.18 171.00 151.00
C 168.22 150.98 165.04 151.60 163.00 153.00
C 165.24 155.05 169.09 153.20 172.00 153.00 Z"/>
</g>
<g fill="#FFFFFF" fill-opacity="0.65" stroke="None">
<path d="
M 102.00 244.00 
C 103.67 244.00 105.33 244.00 107.00 244.00
C 105.63 243.77 103.13 244.05 102.00 244.00 Z"/>
</g>
<g fill="#FFFFFF" fill-opacity="0.34" stroke="None">
<path d="
M 145.00 244.00 
C 146.36 244.07 147.39 244.35 149.00 244.00
C 148.01 243.99 146.25 243.80 145.00 244.00 Z"/>
</g>
<g fill="#FFFFFF" fill-opacity="0.03" stroke="None">
<path d="
M 107.00 244.00 
C 105.33 244.00 103.67 244.00 102.00 244.00
C 103.88 244.46 105.34 244.03 107.00 244.00 Z"/>
</g>
</svg>