<svg xmlns="http://www.w3.org/2000/svg" xmlns:v="https://svgstorm.com"
viewBox = "0 0 256 256"
width="256"
height="256">
<g fill="None" fill-opacity="0.0" stroke="#000000" stroke-opacity="0.00" stroke-width="0.3"><path d="
M 0.00 256.00 
L 256.00 256.00
L 256.00 0.00
L 0.00 0.00
L 0.00 256.00
M 154.00 69.00 
C 154.86 63.99 160.70 60.40 161.00 55.00
C 165.94 56.49 169.94 60.72 175.00 62.00
C 178.54 50.02 183.92 38.12 189.00 27.00
C 192.43 29.73 195.95 33.02 200.00 35.00
C 194.10 49.32 184.77 62.11 178.00 76.00
C 177.33 80.21 186.19 83.03 186.00 89.00
C 188.64 85.66 195.40 82.22 199.00 80.00
C 201.02 84.06 205.73 85.44 208.00 89.00
C 213.16 84.13 217.72 82.09 222.75 76.75 C 227.78 71.41 234.56 79.91 236.00 85.00
C 224.96 89.29 215.22 97.00 204.00 101.00
C 202.58 98.24 199.35 96.73 198.00 94.00
C 196.07 94.66 195.33 97.39 193.00 97.00
C 192.24 97.57 190.89 99.90 190.00 100.00
C 192.54 104.14 188.64 113.05 190.00 117.00
C 190.71 116.88 191.75 119.45 192.00 120.00
C 192.81 121.83 193.44 124.03 194.00 126.00
C 208.82 122.36 223.80 119.30 239.00 117.00
C 239.00 121.00 239.00 125.00 239.00 129.00
C 223.26 130.66 207.98 134.21 192.00 135.00
C 192.40 139.58 186.73 145.40 191.75 151.25 C 196.77 157.09 195.25 156.32 197.99 165.01 C 200.73 173.70 198.99 191.34 205.31 198.69 C 211.62 206.05 221.76 209.27 229.00 216.00
C 228.30 223.77 219.69 217.89 216.00 216.00
C 217.54 224.18 219.05 232.40 219.00 241.00
C 212.48 238.67 204.84 243.54 200.78 240.22 C 196.72 236.90 198.58 228.65 194.70 224.30 C 190.81 219.96 194.56 210.52 191.08 205.92 C 187.59 201.32 185.43 195.92 182.08 190.92 C 178.73 185.92 176.47 180.76 174.07 174.93 C 171.67 169.09 172.82 161.54 172.00 155.00 C 171.18 148.46 165.75 143.14 167.00 136.00
C 157.98 170.81 174.82 204.79 169.00 241.00
C 155.00 241.00 141.00 241.00 127.00 241.00
C 127.72 236.40 125.47 232.57 126.00 228.00
C 124.47 231.69 124.52 236.69 124.00 241.00
C 110.00 241.00 96.00 241.00 82.00 241.00
C 76.79 204.97 91.76 172.36 85.00 137.00
C 85.00 136.99 84.00 137.00 84.00 137.00
C 84.27 144.31 79.77 149.27 79.02 156.02 C 78.28 162.78 78.73 170.31 76.22 176.22 C 73.72 182.13 70.58 187.93 68.08 193.08 C 65.57 198.22 59.85 203.32 59.23 208.23 C 58.61 213.14 56.46 223.32 54.90 226.90 C 53.33 230.48 48.79 246.64 46.00 239.00
C 45.51 239.07 45.00 239.00 45.00 239.00
C 43.85 243.32 35.64 239.91 32.00 241.00
C 32.12 233.20 33.33 225.03 35.00 218.00
C 35.13 216.72 34.05 216.57 34.00 216.00
C 33.47 215.94 21.56 223.31 23.03 216.97 C 24.50 210.63 30.86 213.54 32.75 207.75 C 34.64 201.97 42.45 205.66 44.74 200.74 C 47.04 195.83 49.62 193.63 49.93 186.93 C 50.23 180.22 53.78 179.50 52.33 170.33 C 50.88 161.16 61.45 152.41 61.00 143.00 C 60.55 133.59 61.69 136.15 62.00 126.00 C 62.31 115.84 60.07 103.18 62.93 92.93 C 65.78 82.67 72.98 76.80 83.02 75.02 C 93.07 73.25 100.63 67.56 110.00 64.00
C 109.00 57.38 108.89 48.05 105.67 42.33 C 102.46 36.60 93.81 28.35 104.00 26.00
C 93.91 -3.08 156.44 -3.26 146.00 26.00
C 156.58 27.31 148.13 36.44 145.08 42.08 C 142.04 47.72 140.02 57.88 141.00 65.00
C 145.38 66.10 149.33 68.76 154.00 69.00 Z"/>
</g>
<g fill="None" fill-opacity="0.0" stroke="#FEFEFE" stroke-opacity="0.96" stroke-width="0.3"><path d="
M 34.00 216.00 
C 33.73 212.76 35.20 216.24 35.00 218.00
C 33.33 225.03 32.12 233.20 32.00 241.00
C 35.64 239.91 43.85 243.32 45.00 239.00
C 44.14 238.18 45.67 237.28 46.00 237.00
C 46.48 235.38 46.37 233.62 47.00 232.00
C 50.22 231.56 47.87 234.46 48.00 236.00
C 47.65 237.16 47.69 238.77 46.00 239.00
C 48.79 246.64 53.33 230.48 54.90 226.90 C 56.46 223.32 58.61 213.14 59.23 208.23 C 59.85 203.32 65.57 198.22 68.08 193.08 C 70.58 187.93 73.72 182.13 76.22 176.22 C 78.73 170.31 78.28 162.78 79.02 156.02 C 79.77 149.27 84.27 144.31 84.00 137.00
C 84.06 135.67 85.69 134.39 84.00 133.00
C 86.31 132.18 86.82 136.47 85.00 137.00
C 91.76 172.36 76.79 204.97 82.00 241.00
C 96.00 241.00 110.00 241.00 124.00 241.00
C 124.52 236.69 124.47 231.69 126.00 228.00
C 125.47 232.57 127.72 236.40 127.00 241.00
C 141.00 241.00 155.00 241.00 169.00 241.00
C 174.82 204.79 157.98 170.81 167.00 136.00
C 165.75 143.14 171.18 148.46 172.00 155.00 C 172.82 161.54 171.67 169.09 174.07 174.93 C 176.47 180.76 178.73 185.92 182.08 190.92 C 185.43 195.92 187.59 201.32 191.08 205.92 C 194.56 210.52 190.81 219.96 194.70 224.30 C 198.58 228.65 196.72 236.90 200.78 240.22 C 204.84 243.54 212.48 238.67 219.00 241.00
C 219.05 232.40 217.54 224.18 216.00 216.00
C 219.69 217.89 228.30 223.77 229.00 216.00
C 221.76 209.27 211.62 206.05 205.31 198.69 C 198.99 191.34 200.73 173.70 197.99 165.01 C 195.25 156.32 196.77 157.09 191.75 151.25 C 186.73 145.40 192.40 139.58 192.00 135.00
C 191.51 134.88 190.42 134.25 190.00 134.00
C 187.38 132.42 187.26 128.56 187.00 125.00
C 170.26 126.04 152.15 129.51 136.00 128.00
C 153.99 125.99 171.30 121.27 189.00 118.00
C 189.35 117.89 190.09 117.25 190.00 117.00
C 188.64 113.05 192.54 104.14 190.00 100.00
C 188.93 100.12 188.33 99.00 188.00 99.00
C 182.52 103.00 176.75 106.51 171.00 110.00
C 167.49 100.06 160.23 107.70 153.92 110.92 C 147.60 114.13 140.08 118.11 134.00 122.00
C 132.74 122.89 131.94 124.85 130.00 125.00
C 129.73 123.72 130.77 122.28 132.00 122.00
C 136.02 117.83 144.22 111.13 149.08 108.08 C 153.95 105.03 160.82 92.14 166.75 96.26 C 172.67 100.38 179.79 100.34 185.00 92.00
C 185.64 90.97 185.96 90.25 186.00 89.00
C 186.19 83.03 177.33 80.21 178.00 76.00
C 176.92 76.98 174.56 77.07 174.00 77.00
C 171.53 76.70 162.33 74.67 164.00 72.00
C 163.07 73.07 161.88 73.97 161.00 75.00
C 156.28 80.48 151.16 89.02 145.75 93.75 C 140.34 98.49 137.12 110.35 131.00 113.00
C 130.26 115.63 127.93 118.36 126.00 120.00
C 125.86 117.24 127.87 114.47 130.00 113.00
C 139.82 100.31 144.02 83.37 154.00 71.00
C 154.24 70.70 153.92 69.49 154.00 69.00
C 149.33 68.76 145.38 66.10 141.00 65.00
C 140.02 57.88 142.04 47.72 145.08 42.08 C 148.13 36.44 156.58 27.31 146.00 26.00
C 156.44 -3.26 93.91 -3.08 104.00 26.00
C 93.81 28.35 102.46 36.60 105.67 42.33 C 108.89 48.05 109.00 57.38 110.00 64.00
C 100.63 67.56 93.07 73.25 83.02 75.02 C 72.98 76.80 65.78 82.67 62.93 92.93 C 60.07 103.18 62.31 115.84 62.00 126.00 C 61.69 136.15 60.55 133.59 61.00 143.00 C 61.45 152.41 50.88 161.16 52.33 170.33 C 53.78 179.50 50.23 180.22 49.93 186.93 C 49.62 193.63 47.04 195.83 44.74 200.74 C 42.45 205.66 34.64 201.97 32.75 207.75 C 30.86 213.54 24.50 210.63 23.03 216.97 C 21.56 223.31 33.47 215.94 34.00 216.00
M 168.00 133.00 
C 166.16 137.82 163.29 133.39 168.00 133.00
M 204.00 233.00 
C 207.82 238.72 200.42 237.60 204.00 233.00 Z"/>
</g>
<g fill="None" fill-opacity="0.0" stroke="#FFFFFF" stroke-opacity="0.85" stroke-width="0.3"><path d="
M 154.00 69.00 
C 153.92 69.49 154.24 70.70 154.00 71.00
C 155.60 73.44 159.62 72.54 161.00 75.00
C 161.88 73.97 163.07 73.07 164.00 72.00
C 165.60 70.15 164.15 68.80 167.00 70.00
C 169.33 70.97 171.66 76.13 174.00 77.00
C 174.56 77.07 176.92 76.98 178.00 76.00
C 184.77 62.11 194.10 49.32 200.00 35.00
C 195.95 33.02 192.43 29.73 189.00 27.00
C 183.92 38.12 178.54 50.02 175.00 62.00
C 169.94 60.72 165.94 56.49 161.00 55.00
C 160.70 60.40 154.86 63.99 154.00 69.00 Z"/>
</g>
<g fill="None" fill-opacity="0.0" stroke="#FFFFFF" stroke-opacity="0.36" stroke-width="0.3"><path d="
M 164.00 72.00 
C 164.49 71.22 166.30 70.53 167.00 70.00
C 164.15 68.80 165.60 70.15 164.00 72.00 Z"/>
</g>
<g fill="None" fill-opacity="0.0" stroke="#000000" stroke-opacity="0.00" stroke-width="0.3"><path d="
M 164.00 72.00 
C 162.33 74.67 171.53 76.70 174.00 77.00
C 171.66 76.13 169.33 70.97 167.00 70.00
C 166.30 70.53 164.49 71.22 164.00 72.00 Z"/>
</g>
<g fill="None" fill-opacity="0.0" stroke="#000000" stroke-opacity="0.00" stroke-width="0.3"><path d="
M 130.00 113.00 
C 130.34 112.77 131.00 113.00 131.00 113.00
C 137.12 110.35 140.34 98.49 145.75 93.75 C 151.16 89.02 156.28 80.48 161.00 75.00
C 159.62 72.54 155.60 73.44 154.00 71.00
C 144.02 83.37 139.82 100.31 130.00 113.00 Z"/>
</g>
<g fill="None" fill-opacity="0.0" stroke="#FFFFFF" stroke-opacity="0.84" stroke-width="0.3"><path d="
M 186.00 89.00 
C 185.96 90.25 185.64 90.97 185.00 92.00
C 184.21 88.71 191.33 97.76 190.00 97.00
C 190.84 96.70 192.11 97.13 193.00 97.00
C 195.33 97.39 196.07 94.66 198.00 94.00
C 199.35 96.73 202.58 98.24 204.00 101.00
C 215.22 97.00 224.96 89.29 236.00 85.00
C 234.56 79.91 227.78 71.41 222.75 76.75 C 217.72 82.09 213.16 84.13 208.00 89.00
C 205.73 85.44 201.02 84.06 199.00 80.00
C 195.40 82.22 188.64 85.66 186.00 89.00 Z"/>
</g>
<g fill="None" fill-opacity="0.0" stroke="#000000" stroke-opacity="0.00" stroke-width="0.3"><path d="
M 185.00 92.00 
C 179.79 100.34 172.67 100.38 166.75 96.26 C 160.82 92.14 153.95 105.03 149.08 108.08 C 144.22 111.13 136.02 117.83 132.00 122.00
C 131.77 122.09 133.29 122.32 134.00 122.00
C 140.08 118.11 147.60 114.13 153.92 110.92 C 160.23 107.70 167.49 100.06 171.00 110.00
C 176.75 106.51 182.52 103.00 188.00 99.00
C 188.32 98.77 189.96 97.02 190.00 97.00
C 191.33 97.76 184.21 88.71 185.00 92.00 Z"/>
</g>
<g fill="None" fill-opacity="0.0" stroke="#FFFFFF" stroke-opacity="0.35" stroke-width="0.3"><path d="
M 188.00 99.00 
C 188.33 99.00 188.93 100.12 190.00 100.00
C 190.89 99.90 192.24 97.57 193.00 97.00
C 192.11 97.13 190.84 96.70 190.00 97.00
C 189.96 97.02 188.32 98.77 188.00 99.00 Z"/>
</g>
<g fill="None" fill-opacity="0.0" stroke="#E5E5E5" stroke-opacity="0.48" stroke-width="0.3"><path d="
M 131.00 113.00 
C 131.00 113.00 130.34 112.77 130.00 113.00
C 127.87 114.47 125.86 117.24 126.00 120.00
C 127.93 118.36 130.26 115.63 131.00 113.00 Z"/>
</g>
<g fill="None" fill-opacity="0.0" stroke="#FFFFFF" stroke-opacity="0.47" stroke-width="0.3"><path d="
M 189.00 118.00 
C 188.82 118.42 188.94 119.51 189.00 120.00
C 189.27 119.87 191.75 119.84 192.00 120.00
C 191.75 119.45 190.71 116.88 190.00 117.00
C 190.09 117.25 189.35 117.89 189.00 118.00 Z"/>
</g>
<g fill="None" fill-opacity="0.0" stroke="#FFFFFF" stroke-opacity="0.80" stroke-width="0.3"><path d="
M 192.00 120.00 
C 191.75 119.84 189.27 119.87 189.00 120.00
C 189.41 123.42 188.61 130.97 190.00 134.00
C 190.42 134.25 191.51 134.88 192.00 135.00
C 207.98 134.21 223.26 130.66 239.00 129.00
C 239.00 125.00 239.00 121.00 239.00 117.00
C 223.80 119.30 208.82 122.36 194.00 126.00
C 193.44 124.03 192.81 121.83 192.00 120.00 Z"/>
</g>
<g fill="None" fill-opacity="0.0" stroke="#000000" stroke-opacity="0.00" stroke-width="0.3"><path d="
M 190.00 134.00 
C 188.61 130.97 189.41 123.42 189.00 120.00
C 188.94 119.51 188.82 118.42 189.00 118.00
C 171.30 121.27 153.99 125.99 136.00 128.00
C 152.15 129.51 170.26 126.04 187.00 125.00
C 187.26 128.56 187.38 132.42 190.00 134.00 Z"/>
</g>
<g fill="None" fill-opacity="0.0" stroke="#FFFFFF" stroke-opacity="0.48" stroke-width="0.3"><path d="
M 134.00 122.00 
C 133.29 122.32 131.77 122.09 132.00 122.00
C 130.77 122.28 129.73 123.72 130.00 125.00
C 131.94 124.85 132.74 122.89 134.00 122.00 Z"/>
</g>
<g fill="None" fill-opacity="0.0" stroke="#FFFFFF" stroke-opacity="0.62" stroke-width="0.3"><path d="
M 84.00 137.00 
C 84.00 137.00 85.00 136.99 85.00 137.00
C 86.82 136.47 86.31 132.18 84.00 133.00
C 85.69 134.39 84.06 135.67 84.00 137.00 Z"/>
</g>
<g fill="None" fill-opacity="0.0" stroke="#FFFFFF" stroke-opacity="0.73" stroke-width="0.3"><path d="
M 168.00 133.00 
C 163.29 133.39 166.16 137.82 168.00 133.00 Z"/>
</g>
<g fill="None" fill-opacity="0.0" stroke="#FFFFFF" stroke-opacity="0.70" stroke-width="0.3"><path d="
M 34.00 216.00 
C 34.05 216.57 35.13 216.72 35.00 218.00
C 35.20 216.24 33.73 212.76 34.00 216.00 Z"/>
</g>
<g fill="None" fill-opacity="0.0" stroke="#FFFFFF" stroke-opacity="0.64" stroke-width="0.3"><path d="
M 46.00 237.00 
C 46.36 236.69 47.79 236.29 48.00 236.00
C 47.87 234.46 50.22 231.56 47.00 232.00
C 46.37 233.62 46.48 235.38 46.00 237.00 Z"/>
</g>
<g fill="None" fill-opacity="0.0" stroke="#D5D5D5" stroke-opacity="0.49" stroke-width="0.3"><path d="
M 204.00 233.00 
C 200.42 237.60 207.82 238.72 204.00 233.00 Z"/>
</g>
<g fill="None" fill-opacity="0.0" stroke="#FFFFFF" stroke-opacity="0.42" stroke-width="0.3"><path d="
M 46.00 237.00 
C 45.67 237.28 44.14 238.18 45.00 239.00
C 45.00 239.00 45.51 239.07 46.00 239.00
C 47.69 238.77 47.65 237.16 48.00 236.00
C 47.79 236.29 46.36 236.69 46.00 237.00 Z"/>
</g>
<g fill="#000000" fill-opacity="0.00" stroke="None">
<path d="
M 0.00 256.00 
L 256.00 256.00
L 256.00 0.00
L 0.00 0.00
L 0.00 256.00
M 154.00 69.00 
C 154.86 63.99 160.70 60.40 161.00 55.00
C 165.94 56.49 169.94 60.72 175.00 62.00
C 178.54 50.02 183.92 38.12 189.00 27.00
C 192.43 29.73 195.95 33.02 200.00 35.00
C 194.10 49.32 184.77 62.11 178.00 76.00
C 177.33 80.21 186.19 83.03 186.00 89.00
C 188.64 85.66 195.40 82.22 199.00 80.00
C 201.02 84.06 205.73 85.44 208.00 89.00
C 213.16 84.13 217.72 82.09 222.75 76.75 C 227.78 71.41 234.56 79.91 236.00 85.00
C 224.96 89.29 215.22 97.00 204.00 101.00
C 202.58 98.24 199.35 96.73 198.00 94.00
C 196.07 94.66 195.33 97.39 193.00 97.00
C 192.24 97.57 190.89 99.90 190.00 100.00
C 192.54 104.14 188.64 113.05 190.00 117.00
C 190.71 116.88 191.75 119.45 192.00 120.00
C 192.81 121.83 193.44 124.03 194.00 126.00
C 208.82 122.36 223.80 119.30 239.00 117.00
C 239.00 121.00 239.00 125.00 239.00 129.00
C 223.26 130.66 207.98 134.21 192.00 135.00
C 192.40 139.58 186.73 145.40 191.75 151.25 C 196.77 157.09 195.25 156.32 197.99 165.01 C 200.73 173.70 198.99 191.34 205.31 198.69 C 211.62 206.05 221.76 209.27 229.00 216.00
C 228.30 223.77 219.69 217.89 216.00 216.00
C 217.54 224.18 219.05 232.40 219.00 241.00
C 212.48 238.67 204.84 243.54 200.78 240.22 C 196.72 236.90 198.58 228.65 194.70 224.30 C 190.81 219.96 194.56 210.52 191.08 205.92 C 187.59 201.32 185.43 195.92 182.08 190.92 C 178.73 185.92 176.47 180.76 174.07 174.93 C 171.67 169.09 172.82 161.54 172.00 155.00 C 171.18 148.46 165.75 143.14 167.00 136.00
C 157.98 170.81 174.82 204.79 169.00 241.00
C 155.00 241.00 141.00 241.00 127.00 241.00
C 127.72 236.40 125.47 232.57 126.00 228.00
C 124.47 231.69 124.52 236.69 124.00 241.00
C 110.00 241.00 96.00 241.00 82.00 241.00
C 76.79 204.97 91.76 172.36 85.00 137.00
C 85.00 136.99 84.00 137.00 84.00 137.00
C 84.27 144.31 79.77 149.27 79.02 156.02 C 78.28 162.78 78.73 170.31 76.22 176.22 C 73.72 182.13 70.58 187.93 68.08 193.08 C 65.57 198.22 59.85 203.32 59.23 208.23 C 58.61 213.14 56.46 223.32 54.90 226.90 C 53.33 230.48 48.79 246.64 46.00 239.00
C 45.51 239.07 45.00 239.00 45.00 239.00
C 43.85 243.32 35.64 239.91 32.00 241.00
C 32.12 233.20 33.33 225.03 35.00 218.00
C 35.13 216.72 34.05 216.57 34.00 216.00
C 33.47 215.94 21.56 223.31 23.03 216.97 C 24.50 210.63 30.86 213.54 32.75 207.75 C 34.64 201.97 42.45 205.66 44.74 200.74 C 47.04 195.83 49.62 193.63 49.93 186.93 C 50.23 180.22 53.78 179.50 52.33 170.33 C 50.88 161.16 61.45 152.41 61.00 143.00 C 60.55 133.59 61.69 136.15 62.00 126.00 C 62.31 115.84 60.07 103.18 62.93 92.93 C 65.78 82.67 72.98 76.80 83.02 75.02 C 93.07 73.25 100.63 67.56 110.00 64.00
C 109.00 57.38 108.89 48.05 105.67 42.33 C 102.46 36.60 93.81 28.35 104.00 26.00
C 93.91 -3.08 156.44 -3.26 146.00 26.00
C 156.58 27.31 148.13 36.44 145.08 42.08 C 142.04 47.72 140.02 57.88 141.00 65.00
C 145.38 66.10 149.33 68.76 154.00 69.00 Z"/>
</g>
<g fill="#FEFEFE" fill-opacity="0.96" stroke="None">
<path d="
M 34.00 216.00 
C 33.73 212.76 35.20 216.24 35.00 218.00
C 33.33 225.03 32.12 233.20 32.00 241.00
C 35.64 239.91 43.85 243.32 45.00 239.00
C 44.14 238.18 45.67 237.28 46.00 237.00
C 46.48 235.38 46.37 233.62 47.00 232.00
C 50.22 231.56 47.87 234.46 48.00 236.00
C 47.65 237.16 47.69 238.77 46.00 239.00
C 48.79 246.64 53.33 230.48 54.90 226.90 C 56.46 223.32 58.61 213.14 59.23 208.23 C 59.85 203.32 65.57 198.22 68.08 193.08 C 70.58 187.93 73.72 182.13 76.22 176.22 C 78.73 170.31 78.28 162.78 79.02 156.02 C 79.77 149.27 84.27 144.31 84.00 137.00
C 84.06 135.67 85.69 134.39 84.00 133.00
C 86.31 132.18 86.82 136.47 85.00 137.00
C 91.76 172.36 76.79 204.97 82.00 241.00
C 96.00 241.00 110.00 241.00 124.00 241.00
C 124.52 236.69 124.47 231.69 126.00 228.00
C 125.47 232.57 127.72 236.40 127.00 241.00
C 141.00 241.00 155.00 241.00 169.00 241.00
C 174.82 204.79 157.98 170.81 167.00 136.00
C 165.75 143.14 171.18 148.46 172.00 155.00 C 172.82 161.54 171.67 169.09 174.07 174.93 C 176.47 180.76 178.73 185.92 182.08 190.92 C 185.43 195.92 187.59 201.32 191.08 205.92 C 194.56 210.52 190.81 219.96 194.70 224.30 C 198.58 228.65 196.72 236.90 200.78 240.22 C 204.84 243.54 212.48 238.67 219.00 241.00
C 219.05 232.40 217.54 224.18 216.00 216.00
C 219.69 217.89 228.30 223.77 229.00 216.00
C 221.76 209.27 211.62 206.05 205.31 198.69 C 198.99 191.34 200.73 173.70 197.99 165.01 C 195.25 156.32 196.77 157.09 191.75 151.25 C 186.73 145.40 192.40 139.58 192.00 135.00
C 191.51 134.88 190.42 134.25 190.00 134.00
C 187.38 132.42 187.26 128.56 187.00 125.00
C 170.26 126.04 152.15 129.51 136.00 128.00
C 153.99 125.99 171.30 121.27 189.00 118.00
C 189.35 117.89 190.09 117.25 190.00 117.00
C 188.64 113.05 192.54 104.14 190.00 100.00
C 188.93 100.12 188.33 99.00 188.00 99.00
C 182.52 103.00 176.75 106.51 171.00 110.00
C 167.49 100.06 160.23 107.70 153.92 110.92 C 147.60 114.13 140.08 118.11 134.00 122.00
C 132.74 122.89 131.94 124.85 130.00 125.00
C 129.73 123.72 130.77 122.28 132.00 122.00
C 136.02 117.83 144.22 111.13 149.08 108.08 C 153.95 105.03 160.82 92.14 166.75 96.26 C 172.67 100.38 179.79 100.34 185.00 92.00
C 185.64 90.97 185.96 90.25 186.00 89.00
C 186.19 83.03 177.33 80.21 178.00 76.00
C 176.92 76.98 174.56 77.07 174.00 77.00
C 171.53 76.70 162.33 74.67 164.00 72.00
C 163.07 73.07 161.88 73.97 161.00 75.00
C 156.28 80.48 151.16 89.02 145.75 93.75 C 140.34 98.49 137.12 110.35 131.00 113.00
C 130.26 115.63 127.93 118.36 126.00 120.00
C 125.86 117.24 127.87 114.47 130.00 113.00
C 139.82 100.31 144.02 83.37 154.00 71.00
C 154.24 70.70 153.92 69.49 154.00 69.00
C 149.33 68.76 145.38 66.10 141.00 65.00
C 140.02 57.88 142.04 47.72 145.08 42.08 C 148.13 36.44 156.58 27.31 146.00 26.00
C 156.44 -3.26 93.91 -3.08 104.00 26.00
C 93.81 28.35 102.46 36.60 105.67 42.33 C 108.89 48.05 109.00 57.38 110.00 64.00
C 100.63 67.56 93.07 73.25 83.02 75.02 C 72.98 76.80 65.78 82.67 62.93 92.93 C 60.07 103.18 62.31 115.84 62.00 126.00 C 61.69 136.15 60.55 133.59 61.00 143.00 C 61.45 152.41 50.88 161.16 52.33 170.33 C 53.78 179.50 50.23 180.22 49.93 186.93 C 49.62 193.63 47.04 195.83 44.74 200.74 C 42.45 205.66 34.64 201.97 32.75 207.75 C 30.86 213.54 24.50 210.63 23.03 216.97 C 21.56 223.31 33.47 215.94 34.00 216.00
M 168.00 133.00 
C 166.16 137.82 163.29 133.39 168.00 133.00
M 204.00 233.00 
C 207.82 238.72 200.42 237.60 204.00 233.00 Z"/>
</g>
<g fill="#FFFFFF" fill-opacity="0.85" stroke="None">
<path d="
M 154.00 69.00 
C 153.92 69.49 154.24 70.70 154.00 71.00
C 155.60 73.44 159.62 72.54 161.00 75.00
C 161.88 73.97 163.07 73.07 164.00 72.00
C 165.60 70.15 164.15 68.80 167.00 70.00
C 169.33 70.97 171.66 76.13 174.00 77.00
C 174.56 77.07 176.92 76.98 178.00 76.00
C 184.77 62.11 194.10 49.32 200.00 35.00
C 195.95 33.02 192.43 29.73 189.00 27.00
C 183.92 38.12 178.54 50.02 175.00 62.00
C 169.94 60.72 165.94 56.49 161.00 55.00
C 160.70 60.40 154.86 63.99 154.00 69.00 Z"/>
</g>
<g fill="#FFFFFF" fill-opacity="0.36" stroke="None">
<path d="
M 164.00 72.00 
C 164.49 71.22 166.30 70.53 167.00 70.00
C 164.15 68.80 165.60 70.15 164.00 72.00 Z"/>
</g>
<g fill="#000000" fill-opacity="0.00" stroke="None">
<path d="
M 164.00 72.00 
C 162.33 74.67 171.53 76.70 174.00 77.00
C 171.66 76.13 169.33 70.97 167.00 70.00
C 166.30 70.53 164.49 71.22 164.00 72.00 Z"/>
</g>
<g fill="#000000" fill-opacity="0.00" stroke="None">
<path d="
M 130.00 113.00 
C 130.34 112.77 131.00 113.00 131.00 113.00
C 137.12 110.35 140.34 98.49 145.75 93.75 C 151.16 89.02 156.28 80.48 161.00 75.00
C 159.62 72.54 155.60 73.44 154.00 71.00
C 144.02 83.37 139.82 100.31 130.00 113.00 Z"/>
</g>
<g fill="#FFFFFF" fill-opacity="0.84" stroke="None">
<path d="
M 186.00 89.00 
C 185.96 90.25 185.64 90.97 185.00 92.00
C 184.21 88.71 191.33 97.76 190.00 97.00
C 190.84 96.70 192.11 97.13 193.00 97.00
C 195.33 97.39 196.07 94.66 198.00 94.00
C 199.35 96.73 202.58 98.24 204.00 101.00
C 215.22 97.00 224.96 89.29 236.00 85.00
C 234.56 79.91 227.78 71.41 222.75 76.75 C 217.72 82.09 213.16 84.13 208.00 89.00
C 205.73 85.44 201.02 84.06 199.00 80.00
C 195.40 82.22 188.64 85.66 186.00 89.00 Z"/>
</g>
<g fill="#000000" fill-opacity="0.00" stroke="None">
<path d="
M 185.00 92.00 
C 179.79 100.34 172.67 100.38 166.75 96.26 C 160.82 92.14 153.95 105.03 149.08 108.08 C 144.22 111.13 136.02 117.83 132.00 122.00
C 131.77 122.09 133.29 122.32 134.00 122.00
C 140.08 118.11 147.60 114.13 153.92 110.92 C 160.23 107.70 167.49 100.06 171.00 110.00
C 176.75 106.51 182.52 103.00 188.00 99.00
C 188.32 98.77 189.96 97.02 190.00 97.00
C 191.33 97.76 184.21 88.71 185.00 92.00 Z"/>
</g>
<g fill="#FFFFFF" fill-opacity="0.35" stroke="None">
<path d="
M 188.00 99.00 
C 188.33 99.00 188.93 100.12 190.00 100.00
C 190.89 99.90 192.24 97.57 193.00 97.00
C 192.11 97.13 190.84 96.70 190.00 97.00
C 189.96 97.02 188.32 98.77 188.00 99.00 Z"/>
</g>
<g fill="#E5E5E5" fill-opacity="0.48" stroke="None">
<path d="
M 131.00 113.00 
C 131.00 113.00 130.34 112.77 130.00 113.00
C 127.87 114.47 125.86 117.24 126.00 120.00
C 127.93 118.36 130.26 115.63 131.00 113.00 Z"/>
</g>
<g fill="#FFFFFF" fill-opacity="0.47" stroke="None">
<path d="
M 189.00 118.00 
C 188.82 118.42 188.94 119.51 189.00 120.00
C 189.27 119.87 191.75 119.84 192.00 120.00
C 191.75 119.45 190.71 116.88 190.00 117.00
C 190.09 117.25 189.35 117.89 189.00 118.00 Z"/>
</g>
<g fill="#FFFFFF" fill-opacity="0.80" stroke="None">
<path d="
M 192.00 120.00 
C 191.75 119.84 189.27 119.87 189.00 120.00
C 189.41 123.42 188.61 130.97 190.00 134.00
C 190.42 134.25 191.51 134.88 192.00 135.00
C 207.98 134.21 223.26 130.66 239.00 129.00
C 239.00 125.00 239.00 121.00 239.00 117.00
C 223.80 119.30 208.82 122.36 194.00 126.00
C 193.44 124.03 192.81 121.83 192.00 120.00 Z"/>
</g>
<g fill="#000000" fill-opacity="0.00" stroke="None">
<path d="
M 190.00 134.00 
C 188.61 130.97 189.41 123.42 189.00 120.00
C 188.94 119.51 188.82 118.42 189.00 118.00
C 171.30 121.27 153.99 125.99 136.00 128.00
C 152.15 129.51 170.26 126.04 187.00 125.00
C 187.26 128.56 187.38 132.42 190.00 134.00 Z"/>
</g>
<g fill="#FFFFFF" fill-opacity="0.48" stroke="None">
<path d="
M 134.00 122.00 
C 133.29 122.32 131.77 122.09 132.00 122.00
C 130.77 122.28 129.73 123.72 130.00 125.00
C 131.94 124.85 132.74 122.89 134.00 122.00 Z"/>
</g>
<g fill="#FFFFFF" fill-opacity="0.62" stroke="None">
<path d="
M 84.00 137.00 
C 84.00 137.00 85.00 136.99 85.00 137.00
C 86.82 136.47 86.31 132.18 84.00 133.00
C 85.69 134.39 84.06 135.67 84.00 137.00 Z"/>
</g>
<g fill="#FFFFFF" fill-opacity="0.73" stroke="None">
<path d="
M 168.00 133.00 
C 163.29 133.39 166.16 137.82 168.00 133.00 Z"/>
</g>
<g fill="#FFFFFF" fill-opacity="0.70" stroke="None">
<path d="
M 34.00 216.00 
C 34.05 216.57 35.13 216.72 35.00 218.00
C 35.20 216.24 33.73 212.76 34.00 216.00 Z"/>
</g>
<g fill="#FFFFFF" fill-opacity="0.64" stroke="None">
<path d="
M 46.00 237.00 
C 46.36 236.69 47.79 236.29 48.00 236.00
C 47.87 234.46 50.22 231.56 47.00 232.00
C 46.37 233.62 46.48 235.38 46.00 237.00 Z"/>
</g>
<g fill="#D5D5D5" fill-opacity="0.49" stroke="None">
<path d="
M 204.00 233.00 
C 200.42 237.60 207.82 238.72 204.00 233.00 Z"/>
</g>
<g fill="#FFFFFF" fill-opacity="0.42" stroke="None">
<path d="
M 46.00 237.00 
C 45.67 237.28 44.14 238.18 45.00 239.00
C 45.00 239.00 45.51 239.07 46.00 239.00
C 47.69 238.77 47.65 237.16 48.00 236.00
C 47.79 236.29 46.36 236.69 46.00 237.00 Z"/>
</g>
</svg>