<svg xmlns="http://www.w3.org/2000/svg" xmlns:v="https://svgstorm.com"
viewBox = "0 0 256 256"
width="256"
height="256">
<g fill="None" fill-opacity="0.0" stroke="#000000" stroke-opacity="0.00" stroke-width="0.3"><path d="
M 0.00 256.00 
L 256.00 256.00
L 256.00 0.00
L 0.00 0.00
L 0.00 256.00
M 126.00 228.00 
C 126.00 228.02 125.00 228.00 125.00 228.00
C 124.69 232.77 124.89 236.83 124.00 241.00
C 110.00 241.00 96.00 241.00 82.00 241.00
C 76.27 205.23 93.15 170.37 84.00 136.00
C 84.68 144.29 78.59 151.88 79.00 160.00 C 79.41 168.12 77.26 176.76 73.23 183.23 C 69.20 189.70 67.58 196.00 62.75 201.75 C 57.91 207.49 59.61 218.98 56.67 224.67 C 53.73 230.36 52.04 243.44 46.00 239.00
C 45.94 238.84 45.00 239.00 45.00 239.00
C 43.85 243.32 35.64 239.91 32.00 241.00
C 31.84 232.47 34.87 224.72 34.00 216.00
C 30.95 218.81 27.30 220.48 23.00 220.00
C 26.04 207.16 41.97 206.48 47.31 195.31 C 52.64 184.13 49.85 166.28 56.31 155.31 C 62.76 144.33 62.78 125.14 62.00 113.00 C 61.22 100.86 60.74 85.31 72.70 78.70 C 84.65 72.08 97.23 71.84 109.00 65.00
C 109.69 58.00 108.39 47.36 105.22 41.78 C 102.05 36.20 93.95 27.51 104.00 26.00
C 93.88 -3.14 156.44 -3.34 146.00 26.00
C 156.20 27.54 148.36 36.51 145.08 42.08 C 141.80 47.65 140.21 57.94 141.00 65.00
C 148.12 67.05 154.86 70.36 161.69 73.31 C 168.53 76.25 177.75 75.51 182.75 82.25 C 187.76 88.98 189.56 96.71 190.00 105.00 C 190.44 113.29 187.39 120.49 189.33 128.67 C 191.27 136.85 187.44 147.96 193.77 154.23 C 200.10 160.50 197.12 171.09 199.93 178.07 C 202.73 185.05 199.71 195.68 206.31 200.69 C 212.90 205.71 216.89 206.02 223.75 213.25 C 230.61 220.48 223.65 221.57 216.00 215.00
C 218.01 223.48 217.62 232.62 220.00 241.00
C 205.68 243.77 199.88 239.94 197.01 227.99 C 194.14 216.05 190.92 208.15 186.08 197.92 C 181.24 187.69 174.39 182.39 173.02 170.98 C 171.66 159.57 169.54 147.23 167.00 136.00
C 158.50 170.05 173.52 204.87 170.00 240.00
C 156.17 242.31 141.25 240.35 127.00 241.00
C 127.72 236.40 125.47 232.57 126.00 228.00
M 183.00 65.00 
C 182.08 66.17 181.51 67.49 180.00 68.00
C 180.06 70.00 178.09 72.17 176.00 72.00
C 176.99 70.67 177.05 68.43 179.00 68.00
C 178.74 66.19 180.32 65.17 181.00 64.00
C 186.91 53.79 192.54 43.28 198.00 33.00
C 201.67 32.15 203.43 36.63 207.00 36.00
C 208.44 29.05 213.26 23.19 214.00 16.00
C 217.72 14.87 218.63 20.24 222.00 20.00
C 219.48 29.26 211.78 36.69 209.00 46.00
C 203.12 40.81 198.59 43.66 194.75 49.75 C 190.91 55.85 186.98 59.22 183.00 65.00
M 184.00 73.00 
C 183.32 73.42 182.71 73.67 182.00 74.00
C 180.05 76.04 182.44 75.18 183.00 76.00
C 184.00 75.41 187.67 75.26 189.00 75.00
C 198.38 73.17 207.67 71.12 217.00 69.00
C 216.15 77.17 223.65 73.89 229.01 73.01 C 234.37 72.13 240.23 69.68 246.00 70.00
C 248.26 78.28 240.16 78.14 233.98 78.98 C 227.80 79.81 220.45 80.75 214.00 81.00
C 213.99 70.40 197.66 80.04 190.00 77.00
C 188.49 77.15 185.18 79.08 183.00 78.00
C 181.17 78.70 177.95 75.41 180.00 74.00
C 179.74 72.61 183.25 70.64 184.00 70.00
C 191.32 63.74 197.14 55.86 205.23 58.77 C 213.32 61.68 219.72 38.10 227.00 53.00
C 231.21 50.24 233.98 45.02 239.00 44.00
C 240.09 46.74 244.03 47.83 244.00 51.00
C 236.77 52.94 230.78 58.23 224.00 61.00
C 224.05 58.78 221.71 57.01 220.00 56.00
C 216.28 60.61 209.45 62.03 206.00 67.00
C 202.98 67.61 203.43 63.50 201.00 63.00
C 195.84 66.84 189.45 69.32 184.00 73.00 Z"/>
</g>
<g fill="None" fill-opacity="0.0" stroke="#FFFFFF" stroke-opacity="0.97" stroke-width="0.3"><path d="
M 45.00 239.00 
C 44.91 237.24 46.56 235.92 46.00 234.00
C 49.02 233.41 48.46 238.71 46.00 239.00
C 52.04 243.44 53.73 230.36 56.67 224.67 C 59.61 218.98 57.91 207.49 62.75 201.75 C 67.58 196.00 69.20 189.70 73.23 183.23 C 77.26 176.76 79.41 168.12 79.00 160.00 C 78.59 151.88 84.68 144.29 84.00 136.00
C 93.15 170.37 76.27 205.23 82.00 241.00
C 96.00 241.00 110.00 241.00 124.00 241.00
C 124.89 236.83 124.69 232.77 125.00 228.00
C 125.09 226.60 125.92 225.68 125.00 224.00
C 126.72 224.30 128.01 227.27 126.00 228.00
C 125.47 232.57 127.72 236.40 127.00 241.00
C 141.25 240.35 156.17 242.31 170.00 240.00
C 173.52 204.87 158.50 170.05 167.00 136.00
C 169.54 147.23 171.66 159.57 173.02 170.98 C 174.39 182.39 181.24 187.69 186.08 197.92 C 190.92 208.15 194.14 216.05 197.01 227.99 C 199.88 239.94 205.68 243.77 220.00 241.00
C 217.62 232.62 218.01 223.48 216.00 215.00
C 223.65 221.57 230.61 220.48 223.75 213.25 C 216.89 206.02 212.90 205.71 206.31 200.69 C 199.71 195.68 202.73 185.05 199.93 178.07 C 197.12 171.09 200.10 160.50 193.77 154.23 C 187.44 147.96 191.27 136.85 189.33 128.67 C 187.39 120.49 190.44 113.29 190.00 105.00 C 189.56 96.71 187.76 88.98 182.75 82.25 C 177.75 75.51 168.53 76.25 161.69 73.31 C 154.86 70.36 148.12 67.05 141.00 65.00
C 140.21 57.94 141.80 47.65 145.08 42.08 C 148.36 36.51 156.20 27.54 146.00 26.00
C 156.44 -3.34 93.88 -3.14 104.00 26.00
C 93.95 27.51 102.05 36.20 105.22 41.78 C 108.39 47.36 109.69 58.00 109.00 65.00
C 97.23 71.84 84.65 72.08 72.70 78.70 C 60.74 85.31 61.22 100.86 62.00 113.00 C 62.78 125.14 62.76 144.33 56.31 155.31 C 49.85 166.28 52.64 184.13 47.31 195.31 C 41.97 206.48 26.04 207.16 23.00 220.00
C 27.30 220.48 30.95 218.81 34.00 216.00
C 34.87 224.72 31.84 232.47 32.00 241.00
C 35.64 239.91 43.85 243.32 45.00 239.00
M 168.00 133.00 
C 166.16 137.82 163.29 133.39 168.00 133.00
M 204.00 233.00 
C 207.51 237.86 200.30 236.86 204.00 233.00 Z"/>
</g>
<g fill="None" fill-opacity="0.0" stroke="#FFFFFF" stroke-opacity="0.80" stroke-width="0.3"><path d="
M 181.00 64.00 
C 181.81 63.95 182.09 65.17 183.00 65.00
C 186.98 59.22 190.91 55.85 194.75 49.75 C 198.59 43.66 203.12 40.81 209.00 46.00
C 211.78 36.69 219.48 29.26 222.00 20.00
C 218.63 20.24 217.72 14.87 214.00 16.00
C 213.26 23.19 208.44 29.05 207.00 36.00
C 203.43 36.63 201.67 32.15 198.00 33.00
C 192.54 43.28 186.91 53.79 181.00 64.00 Z"/>
</g>
<g fill="None" fill-opacity="0.0" stroke="#FFFFFF" stroke-opacity="0.80" stroke-width="0.3"><path d="
M 184.00 70.00 
C 183.63 70.83 184.39 72.18 184.00 73.00
C 189.45 69.32 195.84 66.84 201.00 63.00
C 203.43 63.50 202.98 67.61 206.00 67.00
C 209.45 62.03 216.28 60.61 220.00 56.00
C 221.71 57.01 224.05 58.78 224.00 61.00
C 230.78 58.23 236.77 52.94 244.00 51.00
C 244.03 47.83 240.09 46.74 239.00 44.00
C 233.98 45.02 231.21 50.24 227.00 53.00
C 219.72 38.10 213.32 61.68 205.23 58.77 C 197.14 55.86 191.32 63.74 184.00 70.00 Z"/>
</g>
<g fill="None" fill-opacity="0.0" stroke="#FFFFFF" stroke-opacity="0.49" stroke-width="0.3"><path d="
M 179.00 68.00 
C 179.40 67.80 180.00 68.00 180.00 68.00
C 181.51 67.49 182.08 66.17 183.00 65.00
C 182.09 65.17 181.81 63.95 181.00 64.00
C 180.32 65.17 178.74 66.19 179.00 68.00 Z"/>
</g>
<g fill="None" fill-opacity="0.0" stroke="#FFFFFF" stroke-opacity="0.19" stroke-width="0.3"><path d="
M 180.00 68.00 
C 180.00 68.00 179.40 67.80 179.00 68.00
C 177.05 68.43 176.99 70.67 176.00 72.00
C 178.09 72.17 180.06 70.00 180.00 68.00 Z"/>
</g>
<g fill="None" fill-opacity="0.0" stroke="#FFFFFF" stroke-opacity="0.76" stroke-width="0.3"><path d="
M 189.00 75.00 
C 189.58 75.37 188.75 76.50 190.00 77.00
C 197.66 80.04 213.99 70.40 214.00 81.00
C 220.45 80.75 227.80 79.81 233.98 78.98 C 240.16 78.14 248.26 78.28 246.00 70.00
C 240.23 69.68 234.37 72.13 229.01 73.01 C 223.65 73.89 216.15 77.17 217.00 69.00
C 207.67 71.12 198.38 73.17 189.00 75.00 Z"/>
</g>
<g fill="None" fill-opacity="0.0" stroke="#FFFFFF" stroke-opacity="0.44" stroke-width="0.3"><path d="
M 180.00 74.00 
C 179.18 74.56 181.86 74.06 182.00 74.00
C 182.71 73.67 183.32 73.42 184.00 73.00
C 184.39 72.18 183.63 70.83 184.00 70.00
C 183.25 70.64 179.74 72.61 180.00 74.00 Z"/>
</g>
<g fill="None" fill-opacity="0.0" stroke="#DADADA" stroke-opacity="0.08" stroke-width="0.3"><path d="
M 183.00 78.00 
C 182.80 77.90 183.23 76.34 183.00 76.00
C 182.44 75.18 180.05 76.04 182.00 74.00
C 181.86 74.06 179.18 74.56 180.00 74.00
C 177.95 75.41 181.17 78.70 183.00 78.00 Z"/>
</g>
<g fill="None" fill-opacity="0.0" stroke="#FFFFFF" stroke-opacity="0.33" stroke-width="0.3"><path d="
M 183.00 76.00 
C 183.23 76.34 182.80 77.90 183.00 78.00
C 185.18 79.08 188.49 77.15 190.00 77.00
C 188.75 76.50 189.58 75.37 189.00 75.00
C 187.67 75.26 184.00 75.41 183.00 76.00 Z"/>
</g>
<g fill="None" fill-opacity="0.0" stroke="#FFFFFF" stroke-opacity="0.73" stroke-width="0.3"><path d="
M 168.00 133.00 
C 163.29 133.39 166.16 137.82 168.00 133.00 Z"/>
</g>
<g fill="None" fill-opacity="0.0" stroke="#FFFFFF" stroke-opacity="0.65" stroke-width="0.3"><path d="
M 125.00 228.00 
C 125.00 228.00 126.00 228.02 126.00 228.00
C 128.01 227.27 126.72 224.30 125.00 224.00
C 125.92 225.68 125.09 226.60 125.00 228.00 Z"/>
</g>
<g fill="None" fill-opacity="0.0" stroke="#FFFFFF" stroke-opacity="0.57" stroke-width="0.3"><path d="
M 204.00 233.00 
C 200.30 236.86 207.51 237.86 204.00 233.00 Z"/>
</g>
<g fill="None" fill-opacity="0.0" stroke="#FFFFFF" stroke-opacity="0.46" stroke-width="0.3"><path d="
M 45.00 239.00 
C 45.00 239.00 45.94 238.84 46.00 239.00
C 48.46 238.71 49.02 233.41 46.00 234.00
C 46.56 235.92 44.91 237.24 45.00 239.00 Z"/>
</g>
<g fill="#000000" fill-opacity="0.00" stroke="None">
<path d="
M 0.00 256.00 
L 256.00 256.00
L 256.00 0.00
L 0.00 0.00
L 0.00 256.00
M 126.00 228.00 
C 126.00 228.02 125.00 228.00 125.00 228.00
C 124.69 232.77 124.89 236.83 124.00 241.00
C 110.00 241.00 96.00 241.00 82.00 241.00
C 76.27 205.23 93.15 170.37 84.00 136.00
C 84.68 144.29 78.59 151.88 79.00 160.00 C 79.41 168.12 77.26 176.76 73.23 183.23 C 69.20 189.70 67.58 196.00 62.75 201.75 C 57.91 207.49 59.61 218.98 56.67 224.67 C 53.73 230.36 52.04 243.44 46.00 239.00
C 45.94 238.84 45.00 239.00 45.00 239.00
C 43.85 243.32 35.64 239.91 32.00 241.00
C 31.84 232.47 34.87 224.72 34.00 216.00
C 30.95 218.81 27.30 220.48 23.00 220.00
C 26.04 207.16 41.97 206.48 47.31 195.31 C 52.64 184.13 49.85 166.28 56.31 155.31 C 62.76 144.33 62.78 125.14 62.00 113.00 C 61.22 100.86 60.74 85.31 72.70 78.70 C 84.65 72.08 97.23 71.84 109.00 65.00
C 109.69 58.00 108.39 47.36 105.22 41.78 C 102.05 36.20 93.95 27.51 104.00 26.00
C 93.88 -3.14 156.44 -3.34 146.00 26.00
C 156.20 27.54 148.36 36.51 145.08 42.08 C 141.80 47.65 140.21 57.94 141.00 65.00
C 148.12 67.05 154.86 70.36 161.69 73.31 C 168.53 76.25 177.75 75.51 182.75 82.25 C 187.76 88.98 189.56 96.71 190.00 105.00 C 190.44 113.29 187.39 120.49 189.33 128.67 C 191.27 136.85 187.44 147.96 193.77 154.23 C 200.10 160.50 197.12 171.09 199.93 178.07 C 202.73 185.05 199.71 195.68 206.31 200.69 C 212.90 205.71 216.89 206.02 223.75 213.25 C 230.61 220.48 223.65 221.57 216.00 215.00
C 218.01 223.48 217.62 232.62 220.00 241.00
C 205.68 243.77 199.88 239.94 197.01 227.99 C 194.14 216.05 190.92 208.15 186.08 197.92 C 181.24 187.69 174.39 182.39 173.02 170.98 C 171.66 159.57 169.54 147.23 167.00 136.00
C 158.50 170.05 173.52 204.87 170.00 240.00
C 156.17 242.31 141.25 240.35 127.00 241.00
C 127.72 236.40 125.47 232.57 126.00 228.00
M 183.00 65.00 
C 182.08 66.17 181.51 67.49 180.00 68.00
C 180.06 70.00 178.09 72.17 176.00 72.00
C 176.99 70.67 177.05 68.43 179.00 68.00
C 178.74 66.19 180.32 65.17 181.00 64.00
C 186.91 53.79 192.54 43.28 198.00 33.00
C 201.67 32.15 203.43 36.63 207.00 36.00
C 208.44 29.05 213.26 23.19 214.00 16.00
C 217.72 14.87 218.63 20.24 222.00 20.00
C 219.48 29.26 211.78 36.69 209.00 46.00
C 203.12 40.81 198.59 43.66 194.75 49.75 C 190.91 55.85 186.98 59.22 183.00 65.00
M 184.00 73.00 
C 183.32 73.42 182.71 73.67 182.00 74.00
C 180.05 76.04 182.44 75.18 183.00 76.00
C 184.00 75.41 187.67 75.26 189.00 75.00
C 198.38 73.17 207.67 71.12 217.00 69.00
C 216.15 77.17 223.65 73.89 229.01 73.01 C 234.37 72.13 240.23 69.68 246.00 70.00
C 248.26 78.28 240.16 78.14 233.98 78.98 C 227.80 79.81 220.45 80.75 214.00 81.00
C 213.99 70.40 197.66 80.04 190.00 77.00
C 188.49 77.15 185.18 79.08 183.00 78.00
C 181.17 78.70 177.95 75.41 180.00 74.00
C 179.74 72.61 183.25 70.64 184.00 70.00
C 191.32 63.74 197.14 55.86 205.23 58.77 C 213.32 61.68 219.72 38.10 227.00 53.00
C 231.21 50.24 233.98 45.02 239.00 44.00
C 240.09 46.74 244.03 47.83 244.00 51.00
C 236.77 52.94 230.78 58.23 224.00 61.00
C 224.05 58.78 221.71 57.01 220.00 56.00
C 216.28 60.61 209.45 62.03 206.00 67.00
C 202.98 67.61 203.43 63.50 201.00 63.00
C 195.84 66.84 189.45 69.32 184.00 73.00 Z"/>
</g>
<g fill="#FFFFFF" fill-opacity="0.97" stroke="None">
<path d="
M 45.00 239.00 
C 44.91 237.24 46.56 235.92 46.00 234.00
C 49.02 233.41 48.46 238.71 46.00 239.00
C 52.04 243.44 53.73 230.36 56.67 224.67 C 59.61 218.98 57.91 207.49 62.75 201.75 C 67.58 196.00 69.20 189.70 73.23 183.23 C 77.26 176.76 79.41 168.12 79.00 160.00 C 78.59 151.88 84.68 144.29 84.00 136.00
C 93.15 170.37 76.27 205.23 82.00 241.00
C 96.00 241.00 110.00 241.00 124.00 241.00
C 124.89 236.83 124.69 232.77 125.00 228.00
C 125.09 226.60 125.92 225.68 125.00 224.00
C 126.72 224.30 128.01 227.27 126.00 228.00
C 125.47 232.57 127.72 236.40 127.00 241.00
C 141.25 240.35 156.17 242.31 170.00 240.00
C 173.52 204.87 158.50 170.05 167.00 136.00
C 169.54 147.23 171.66 159.57 173.02 170.98 C 174.39 182.39 181.24 187.69 186.08 197.92 C 190.92 208.15 194.14 216.05 197.01 227.99 C 199.88 239.94 205.68 243.77 220.00 241.00
C 217.62 232.62 218.01 223.48 216.00 215.00
C 223.65 221.57 230.61 220.48 223.75 213.25 C 216.89 206.02 212.90 205.71 206.31 200.69 C 199.71 195.68 202.73 185.05 199.93 178.07 C 197.12 171.09 200.10 160.50 193.77 154.23 C 187.44 147.96 191.27 136.85 189.33 128.67 C 187.39 120.49 190.44 113.29 190.00 105.00 C 189.56 96.71 187.76 88.98 182.75 82.25 C 177.75 75.51 168.53 76.25 161.69 73.31 C 154.86 70.36 148.12 67.05 141.00 65.00
C 140.21 57.94 141.80 47.65 145.08 42.08 C 148.36 36.51 156.20 27.54 146.00 26.00
C 156.44 -3.34 93.88 -3.14 104.00 26.00
C 93.95 27.51 102.05 36.20 105.22 41.78 C 108.39 47.36 109.69 58.00 109.00 65.00
C 97.23 71.84 84.65 72.08 72.70 78.70 C 60.74 85.31 61.22 100.86 62.00 113.00 C 62.78 125.14 62.76 144.33 56.31 155.31 C 49.85 166.28 52.64 184.13 47.31 195.31 C 41.97 206.48 26.04 207.16 23.00 220.00
C 27.30 220.48 30.95 218.81 34.00 216.00
C 34.87 224.72 31.84 232.47 32.00 241.00
C 35.64 239.91 43.85 243.32 45.00 239.00
M 168.00 133.00 
C 166.16 137.82 163.29 133.39 168.00 133.00
M 204.00 233.00 
C 207.51 237.86 200.30 236.86 204.00 233.00 Z"/>
</g>
<g fill="#FFFFFF" fill-opacity="0.80" stroke="None">
<path d="
M 181.00 64.00 
C 181.81 63.95 182.09 65.17 183.00 65.00
C 186.98 59.22 190.91 55.85 194.75 49.75 C 198.59 43.66 203.12 40.81 209.00 46.00
C 211.78 36.69 219.48 29.26 222.00 20.00
C 218.63 20.24 217.72 14.87 214.00 16.00
C 213.26 23.19 208.44 29.05 207.00 36.00
C 203.43 36.63 201.67 32.15 198.00 33.00
C 192.54 43.28 186.91 53.79 181.00 64.00 Z"/>
</g>
<g fill="#FFFFFF" fill-opacity="0.80" stroke="None">
<path d="
M 184.00 70.00 
C 183.63 70.83 184.39 72.18 184.00 73.00
C 189.45 69.32 195.84 66.84 201.00 63.00
C 203.43 63.50 202.98 67.61 206.00 67.00
C 209.45 62.03 216.28 60.61 220.00 56.00
C 221.71 57.01 224.05 58.78 224.00 61.00
C 230.78 58.23 236.77 52.94 244.00 51.00
C 244.03 47.83 240.09 46.74 239.00 44.00
C 233.98 45.02 231.21 50.24 227.00 53.00
C 219.72 38.10 213.32 61.68 205.23 58.77 C 197.14 55.86 191.32 63.74 184.00 70.00 Z"/>
</g>
<g fill="#FFFFFF" fill-opacity="0.49" stroke="None">
<path d="
M 179.00 68.00 
C 179.40 67.80 180.00 68.00 180.00 68.00
C 181.51 67.49 182.08 66.17 183.00 65.00
C 182.09 65.17 181.81 63.95 181.00 64.00
C 180.32 65.17 178.74 66.19 179.00 68.00 Z"/>
</g>
<g fill="#FFFFFF" fill-opacity="0.19" stroke="None">
<path d="
M 180.00 68.00 
C 180.00 68.00 179.40 67.80 179.00 68.00
C 177.05 68.43 176.99 70.67 176.00 72.00
C 178.09 72.17 180.06 70.00 180.00 68.00 Z"/>
</g>
<g fill="#FFFFFF" fill-opacity="0.76" stroke="None">
<path d="
M 189.00 75.00 
C 189.58 75.37 188.75 76.50 190.00 77.00
C 197.66 80.04 213.99 70.40 214.00 81.00
C 220.45 80.75 227.80 79.81 233.98 78.98 C 240.16 78.14 248.26 78.28 246.00 70.00
C 240.23 69.68 234.37 72.13 229.01 73.01 C 223.65 73.89 216.15 77.17 217.00 69.00
C 207.67 71.12 198.38 73.17 189.00 75.00 Z"/>
</g>
<g fill="#FFFFFF" fill-opacity="0.44" stroke="None">
<path d="
M 180.00 74.00 
C 179.18 74.56 181.86 74.06 182.00 74.00
C 182.71 73.67 183.32 73.42 184.00 73.00
C 184.39 72.18 183.63 70.83 184.00 70.00
C 183.25 70.64 179.74 72.61 180.00 74.00 Z"/>
</g>
<g fill="#DADADA" fill-opacity="0.08" stroke="None">
<path d="
M 183.00 78.00 
C 182.80 77.90 183.23 76.34 183.00 76.00
C 182.44 75.18 180.05 76.04 182.00 74.00
C 181.86 74.06 179.18 74.56 180.00 74.00
C 177.95 75.41 181.17 78.70 183.00 78.00 Z"/>
</g>
<g fill="#FFFFFF" fill-opacity="0.33" stroke="None">
<path d="
M 183.00 76.00 
C 183.23 76.34 182.80 77.90 183.00 78.00
C 185.18 79.08 188.49 77.15 190.00 77.00
C 188.75 76.50 189.58 75.37 189.00 75.00
C 187.67 75.26 184.00 75.41 183.00 76.00 Z"/>
</g>
<g fill="#FFFFFF" fill-opacity="0.73" stroke="None">
<path d="
M 168.00 133.00 
C 163.29 133.39 166.16 137.82 168.00 133.00 Z"/>
</g>
<g fill="#FFFFFF" fill-opacity="0.65" stroke="None">
<path d="
M 125.00 228.00 
C 125.00 228.00 126.00 228.02 126.00 228.00
C 128.01 227.27 126.72 224.30 125.00 224.00
C 125.92 225.68 125.09 226.60 125.00 228.00 Z"/>
</g>
<g fill="#FFFFFF" fill-opacity="0.57" stroke="None">
<path d="
M 204.00 233.00 
C 200.30 236.86 207.51 237.86 204.00 233.00 Z"/>
</g>
<g fill="#FFFFFF" fill-opacity="0.46" stroke="None">
<path d="
M 45.00 239.00 
C 45.00 239.00 45.94 238.84 46.00 239.00
C 48.46 238.71 49.02 233.41 46.00 234.00
C 46.56 235.92 44.91 237.24 45.00 239.00 Z"/>
</g>
</svg>