<svg xmlns="http://www.w3.org/2000/svg" xmlns:v="https://svgstorm.com"
viewBox = "0 0 512 512"
width="512"
height="512">
<g fill="None" fill-opacity="0.0" stroke="#000000" stroke-opacity="0.00" stroke-width="0.3"><path d="
M 0.00 512.00 
L 512.00 512.00
L 512.00 0.00
L 0.00 0.00
L 0.00 512.00
M 287.00 373.00 
C 280.01 373.68 272.31 373.69 265.00 373.00
C 239.45 370.60 210.75 367.30 187.00 359.00 C 163.25 350.71 127.38 374.51 148.25 395.75 C 169.11 417.00 194.15 412.49 221.67 414.33 C 249.19 416.17 282.07 411.46 310.00 411.00
C 315.84 385.64 342.56 369.36 368.00 372.00 C 393.44 374.64 414.03 396.86 416.00 422.00
C 416.06 424.94 416.26 428.07 416.00 431.00
C 418.44 440.02 408.33 453.73 402.25 461.25 C 396.17 468.77 385.53 476.26 375.32 478.32 C 365.11 480.38 346.12 479.90 336.92 474.08 C 327.73 468.25 319.71 461.65 315.00 452.00
C 304.54 453.42 293.90 454.28 283.00 454.00
C 274.29 454.82 265.08 455.00 256.00 455.00
C 250.35 455.00 244.65 454.78 239.00 455.00
C 228.61 455.40 218.39 455.71 208.00 455.00
C 167.97 452.28 122.57 445.35 105.08 403.92 C 87.58 362.50 119.63 322.70 163.01 318.01 C 206.38 313.32 254.71 341.27 299.00 329.00
C 298.38 314.22 282.15 306.39 269.77 301.23 C 257.39 296.07 245.96 285.61 233.25 280.75 C 220.54 275.88 201.98 275.41 190.31 266.69 C 178.63 257.98 167.91 252.15 159.00 240.00
C 162.06 237.17 165.12 233.37 168.00 230.00
C 152.31 210.98 143.59 190.51 136.07 166.93 C 128.56 143.35 127.36 114.08 120.00 90.00
C 119.63 87.74 118.74 84.94 119.00 82.00
C 120.11 69.40 126.09 56.66 133.75 46.75 C 141.42 36.84 153.65 27.22 167.00 30.00 C 180.35 32.78 186.35 51.91 183.00 64.00 C 179.65 76.09 177.65 88.83 166.70 97.70 C 155.74 106.57 158.78 121.55 162.33 134.67 C 165.87 147.79 168.63 160.92 173.93 173.07 C 179.22 185.23 183.51 195.19 191.00 206.00
C 195.18 203.75 197.37 198.08 202.00 197.00
C 219.00 230.66 269.71 227.55 285.00 194.00
C 289.56 195.43 290.83 201.59 294.00 205.00
C 303.30 192.43 308.07 179.65 313.92 164.92 C 319.78 150.20 322.67 131.61 325.98 115.98 C 329.28 100.34 309.87 91.26 306.08 76.92 C 302.28 62.59 298.83 40.49 314.08 32.08 C 329.32 23.66 345.31 37.24 353.75 49.25 C 362.19 61.25 371.18 81.53 364.67 96.67 C 358.17 111.81 357.08 130.93 354.01 147.01 C 350.93 163.09 345.08 178.46 339.07 193.07 C 333.06 207.69 326.34 219.39 316.00 231.00
C 317.18 238.93 328.93 236.19 321.25 245.25 C 313.57 254.31 302.78 261.03 294.00 268.00
C 317.06 278.96 338.93 296.18 340.93 324.07 C 342.93 351.97 314.75 375.43 287.00 373.00 Z"/>
</g>
<g fill="None" fill-opacity="0.0" stroke="#FFFFFF" stroke-opacity="0.96" stroke-width="0.3"><path d="
M 119.00 82.00 
C 118.82 80.84 121.11 81.93 120.99 84.01 C 120.87 86.10 120.06 88.71 120.00 90.00
C 127.36 114.08 128.56 143.35 136.07 166.93 C 143.59 190.51 152.31 210.98 168.00 230.00
C 165.12 233.37 162.06 237.17 159.00 240.00
C 167.91 252.15 178.63 257.98 190.31 266.69 C 201.98 275.41 220.54 275.88 233.25 280.75 C 245.96 285.61 257.39 296.07 269.77 301.23 C 282.15 306.39 298.38 314.22 299.00 329.00
C 254.71 341.27 206.38 313.32 163.01 318.01 C 119.63 322.70 87.58 362.50 105.08 403.92 C 122.57 445.35 167.97 452.28 208.00 455.00
C 217.75 454.06 229.32 454.06 239.00 455.00
C 244.65 454.78 250.35 455.00 256.00 455.00
C 263.44 453.43 274.15 453.14 283.00 454.00
C 293.90 454.28 304.54 453.42 315.00 452.00
C 319.71 461.65 327.73 468.25 336.92 474.08 C 346.12 479.90 365.11 480.38 375.32 478.32 C 385.53 476.26 396.17 468.77 402.25 461.25 C 408.33 453.73 418.44 440.02 416.00 431.00
C 416.00 431.04 415.00 431.00 415.00 431.00
C 413.50 432.00 413.47 423.48 415.00 422.00
C 415.26 421.75 416.00 422.00 416.00 422.00
C 414.03 396.86 393.44 374.64 368.00 372.00 C 342.56 369.36 315.84 385.64 310.00 411.00
C 282.07 411.46 249.19 416.17 221.67 414.33 C 194.15 412.49 169.11 417.00 148.25 395.75 C 127.38 374.51 163.25 350.71 187.00 359.00 C 210.75 367.30 239.45 370.60 265.00 373.00
C 271.92 372.33 280.14 372.34 287.00 373.00
C 314.75 375.43 342.93 351.97 340.93 324.07 C 338.93 296.18 317.06 278.96 294.00 268.00
C 302.78 261.03 313.57 254.31 321.25 245.25 C 328.93 236.19 317.18 238.93 316.00 231.00
C 326.34 219.39 333.06 207.69 339.07 193.07 C 345.08 178.46 350.93 163.09 354.01 147.01 C 357.08 130.93 358.17 111.81 364.67 96.67 C 371.18 81.53 362.19 61.25 353.75 49.25 C 345.31 37.24 329.32 23.66 314.08 32.08 C 298.83 40.49 302.28 62.59 306.08 76.92 C 309.87 91.26 329.28 100.34 325.98 115.98 C 322.67 131.61 319.78 150.20 313.92 164.92 C 308.07 179.65 303.30 192.43 294.00 205.00
C 290.83 201.59 289.56 195.43 285.00 194.00
C 269.71 227.55 219.00 230.66 202.00 197.00
C 197.37 198.08 195.18 203.75 191.00 206.00
C 183.51 195.19 179.22 185.23 173.93 173.07 C 168.63 160.92 165.87 147.79 162.33 134.67 C 158.78 121.55 155.74 106.57 166.70 97.70 C 177.65 88.83 179.65 76.09 183.00 64.00 C 186.35 51.91 180.35 32.78 167.00 30.00 C 153.65 27.22 141.42 36.84 133.75 46.75 C 126.09 56.66 120.11 69.40 119.00 82.00
M 369.00 405.00 
C 394.39 411.29 380.66 456.40 354.98 446.02 C 329.29 435.64 341.66 398.23 369.00 405.00 Z"/>
</g>
<g fill="None" fill-opacity="0.0" stroke="#FFFFFF" stroke-opacity="0.47" stroke-width="0.3"><path d="
M 119.00 82.00 
C 118.74 84.94 119.63 87.74 120.00 90.00
C 120.06 88.71 120.87 86.10 120.99 84.01 C 121.11 81.93 118.82 80.84 119.00 82.00 Z"/>
</g>
<g fill="None" fill-opacity="0.0" stroke="#FFFFFF" stroke-opacity="0.38" stroke-width="0.3"><path d="
M 265.00 373.00 
C 272.31 373.69 280.01 373.68 287.00 373.00
C 280.14 372.34 271.92 372.33 265.00 373.00 Z"/>
</g>
<g fill="None" fill-opacity="0.0" stroke="#000000" stroke-opacity="0.00" stroke-width="0.3"><path d="
M 369.00 405.00 
C 341.66 398.23 329.29 435.64 354.98 446.02 C 380.66 456.40 394.39 411.29 369.00 405.00 Z"/>
</g>
<g fill="None" fill-opacity="0.0" stroke="#FFFFFF" stroke-opacity="0.76" stroke-width="0.3"><path d="
M 415.00 431.00 
C 414.74 428.16 414.74 424.84 415.00 422.00
C 413.47 423.48 413.50 432.00 415.00 431.00 Z"/>
</g>
<g fill="None" fill-opacity="0.0" stroke="#FFFFFF" stroke-opacity="0.40" stroke-width="0.3"><path d="
M 415.00 431.00 
C 415.00 431.00 416.00 431.04 416.00 431.00
C 416.26 428.07 416.06 424.94 416.00 422.00
C 416.00 422.00 415.26 421.75 415.00 422.00
C 414.74 424.84 414.74 428.16 415.00 431.00 Z"/>
</g>
<g fill="None" fill-opacity="0.0" stroke="#FFFFFF" stroke-opacity="0.42" stroke-width="0.3"><path d="
M 256.00 455.00 
C 265.08 455.00 274.29 454.82 283.00 454.00
C 274.15 453.14 263.44 453.43 256.00 455.00 Z"/>
</g>
<g fill="None" fill-opacity="0.0" stroke="#FFFFFF" stroke-opacity="0.56" stroke-width="0.3"><path d="
M 208.00 455.00 
C 218.39 455.71 228.61 455.40 239.00 455.00
C 229.32 454.06 217.75 454.06 208.00 455.00 Z"/>
</g>
<g fill="#000000" fill-opacity="0.00" stroke="None">
<path d="
M 0.00 512.00 
L 512.00 512.00
L 512.00 0.00
L 0.00 0.00
L 0.00 512.00
M 287.00 373.00 
C 280.01 373.68 272.31 373.69 265.00 373.00
C 239.45 370.60 210.75 367.30 187.00 359.00 C 163.25 350.71 127.38 374.51 148.25 395.75 C 169.11 417.00 194.15 412.49 221.67 414.33 C 249.19 416.17 282.07 411.46 310.00 411.00
C 315.84 385.64 342.56 369.36 368.00 372.00 C 393.44 374.64 414.03 396.86 416.00 422.00
C 416.06 424.94 416.26 428.07 416.00 431.00
C 418.44 440.02 408.33 453.73 402.25 461.25 C 396.17 468.77 385.53 476.26 375.32 478.32 C 365.11 480.38 346.12 479.90 336.92 474.08 C 327.73 468.25 319.71 461.65 315.00 452.00
C 304.54 453.42 293.90 454.28 283.00 454.00
C 274.29 454.82 265.08 455.00 256.00 455.00
C 250.35 455.00 244.65 454.78 239.00 455.00
C 228.61 455.40 218.39 455.71 208.00 455.00
C 167.97 452.28 122.57 445.35 105.08 403.92 C 87.58 362.50 119.63 322.70 163.01 318.01 C 206.38 313.32 254.71 341.27 299.00 329.00
C 298.38 314.22 282.15 306.39 269.77 301.23 C 257.39 296.07 245.96 285.61 233.25 280.75 C 220.54 275.88 201.98 275.41 190.31 266.69 C 178.63 257.98 167.91 252.15 159.00 240.00
C 162.06 237.17 165.12 233.37 168.00 230.00
C 152.31 210.98 143.59 190.51 136.07 166.93 C 128.56 143.35 127.36 114.08 120.00 90.00
C 119.63 87.74 118.74 84.94 119.00 82.00
C 120.11 69.40 126.09 56.66 133.75 46.75 C 141.42 36.84 153.65 27.22 167.00 30.00 C 180.35 32.78 186.35 51.91 183.00 64.00 C 179.65 76.09 177.65 88.83 166.70 97.70 C 155.74 106.57 158.78 121.55 162.33 134.67 C 165.87 147.79 168.63 160.92 173.93 173.07 C 179.22 185.23 183.51 195.19 191.00 206.00
C 195.18 203.75 197.37 198.08 202.00 197.00
C 219.00 230.66 269.71 227.55 285.00 194.00
C 289.56 195.43 290.83 201.59 294.00 205.00
C 303.30 192.43 308.07 179.65 313.92 164.92 C 319.78 150.20 322.67 131.61 325.98 115.98 C 329.28 100.34 309.87 91.26 306.08 76.92 C 302.28 62.59 298.83 40.49 314.08 32.08 C 329.32 23.66 345.31 37.24 353.75 49.25 C 362.19 61.25 371.18 81.53 364.67 96.67 C 358.17 111.81 357.08 130.93 354.01 147.01 C 350.93 163.09 345.08 178.46 339.07 193.07 C 333.06 207.69 326.34 219.39 316.00 231.00
C 317.18 238.93 328.93 236.19 321.25 245.25 C 313.57 254.31 302.78 261.03 294.00 268.00
C 317.06 278.96 338.93 296.18 340.93 324.07 C 342.93 351.97 314.75 375.43 287.00 373.00 Z"/>
</g>
<g fill="#FFFFFF" fill-opacity="0.96" stroke="None">
<path d="
M 119.00 82.00 
C 118.82 80.84 121.11 81.93 120.99 84.01 C 120.87 86.10 120.06 88.71 120.00 90.00
C 127.36 114.08 128.56 143.35 136.07 166.93 C 143.59 190.51 152.31 210.98 168.00 230.00
C 165.12 233.37 162.06 237.17 159.00 240.00
C 167.91 252.15 178.63 257.98 190.31 266.69 C 201.98 275.41 220.54 275.88 233.25 280.75 C 245.96 285.61 257.39 296.07 269.77 301.23 C 282.15 306.39 298.38 314.22 299.00 329.00
C 254.71 341.27 206.38 313.32 163.01 318.01 C 119.63 322.70 87.58 362.50 105.08 403.92 C 122.57 445.35 167.97 452.28 208.00 455.00
C 217.75 454.06 229.32 454.06 239.00 455.00
C 244.65 454.78 250.35 455.00 256.00 455.00
C 263.44 453.43 274.15 453.14 283.00 454.00
C 293.90 454.28 304.54 453.42 315.00 452.00
C 319.71 461.65 327.73 468.25 336.92 474.08 C 346.12 479.90 365.11 480.38 375.32 478.32 C 385.53 476.26 396.17 468.77 402.25 461.25 C 408.33 453.73 418.44 440.02 416.00 431.00
C 416.00 431.04 415.00 431.00 415.00 431.00
C 413.50 432.00 413.47 423.48 415.00 422.00
C 415.26 421.75 416.00 422.00 416.00 422.00
C 414.03 396.86 393.44 374.64 368.00 372.00 C 342.56 369.36 315.84 385.64 310.00 411.00
C 282.07 411.46 249.19 416.17 221.67 414.33 C 194.15 412.49 169.11 417.00 148.25 395.75 C 127.38 374.51 163.25 350.71 187.00 359.00 C 210.75 367.30 239.45 370.60 265.00 373.00
C 271.92 372.33 280.14 372.34 287.00 373.00
C 314.75 375.43 342.93 351.97 340.93 324.07 C 338.93 296.18 317.06 278.96 294.00 268.00
C 302.78 261.03 313.57 254.31 321.25 245.25 C 328.93 236.19 317.18 238.93 316.00 231.00
C 326.34 219.39 333.06 207.69 339.07 193.07 C 345.08 178.46 350.93 163.09 354.01 147.01 C 357.08 130.93 358.17 111.81 364.67 96.67 C 371.18 81.53 362.19 61.25 353.75 49.25 C 345.31 37.24 329.32 23.66 314.08 32.08 C 298.83 40.49 302.28 62.59 306.08 76.92 C 309.87 91.26 329.28 100.34 325.98 115.98 C 322.67 131.61 319.78 150.20 313.92 164.92 C 308.07 179.65 303.30 192.43 294.00 205.00
C 290.83 201.59 289.56 195.43 285.00 194.00
C 269.71 227.55 219.00 230.66 202.00 197.00
C 197.37 198.08 195.18 203.75 191.00 206.00
C 183.51 195.19 179.22 185.23 173.93 173.07 C 168.63 160.92 165.87 147.79 162.33 134.67 C 158.78 121.55 155.74 106.57 166.70 97.70 C 177.65 88.83 179.65 76.09 183.00 64.00 C 186.35 51.91 180.35 32.78 167.00 30.00 C 153.65 27.22 141.42 36.84 133.75 46.75 C 126.09 56.66 120.11 69.40 119.00 82.00
M 369.00 405.00 
C 394.39 411.29 380.66 456.40 354.98 446.02 C 329.29 435.64 341.66 398.23 369.00 405.00 Z"/>
</g>
<g fill="#FFFFFF" fill-opacity="0.47" stroke="None">
<path d="
M 119.00 82.00 
C 118.74 84.94 119.63 87.74 120.00 90.00
C 120.06 88.71 120.87 86.10 120.99 84.01 C 121.11 81.93 118.82 80.84 119.00 82.00 Z"/>
</g>
<g fill="#FFFFFF" fill-opacity="0.38" stroke="None">
<path d="
M 265.00 373.00 
C 272.31 373.69 280.01 373.68 287.00 373.00
C 280.14 372.34 271.92 372.33 265.00 373.00 Z"/>
</g>
<g fill="#000000" fill-opacity="0.00" stroke="None">
<path d="
M 369.00 405.00 
C 341.66 398.23 329.29 435.64 354.98 446.02 C 380.66 456.40 394.39 411.29 369.00 405.00 Z"/>
</g>
<g fill="#FFFFFF" fill-opacity="0.76" stroke="None">
<path d="
M 415.00 431.00 
C 414.74 428.16 414.74 424.84 415.00 422.00
C 413.47 423.48 413.50 432.00 415.00 431.00 Z"/>
</g>
<g fill="#FFFFFF" fill-opacity="0.40" stroke="None">
<path d="
M 415.00 431.00 
C 415.00 431.00 416.00 431.04 416.00 431.00
C 416.26 428.07 416.06 424.94 416.00 422.00
C 416.00 422.00 415.26 421.75 415.00 422.00
C 414.74 424.84 414.74 428.16 415.00 431.00 Z"/>
</g>
<g fill="#FFFFFF" fill-opacity="0.42" stroke="None">
<path d="
M 256.00 455.00 
C 265.08 455.00 274.29 454.82 283.00 454.00
C 274.15 453.14 263.44 453.43 256.00 455.00 Z"/>
</g>
<g fill="#FFFFFF" fill-opacity="0.56" stroke="None">
<path d="
M 208.00 455.00 
C 218.39 455.71 228.61 455.40 239.00 455.00
C 229.32 454.06 217.75 454.06 208.00 455.00 Z"/>
</g>
</svg>