<svg xmlns="http://www.w3.org/2000/svg" xmlns:v="https://svgstorm.com"
viewBox = "0 0 512 512"
width="512"
height="512">
<g fill="None" fill-opacity="0.0" stroke="#000000" stroke-opacity="0.00" stroke-width="0.3"><path d="
M 0.00 512.00 
L 512.00 512.00
L 512.00 0.00
L 0.00 0.00
L 0.00 512.00
M 256.00 124.00 
C 252.52 124.31 248.48 124.31 245.00 124.00
C 209.29 120.86 188.89 76.96 208.31 47.31 C 227.72 17.65 272.43 17.23 292.25 46.75 C 312.07 76.27 292.16 120.82 256.00 124.00
M 199.00 229.00 
C 199.28 224.82 199.33 220.17 199.00 216.00
C 197.17 192.94 180.70 186.15 159.00 189.00 C 137.30 191.85 111.76 186.04 91.00 189.00 C 70.24 191.96 49.88 180.78 55.00 158.00 C 60.12 135.22 83.82 138.77 104.00 139.00 C 124.18 139.23 150.69 138.81 172.00 139.00 C 193.31 139.19 217.33 138.73 239.00 139.00 C 260.67 139.27 285.52 138.47 307.00 139.00 C 328.48 139.53 353.42 137.83 374.00 139.00 C 394.58 140.17 420.46 134.30 437.08 143.92 C 453.70 153.54 448.26 183.04 430.77 187.77 C 413.28 192.50 383.25 186.37 365.00 189.00 C 346.75 191.63 317.82 181.13 306.75 198.75 C 295.67 216.37 304.16 239.29 305.93 258.07 C 307.70 276.86 313.10 296.31 315.93 315.07 C 318.76 333.84 322.46 354.53 325.98 373.02 C 329.49 391.52 332.40 412.02 336.00 430.00 C 339.60 447.99 346.43 468.60 327.30 479.30 C 308.18 490.00 290.36 473.33 289.07 454.93 C 287.79 436.53 280.71 415.91 279.00 398.00 C 277.29 380.08 269.45 356.81 269.00 340.00 C 268.55 323.19 253.39 297.58 241.23 314.23 C 229.07 330.88 232.23 348.93 227.22 367.22 C 222.22 385.51 222.27 407.41 217.07 425.07 C 211.87 442.73 215.23 463.38 201.75 476.75 C 188.27 490.12 161.14 478.92 160.67 460.33 C 160.20 441.74 166.94 421.70 169.93 402.93 C 172.92 384.15 176.85 365.05 179.99 345.99 C 183.14 326.94 186.83 307.27 189.99 287.99 C 193.15 268.72 197.65 248.81 199.00 229.00 Z"/>
</g>
<g fill="None" fill-opacity="0.0" stroke="#FFFFFF" stroke-opacity="0.96" stroke-width="0.3"><path d="
M 245.00 124.00 
C 245.43 123.95 247.53 122.42 250.00 122.00 C 252.48 121.59 255.55 123.94 256.00 124.00
C 292.16 120.82 312.07 76.27 292.25 46.75 C 272.43 17.23 227.72 17.65 208.31 47.31 C 188.89 76.96 209.29 120.86 245.00 124.00 Z"/>
</g>
<g fill="None" fill-opacity="0.0" stroke="#FFFFFF" stroke-opacity="0.50" stroke-width="0.3"><path d="
M 245.00 124.00 
C 248.48 124.31 252.52 124.31 256.00 124.00
C 255.55 123.94 252.48 121.59 250.00 122.00 C 247.53 122.42 245.43 123.95 245.00 124.00 Z"/>
</g>
<g fill="None" fill-opacity="0.0" stroke="#FFFFFF" stroke-opacity="0.97" stroke-width="0.3"><path d="
M 199.00 216.00 
C 200.73 221.39 200.61 223.46 199.00 229.00
C 197.65 248.81 193.15 268.72 189.99 287.99 C 186.83 307.27 183.14 326.94 179.99 345.99 C 176.85 365.05 172.92 384.15 169.93 402.93 C 166.94 421.70 160.20 441.74 160.67 460.33 C 161.14 478.92 188.27 490.12 201.75 476.75 C 215.23 463.38 211.87 442.73 217.07 425.07 C 222.27 407.41 222.22 385.51 227.22 367.22 C 232.23 348.93 229.07 330.88 241.23 314.23 C 253.39 297.58 268.55 323.19 269.00 340.00 C 269.45 356.81 277.29 380.08 279.00 398.00 C 280.71 415.91 287.79 436.53 289.07 454.93 C 290.36 473.33 308.18 490.00 327.30 479.30 C 346.43 468.60 339.60 447.99 336.00 430.00 C 332.40 412.02 329.49 391.52 325.98 373.02 C 322.46 354.53 318.76 333.84 315.93 315.07 C 313.10 296.31 307.70 276.86 305.93 258.07 C 304.16 239.29 295.67 216.37 306.75 198.75 C 317.82 181.13 346.75 191.63 365.00 189.00 C 383.25 186.37 413.28 192.50 430.77 187.77 C 448.26 183.04 453.70 153.54 437.08 143.92 C 420.46 134.30 394.58 140.17 374.00 139.00 C 353.42 137.83 328.48 139.53 307.00 139.00 C 285.52 138.47 260.67 139.27 239.00 139.00 C 217.33 138.73 193.31 139.19 172.00 139.00 C 150.69 138.81 124.18 139.23 104.00 139.00 C 83.82 138.77 60.12 135.22 55.00 158.00 C 49.88 180.78 70.24 191.96 91.00 189.00 C 111.76 186.04 137.30 191.85 159.00 189.00 C 180.70 186.15 197.17 192.94 199.00 216.00 Z"/>
</g>
<g fill="None" fill-opacity="0.0" stroke="#FFFFFF" stroke-opacity="0.53" stroke-width="0.3"><path d="
M 199.00 229.00 
C 200.61 223.46 200.73 221.39 199.00 216.00
C 199.33 220.17 199.28 224.82 199.00 229.00 Z"/>
</g>
<g fill="#000000" fill-opacity="0.00" stroke="None">
<path d="
M 0.00 512.00 
L 512.00 512.00
L 512.00 0.00
L 0.00 0.00
L 0.00 512.00
M 256.00 124.00 
C 252.52 124.31 248.48 124.31 245.00 124.00
C 209.29 120.86 188.89 76.96 208.31 47.31 C 227.72 17.65 272.43 17.23 292.25 46.75 C 312.07 76.27 292.16 120.82 256.00 124.00
M 199.00 229.00 
C 199.28 224.82 199.33 220.17 199.00 216.00
C 197.17 192.94 180.70 186.15 159.00 189.00 C 137.30 191.85 111.76 186.04 91.00 189.00 C 70.24 191.96 49.88 180.78 55.00 158.00 C 60.12 135.22 83.82 138.77 104.00 139.00 C 124.18 139.23 150.69 138.81 172.00 139.00 C 193.31 139.19 217.33 138.73 239.00 139.00 C 260.67 139.27 285.52 138.47 307.00 139.00 C 328.48 139.53 353.42 137.83 374.00 139.00 C 394.58 140.17 420.46 134.30 437.08 143.92 C 453.70 153.54 448.26 183.04 430.77 187.77 C 413.28 192.50 383.25 186.37 365.00 189.00 C 346.75 191.63 317.82 181.13 306.75 198.75 C 295.67 216.37 304.16 239.29 305.93 258.07 C 307.70 276.86 313.10 296.31 315.93 315.07 C 318.76 333.84 322.46 354.53 325.98 373.02 C 329.49 391.52 332.40 412.02 336.00 430.00 C 339.60 447.99 346.43 468.60 327.30 479.30 C 308.18 490.00 290.36 473.33 289.07 454.93 C 287.79 436.53 280.71 415.91 279.00 398.00 C 277.29 380.08 269.45 356.81 269.00 340.00 C 268.55 323.19 253.39 297.58 241.23 314.23 C 229.07 330.88 232.23 348.93 227.22 367.22 C 222.22 385.51 222.27 407.41 217.07 425.07 C 211.87 442.73 215.23 463.38 201.75 476.75 C 188.27 490.12 161.14 478.92 160.67 460.33 C 160.20 441.74 166.94 421.70 169.93 402.93 C 172.92 384.15 176.85 365.05 179.99 345.99 C 183.14 326.94 186.83 307.27 189.99 287.99 C 193.15 268.72 197.65 248.81 199.00 229.00 Z"/>
</g>
<g fill="#FFFFFF" fill-opacity="0.96" stroke="None">
<path d="
M 245.00 124.00 
C 245.43 123.95 247.53 122.42 250.00 122.00 C 252.48 121.59 255.55 123.94 256.00 124.00
C 292.16 120.82 312.07 76.27 292.25 46.75 C 272.43 17.23 227.72 17.65 208.31 47.31 C 188.89 76.96 209.29 120.86 245.00 124.00 Z"/>
</g>
<g fill="#FFFFFF" fill-opacity="0.50" stroke="None">
<path d="
M 245.00 124.00 
C 248.48 124.31 252.52 124.31 256.00 124.00
C 255.55 123.94 252.48 121.59 250.00 122.00 C 247.53 122.42 245.43 123.95 245.00 124.00 Z"/>
</g>
<g fill="#FFFFFF" fill-opacity="0.97" stroke="None">
<path d="
M 199.00 216.00 
C 200.73 221.39 200.61 223.46 199.00 229.00
C 197.65 248.81 193.15 268.72 189.99 287.99 C 186.83 307.27 183.14 326.94 179.99 345.99 C 176.85 365.05 172.92 384.15 169.93 402.93 C 166.94 421.70 160.20 441.74 160.67 460.33 C 161.14 478.92 188.27 490.12 201.75 476.75 C 215.23 463.38 211.87 442.73 217.07 425.07 C 222.27 407.41 222.22 385.51 227.22 367.22 C 232.23 348.93 229.07 330.88 241.23 314.23 C 253.39 297.58 268.55 323.19 269.00 340.00 C 269.45 356.81 277.29 380.08 279.00 398.00 C 280.71 415.91 287.79 436.53 289.07 454.93 C 290.36 473.33 308.18 490.00 327.30 479.30 C 346.43 468.60 339.60 447.99 336.00 430.00 C 332.40 412.02 329.49 391.52 325.98 373.02 C 322.46 354.53 318.76 333.84 315.93 315.07 C 313.10 296.31 307.70 276.86 305.93 258.07 C 304.16 239.29 295.67 216.37 306.75 198.75 C 317.82 181.13 346.75 191.63 365.00 189.00 C 383.25 186.37 413.28 192.50 430.77 187.77 C 448.26 183.04 453.70 153.54 437.08 143.92 C 420.46 134.30 394.58 140.17 374.00 139.00 C 353.42 137.83 328.48 139.53 307.00 139.00 C 285.52 138.47 260.67 139.27 239.00 139.00 C 217.33 138.73 193.31 139.19 172.00 139.00 C 150.69 138.81 124.18 139.23 104.00 139.00 C 83.82 138.77 60.12 135.22 55.00 158.00 C 49.88 180.78 70.24 191.96 91.00 189.00 C 111.76 186.04 137.30 191.85 159.00 189.00 C 180.70 186.15 197.17 192.94 199.00 216.00 Z"/>
</g>
<g fill="#FFFFFF" fill-opacity="0.53" stroke="None">
<path d="
M 199.00 229.00 
C 200.61 223.46 200.73 221.39 199.00 216.00
C 199.33 220.17 199.28 224.82 199.00 229.00 Z"/>
</g>
</svg>