<svg xmlns="http://www.w3.org/2000/svg" xmlns:v="https://svgstorm.com"
viewBox = "0 0 256 256"
width="256"
height="256">
<g fill="None" fill-opacity="0.0" stroke="#000000" stroke-opacity="0.00" stroke-width="0.3"><path d="
M 0.00 256.00 
L 256.00 256.00
L 256.00 0.00
L 0.00 0.00
L 0.00 256.00
M 179.00 182.00 
C 178.84 181.66 178.04 181.22 178.00 181.00
C 174.13 202.35 176.65 223.05 178.00 244.00
C 142.33 244.00 106.67 244.00 71.00 244.00
C 72.01 223.24 75.79 202.17 71.00 181.00
C 71.00 181.02 70.00 181.00 70.00 181.00
C 68.80 191.18 63.86 199.79 63.00 210.00 C 62.14 220.21 62.50 231.13 57.07 240.07 C 51.65 249.02 34.22 241.53 25.00 244.00
C 29.72 233.84 23.96 220.45 30.93 210.93 C 37.89 201.41 39.28 192.17 39.00 180.00 C 38.72 167.83 42.37 158.66 39.07 146.93 C 35.78 135.20 41.85 124.98 45.77 114.77 C 49.69 104.56 60.08 102.14 70.00 100.00 C 79.92 97.87 86.97 92.05 97.69 88.69 C 108.41 85.34 101.34 66.74 98.22 59.78 C 95.11 52.81 83.14 37.34 96.00 35.00
C 83.62 -3.95 164.73 -3.87 152.00 35.00
C 166.10 37.68 151.94 52.06 149.07 59.07 C 146.20 66.09 138.85 83.78 149.08 87.92 C 159.30 92.07 168.08 96.22 177.67 99.33 C 187.27 102.44 198.38 103.12 202.77 113.23 C 207.16 123.34 212.71 133.13 210.00 145.00 C 207.29 156.87 209.79 166.76 210.00 179.00 C 210.21 191.24 210.42 200.67 217.77 210.23 C 225.12 219.79 219.54 233.58 224.00 244.00
C 214.00 244.00 204.00 244.00 194.00 244.00
C 184.20 224.75 187.01 201.88 179.00 182.00
M 175.00 71.00 
C 185.12 69.91 192.62 72.45 203.00 71.00 C 213.38 69.55 214.89 83.22 204.00 82.00 C 193.11 80.78 185.59 82.91 175.00 82.00
C 179.02 84.54 187.40 96.41 178.92 97.92 C 170.44 99.42 169.79 88.34 162.75 85.25 C 155.71 82.16 156.28 72.10 162.75 68.75 C 169.23 65.41 169.35 54.36 178.01 55.01 C 186.66 55.66 180.20 68.59 175.00 71.00 Z"/>
</g>
<g fill="None" fill-opacity="0.0" stroke="#FFFFFF" stroke-opacity="0.98" stroke-width="0.3"><path d="
M 70.00 181.00 
C 68.95 179.62 68.66 177.69 71.00 177.00
C 71.00 178.33 71.00 179.67 71.00 181.00
C 75.79 202.17 72.01 223.24 71.00 244.00
C 106.67 244.00 142.33 244.00 178.00 244.00
C 176.65 223.05 174.13 202.35 178.00 181.00
C 177.73 179.44 177.61 176.54 180.00 177.00
C 179.61 178.57 180.94 181.22 179.00 182.00
C 187.01 201.88 184.20 224.75 194.00 244.00
C 204.00 244.00 214.00 244.00 224.00 244.00
C 219.54 233.58 225.12 219.79 217.77 210.23 C 210.42 200.67 210.21 191.24 210.00 179.00 C 209.79 166.76 207.29 156.87 210.00 145.00 C 212.71 133.13 207.16 123.34 202.77 113.23 C 198.38 103.12 187.27 102.44 177.67 99.33 C 168.08 96.22 159.30 92.07 149.08 87.92 C 138.85 83.78 146.20 66.09 149.07 59.07 C 151.94 52.06 166.10 37.68 152.00 35.00
C 164.73 -3.87 83.62 -3.95 96.00 35.00
C 83.14 37.34 95.11 52.81 98.22 59.78 C 101.34 66.74 108.41 85.34 97.69 88.69 C 86.97 92.05 79.92 97.87 70.00 100.00 C 60.08 102.14 49.69 104.56 45.77 114.77 C 41.85 124.98 35.78 135.20 39.07 146.93 C 42.37 158.66 38.72 167.83 39.00 180.00 C 39.28 192.17 37.89 201.41 30.93 210.93 C 23.96 220.45 29.72 233.84 25.00 244.00
C 34.22 241.53 51.65 249.02 57.07 240.07 C 62.50 231.13 62.14 220.21 63.00 210.00 C 63.86 199.79 68.80 191.18 70.00 181.00 Z"/>
</g>
<g fill="None" fill-opacity="0.0" stroke="#FEFEFE" stroke-opacity="0.89" stroke-width="0.3"><path d="
M 175.00 71.00 
C 180.20 68.59 186.66 55.66 178.01 55.01 C 169.35 54.36 169.23 65.41 162.75 68.75 C 156.28 72.10 155.71 82.16 162.75 85.25 C 169.79 88.34 170.44 99.42 178.92 97.92 C 187.40 96.41 179.02 84.54 175.00 82.00
C 185.59 82.91 193.11 80.78 204.00 82.00 C 214.89 83.22 213.38 69.55 203.00 71.00 C 192.62 72.45 185.12 69.91 175.00 71.00 Z"/>
</g>
<g fill="None" fill-opacity="0.0" stroke="#FFFFFF" stroke-opacity="0.42" stroke-width="0.3"><path d="
M 70.00 181.00 
C 70.00 181.00 71.00 181.02 71.00 181.00
C 71.00 179.67 71.00 178.33 71.00 177.00
C 68.66 177.69 68.95 179.62 70.00 181.00 Z"/>
</g>
<g fill="None" fill-opacity="0.0" stroke="#FFFFFF" stroke-opacity="0.41" stroke-width="0.3"><path d="
M 178.00 181.00 
C 178.04 181.22 178.84 181.66 179.00 182.00
C 180.94 181.22 179.61 178.57 180.00 177.00
C 177.61 176.54 177.73 179.44 178.00 181.00 Z"/>
</g>
<g fill="#000000" fill-opacity="0.00" stroke="None">
<path d="
M 0.00 256.00 
L 256.00 256.00
L 256.00 0.00
L 0.00 0.00
L 0.00 256.00
M 179.00 182.00 
C 178.84 181.66 178.04 181.22 178.00 181.00
C 174.13 202.35 176.65 223.05 178.00 244.00
C 142.33 244.00 106.67 244.00 71.00 244.00
C 72.01 223.24 75.79 202.17 71.00 181.00
C 71.00 181.02 70.00 181.00 70.00 181.00
C 68.80 191.18 63.86 199.79 63.00 210.00 C 62.14 220.21 62.50 231.13 57.07 240.07 C 51.65 249.02 34.22 241.53 25.00 244.00
C 29.72 233.84 23.96 220.45 30.93 210.93 C 37.89 201.41 39.28 192.17 39.00 180.00 C 38.72 167.83 42.37 158.66 39.07 146.93 C 35.78 135.20 41.85 124.98 45.77 114.77 C 49.69 104.56 60.08 102.14 70.00 100.00 C 79.92 97.87 86.97 92.05 97.69 88.69 C 108.41 85.34 101.34 66.74 98.22 59.78 C 95.11 52.81 83.14 37.34 96.00 35.00
C 83.62 -3.95 164.73 -3.87 152.00 35.00
C 166.10 37.68 151.94 52.06 149.07 59.07 C 146.20 66.09 138.85 83.78 149.08 87.92 C 159.30 92.07 168.08 96.22 177.67 99.33 C 187.27 102.44 198.38 103.12 202.77 113.23 C 207.16 123.34 212.71 133.13 210.00 145.00 C 207.29 156.87 209.79 166.76 210.00 179.00 C 210.21 191.24 210.42 200.67 217.77 210.23 C 225.12 219.79 219.54 233.58 224.00 244.00
C 214.00 244.00 204.00 244.00 194.00 244.00
C 184.20 224.75 187.01 201.88 179.00 182.00
M 175.00 71.00 
C 185.12 69.91 192.62 72.45 203.00 71.00 C 213.38 69.55 214.89 83.22 204.00 82.00 C 193.11 80.78 185.59 82.91 175.00 82.00
C 179.02 84.54 187.40 96.41 178.92 97.92 C 170.44 99.42 169.79 88.34 162.75 85.25 C 155.71 82.16 156.28 72.10 162.75 68.75 C 169.23 65.41 169.35 54.36 178.01 55.01 C 186.66 55.66 180.20 68.59 175.00 71.00 Z"/>
</g>
<g fill="#FFFFFF" fill-opacity="0.98" stroke="None">
<path d="
M 70.00 181.00 
C 68.95 179.62 68.66 177.69 71.00 177.00
C 71.00 178.33 71.00 179.67 71.00 181.00
C 75.79 202.17 72.01 223.24 71.00 244.00
C 106.67 244.00 142.33 244.00 178.00 244.00
C 176.65 223.05 174.13 202.35 178.00 181.00
C 177.73 179.44 177.61 176.54 180.00 177.00
C 179.61 178.57 180.94 181.22 179.00 182.00
C 187.01 201.88 184.20 224.75 194.00 244.00
C 204.00 244.00 214.00 244.00 224.00 244.00
C 219.54 233.58 225.12 219.79 217.77 210.23 C 210.42 200.67 210.21 191.24 210.00 179.00 C 209.79 166.76 207.29 156.87 210.00 145.00 C 212.71 133.13 207.16 123.34 202.77 113.23 C 198.38 103.12 187.27 102.44 177.67 99.33 C 168.08 96.22 159.30 92.07 149.08 87.92 C 138.85 83.78 146.20 66.09 149.07 59.07 C 151.94 52.06 166.10 37.68 152.00 35.00
C 164.73 -3.87 83.62 -3.95 96.00 35.00
C 83.14 37.34 95.11 52.81 98.22 59.78 C 101.34 66.74 108.41 85.34 97.69 88.69 C 86.97 92.05 79.92 97.87 70.00 100.00 C 60.08 102.14 49.69 104.56 45.77 114.77 C 41.85 124.98 35.78 135.20 39.07 146.93 C 42.37 158.66 38.72 167.83 39.00 180.00 C 39.28 192.17 37.89 201.41 30.93 210.93 C 23.96 220.45 29.72 233.84 25.00 244.00
C 34.22 241.53 51.65 249.02 57.07 240.07 C 62.50 231.13 62.14 220.21 63.00 210.00 C 63.86 199.79 68.80 191.18 70.00 181.00 Z"/>
</g>
<g fill="#FEFEFE" fill-opacity="0.89" stroke="None">
<path d="
M 175.00 71.00 
C 180.20 68.59 186.66 55.66 178.01 55.01 C 169.35 54.36 169.23 65.41 162.75 68.75 C 156.28 72.10 155.71 82.16 162.75 85.25 C 169.79 88.34 170.44 99.42 178.92 97.92 C 187.40 96.41 179.02 84.54 175.00 82.00
C 185.59 82.91 193.11 80.78 204.00 82.00 C 214.89 83.22 213.38 69.55 203.00 71.00 C 192.62 72.45 185.12 69.91 175.00 71.00 Z"/>
</g>
<g fill="#FFFFFF" fill-opacity="0.42" stroke="None">
<path d="
M 70.00 181.00 
C 70.00 181.00 71.00 181.02 71.00 181.00
C 71.00 179.67 71.00 178.33 71.00 177.00
C 68.66 177.69 68.95 179.62 70.00 181.00 Z"/>
</g>
<g fill="#FFFFFF" fill-opacity="0.41" stroke="None">
<path d="
M 178.00 181.00 
C 178.04 181.22 178.84 181.66 179.00 182.00
C 180.94 181.22 179.61 178.57 180.00 177.00
C 177.61 176.54 177.73 179.44 178.00 181.00 Z"/>
</g>
</svg>