<svg xmlns="http://www.w3.org/2000/svg" xmlns:v="https://svgstorm.com"
viewBox = "0 0 512 512"
width="512"
height="512">
<g fill="None" fill-opacity="0.0" stroke="#000000" stroke-opacity="0.00" stroke-width="0.3"><path d="
M 0.00 512.00 
L 512.00 512.00
L 512.00 0.00
L 0.00 0.00
L 0.00 512.00
M 178.00 64.00 
C 177.78 64.57 176.05 63.66 177.27 62.25 C 178.49 60.83 180.00 61.00 180.00 61.00
C 191.01 52.74 198.96 38.77 213.00 35.00
C 210.90 32.59 215.12 31.19 217.00 31.00
C 216.76 32.88 214.45 32.46 214.00 34.00
C 220.84 28.49 230.55 28.65 239.01 26.01 C 247.47 23.37 261.08 24.81 270.00 25.00 C 278.92 25.19 287.33 30.56 295.23 32.77 C 303.13 34.98 310.19 43.07 316.00 42.00
C 319.75 49.33 326.99 53.65 332.75 61.25 C 338.51 68.85 342.94 75.83 346.92 85.08 C 350.91 94.32 353.25 105.29 354.00 116.00 C 354.75 126.71 352.87 140.71 350.22 150.22 C 347.58 159.74 340.49 169.02 342.00 175.00
C 330.38 184.10 322.93 196.88 308.30 205.30 C 293.68 213.73 274.85 220.90 256.99 220.99 C 239.14 221.08 219.99 214.28 205.25 205.75 C 190.51 197.21 182.64 184.32 171.00 175.00
C 172.53 168.02 165.73 161.47 163.22 152.78 C 160.71 144.09 158.80 132.89 159.00 123.00 C 159.20 113.11 159.96 101.92 162.98 92.98 C 166.00 84.03 171.04 77.69 172.00 69.00
C 174.23 73.07 175.61 65.44 178.00 64.00
M 158.00 111.00 
C 158.00 118.67 158.00 126.33 158.00 134.00
C 156.36 127.41 156.31 117.52 158.00 111.00
M 356.00 111.00 
C 356.00 118.67 356.00 126.33 356.00 134.00
C 354.36 127.41 354.32 117.52 356.00 111.00
M 199.00 228.00 
C 200.98 230.01 201.06 230.27 202.00 234.00
C 211.74 250.14 220.00 267.38 228.64 281.70 C 237.29 296.01 244.90 317.66 254.00 333.00
C 275.74 295.48 297.66 257.35 318.00 219.00
C 346.22 234.78 366.06 265.72 372.00 297.00
C 362.01 297.91 353.19 306.42 351.00 316.00
C 350.92 317.90 353.09 320.71 352.00 323.00
C 349.80 322.26 352.31 318.67 350.00 318.00
C 348.68 333.00 354.71 348.28 370.22 352.78 C 385.74 357.27 403.55 348.70 404.00 333.00
C 407.62 338.03 407.94 325.17 407.02 319.98 C 406.11 314.79 403.80 307.05 398.75 303.25 C 393.70 299.44 387.84 295.49 381.00 296.00
C 378.87 287.24 375.48 278.06 372.23 269.77 C 368.98 261.49 363.91 254.84 359.75 247.25 C 355.58 239.67 346.75 237.90 346.00 230.00
C 352.08 232.34 358.95 237.44 364.70 240.30 C 370.44 243.17 376.34 251.15 381.00 249.00
C 388.98 261.28 404.79 271.16 414.00 284.00
C 413.66 283.78 413.55 282.40 415.77 284.24 C 417.99 286.08 416.15 287.38 416.00 287.00
C 422.84 295.55 430.24 305.47 435.00 315.00
C 435.47 315.51 440.28 318.81 440.00 322.00
C 438.75 321.70 438.29 320.17 437.00 320.00
C 443.54 333.34 448.35 346.51 452.33 360.67 C 456.31 374.83 460.99 391.97 450.23 403.23 C 439.47 414.49 433.49 421.50 425.00 432.00
C 422.31 428.56 419.08 434.96 415.75 436.75 C 412.42 438.55 407.85 441.54 405.00 444.00
C 403.80 445.18 404.74 445.64 402.92 446.92 C 401.09 448.19 400.97 446.01 401.00 446.00
C 387.75 454.91 369.52 463.07 354.00 466.00
C 354.30 466.05 355.90 467.47 356.00 468.00
C 352.75 467.73 350.28 470.27 347.00 470.00
C 347.88 467.93 351.04 468.79 352.00 467.00
C 309.55 481.45 260.33 479.92 215.00 477.00
C 215.00 451.00 215.00 425.00 215.00 399.00
C 207.33 399.00 199.67 399.00 192.00 399.00
C 192.00 421.33 192.00 443.67 192.00 466.00
C 164.95 469.33 140.64 462.09 118.00 450.00
C 133.40 447.95 144.90 435.70 155.25 424.25 C 165.60 412.80 176.64 403.93 186.75 392.75 C 196.87 381.58 206.77 371.04 218.00 361.00
C 208.40 347.06 192.64 337.55 182.00 324.00
C 165.46 340.76 147.79 355.28 131.75 372.75 C 115.71 390.22 92.32 405.15 88.00 429.00
C 83.25 421.77 71.94 421.08 71.01 410.99 C 70.08 400.91 71.48 386.84 71.00 376.00 C 70.52 365.16 71.36 352.05 71.00 341.00
C 91.67 341.00 112.33 341.00 133.00 341.00
C 133.00 334.67 133.00 328.33 133.00 322.00
C 113.33 322.00 93.67 322.00 74.00 322.00
C 75.76 315.16 81.48 309.86 81.00 303.00
C 84.22 305.58 91.47 293.36 90.00 289.00
C 91.95 286.73 94.90 288.43 96.00 285.00
C 95.25 286.41 95.72 279.90 98.00 279.00
C 99.86 279.46 98.16 281.04 98.00 282.00
C 119.26 248.48 160.97 229.78 194.00 219.00
C 195.17 222.06 197.02 225.49 199.00 228.00
M 381.00 304.00 
C 406.94 306.83 402.27 348.41 376.00 345.00 C 349.73 341.59 355.13 301.18 381.00 304.00
M 127.00 327.00 
C 127.00 330.33 127.00 333.67 127.00 337.00
C 106.00 337.00 85.00 337.00 64.00 337.00
C 64.00 381.67 64.00 426.33 64.00 471.00
C 108.67 471.00 153.33 471.00 198.00 471.00
C 198.00 448.33 198.00 425.67 198.00 403.00
C 201.33 403.00 204.67 403.00 208.00 403.00
C 208.00 429.00 208.00 455.00 208.00 481.00
C 156.67 481.00 105.33 481.00 54.00 481.00
C 54.00 429.67 54.00 378.33 54.00 327.00
C 78.33 327.00 102.67 327.00 127.00 327.00
M 181.00 334.00 
C 188.84 342.66 197.38 351.22 206.00 359.00
C 203.09 364.35 197.35 370.13 192.00 373.00
C 185.46 363.98 176.01 354.51 167.00 348.00
C 170.49 343.37 176.21 338.17 181.00 334.00
M 164.00 352.00 
C 171.93 360.12 179.78 369.90 189.00 376.00
C 184.14 383.42 175.81 390.90 169.25 397.25 C 162.68 403.60 155.39 412.08 148.75 417.75 C 142.12 423.43 134.77 437.53 127.25 430.75 C 119.73 423.98 113.75 416.27 106.00 410.00
C 123.53 389.98 144.00 369.50 164.00 352.00
M 126.00 440.00 
C 111.98 443.78 98.52 449.56 85.00 455.00
C 89.14 440.78 95.81 427.28 100.00 413.00
C 108.18 420.98 119.87 430.69 126.00 440.00
M 227.00 479.00 
C 223.82 481.09 218.60 479.93 215.00 479.00
C 218.03 477.38 222.97 480.01 227.00 479.00
M 295.00 479.00 
C 292.90 481.08 288.85 479.50 286.00 480.00
C 288.10 477.92 292.15 479.50 295.00 479.00
M 244.00 480.00 
C 240.25 482.22 234.51 480.41 230.00 481.00
C 233.75 478.78 239.49 480.59 244.00 480.00
M 283.00 480.00 
C 279.25 482.22 273.51 480.41 269.00 481.00
C 272.75 478.78 278.49 480.59 283.00 480.00 Z"/>
</g>
<g fill="None" fill-opacity="0.0" stroke="#FEFEFE" stroke-opacity="0.98" stroke-width="0.3"><path d="
M 214.00 34.00 
C 212.57 35.80 214.24 34.67 213.00 35.00
C 198.96 38.77 191.01 52.74 180.00 61.00
C 178.78 62.92 179.14 62.57 178.00 64.00
C 175.61 65.44 174.23 73.07 172.00 69.00
C 171.04 77.69 166.00 84.03 162.98 92.98 C 159.96 101.92 159.20 113.11 159.00 123.00 C 158.80 132.89 160.71 144.09 163.22 152.78 C 165.73 161.47 172.53 168.02 171.00 175.00
C 182.64 184.32 190.51 197.21 205.25 205.75 C 219.99 214.28 239.14 221.08 256.99 220.99 C 274.85 220.90 293.68 213.73 308.30 205.30 C 322.93 196.88 330.38 184.10 342.00 175.00
C 340.49 169.02 347.58 159.74 350.22 150.22 C 352.87 140.71 354.75 126.71 354.00 116.00 C 353.25 105.29 350.91 94.32 346.92 85.08 C 342.94 75.83 338.51 68.85 332.75 61.25 C 326.99 53.65 319.75 49.33 316.00 42.00
C 310.19 43.07 303.13 34.98 295.23 32.77 C 287.33 30.56 278.92 25.19 270.00 25.00 C 261.08 24.81 247.47 23.37 239.01 26.01 C 230.55 28.65 220.84 28.49 214.00 34.00 Z"/>
</g>
<g fill="None" fill-opacity="0.0" stroke="#B6B6B6" stroke-opacity="0.09" stroke-width="0.3"><path d="
M 213.00 35.00 
C 214.24 34.67 212.57 35.80 214.00 34.00
C 214.45 32.46 216.76 32.88 217.00 31.00
C 215.12 31.19 210.90 32.59 213.00 35.00 Z"/>
</g>
<g fill="None" fill-opacity="0.0" stroke="#949494" stroke-opacity="0.09" stroke-width="0.3"><path d="
M 178.00 64.00 
C 179.14 62.57 178.78 62.92 180.00 61.00
C 180.00 61.00 178.49 60.83 177.27 62.25 C 176.05 63.66 177.78 64.57 178.00 64.00 Z"/>
</g>
<g fill="None" fill-opacity="0.0" stroke="#FFFFFF" stroke-opacity="0.00" stroke-width="0.3"><path d="
M 158.00 111.00 
C 156.31 117.52 156.36 127.41 158.00 134.00
C 158.00 126.33 158.00 118.67 158.00 111.00 Z"/>
</g>
<g fill="None" fill-opacity="0.0" stroke="#FFFFFF" stroke-opacity="0.00" stroke-width="0.3"><path d="
M 356.00 111.00 
C 354.32 117.52 354.36 127.41 356.00 134.00
C 356.00 126.33 356.00 118.67 356.00 111.00 Z"/>
</g>
<g fill="None" fill-opacity="0.0" stroke="#FEFEFE" stroke-opacity="0.98" stroke-width="0.3"><path d="
M 98.00 282.00 
C 97.50 284.54 97.42 283.60 96.00 285.00
C 94.90 288.43 91.95 286.73 90.00 289.00
C 91.47 293.36 84.22 305.58 81.00 303.00
C 81.48 309.86 75.76 315.16 74.00 322.00
C 93.67 322.00 113.33 322.00 133.00 322.00
C 133.00 328.33 133.00 334.67 133.00 341.00
C 112.33 341.00 91.67 341.00 71.00 341.00
C 71.36 352.05 70.52 365.16 71.00 376.00 C 71.48 386.84 70.08 400.91 71.01 410.99 C 71.94 421.08 83.25 421.77 88.00 429.00
C 92.32 405.15 115.71 390.22 131.75 372.75 C 147.79 355.28 165.46 340.76 182.00 324.00
C 192.64 337.55 208.40 347.06 218.00 361.00
C 206.77 371.04 196.87 381.58 186.75 392.75 C 176.64 403.93 165.60 412.80 155.25 424.25 C 144.90 435.70 133.40 447.95 118.00 450.00
C 140.64 462.09 164.95 469.33 192.00 466.00
C 192.00 443.67 192.00 421.33 192.00 399.00
C 199.67 399.00 207.33 399.00 215.00 399.00
C 215.00 425.00 215.00 451.00 215.00 477.00
C 260.33 479.92 309.55 481.45 352.00 467.00
C 352.88 466.44 352.72 466.24 354.00 466.00
C 369.52 463.07 387.75 454.91 401.00 446.00
C 402.87 444.74 403.96 444.60 405.00 444.00
C 407.85 441.54 412.42 438.55 415.75 436.75 C 419.08 434.96 422.31 428.56 425.00 432.00
C 433.49 421.50 439.47 414.49 450.23 403.23 C 460.99 391.97 456.31 374.83 452.33 360.67 C 448.35 346.51 443.54 333.34 437.00 320.00
C 436.20 318.38 435.76 316.52 435.00 315.00
C 430.24 305.47 422.84 295.55 416.00 287.00
C 415.00 285.75 415.19 285.87 414.00 284.00
C 404.79 271.16 388.98 261.28 381.00 249.00
C 376.34 251.15 370.44 243.17 364.70 240.30 C 358.95 237.44 352.08 232.34 346.00 230.00
C 346.75 237.90 355.58 239.67 359.75 247.25 C 363.91 254.84 368.98 261.49 372.23 269.77 C 375.48 278.06 378.87 287.24 381.00 296.00
C 387.84 295.49 393.70 299.44 398.75 303.25 C 403.80 307.05 406.11 314.79 407.02 319.98 C 407.94 325.17 407.62 338.03 404.00 333.00
C 403.55 348.70 385.74 357.27 370.22 352.78 C 354.71 348.28 348.68 333.00 350.00 318.00
C 350.23 315.34 349.90 317.95 351.00 316.00
C 353.19 306.42 362.01 297.91 372.00 297.00
C 366.06 265.72 346.22 234.78 318.00 219.00
C 297.66 257.35 275.74 295.48 254.00 333.00
C 244.90 317.66 237.29 296.01 228.64 281.70 C 220.00 267.38 211.74 250.14 202.00 234.00
C 201.26 232.77 200.19 230.48 199.00 228.00
C 197.02 225.49 195.17 222.06 194.00 219.00
C 160.97 229.78 119.26 248.48 98.00 282.00
M 338.00 395.00 
C 336.91 399.58 323.56 395.73 318.00 397.00
C 315.70 401.75 320.99 411.73 318.00 416.00
C 316.61 417.98 303.34 417.91 302.00 416.00
C 299.01 411.74 304.30 401.75 302.00 397.00
C 296.48 395.67 283.11 399.67 282.00 395.00
C 280.87 390.27 282.85 384.80 282.00 380.00
C 288.67 380.00 295.33 380.00 302.00 380.00
C 302.00 373.33 302.00 366.67 302.00 360.00
C 307.33 360.00 312.67 360.00 318.00 360.00
C 318.00 366.67 318.00 373.33 318.00 380.00
C 324.67 380.00 331.33 380.00 338.00 380.00
C 338.00 385.00 338.00 390.00 338.00 395.00 Z"/>
</g>
<g fill="None" fill-opacity="0.0" stroke="#808080" stroke-opacity="0.05" stroke-width="0.3"><path d="
M 199.00 228.00 
C 200.19 230.48 201.26 232.77 202.00 234.00
C 201.06 230.27 200.98 230.01 199.00 228.00 Z"/>
</g>
<g fill="None" fill-opacity="0.0" stroke="#949494" stroke-opacity="0.06" stroke-width="0.3"><path d="
M 96.00 285.00 
C 97.42 283.60 97.50 284.54 98.00 282.00
C 98.16 281.04 99.86 279.46 98.00 279.00
C 95.72 279.90 95.25 286.41 96.00 285.00 Z"/>
</g>
<g fill="None" fill-opacity="0.0" stroke="#9E9E9E" stroke-opacity="0.08" stroke-width="0.3"><path d="
M 414.00 284.00 
C 415.19 285.87 415.00 285.75 416.00 287.00
C 416.15 287.38 417.99 286.08 415.77 284.24 C 413.55 282.40 413.66 283.78 414.00 284.00 Z"/>
</g>
<g fill="None" fill-opacity="0.0" stroke="#FFFFFF" stroke-opacity="0.93" stroke-width="0.3"><path d="
M 381.00 304.00 
C 355.13 301.18 349.73 341.59 376.00 345.00 C 402.27 348.41 406.94 306.83 381.00 304.00 Z"/>
</g>
<g fill="None" fill-opacity="0.0" stroke="#8C8C8C" stroke-opacity="0.00" stroke-width="0.3"><path d="
M 435.00 315.00 
C 435.76 316.52 436.20 318.38 437.00 320.00
C 438.29 320.17 438.75 321.70 440.00 322.00
C 440.28 318.81 435.47 315.51 435.00 315.00 Z"/>
</g>
<g fill="None" fill-opacity="0.0" stroke="#DADADA" stroke-opacity="0.09" stroke-width="0.3"><path d="
M 350.00 318.00 
C 352.31 318.67 349.80 322.26 352.00 323.00
C 353.09 320.71 350.92 317.90 351.00 316.00
C 349.90 317.95 350.23 315.34 350.00 318.00 Z"/>
</g>
<g fill="None" fill-opacity="0.0" stroke="#FFFFFF" stroke-opacity="0.91" stroke-width="0.3"><path d="
M 127.00 327.00 
C 102.67 327.00 78.33 327.00 54.00 327.00
C 54.00 378.33 54.00 429.67 54.00 481.00
C 105.33 481.00 156.67 481.00 208.00 481.00
C 208.00 455.00 208.00 429.00 208.00 403.00
C 204.67 403.00 201.33 403.00 198.00 403.00
C 198.00 425.67 198.00 448.33 198.00 471.00
C 153.33 471.00 108.67 471.00 64.00 471.00
C 64.00 426.33 64.00 381.67 64.00 337.00
C 85.00 337.00 106.00 337.00 127.00 337.00
C 127.00 333.67 127.00 330.33 127.00 327.00 Z"/>
</g>
<g fill="None" fill-opacity="0.0" stroke="#FFFFFF" stroke-opacity="0.94" stroke-width="0.3"><path d="
M 181.00 334.00 
C 176.21 338.17 170.49 343.37 167.00 348.00
C 176.01 354.51 185.46 363.98 192.00 373.00
C 197.35 370.13 203.09 364.35 206.00 359.00
C 197.38 351.22 188.84 342.66 181.00 334.00 Z"/>
</g>
<g fill="None" fill-opacity="0.0" stroke="#FFFFFF" stroke-opacity="0.96" stroke-width="0.3"><path d="
M 164.00 352.00 
C 144.00 369.50 123.53 389.98 106.00 410.00
C 113.75 416.27 119.73 423.98 127.25 430.75 C 134.77 437.53 142.12 423.43 148.75 417.75 C 155.39 412.08 162.68 403.60 169.25 397.25 C 175.81 390.90 184.14 383.42 189.00 376.00
C 179.78 369.90 171.93 360.12 164.00 352.00 Z"/>
</g>
<g fill="None" fill-opacity="0.0" stroke="#000000" stroke-opacity="0.00" stroke-width="0.3"><path d="
M 282.00 395.00 
C 285.54 393.24 300.75 394.42 302.00 397.00
C 304.30 401.75 299.01 411.74 302.00 416.00
C 306.81 414.37 313.21 414.39 318.00 416.00
C 320.99 411.73 315.70 401.75 318.00 397.00
C 319.24 394.43 334.46 393.25 338.00 395.00
C 338.00 390.00 338.00 385.00 338.00 380.00
C 331.33 380.00 324.67 380.00 318.00 380.00
C 318.00 373.33 318.00 366.67 318.00 360.00
C 312.67 360.00 307.33 360.00 302.00 360.00
C 302.00 366.67 302.00 373.33 302.00 380.00
C 295.33 380.00 288.67 380.00 282.00 380.00
C 282.85 384.80 280.87 390.27 282.00 395.00
M 317.00 361.00 
C 313.58 363.21 308.18 361.42 304.00 362.00
C 304.00 367.67 304.00 373.33 304.00 379.00
C 301.73 373.91 303.62 366.84 303.00 361.00
C 307.67 361.00 312.33 361.00 317.00 361.00
M 302.00 381.00 
C 296.58 383.28 289.18 381.37 283.00 382.00
C 288.42 379.72 295.82 381.63 302.00 381.00
M 337.00 381.00 
C 331.58 383.28 324.18 381.37 318.00 382.00
C 323.42 379.72 330.82 381.63 337.00 381.00
M 304.00 397.00 
C 304.00 402.67 304.00 408.33 304.00 414.00
C 302.38 409.41 302.30 401.52 304.00 397.00 Z"/>
</g>
<g fill="None" fill-opacity="0.0" stroke="#FFFFFF" stroke-opacity="0.00" stroke-width="0.3"><path d="
M 317.00 361.00 
C 312.33 361.00 307.67 361.00 303.00 361.00
C 303.62 366.84 301.73 373.91 304.00 379.00
C 304.00 373.33 304.00 367.67 304.00 362.00
C 308.18 361.42 313.58 363.21 317.00 361.00 Z"/>
</g>
<g fill="None" fill-opacity="0.0" stroke="#FFFFFF" stroke-opacity="0.01" stroke-width="0.3"><path d="
M 302.00 381.00 
C 295.82 381.63 288.42 379.72 283.00 382.00
C 289.18 381.37 296.58 383.28 302.00 381.00 Z"/>
</g>
<g fill="None" fill-opacity="0.0" stroke="#FFFFFF" stroke-opacity="0.01" stroke-width="0.3"><path d="
M 337.00 381.00 
C 330.82 381.63 323.42 379.72 318.00 382.00
C 324.18 381.37 331.58 383.28 337.00 381.00 Z"/>
</g>
<g fill="None" fill-opacity="0.0" stroke="#FFFFFF" stroke-opacity="0.39" stroke-width="0.3"><path d="
M 302.00 397.00 
C 300.75 394.42 285.54 393.24 282.00 395.00
C 283.11 399.67 296.48 395.67 302.00 397.00 Z"/>
</g>
<g fill="None" fill-opacity="0.0" stroke="#FFFFFF" stroke-opacity="0.39" stroke-width="0.3"><path d="
M 318.00 397.00 
C 323.56 395.73 336.91 399.58 338.00 395.00
C 334.46 393.25 319.24 394.43 318.00 397.00 Z"/>
</g>
<g fill="None" fill-opacity="0.0" stroke="#FFFFFF" stroke-opacity="0.00" stroke-width="0.3"><path d="
M 304.00 397.00 
C 302.30 401.52 302.38 409.41 304.00 414.00
C 304.00 408.33 304.00 402.67 304.00 397.00 Z"/>
</g>
<g fill="None" fill-opacity="0.0" stroke="#FFFFFF" stroke-opacity="0.93" stroke-width="0.3"><path d="
M 126.00 440.00 
C 119.87 430.69 108.18 420.98 100.00 413.00
C 95.81 427.28 89.14 440.78 85.00 455.00
C 98.52 449.56 111.98 443.78 126.00 440.00 Z"/>
</g>
<g fill="None" fill-opacity="0.0" stroke="#FFFFFF" stroke-opacity="0.37" stroke-width="0.3"><path d="
M 302.00 416.00 
C 303.34 417.91 316.61 417.98 318.00 416.00
C 313.21 414.39 306.81 414.37 302.00 416.00 Z"/>
</g>
<g fill="None" fill-opacity="0.0" stroke="#808080" stroke-opacity="0.07" stroke-width="0.3"><path d="
M 401.00 446.00 
C 400.97 446.01 401.09 448.19 402.92 446.92 C 404.74 445.64 403.80 445.18 405.00 444.00
C 403.96 444.60 402.87 444.74 401.00 446.00 Z"/>
</g>
<g fill="None" fill-opacity="0.0" stroke="#B3B3B3" stroke-opacity="0.01" stroke-width="0.3"><path d="
M 352.00 467.00 
C 351.04 468.79 347.88 467.93 347.00 470.00
C 350.28 470.27 352.75 467.73 356.00 468.00
C 355.90 467.47 354.30 466.05 354.00 466.00
C 352.72 466.24 352.88 466.44 352.00 467.00 Z"/>
</g>
<g fill="None" fill-opacity="0.0" stroke="#FFFFFF" stroke-opacity="0.01" stroke-width="0.3"><path d="
M 227.00 479.00 
C 222.97 480.01 218.03 477.38 215.00 479.00
C 218.60 479.93 223.82 481.09 227.00 479.00 Z"/>
</g>
<g fill="None" fill-opacity="0.0" stroke="#FFFFFF" stroke-opacity="0.01" stroke-width="0.3"><path d="
M 295.00 479.00 
C 292.15 479.50 288.10 477.92 286.00 480.00
C 288.85 479.50 292.90 481.08 295.00 479.00 Z"/>
</g>
<g fill="None" fill-opacity="0.0" stroke="#FFFFFF" stroke-opacity="0.00" stroke-width="0.3"><path d="
M 244.00 480.00 
C 239.49 480.59 233.75 478.78 230.00 481.00
C 234.51 480.41 240.25 482.22 244.00 480.00 Z"/>
</g>
<g fill="None" fill-opacity="0.0" stroke="#FFFFFF" stroke-opacity="0.00" stroke-width="0.3"><path d="
M 283.00 480.00 
C 278.49 480.59 272.75 478.78 269.00 481.00
C 273.51 480.41 279.25 482.22 283.00 480.00 Z"/>
</g>
<g fill="#000000" fill-opacity="0.00" stroke="None">
<path d="
M 0.00 512.00 
L 512.00 512.00
L 512.00 0.00
L 0.00 0.00
L 0.00 512.00
M 178.00 64.00 
C 177.78 64.57 176.05 63.66 177.27 62.25 C 178.49 60.83 180.00 61.00 180.00 61.00
C 191.01 52.74 198.96 38.77 213.00 35.00
C 210.90 32.59 215.12 31.19 217.00 31.00
C 216.76 32.88 214.45 32.46 214.00 34.00
C 220.84 28.49 230.55 28.65 239.01 26.01 C 247.47 23.37 261.08 24.81 270.00 25.00 C 278.92 25.19 287.33 30.56 295.23 32.77 C 303.13 34.98 310.19 43.07 316.00 42.00
C 319.75 49.33 326.99 53.65 332.75 61.25 C 338.51 68.85 342.94 75.83 346.92 85.08 C 350.91 94.32 353.25 105.29 354.00 116.00 C 354.75 126.71 352.87 140.71 350.22 150.22 C 347.58 159.74 340.49 169.02 342.00 175.00
C 330.38 184.10 322.93 196.88 308.30 205.30 C 293.68 213.73 274.85 220.90 256.99 220.99 C 239.14 221.08 219.99 214.28 205.25 205.75 C 190.51 197.21 182.64 184.32 171.00 175.00
C 172.53 168.02 165.73 161.47 163.22 152.78 C 160.71 144.09 158.80 132.89 159.00 123.00 C 159.20 113.11 159.96 101.92 162.98 92.98 C 166.00 84.03 171.04 77.69 172.00 69.00
C 174.23 73.07 175.61 65.44 178.00 64.00
M 158.00 111.00 
C 158.00 118.67 158.00 126.33 158.00 134.00
C 156.36 127.41 156.31 117.52 158.00 111.00
M 356.00 111.00 
C 356.00 118.67 356.00 126.33 356.00 134.00
C 354.36 127.41 354.32 117.52 356.00 111.00
M 199.00 228.00 
C 200.98 230.01 201.06 230.27 202.00 234.00
C 211.74 250.14 220.00 267.38 228.64 281.70 C 237.29 296.01 244.90 317.66 254.00 333.00
C 275.74 295.48 297.66 257.35 318.00 219.00
C 346.22 234.78 366.06 265.72 372.00 297.00
C 362.01 297.91 353.19 306.42 351.00 316.00
C 350.92 317.90 353.09 320.71 352.00 323.00
C 349.80 322.26 352.31 318.67 350.00 318.00
C 348.68 333.00 354.71 348.28 370.22 352.78 C 385.74 357.27 403.55 348.70 404.00 333.00
C 407.62 338.03 407.94 325.17 407.02 319.98 C 406.11 314.79 403.80 307.05 398.75 303.25 C 393.70 299.44 387.84 295.49 381.00 296.00
C 378.87 287.24 375.48 278.06 372.23 269.77 C 368.98 261.49 363.91 254.84 359.75 247.25 C 355.58 239.67 346.75 237.90 346.00 230.00
C 352.08 232.34 358.95 237.44 364.70 240.30 C 370.44 243.17 376.34 251.15 381.00 249.00
C 388.98 261.28 404.79 271.16 414.00 284.00
C 413.66 283.78 413.55 282.40 415.77 284.24 C 417.99 286.08 416.15 287.38 416.00 287.00
C 422.84 295.55 430.24 305.47 435.00 315.00
C 435.47 315.51 440.28 318.81 440.00 322.00
C 438.75 321.70 438.29 320.17 437.00 320.00
C 443.54 333.34 448.35 346.51 452.33 360.67 C 456.31 374.83 460.99 391.97 450.23 403.23 C 439.47 414.49 433.49 421.50 425.00 432.00
C 422.31 428.56 419.08 434.96 415.75 436.75 C 412.42 438.55 407.85 441.54 405.00 444.00
C 403.80 445.18 404.74 445.64 402.92 446.92 C 401.09 448.19 400.97 446.01 401.00 446.00
C 387.75 454.91 369.52 463.07 354.00 466.00
C 354.30 466.05 355.90 467.47 356.00 468.00
C 352.75 467.73 350.28 470.27 347.00 470.00
C 347.88 467.93 351.04 468.79 352.00 467.00
C 309.55 481.45 260.33 479.92 215.00 477.00
C 215.00 451.00 215.00 425.00 215.00 399.00
C 207.33 399.00 199.67 399.00 192.00 399.00
C 192.00 421.33 192.00 443.67 192.00 466.00
C 164.95 469.33 140.64 462.09 118.00 450.00
C 133.40 447.95 144.90 435.70 155.25 424.25 C 165.60 412.80 176.64 403.93 186.75 392.75 C 196.87 381.58 206.77 371.04 218.00 361.00
C 208.40 347.06 192.64 337.55 182.00 324.00
C 165.46 340.76 147.79 355.28 131.75 372.75 C 115.71 390.22 92.32 405.15 88.00 429.00
C 83.25 421.77 71.94 421.08 71.01 410.99 C 70.08 400.91 71.48 386.84 71.00 376.00 C 70.52 365.16 71.36 352.05 71.00 341.00
C 91.67 341.00 112.33 341.00 133.00 341.00
C 133.00 334.67 133.00 328.33 133.00 322.00
C 113.33 322.00 93.67 322.00 74.00 322.00
C 75.76 315.16 81.48 309.86 81.00 303.00
C 84.22 305.58 91.47 293.36 90.00 289.00
C 91.95 286.73 94.90 288.43 96.00 285.00
C 95.25 286.41 95.72 279.90 98.00 279.00
C 99.86 279.46 98.16 281.04 98.00 282.00
C 119.26 248.48 160.97 229.78 194.00 219.00
C 195.17 222.06 197.02 225.49 199.00 228.00
M 381.00 304.00 
C 406.94 306.83 402.27 348.41 376.00 345.00 C 349.73 341.59 355.13 301.18 381.00 304.00
M 127.00 327.00 
C 127.00 330.33 127.00 333.67 127.00 337.00
C 106.00 337.00 85.00 337.00 64.00 337.00
C 64.00 381.67 64.00 426.33 64.00 471.00
C 108.67 471.00 153.33 471.00 198.00 471.00
C 198.00 448.33 198.00 425.67 198.00 403.00
C 201.33 403.00 204.67 403.00 208.00 403.00
C 208.00 429.00 208.00 455.00 208.00 481.00
C 156.67 481.00 105.33 481.00 54.00 481.00
C 54.00 429.67 54.00 378.33 54.00 327.00
C 78.33 327.00 102.67 327.00 127.00 327.00
M 181.00 334.00 
C 188.84 342.66 197.38 351.22 206.00 359.00
C 203.09 364.35 197.35 370.13 192.00 373.00
C 185.46 363.98 176.01 354.51 167.00 348.00
C 170.49 343.37 176.21 338.17 181.00 334.00
M 164.00 352.00 
C 171.93 360.12 179.78 369.90 189.00 376.00
C 184.14 383.42 175.81 390.90 169.25 397.25 C 162.68 403.60 155.39 412.08 148.75 417.75 C 142.12 423.43 134.77 437.53 127.25 430.75 C 119.73 423.98 113.75 416.27 106.00 410.00
C 123.53 389.98 144.00 369.50 164.00 352.00
M 126.00 440.00 
C 111.98 443.78 98.52 449.56 85.00 455.00
C 89.14 440.78 95.81 427.28 100.00 413.00
C 108.18 420.98 119.87 430.69 126.00 440.00
M 227.00 479.00 
C 223.82 481.09 218.60 479.93 215.00 479.00
C 218.03 477.38 222.97 480.01 227.00 479.00
M 295.00 479.00 
C 292.90 481.08 288.85 479.50 286.00 480.00
C 288.10 477.92 292.15 479.50 295.00 479.00
M 244.00 480.00 
C 240.25 482.22 234.51 480.41 230.00 481.00
C 233.75 478.78 239.49 480.59 244.00 480.00
M 283.00 480.00 
C 279.25 482.22 273.51 480.41 269.00 481.00
C 272.75 478.78 278.49 480.59 283.00 480.00 Z"/>
</g>
<g fill="#FEFEFE" fill-opacity="0.98" stroke="None">
<path d="
M 214.00 34.00 
C 212.57 35.80 214.24 34.67 213.00 35.00
C 198.96 38.77 191.01 52.74 180.00 61.00
C 178.78 62.92 179.14 62.57 178.00 64.00
C 175.61 65.44 174.23 73.07 172.00 69.00
C 171.04 77.69 166.00 84.03 162.98 92.98 C 159.96 101.92 159.20 113.11 159.00 123.00 C 158.80 132.89 160.71 144.09 163.22 152.78 C 165.73 161.47 172.53 168.02 171.00 175.00
C 182.64 184.32 190.51 197.21 205.25 205.75 C 219.99 214.28 239.14 221.08 256.99 220.99 C 274.85 220.90 293.68 213.73 308.30 205.30 C 322.93 196.88 330.38 184.10 342.00 175.00
C 340.49 169.02 347.58 159.74 350.22 150.22 C 352.87 140.71 354.75 126.71 354.00 116.00 C 353.25 105.29 350.91 94.32 346.92 85.08 C 342.94 75.83 338.51 68.85 332.75 61.25 C 326.99 53.65 319.75 49.33 316.00 42.00
C 310.19 43.07 303.13 34.98 295.23 32.77 C 287.33 30.56 278.92 25.19 270.00 25.00 C 261.08 24.81 247.47 23.37 239.01 26.01 C 230.55 28.65 220.84 28.49 214.00 34.00 Z"/>
</g>
<g fill="#B6B6B6" fill-opacity="0.09" stroke="None">
<path d="
M 213.00 35.00 
C 214.24 34.67 212.57 35.80 214.00 34.00
C 214.45 32.46 216.76 32.88 217.00 31.00
C 215.12 31.19 210.90 32.59 213.00 35.00 Z"/>
</g>
<g fill="#949494" fill-opacity="0.09" stroke="None">
<path d="
M 178.00 64.00 
C 179.14 62.57 178.78 62.92 180.00 61.00
C 180.00 61.00 178.49 60.83 177.27 62.25 C 176.05 63.66 177.78 64.57 178.00 64.00 Z"/>
</g>
<g fill="#FFFFFF" fill-opacity="0.00" stroke="None">
<path d="
M 158.00 111.00 
C 156.31 117.52 156.36 127.41 158.00 134.00
C 158.00 126.33 158.00 118.67 158.00 111.00 Z"/>
</g>
<g fill="#FFFFFF" fill-opacity="0.00" stroke="None">
<path d="
M 356.00 111.00 
C 354.32 117.52 354.36 127.41 356.00 134.00
C 356.00 126.33 356.00 118.67 356.00 111.00 Z"/>
</g>
<g fill="#FEFEFE" fill-opacity="0.98" stroke="None">
<path d="
M 98.00 282.00 
C 97.50 284.54 97.42 283.60 96.00 285.00
C 94.90 288.43 91.95 286.73 90.00 289.00
C 91.47 293.36 84.22 305.58 81.00 303.00
C 81.48 309.86 75.76 315.16 74.00 322.00
C 93.67 322.00 113.33 322.00 133.00 322.00
C 133.00 328.33 133.00 334.67 133.00 341.00
C 112.33 341.00 91.67 341.00 71.00 341.00
C 71.36 352.05 70.52 365.16 71.00 376.00 C 71.48 386.84 70.08 400.91 71.01 410.99 C 71.94 421.08 83.25 421.77 88.00 429.00
C 92.32 405.15 115.71 390.22 131.75 372.75 C 147.79 355.28 165.46 340.76 182.00 324.00
C 192.64 337.55 208.40 347.06 218.00 361.00
C 206.77 371.04 196.87 381.58 186.75 392.75 C 176.64 403.93 165.60 412.80 155.25 424.25 C 144.90 435.70 133.40 447.95 118.00 450.00
C 140.64 462.09 164.95 469.33 192.00 466.00
C 192.00 443.67 192.00 421.33 192.00 399.00
C 199.67 399.00 207.33 399.00 215.00 399.00
C 215.00 425.00 215.00 451.00 215.00 477.00
C 260.33 479.92 309.55 481.45 352.00 467.00
C 352.88 466.44 352.72 466.24 354.00 466.00
C 369.52 463.07 387.75 454.91 401.00 446.00
C 402.87 444.74 403.96 444.60 405.00 444.00
C 407.85 441.54 412.42 438.55 415.75 436.75 C 419.08 434.96 422.31 428.56 425.00 432.00
C 433.49 421.50 439.47 414.49 450.23 403.23 C 460.99 391.97 456.31 374.83 452.33 360.67 C 448.35 346.51 443.54 333.34 437.00 320.00
C 436.20 318.38 435.76 316.52 435.00 315.00
C 430.24 305.47 422.84 295.55 416.00 287.00
C 415.00 285.75 415.19 285.87 414.00 284.00
C 404.79 271.16 388.98 261.28 381.00 249.00
C 376.34 251.15 370.44 243.17 364.70 240.30 C 358.95 237.44 352.08 232.34 346.00 230.00
C 346.75 237.90 355.58 239.67 359.75 247.25 C 363.91 254.84 368.98 261.49 372.23 269.77 C 375.48 278.06 378.87 287.24 381.00 296.00
C 387.84 295.49 393.70 299.44 398.75 303.25 C 403.80 307.05 406.11 314.79 407.02 319.98 C 407.94 325.17 407.62 338.03 404.00 333.00
C 403.55 348.70 385.74 357.27 370.22 352.78 C 354.71 348.28 348.68 333.00 350.00 318.00
C 350.23 315.34 349.90 317.95 351.00 316.00
C 353.19 306.42 362.01 297.91 372.00 297.00
C 366.06 265.72 346.22 234.78 318.00 219.00
C 297.66 257.35 275.74 295.48 254.00 333.00
C 244.90 317.66 237.29 296.01 228.64 281.70 C 220.00 267.38 211.74 250.14 202.00 234.00
C 201.26 232.77 200.19 230.48 199.00 228.00
C 197.02 225.49 195.17 222.06 194.00 219.00
C 160.97 229.78 119.26 248.48 98.00 282.00
M 338.00 395.00 
C 336.91 399.58 323.56 395.73 318.00 397.00
C 315.70 401.75 320.99 411.73 318.00 416.00
C 316.61 417.98 303.34 417.91 302.00 416.00
C 299.01 411.74 304.30 401.75 302.00 397.00
C 296.48 395.67 283.11 399.67 282.00 395.00
C 280.87 390.27 282.85 384.80 282.00 380.00
C 288.67 380.00 295.33 380.00 302.00 380.00
C 302.00 373.33 302.00 366.67 302.00 360.00
C 307.33 360.00 312.67 360.00 318.00 360.00
C 318.00 366.67 318.00 373.33 318.00 380.00
C 324.67 380.00 331.33 380.00 338.00 380.00
C 338.00 385.00 338.00 390.00 338.00 395.00 Z"/>
</g>
<g fill="#808080" fill-opacity="0.05" stroke="None">
<path d="
M 199.00 228.00 
C 200.19 230.48 201.26 232.77 202.00 234.00
C 201.06 230.27 200.98 230.01 199.00 228.00 Z"/>
</g>
<g fill="#949494" fill-opacity="0.06" stroke="None">
<path d="
M 96.00 285.00 
C 97.42 283.60 97.50 284.54 98.00 282.00
C 98.16 281.04 99.86 279.46 98.00 279.00
C 95.72 279.90 95.25 286.41 96.00 285.00 Z"/>
</g>
<g fill="#9E9E9E" fill-opacity="0.08" stroke="None">
<path d="
M 414.00 284.00 
C 415.19 285.87 415.00 285.75 416.00 287.00
C 416.15 287.38 417.99 286.08 415.77 284.24 C 413.55 282.40 413.66 283.78 414.00 284.00 Z"/>
</g>
<g fill="#FFFFFF" fill-opacity="0.93" stroke="None">
<path d="
M 381.00 304.00 
C 355.13 301.18 349.73 341.59 376.00 345.00 C 402.27 348.41 406.94 306.83 381.00 304.00 Z"/>
</g>
<g fill="#8C8C8C" fill-opacity="0.00" stroke="None">
<path d="
M 435.00 315.00 
C 435.76 316.52 436.20 318.38 437.00 320.00
C 438.29 320.17 438.75 321.70 440.00 322.00
C 440.28 318.81 435.47 315.51 435.00 315.00 Z"/>
</g>
<g fill="#DADADA" fill-opacity="0.09" stroke="None">
<path d="
M 350.00 318.00 
C 352.31 318.67 349.80 322.26 352.00 323.00
C 353.09 320.71 350.92 317.90 351.00 316.00
C 349.90 317.95 350.23 315.34 350.00 318.00 Z"/>
</g>
<g fill="#FFFFFF" fill-opacity="0.91" stroke="None">
<path d="
M 127.00 327.00 
C 102.67 327.00 78.33 327.00 54.00 327.00
C 54.00 378.33 54.00 429.67 54.00 481.00
C 105.33 481.00 156.67 481.00 208.00 481.00
C 208.00 455.00 208.00 429.00 208.00 403.00
C 204.67 403.00 201.33 403.00 198.00 403.00
C 198.00 425.67 198.00 448.33 198.00 471.00
C 153.33 471.00 108.67 471.00 64.00 471.00
C 64.00 426.33 64.00 381.67 64.00 337.00
C 85.00 337.00 106.00 337.00 127.00 337.00
C 127.00 333.67 127.00 330.33 127.00 327.00 Z"/>
</g>
<g fill="#FFFFFF" fill-opacity="0.94" stroke="None">
<path d="
M 181.00 334.00 
C 176.21 338.17 170.49 343.37 167.00 348.00
C 176.01 354.51 185.46 363.98 192.00 373.00
C 197.35 370.13 203.09 364.35 206.00 359.00
C 197.38 351.22 188.84 342.66 181.00 334.00 Z"/>
</g>
<g fill="#FFFFFF" fill-opacity="0.96" stroke="None">
<path d="
M 164.00 352.00 
C 144.00 369.50 123.53 389.98 106.00 410.00
C 113.75 416.27 119.73 423.98 127.25 430.75 C 134.77 437.53 142.12 423.43 148.75 417.75 C 155.39 412.08 162.68 403.60 169.25 397.25 C 175.81 390.90 184.14 383.42 189.00 376.00
C 179.78 369.90 171.93 360.12 164.00 352.00 Z"/>
</g>
<g fill="#000000" fill-opacity="0.00" stroke="None">
<path d="
M 282.00 395.00 
C 285.54 393.24 300.75 394.42 302.00 397.00
C 304.30 401.75 299.01 411.74 302.00 416.00
C 306.81 414.37 313.21 414.39 318.00 416.00
C 320.99 411.73 315.70 401.75 318.00 397.00
C 319.24 394.43 334.46 393.25 338.00 395.00
C 338.00 390.00 338.00 385.00 338.00 380.00
C 331.33 380.00 324.67 380.00 318.00 380.00
C 318.00 373.33 318.00 366.67 318.00 360.00
C 312.67 360.00 307.33 360.00 302.00 360.00
C 302.00 366.67 302.00 373.33 302.00 380.00
C 295.33 380.00 288.67 380.00 282.00 380.00
C 282.85 384.80 280.87 390.27 282.00 395.00
M 317.00 361.00 
C 313.58 363.21 308.18 361.42 304.00 362.00
C 304.00 367.67 304.00 373.33 304.00 379.00
C 301.73 373.91 303.62 366.84 303.00 361.00
C 307.67 361.00 312.33 361.00 317.00 361.00
M 302.00 381.00 
C 296.58 383.28 289.18 381.37 283.00 382.00
C 288.42 379.72 295.82 381.63 302.00 381.00
M 337.00 381.00 
C 331.58 383.28 324.18 381.37 318.00 382.00
C 323.42 379.72 330.82 381.63 337.00 381.00
M 304.00 397.00 
C 304.00 402.67 304.00 408.33 304.00 414.00
C 302.38 409.41 302.30 401.52 304.00 397.00 Z"/>
</g>
<g fill="#FFFFFF" fill-opacity="0.00" stroke="None">
<path d="
M 317.00 361.00 
C 312.33 361.00 307.67 361.00 303.00 361.00
C 303.62 366.84 301.73 373.91 304.00 379.00
C 304.00 373.33 304.00 367.67 304.00 362.00
C 308.18 361.42 313.58 363.21 317.00 361.00 Z"/>
</g>
<g fill="#FFFFFF" fill-opacity="0.01" stroke="None">
<path d="
M 302.00 381.00 
C 295.82 381.63 288.42 379.72 283.00 382.00
C 289.18 381.37 296.58 383.28 302.00 381.00 Z"/>
</g>
<g fill="#FFFFFF" fill-opacity="0.01" stroke="None">
<path d="
M 337.00 381.00 
C 330.82 381.63 323.42 379.72 318.00 382.00
C 324.18 381.37 331.58 383.28 337.00 381.00 Z"/>
</g>
<g fill="#FFFFFF" fill-opacity="0.39" stroke="None">
<path d="
M 302.00 397.00 
C 300.75 394.42 285.54 393.24 282.00 395.00
C 283.11 399.67 296.48 395.67 302.00 397.00 Z"/>
</g>
<g fill="#FFFFFF" fill-opacity="0.39" stroke="None">
<path d="
M 318.00 397.00 
C 323.56 395.73 336.91 399.58 338.00 395.00
C 334.46 393.25 319.24 394.43 318.00 397.00 Z"/>
</g>
<g fill="#FFFFFF" fill-opacity="0.00" stroke="None">
<path d="
M 304.00 397.00 
C 302.30 401.52 302.38 409.41 304.00 414.00
C 304.00 408.33 304.00 402.67 304.00 397.00 Z"/>
</g>
<g fill="#FFFFFF" fill-opacity="0.93" stroke="None">
<path d="
M 126.00 440.00 
C 119.87 430.69 108.18 420.98 100.00 413.00
C 95.81 427.28 89.14 440.78 85.00 455.00
C 98.52 449.56 111.98 443.78 126.00 440.00 Z"/>
</g>
<g fill="#FFFFFF" fill-opacity="0.37" stroke="None">
<path d="
M 302.00 416.00 
C 303.34 417.91 316.61 417.98 318.00 416.00
C 313.21 414.39 306.81 414.37 302.00 416.00 Z"/>
</g>
<g fill="#808080" fill-opacity="0.07" stroke="None">
<path d="
M 401.00 446.00 
C 400.97 446.01 401.09 448.19 402.92 446.92 C 404.74 445.64 403.80 445.18 405.00 444.00
C 403.96 444.60 402.87 444.74 401.00 446.00 Z"/>
</g>
<g fill="#B3B3B3" fill-opacity="0.01" stroke="None">
<path d="
M 352.00 467.00 
C 351.04 468.79 347.88 467.93 347.00 470.00
C 350.28 470.27 352.75 467.73 356.00 468.00
C 355.90 467.47 354.30 466.05 354.00 466.00
C 352.72 466.24 352.88 466.44 352.00 467.00 Z"/>
</g>
<g fill="#FFFFFF" fill-opacity="0.01" stroke="None">
<path d="
M 227.00 479.00 
C 222.97 480.01 218.03 477.38 215.00 479.00
C 218.60 479.93 223.82 481.09 227.00 479.00 Z"/>
</g>
<g fill="#FFFFFF" fill-opacity="0.01" stroke="None">
<path d="
M 295.00 479.00 
C 292.15 479.50 288.10 477.92 286.00 480.00
C 288.85 479.50 292.90 481.08 295.00 479.00 Z"/>
</g>
<g fill="#FFFFFF" fill-opacity="0.00" stroke="None">
<path d="
M 244.00 480.00 
C 239.49 480.59 233.75 478.78 230.00 481.00
C 234.51 480.41 240.25 482.22 244.00 480.00 Z"/>
</g>
<g fill="#FFFFFF" fill-opacity="0.00" stroke="None">
<path d="
M 283.00 480.00 
C 278.49 480.59 272.75 478.78 269.00 481.00
C 273.51 480.41 279.25 482.22 283.00 480.00 Z"/>
</g>
</svg>