<svg xmlns="http://www.w3.org/2000/svg" xmlns:v="https://svgstorm.com"
viewBox = "0 0 512 512"
width="512"
height="512">
<g fill="None" fill-opacity="0.0" stroke="#000000" stroke-opacity="0.00" stroke-width="0.3"><path d="
M 0.00 512.00 
L 512.00 512.00
L 512.00 0.00
L 0.00 0.00
L 0.00 512.00
M 177.00 18.00 
C 168.24 23.11 165.22 24.91 160.00 35.00
C 159.58 36.34 158.99 44.71 157.00 39.00
C 153.13 27.90 169.54 13.17 180.00 15.00
C 180.97 15.17 182.02 14.86 183.00 15.00
C 182.02 17.50 179.54 18.45 177.00 18.00
M 406.00 16.00 
C 403.72 17.54 398.21 17.72 396.00 16.00
C 398.45 14.23 403.20 14.62 406.00 16.00
M 341.00 49.00 
C 333.61 57.65 319.34 51.75 308.00 53.00 C 296.66 54.25 282.05 52.42 270.00 53.00 C 257.95 53.58 244.34 52.70 232.00 53.00 C 219.66 53.30 206.42 52.77 194.00 53.00
C 195.67 168.74 195.67 286.28 194.00 402.00
C 279.33 402.00 364.67 402.00 450.00 402.00
C 450.66 331.17 448.67 259.01 451.00 189.00
C 453.55 185.20 463.06 181.78 467.00 179.00
C 468.26 178.11 469.07 176.15 471.00 176.00
C 471.00 255.33 471.00 334.67 471.00 414.00
C 468.62 429.60 444.43 421.69 431.00 423.00 C 417.57 424.31 397.06 422.43 382.00 423.00 C 366.94 423.57 348.84 422.78 333.00 423.00 C 317.16 423.22 300.30 423.00 284.00 423.00 C 267.70 423.00 251.73 423.21 235.00 423.00 C 218.27 422.79 203.44 423.55 186.00 423.00 C 168.56 422.45 174.41 400.46 174.00 386.00 C 173.59 371.54 174.18 352.49 174.00 337.00 C 173.82 321.51 174.06 303.96 174.00 288.00 C 173.94 272.04 173.99 255.18 174.00 239.00 C 174.01 222.82 173.91 206.31 174.00 190.00 C 174.09 173.69 173.76 157.41 174.00 141.00 C 174.24 124.59 173.46 108.58 174.00 92.00 C 174.54 75.42 172.79 59.90 174.00 43.00 C 175.21 26.10 197.87 32.71 212.00 32.00 C 226.13 31.29 245.71 32.23 261.00 32.00 C 276.29 31.77 294.26 31.91 310.00 32.00 C 325.74 32.09 343.97 31.10 359.00 33.00
C 352.19 36.97 346.09 42.83 341.00 49.00
M 479.00 143.00 
C 478.50 143.85 477.47 145.23 477.00 146.00
C 474.41 154.71 467.18 159.70 461.00 166.00
C 459.42 167.61 458.16 168.58 456.00 170.00
C 424.29 190.88 381.72 190.13 354.75 161.25 C 327.79 132.37 327.62 88.96 351.75 58.75 C 375.89 28.55 421.84 23.81 453.08 43.92 C 484.33 64.03 498.46 110.15 479.00 143.00
M 171.00 159.00 
C 164.67 181.66 158.34 204.53 150.00 226.00
C 143.19 224.99 137.41 206.25 129.77 211.77 C 122.13 217.29 117.06 224.96 109.75 230.75 C 102.45 236.54 96.29 243.34 89.00 249.00
C 84.93 243.51 77.11 238.93 75.00 232.00
C 82.15 226.72 89.57 220.35 95.75 213.75 C 101.93 207.15 111.08 202.38 116.23 195.23 C 121.38 188.08 101.62 181.62 103.00 173.00
C 125.88 169.90 148.17 163.34 171.00 159.00
M 337.00 161.00 
C 341.94 164.86 345.08 171.88 350.00 176.00
C 351.44 177.21 353.64 177.63 355.00 179.00
C 312.73 180.67 267.19 180.67 225.00 179.00
C 214.10 178.96 216.92 158.42 228.07 159.07 C 239.23 159.72 253.65 158.10 265.00 159.00 C 276.35 159.90 291.09 157.35 302.00 159.00 C 312.91 160.65 328.78 154.57 337.00 161.00
M 392.00 197.00 
C 401.99 198.62 430.44 192.37 426.00 210.00
C 425.13 213.46 421.39 216.31 418.00 217.00
C 402.77 220.10 385.59 215.86 370.00 217.00 C 354.41 218.14 337.67 217.07 322.00 217.00 C 306.33 216.93 289.53 218.32 274.00 217.00 C 258.47 215.68 241.09 220.45 226.00 217.00
C 219.80 215.58 216.98 208.24 219.00 203.00
C 220.44 199.25 221.98 199.89 225.00 198.00
C 235.80 191.24 251.49 196.13 265.00 195.00 C 278.51 193.87 294.13 195.61 308.00 195.00 C 321.87 194.39 337.07 195.51 351.00 195.00 C 364.93 194.49 379.20 194.92 392.00 197.00
M 426.00 240.00 
C 426.67 242.68 425.87 246.00 425.00 248.00
C 423.96 250.39 423.50 250.78 421.00 252.00
C 419.95 252.51 419.40 252.68 418.00 253.00
C 405.94 255.78 392.63 253.55 380.00 254.00 C 367.37 254.45 353.68 254.12 341.00 254.00 C 328.32 253.88 313.41 254.73 301.00 254.00 C 288.59 253.27 273.58 255.90 262.00 254.00 C 250.42 252.10 232.79 259.13 224.00 252.00
C 223.50 252.00 223.00 252.00 223.00 252.00
C 218.08 249.59 217.84 245.08 219.00 241.00
C 222.89 227.38 242.38 233.96 255.00 233.00 C 267.62 232.04 285.63 233.19 299.00 233.00 C 312.37 232.81 330.87 232.60 344.00 233.00 C 357.13 233.40 376.32 231.69 388.00 233.00 C 399.68 234.31 422.75 227.06 426.00 240.00
M 46.00 253.00 
C 38.50 251.51 34.48 259.70 33.00 265.00
C 29.94 258.80 40.12 246.89 46.00 253.00
M 196.00 468.00 
C 194.33 464.63 196.47 457.82 196.00 454.00 C 195.53 450.18 194.85 442.53 198.00 441.00
C 200.70 439.69 205.14 441.98 208.00 441.00
C 203.59 450.54 216.47 477.29 201.97 479.97 C 187.48 482.66 171.25 478.39 156.00 480.00 C 140.75 481.61 125.95 478.34 110.00 480.00 C 94.05 481.66 81.06 477.19 64.00 480.00 C 46.94 482.81 38.30 475.33 41.00 458.00 C 43.70 440.67 39.92 428.40 41.00 412.00 C 42.08 395.60 40.82 382.18 41.00 366.00 C 41.18 349.82 41.60 336.53 41.00 320.00 C 40.40 303.47 42.85 292.84 41.00 275.00 C 39.15 257.16 57.04 259.16 72.00 260.00 C 86.96 260.84 102.86 259.56 118.00 260.00 C 133.14 260.44 148.81 259.67 164.00 260.00
C 164.00 276.67 164.00 293.33 164.00 310.00
C 153.29 302.32 161.64 284.01 159.00 272.00
C 123.67 272.00 88.33 272.00 53.00 272.00
C 53.00 337.33 53.00 402.67 53.00 468.00
C 100.67 468.00 148.33 468.00 196.00 468.00
M 418.00 270.00 
C 425.92 273.58 430.16 282.95 421.00 288.00
C 413.28 292.25 402.49 291.01 392.00 291.00 C 381.51 290.99 369.70 291.12 359.00 291.00 C 348.30 290.88 336.72 291.31 326.00 291.00 C 315.28 290.69 303.54 291.70 293.00 291.00 C 282.46 290.30 270.06 292.56 260.00 291.00 C 249.94 289.44 236.63 294.94 228.00 290.00
C 227.62 289.78 227.00 290.00 227.00 290.00
C 212.25 290.50 218.36 265.10 233.00 268.00 C 247.64 270.91 264.99 266.45 280.00 268.00 C 295.01 269.55 310.94 266.82 326.00 268.00 C 341.06 269.18 358.18 266.42 373.00 268.00 C 387.82 269.58 404.81 264.04 418.00 270.00
M 216.00 295.00 
C 217.23 297.13 217.88 301.30 216.00 303.00
C 217.07 300.29 213.19 296.98 216.00 295.00
M 426.00 314.00 
C 429.40 330.80 407.08 327.13 395.00 327.00 C 382.92 326.87 363.35 327.28 350.00 327.00 C 336.65 326.72 319.69 327.64 306.00 327.00 C 292.31 326.36 274.25 328.38 261.00 327.00 C 247.75 325.62 229.04 332.28 221.00 322.00
C 212.48 311.10 226.12 304.40 238.00 306.00 C 249.88 307.60 264.66 305.21 277.00 306.00 C 289.34 306.79 303.65 305.50 316.00 306.00 C 328.35 306.50 343.07 305.45 355.00 306.00 C 366.93 306.55 383.21 305.03 394.00 306.00 C 404.79 306.97 423.38 301.04 426.00 314.00
M 164.00 343.00 
C 161.30 346.85 150.61 343.42 145.00 344.00 C 139.39 344.58 132.18 344.83 125.00 344.00 C 117.82 343.17 114.10 346.79 105.00 344.00 C 95.90 341.21 74.26 349.44 68.00 341.00
C 60.42 330.78 82.14 331.18 91.00 332.00 C 99.86 332.82 116.49 331.58 127.00 332.00 C 137.51 332.42 153.03 331.69 164.00 332.00
C 164.00 335.67 164.00 339.33 164.00 343.00
M 419.00 344.00 
C 433.54 347.94 423.96 366.88 410.00 364.00 C 396.04 361.12 380.24 365.09 366.00 364.00 C 351.76 362.91 336.23 364.03 322.00 364.00 C 307.77 363.97 293.03 362.92 279.00 364.00 C 264.97 365.08 248.53 361.19 235.00 364.00 C 221.47 366.81 210.39 349.39 225.00 344.00
C 238.98 338.84 257.54 344.48 273.00 343.00 C 288.46 341.52 306.24 343.24 322.00 343.00 C 337.76 342.76 355.32 342.16 371.00 343.00 C 386.68 343.84 404.51 340.07 419.00 344.00
M 164.00 353.00 
C 165.72 355.46 162.71 361.24 164.00 364.00
C 152.00 364.41 137.78 363.45 126.00 364.00 C 114.22 364.55 98.96 362.95 88.00 364.00 C 77.04 365.05 58.76 363.51 71.00 353.00
C 76.12 350.92 83.04 352.21 89.00 352.00 C 94.96 351.79 102.06 351.92 108.00 352.00 C 113.94 352.08 121.33 351.59 127.00 352.00 C 132.67 352.41 141.04 350.98 146.00 352.00 C 150.96 353.02 161.35 349.21 164.00 353.00
M 164.00 383.00 
C 161.53 388.11 147.49 384.14 141.00 385.00 C 134.51 385.86 123.23 384.91 116.00 385.00 C 108.77 385.09 98.22 385.62 91.00 385.00 C 83.78 384.38 72.59 388.00 68.00 382.00
C 60.30 371.95 82.09 372.12 91.00 373.00 C 99.91 373.88 116.47 372.55 127.00 373.00 C 137.53 373.45 153.02 372.67 164.00 373.00
C 164.00 376.33 164.00 379.67 164.00 383.00
M 164.00 393.00 
C 164.00 397.00 164.00 401.00 164.00 405.00
C 154.11 405.26 144.96 404.65 135.00 405.00 C 125.04 405.35 115.10 404.35 105.00 405.00 C 94.90 405.65 85.32 403.62 75.00 405.00 C 64.68 406.38 63.77 393.23 74.01 393.01 C 84.25 392.79 93.89 393.10 104.00 393.00 C 114.11 392.90 123.94 393.05 134.00 393.00 C 144.06 392.95 153.96 393.04 164.00 393.00
M 163.00 427.00 
C 169.16 431.75 174.33 438.09 183.00 439.00
C 173.22 443.18 161.83 434.47 160.00 426.00
C 150.15 424.49 135.58 426.59 126.00 426.00 C 116.42 425.41 100.13 426.06 92.00 426.00 C 83.87 425.94 63.77 428.42 66.33 418.33 C 68.90 408.23 87.40 415.79 96.00 414.00 C 104.60 412.21 120.09 414.94 130.00 414.00 C 139.91 413.06 153.74 414.70 164.00 414.00
C 163.55 418.30 165.04 423.12 163.00 427.00
M 462.00 440.00 
C 465.09 435.57 473.46 436.59 477.74 431.74 C 482.03 426.90 484.83 420.90 485.00 415.00
C 492.00 426.91 476.04 442.54 462.00 440.00
M 164.00 434.00 
C 161.13 445.69 176.28 439.46 183.00 441.00
C 175.91 449.53 162.07 446.13 150.00 446.00 C 137.93 445.87 123.66 447.51 111.00 446.00 C 98.34 444.49 85.03 449.91 72.00 446.00 C 58.97 442.09 74.23 430.25 86.00 434.00 C 97.77 437.75 112.64 432.04 125.00 434.00 C 137.36 435.96 151.48 432.53 164.00 434.00
M 46.00 487.00 
C 41.06 493.85 29.05 480.94 33.00 475.00
C 33.95 480.68 38.62 488.40 46.00 487.00
M 217.00 475.00 
C 218.41 482.68 210.69 490.43 203.00 489.00
C 209.53 486.86 214.99 481.95 217.00 475.00 Z"/>
</g>
<g fill="None" fill-opacity="0.0" stroke="#939393" stroke-opacity="0.03" stroke-width="0.3"><path d="
M 157.00 39.00 
C 159.06 39.26 159.33 36.29 160.00 35.00
C 165.22 24.91 168.24 23.11 177.00 18.00
C 178.11 17.35 180.28 16.93 180.00 15.00
C 169.54 13.17 153.13 27.90 157.00 39.00 Z"/>
</g>
<g fill="None" fill-opacity="0.0" stroke="#DEDEDE" stroke-opacity="0.03" stroke-width="0.3"><path d="
M 177.00 18.00 
C 179.54 18.45 182.02 17.50 183.00 15.00
C 182.02 14.86 180.97 15.17 180.00 15.00
C 180.28 16.93 178.11 17.35 177.00 18.00 Z"/>
</g>
<g fill="None" fill-opacity="0.0" stroke="#A0A0A0" stroke-opacity="0.04" stroke-width="0.3"><path d="
M 406.00 16.00 
C 403.20 14.62 398.45 14.23 396.00 16.00
C 398.21 17.72 403.72 17.54 406.00 16.00 Z"/>
</g>
<g fill="None" fill-opacity="0.0" stroke="#FDFDFD" stroke-opacity="0.95" stroke-width="0.3"><path d="
M 471.00 414.00 
C 470.96 413.48 467.74 406.18 469.00 401.00 C 470.26 395.82 468.44 389.78 469.00 384.00 C 469.56 378.22 468.75 373.46 469.00 367.00 C 469.25 360.54 468.91 357.66 469.00 350.00 C 469.09 342.34 468.98 341.80 469.00 332.00 C 469.02 322.20 468.99 307.82 469.00 298.00 C 469.01 288.18 469.01 288.54 469.00 281.00 C 468.99 273.46 469.03 270.51 469.00 264.00 C 468.97 257.49 469.06 252.05 469.00 246.00 C 468.94 239.95 469.15 234.66 469.00 229.00 C 468.86 223.34 469.33 217.26 469.00 212.00 C 468.67 206.74 469.72 199.60 469.00 195.00 C 468.28 190.40 471.40 180.20 467.00 179.00
C 463.06 181.78 453.55 185.20 451.00 189.00
C 447.21 197.29 452.71 209.75 451.00 219.00 C 449.29 228.25 451.77 239.30 451.00 249.00 C 450.23 258.70 451.35 269.04 451.00 279.00 C 450.65 288.96 451.19 299.95 451.00 310.00 C 450.81 320.05 451.15 329.93 451.00 340.00 C 450.85 350.07 451.22 359.86 451.00 370.00 C 450.78 380.14 451.41 390.82 451.00 401.00
C 450.70 408.53 433.80 404.20 425.00 405.00 C 416.20 405.80 402.83 404.63 393.00 405.00 C 383.17 405.37 371.31 404.82 361.00 405.00 C 350.69 405.18 339.56 404.88 329.00 405.00 C 318.44 405.12 307.73 404.85 297.00 405.00 C 286.27 405.15 275.95 404.73 265.00 405.00 C 254.05 405.27 244.36 404.44 233.00 405.00 C 221.64 405.56 213.24 403.77 201.00 405.00 C 188.76 406.23 191.95 392.27 192.00 382.00 C 192.05 371.73 191.98 360.52 192.00 350.00 C 192.02 339.48 191.99 328.68 192.00 318.00 C 192.01 307.32 192.00 295.73 192.00 285.00 C 192.00 274.27 192.01 263.71 192.00 253.00 C 191.99 242.29 192.04 231.72 192.00 221.00 C 191.96 210.28 192.08 199.76 192.00 189.00 C 191.92 178.24 192.18 167.87 192.00 157.00 C 191.82 146.13 192.41 136.11 192.00 125.00 C 191.59 113.89 192.91 104.65 192.00 93.00 C 191.09 81.35 194.01 73.84 192.00 61.00 C 189.99 48.16 202.11 49.38 213.00 50.00 C 223.89 50.62 234.35 49.97 245.00 50.00 C 255.65 50.03 266.60 50.54 277.00 50.00 C 287.40 49.46 299.03 51.46 309.00 50.00 C 318.97 48.54 332.27 53.71 341.00 49.00
C 346.09 42.83 352.19 36.97 359.00 33.00
C 343.97 31.10 325.74 32.09 310.00 32.00 C 294.26 31.91 276.29 31.77 261.00 32.00 C 245.71 32.23 226.13 31.29 212.00 32.00 C 197.87 32.71 175.21 26.10 174.00 43.00 C 172.79 59.90 174.54 75.42 174.00 92.00 C 173.46 108.58 174.24 124.59 174.00 141.00 C 173.76 157.41 174.09 173.69 174.00 190.00 C 173.91 206.31 174.01 222.82 174.00 239.00 C 173.99 255.18 173.94 272.04 174.00 288.00 C 174.06 303.96 173.82 321.51 174.00 337.00 C 174.18 352.49 173.59 371.54 174.00 386.00 C 174.41 400.46 168.56 422.45 186.00 423.00 C 203.44 423.55 218.27 422.79 235.00 423.00 C 251.73 423.21 267.70 423.00 284.00 423.00 C 300.30 423.00 317.16 423.22 333.00 423.00 C 348.84 422.78 366.94 423.57 382.00 423.00 C 397.06 422.43 417.57 424.31 431.00 423.00 C 444.43 421.69 468.62 429.60 471.00 414.00 Z"/>
</g>
<g fill="None" fill-opacity="0.0" stroke="#FFFFFF" stroke-opacity="0.97" stroke-width="0.3"><path d="
M 456.00 170.00 
C 456.31 169.60 456.70 168.99 457.75 166.75 C 458.80 164.52 462.07 165.52 461.00 166.00
C 467.18 159.70 474.41 154.71 477.00 146.00
C 477.27 145.10 477.31 141.51 479.00 140.00
C 480.86 140.46 479.16 142.04 479.00 143.00
C 498.46 110.15 484.33 64.03 453.08 43.92 C 421.84 23.81 375.89 28.55 351.75 58.75 C 327.62 88.96 327.79 132.37 354.75 161.25 C 381.72 190.13 424.29 190.88 456.00 170.00
M 420.00 70.00 
C 422.19 73.13 418.86 80.13 420.00 84.00 C 421.14 87.87 419.14 93.93 420.00 98.00
C 428.83 98.66 438.99 96.67 447.00 99.00
C 447.97 98.77 447.95 100.56 448.00 101.00
C 448.66 106.34 450.49 118.62 443.00 118.00 C 435.50 117.37 427.52 118.68 420.00 118.00
C 419.99 127.67 420.01 137.33 420.00 147.00
C 413.67 147.00 407.33 147.00 401.00 147.00
C 401.00 137.33 401.00 127.67 401.00 118.00
C 392.47 116.72 380.11 120.60 374.00 116.00
C 373.72 112.92 372.32 101.40 374.00 99.00
C 376.12 95.97 383.34 98.82 387.00 98.00 C 390.66 97.18 397.09 98.62 401.00 98.00
C 402.29 88.81 398.39 75.77 403.00 69.00
C 405.35 67.95 418.74 68.20 420.00 70.00 Z"/>
</g>
<g fill="None" fill-opacity="0.0" stroke="#F5F5F5" stroke-opacity="0.01" stroke-width="0.3"><path d="
M 157.00 39.00 
C 158.99 44.71 159.58 36.34 160.00 35.00
C 159.33 36.29 159.06 39.26 157.00 39.00 Z"/>
</g>
<g fill="None" fill-opacity="0.0" stroke="#FBFBFB" stroke-opacity="0.46" stroke-width="0.3"><path d="
M 451.00 401.00 
C 448.22 406.75 432.54 401.77 425.00 403.00 C 417.46 404.23 404.70 402.45 396.00 403.00 C 387.30 403.55 376.23 402.75 367.00 403.00 C 357.77 403.25 347.46 402.90 338.00 403.00 C 328.54 403.10 318.56 402.97 309.00 403.00 C 299.44 403.03 289.59 403.03 280.00 403.00 C 270.41 402.97 260.56 403.11 251.00 403.00 C 241.44 402.89 231.46 403.26 222.00 403.00 C 212.54 402.74 202.56 404.02 194.00 402.00
C 195.67 286.28 195.67 168.74 194.00 53.00
C 206.42 52.77 219.66 53.30 232.00 53.00 C 244.34 52.70 257.95 53.58 270.00 53.00 C 282.05 52.42 296.66 54.25 308.00 53.00 C 319.34 51.75 333.61 57.65 341.00 49.00
C 332.27 53.71 318.97 48.54 309.00 50.00 C 299.03 51.46 287.40 49.46 277.00 50.00 C 266.60 50.54 255.65 50.03 245.00 50.00 C 234.35 49.97 223.89 50.62 213.00 50.00 C 202.11 49.38 189.99 48.16 192.00 61.00 C 194.01 73.84 191.09 81.35 192.00 93.00 C 192.91 104.65 191.59 113.89 192.00 125.00 C 192.41 136.11 191.82 146.13 192.00 157.00 C 192.18 167.87 191.92 178.24 192.00 189.00 C 192.08 199.76 191.96 210.28 192.00 221.00 C 192.04 231.72 191.99 242.29 192.00 253.00 C 192.01 263.71 192.00 274.27 192.00 285.00 C 192.00 295.73 192.01 307.32 192.00 318.00 C 191.99 328.68 192.02 339.48 192.00 350.00 C 191.98 360.52 192.05 371.73 192.00 382.00 C 191.95 392.27 188.76 406.23 201.00 405.00 C 213.24 403.77 221.64 405.56 233.00 405.00 C 244.36 404.44 254.05 405.27 265.00 405.00 C 275.95 404.73 286.27 405.15 297.00 405.00 C 307.73 404.85 318.44 405.12 329.00 405.00 C 339.56 404.88 350.69 405.18 361.00 405.00 C 371.31 404.82 383.17 405.37 393.00 405.00 C 402.83 404.63 416.20 405.80 425.00 405.00 C 433.80 404.20 450.70 408.53 451.00 401.00 Z"/>
</g>
<g fill="None" fill-opacity="0.0" stroke="#FFFFFF" stroke-opacity="0.66" stroke-width="0.3"><path d="
M 374.00 99.00 
C 383.67 99.00 393.33 99.00 403.00 99.00
C 405.07 96.04 402.22 88.77 403.00 85.00 C 403.78 81.23 403.00 75.00 403.00 71.00
C 403.00 70.50 402.81 69.08 403.00 69.00
C 398.39 75.77 402.29 88.81 401.00 98.00
C 397.09 98.62 390.66 97.18 387.00 98.00 C 383.34 98.82 376.12 95.97 374.00 99.00 Z"/>
</g>
<g fill="None" fill-opacity="0.0" stroke="#FFFFFF" stroke-opacity="0.20" stroke-width="0.3"><path d="
M 403.00 71.00 
C 407.18 72.85 413.62 69.61 418.00 71.00
C 418.66 80.50 416.67 91.32 419.00 100.00
C 419.66 90.17 417.67 79.01 420.00 70.00
C 418.74 68.20 405.35 67.95 403.00 69.00
C 402.81 69.08 403.00 70.50 403.00 71.00 Z"/>
</g>
<g fill="None" fill-opacity="0.0" stroke="#FFFFFF" stroke-opacity="0.56" stroke-width="0.3"><path d="
M 419.00 100.00 
C 421.66 101.86 428.44 99.60 432.00 100.00 C 435.56 100.40 442.28 100.54 446.00 100.00
C 446.35 99.95 446.77 99.05 447.00 99.00
C 438.99 96.67 428.83 98.66 420.00 98.00
C 419.14 93.93 421.14 87.87 420.00 84.00 C 418.86 80.13 422.19 73.13 420.00 70.00
C 417.67 79.01 419.66 90.17 419.00 100.00 Z"/>
</g>
<g fill="None" fill-opacity="0.0" stroke="#000000" stroke-opacity="0.00" stroke-width="0.3"><path d="
M 403.00 99.00 
C 400.88 102.03 393.66 99.18 390.00 100.00 C 386.34 100.82 379.91 99.38 376.00 100.00
C 375.47 105.28 377.14 111.15 375.00 116.00
C 384.33 116.00 393.67 116.00 403.00 116.00
C 403.00 125.67 403.00 135.33 403.00 145.00
C 408.00 145.00 413.00 145.00 418.00 145.00
C 419.29 135.81 415.39 122.77 420.00 116.00
C 428.93 115.19 438.07 116.81 447.00 116.00
C 447.25 115.74 447.00 115.00 447.00 115.00
C 445.11 112.44 445.23 103.45 446.00 100.00
C 442.28 100.54 435.56 100.40 432.00 100.00 C 428.44 99.60 421.66 101.86 419.00 100.00
C 416.67 91.32 418.66 80.50 418.00 71.00
C 413.62 69.61 407.18 72.85 403.00 71.00
C 403.00 75.00 403.78 81.23 403.00 85.00 C 402.22 88.77 405.07 96.04 403.00 99.00 Z"/>
</g>
<g fill="None" fill-opacity="0.0" stroke="#FFFFFF" stroke-opacity="0.31" stroke-width="0.3"><path d="
M 374.00 116.00 
C 374.00 116.05 375.00 116.00 375.00 116.00
C 377.14 111.15 375.47 105.28 376.00 100.00
C 379.91 99.38 386.34 100.82 390.00 100.00 C 393.66 99.18 400.88 102.03 403.00 99.00
C 393.33 99.00 383.67 99.00 374.00 99.00
C 372.32 101.40 373.72 112.92 374.00 116.00 Z"/>
</g>
<g fill="None" fill-opacity="0.0" stroke="#FFFFFF" stroke-opacity="0.14" stroke-width="0.3"><path d="
M 446.00 100.00 
C 445.23 103.45 445.11 112.44 447.00 115.00
C 447.00 110.26 447.61 104.99 448.00 101.00
C 447.95 100.56 447.97 98.77 447.00 99.00
C 446.77 99.05 446.35 99.95 446.00 100.00 Z"/>
</g>
<g fill="None" fill-opacity="0.0" stroke="#FFFFFF" stroke-opacity="0.81" stroke-width="0.3"><path d="
M 447.00 115.00 
C 447.00 115.00 447.25 115.74 447.00 116.00
C 444.29 118.80 437.96 116.35 434.00 117.00 C 430.04 117.65 424.15 116.63 420.00 117.00
C 420.00 117.50 420.00 118.00 420.00 118.00
C 427.52 118.68 435.50 117.37 443.00 118.00 C 450.49 118.62 448.66 106.34 448.00 101.00
C 447.61 104.99 447.00 110.26 447.00 115.00 Z"/>
</g>
<g fill="None" fill-opacity="0.0" stroke="#FFFFFF" stroke-opacity="0.42" stroke-width="0.3"><path d="
M 420.00 118.00 
C 420.00 118.00 420.00 117.50 420.00 117.00
C 420.00 116.50 420.00 116.00 420.00 116.00
C 415.39 122.77 419.29 135.81 418.00 145.00
C 413.00 145.00 408.00 145.00 403.00 145.00
C 403.00 135.33 403.00 125.67 403.00 116.00
C 393.67 116.00 384.33 116.00 375.00 116.00
C 375.00 116.00 374.00 116.05 374.00 116.00
C 380.11 120.60 392.47 116.72 401.00 118.00
C 401.00 127.67 401.00 137.33 401.00 147.00
C 407.33 147.00 413.67 147.00 420.00 147.00
C 420.01 137.33 419.99 127.67 420.00 118.00 Z"/>
</g>
<g fill="None" fill-opacity="0.0" stroke="#FFFFFF" stroke-opacity="0.28" stroke-width="0.3"><path d="
M 420.00 117.00 
C 424.15 116.63 430.04 117.65 434.00 117.00 C 437.96 116.35 444.29 118.80 447.00 116.00
C 438.07 116.81 428.93 115.19 420.00 116.00
C 420.00 116.00 420.00 116.50 420.00 117.00 Z"/>
</g>
<g fill="None" fill-opacity="0.0" stroke="#FFFFFF" stroke-opacity="0.40" stroke-width="0.3"><path d="
M 477.00 146.00 
C 477.47 145.23 478.50 143.85 479.00 143.00
C 479.16 142.04 480.86 140.46 479.00 140.00
C 477.31 141.51 477.27 145.10 477.00 146.00 Z"/>
</g>
<g fill="None" fill-opacity="0.0" stroke="#FFFFFF" stroke-opacity="0.92" stroke-width="0.3"><path d="
M 171.00 159.00 
C 148.17 163.34 125.88 169.90 103.00 173.00
C 101.62 181.62 121.38 188.08 116.23 195.23 C 111.08 202.38 101.93 207.15 95.75 213.75 C 89.57 220.35 82.15 226.72 75.00 232.00
C 77.11 238.93 84.93 243.51 89.00 249.00
C 96.29 243.34 102.45 236.54 109.75 230.75 C 117.06 224.96 122.13 217.29 129.77 211.77 C 137.41 206.25 143.19 224.99 150.00 226.00
C 158.34 204.53 164.67 181.66 171.00 159.00 Z"/>
</g>
<g fill="None" fill-opacity="0.0" stroke="#EFEFEF" stroke-opacity="0.36" stroke-width="0.3"><path d="
M 225.00 179.00 
C 224.75 178.74 225.00 178.00 225.00 178.00
C 216.99 172.40 219.22 159.89 230.03 161.98 C 240.83 164.07 254.62 161.13 266.00 162.00 C 277.38 162.87 290.45 161.74 302.00 162.00 C 313.55 162.26 325.88 162.62 337.00 161.00
C 328.78 154.57 312.91 160.65 302.00 159.00 C 291.09 157.35 276.35 159.90 265.00 159.00 C 253.65 158.10 239.23 159.72 228.07 159.07 C 216.92 158.42 214.10 178.96 225.00 179.00 Z"/>
</g>
<g fill="None" fill-opacity="0.0" stroke="#FEFEFE" stroke-opacity="0.99" stroke-width="0.3"><path d="
M 225.00 178.00 
C 232.75 180.62 246.52 176.22 255.00 178.00 C 263.48 179.78 265.11 177.10 272.00 178.00 C 278.89 178.90 281.99 177.50 288.00 178.00 C 294.01 178.50 298.43 177.57 304.00 178.00 C 309.57 178.43 315.76 177.35 321.00 178.00 C 326.24 178.65 332.35 176.63 337.00 178.00 C 341.65 179.37 350.02 176.00 350.00 176.00
C 345.08 171.88 341.94 164.86 337.00 161.00
C 325.88 162.62 313.55 162.26 302.00 162.00 C 290.45 161.74 277.38 162.87 266.00 162.00 C 254.62 161.13 240.83 164.07 230.03 161.98 C 219.22 159.89 216.99 172.40 225.00 178.00 Z"/>
</g>
<g fill="None" fill-opacity="0.0" stroke="#FFFFFF" stroke-opacity="0.42" stroke-width="0.3"><path d="
M 456.00 170.00 
C 458.16 168.58 459.42 167.61 461.00 166.00
C 462.07 165.52 458.80 164.52 457.75 166.75 C 456.70 168.99 456.31 169.60 456.00 170.00 Z"/>
</g>
<g fill="None" fill-opacity="0.0" stroke="#FEFEFE" stroke-opacity="0.53" stroke-width="0.3"><path d="
M 225.00 178.00 
C 225.00 178.00 224.75 178.74 225.00 179.00
C 267.19 180.67 312.73 180.67 355.00 179.00
C 353.64 177.63 351.44 177.21 350.00 176.00
C 350.02 176.00 341.65 179.37 337.00 178.00 C 332.35 176.63 326.24 178.65 321.00 178.00 C 315.76 177.35 309.57 178.43 304.00 178.00 C 298.43 177.57 294.01 178.50 288.00 178.00 C 281.99 177.50 278.89 178.90 272.00 178.00 C 265.11 177.10 263.48 179.78 255.00 178.00 C 246.52 176.22 232.75 180.62 225.00 178.00 Z"/>
</g>
<g fill="None" fill-opacity="0.0" stroke="#F2F2F2" stroke-opacity="0.41" stroke-width="0.3"><path d="
M 467.00 179.00 
C 471.40 180.20 468.28 190.40 469.00 195.00 C 469.72 199.60 468.67 206.74 469.00 212.00 C 469.33 217.26 468.86 223.34 469.00 229.00 C 469.15 234.66 468.94 239.95 469.00 246.00 C 469.06 252.05 468.97 257.49 469.00 264.00 C 469.03 270.51 468.99 273.46 469.00 281.00 C 469.01 288.54 469.01 288.18 469.00 298.00 C 468.99 307.82 469.02 322.20 469.00 332.00 C 468.98 341.80 469.09 342.34 469.00 350.00 C 468.91 357.66 469.25 360.54 469.00 367.00 C 468.75 373.46 469.56 378.22 469.00 384.00 C 468.44 389.78 470.26 395.82 469.00 401.00 C 467.74 406.18 470.96 413.48 471.00 414.00
C 471.00 334.67 471.00 255.33 471.00 176.00
C 469.07 176.15 468.26 178.11 467.00 179.00 Z"/>
</g>
<g fill="None" fill-opacity="0.0" stroke="#F2F2F2" stroke-opacity="0.08" stroke-width="0.3"><path d="
M 194.00 402.00 
C 202.56 404.02 212.54 402.74 222.00 403.00 C 231.46 403.26 241.44 402.89 251.00 403.00 C 260.56 403.11 270.41 402.97 280.00 403.00 C 289.59 403.03 299.44 403.03 309.00 403.00 C 318.56 402.97 328.54 403.10 338.00 403.00 C 347.46 402.90 357.77 403.25 367.00 403.00 C 376.23 402.75 387.30 403.55 396.00 403.00 C 404.70 402.45 417.46 404.23 425.00 403.00 C 432.54 401.77 448.22 406.75 451.00 401.00
C 451.41 390.82 450.78 380.14 451.00 370.00 C 451.22 359.86 450.85 350.07 451.00 340.00 C 451.15 329.93 450.81 320.05 451.00 310.00 C 451.19 299.95 450.65 288.96 451.00 279.00 C 451.35 269.04 450.23 258.70 451.00 249.00 C 451.77 239.30 449.29 228.25 451.00 219.00 C 452.71 209.75 447.21 197.29 451.00 189.00
C 448.67 259.01 450.66 331.17 450.00 402.00
C 364.67 402.00 279.33 402.00 194.00 402.00 Z"/>
</g>
<g fill="None" fill-opacity="0.0" stroke="#F4F4F4" stroke-opacity="0.20" stroke-width="0.3"><path d="
M 225.00 198.00 
C 241.43 194.71 260.91 199.27 279.00 198.00 C 297.09 196.73 317.60 198.22 336.00 198.00 C 354.40 197.78 374.34 197.75 392.00 197.00
C 379.20 194.92 364.93 194.49 351.00 195.00 C 337.07 195.51 321.87 194.39 308.00 195.00 C 294.13 195.61 278.51 193.87 265.00 195.00 C 251.49 196.13 235.80 191.24 225.00 198.00 Z"/>
</g>
<g fill="None" fill-opacity="0.0" stroke="#FEFEFE" stroke-opacity="0.98" stroke-width="0.3"><path d="
M 225.00 198.00 
C 221.98 199.89 220.44 199.25 219.00 203.00
C 219.59 202.18 221.11 202.06 222.00 202.00
C 219.39 206.43 221.27 213.52 226.00 215.00
C 228.73 210.80 240.43 215.17 246.00 214.00 C 251.57 212.83 261.50 214.54 268.00 214.00 C 274.50 213.46 283.14 214.27 290.00 214.00 C 296.86 213.73 303.94 214.15 311.00 214.00 C 318.06 213.85 325.85 214.14 333.00 214.00 C 340.15 213.86 347.87 214.22 355.00 214.00 C 362.13 213.78 368.93 214.47 376.00 214.00 C 383.07 213.53 391.05 214.99 398.00 214.00 C 404.95 213.01 413.42 216.16 420.00 214.00
C 420.69 213.30 425.46 207.65 426.00 210.00
C 430.44 192.37 401.99 198.62 392.00 197.00
C 374.34 197.75 354.40 197.78 336.00 198.00 C 317.60 198.22 297.09 196.73 279.00 198.00 C 260.91 199.27 241.43 194.71 225.00 198.00 Z"/>
</g>
<g fill="None" fill-opacity="0.0" stroke="#F4F4F4" stroke-opacity="0.31" stroke-width="0.3"><path d="
M 219.00 203.00 
C 216.98 208.24 219.80 215.58 226.00 217.00
C 225.81 216.92 226.25 215.24 226.00 215.00
C 221.27 213.52 219.39 206.43 222.00 202.00
C 221.11 202.06 219.59 202.18 219.00 203.00 Z"/>
</g>
<g fill="None" fill-opacity="0.0" stroke="#F6F6F6" stroke-opacity="0.24" stroke-width="0.3"><path d="
M 420.00 214.00 
C 419.72 214.29 417.91 217.05 418.00 217.00
C 421.39 216.31 425.13 213.46 426.00 210.00
C 425.46 207.65 420.69 213.30 420.00 214.00 Z"/>
</g>
<g fill="None" fill-opacity="0.0" stroke="#FEFEFE" stroke-opacity="0.57" stroke-width="0.3"><path d="
M 226.00 215.00 
C 226.25 215.24 225.81 216.92 226.00 217.00
C 241.09 220.45 258.47 215.68 274.00 217.00 C 289.53 218.32 306.33 216.93 322.00 217.00 C 337.67 217.07 354.41 218.14 370.00 217.00 C 385.59 215.86 402.77 220.10 418.00 217.00
C 417.91 217.05 419.72 214.29 420.00 214.00
C 413.42 216.16 404.95 213.01 398.00 214.00 C 391.05 214.99 383.07 213.53 376.00 214.00 C 368.93 214.47 362.13 213.78 355.00 214.00 C 347.87 214.22 340.15 213.86 333.00 214.00 C 325.85 214.14 318.06 213.85 311.00 214.00 C 303.94 214.15 296.86 213.73 290.00 214.00 C 283.14 214.27 274.50 213.46 268.00 214.00 C 261.50 214.54 251.57 212.83 246.00 214.00 C 240.43 215.17 228.73 210.80 226.00 215.00 Z"/>
</g>
<g fill="None" fill-opacity="0.0" stroke="#EFEFEF" stroke-opacity="0.43" stroke-width="0.3"><path d="
M 219.00 241.00 
C 218.68 244.42 220.04 244.75 221.00 247.00
C 219.73 241.46 220.93 237.12 226.00 234.00
C 289.75 235.67 355.25 235.66 419.00 234.00
C 421.31 235.87 423.23 241.33 426.00 240.00
C 422.75 227.06 399.68 234.31 388.00 233.00 C 376.32 231.69 357.13 233.40 344.00 233.00 C 330.87 232.60 312.37 232.81 299.00 233.00 C 285.63 233.19 267.62 232.04 255.00 233.00 C 242.38 233.96 222.89 227.38 219.00 241.00 Z"/>
</g>
<g fill="None" fill-opacity="0.0" stroke="#FEFEFE" stroke-opacity="0.98" stroke-width="0.3"><path d="
M 221.00 247.00 
C 221.26 248.13 221.45 250.86 223.00 252.00
C 223.00 252.00 223.50 252.00 224.00 252.00
C 288.38 252.00 354.49 249.74 418.00 253.00
C 419.40 252.68 419.95 252.51 421.00 252.00
C 419.90 253.04 426.09 246.27 425.00 248.00
C 425.87 246.00 426.67 242.68 426.00 240.00
C 423.23 241.33 421.31 235.87 419.00 234.00
C 355.25 235.66 289.75 235.67 226.00 234.00
C 220.93 237.12 219.73 241.46 221.00 247.00 Z"/>
</g>
<g fill="None" fill-opacity="0.0" stroke="#F8F8F8" stroke-opacity="0.13" stroke-width="0.3"><path d="
M 223.00 252.00 
C 221.45 250.86 221.26 248.13 221.00 247.00
C 220.04 244.75 218.68 244.42 219.00 241.00
C 217.84 245.08 218.08 249.59 223.00 252.00 Z"/>
</g>
<g fill="None" fill-opacity="0.0" stroke="#F4F4F4" stroke-opacity="0.19" stroke-width="0.3"><path d="
M 421.00 252.00 
C 423.50 250.78 423.96 250.39 425.00 248.00
C 426.09 246.27 419.90 253.04 421.00 252.00 Z"/>
</g>
<g fill="None" fill-opacity="0.0" stroke="#9C9C9C" stroke-opacity="0.02" stroke-width="0.3"><path d="
M 46.00 253.00 
C 40.12 246.89 29.94 258.80 33.00 265.00
C 34.48 259.70 38.50 251.51 46.00 253.00 Z"/>
</g>
<g fill="None" fill-opacity="0.0" stroke="#FEFEFE" stroke-opacity="0.20" stroke-width="0.3"><path d="
M 418.00 253.00 
C 354.49 249.74 288.38 252.00 224.00 252.00
C 232.79 259.13 250.42 252.10 262.00 254.00 C 273.58 255.90 288.59 253.27 301.00 254.00 C 313.41 254.73 328.32 253.88 341.00 254.00 C 353.68 254.12 367.37 254.45 380.00 254.00 C 392.63 253.55 405.94 255.78 418.00 253.00 Z"/>
</g>
<g fill="None" fill-opacity="0.0" stroke="#FCFCFC" stroke-opacity="0.85" stroke-width="0.3"><path d="
M 198.00 441.00 
C 197.69 445.83 198.41 451.23 198.00 456.00 C 197.59 460.77 199.65 467.13 196.00 468.00
C 148.33 468.00 100.67 468.00 53.00 468.00
C 53.00 402.67 53.00 337.33 53.00 272.00
C 88.33 272.00 123.67 272.00 159.00 272.00
C 161.64 284.01 153.29 302.32 164.00 310.00
C 164.00 293.33 164.00 276.67 164.00 260.00
C 148.81 259.67 133.14 260.44 118.00 260.00 C 102.86 259.56 86.96 260.84 72.00 260.00 C 57.04 259.16 39.15 257.16 41.00 275.00 C 42.85 292.84 40.40 303.47 41.00 320.00 C 41.60 336.53 41.18 349.82 41.00 366.00 C 40.82 382.18 42.08 395.60 41.00 412.00 C 39.92 428.40 43.70 440.67 41.00 458.00 C 38.30 475.33 46.94 482.81 64.00 480.00 C 81.06 477.19 94.05 481.66 110.00 480.00 C 125.95 478.34 140.75 481.61 156.00 480.00 C 171.25 478.39 187.48 482.66 201.97 479.97 C 216.47 477.29 203.59 450.54 208.00 441.00
C 205.14 441.98 200.70 439.69 198.00 441.00 Z"/>
</g>
<g fill="None" fill-opacity="0.0" stroke="#F4F4F4" stroke-opacity="0.31" stroke-width="0.3"><path d="
M 227.00 290.00 
C 224.19 283.73 214.21 277.00 226.00 271.00
C 241.44 272.92 257.05 271.88 273.00 272.00 C 288.95 272.12 305.99 272.13 322.00 272.00 C 338.01 271.87 355.13 272.46 371.00 272.00 C 386.87 271.54 403.85 274.01 418.00 270.00
C 404.81 264.04 387.82 269.58 373.00 268.00 C 358.18 266.42 341.06 269.18 326.00 268.00 C 310.94 266.82 295.01 269.55 280.00 268.00 C 264.99 266.45 247.64 270.91 233.00 268.00 C 218.36 265.10 212.25 290.50 227.00 290.00 Z"/>
</g>
<g fill="None" fill-opacity="0.0" stroke="#FEFEFE" stroke-opacity="0.98" stroke-width="0.3"><path d="
M 227.00 290.00 
C 227.00 290.00 227.62 289.78 228.00 290.00
C 235.29 284.60 249.42 290.73 259.00 289.00 C 268.58 287.27 281.69 289.82 292.00 289.00 C 302.31 288.18 314.42 289.47 325.00 289.00 C 335.58 288.53 347.43 289.42 358.00 289.00 C 368.57 288.58 380.72 289.65 391.00 289.00 C 401.28 288.35 412.76 290.70 421.00 288.00
C 430.16 282.95 425.92 273.58 418.00 270.00
C 403.85 274.01 386.87 271.54 371.00 272.00 C 355.13 272.46 338.01 271.87 322.00 272.00 C 305.99 272.13 288.95 272.12 273.00 272.00 C 257.05 271.88 241.44 272.92 226.00 271.00
C 214.21 277.00 224.19 283.73 227.00 290.00 Z"/>
</g>
<g fill="None" fill-opacity="0.0" stroke="#FCFCFC" stroke-opacity="0.15" stroke-width="0.3"><path d="
M 228.00 290.00 
C 236.63 294.94 249.94 289.44 260.00 291.00 C 270.06 292.56 282.46 290.30 293.00 291.00 C 303.54 291.70 315.28 290.69 326.00 291.00 C 336.72 291.31 348.30 290.88 359.00 291.00 C 369.70 291.12 381.51 290.99 392.00 291.00 C 402.49 291.01 413.28 292.25 421.00 288.00
C 412.76 290.70 401.28 288.35 391.00 289.00 C 380.72 289.65 368.57 288.58 358.00 289.00 C 347.43 289.42 335.58 288.53 325.00 289.00 C 314.42 289.47 302.31 288.18 292.00 289.00 C 281.69 289.82 268.58 287.27 259.00 289.00 C 249.42 290.73 235.29 284.60 228.00 290.00 Z"/>
</g>
<g fill="None" fill-opacity="0.0" stroke="#A7A7A7" stroke-opacity="0.02" stroke-width="0.3"><path d="
M 216.00 295.00 
C 213.19 296.98 217.07 300.29 216.00 303.00
C 217.88 301.30 217.23 297.13 216.00 295.00 Z"/>
</g>
<g fill="None" fill-opacity="0.0" stroke="#EFEFEF" stroke-opacity="0.36" stroke-width="0.3"><path d="
M 221.00 322.00 
C 215.14 302.95 240.23 308.02 255.00 308.00 C 269.77 307.98 292.51 308.11 309.00 308.00 C 325.49 307.89 345.81 308.26 363.00 308.00 C 380.19 307.74 400.07 309.02 417.00 307.00
C 420.18 308.68 422.20 313.40 426.00 314.00
C 423.38 301.04 404.79 306.97 394.00 306.00 C 383.21 305.03 366.93 306.55 355.00 306.00 C 343.07 305.45 328.35 306.50 316.00 306.00 C 303.65 305.50 289.34 306.79 277.00 306.00 C 264.66 305.21 249.88 307.60 238.00 306.00 C 226.12 304.40 212.48 311.10 221.00 322.00 Z"/>
</g>
<g fill="None" fill-opacity="0.0" stroke="#FEFEFE" stroke-opacity="0.92" stroke-width="0.3"><path d="
M 221.00 322.00 
C 229.04 332.28 247.75 325.62 261.00 327.00 C 274.25 328.38 292.31 326.36 306.00 327.00 C 319.69 327.64 336.65 326.72 350.00 327.00 C 363.35 327.28 382.92 326.87 395.00 327.00 C 407.08 327.13 429.40 330.80 426.00 314.00
C 422.20 313.40 420.18 308.68 417.00 307.00
C 400.07 309.02 380.19 307.74 363.00 308.00 C 345.81 308.26 325.49 307.89 309.00 308.00 C 292.51 308.11 269.77 307.98 255.00 308.00 C 240.23 308.02 215.14 302.95 221.00 322.00 Z"/>
</g>
<g fill="None" fill-opacity="0.0" stroke="#FCFCFC" stroke-opacity="0.92" stroke-width="0.3"><path d="
M 68.00 341.00 
C 72.48 345.43 83.00 340.67 90.00 342.00 C 97.00 343.33 107.35 341.29 115.00 342.00 C 122.65 342.71 132.14 341.45 140.00 342.00 C 147.86 342.55 156.57 340.79 164.00 343.00
C 164.00 339.33 164.00 335.67 164.00 332.00
C 153.03 331.69 137.51 332.42 127.00 332.00 C 116.49 331.58 99.86 332.82 91.00 332.00 C 82.14 331.18 60.42 330.78 68.00 341.00 Z"/>
</g>
<g fill="None" fill-opacity="0.0" stroke="#FEFEFE" stroke-opacity="0.43" stroke-width="0.3"><path d="
M 164.00 343.00 
C 156.57 340.79 147.86 342.55 140.00 342.00 C 132.14 341.45 122.65 342.71 115.00 342.00 C 107.35 341.29 97.00 343.33 90.00 342.00 C 83.00 340.67 72.48 345.43 68.00 341.00
C 74.26 349.44 95.90 341.21 105.00 344.00 C 114.10 346.79 117.82 343.17 125.00 344.00 C 132.18 344.83 139.39 344.58 145.00 344.00 C 150.61 343.42 161.30 346.85 164.00 343.00 Z"/>
</g>
<g fill="None" fill-opacity="0.0" stroke="#FDFDFD" stroke-opacity="0.94" stroke-width="0.3"><path d="
M 225.00 344.00 
C 219.24 347.04 218.59 359.73 227.00 363.00
C 237.02 360.97 247.51 362.29 258.00 362.00 C 268.49 361.71 279.42 362.19 290.00 362.00 C 300.58 361.81 311.40 362.21 322.00 362.00 C 332.60 361.79 343.43 362.38 354.00 362.00 C 364.57 361.62 375.52 362.81 386.00 362.00 C 396.48 361.19 407.73 363.77 418.00 362.00 C 428.27 360.23 423.51 345.77 419.00 344.00
C 404.51 340.07 386.68 343.84 371.00 343.00 C 355.32 342.16 337.76 342.76 322.00 343.00 C 306.24 343.24 288.46 341.52 273.00 343.00 C 257.54 344.48 238.98 338.84 225.00 344.00 Z"/>
</g>
<g fill="None" fill-opacity="0.0" stroke="#F5F5F5" stroke-opacity="0.27" stroke-width="0.3"><path d="
M 419.00 344.00 
C 423.51 345.77 428.27 360.23 418.00 362.00 C 407.73 363.77 396.48 361.19 386.00 362.00 C 375.52 362.81 364.57 361.62 354.00 362.00 C 343.43 362.38 332.60 361.79 322.00 362.00 C 311.40 362.21 300.58 361.81 290.00 362.00 C 279.42 362.19 268.49 361.71 258.00 362.00 C 247.51 362.29 237.02 360.97 227.00 363.00
C 218.59 359.73 219.24 347.04 225.00 344.00
C 210.39 349.39 221.47 366.81 235.00 364.00 C 248.53 361.19 264.97 365.08 279.00 364.00 C 293.03 362.92 307.77 363.97 322.00 364.00 C 336.23 364.03 351.76 362.91 366.00 364.00 C 380.24 365.09 396.04 361.12 410.00 364.00 C 423.96 366.88 433.54 347.94 419.00 344.00 Z"/>
</g>
<g fill="None" fill-opacity="0.0" stroke="#F1F1F1" stroke-opacity="0.40" stroke-width="0.3"><path d="
M 71.00 353.00 
C 80.23 351.51 90.96 355.40 101.00 354.00 C 111.04 352.60 122.79 354.93 133.00 354.00 C 143.21 353.07 154.22 355.51 164.00 353.00
C 161.35 349.21 150.96 353.02 146.00 352.00 C 141.04 350.98 132.67 352.41 127.00 352.00 C 121.33 351.59 113.94 352.08 108.00 352.00 C 102.06 351.92 94.96 351.79 89.00 352.00 C 83.04 352.21 76.12 350.92 71.00 353.00 Z"/>
</g>
<g fill="None" fill-opacity="0.0" stroke="#FEFEFE" stroke-opacity="0.92" stroke-width="0.3"><path d="
M 164.00 353.00 
C 154.22 355.51 143.21 353.07 133.00 354.00 C 122.79 354.93 111.04 352.60 101.00 354.00 C 90.96 355.40 80.23 351.51 71.00 353.00
C 58.76 363.51 77.04 365.05 88.00 364.00 C 98.96 362.95 114.22 364.55 126.00 364.00 C 137.78 363.45 152.00 364.41 164.00 364.00
C 162.71 361.24 165.72 355.46 164.00 353.00 Z"/>
</g>
<g fill="None" fill-opacity="0.0" stroke="#FCFCFC" stroke-opacity="0.91" stroke-width="0.3"><path d="
M 68.00 382.00 
C 73.88 387.62 88.92 381.11 98.00 383.00 C 107.08 384.89 121.00 382.02 131.00 383.00 C 141.00 383.98 153.75 382.26 164.00 383.00
C 164.00 379.67 164.00 376.33 164.00 373.00
C 153.02 372.67 137.53 373.45 127.00 373.00 C 116.47 372.55 99.91 373.88 91.00 373.00 C 82.09 372.12 60.30 371.95 68.00 382.00 Z"/>
</g>
<g fill="None" fill-opacity="0.0" stroke="#FEFEFE" stroke-opacity="0.42" stroke-width="0.3"><path d="
M 164.00 383.00 
C 153.75 382.26 141.00 383.98 131.00 383.00 C 121.00 382.02 107.08 384.89 98.00 383.00 C 88.92 381.11 73.88 387.62 68.00 382.00
C 72.59 388.00 83.78 384.38 91.00 385.00 C 98.22 385.62 108.77 385.09 116.00 385.00 C 123.23 384.91 134.51 385.86 141.00 385.00 C 147.49 384.14 161.53 388.11 164.00 383.00 Z"/>
</g>
<g fill="None" fill-opacity="0.0" stroke="#FCFCFC" stroke-opacity="0.84" stroke-width="0.3"><path d="
M 164.00 393.00 
C 153.96 393.04 144.06 392.95 134.00 393.00 C 123.94 393.05 114.11 392.90 104.00 393.00 C 93.89 393.10 84.25 392.79 74.01 393.01 C 63.77 393.23 64.68 406.38 75.00 405.00 C 85.32 403.62 94.90 405.65 105.00 405.00 C 115.10 404.35 125.04 405.35 135.00 405.00 C 144.96 404.65 154.11 405.26 164.00 405.00
C 164.00 401.00 164.00 397.00 164.00 393.00 Z"/>
</g>
<g fill="None" fill-opacity="0.0" stroke="#FCFCFC" stroke-opacity="0.84" stroke-width="0.3"><path d="
M 160.00 426.00 
C 161.01 426.16 162.15 426.34 163.00 427.00
C 165.04 423.12 163.55 418.30 164.00 414.00
C 153.74 414.70 139.91 413.06 130.00 414.00 C 120.09 414.94 104.60 412.21 96.00 414.00 C 87.40 415.79 68.90 408.23 66.33 418.33 C 63.77 428.42 83.87 425.94 92.00 426.00 C 100.13 426.06 116.42 425.41 126.00 426.00 C 135.58 426.59 150.15 424.49 160.00 426.00 Z"/>
</g>
<g fill="None" fill-opacity="0.0" stroke="#9C9C9C" stroke-opacity="0.03" stroke-width="0.3"><path d="
M 462.00 440.00 
C 476.04 442.54 492.00 426.91 485.00 415.00
C 484.83 420.90 482.03 426.90 477.74 431.74 C 473.46 436.59 465.09 435.57 462.00 440.00 Z"/>
</g>
<g fill="None" fill-opacity="0.0" stroke="#9A9A9A" stroke-opacity="0.03" stroke-width="0.3"><path d="
M 163.00 427.00 
C 162.15 426.34 161.01 426.16 160.00 426.00
C 161.83 434.47 173.22 443.18 183.00 439.00
C 174.33 438.09 169.16 431.75 163.00 427.00 Z"/>
</g>
<g fill="None" fill-opacity="0.0" stroke="#FCFCFC" stroke-opacity="0.85" stroke-width="0.3"><path d="
M 164.00 434.00 
C 151.48 432.53 137.36 435.96 125.00 434.00 C 112.64 432.04 97.77 437.75 86.00 434.00 C 74.23 430.25 58.97 442.09 72.00 446.00 C 85.03 449.91 98.34 444.49 111.00 446.00 C 123.66 447.51 137.93 445.87 150.00 446.00 C 162.07 446.13 175.91 449.53 183.00 441.00
C 176.28 439.46 161.13 445.69 164.00 434.00 Z"/>
</g>
<g fill="None" fill-opacity="0.0" stroke="#F8F8F8" stroke-opacity="0.45" stroke-width="0.3"><path d="
M 196.00 468.00 
C 199.65 467.13 197.59 460.77 198.00 456.00 C 198.41 451.23 197.69 445.83 198.00 441.00
C 194.85 442.53 195.53 450.18 196.00 454.00 C 196.47 457.82 194.33 464.63 196.00 468.00 Z"/>
</g>
<g fill="None" fill-opacity="0.0" stroke="#9C9C9C" stroke-opacity="0.03" stroke-width="0.3"><path d="
M 46.00 487.00 
C 38.62 488.40 33.95 480.68 33.00 475.00
C 29.05 480.94 41.06 493.85 46.00 487.00 Z"/>
</g>
<g fill="None" fill-opacity="0.0" stroke="#999999" stroke-opacity="0.02" stroke-width="0.3"><path d="
M 217.00 475.00 
C 214.99 481.95 209.53 486.86 203.00 489.00
C 210.69 490.43 218.41 482.68 217.00 475.00 Z"/>
</g>
<g fill="#000000" fill-opacity="0.00" stroke="None">
<path d="
M 0.00 512.00 
L 512.00 512.00
L 512.00 0.00
L 0.00 0.00
L 0.00 512.00
M 177.00 18.00 
C 168.24 23.11 165.22 24.91 160.00 35.00
C 159.58 36.34 158.99 44.71 157.00 39.00
C 153.13 27.90 169.54 13.17 180.00 15.00
C 180.97 15.17 182.02 14.86 183.00 15.00
C 182.02 17.50 179.54 18.45 177.00 18.00
M 406.00 16.00 
C 403.72 17.54 398.21 17.72 396.00 16.00
C 398.45 14.23 403.20 14.62 406.00 16.00
M 341.00 49.00 
C 333.61 57.65 319.34 51.75 308.00 53.00 C 296.66 54.25 282.05 52.42 270.00 53.00 C 257.95 53.58 244.34 52.70 232.00 53.00 C 219.66 53.30 206.42 52.77 194.00 53.00
C 195.67 168.74 195.67 286.28 194.00 402.00
C 279.33 402.00 364.67 402.00 450.00 402.00
C 450.66 331.17 448.67 259.01 451.00 189.00
C 453.55 185.20 463.06 181.78 467.00 179.00
C 468.26 178.11 469.07 176.15 471.00 176.00
C 471.00 255.33 471.00 334.67 471.00 414.00
C 468.62 429.60 444.43 421.69 431.00 423.00 C 417.57 424.31 397.06 422.43 382.00 423.00 C 366.94 423.57 348.84 422.78 333.00 423.00 C 317.16 423.22 300.30 423.00 284.00 423.00 C 267.70 423.00 251.73 423.21 235.00 423.00 C 218.27 422.79 203.44 423.55 186.00 423.00 C 168.56 422.45 174.41 400.46 174.00 386.00 C 173.59 371.54 174.18 352.49 174.00 337.00 C 173.82 321.51 174.06 303.96 174.00 288.00 C 173.94 272.04 173.99 255.18 174.00 239.00 C 174.01 222.82 173.91 206.31 174.00 190.00 C 174.09 173.69 173.76 157.41 174.00 141.00 C 174.24 124.59 173.46 108.58 174.00 92.00 C 174.54 75.42 172.79 59.90 174.00 43.00 C 175.21 26.10 197.87 32.71 212.00 32.00 C 226.13 31.29 245.71 32.23 261.00 32.00 C 276.29 31.77 294.26 31.91 310.00 32.00 C 325.74 32.09 343.97 31.10 359.00 33.00
C 352.19 36.97 346.09 42.83 341.00 49.00
M 479.00 143.00 
C 478.50 143.85 477.47 145.23 477.00 146.00
C 474.41 154.71 467.18 159.70 461.00 166.00
C 459.42 167.61 458.16 168.58 456.00 170.00
C 424.29 190.88 381.72 190.13 354.75 161.25 C 327.79 132.37 327.62 88.96 351.75 58.75 C 375.89 28.55 421.84 23.81 453.08 43.92 C 484.33 64.03 498.46 110.15 479.00 143.00
M 171.00 159.00 
C 164.67 181.66 158.34 204.53 150.00 226.00
C 143.19 224.99 137.41 206.25 129.77 211.77 C 122.13 217.29 117.06 224.96 109.75 230.75 C 102.45 236.54 96.29 243.34 89.00 249.00
C 84.93 243.51 77.11 238.93 75.00 232.00
C 82.15 226.72 89.57 220.35 95.75 213.75 C 101.93 207.15 111.08 202.38 116.23 195.23 C 121.38 188.08 101.62 181.62 103.00 173.00
C 125.88 169.90 148.17 163.34 171.00 159.00
M 337.00 161.00 
C 341.94 164.86 345.08 171.88 350.00 176.00
C 351.44 177.21 353.64 177.63 355.00 179.00
C 312.73 180.67 267.19 180.67 225.00 179.00
C 214.10 178.96 216.92 158.42 228.07 159.07 C 239.23 159.72 253.65 158.10 265.00 159.00 C 276.35 159.90 291.09 157.35 302.00 159.00 C 312.91 160.65 328.78 154.57 337.00 161.00
M 392.00 197.00 
C 401.99 198.62 430.44 192.37 426.00 210.00
C 425.13 213.46 421.39 216.31 418.00 217.00
C 402.77 220.10 385.59 215.86 370.00 217.00 C 354.41 218.14 337.67 217.07 322.00 217.00 C 306.33 216.93 289.53 218.32 274.00 217.00 C 258.47 215.68 241.09 220.45 226.00 217.00
C 219.80 215.58 216.98 208.24 219.00 203.00
C 220.44 199.25 221.98 199.89 225.00 198.00
C 235.80 191.24 251.49 196.13 265.00 195.00 C 278.51 193.87 294.13 195.61 308.00 195.00 C 321.87 194.39 337.07 195.51 351.00 195.00 C 364.93 194.49 379.20 194.92 392.00 197.00
M 426.00 240.00 
C 426.67 242.68 425.87 246.00 425.00 248.00
C 423.96 250.39 423.50 250.78 421.00 252.00
C 419.95 252.51 419.40 252.68 418.00 253.00
C 405.94 255.78 392.63 253.55 380.00 254.00 C 367.37 254.45 353.68 254.12 341.00 254.00 C 328.32 253.88 313.41 254.73 301.00 254.00 C 288.59 253.27 273.58 255.90 262.00 254.00 C 250.42 252.10 232.79 259.13 224.00 252.00
C 223.50 252.00 223.00 252.00 223.00 252.00
C 218.08 249.59 217.84 245.08 219.00 241.00
C 222.89 227.38 242.38 233.96 255.00 233.00 C 267.62 232.04 285.63 233.19 299.00 233.00 C 312.37 232.81 330.87 232.60 344.00 233.00 C 357.13 233.40 376.32 231.69 388.00 233.00 C 399.68 234.31 422.75 227.06 426.00 240.00
M 46.00 253.00 
C 38.50 251.51 34.48 259.70 33.00 265.00
C 29.94 258.80 40.12 246.89 46.00 253.00
M 196.00 468.00 
C 194.33 464.63 196.47 457.82 196.00 454.00 C 195.53 450.18 194.85 442.53 198.00 441.00
C 200.70 439.69 205.14 441.98 208.00 441.00
C 203.59 450.54 216.47 477.29 201.97 479.97 C 187.48 482.66 171.25 478.39 156.00 480.00 C 140.75 481.61 125.95 478.34 110.00 480.00 C 94.05 481.66 81.06 477.19 64.00 480.00 C 46.94 482.81 38.30 475.33 41.00 458.00 C 43.70 440.67 39.92 428.40 41.00 412.00 C 42.08 395.60 40.82 382.18 41.00 366.00 C 41.18 349.82 41.60 336.53 41.00 320.00 C 40.40 303.47 42.85 292.84 41.00 275.00 C 39.15 257.16 57.04 259.16 72.00 260.00 C 86.96 260.84 102.86 259.56 118.00 260.00 C 133.14 260.44 148.81 259.67 164.00 260.00
C 164.00 276.67 164.00 293.33 164.00 310.00
C 153.29 302.32 161.64 284.01 159.00 272.00
C 123.67 272.00 88.33 272.00 53.00 272.00
C 53.00 337.33 53.00 402.67 53.00 468.00
C 100.67 468.00 148.33 468.00 196.00 468.00
M 418.00 270.00 
C 425.92 273.58 430.16 282.95 421.00 288.00
C 413.28 292.25 402.49 291.01 392.00 291.00 C 381.51 290.99 369.70 291.12 359.00 291.00 C 348.30 290.88 336.72 291.31 326.00 291.00 C 315.28 290.69 303.54 291.70 293.00 291.00 C 282.46 290.30 270.06 292.56 260.00 291.00 C 249.94 289.44 236.63 294.94 228.00 290.00
C 227.62 289.78 227.00 290.00 227.00 290.00
C 212.25 290.50 218.36 265.10 233.00 268.00 C 247.64 270.91 264.99 266.45 280.00 268.00 C 295.01 269.55 310.94 266.82 326.00 268.00 C 341.06 269.18 358.18 266.42 373.00 268.00 C 387.82 269.58 404.81 264.04 418.00 270.00
M 216.00 295.00 
C 217.23 297.13 217.88 301.30 216.00 303.00
C 217.07 300.29 213.19 296.98 216.00 295.00
M 426.00 314.00 
C 429.40 330.80 407.08 327.13 395.00 327.00 C 382.92 326.87 363.35 327.28 350.00 327.00 C 336.65 326.72 319.69 327.64 306.00 327.00 C 292.31 326.36 274.25 328.38 261.00 327.00 C 247.75 325.62 229.04 332.28 221.00 322.00
C 212.48 311.10 226.12 304.40 238.00 306.00 C 249.88 307.60 264.66 305.21 277.00 306.00 C 289.34 306.79 303.65 305.50 316.00 306.00 C 328.35 306.50 343.07 305.45 355.00 306.00 C 366.93 306.55 383.21 305.03 394.00 306.00 C 404.79 306.97 423.38 301.04 426.00 314.00
M 164.00 343.00 
C 161.30 346.85 150.61 343.42 145.00 344.00 C 139.39 344.58 132.18 344.83 125.00 344.00 C 117.82 343.17 114.10 346.79 105.00 344.00 C 95.90 341.21 74.26 349.44 68.00 341.00
C 60.42 330.78 82.14 331.18 91.00 332.00 C 99.86 332.82 116.49 331.58 127.00 332.00 C 137.51 332.42 153.03 331.69 164.00 332.00
C 164.00 335.67 164.00 339.33 164.00 343.00
M 419.00 344.00 
C 433.54 347.94 423.96 366.88 410.00 364.00 C 396.04 361.12 380.24 365.09 366.00 364.00 C 351.76 362.91 336.23 364.03 322.00 364.00 C 307.77 363.97 293.03 362.92 279.00 364.00 C 264.97 365.08 248.53 361.19 235.00 364.00 C 221.47 366.81 210.39 349.39 225.00 344.00
C 238.98 338.84 257.54 344.48 273.00 343.00 C 288.46 341.52 306.24 343.24 322.00 343.00 C 337.76 342.76 355.32 342.16 371.00 343.00 C 386.68 343.84 404.51 340.07 419.00 344.00
M 164.00 353.00 
C 165.72 355.46 162.71 361.24 164.00 364.00
C 152.00 364.41 137.78 363.45 126.00 364.00 C 114.22 364.55 98.96 362.95 88.00 364.00 C 77.04 365.05 58.76 363.51 71.00 353.00
C 76.12 350.92 83.04 352.21 89.00 352.00 C 94.96 351.79 102.06 351.92 108.00 352.00 C 113.94 352.08 121.33 351.59 127.00 352.00 C 132.67 352.41 141.04 350.98 146.00 352.00 C 150.96 353.02 161.35 349.21 164.00 353.00
M 164.00 383.00 
C 161.53 388.11 147.49 384.14 141.00 385.00 C 134.51 385.86 123.23 384.91 116.00 385.00 C 108.77 385.09 98.22 385.62 91.00 385.00 C 83.78 384.38 72.59 388.00 68.00 382.00
C 60.30 371.95 82.09 372.12 91.00 373.00 C 99.91 373.88 116.47 372.55 127.00 373.00 C 137.53 373.45 153.02 372.67 164.00 373.00
C 164.00 376.33 164.00 379.67 164.00 383.00
M 164.00 393.00 
C 164.00 397.00 164.00 401.00 164.00 405.00
C 154.11 405.26 144.96 404.65 135.00 405.00 C 125.04 405.35 115.10 404.35 105.00 405.00 C 94.90 405.65 85.32 403.62 75.00 405.00 C 64.68 406.38 63.77 393.23 74.01 393.01 C 84.25 392.79 93.89 393.10 104.00 393.00 C 114.11 392.90 123.94 393.05 134.00 393.00 C 144.06 392.95 153.96 393.04 164.00 393.00
M 163.00 427.00 
C 169.16 431.75 174.33 438.09 183.00 439.00
C 173.22 443.18 161.83 434.47 160.00 426.00
C 150.15 424.49 135.58 426.59 126.00 426.00 C 116.42 425.41 100.13 426.06 92.00 426.00 C 83.87 425.94 63.77 428.42 66.33 418.33 C 68.90 408.23 87.40 415.79 96.00 414.00 C 104.60 412.21 120.09 414.94 130.00 414.00 C 139.91 413.06 153.74 414.70 164.00 414.00
C 163.55 418.30 165.04 423.12 163.00 427.00
M 462.00 440.00 
C 465.09 435.57 473.46 436.59 477.74 431.74 C 482.03 426.90 484.83 420.90 485.00 415.00
C 492.00 426.91 476.04 442.54 462.00 440.00
M 164.00 434.00 
C 161.13 445.69 176.28 439.46 183.00 441.00
C 175.91 449.53 162.07 446.13 150.00 446.00 C 137.93 445.87 123.66 447.51 111.00 446.00 C 98.34 444.49 85.03 449.91 72.00 446.00 C 58.97 442.09 74.23 430.25 86.00 434.00 C 97.77 437.75 112.64 432.04 125.00 434.00 C 137.36 435.96 151.48 432.53 164.00 434.00
M 46.00 487.00 
C 41.06 493.85 29.05 480.94 33.00 475.00
C 33.95 480.68 38.62 488.40 46.00 487.00
M 217.00 475.00 
C 218.41 482.68 210.69 490.43 203.00 489.00
C 209.53 486.86 214.99 481.95 217.00 475.00 Z"/>
</g>
<g fill="#939393" fill-opacity="0.03" stroke="None">
<path d="
M 157.00 39.00 
C 159.06 39.26 159.33 36.29 160.00 35.00
C 165.22 24.91 168.24 23.11 177.00 18.00
C 178.11 17.35 180.28 16.93 180.00 15.00
C 169.54 13.17 153.13 27.90 157.00 39.00 Z"/>
</g>
<g fill="#DEDEDE" fill-opacity="0.03" stroke="None">
<path d="
M 177.00 18.00 
C 179.54 18.45 182.02 17.50 183.00 15.00
C 182.02 14.86 180.97 15.17 180.00 15.00
C 180.28 16.93 178.11 17.35 177.00 18.00 Z"/>
</g>
<g fill="#A0A0A0" fill-opacity="0.04" stroke="None">
<path d="
M 406.00 16.00 
C 403.20 14.62 398.45 14.23 396.00 16.00
C 398.21 17.72 403.72 17.54 406.00 16.00 Z"/>
</g>
<g fill="#FDFDFD" fill-opacity="0.95" stroke="None">
<path d="
M 471.00 414.00 
C 470.96 413.48 467.74 406.18 469.00 401.00 C 470.26 395.82 468.44 389.78 469.00 384.00 C 469.56 378.22 468.75 373.46 469.00 367.00 C 469.25 360.54 468.91 357.66 469.00 350.00 C 469.09 342.34 468.98 341.80 469.00 332.00 C 469.02 322.20 468.99 307.82 469.00 298.00 C 469.01 288.18 469.01 288.54 469.00 281.00 C 468.99 273.46 469.03 270.51 469.00 264.00 C 468.97 257.49 469.06 252.05 469.00 246.00 C 468.94 239.95 469.15 234.66 469.00 229.00 C 468.86 223.34 469.33 217.26 469.00 212.00 C 468.67 206.74 469.72 199.60 469.00 195.00 C 468.28 190.40 471.40 180.20 467.00 179.00
C 463.06 181.78 453.55 185.20 451.00 189.00
C 447.21 197.29 452.71 209.75 451.00 219.00 C 449.29 228.25 451.77 239.30 451.00 249.00 C 450.23 258.70 451.35 269.04 451.00 279.00 C 450.65 288.96 451.19 299.95 451.00 310.00 C 450.81 320.05 451.15 329.93 451.00 340.00 C 450.85 350.07 451.22 359.86 451.00 370.00 C 450.78 380.14 451.41 390.82 451.00 401.00
C 450.70 408.53 433.80 404.20 425.00 405.00 C 416.20 405.80 402.83 404.63 393.00 405.00 C 383.17 405.37 371.31 404.82 361.00 405.00 C 350.69 405.18 339.56 404.88 329.00 405.00 C 318.44 405.12 307.73 404.85 297.00 405.00 C 286.27 405.15 275.95 404.73 265.00 405.00 C 254.05 405.27 244.36 404.44 233.00 405.00 C 221.64 405.56 213.24 403.77 201.00 405.00 C 188.76 406.23 191.95 392.27 192.00 382.00 C 192.05 371.73 191.98 360.52 192.00 350.00 C 192.02 339.48 191.99 328.68 192.00 318.00 C 192.01 307.32 192.00 295.73 192.00 285.00 C 192.00 274.27 192.01 263.71 192.00 253.00 C 191.99 242.29 192.04 231.72 192.00 221.00 C 191.96 210.28 192.08 199.76 192.00 189.00 C 191.92 178.24 192.18 167.87 192.00 157.00 C 191.82 146.13 192.41 136.11 192.00 125.00 C 191.59 113.89 192.91 104.65 192.00 93.00 C 191.09 81.35 194.01 73.84 192.00 61.00 C 189.99 48.16 202.11 49.38 213.00 50.00 C 223.89 50.62 234.35 49.97 245.00 50.00 C 255.65 50.03 266.60 50.54 277.00 50.00 C 287.40 49.46 299.03 51.46 309.00 50.00 C 318.97 48.54 332.27 53.71 341.00 49.00
C 346.09 42.83 352.19 36.97 359.00 33.00
C 343.97 31.10 325.74 32.09 310.00 32.00 C 294.26 31.91 276.29 31.77 261.00 32.00 C 245.71 32.23 226.13 31.29 212.00 32.00 C 197.87 32.71 175.21 26.10 174.00 43.00 C 172.79 59.90 174.54 75.42 174.00 92.00 C 173.46 108.58 174.24 124.59 174.00 141.00 C 173.76 157.41 174.09 173.69 174.00 190.00 C 173.91 206.31 174.01 222.82 174.00 239.00 C 173.99 255.18 173.94 272.04 174.00 288.00 C 174.06 303.96 173.82 321.51 174.00 337.00 C 174.18 352.49 173.59 371.54 174.00 386.00 C 174.41 400.46 168.56 422.45 186.00 423.00 C 203.44 423.55 218.27 422.79 235.00 423.00 C 251.73 423.21 267.70 423.00 284.00 423.00 C 300.30 423.00 317.16 423.22 333.00 423.00 C 348.84 422.78 366.94 423.57 382.00 423.00 C 397.06 422.43 417.57 424.31 431.00 423.00 C 444.43 421.69 468.62 429.60 471.00 414.00 Z"/>
</g>
<g fill="#FFFFFF" fill-opacity="0.97" stroke="None">
<path d="
M 456.00 170.00 
C 456.31 169.60 456.70 168.99 457.75 166.75 C 458.80 164.52 462.07 165.52 461.00 166.00
C 467.18 159.70 474.41 154.71 477.00 146.00
C 477.27 145.10 477.31 141.51 479.00 140.00
C 480.86 140.46 479.16 142.04 479.00 143.00
C 498.46 110.15 484.33 64.03 453.08 43.92 C 421.84 23.81 375.89 28.55 351.75 58.75 C 327.62 88.96 327.79 132.37 354.75 161.25 C 381.72 190.13 424.29 190.88 456.00 170.00
M 420.00 70.00 
C 422.19 73.13 418.86 80.13 420.00 84.00 C 421.14 87.87 419.14 93.93 420.00 98.00
C 428.83 98.66 438.99 96.67 447.00 99.00
C 447.97 98.77 447.95 100.56 448.00 101.00
C 448.66 106.34 450.49 118.62 443.00 118.00 C 435.50 117.37 427.52 118.68 420.00 118.00
C 419.99 127.67 420.01 137.33 420.00 147.00
C 413.67 147.00 407.33 147.00 401.00 147.00
C 401.00 137.33 401.00 127.67 401.00 118.00
C 392.47 116.72 380.11 120.60 374.00 116.00
C 373.72 112.92 372.32 101.40 374.00 99.00
C 376.12 95.97 383.34 98.82 387.00 98.00 C 390.66 97.18 397.09 98.62 401.00 98.00
C 402.29 88.81 398.39 75.77 403.00 69.00
C 405.35 67.95 418.74 68.20 420.00 70.00 Z"/>
</g>
<g fill="#F5F5F5" fill-opacity="0.01" stroke="None">
<path d="
M 157.00 39.00 
C 158.99 44.71 159.58 36.34 160.00 35.00
C 159.33 36.29 159.06 39.26 157.00 39.00 Z"/>
</g>
<g fill="#FBFBFB" fill-opacity="0.46" stroke="None">
<path d="
M 451.00 401.00 
C 448.22 406.75 432.54 401.77 425.00 403.00 C 417.46 404.23 404.70 402.45 396.00 403.00 C 387.30 403.55 376.23 402.75 367.00 403.00 C 357.77 403.25 347.46 402.90 338.00 403.00 C 328.54 403.10 318.56 402.97 309.00 403.00 C 299.44 403.03 289.59 403.03 280.00 403.00 C 270.41 402.97 260.56 403.11 251.00 403.00 C 241.44 402.89 231.46 403.26 222.00 403.00 C 212.54 402.74 202.56 404.02 194.00 402.00
C 195.67 286.28 195.67 168.74 194.00 53.00
C 206.42 52.77 219.66 53.30 232.00 53.00 C 244.34 52.70 257.95 53.58 270.00 53.00 C 282.05 52.42 296.66 54.25 308.00 53.00 C 319.34 51.75 333.61 57.65 341.00 49.00
C 332.27 53.71 318.97 48.54 309.00 50.00 C 299.03 51.46 287.40 49.46 277.00 50.00 C 266.60 50.54 255.65 50.03 245.00 50.00 C 234.35 49.97 223.89 50.62 213.00 50.00 C 202.11 49.38 189.99 48.16 192.00 61.00 C 194.01 73.84 191.09 81.35 192.00 93.00 C 192.91 104.65 191.59 113.89 192.00 125.00 C 192.41 136.11 191.82 146.13 192.00 157.00 C 192.18 167.87 191.92 178.24 192.00 189.00 C 192.08 199.76 191.96 210.28 192.00 221.00 C 192.04 231.72 191.99 242.29 192.00 253.00 C 192.01 263.71 192.00 274.27 192.00 285.00 C 192.00 295.73 192.01 307.32 192.00 318.00 C 191.99 328.68 192.02 339.48 192.00 350.00 C 191.98 360.52 192.05 371.73 192.00 382.00 C 191.95 392.27 188.76 406.23 201.00 405.00 C 213.24 403.77 221.64 405.56 233.00 405.00 C 244.36 404.44 254.05 405.27 265.00 405.00 C 275.95 404.73 286.27 405.15 297.00 405.00 C 307.73 404.85 318.44 405.12 329.00 405.00 C 339.56 404.88 350.69 405.18 361.00 405.00 C 371.31 404.82 383.17 405.37 393.00 405.00 C 402.83 404.63 416.20 405.80 425.00 405.00 C 433.80 404.20 450.70 408.53 451.00 401.00 Z"/>
</g>
<g fill="#FFFFFF" fill-opacity="0.66" stroke="None">
<path d="
M 374.00 99.00 
C 383.67 99.00 393.33 99.00 403.00 99.00
C 405.07 96.04 402.22 88.77 403.00 85.00 C 403.78 81.23 403.00 75.00 403.00 71.00
C 403.00 70.50 402.81 69.08 403.00 69.00
C 398.39 75.77 402.29 88.81 401.00 98.00
C 397.09 98.62 390.66 97.18 387.00 98.00 C 383.34 98.82 376.12 95.97 374.00 99.00 Z"/>
</g>
<g fill="#FFFFFF" fill-opacity="0.20" stroke="None">
<path d="
M 403.00 71.00 
C 407.18 72.85 413.62 69.61 418.00 71.00
C 418.66 80.50 416.67 91.32 419.00 100.00
C 419.66 90.17 417.67 79.01 420.00 70.00
C 418.74 68.20 405.35 67.95 403.00 69.00
C 402.81 69.08 403.00 70.50 403.00 71.00 Z"/>
</g>
<g fill="#FFFFFF" fill-opacity="0.56" stroke="None">
<path d="
M 419.00 100.00 
C 421.66 101.86 428.44 99.60 432.00 100.00 C 435.56 100.40 442.28 100.54 446.00 100.00
C 446.35 99.95 446.77 99.05 447.00 99.00
C 438.99 96.67 428.83 98.66 420.00 98.00
C 419.14 93.93 421.14 87.87 420.00 84.00 C 418.86 80.13 422.19 73.13 420.00 70.00
C 417.67 79.01 419.66 90.17 419.00 100.00 Z"/>
</g>
<g fill="#000000" fill-opacity="0.00" stroke="None">
<path d="
M 403.00 99.00 
C 400.88 102.03 393.66 99.18 390.00 100.00 C 386.34 100.82 379.91 99.38 376.00 100.00
C 375.47 105.28 377.14 111.15 375.00 116.00
C 384.33 116.00 393.67 116.00 403.00 116.00
C 403.00 125.67 403.00 135.33 403.00 145.00
C 408.00 145.00 413.00 145.00 418.00 145.00
C 419.29 135.81 415.39 122.77 420.00 116.00
C 428.93 115.19 438.07 116.81 447.00 116.00
C 447.25 115.74 447.00 115.00 447.00 115.00
C 445.11 112.44 445.23 103.45 446.00 100.00
C 442.28 100.54 435.56 100.40 432.00 100.00 C 428.44 99.60 421.66 101.86 419.00 100.00
C 416.67 91.32 418.66 80.50 418.00 71.00
C 413.62 69.61 407.18 72.85 403.00 71.00
C 403.00 75.00 403.78 81.23 403.00 85.00 C 402.22 88.77 405.07 96.04 403.00 99.00 Z"/>
</g>
<g fill="#FFFFFF" fill-opacity="0.31" stroke="None">
<path d="
M 374.00 116.00 
C 374.00 116.05 375.00 116.00 375.00 116.00
C 377.14 111.15 375.47 105.28 376.00 100.00
C 379.91 99.38 386.34 100.82 390.00 100.00 C 393.66 99.18 400.88 102.03 403.00 99.00
C 393.33 99.00 383.67 99.00 374.00 99.00
C 372.32 101.40 373.72 112.92 374.00 116.00 Z"/>
</g>
<g fill="#FFFFFF" fill-opacity="0.14" stroke="None">
<path d="
M 446.00 100.00 
C 445.23 103.45 445.11 112.44 447.00 115.00
C 447.00 110.26 447.61 104.99 448.00 101.00
C 447.95 100.56 447.97 98.77 447.00 99.00
C 446.77 99.05 446.35 99.95 446.00 100.00 Z"/>
</g>
<g fill="#FFFFFF" fill-opacity="0.81" stroke="None">
<path d="
M 447.00 115.00 
C 447.00 115.00 447.25 115.74 447.00 116.00
C 444.29 118.80 437.96 116.35 434.00 117.00 C 430.04 117.65 424.15 116.63 420.00 117.00
C 420.00 117.50 420.00 118.00 420.00 118.00
C 427.52 118.68 435.50 117.37 443.00 118.00 C 450.49 118.62 448.66 106.34 448.00 101.00
C 447.61 104.99 447.00 110.26 447.00 115.00 Z"/>
</g>
<g fill="#FFFFFF" fill-opacity="0.42" stroke="None">
<path d="
M 420.00 118.00 
C 420.00 118.00 420.00 117.50 420.00 117.00
C 420.00 116.50 420.00 116.00 420.00 116.00
C 415.39 122.77 419.29 135.81 418.00 145.00
C 413.00 145.00 408.00 145.00 403.00 145.00
C 403.00 135.33 403.00 125.67 403.00 116.00
C 393.67 116.00 384.33 116.00 375.00 116.00
C 375.00 116.00 374.00 116.05 374.00 116.00
C 380.11 120.60 392.47 116.72 401.00 118.00
C 401.00 127.67 401.00 137.33 401.00 147.00
C 407.33 147.00 413.67 147.00 420.00 147.00
C 420.01 137.33 419.99 127.67 420.00 118.00 Z"/>
</g>
<g fill="#FFFFFF" fill-opacity="0.28" stroke="None">
<path d="
M 420.00 117.00 
C 424.15 116.63 430.04 117.65 434.00 117.00 C 437.96 116.35 444.29 118.80 447.00 116.00
C 438.07 116.81 428.93 115.19 420.00 116.00
C 420.00 116.00 420.00 116.50 420.00 117.00 Z"/>
</g>
<g fill="#FFFFFF" fill-opacity="0.40" stroke="None">
<path d="
M 477.00 146.00 
C 477.47 145.23 478.50 143.85 479.00 143.00
C 479.16 142.04 480.86 140.46 479.00 140.00
C 477.31 141.51 477.27 145.10 477.00 146.00 Z"/>
</g>
<g fill="#FFFFFF" fill-opacity="0.92" stroke="None">
<path d="
M 171.00 159.00 
C 148.17 163.34 125.88 169.90 103.00 173.00
C 101.62 181.62 121.38 188.08 116.23 195.23 C 111.08 202.38 101.93 207.15 95.75 213.75 C 89.57 220.35 82.15 226.72 75.00 232.00
C 77.11 238.93 84.93 243.51 89.00 249.00
C 96.29 243.34 102.45 236.54 109.75 230.75 C 117.06 224.96 122.13 217.29 129.77 211.77 C 137.41 206.25 143.19 224.99 150.00 226.00
C 158.34 204.53 164.67 181.66 171.00 159.00 Z"/>
</g>
<g fill="#EFEFEF" fill-opacity="0.36" stroke="None">
<path d="
M 225.00 179.00 
C 224.75 178.74 225.00 178.00 225.00 178.00
C 216.99 172.40 219.22 159.89 230.03 161.98 C 240.83 164.07 254.62 161.13 266.00 162.00 C 277.38 162.87 290.45 161.74 302.00 162.00 C 313.55 162.26 325.88 162.62 337.00 161.00
C 328.78 154.57 312.91 160.65 302.00 159.00 C 291.09 157.35 276.35 159.90 265.00 159.00 C 253.65 158.10 239.23 159.72 228.07 159.07 C 216.92 158.42 214.10 178.96 225.00 179.00 Z"/>
</g>
<g fill="#FEFEFE" fill-opacity="0.99" stroke="None">
<path d="
M 225.00 178.00 
C 232.75 180.62 246.52 176.22 255.00 178.00 C 263.48 179.78 265.11 177.10 272.00 178.00 C 278.89 178.90 281.99 177.50 288.00 178.00 C 294.01 178.50 298.43 177.57 304.00 178.00 C 309.57 178.43 315.76 177.35 321.00 178.00 C 326.24 178.65 332.35 176.63 337.00 178.00 C 341.65 179.37 350.02 176.00 350.00 176.00
C 345.08 171.88 341.94 164.86 337.00 161.00
C 325.88 162.62 313.55 162.26 302.00 162.00 C 290.45 161.74 277.38 162.87 266.00 162.00 C 254.62 161.13 240.83 164.07 230.03 161.98 C 219.22 159.89 216.99 172.40 225.00 178.00 Z"/>
</g>
<g fill="#FFFFFF" fill-opacity="0.42" stroke="None">
<path d="
M 456.00 170.00 
C 458.16 168.58 459.42 167.61 461.00 166.00
C 462.07 165.52 458.80 164.52 457.75 166.75 C 456.70 168.99 456.31 169.60 456.00 170.00 Z"/>
</g>
<g fill="#FEFEFE" fill-opacity="0.53" stroke="None">
<path d="
M 225.00 178.00 
C 225.00 178.00 224.75 178.74 225.00 179.00
C 267.19 180.67 312.73 180.67 355.00 179.00
C 353.64 177.63 351.44 177.21 350.00 176.00
C 350.02 176.00 341.65 179.37 337.00 178.00 C 332.35 176.63 326.24 178.65 321.00 178.00 C 315.76 177.35 309.57 178.43 304.00 178.00 C 298.43 177.57 294.01 178.50 288.00 178.00 C 281.99 177.50 278.89 178.90 272.00 178.00 C 265.11 177.10 263.48 179.78 255.00 178.00 C 246.52 176.22 232.75 180.62 225.00 178.00 Z"/>
</g>
<g fill="#F2F2F2" fill-opacity="0.41" stroke="None">
<path d="
M 467.00 179.00 
C 471.40 180.20 468.28 190.40 469.00 195.00 C 469.72 199.60 468.67 206.74 469.00 212.00 C 469.33 217.26 468.86 223.34 469.00 229.00 C 469.15 234.66 468.94 239.95 469.00 246.00 C 469.06 252.05 468.97 257.49 469.00 264.00 C 469.03 270.51 468.99 273.46 469.00 281.00 C 469.01 288.54 469.01 288.18 469.00 298.00 C 468.99 307.82 469.02 322.20 469.00 332.00 C 468.98 341.80 469.09 342.34 469.00 350.00 C 468.91 357.66 469.25 360.54 469.00 367.00 C 468.75 373.46 469.56 378.22 469.00 384.00 C 468.44 389.78 470.26 395.82 469.00 401.00 C 467.74 406.18 470.96 413.48 471.00 414.00
C 471.00 334.67 471.00 255.33 471.00 176.00
C 469.07 176.15 468.26 178.11 467.00 179.00 Z"/>
</g>
<g fill="#F2F2F2" fill-opacity="0.08" stroke="None">
<path d="
M 194.00 402.00 
C 202.56 404.02 212.54 402.74 222.00 403.00 C 231.46 403.26 241.44 402.89 251.00 403.00 C 260.56 403.11 270.41 402.97 280.00 403.00 C 289.59 403.03 299.44 403.03 309.00 403.00 C 318.56 402.97 328.54 403.10 338.00 403.00 C 347.46 402.90 357.77 403.25 367.00 403.00 C 376.23 402.75 387.30 403.55 396.00 403.00 C 404.70 402.45 417.46 404.23 425.00 403.00 C 432.54 401.77 448.22 406.75 451.00 401.00
C 451.41 390.82 450.78 380.14 451.00 370.00 C 451.22 359.86 450.85 350.07 451.00 340.00 C 451.15 329.93 450.81 320.05 451.00 310.00 C 451.19 299.95 450.65 288.96 451.00 279.00 C 451.35 269.04 450.23 258.70 451.00 249.00 C 451.77 239.30 449.29 228.25 451.00 219.00 C 452.71 209.75 447.21 197.29 451.00 189.00
C 448.67 259.01 450.66 331.17 450.00 402.00
C 364.67 402.00 279.33 402.00 194.00 402.00 Z"/>
</g>
<g fill="#F4F4F4" fill-opacity="0.20" stroke="None">
<path d="
M 225.00 198.00 
C 241.43 194.71 260.91 199.27 279.00 198.00 C 297.09 196.73 317.60 198.22 336.00 198.00 C 354.40 197.78 374.34 197.75 392.00 197.00
C 379.20 194.92 364.93 194.49 351.00 195.00 C 337.07 195.51 321.87 194.39 308.00 195.00 C 294.13 195.61 278.51 193.87 265.00 195.00 C 251.49 196.13 235.80 191.24 225.00 198.00 Z"/>
</g>
<g fill="#FEFEFE" fill-opacity="0.98" stroke="None">
<path d="
M 225.00 198.00 
C 221.98 199.89 220.44 199.25 219.00 203.00
C 219.59 202.18 221.11 202.06 222.00 202.00
C 219.39 206.43 221.27 213.52 226.00 215.00
C 228.73 210.80 240.43 215.17 246.00 214.00 C 251.57 212.83 261.50 214.54 268.00 214.00 C 274.50 213.46 283.14 214.27 290.00 214.00 C 296.86 213.73 303.94 214.15 311.00 214.00 C 318.06 213.85 325.85 214.14 333.00 214.00 C 340.15 213.86 347.87 214.22 355.00 214.00 C 362.13 213.78 368.93 214.47 376.00 214.00 C 383.07 213.53 391.05 214.99 398.00 214.00 C 404.95 213.01 413.42 216.16 420.00 214.00
C 420.69 213.30 425.46 207.65 426.00 210.00
C 430.44 192.37 401.99 198.62 392.00 197.00
C 374.34 197.75 354.40 197.78 336.00 198.00 C 317.60 198.22 297.09 196.73 279.00 198.00 C 260.91 199.27 241.43 194.71 225.00 198.00 Z"/>
</g>
<g fill="#F4F4F4" fill-opacity="0.31" stroke="None">
<path d="
M 219.00 203.00 
C 216.98 208.24 219.80 215.58 226.00 217.00
C 225.81 216.92 226.25 215.24 226.00 215.00
C 221.27 213.52 219.39 206.43 222.00 202.00
C 221.11 202.06 219.59 202.18 219.00 203.00 Z"/>
</g>
<g fill="#F6F6F6" fill-opacity="0.24" stroke="None">
<path d="
M 420.00 214.00 
C 419.72 214.29 417.91 217.05 418.00 217.00
C 421.39 216.31 425.13 213.46 426.00 210.00
C 425.46 207.65 420.69 213.30 420.00 214.00 Z"/>
</g>
<g fill="#FEFEFE" fill-opacity="0.57" stroke="None">
<path d="
M 226.00 215.00 
C 226.25 215.24 225.81 216.92 226.00 217.00
C 241.09 220.45 258.47 215.68 274.00 217.00 C 289.53 218.32 306.33 216.93 322.00 217.00 C 337.67 217.07 354.41 218.14 370.00 217.00 C 385.59 215.86 402.77 220.10 418.00 217.00
C 417.91 217.05 419.72 214.29 420.00 214.00
C 413.42 216.16 404.95 213.01 398.00 214.00 C 391.05 214.99 383.07 213.53 376.00 214.00 C 368.93 214.47 362.13 213.78 355.00 214.00 C 347.87 214.22 340.15 213.86 333.00 214.00 C 325.85 214.14 318.06 213.85 311.00 214.00 C 303.94 214.15 296.86 213.73 290.00 214.00 C 283.14 214.27 274.50 213.46 268.00 214.00 C 261.50 214.54 251.57 212.83 246.00 214.00 C 240.43 215.17 228.73 210.80 226.00 215.00 Z"/>
</g>
<g fill="#EFEFEF" fill-opacity="0.43" stroke="None">
<path d="
M 219.00 241.00 
C 218.68 244.42 220.04 244.75 221.00 247.00
C 219.73 241.46 220.93 237.12 226.00 234.00
C 289.75 235.67 355.25 235.66 419.00 234.00
C 421.31 235.87 423.23 241.33 426.00 240.00
C 422.75 227.06 399.68 234.31 388.00 233.00 C 376.32 231.69 357.13 233.40 344.00 233.00 C 330.87 232.60 312.37 232.81 299.00 233.00 C 285.63 233.19 267.62 232.04 255.00 233.00 C 242.38 233.96 222.89 227.38 219.00 241.00 Z"/>
</g>
<g fill="#FEFEFE" fill-opacity="0.98" stroke="None">
<path d="
M 221.00 247.00 
C 221.26 248.13 221.45 250.86 223.00 252.00
C 223.00 252.00 223.50 252.00 224.00 252.00
C 288.38 252.00 354.49 249.74 418.00 253.00
C 419.40 252.68 419.95 252.51 421.00 252.00
C 419.90 253.04 426.09 246.27 425.00 248.00
C 425.87 246.00 426.67 242.68 426.00 240.00
C 423.23 241.33 421.31 235.87 419.00 234.00
C 355.25 235.66 289.75 235.67 226.00 234.00
C 220.93 237.12 219.73 241.46 221.00 247.00 Z"/>
</g>
<g fill="#F8F8F8" fill-opacity="0.13" stroke="None">
<path d="
M 223.00 252.00 
C 221.45 250.86 221.26 248.13 221.00 247.00
C 220.04 244.75 218.68 244.42 219.00 241.00
C 217.84 245.08 218.08 249.59 223.00 252.00 Z"/>
</g>
<g fill="#F4F4F4" fill-opacity="0.19" stroke="None">
<path d="
M 421.00 252.00 
C 423.50 250.78 423.96 250.39 425.00 248.00
C 426.09 246.27 419.90 253.04 421.00 252.00 Z"/>
</g>
<g fill="#9C9C9C" fill-opacity="0.02" stroke="None">
<path d="
M 46.00 253.00 
C 40.12 246.89 29.94 258.80 33.00 265.00
C 34.48 259.70 38.50 251.51 46.00 253.00 Z"/>
</g>
<g fill="#FEFEFE" fill-opacity="0.20" stroke="None">
<path d="
M 418.00 253.00 
C 354.49 249.74 288.38 252.00 224.00 252.00
C 232.79 259.13 250.42 252.10 262.00 254.00 C 273.58 255.90 288.59 253.27 301.00 254.00 C 313.41 254.73 328.32 253.88 341.00 254.00 C 353.68 254.12 367.37 254.45 380.00 254.00 C 392.63 253.55 405.94 255.78 418.00 253.00 Z"/>
</g>
<g fill="#FCFCFC" fill-opacity="0.85" stroke="None">
<path d="
M 198.00 441.00 
C 197.69 445.83 198.41 451.23 198.00 456.00 C 197.59 460.77 199.65 467.13 196.00 468.00
C 148.33 468.00 100.67 468.00 53.00 468.00
C 53.00 402.67 53.00 337.33 53.00 272.00
C 88.33 272.00 123.67 272.00 159.00 272.00
C 161.64 284.01 153.29 302.32 164.00 310.00
C 164.00 293.33 164.00 276.67 164.00 260.00
C 148.81 259.67 133.14 260.44 118.00 260.00 C 102.86 259.56 86.96 260.84 72.00 260.00 C 57.04 259.16 39.15 257.16 41.00 275.00 C 42.85 292.84 40.40 303.47 41.00 320.00 C 41.60 336.53 41.18 349.82 41.00 366.00 C 40.82 382.18 42.08 395.60 41.00 412.00 C 39.92 428.40 43.70 440.67 41.00 458.00 C 38.30 475.33 46.94 482.81 64.00 480.00 C 81.06 477.19 94.05 481.66 110.00 480.00 C 125.95 478.34 140.75 481.61 156.00 480.00 C 171.25 478.39 187.48 482.66 201.97 479.97 C 216.47 477.29 203.59 450.54 208.00 441.00
C 205.14 441.98 200.70 439.69 198.00 441.00 Z"/>
</g>
<g fill="#F4F4F4" fill-opacity="0.31" stroke="None">
<path d="
M 227.00 290.00 
C 224.19 283.73 214.21 277.00 226.00 271.00
C 241.44 272.92 257.05 271.88 273.00 272.00 C 288.95 272.12 305.99 272.13 322.00 272.00 C 338.01 271.87 355.13 272.46 371.00 272.00 C 386.87 271.54 403.85 274.01 418.00 270.00
C 404.81 264.04 387.82 269.58 373.00 268.00 C 358.18 266.42 341.06 269.18 326.00 268.00 C 310.94 266.82 295.01 269.55 280.00 268.00 C 264.99 266.45 247.64 270.91 233.00 268.00 C 218.36 265.10 212.25 290.50 227.00 290.00 Z"/>
</g>
<g fill="#FEFEFE" fill-opacity="0.98" stroke="None">
<path d="
M 227.00 290.00 
C 227.00 290.00 227.62 289.78 228.00 290.00
C 235.29 284.60 249.42 290.73 259.00 289.00 C 268.58 287.27 281.69 289.82 292.00 289.00 C 302.31 288.18 314.42 289.47 325.00 289.00 C 335.58 288.53 347.43 289.42 358.00 289.00 C 368.57 288.58 380.72 289.65 391.00 289.00 C 401.28 288.35 412.76 290.70 421.00 288.00
C 430.16 282.95 425.92 273.58 418.00 270.00
C 403.85 274.01 386.87 271.54 371.00 272.00 C 355.13 272.46 338.01 271.87 322.00 272.00 C 305.99 272.13 288.95 272.12 273.00 272.00 C 257.05 271.88 241.44 272.92 226.00 271.00
C 214.21 277.00 224.19 283.73 227.00 290.00 Z"/>
</g>
<g fill="#FCFCFC" fill-opacity="0.15" stroke="None">
<path d="
M 228.00 290.00 
C 236.63 294.94 249.94 289.44 260.00 291.00 C 270.06 292.56 282.46 290.30 293.00 291.00 C 303.54 291.70 315.28 290.69 326.00 291.00 C 336.72 291.31 348.30 290.88 359.00 291.00 C 369.70 291.12 381.51 290.99 392.00 291.00 C 402.49 291.01 413.28 292.25 421.00 288.00
C 412.76 290.70 401.28 288.35 391.00 289.00 C 380.72 289.65 368.57 288.58 358.00 289.00 C 347.43 289.42 335.58 288.53 325.00 289.00 C 314.42 289.47 302.31 288.18 292.00 289.00 C 281.69 289.82 268.58 287.27 259.00 289.00 C 249.42 290.73 235.29 284.60 228.00 290.00 Z"/>
</g>
<g fill="#A7A7A7" fill-opacity="0.02" stroke="None">
<path d="
M 216.00 295.00 
C 213.19 296.98 217.07 300.29 216.00 303.00
C 217.88 301.30 217.23 297.13 216.00 295.00 Z"/>
</g>
<g fill="#EFEFEF" fill-opacity="0.36" stroke="None">
<path d="
M 221.00 322.00 
C 215.14 302.95 240.23 308.02 255.00 308.00 C 269.77 307.98 292.51 308.11 309.00 308.00 C 325.49 307.89 345.81 308.26 363.00 308.00 C 380.19 307.74 400.07 309.02 417.00 307.00
C 420.18 308.68 422.20 313.40 426.00 314.00
C 423.38 301.04 404.79 306.97 394.00 306.00 C 383.21 305.03 366.93 306.55 355.00 306.00 C 343.07 305.45 328.35 306.50 316.00 306.00 C 303.65 305.50 289.34 306.79 277.00 306.00 C 264.66 305.21 249.88 307.60 238.00 306.00 C 226.12 304.40 212.48 311.10 221.00 322.00 Z"/>
</g>
<g fill="#FEFEFE" fill-opacity="0.92" stroke="None">
<path d="
M 221.00 322.00 
C 229.04 332.28 247.75 325.62 261.00 327.00 C 274.25 328.38 292.31 326.36 306.00 327.00 C 319.69 327.64 336.65 326.72 350.00 327.00 C 363.35 327.28 382.92 326.87 395.00 327.00 C 407.08 327.13 429.40 330.80 426.00 314.00
C 422.20 313.40 420.18 308.68 417.00 307.00
C 400.07 309.02 380.19 307.74 363.00 308.00 C 345.81 308.26 325.49 307.89 309.00 308.00 C 292.51 308.11 269.77 307.98 255.00 308.00 C 240.23 308.02 215.14 302.95 221.00 322.00 Z"/>
</g>
<g fill="#FCFCFC" fill-opacity="0.92" stroke="None">
<path d="
M 68.00 341.00 
C 72.48 345.43 83.00 340.67 90.00 342.00 C 97.00 343.33 107.35 341.29 115.00 342.00 C 122.65 342.71 132.14 341.45 140.00 342.00 C 147.86 342.55 156.57 340.79 164.00 343.00
C 164.00 339.33 164.00 335.67 164.00 332.00
C 153.03 331.69 137.51 332.42 127.00 332.00 C 116.49 331.58 99.86 332.82 91.00 332.00 C 82.14 331.18 60.42 330.78 68.00 341.00 Z"/>
</g>
<g fill="#FEFEFE" fill-opacity="0.43" stroke="None">
<path d="
M 164.00 343.00 
C 156.57 340.79 147.86 342.55 140.00 342.00 C 132.14 341.45 122.65 342.71 115.00 342.00 C 107.35 341.29 97.00 343.33 90.00 342.00 C 83.00 340.67 72.48 345.43 68.00 341.00
C 74.26 349.44 95.90 341.21 105.00 344.00 C 114.10 346.79 117.82 343.17 125.00 344.00 C 132.18 344.83 139.39 344.58 145.00 344.00 C 150.61 343.42 161.30 346.85 164.00 343.00 Z"/>
</g>
<g fill="#FDFDFD" fill-opacity="0.94" stroke="None">
<path d="
M 225.00 344.00 
C 219.24 347.04 218.59 359.73 227.00 363.00
C 237.02 360.97 247.51 362.29 258.00 362.00 C 268.49 361.71 279.42 362.19 290.00 362.00 C 300.58 361.81 311.40 362.21 322.00 362.00 C 332.60 361.79 343.43 362.38 354.00 362.00 C 364.57 361.62 375.52 362.81 386.00 362.00 C 396.48 361.19 407.73 363.77 418.00 362.00 C 428.27 360.23 423.51 345.77 419.00 344.00
C 404.51 340.07 386.68 343.84 371.00 343.00 C 355.32 342.16 337.76 342.76 322.00 343.00 C 306.24 343.24 288.46 341.52 273.00 343.00 C 257.54 344.48 238.98 338.84 225.00 344.00 Z"/>
</g>
<g fill="#F5F5F5" fill-opacity="0.27" stroke="None">
<path d="
M 419.00 344.00 
C 423.51 345.77 428.27 360.23 418.00 362.00 C 407.73 363.77 396.48 361.19 386.00 362.00 C 375.52 362.81 364.57 361.62 354.00 362.00 C 343.43 362.38 332.60 361.79 322.00 362.00 C 311.40 362.21 300.58 361.81 290.00 362.00 C 279.42 362.19 268.49 361.71 258.00 362.00 C 247.51 362.29 237.02 360.97 227.00 363.00
C 218.59 359.73 219.24 347.04 225.00 344.00
C 210.39 349.39 221.47 366.81 235.00 364.00 C 248.53 361.19 264.97 365.08 279.00 364.00 C 293.03 362.92 307.77 363.97 322.00 364.00 C 336.23 364.03 351.76 362.91 366.00 364.00 C 380.24 365.09 396.04 361.12 410.00 364.00 C 423.96 366.88 433.54 347.94 419.00 344.00 Z"/>
</g>
<g fill="#F1F1F1" fill-opacity="0.40" stroke="None">
<path d="
M 71.00 353.00 
C 80.23 351.51 90.96 355.40 101.00 354.00 C 111.04 352.60 122.79 354.93 133.00 354.00 C 143.21 353.07 154.22 355.51 164.00 353.00
C 161.35 349.21 150.96 353.02 146.00 352.00 C 141.04 350.98 132.67 352.41 127.00 352.00 C 121.33 351.59 113.94 352.08 108.00 352.00 C 102.06 351.92 94.96 351.79 89.00 352.00 C 83.04 352.21 76.12 350.92 71.00 353.00 Z"/>
</g>
<g fill="#FEFEFE" fill-opacity="0.92" stroke="None">
<path d="
M 164.00 353.00 
C 154.22 355.51 143.21 353.07 133.00 354.00 C 122.79 354.93 111.04 352.60 101.00 354.00 C 90.96 355.40 80.23 351.51 71.00 353.00
C 58.76 363.51 77.04 365.05 88.00 364.00 C 98.96 362.95 114.22 364.55 126.00 364.00 C 137.78 363.45 152.00 364.41 164.00 364.00
C 162.71 361.24 165.72 355.46 164.00 353.00 Z"/>
</g>
<g fill="#FCFCFC" fill-opacity="0.91" stroke="None">
<path d="
M 68.00 382.00 
C 73.88 387.62 88.92 381.11 98.00 383.00 C 107.08 384.89 121.00 382.02 131.00 383.00 C 141.00 383.98 153.75 382.26 164.00 383.00
C 164.00 379.67 164.00 376.33 164.00 373.00
C 153.02 372.67 137.53 373.45 127.00 373.00 C 116.47 372.55 99.91 373.88 91.00 373.00 C 82.09 372.12 60.30 371.95 68.00 382.00 Z"/>
</g>
<g fill="#FEFEFE" fill-opacity="0.42" stroke="None">
<path d="
M 164.00 383.00 
C 153.75 382.26 141.00 383.98 131.00 383.00 C 121.00 382.02 107.08 384.89 98.00 383.00 C 88.92 381.11 73.88 387.62 68.00 382.00
C 72.59 388.00 83.78 384.38 91.00 385.00 C 98.22 385.62 108.77 385.09 116.00 385.00 C 123.23 384.91 134.51 385.86 141.00 385.00 C 147.49 384.14 161.53 388.11 164.00 383.00 Z"/>
</g>
<g fill="#FCFCFC" fill-opacity="0.84" stroke="None">
<path d="
M 164.00 393.00 
C 153.96 393.04 144.06 392.95 134.00 393.00 C 123.94 393.05 114.11 392.90 104.00 393.00 C 93.89 393.10 84.25 392.79 74.01 393.01 C 63.77 393.23 64.68 406.38 75.00 405.00 C 85.32 403.62 94.90 405.65 105.00 405.00 C 115.10 404.35 125.04 405.35 135.00 405.00 C 144.96 404.65 154.11 405.26 164.00 405.00
C 164.00 401.00 164.00 397.00 164.00 393.00 Z"/>
</g>
<g fill="#FCFCFC" fill-opacity="0.84" stroke="None">
<path d="
M 160.00 426.00 
C 161.01 426.16 162.15 426.34 163.00 427.00
C 165.04 423.12 163.55 418.30 164.00 414.00
C 153.74 414.70 139.91 413.06 130.00 414.00 C 120.09 414.94 104.60 412.21 96.00 414.00 C 87.40 415.79 68.90 408.23 66.33 418.33 C 63.77 428.42 83.87 425.94 92.00 426.00 C 100.13 426.06 116.42 425.41 126.00 426.00 C 135.58 426.59 150.15 424.49 160.00 426.00 Z"/>
</g>
<g fill="#9C9C9C" fill-opacity="0.03" stroke="None">
<path d="
M 462.00 440.00 
C 476.04 442.54 492.00 426.91 485.00 415.00
C 484.83 420.90 482.03 426.90 477.74 431.74 C 473.46 436.59 465.09 435.57 462.00 440.00 Z"/>
</g>
<g fill="#9A9A9A" fill-opacity="0.03" stroke="None">
<path d="
M 163.00 427.00 
C 162.15 426.34 161.01 426.16 160.00 426.00
C 161.83 434.47 173.22 443.18 183.00 439.00
C 174.33 438.09 169.16 431.75 163.00 427.00 Z"/>
</g>
<g fill="#FCFCFC" fill-opacity="0.85" stroke="None">
<path d="
M 164.00 434.00 
C 151.48 432.53 137.36 435.96 125.00 434.00 C 112.64 432.04 97.77 437.75 86.00 434.00 C 74.23 430.25 58.97 442.09 72.00 446.00 C 85.03 449.91 98.34 444.49 111.00 446.00 C 123.66 447.51 137.93 445.87 150.00 446.00 C 162.07 446.13 175.91 449.53 183.00 441.00
C 176.28 439.46 161.13 445.69 164.00 434.00 Z"/>
</g>
<g fill="#F8F8F8" fill-opacity="0.45" stroke="None">
<path d="
M 196.00 468.00 
C 199.65 467.13 197.59 460.77 198.00 456.00 C 198.41 451.23 197.69 445.83 198.00 441.00
C 194.85 442.53 195.53 450.18 196.00 454.00 C 196.47 457.82 194.33 464.63 196.00 468.00 Z"/>
</g>
<g fill="#9C9C9C" fill-opacity="0.03" stroke="None">
<path d="
M 46.00 487.00 
C 38.62 488.40 33.95 480.68 33.00 475.00
C 29.05 480.94 41.06 493.85 46.00 487.00 Z"/>
</g>
<g fill="#999999" fill-opacity="0.02" stroke="None">
<path d="
M 217.00 475.00 
C 214.99 481.95 209.53 486.86 203.00 489.00
C 210.69 490.43 218.41 482.68 217.00 475.00 Z"/>
</g>
</svg>