<svg xmlns="http://www.w3.org/2000/svg" xmlns:v="https://svgstorm.com"
viewBox = "0 0 546 750"
width="546"
height="750">
<g fill="None" fill-opacity="0.0" stroke="#000000" stroke-opacity="0.00" stroke-width="0.3"><path d="
M 0.00 701.00 
C 0.50 701.00 1.00 701.00 1.00 701.00
C 2.62 687.33 8.41 675.18 13.92 662.92 C 19.44 650.67 23.04 637.59 28.31 625.31 C 33.57 613.02 37.38 600.69 42.32 588.32 C 47.26 575.96 52.19 563.34 56.93 550.93 C 61.66 538.52 66.31 525.80 71.77 513.77 C 77.23 501.74 81.62 489.93 86.98 477.98 C 92.33 466.02 97.94 453.95 102.92 441.92 C 107.91 429.90 113.53 418.65 118.77 406.77 C 124.01 394.89 129.84 383.09 135.31 371.31 C 140.77 359.52 146.26 347.51 151.77 335.77 C 157.28 324.04 162.57 312.96 168.31 301.31 C 174.04 289.65 179.01 277.59 184.92 265.92 C 190.84 254.26 196.07 243.71 201.92 231.92 C 207.77 220.13 215.70 212.00 221.75 199.75 C 227.81 187.51 236.29 181.78 241.77 167.77 C 247.25 153.76 261.18 157.42 273.07 163.93 C 284.97 170.44 296.15 175.09 307.08 181.92 C 318.00 188.75 327.14 194.97 336.25 203.75 C 345.36 212.53 354.37 220.84 360.77 231.23 C 367.18 241.62 376.77 249.75 385.00 259.00
C 386.93 261.17 389.02 263.70 391.00 266.00
C 405.60 282.91 413.54 296.78 425.77 316.23 C 438.00 335.68 445.83 355.40 446.07 380.07 C 446.31 404.75 424.95 419.11 401.00 420.00 C 377.04 420.89 353.11 432.20 328.98 433.98 C 304.84 435.75 280.34 448.13 256.00 443.00
C 272.51 483.04 293.09 521.61 310.77 561.23 C 328.45 600.85 347.97 639.91 366.00 679.00
C 367.02 683.69 366.69 687.74 366.00 692.00
C 365.13 697.37 364.22 701.36 362.00 706.00
C 361.02 708.06 360.37 710.01 359.00 712.00
C 356.31 715.92 352.46 721.82 348.00 724.00
C 347.60 724.20 347.00 724.00 347.00 724.00
C 344.29 726.83 340.92 729.08 337.00 730.00
C 336.53 730.11 336.00 730.00 336.00 730.00
C 334.14 732.43 329.87 732.48 327.00 733.00
C 321.15 734.07 315.86 733.99 310.00 733.00
C 275.41 727.15 269.65 691.64 256.23 664.77 C 242.81 637.90 230.71 608.06 217.08 580.92 C 203.44 553.79 191.92 524.19 177.00 498.00
C 166.22 527.60 154.44 558.78 143.07 588.07 C 131.70 617.37 119.79 648.88 108.68 677.68 C 97.56 706.48 92.41 745.29 55.00 749.00
C 54.50 748.97 54.00 749.00 54.00 749.00
C 53.75 749.25 54.00 750.00 54.00 750.00
L 546.00 750.00
L 546.00 45.00
C 537.31 82.02 492.18 74.87 462.93 83.93 C 433.67 92.98 404.33 103.38 379.00 122.00
C 378.10 122.66 376.77 123.29 376.00 124.00
C 372.02 127.65 368.09 131.40 364.00 135.00
C 361.56 137.15 359.24 139.50 357.00 142.00
C 352.09 147.47 348.49 151.10 344.23 157.23 C 339.97 163.36 335.41 165.01 331.25 172.25 C 327.08 179.49 321.32 175.95 315.25 171.75 C 309.19 167.54 303.08 165.59 296.77 162.23 C 290.46 158.87 283.67 156.87 277.32 153.68 C 270.97 150.49 264.35 148.27 258.00 145.00
C 311.75 61.34 407.32 10.10 504.00 1.00
C 504.35 0.95 504.84 0.34 505.00 0.00
L 0.00 0.00
L 0.00 701.00
M 439.00 122.00 
C 447.48 123.38 457.64 124.79 464.00 131.00
C 464.26 131.25 465.00 131.00 465.00 131.00
C 494.42 149.30 502.55 187.93 486.00 217.00
C 484.72 219.25 483.65 221.78 482.00 224.00
C 470.95 238.87 455.39 246.52 438.00 249.00
C 432.50 249.79 426.83 249.93 421.00 249.00
C 404.77 246.42 391.27 239.38 381.00 227.00
C 379.55 225.25 378.31 223.91 377.00 222.00
C 370.72 212.84 367.57 204.23 366.00 193.00
C 365.18 187.12 365.07 181.87 366.00 176.00
C 368.45 160.62 374.98 147.58 387.00 137.00
C 389.02 134.92 391.46 133.69 394.00 132.00
C 402.31 126.47 409.98 123.59 420.00 122.00
C 426.40 120.98 433.00 121.03 439.00 122.00 Z"/>
</g>
<g fill="None" fill-opacity="0.0" stroke="#FFFFFF" stroke-opacity="0.32" stroke-width="0.3"><path d="
M 504.00 1.00 
C 512.30 1.80 521.64 3.36 529.00 8.00
C 526.78 3.79 521.18 3.49 518.00 1.00
C 517.68 0.80 517.17 0.34 517.00 0.00
L 505.00 0.00
C 504.84 0.34 504.35 0.95 504.00 1.00 Z"/>
</g>
<g fill="None" fill-opacity="0.0" stroke="#000000" stroke-opacity="0.00" stroke-width="0.3"><path d="
M 518.00 1.00 
C 532.61 3.71 542.47 17.83 546.00 31.00
L 546.00 0.00
L 517.00 0.00
C 517.17 0.34 517.68 0.80 518.00 1.00 Z"/>
</g>
<g fill="None" fill-opacity="0.0" stroke="#FFFFFF" stroke-opacity="0.97" stroke-width="0.3"><path d="
M 357.00 142.00 
C 356.05 142.55 355.19 143.16 354.00 143.00
C 357.85 138.35 362.37 133.78 367.00 130.00
C 367.45 132.31 364.47 133.07 364.00 135.00
C 368.09 131.40 372.02 127.65 376.00 124.00
C 376.24 123.63 377.40 119.16 380.00 119.00
C 380.53 120.28 379.03 120.86 379.00 122.00
C 404.33 103.38 433.67 92.98 462.93 83.93 C 492.18 74.87 537.31 82.02 546.00 45.00
L 546.00 31.00
C 542.47 17.83 532.61 3.71 518.00 1.00
C 521.18 3.49 526.78 3.79 529.00 8.00
C 521.64 3.36 512.30 1.80 504.00 1.00
C 407.32 10.10 311.75 61.34 258.00 145.00
C 264.35 148.27 270.97 150.49 277.32 153.68 C 283.67 156.87 290.46 158.87 296.77 162.23 C 303.08 165.59 309.19 167.54 315.25 171.75 C 321.32 175.95 327.08 179.49 331.25 172.25 C 335.41 165.01 339.97 163.36 344.23 157.23 C 348.49 151.10 352.09 147.47 357.00 142.00
M 543.00 30.00 
C 540.51 25.26 539.11 19.19 535.00 15.00
C 540.06 14.57 544.26 25.92 543.00 30.00
M 543.00 51.00 
C 540.77 53.78 540.68 59.13 537.00 60.00
C 538.62 57.09 539.67 52.03 543.00 51.00 Z"/>
</g>
<g fill="None" fill-opacity="0.0" stroke="#FFFFFF" stroke-opacity="0.49" stroke-width="0.3"><path d="
M 543.00 30.00 
C 544.26 25.92 540.06 14.57 535.00 15.00
C 539.11 19.19 540.51 25.26 543.00 30.00 Z"/>
</g>
<g fill="None" fill-opacity="0.0" stroke="#FFFFFF" stroke-opacity="0.45" stroke-width="0.3"><path d="
M 543.00 51.00 
C 539.67 52.03 538.62 57.09 537.00 60.00
C 540.68 59.13 540.77 53.78 543.00 51.00 Z"/>
</g>
<g fill="None" fill-opacity="0.0" stroke="#FFFFFF" stroke-opacity="0.42" stroke-width="0.3"><path d="
M 376.00 124.00 
C 376.77 123.29 378.10 122.66 379.00 122.00
C 379.03 120.86 380.53 120.28 380.00 119.00
C 377.40 119.16 376.24 123.63 376.00 124.00 Z"/>
</g>
<g fill="None" fill-opacity="0.0" stroke="#FFFFFF" stroke-opacity="0.27" stroke-width="0.3"><path d="
M 420.00 122.00 
C 423.51 122.29 435.48 122.25 439.00 122.00
C 433.00 121.03 426.40 120.98 420.00 122.00 Z"/>
</g>
<g fill="None" fill-opacity="0.0" stroke="#FFFFFF" stroke-opacity="0.96" stroke-width="0.3"><path d="
M 394.00 132.00 
C 391.58 135.27 386.02 140.29 381.75 144.75 C 377.49 149.21 375.82 157.81 371.00 161.00
C 373.99 151.85 380.49 144.23 387.00 137.00
C 374.98 147.58 368.45 160.62 366.00 176.00
C 365.91 175.54 369.69 183.38 368.00 187.00 C 366.31 190.62 366.39 190.67 366.00 193.00
C 367.57 204.23 370.72 212.84 377.00 222.00
C 379.44 223.74 379.76 223.80 381.00 227.00
C 391.27 239.38 404.77 246.42 421.00 249.00
C 424.03 248.79 433.19 248.72 438.00 249.00
C 455.39 246.52 470.95 238.87 482.00 224.00
C 480.76 225.31 478.79 226.88 477.00 227.00
C 480.55 224.44 482.16 216.62 486.00 217.00
C 502.55 187.93 494.42 149.30 465.00 131.00
C 466.80 133.77 470.60 134.50 471.00 138.00
C 468.79 136.21 462.95 133.63 464.00 131.00
C 457.64 124.79 447.48 123.38 439.00 122.00
C 435.48 122.25 423.51 122.29 420.00 122.00
C 409.98 123.59 402.31 126.47 394.00 132.00
M 486.00 155.00 
C 481.23 153.69 480.62 147.14 477.00 144.00
C 482.10 145.12 483.29 151.30 486.00 155.00
M 489.00 160.00 
C 489.26 162.44 490.76 164.52 491.00 167.00
C 488.54 167.06 486.88 161.45 489.00 160.00
M 493.00 191.00 
C 491.24 188.24 491.58 183.10 493.00 180.00
C 494.56 182.61 494.72 188.46 493.00 191.00 Z"/>
</g>
<g fill="None" fill-opacity="0.0" stroke="#FFFFFF" stroke-opacity="0.39" stroke-width="0.3"><path d="
M 357.00 142.00 
C 359.24 139.50 361.56 137.15 364.00 135.00
C 364.47 133.07 367.45 132.31 367.00 130.00
C 362.37 133.78 357.85 138.35 354.00 143.00
C 355.19 143.16 356.05 142.55 357.00 142.00 Z"/>
</g>
<g fill="None" fill-opacity="0.0" stroke="#FFFFFF" stroke-opacity="0.39" stroke-width="0.3"><path d="
M 465.00 131.00 
C 465.00 131.00 464.26 131.25 464.00 131.00
C 462.95 133.63 468.79 136.21 471.00 138.00
C 470.60 134.50 466.80 133.77 465.00 131.00 Z"/>
</g>
<g fill="None" fill-opacity="0.0" stroke="#FFFFFF" stroke-opacity="0.38" stroke-width="0.3"><path d="
M 387.00 137.00 
C 380.49 144.23 373.99 151.85 371.00 161.00
C 375.82 157.81 377.49 149.21 381.75 144.75 C 386.02 140.29 391.58 135.27 394.00 132.00
C 391.46 133.69 389.02 134.92 387.00 137.00 Z"/>
</g>
<g fill="None" fill-opacity="0.0" stroke="#FFFFFF" stroke-opacity="0.47" stroke-width="0.3"><path d="
M 486.00 155.00 
C 483.29 151.30 482.10 145.12 477.00 144.00
C 480.62 147.14 481.23 153.69 486.00 155.00 Z"/>
</g>
<g fill="None" fill-opacity="0.0" stroke="#FEFFFE" stroke-opacity="0.99" stroke-width="0.3"><path d="
M 1.00 701.00 
C 4.23 698.92 4.15 709.21 1.00 709.00
C 3.56 723.36 11.44 735.19 24.00 743.00
C 24.04 739.73 30.13 742.90 31.00 745.00
C 28.75 745.14 27.29 742.84 25.00 743.00
C 29.55 746.64 36.88 749.41 43.00 749.00
C 40.65 746.21 54.54 746.92 57.00 747.00
C 56.92 748.26 54.94 747.56 55.00 749.00
C 92.41 745.29 97.56 706.48 108.68 677.68 C 119.79 648.88 131.70 617.37 143.07 588.07 C 154.44 558.78 166.22 527.60 177.00 498.00
C 191.92 524.19 203.44 553.79 217.08 580.92 C 230.71 608.06 242.81 637.90 256.23 664.77 C 269.65 691.64 275.41 727.15 310.00 733.00
C 310.48 732.91 308.44 732.62 313.00 731.00 C 317.57 729.39 324.63 732.68 327.00 733.00
C 329.87 732.48 334.14 732.43 336.00 730.00
C 335.08 729.12 342.55 724.32 345.08 723.08 C 347.61 721.84 352.49 717.06 355.00 715.00
C 354.50 718.91 349.56 720.57 348.00 724.00
C 352.46 721.82 356.31 715.92 359.00 712.00
C 358.14 712.67 357.11 713.06 356.00 713.00
C 358.19 711.22 359.17 704.66 362.00 706.00
C 364.22 701.36 365.13 697.37 366.00 692.00
C 365.88 691.25 364.38 688.75 364.00 686.00 C 363.62 683.25 365.93 679.65 366.00 679.00
C 347.97 639.91 328.45 600.85 310.77 561.23 C 293.09 521.61 272.51 483.04 256.00 443.00
C 280.34 448.13 304.84 435.75 328.98 433.98 C 353.11 432.20 377.04 420.89 401.00 420.00 C 424.95 419.11 446.31 404.75 446.07 380.07 C 445.83 355.40 438.00 335.68 425.77 316.23 C 413.54 296.78 405.60 282.91 391.00 266.00
C 388.79 264.28 386.36 261.45 385.00 259.00
C 376.77 249.75 367.18 241.62 360.77 231.23 C 354.37 220.84 345.36 212.53 336.25 203.75 C 327.14 194.97 318.00 188.75 307.08 181.92 C 296.15 175.09 284.97 170.44 273.07 163.93 C 261.18 157.42 247.25 153.76 241.77 167.77 C 236.29 181.78 227.81 187.51 221.75 199.75 C 215.70 212.00 207.77 220.13 201.92 231.92 C 196.07 243.71 190.84 254.26 184.92 265.92 C 179.01 277.59 174.04 289.65 168.31 301.31 C 162.57 312.96 157.28 324.04 151.77 335.77 C 146.26 347.51 140.77 359.52 135.31 371.31 C 129.84 383.09 124.01 394.89 118.77 406.77 C 113.53 418.65 107.91 429.90 102.92 441.92 C 97.94 453.95 92.33 466.02 86.98 477.98 C 81.62 489.93 77.23 501.74 71.77 513.77 C 66.31 525.80 61.66 538.52 56.93 550.93 C 52.19 563.34 47.26 575.96 42.32 588.32 C 37.38 600.69 33.57 613.02 28.31 625.31 C 23.04 637.59 19.44 650.67 13.92 662.92 C 8.41 675.18 2.62 687.33 1.00 701.00
M 332.00 314.00 
C 339.80 327.18 350.12 339.28 359.00 352.00
C 337.07 356.52 315.27 361.67 293.00 365.00
C 304.15 347.32 318.43 329.34 332.00 314.00
M 13.00 731.00 
C 7.90 728.94 6.04 721.86 4.00 717.00
C 7.84 719.82 9.09 727.02 13.00 731.00
M 93.00 719.00 
C 91.49 723.47 89.00 729.58 84.00 731.00
C 87.68 727.45 89.33 721.37 93.00 719.00
M 79.00 736.00 
C 78.80 739.08 75.47 740.88 73.00 742.00
C 73.13 738.88 77.12 738.04 79.00 736.00 Z"/>
</g>
<g fill="None" fill-opacity="0.0" stroke="#FFFFFF" stroke-opacity="0.42" stroke-width="0.3"><path d="
M 489.00 160.00 
C 486.88 161.45 488.54 167.06 491.00 167.00
C 490.76 164.52 489.26 162.44 489.00 160.00 Z"/>
</g>
<g fill="None" fill-opacity="0.0" stroke="#FFFFFF" stroke-opacity="0.36" stroke-width="0.3"><path d="
M 366.00 176.00 
C 365.07 181.87 365.18 187.12 366.00 193.00
C 366.39 190.67 366.31 190.62 368.00 187.00 C 369.69 183.38 365.91 175.54 366.00 176.00 Z"/>
</g>
<g fill="None" fill-opacity="0.0" stroke="#FFFFFF" stroke-opacity="0.44" stroke-width="0.3"><path d="
M 493.00 191.00 
C 494.72 188.46 494.56 182.61 493.00 180.00
C 491.58 183.10 491.24 188.24 493.00 191.00 Z"/>
</g>
<g fill="None" fill-opacity="0.0" stroke="#FFFFFF" stroke-opacity="0.29" stroke-width="0.3"><path d="
M 482.00 224.00 
C 483.65 221.78 484.72 219.25 486.00 217.00
C 482.16 216.62 480.55 224.44 477.00 227.00
C 478.79 226.88 480.76 225.31 482.00 224.00 Z"/>
</g>
<g fill="None" fill-opacity="0.0" stroke="#FFFFFF" stroke-opacity="0.35" stroke-width="0.3"><path d="
M 377.00 222.00 
C 378.31 223.91 379.55 225.25 381.00 227.00
C 379.76 223.80 379.44 223.74 377.00 222.00 Z"/>
</g>
<g fill="None" fill-opacity="0.0" stroke="#FFFFFF" stroke-opacity="0.24" stroke-width="0.3"><path d="
M 421.00 249.00 
C 426.83 249.93 432.50 249.79 438.00 249.00
C 433.19 248.72 424.03 248.79 421.00 249.00 Z"/>
</g>
<g fill="None" fill-opacity="0.0" stroke="#FFFFFF" stroke-opacity="0.44" stroke-width="0.3"><path d="
M 391.00 266.00 
C 389.02 263.70 386.93 261.17 385.00 259.00
C 386.36 261.45 388.79 264.28 391.00 266.00 Z"/>
</g>
<g fill="None" fill-opacity="0.0" stroke="#000000" stroke-opacity="0.00" stroke-width="0.3"><path d="
M 332.00 314.00 
C 318.43 329.34 304.15 347.32 293.00 365.00
C 315.27 361.67 337.07 356.52 359.00 352.00
C 350.12 339.28 339.80 327.18 332.00 314.00 Z"/>
</g>
<g fill="None" fill-opacity="0.0" stroke="#FFFFFF" stroke-opacity="0.44" stroke-width="0.3"><path d="
M 366.00 692.00 
C 366.69 687.74 367.02 683.69 366.00 679.00
C 365.93 679.65 363.62 683.25 364.00 686.00 C 364.38 688.75 365.88 691.25 366.00 692.00 Z"/>
</g>
<g fill="None" fill-opacity="0.0" stroke="#FFFFFF" stroke-opacity="0.37" stroke-width="0.3"><path d="
M 1.00 701.00 
C 1.00 701.00 0.50 701.00 0.00 701.00
L 0.00 708.00
C 0.34 708.17 0.94 708.65 1.00 709.00
C 4.15 709.21 4.23 698.92 1.00 701.00 Z"/>
</g>
<g fill="None" fill-opacity="0.0" stroke="#FFFFFF" stroke-opacity="0.29" stroke-width="0.3"><path d="
M 359.00 712.00 
C 360.37 710.01 361.02 708.06 362.00 706.00
C 359.17 704.66 358.19 711.22 356.00 713.00
C 357.11 713.06 358.14 712.67 359.00 712.00 Z"/>
</g>
<g fill="None" fill-opacity="0.0" stroke="#000000" stroke-opacity="0.00" stroke-width="0.3"><path d="
M 0.00 750.00 
L 44.00 750.00
C 44.00 749.50 44.00 749.00 44.00 749.00
C 43.50 749.00 43.00 749.00 43.00 749.00
C 36.88 749.41 29.55 746.64 25.00 743.00
C 24.53 742.89 24.00 743.00 24.00 743.00
C 11.44 735.19 3.56 723.36 1.00 709.00
C 0.94 708.65 0.34 708.17 0.00 708.00
L 0.00 750.00 Z"/>
</g>
<g fill="None" fill-opacity="0.0" stroke="#FFFFFF" stroke-opacity="0.44" stroke-width="0.3"><path d="
M 336.00 730.00 
C 336.00 730.00 336.53 730.11 337.00 730.00
C 339.58 727.93 343.72 725.18 347.00 724.00
C 347.00 724.00 347.60 724.20 348.00 724.00
C 349.56 720.57 354.50 718.91 355.00 715.00
C 352.49 717.06 347.61 721.84 345.08 723.08 C 342.55 724.32 335.08 729.12 336.00 730.00 Z"/>
</g>
<g fill="None" fill-opacity="0.0" stroke="#FFFFFF" stroke-opacity="0.45" stroke-width="0.3"><path d="
M 13.00 731.00 
C 9.09 727.02 7.84 719.82 4.00 717.00
C 6.04 721.86 7.90 728.94 13.00 731.00 Z"/>
</g>
<g fill="None" fill-opacity="0.0" stroke="#FFFFFF" stroke-opacity="0.47" stroke-width="0.3"><path d="
M 93.00 719.00 
C 89.33 721.37 87.68 727.45 84.00 731.00
C 89.00 729.58 91.49 723.47 93.00 719.00 Z"/>
</g>
<g fill="None" fill-opacity="0.0" stroke="#FFFFFF" stroke-opacity="0.04" stroke-width="0.3"><path d="
M 337.00 730.00 
C 340.92 729.08 344.29 726.83 347.00 724.00
C 343.72 725.18 339.58 727.93 337.00 730.00 Z"/>
</g>
<g fill="None" fill-opacity="0.0" stroke="#FFFFFF" stroke-opacity="0.44" stroke-width="0.3"><path d="
M 310.00 733.00 
C 315.86 733.99 321.15 734.07 327.00 733.00
C 324.63 732.68 317.57 729.39 313.00 731.00 C 308.44 732.62 310.48 732.91 310.00 733.00 Z"/>
</g>
<g fill="None" fill-opacity="0.0" stroke="#FFFFFF" stroke-opacity="0.51" stroke-width="0.3"><path d="
M 79.00 736.00 
C 77.12 738.04 73.13 738.88 73.00 742.00
C 75.47 740.88 78.80 739.08 79.00 736.00 Z"/>
</g>
<g fill="None" fill-opacity="0.0" stroke="#FFFFFF" stroke-opacity="0.30" stroke-width="0.3"><path d="
M 24.00 743.00 
C 24.00 743.00 24.53 742.89 25.00 743.00
C 27.29 742.84 28.75 745.14 31.00 745.00
C 30.13 742.90 24.04 739.73 24.00 743.00 Z"/>
</g>
<g fill="None" fill-opacity="0.0" stroke="#FFFFFF" stroke-opacity="0.36" stroke-width="0.3"><path d="
M 43.00 749.00 
C 43.00 749.00 43.50 749.00 44.00 749.00
C 47.33 749.00 50.67 749.00 54.00 749.00
C 54.00 749.00 54.50 748.97 55.00 749.00
C 54.94 747.56 56.92 748.26 57.00 747.00
C 54.54 746.92 40.65 746.21 43.00 749.00 Z"/>
</g>
<g fill="None" fill-opacity="0.0" stroke="#FFFFFF" stroke-opacity="0.01" stroke-width="0.3"><path d="
M 44.00 750.00 
L 54.00 750.00
C 54.00 750.00 53.75 749.25 54.00 749.00
C 50.67 749.00 47.33 749.00 44.00 749.00
C 44.00 749.00 44.00 749.50 44.00 750.00 Z"/>
</g>
<g fill="#000000" fill-opacity="0.00" stroke="None">
<path d="
M 0.00 701.00 
C 0.50 701.00 1.00 701.00 1.00 701.00
C 2.62 687.33 8.41 675.18 13.92 662.92 C 19.44 650.67 23.04 637.59 28.31 625.31 C 33.57 613.02 37.38 600.69 42.32 588.32 C 47.26 575.96 52.19 563.34 56.93 550.93 C 61.66 538.52 66.31 525.80 71.77 513.77 C 77.23 501.74 81.62 489.93 86.98 477.98 C 92.33 466.02 97.94 453.95 102.92 441.92 C 107.91 429.90 113.53 418.65 118.77 406.77 C 124.01 394.89 129.84 383.09 135.31 371.31 C 140.77 359.52 146.26 347.51 151.77 335.77 C 157.28 324.04 162.57 312.96 168.31 301.31 C 174.04 289.65 179.01 277.59 184.92 265.92 C 190.84 254.26 196.07 243.71 201.92 231.92 C 207.77 220.13 215.70 212.00 221.75 199.75 C 227.81 187.51 236.29 181.78 241.77 167.77 C 247.25 153.76 261.18 157.42 273.07 163.93 C 284.97 170.44 296.15 175.09 307.08 181.92 C 318.00 188.75 327.14 194.97 336.25 203.75 C 345.36 212.53 354.37 220.84 360.77 231.23 C 367.18 241.62 376.77 249.75 385.00 259.00
C 386.93 261.17 389.02 263.70 391.00 266.00
C 405.60 282.91 413.54 296.78 425.77 316.23 C 438.00 335.68 445.83 355.40 446.07 380.07 C 446.31 404.75 424.95 419.11 401.00 420.00 C 377.04 420.89 353.11 432.20 328.98 433.98 C 304.84 435.75 280.34 448.13 256.00 443.00
C 272.51 483.04 293.09 521.61 310.77 561.23 C 328.45 600.85 347.97 639.91 366.00 679.00
C 367.02 683.69 366.69 687.74 366.00 692.00
C 365.13 697.37 364.22 701.36 362.00 706.00
C 361.02 708.06 360.37 710.01 359.00 712.00
C 356.31 715.92 352.46 721.82 348.00 724.00
C 347.60 724.20 347.00 724.00 347.00 724.00
C 344.29 726.83 340.92 729.08 337.00 730.00
C 336.53 730.11 336.00 730.00 336.00 730.00
C 334.14 732.43 329.87 732.48 327.00 733.00
C 321.15 734.07 315.86 733.99 310.00 733.00
C 275.41 727.15 269.65 691.64 256.23 664.77 C 242.81 637.90 230.71 608.06 217.08 580.92 C 203.44 553.79 191.92 524.19 177.00 498.00
C 166.22 527.60 154.44 558.78 143.07 588.07 C 131.70 617.37 119.79 648.88 108.68 677.68 C 97.56 706.48 92.41 745.29 55.00 749.00
C 54.50 748.97 54.00 749.00 54.00 749.00
C 53.75 749.25 54.00 750.00 54.00 750.00
L 546.00 750.00
L 546.00 45.00
C 537.31 82.02 492.18 74.87 462.93 83.93 C 433.67 92.98 404.33 103.38 379.00 122.00
C 378.10 122.66 376.77 123.29 376.00 124.00
C 372.02 127.65 368.09 131.40 364.00 135.00
C 361.56 137.15 359.24 139.50 357.00 142.00
C 352.09 147.47 348.49 151.10 344.23 157.23 C 339.97 163.36 335.41 165.01 331.25 172.25 C 327.08 179.49 321.32 175.95 315.25 171.75 C 309.19 167.54 303.08 165.59 296.77 162.23 C 290.46 158.87 283.67 156.87 277.32 153.68 C 270.97 150.49 264.35 148.27 258.00 145.00
C 311.75 61.34 407.32 10.10 504.00 1.00
C 504.35 0.95 504.84 0.34 505.00 0.00
L 0.00 0.00
L 0.00 701.00
M 439.00 122.00 
C 447.48 123.38 457.64 124.79 464.00 131.00
C 464.26 131.25 465.00 131.00 465.00 131.00
C 494.42 149.30 502.55 187.93 486.00 217.00
C 484.72 219.25 483.65 221.78 482.00 224.00
C 470.95 238.87 455.39 246.52 438.00 249.00
C 432.50 249.79 426.83 249.93 421.00 249.00
C 404.77 246.42 391.27 239.38 381.00 227.00
C 379.55 225.25 378.31 223.91 377.00 222.00
C 370.72 212.84 367.57 204.23 366.00 193.00
C 365.18 187.12 365.07 181.87 366.00 176.00
C 368.45 160.62 374.98 147.58 387.00 137.00
C 389.02 134.92 391.46 133.69 394.00 132.00
C 402.31 126.47 409.98 123.59 420.00 122.00
C 426.40 120.98 433.00 121.03 439.00 122.00 Z"/>
</g>
<g fill="#FFFFFF" fill-opacity="0.32" stroke="None">
<path d="
M 504.00 1.00 
C 512.30 1.80 521.64 3.36 529.00 8.00
C 526.78 3.79 521.18 3.49 518.00 1.00
C 517.68 0.80 517.17 0.34 517.00 0.00
L 505.00 0.00
C 504.84 0.34 504.35 0.95 504.00 1.00 Z"/>
</g>
<g fill="#000000" fill-opacity="0.00" stroke="None">
<path d="
M 518.00 1.00 
C 532.61 3.71 542.47 17.83 546.00 31.00
L 546.00 0.00
L 517.00 0.00
C 517.17 0.34 517.68 0.80 518.00 1.00 Z"/>
</g>
<g fill="#FFFFFF" fill-opacity="0.97" stroke="None">
<path d="
M 357.00 142.00 
C 356.05 142.55 355.19 143.16 354.00 143.00
C 357.85 138.35 362.37 133.78 367.00 130.00
C 367.45 132.31 364.47 133.07 364.00 135.00
C 368.09 131.40 372.02 127.65 376.00 124.00
C 376.24 123.63 377.40 119.16 380.00 119.00
C 380.53 120.28 379.03 120.86 379.00 122.00
C 404.33 103.38 433.67 92.98 462.93 83.93 C 492.18 74.87 537.31 82.02 546.00 45.00
L 546.00 31.00
C 542.47 17.83 532.61 3.71 518.00 1.00
C 521.18 3.49 526.78 3.79 529.00 8.00
C 521.64 3.36 512.30 1.80 504.00 1.00
C 407.32 10.10 311.75 61.34 258.00 145.00
C 264.35 148.27 270.97 150.49 277.32 153.68 C 283.67 156.87 290.46 158.87 296.77 162.23 C 303.08 165.59 309.19 167.54 315.25 171.75 C 321.32 175.95 327.08 179.49 331.25 172.25 C 335.41 165.01 339.97 163.36 344.23 157.23 C 348.49 151.10 352.09 147.47 357.00 142.00
M 543.00 30.00 
C 540.51 25.26 539.11 19.19 535.00 15.00
C 540.06 14.57 544.26 25.92 543.00 30.00
M 543.00 51.00 
C 540.77 53.78 540.68 59.13 537.00 60.00
C 538.62 57.09 539.67 52.03 543.00 51.00 Z"/>
</g>
<g fill="#FFFFFF" fill-opacity="0.49" stroke="None">
<path d="
M 543.00 30.00 
C 544.26 25.92 540.06 14.57 535.00 15.00
C 539.11 19.19 540.51 25.26 543.00 30.00 Z"/>
</g>
<g fill="#FFFFFF" fill-opacity="0.45" stroke="None">
<path d="
M 543.00 51.00 
C 539.67 52.03 538.62 57.09 537.00 60.00
C 540.68 59.13 540.77 53.78 543.00 51.00 Z"/>
</g>
<g fill="#FFFFFF" fill-opacity="0.42" stroke="None">
<path d="
M 376.00 124.00 
C 376.77 123.29 378.10 122.66 379.00 122.00
C 379.03 120.86 380.53 120.28 380.00 119.00
C 377.40 119.16 376.24 123.63 376.00 124.00 Z"/>
</g>
<g fill="#FFFFFF" fill-opacity="0.27" stroke="None">
<path d="
M 420.00 122.00 
C 423.51 122.29 435.48 122.25 439.00 122.00
C 433.00 121.03 426.40 120.98 420.00 122.00 Z"/>
</g>
<g fill="#FFFFFF" fill-opacity="0.96" stroke="None">
<path d="
M 394.00 132.00 
C 391.58 135.27 386.02 140.29 381.75 144.75 C 377.49 149.21 375.82 157.81 371.00 161.00
C 373.99 151.85 380.49 144.23 387.00 137.00
C 374.98 147.58 368.45 160.62 366.00 176.00
C 365.91 175.54 369.69 183.38 368.00 187.00 C 366.31 190.62 366.39 190.67 366.00 193.00
C 367.57 204.23 370.72 212.84 377.00 222.00
C 379.44 223.74 379.76 223.80 381.00 227.00
C 391.27 239.38 404.77 246.42 421.00 249.00
C 424.03 248.79 433.19 248.72 438.00 249.00
C 455.39 246.52 470.95 238.87 482.00 224.00
C 480.76 225.31 478.79 226.88 477.00 227.00
C 480.55 224.44 482.16 216.62 486.00 217.00
C 502.55 187.93 494.42 149.30 465.00 131.00
C 466.80 133.77 470.60 134.50 471.00 138.00
C 468.79 136.21 462.95 133.63 464.00 131.00
C 457.64 124.79 447.48 123.38 439.00 122.00
C 435.48 122.25 423.51 122.29 420.00 122.00
C 409.98 123.59 402.31 126.47 394.00 132.00
M 486.00 155.00 
C 481.23 153.69 480.62 147.14 477.00 144.00
C 482.10 145.12 483.29 151.30 486.00 155.00
M 489.00 160.00 
C 489.26 162.44 490.76 164.52 491.00 167.00
C 488.54 167.06 486.88 161.45 489.00 160.00
M 493.00 191.00 
C 491.24 188.24 491.58 183.10 493.00 180.00
C 494.56 182.61 494.72 188.46 493.00 191.00 Z"/>
</g>
<g fill="#FFFFFF" fill-opacity="0.39" stroke="None">
<path d="
M 357.00 142.00 
C 359.24 139.50 361.56 137.15 364.00 135.00
C 364.47 133.07 367.45 132.31 367.00 130.00
C 362.37 133.78 357.85 138.35 354.00 143.00
C 355.19 143.16 356.05 142.55 357.00 142.00 Z"/>
</g>
<g fill="#FFFFFF" fill-opacity="0.39" stroke="None">
<path d="
M 465.00 131.00 
C 465.00 131.00 464.26 131.25 464.00 131.00
C 462.95 133.63 468.79 136.21 471.00 138.00
C 470.60 134.50 466.80 133.77 465.00 131.00 Z"/>
</g>
<g fill="#FFFFFF" fill-opacity="0.38" stroke="None">
<path d="
M 387.00 137.00 
C 380.49 144.23 373.99 151.85 371.00 161.00
C 375.82 157.81 377.49 149.21 381.75 144.75 C 386.02 140.29 391.58 135.27 394.00 132.00
C 391.46 133.69 389.02 134.92 387.00 137.00 Z"/>
</g>
<g fill="#FFFFFF" fill-opacity="0.47" stroke="None">
<path d="
M 486.00 155.00 
C 483.29 151.30 482.10 145.12 477.00 144.00
C 480.62 147.14 481.23 153.69 486.00 155.00 Z"/>
</g>
<g fill="#FEFFFE" fill-opacity="0.99" stroke="None">
<path d="
M 1.00 701.00 
C 4.23 698.92 4.15 709.21 1.00 709.00
C 3.56 723.36 11.44 735.19 24.00 743.00
C 24.04 739.73 30.13 742.90 31.00 745.00
C 28.75 745.14 27.29 742.84 25.00 743.00
C 29.55 746.64 36.88 749.41 43.00 749.00
C 40.65 746.21 54.54 746.92 57.00 747.00
C 56.92 748.26 54.94 747.56 55.00 749.00
C 92.41 745.29 97.56 706.48 108.68 677.68 C 119.79 648.88 131.70 617.37 143.07 588.07 C 154.44 558.78 166.22 527.60 177.00 498.00
C 191.92 524.19 203.44 553.79 217.08 580.92 C 230.71 608.06 242.81 637.90 256.23 664.77 C 269.65 691.64 275.41 727.15 310.00 733.00
C 310.48 732.91 308.44 732.62 313.00 731.00 C 317.57 729.39 324.63 732.68 327.00 733.00
C 329.87 732.48 334.14 732.43 336.00 730.00
C 335.08 729.12 342.55 724.32 345.08 723.08 C 347.61 721.84 352.49 717.06 355.00 715.00
C 354.50 718.91 349.56 720.57 348.00 724.00
C 352.46 721.82 356.31 715.92 359.00 712.00
C 358.14 712.67 357.11 713.06 356.00 713.00
C 358.19 711.22 359.17 704.66 362.00 706.00
C 364.22 701.36 365.13 697.37 366.00 692.00
C 365.88 691.25 364.38 688.75 364.00 686.00 C 363.62 683.25 365.93 679.65 366.00 679.00
C 347.97 639.91 328.45 600.85 310.77 561.23 C 293.09 521.61 272.51 483.04 256.00 443.00
C 280.34 448.13 304.84 435.75 328.98 433.98 C 353.11 432.20 377.04 420.89 401.00 420.00 C 424.95 419.11 446.31 404.75 446.07 380.07 C 445.83 355.40 438.00 335.68 425.77 316.23 C 413.54 296.78 405.60 282.91 391.00 266.00
C 388.79 264.28 386.36 261.45 385.00 259.00
C 376.77 249.75 367.18 241.62 360.77 231.23 C 354.37 220.84 345.36 212.53 336.25 203.75 C 327.14 194.97 318.00 188.75 307.08 181.92 C 296.15 175.09 284.97 170.44 273.07 163.93 C 261.18 157.42 247.25 153.76 241.77 167.77 C 236.29 181.78 227.81 187.51 221.75 199.75 C 215.70 212.00 207.77 220.13 201.92 231.92 C 196.07 243.71 190.84 254.26 184.92 265.92 C 179.01 277.59 174.04 289.65 168.31 301.31 C 162.57 312.96 157.28 324.04 151.77 335.77 C 146.26 347.51 140.77 359.52 135.31 371.31 C 129.84 383.09 124.01 394.89 118.77 406.77 C 113.53 418.65 107.91 429.90 102.92 441.92 C 97.94 453.95 92.33 466.02 86.98 477.98 C 81.62 489.93 77.23 501.74 71.77 513.77 C 66.31 525.80 61.66 538.52 56.93 550.93 C 52.19 563.34 47.26 575.96 42.32 588.32 C 37.38 600.69 33.57 613.02 28.31 625.31 C 23.04 637.59 19.44 650.67 13.92 662.92 C 8.41 675.18 2.62 687.33 1.00 701.00
M 332.00 314.00 
C 339.80 327.18 350.12 339.28 359.00 352.00
C 337.07 356.52 315.27 361.67 293.00 365.00
C 304.15 347.32 318.43 329.34 332.00 314.00
M 13.00 731.00 
C 7.90 728.94 6.04 721.86 4.00 717.00
C 7.84 719.82 9.09 727.02 13.00 731.00
M 93.00 719.00 
C 91.49 723.47 89.00 729.58 84.00 731.00
C 87.68 727.45 89.33 721.37 93.00 719.00
M 79.00 736.00 
C 78.80 739.08 75.47 740.88 73.00 742.00
C 73.13 738.88 77.12 738.04 79.00 736.00 Z"/>
</g>
<g fill="#FFFFFF" fill-opacity="0.42" stroke="None">
<path d="
M 489.00 160.00 
C 486.88 161.45 488.54 167.06 491.00 167.00
C 490.76 164.52 489.26 162.44 489.00 160.00 Z"/>
</g>
<g fill="#FFFFFF" fill-opacity="0.36" stroke="None">
<path d="
M 366.00 176.00 
C 365.07 181.87 365.18 187.12 366.00 193.00
C 366.39 190.67 366.31 190.62 368.00 187.00 C 369.69 183.38 365.91 175.54 366.00 176.00 Z"/>
</g>
<g fill="#FFFFFF" fill-opacity="0.44" stroke="None">
<path d="
M 493.00 191.00 
C 494.72 188.46 494.56 182.61 493.00 180.00
C 491.58 183.10 491.24 188.24 493.00 191.00 Z"/>
</g>
<g fill="#FFFFFF" fill-opacity="0.29" stroke="None">
<path d="
M 482.00 224.00 
C 483.65 221.78 484.72 219.25 486.00 217.00
C 482.16 216.62 480.55 224.44 477.00 227.00
C 478.79 226.88 480.76 225.31 482.00 224.00 Z"/>
</g>
<g fill="#FFFFFF" fill-opacity="0.35" stroke="None">
<path d="
M 377.00 222.00 
C 378.31 223.91 379.55 225.25 381.00 227.00
C 379.76 223.80 379.44 223.74 377.00 222.00 Z"/>
</g>
<g fill="#FFFFFF" fill-opacity="0.24" stroke="None">
<path d="
M 421.00 249.00 
C 426.83 249.93 432.50 249.79 438.00 249.00
C 433.19 248.72 424.03 248.79 421.00 249.00 Z"/>
</g>
<g fill="#FFFFFF" fill-opacity="0.44" stroke="None">
<path d="
M 391.00 266.00 
C 389.02 263.70 386.93 261.17 385.00 259.00
C 386.36 261.45 388.79 264.28 391.00 266.00 Z"/>
</g>
<g fill="#000000" fill-opacity="0.00" stroke="None">
<path d="
M 332.00 314.00 
C 318.43 329.34 304.15 347.32 293.00 365.00
C 315.27 361.67 337.07 356.52 359.00 352.00
C 350.12 339.28 339.80 327.18 332.00 314.00 Z"/>
</g>
<g fill="#FFFFFF" fill-opacity="0.44" stroke="None">
<path d="
M 366.00 692.00 
C 366.69 687.74 367.02 683.69 366.00 679.00
C 365.93 679.65 363.62 683.25 364.00 686.00 C 364.38 688.75 365.88 691.25 366.00 692.00 Z"/>
</g>
<g fill="#FFFFFF" fill-opacity="0.37" stroke="None">
<path d="
M 1.00 701.00 
C 1.00 701.00 0.50 701.00 0.00 701.00
L 0.00 708.00
C 0.34 708.17 0.94 708.65 1.00 709.00
C 4.15 709.21 4.23 698.92 1.00 701.00 Z"/>
</g>
<g fill="#FFFFFF" fill-opacity="0.29" stroke="None">
<path d="
M 359.00 712.00 
C 360.37 710.01 361.02 708.06 362.00 706.00
C 359.17 704.66 358.19 711.22 356.00 713.00
C 357.11 713.06 358.14 712.67 359.00 712.00 Z"/>
</g>
<g fill="#000000" fill-opacity="0.00" stroke="None">
<path d="
M 0.00 750.00 
L 44.00 750.00
C 44.00 749.50 44.00 749.00 44.00 749.00
C 43.50 749.00 43.00 749.00 43.00 749.00
C 36.88 749.41 29.55 746.64 25.00 743.00
C 24.53 742.89 24.00 743.00 24.00 743.00
C 11.44 735.19 3.56 723.36 1.00 709.00
C 0.94 708.65 0.34 708.17 0.00 708.00
L 0.00 750.00 Z"/>
</g>
<g fill="#FFFFFF" fill-opacity="0.44" stroke="None">
<path d="
M 336.00 730.00 
C 336.00 730.00 336.53 730.11 337.00 730.00
C 339.58 727.93 343.72 725.18 347.00 724.00
C 347.00 724.00 347.60 724.20 348.00 724.00
C 349.56 720.57 354.50 718.91 355.00 715.00
C 352.49 717.06 347.61 721.84 345.08 723.08 C 342.55 724.32 335.08 729.12 336.00 730.00 Z"/>
</g>
<g fill="#FFFFFF" fill-opacity="0.45" stroke="None">
<path d="
M 13.00 731.00 
C 9.09 727.02 7.84 719.82 4.00 717.00
C 6.04 721.86 7.90 728.94 13.00 731.00 Z"/>
</g>
<g fill="#FFFFFF" fill-opacity="0.47" stroke="None">
<path d="
M 93.00 719.00 
C 89.33 721.37 87.68 727.45 84.00 731.00
C 89.00 729.58 91.49 723.47 93.00 719.00 Z"/>
</g>
<g fill="#FFFFFF" fill-opacity="0.04" stroke="None">
<path d="
M 337.00 730.00 
C 340.92 729.08 344.29 726.83 347.00 724.00
C 343.72 725.18 339.58 727.93 337.00 730.00 Z"/>
</g>
<g fill="#FFFFFF" fill-opacity="0.44" stroke="None">
<path d="
M 310.00 733.00 
C 315.86 733.99 321.15 734.07 327.00 733.00
C 324.63 732.68 317.57 729.39 313.00 731.00 C 308.44 732.62 310.48 732.91 310.00 733.00 Z"/>
</g>
<g fill="#FFFFFF" fill-opacity="0.51" stroke="None">
<path d="
M 79.00 736.00 
C 77.12 738.04 73.13 738.88 73.00 742.00
C 75.47 740.88 78.80 739.08 79.00 736.00 Z"/>
</g>
<g fill="#FFFFFF" fill-opacity="0.30" stroke="None">
<path d="
M 24.00 743.00 
C 24.00 743.00 24.53 742.89 25.00 743.00
C 27.29 742.84 28.75 745.14 31.00 745.00
C 30.13 742.90 24.04 739.73 24.00 743.00 Z"/>
</g>
<g fill="#FFFFFF" fill-opacity="0.36" stroke="None">
<path d="
M 43.00 749.00 
C 43.00 749.00 43.50 749.00 44.00 749.00
C 47.33 749.00 50.67 749.00 54.00 749.00
C 54.00 749.00 54.50 748.97 55.00 749.00
C 54.94 747.56 56.92 748.26 57.00 747.00
C 54.54 746.92 40.65 746.21 43.00 749.00 Z"/>
</g>
<g fill="#FFFFFF" fill-opacity="0.01" stroke="None">
<path d="
M 44.00 750.00 
L 54.00 750.00
C 54.00 750.00 53.75 749.25 54.00 749.00
C 50.67 749.00 47.33 749.00 44.00 749.00
C 44.00 749.00 44.00 749.50 44.00 750.00 Z"/>
</g>
</svg>