<svg xmlns="http://www.w3.org/2000/svg" xmlns:v="https://svgstorm.com"
viewBox = "0 0 512 512"
width="512"
height="512">
<g fill="None" fill-opacity="0.0" stroke="#000000" stroke-opacity="0.00" stroke-width="0.3"><path d="
M 0.00 512.00 
L 512.00 512.00
L 512.00 0.00
L 0.00 0.00
L 0.00 512.00
M 334.00 122.00 
C 342.28 122.00 350.74 122.71 359.00 122.00 C 367.26 121.29 376.92 123.79 385.00 122.00
C 391.31 119.95 395.23 110.00 401.25 106.25 C 407.27 102.49 411.01 94.28 416.92 89.92 C 422.82 85.56 427.90 77.56 434.00 74.00
C 434.20 73.68 434.68 73.20 435.00 73.00
C 439.07 64.41 450.11 57.49 457.00 51.00
C 457.50 48.59 463.35 42.97 465.00 41.00
C 467.69 37.79 472.59 32.58 477.00 32.00
C 478.94 30.98 486.83 29.65 488.00 32.00
C 491.86 31.74 498.47 40.42 499.00 44.00
C 499.54 47.63 498.39 50.86 497.00 54.00
C 494.18 60.38 487.44 65.25 482.25 70.25 C 477.06 75.25 472.49 81.24 467.08 86.08 C 461.67 90.93 456.87 96.81 451.75 101.75 C 446.62 106.68 440.82 112.03 435.77 116.77 C 430.72 121.51 425.74 128.80 420.25 132.25 C 414.76 135.71 410.42 147.34 404.00 148.00
C 404.00 173.31 401.72 199.81 404.00 225.00
C 404.00 224.96 405.00 225.00 405.00 225.00
C 409.59 229.44 404.66 241.13 406.00 248.00 C 407.34 254.87 405.41 265.35 406.00 273.00 C 406.59 280.65 405.75 290.03 406.00 298.00 C 406.25 305.97 405.93 314.95 406.00 323.00 C 406.07 331.05 406.08 338.95 406.00 347.00 C 405.92 355.05 406.27 364.02 406.00 372.00 C 405.73 379.98 406.64 389.34 406.00 397.00 C 405.36 404.66 407.43 415.10 406.00 422.00 C 404.57 428.90 409.65 441.50 405.00 446.00
C 404.74 446.25 404.00 446.00 404.00 446.00
C 404.00 446.99 404.05 448.01 404.00 449.00
C 403.48 459.01 391.31 466.95 382.00 463.00
C 380.51 462.37 380.24 462.14 379.00 461.00
C 374.95 458.61 368.86 454.27 368.00 447.00
C 367.22 440.39 368.36 433.68 368.00 427.00 C 367.64 420.32 368.18 413.75 368.00 407.00 C 367.82 400.25 368.13 392.74 368.00 386.00 C 367.87 379.26 368.17 372.67 368.00 366.00 C 367.83 359.33 368.33 352.60 368.00 346.00 C 367.67 339.40 368.67 331.38 368.00 325.00 C 367.33 318.62 369.53 310.79 368.00 305.00 C 366.47 299.21 371.24 288.63 368.00 284.00
C 362.67 284.00 357.33 284.00 352.00 284.00
C 351.50 284.00 350.08 283.81 350.00 284.00
C 346.50 291.88 351.54 303.21 350.00 312.00 C 348.46 320.79 350.74 331.85 350.00 341.00 C 349.26 350.15 350.37 359.69 350.00 369.00 C 349.63 378.31 350.28 388.68 350.00 398.00 C 349.72 407.32 350.38 416.79 350.00 426.00 C 349.62 435.21 351.60 445.13 348.00 453.00
C 344.31 461.06 337.67 464.92 329.00 463.00
C 324.96 462.10 321.87 460.98 319.00 458.00
C 306.47 444.97 316.33 418.71 314.00 400.00 C 311.67 381.29 314.91 356.97 314.00 337.00 C 313.09 317.03 314.08 294.54 314.00 274.00 C 313.92 253.46 313.31 231.80 314.00 211.00 C 314.69 190.20 312.12 167.81 314.00 147.00
C 303.81 138.74 295.91 128.71 286.10 119.90 C 276.29 111.09 268.17 100.29 257.92 92.08 C 247.67 83.88 241.46 70.99 230.23 63.77 C 219.00 56.55 214.27 33.18 233.00 31.00
C 234.54 30.82 236.45 30.86 238.00 31.00
C 247.45 31.85 253.18 40.73 259.30 46.70 C 265.41 52.68 271.81 58.60 277.75 65.25 C 283.70 71.90 291.74 77.73 297.08 83.92 C 302.42 90.10 310.87 96.30 315.25 102.75 C 319.63 109.20 332.64 114.44 334.00 122.00
M 368.00 47.00 
C 377.26 50.59 386.42 54.03 389.00 65.00
C 389.11 65.47 389.00 66.00 389.00 66.00
C 396.05 68.88 393.15 85.29 391.01 91.01 C 388.87 96.73 381.24 104.80 375.00 107.00
C 374.13 107.31 373.25 107.74 372.00 108.00
C 368.98 109.33 367.18 111.61 363.00 112.00
C 360.60 112.22 356.59 112.64 355.00 111.00
C 351.36 110.56 350.10 109.93 348.00 109.00
C 335.56 103.51 332.00 98.12 327.00 86.00
C 326.82 85.57 327.00 85.00 327.00 85.00
C 317.60 71.08 336.73 51.64 349.00 47.00
C 351.24 46.15 352.49 45.40 355.00 45.00
C 357.34 44.63 361.70 44.43 364.00 45.00
C 365.40 45.35 366.75 46.19 368.00 47.00
M 155.00 169.00 
C 158.86 170.09 162.89 171.66 166.00 174.00
C 169.25 176.44 172.76 179.66 175.00 183.00
C 183.06 194.99 181.35 210.74 173.00 221.00
C 171.25 224.27 168.70 225.82 166.00 228.00
C 164.62 229.11 163.80 230.09 162.00 231.00
C 158.46 232.78 152.92 234.55 149.00 235.00
C 147.82 235.14 146.18 235.17 145.00 235.00
C 142.88 234.69 138.47 233.14 137.00 232.00
C 124.41 227.81 117.76 220.34 115.00 207.00
C 114.52 204.68 113.80 201.97 114.00 199.00
C 114.64 189.57 120.57 177.57 129.00 173.00
C 129.72 172.61 131.14 172.40 132.00 172.00
C 133.07 171.50 133.39 171.00 135.00 171.00
C 137.15 170.46 139.00 168.44 141.00 168.00
C 145.27 167.07 151.46 168.00 155.00 169.00
M 187.00 244.00 
C 187.95 244.41 188.73 244.67 190.00 245.00
C 196.53 246.70 202.11 251.32 206.75 256.25 C 211.40 261.17 216.65 266.23 221.25 270.75 C 225.85 275.28 231.67 280.83 235.75 285.25 C 239.83 289.66 247.55 295.79 249.92 300.08 C 252.29 304.36 259.63 310.01 262.75 314.25 C 265.87 318.49 277.82 325.15 276.00 328.00
C 276.25 328.21 276.00 329.00 276.00 329.00
C 285.88 335.18 274.35 348.51 268.00 351.00
C 267.57 351.17 266.48 350.91 266.00 351.00
C 262.65 351.61 262.72 352.40 258.00 351.00
C 256.64 350.60 256.08 350.54 255.00 350.00
C 253.75 349.38 252.96 348.75 252.00 348.00
C 245.11 342.62 240.05 335.27 233.25 329.75 C 226.44 324.23 221.56 316.04 214.75 311.25 C 207.93 306.47 202.72 295.52 196.00 292.00
C 195.06 291.76 193.95 292.19 193.00 292.00
C 198.43 302.33 191.98 317.27 194.00 329.00 C 196.02 340.73 192.48 355.95 194.00 368.00
C 218.20 369.19 243.65 365.52 267.00 370.00
C 270.54 371.81 272.49 374.40 274.00 378.00
C 274.49 379.17 274.86 379.67 275.00 381.00
C 275.72 382.33 278.07 382.11 276.00 385.00
C 278.32 384.44 278.21 387.50 278.00 389.00
C 277.91 389.63 277.24 391.40 277.00 392.00
C 271.99 404.34 258.59 414.27 248.92 423.92 C 239.24 433.56 229.18 445.42 218.77 453.77 C 208.36 462.12 200.44 479.97 186.00 481.00
C 183.19 481.80 180.49 480.47 178.00 480.00
C 170.97 478.68 164.59 473.65 164.00 465.00
C 163.83 462.50 163.67 459.48 164.00 457.00
C 165.32 447.10 177.90 442.26 183.25 434.25 C 188.60 426.23 200.13 420.62 205.00 413.00
C 205.75 411.50 205.65 410.61 206.00 409.00
C 186.41 408.97 166.57 409.67 147.00 409.00 C 127.43 408.33 107.48 410.76 88.00 409.00
C 89.68 417.18 102.40 423.11 107.75 430.25 C 113.10 437.39 122.44 445.42 129.00 450.00
C 128.48 452.23 130.54 453.73 130.00 456.00
C 130.02 456.50 129.83 457.57 130.00 458.00
C 134.01 467.87 125.14 477.77 116.00 480.00
C 112.87 480.76 109.47 481.55 106.00 481.00
C 95.27 479.29 90.21 466.77 82.70 460.30 C 75.19 453.82 66.75 444.96 59.92 438.08 C 53.08 431.20 44.31 423.42 38.25 415.75 C 32.19 408.09 18.38 401.89 17.00 392.00
C 16.51 388.50 17.25 384.78 18.00 382.00
C 18.91 378.65 20.42 375.41 23.00 373.00
C 31.97 364.69 46.35 368.53 59.00 368.00 C 71.65 367.47 88.01 368.00 101.00 368.00
C 99.87 355.44 100.96 342.66 101.00 330.00 C 101.04 317.34 99.86 303.65 101.00 291.00
C 95.16 290.15 89.51 301.44 84.25 305.25 C 78.99 309.07 73.70 316.67 68.25 321.25 C 62.80 325.82 58.60 331.70 52.75 336.75 C 46.91 341.80 42.49 349.17 35.00 351.00
C 31.69 351.81 30.31 351.81 27.00 351.00
C 22.44 349.89 15.54 346.90 16.00 341.00
C 13.30 339.72 13.61 334.79 15.00 333.00
C 15.03 332.50 15.00 332.00 15.00 332.00
C 17.23 318.36 35.04 310.90 43.23 300.23 C 51.42 289.56 64.15 279.64 73.75 269.75 C 83.35 259.86 94.08 245.86 108.00 243.00
C 108.90 242.82 110.08 243.00 111.00 243.00
C 123.10 243.00 137.09 241.82 149.00 243.00 C 160.91 244.18 176.53 239.51 187.00 244.00 Z"/>
</g>
<g fill="None" fill-opacity="0.0" stroke="#7FA7BC" stroke-opacity="0.13" stroke-width="0.3"><path d="
M 314.00 147.00 
C 312.13 142.48 305.50 137.46 302.00 134.00
C 292.69 124.78 283.17 115.26 274.00 106.00
C 262.60 96.16 252.67 84.57 242.00 74.00
C 239.05 71.08 235.87 67.90 233.00 65.00
C 229.81 62.25 226.57 59.35 224.00 56.00
C 217.75 47.85 222.72 33.24 233.00 31.00
C 214.27 33.18 219.00 56.55 230.23 63.77 C 241.46 70.99 247.67 83.88 257.92 92.08 C 268.17 100.29 276.29 111.09 286.10 119.90 C 295.91 128.71 303.81 138.74 314.00 147.00 Z"/>
</g>
<g fill="None" fill-opacity="0.0" stroke="#FEFEFE" stroke-opacity="1.00" stroke-width="0.3"><path d="
M 224.00 56.00 
C 229.60 61.49 237.36 66.78 242.75 73.25 C 248.14 79.72 255.26 84.94 260.75 91.25 C 266.25 97.56 274.04 103.44 279.25 109.75 C 284.45 116.06 292.97 121.28 297.25 127.75 C 301.53 134.22 314.20 139.46 315.00 147.00
C 316.86 167.72 314.01 189.24 315.00 210.00 C 315.99 230.76 314.21 252.35 315.00 273.00 C 315.79 293.65 313.88 315.71 315.00 336.00 C 316.12 356.29 312.82 379.53 315.00 399.00 C 317.18 418.47 308.56 441.82 319.00 458.00
C 321.87 460.98 324.96 462.10 329.00 463.00
C 336.38 462.86 344.98 457.28 348.00 453.00
C 351.60 445.13 349.62 435.21 350.00 426.00 C 350.38 416.79 349.72 407.32 350.00 398.00 C 350.28 388.68 349.63 378.31 350.00 369.00 C 350.37 359.69 349.26 350.15 350.00 341.00 C 350.74 331.85 348.46 320.79 350.00 312.00 C 351.54 303.21 346.50 291.88 350.00 284.00
C 349.07 280.96 356.68 282.12 359.00 282.00 C 361.32 281.88 367.34 282.09 370.00 282.00
C 370.00 337.00 370.00 392.00 370.00 447.00
C 370.80 453.01 374.86 457.19 379.00 461.00
C 380.24 462.14 380.51 462.37 382.00 463.00
C 389.45 464.34 396.47 458.73 401.00 453.00
C 408.08 440.82 401.13 423.18 403.00 409.00 C 404.87 394.82 402.16 377.81 403.00 363.00 C 403.84 348.19 402.63 332.09 403.00 317.00 C 403.37 301.91 402.86 286.21 403.00 271.00 C 403.14 255.79 403.00 240.24 403.00 225.00
C 403.00 216.94 402.42 206.86 403.00 199.00 C 403.58 191.14 401.45 180.12 403.00 173.00 C 404.55 165.88 399.13 151.69 404.00 147.00
C 415.62 138.86 424.91 126.02 435.25 116.25 C 445.58 106.47 456.89 95.87 466.25 85.25 C 475.61 74.62 489.87 65.75 497.00 54.00
C 498.39 50.86 499.54 47.63 499.00 44.00
C 497.79 39.12 490.95 35.14 487.00 33.00
C 483.69 33.04 480.41 33.23 477.00 33.00
C 473.02 35.13 469.20 38.80 466.00 42.00
C 463.25 44.75 460.49 48.09 458.00 51.00
C 449.52 60.92 440.70 67.93 431.75 77.75 C 422.80 87.58 413.78 94.14 404.75 104.75 C 395.72 115.37 384.93 125.49 370.00 123.00 C 355.07 120.51 333.55 127.48 324.25 114.75 C 314.94 102.02 306.23 99.20 297.75 88.25 C 289.27 77.30 278.16 71.84 270.75 61.25 C 263.35 50.66 248.82 45.56 244.00 34.00
C 241.95 33.52 239.59 31.35 238.00 31.00
C 236.45 30.86 234.54 30.82 233.00 31.00
C 222.72 33.24 217.75 47.85 224.00 56.00 Z"/>
</g>
<g fill="None" fill-opacity="0.0" stroke="#A1B9D0" stroke-opacity="0.06" stroke-width="0.3"><path d="
M 244.00 34.00 
C 244.47 34.11 245.00 34.00 245.00 34.00
C 256.64 39.69 264.10 54.41 274.25 62.75 C 284.39 71.10 294.47 82.68 303.75 92.25 C 313.03 101.81 325.40 111.14 333.00 122.00
C 333.40 122.20 334.00 122.00 334.00 122.00
C 332.64 114.44 319.63 109.20 315.25 102.75 C 310.87 96.30 302.42 90.10 297.08 83.92 C 291.74 77.73 283.70 71.90 277.75 65.25 C 271.81 58.60 265.41 52.68 259.30 46.70 C 253.18 40.73 247.45 31.85 238.00 31.00
C 239.59 31.35 241.95 33.52 244.00 34.00 Z"/>
</g>
<g fill="None" fill-opacity="0.0" stroke="#AFC2D4" stroke-opacity="0.47" stroke-width="0.3"><path d="
M 477.00 32.00 
C 476.79 32.11 477.00 33.00 477.00 33.00
C 480.41 33.23 483.69 33.04 487.00 33.00
C 487.17 33.00 487.66 32.02 488.00 32.00
C 486.83 29.65 478.94 30.98 477.00 32.00 Z"/>
</g>
<g fill="None" fill-opacity="0.0" stroke="#98B9CB" stroke-opacity="0.20" stroke-width="0.3"><path d="
M 465.00 41.00 
C 464.98 41.07 466.06 41.71 466.00 42.00
C 469.20 38.80 473.02 35.13 477.00 33.00
C 477.00 33.00 476.79 32.11 477.00 32.00
C 472.59 32.58 467.69 37.79 465.00 41.00 Z"/>
</g>
<g fill="None" fill-opacity="0.0" stroke="#92AFC4" stroke-opacity="0.25" stroke-width="0.3"><path d="
M 487.00 33.00 
C 490.95 35.14 497.79 39.12 499.00 44.00
C 498.47 40.42 491.86 31.74 488.00 32.00
C 487.66 32.02 487.17 33.00 487.00 33.00 Z"/>
</g>
<g fill="None" fill-opacity="0.0" stroke="#C5D5E4" stroke-opacity="0.58" stroke-width="0.3"><path d="
M 458.00 51.00 
C 457.84 51.23 457.00 51.00 457.00 51.00
C 452.00 58.16 442.38 68.44 435.00 73.00
C 434.68 73.20 434.20 73.68 434.00 74.00
C 428.92 82.22 417.50 92.01 410.25 98.25 C 402.99 104.48 394.05 119.99 385.00 122.00
C 376.92 123.79 367.26 121.29 359.00 122.00 C 350.74 122.71 342.28 122.00 334.00 122.00
C 334.00 122.00 333.40 122.20 333.00 122.00
C 321.36 116.31 313.90 101.59 303.75 93.25 C 293.61 84.90 283.53 73.32 274.25 63.75 C 264.97 54.19 252.60 44.86 245.00 34.00
C 245.00 34.00 244.47 34.11 244.00 34.00
C 248.82 45.56 263.35 50.66 270.75 61.25 C 278.16 71.84 289.27 77.30 297.75 88.25 C 306.23 99.20 314.94 102.02 324.25 114.75 C 333.55 127.48 355.07 120.51 370.00 123.00 C 384.93 125.49 395.72 115.37 404.75 104.75 C 413.78 94.14 422.80 87.58 431.75 77.75 C 440.70 67.93 449.52 60.92 458.00 51.00 Z"/>
</g>
<g fill="None" fill-opacity="0.0" stroke="#9EBAD1" stroke-opacity="0.29" stroke-width="0.3"><path d="
M 333.00 122.00 
C 325.40 111.14 313.03 101.81 303.75 92.25 C 294.47 82.68 284.39 71.10 274.25 62.75 C 264.10 54.41 256.64 39.69 245.00 34.00
C 252.60 44.86 264.97 54.19 274.25 63.75 C 283.53 73.32 293.61 84.90 303.75 93.25 C 313.90 101.59 321.36 116.31 333.00 122.00 Z"/>
</g>
<g fill="None" fill-opacity="0.0" stroke="#6C89A3" stroke-opacity="0.18" stroke-width="0.3"><path d="
M 457.00 51.00 
C 457.00 51.00 457.84 51.23 458.00 51.00
C 460.49 48.09 463.25 44.75 466.00 42.00
C 466.06 41.71 464.98 41.07 465.00 41.00
C 463.35 42.97 457.50 48.59 457.00 51.00 Z"/>
</g>
<g fill="None" fill-opacity="0.0" stroke="#FDFDFE" stroke-opacity="0.98" stroke-width="0.3"><path d="
M 349.00 47.00 
C 345.15 49.70 342.79 52.75 337.75 55.75 C 332.71 58.75 332.74 64.57 329.67 68.67 C 326.61 72.78 329.15 82.05 327.00 85.00
C 327.00 85.00 326.82 85.57 327.00 86.00
C 331.23 88.65 331.36 96.16 335.75 99.25 C 340.14 102.34 343.19 107.20 348.00 109.00
C 350.06 109.77 352.73 109.85 355.00 110.00
C 357.86 110.19 361.15 110.29 364.00 110.00
C 366.87 109.71 369.20 108.58 372.00 108.00
C 373.25 107.74 374.13 107.31 375.00 107.00
C 390.08 95.80 391.82 83.45 389.00 66.00
C 389.00 66.00 389.11 65.47 389.00 65.00
C 385.13 62.58 384.28 56.99 379.97 55.03 C 375.67 53.07 371.65 49.35 368.00 47.00
C 366.75 46.19 365.40 45.35 364.00 45.00
C 363.34 44.90 355.74 44.95 355.00 45.00
C 352.49 45.40 351.24 46.15 349.00 47.00 Z"/>
</g>
<g fill="None" fill-opacity="0.0" stroke="#33556A" stroke-opacity="0.05" stroke-width="0.3"><path d="
M 364.00 45.00 
C 361.70 44.43 357.34 44.63 355.00 45.00
C 355.74 44.95 363.34 44.90 364.00 45.00 Z"/>
</g>
<g fill="None" fill-opacity="0.0" stroke="#98B4CE" stroke-opacity="0.23" stroke-width="0.3"><path d="
M 327.00 85.00 
C 329.15 82.05 326.61 72.78 329.67 68.67 C 332.74 64.57 332.71 58.75 337.75 55.75 C 342.79 52.75 345.15 49.70 349.00 47.00
C 336.73 51.64 317.60 71.08 327.00 85.00 Z"/>
</g>
<g fill="None" fill-opacity="0.0" stroke="#93B1C7" stroke-opacity="0.25" stroke-width="0.3"><path d="
M 389.00 65.00 
C 386.42 54.03 377.26 50.59 368.00 47.00
C 371.65 49.35 375.67 53.07 379.97 55.03 C 384.28 56.99 385.13 62.58 389.00 65.00 Z"/>
</g>
<g fill="None" fill-opacity="0.0" stroke="#B2CEDF" stroke-opacity="0.09" stroke-width="0.3"><path d="
M 435.00 73.00 
C 442.38 68.44 452.00 58.16 457.00 51.00
C 450.11 57.49 439.07 64.41 435.00 73.00 Z"/>
</g>
<g fill="None" fill-opacity="0.0" stroke="#5E8398" stroke-opacity="0.12" stroke-width="0.3"><path d="
M 404.00 147.00 
C 403.77 147.16 404.00 148.00 404.00 148.00
C 410.42 147.34 414.76 135.71 420.25 132.25 C 425.74 128.80 430.72 121.51 435.77 116.77 C 440.82 112.03 446.62 106.68 451.75 101.75 C 456.87 96.81 461.67 90.93 467.08 86.08 C 472.49 81.24 477.06 75.25 482.25 70.25 C 487.44 65.25 494.18 60.38 497.00 54.00
C 489.87 65.75 475.61 74.62 466.25 85.25 C 456.89 95.87 445.58 106.47 435.25 116.25 C 424.91 126.02 415.62 138.86 404.00 147.00 Z"/>
</g>
<g fill="None" fill-opacity="0.0" stroke="#DFEAF2" stroke-opacity="0.75" stroke-width="0.3"><path d="
M 233.00 65.00 
C 236.24 67.80 239.25 70.81 242.00 74.00
C 252.67 84.57 262.60 96.16 274.00 106.00
C 283.79 114.45 293.59 124.26 302.00 134.00
C 305.50 137.46 312.13 142.48 314.00 147.00
C 314.07 147.18 315.00 147.00 315.00 147.00
C 314.20 139.46 301.53 134.22 297.25 127.75 C 292.97 121.28 284.45 116.06 279.25 109.75 C 274.04 103.44 266.25 97.56 260.75 91.25 C 255.26 84.94 248.14 79.72 242.75 73.25 C 237.36 66.78 229.60 61.49 224.00 56.00
C 226.57 59.35 229.81 62.25 233.00 65.00 Z"/>
</g>
<g fill="None" fill-opacity="0.0" stroke="#B6CBDD" stroke-opacity="0.48" stroke-width="0.3"><path d="
M 242.00 74.00 
C 239.25 70.81 236.24 67.80 233.00 65.00
C 235.87 67.90 239.05 71.08 242.00 74.00 Z"/>
</g>
<g fill="None" fill-opacity="0.0" stroke="#87A8C4" stroke-opacity="0.19" stroke-width="0.3"><path d="
M 375.00 107.00 
C 381.24 104.80 388.87 96.73 391.01 91.01 C 393.15 85.29 396.05 68.88 389.00 66.00
C 391.82 83.45 390.08 95.80 375.00 107.00 Z"/>
</g>
<g fill="None" fill-opacity="0.0" stroke="#527A90" stroke-opacity="0.10" stroke-width="0.3"><path d="
M 385.00 122.00 
C 394.05 119.99 402.99 104.48 410.25 98.25 C 417.50 92.01 428.92 82.22 434.00 74.00
C 427.90 77.56 422.82 85.56 416.92 89.92 C 411.01 94.28 407.27 102.49 401.25 106.25 C 395.23 110.00 391.31 119.95 385.00 122.00 Z"/>
</g>
<g fill="None" fill-opacity="0.0" stroke="#92B0C5" stroke-opacity="0.20" stroke-width="0.3"><path d="
M 348.00 109.00 
C 343.19 107.20 340.14 102.34 335.75 99.25 C 331.36 96.16 331.23 88.65 327.00 86.00
C 332.00 98.12 335.56 103.51 348.00 109.00 Z"/>
</g>
<g fill="None" fill-opacity="0.0" stroke="#B4C9DB" stroke-opacity="0.47" stroke-width="0.3"><path d="
M 302.00 134.00 
C 293.59 124.26 283.79 114.45 274.00 106.00
C 283.17 115.26 292.69 124.78 302.00 134.00 Z"/>
</g>
<g fill="None" fill-opacity="0.0" stroke="#7FA8BF" stroke-opacity="0.10" stroke-width="0.3"><path d="
M 364.00 110.00 
C 363.62 110.22 363.26 111.88 363.00 112.00
C 367.18 111.61 368.98 109.33 372.00 108.00
C 369.20 108.58 366.87 109.71 364.00 110.00 Z"/>
</g>
<g fill="None" fill-opacity="0.0" stroke="#6281B6" stroke-opacity="0.07" stroke-width="0.3"><path d="
M 355.00 111.00 
C 354.75 110.74 355.00 110.00 355.00 110.00
C 352.73 109.85 350.06 109.77 348.00 109.00
C 350.10 109.93 351.36 110.56 355.00 111.00 Z"/>
</g>
<g fill="None" fill-opacity="0.0" stroke="#CEDEEC" stroke-opacity="0.40" stroke-width="0.3"><path d="
M 355.00 111.00 
C 356.59 112.64 360.60 112.22 363.00 112.00
C 363.26 111.88 363.62 110.22 364.00 110.00
C 361.15 110.29 357.86 110.19 355.00 110.00
C 355.00 110.00 354.75 110.74 355.00 111.00 Z"/>
</g>
<g fill="None" fill-opacity="0.0" stroke="#738DA3" stroke-opacity="0.27" stroke-width="0.3"><path d="
M 319.00 458.00 
C 308.56 441.82 317.18 418.47 315.00 399.00 C 312.82 379.53 316.12 356.29 315.00 336.00 C 313.88 315.71 315.79 293.65 315.00 273.00 C 314.21 252.35 315.99 230.76 315.00 210.00 C 314.01 189.24 316.86 167.72 315.00 147.00
C 315.00 147.00 314.07 147.18 314.00 147.00
C 312.12 167.81 314.69 190.20 314.00 211.00 C 313.31 231.80 313.92 253.46 314.00 274.00 C 314.08 294.54 313.09 317.03 314.00 337.00 C 314.91 356.97 311.67 381.29 314.00 400.00 C 316.33 418.71 306.47 444.97 319.00 458.00 Z"/>
</g>
<g fill="None" fill-opacity="0.0" stroke="#CDD6DE" stroke-opacity="0.74" stroke-width="0.3"><path d="
M 403.00 225.00 
C 403.00 224.96 404.00 225.00 404.00 225.00
C 401.72 199.81 404.00 173.31 404.00 148.00
C 404.00 148.00 403.77 147.16 404.00 147.00
C 399.13 151.69 404.55 165.88 403.00 173.00 C 401.45 180.12 403.58 191.14 403.00 199.00 C 402.42 206.86 403.00 216.94 403.00 225.00 Z"/>
</g>
<g fill="None" fill-opacity="0.0" stroke="#B4C8D8" stroke-opacity="0.50" stroke-width="0.3"><path d="
M 135.00 171.00 
C 136.95 171.00 138.89 170.38 141.00 170.00
C 140.82 170.30 140.13 168.51 141.00 168.00
C 139.00 168.44 137.15 170.46 135.00 171.00 Z"/>
</g>
<g fill="None" fill-opacity="0.0" stroke="#C8D7E8" stroke-opacity="0.34" stroke-width="0.3"><path d="
M 141.00 170.00 
C 145.49 169.20 150.45 170.41 155.00 170.00
C 154.78 169.88 155.00 169.00 155.00 169.00
C 151.46 168.00 145.27 167.07 141.00 168.00
C 140.13 168.51 140.82 170.30 141.00 170.00 Z"/>
</g>
<g fill="None" fill-opacity="0.0" stroke="#91B0C5" stroke-opacity="0.24" stroke-width="0.3"><path d="
M 155.00 170.00 
C 160.59 173.21 165.84 174.73 170.00 180.00
C 172.85 182.85 175.46 185.16 177.00 189.00
C 181.46 200.08 177.58 212.43 173.00 221.00
C 181.35 210.74 183.06 194.99 175.00 183.00
C 172.80 180.21 168.64 176.33 166.00 174.00
C 162.89 171.66 158.86 170.09 155.00 169.00
C 155.00 169.00 154.78 169.88 155.00 170.00 Z"/>
</g>
<g fill="None" fill-opacity="0.0" stroke="#FDFDFE" stroke-opacity="0.99" stroke-width="0.3"><path d="
M 135.00 171.00 
C 133.39 171.00 133.07 171.50 132.00 172.00
C 131.15 172.93 128.50 175.89 126.00 178.00
C 120.78 184.05 115.49 191.29 114.00 199.00
C 113.80 201.97 114.52 204.68 115.00 207.00
C 118.53 216.56 126.15 228.19 137.00 231.00
C 139.32 231.60 143.07 232.73 145.00 233.00
C 146.27 233.18 147.71 233.00 149.00 233.00
C 152.33 232.54 156.17 230.14 160.00 230.00
C 160.50 229.98 161.00 230.00 161.00 230.00
C 162.60 227.54 165.21 225.62 168.00 225.00
C 167.70 226.25 166.17 226.71 166.00 228.00
C 168.70 225.82 171.25 224.27 173.00 221.00
C 177.58 212.43 181.46 200.08 177.00 189.00
C 175.55 186.19 172.11 182.67 170.00 180.00
C 165.84 174.73 160.59 173.21 155.00 170.00
C 150.45 170.41 145.49 169.20 141.00 170.00
C 138.89 170.38 136.95 171.00 135.00 171.00 Z"/>
</g>
<g fill="None" fill-opacity="0.0" stroke="#BBCEDF" stroke-opacity="0.43" stroke-width="0.3"><path d="
M 129.00 173.00 
C 128.31 173.54 126.86 177.00 126.00 178.00
C 128.50 175.89 131.15 172.93 132.00 172.00
C 131.14 172.40 129.72 172.61 129.00 173.00 Z"/>
</g>
<g fill="None" fill-opacity="0.0" stroke="#85A4BC" stroke-opacity="0.18" stroke-width="0.3"><path d="
M 114.00 199.00 
C 115.49 191.29 120.78 184.05 126.00 178.00
C 126.86 177.00 128.31 173.54 129.00 173.00
C 120.57 177.57 114.64 189.57 114.00 199.00 Z"/>
</g>
<g fill="None" fill-opacity="0.0" stroke="#6981A1" stroke-opacity="0.05" stroke-width="0.3"><path d="
M 175.00 183.00 
C 172.76 179.66 169.25 176.44 166.00 174.00
C 168.64 176.33 172.80 180.21 175.00 183.00 Z"/>
</g>
<g fill="None" fill-opacity="0.0" stroke="#DCE7F2" stroke-opacity="0.71" stroke-width="0.3"><path d="
M 177.00 189.00 
C 175.46 185.16 172.85 182.85 170.00 180.00
C 172.11 182.67 175.55 186.19 177.00 189.00 Z"/>
</g>
<g fill="None" fill-opacity="0.0" stroke="#93ACC2" stroke-opacity="0.24" stroke-width="0.3"><path d="
M 137.00 232.00 
C 136.76 231.81 137.00 231.00 137.00 231.00
C 126.15 228.19 118.53 216.56 115.00 207.00
C 117.76 220.34 124.41 227.81 137.00 232.00 Z"/>
</g>
<g fill="None" fill-opacity="0.0" stroke="#B3D0DF" stroke-opacity="0.44" stroke-width="0.3"><path d="
M 161.00 230.00 
C 161.35 230.03 161.80 230.98 162.00 231.00
C 163.80 230.09 164.62 229.11 166.00 228.00
C 166.17 226.71 167.70 226.25 168.00 225.00
C 165.21 225.62 162.60 227.54 161.00 230.00 Z"/>
</g>
<g fill="None" fill-opacity="0.0" stroke="#E7EFF5" stroke-opacity="0.84" stroke-width="0.3"><path d="
M 401.00 453.00 
C 401.93 451.82 403.71 450.43 404.00 449.00
C 404.05 448.01 404.00 446.99 404.00 446.00
C 404.00 409.35 405.25 372.65 404.00 336.00 C 402.75 299.35 407.30 261.53 404.00 225.00
C 404.00 225.00 403.00 224.96 403.00 225.00
C 403.00 240.24 403.14 255.79 403.00 271.00 C 402.86 286.21 403.37 301.91 403.00 317.00 C 402.63 332.09 403.84 348.19 403.00 363.00 C 402.16 377.81 404.87 394.82 403.00 409.00 C 401.13 423.18 408.08 440.82 401.00 453.00 Z"/>
</g>
<g fill="None" fill-opacity="0.0" stroke="#A6C0D7" stroke-opacity="0.31" stroke-width="0.3"><path d="
M 404.00 446.00 
C 404.00 446.00 404.74 446.25 405.00 446.00
C 408.27 409.88 405.02 372.33 405.00 336.00 C 404.98 299.67 408.24 261.21 405.00 225.00
C 405.00 225.00 404.00 224.96 404.00 225.00
C 407.30 261.53 402.75 299.35 404.00 336.00 C 405.25 372.65 404.00 409.35 404.00 446.00 Z"/>
</g>
<g fill="None" fill-opacity="0.0" stroke="#B5B5DA" stroke-opacity="0.03" stroke-width="0.3"><path d="
M 405.00 446.00 
C 409.65 441.50 404.57 428.90 406.00 422.00 C 407.43 415.10 405.36 404.66 406.00 397.00 C 406.64 389.34 405.73 379.98 406.00 372.00 C 406.27 364.02 405.92 355.05 406.00 347.00 C 406.08 338.95 406.07 331.05 406.00 323.00 C 405.93 314.95 406.25 305.97 406.00 298.00 C 405.75 290.03 406.59 280.65 406.00 273.00 C 405.41 265.35 407.34 254.87 406.00 248.00 C 404.66 241.13 409.59 229.44 405.00 225.00
C 408.24 261.21 404.98 299.67 405.00 336.00 C 405.02 372.33 408.27 409.88 405.00 446.00 Z"/>
</g>
<g fill="None" fill-opacity="0.0" stroke="#D8E3EC" stroke-opacity="0.75" stroke-width="0.3"><path d="
M 149.00 233.00 
C 149.50 233.00 150.00 233.00 150.00 233.00
C 153.35 232.92 157.56 231.98 160.00 230.00
C 156.17 230.14 152.33 232.54 149.00 233.00 Z"/>
</g>
<g fill="None" fill-opacity="0.0" stroke="#7CA4BD" stroke-opacity="0.14" stroke-width="0.3"><path d="
M 150.00 233.00 
C 149.95 232.95 148.95 235.02 149.00 235.00
C 152.92 234.55 158.46 232.78 162.00 231.00
C 161.80 230.98 161.35 230.03 161.00 230.00
C 161.00 230.00 160.50 229.98 160.00 230.00
C 157.56 231.98 153.35 232.92 150.00 233.00 Z"/>
</g>
<g fill="None" fill-opacity="0.0" stroke="#A4BDCC" stroke-opacity="0.44" stroke-width="0.3"><path d="
M 137.00 232.00 
C 138.47 233.14 142.88 234.69 145.00 235.00
C 144.76 234.68 145.25 233.28 145.00 233.00
C 143.07 232.73 139.32 231.60 137.00 231.00
C 137.00 231.00 136.76 231.81 137.00 232.00 Z"/>
</g>
<g fill="None" fill-opacity="0.0" stroke="#BED5E7" stroke-opacity="0.27" stroke-width="0.3"><path d="
M 145.00 235.00 
C 146.18 235.17 147.82 235.14 149.00 235.00
C 148.95 235.02 149.95 232.95 150.00 233.00
C 150.00 233.00 149.50 233.00 149.00 233.00
C 147.71 233.00 146.27 233.18 145.00 233.00
C 145.25 233.28 144.76 234.68 145.00 235.00 Z"/>
</g>
<g fill="None" fill-opacity="0.0" stroke="#A0B9D4" stroke-opacity="0.21" stroke-width="0.3"><path d="
M 15.00 332.00 
C 22.89 327.06 27.93 315.31 36.25 309.25 C 44.57 303.18 50.81 293.60 58.75 286.75 C 66.69 279.90 72.86 272.04 80.75 264.75 C 88.65 257.46 95.66 246.90 107.00 246.00
C 107.94 245.69 108.57 245.12 110.00 245.00
C 109.69 244.89 108.21 243.04 108.00 243.00
C 94.08 245.86 83.35 259.86 73.75 269.75 C 64.15 279.64 51.42 289.56 43.23 300.23 C 35.04 310.90 17.23 318.36 15.00 332.00 Z"/>
</g>
<g fill="None" fill-opacity="0.0" stroke="#C9DAEA" stroke-opacity="0.43" stroke-width="0.3"><path d="
M 110.00 245.00 
C 118.58 244.27 128.47 244.95 137.00 245.00 C 145.53 245.05 155.83 244.13 164.00 245.00 C 172.17 245.87 183.78 241.95 190.00 247.00
C 190.49 247.08 191.00 247.00 191.00 247.00
C 190.94 247.05 189.98 244.98 190.00 245.00
C 188.73 244.67 187.95 244.41 187.00 244.00
C 174.93 241.34 161.35 245.39 149.00 244.00 C 136.65 242.61 122.63 245.55 111.00 243.00
C 110.08 243.00 108.90 242.82 108.00 243.00
C 108.21 243.04 109.69 244.89 110.00 245.00 Z"/>
</g>
<g fill="None" fill-opacity="0.0" stroke="#C1FFFF" stroke-opacity="0.02" stroke-width="0.3"><path d="
M 187.00 244.00 
C 176.53 239.51 160.91 244.18 149.00 243.00 C 137.09 241.82 123.10 243.00 111.00 243.00
C 122.63 245.55 136.65 242.61 149.00 244.00 C 161.35 245.39 174.93 241.34 187.00 244.00 Z"/>
</g>
<g fill="None" fill-opacity="0.0" stroke="#EBF2F7" stroke-opacity="0.87" stroke-width="0.3"><path d="
M 107.00 246.00 
C 120.68 244.91 135.33 246.14 149.00 246.00 C 162.67 245.86 176.83 244.84 190.00 247.00
C 183.78 241.95 172.17 245.87 164.00 245.00 C 155.83 244.13 145.53 245.05 137.00 245.00 C 128.47 244.95 118.58 244.27 110.00 245.00
C 108.57 245.12 107.94 245.69 107.00 246.00 Z"/>
</g>
<g fill="None" fill-opacity="0.0" stroke="#88A6BE" stroke-opacity="0.13" stroke-width="0.3"><path d="
M 191.00 247.00 
C 192.74 247.16 193.53 248.20 195.00 249.00
C 196.24 249.67 197.72 250.09 199.00 251.00
C 208.79 257.95 216.45 268.52 225.25 276.75 C 234.05 284.98 243.24 293.92 251.00 303.00
C 257.43 310.52 264.92 318.19 272.00 325.00
C 273.25 326.02 274.82 326.99 276.00 328.00
C 277.82 325.15 265.87 318.49 262.75 314.25 C 259.63 310.01 252.29 304.36 249.92 300.08 C 247.55 295.79 239.83 289.66 235.75 285.25 C 231.67 280.83 225.85 275.28 221.25 270.75 C 216.65 266.23 211.40 261.17 206.75 256.25 C 202.11 251.32 196.53 246.70 190.00 245.00
C 189.98 244.98 190.94 247.05 191.00 247.00 Z"/>
</g>
<g fill="None" fill-opacity="0.0" stroke="#FEFEFE" stroke-opacity="1.00" stroke-width="0.3"><path d="
M 15.00 332.00 
C 15.00 332.00 15.03 332.50 15.00 333.00
C 14.83 335.49 15.20 337.75 16.00 340.00
C 19.04 344.72 21.99 347.12 27.00 350.00
C 35.83 349.20 42.22 345.45 47.75 338.75 C 53.28 332.06 58.62 327.68 64.25 322.25 C 69.88 316.82 74.37 310.30 80.25 306.25 C 86.12 302.19 90.34 291.48 97.00 290.00
C 98.28 289.72 101.50 289.51 102.00 291.00
C 103.13 303.56 102.04 316.34 102.00 329.00 C 101.96 341.66 103.14 355.35 102.00 368.00
C 101.77 372.06 88.00 369.55 83.00 370.00 C 78.00 370.45 66.98 369.90 61.00 370.00 C 55.02 370.10 46.24 370.23 40.00 370.00 C 33.76 369.77 27.70 370.74 23.00 375.00
C 21.45 378.24 19.48 379.16 19.00 383.00
C 19.63 385.85 18.59 389.10 19.00 392.00
C 20.66 403.65 37.17 412.00 44.75 421.25 C 52.34 430.50 63.79 440.73 72.75 449.25 C 81.71 457.76 91.08 470.73 101.00 477.00
C 105.36 478.98 110.43 478.63 116.00 479.00
C 126.14 475.38 128.54 466.35 130.00 458.00
C 129.83 457.57 130.02 456.50 130.00 456.00
C 126.13 451.17 119.45 445.39 115.25 440.75 C 111.05 436.11 103.21 429.51 99.75 425.25 C 96.29 420.98 83.21 412.64 88.00 408.00
C 95.81 407.30 104.18 408.22 112.00 408.00 C 119.82 407.78 128.30 407.88 136.00 408.00 C 143.70 408.12 152.62 407.45 160.00 408.00 C 167.38 408.55 177.36 406.67 184.00 408.00 C 190.64 409.33 202.69 404.52 207.00 409.00
C 207.43 409.71 207.00 412.15 207.00 413.00
C 207.00 413.50 207.00 414.00 207.00 414.00
C 203.40 421.36 192.66 429.06 186.75 434.75 C 180.84 440.44 173.45 451.89 166.00 455.00
C 164.43 457.92 165.30 461.71 165.00 465.00
C 166.94 470.16 168.34 473.17 173.00 476.00
C 177.30 478.61 183.74 481.12 188.00 480.00
C 200.33 475.36 208.69 460.38 218.75 451.75 C 228.82 443.13 238.94 431.86 248.25 422.25 C 257.55 412.64 270.27 403.03 277.00 392.00
C 277.24 391.40 277.91 389.63 278.00 389.00
C 278.12 390.42 275.73 388.36 276.00 386.00
C 274.03 384.25 275.14 382.34 275.00 381.00
C 274.86 379.67 274.49 379.17 274.00 378.00
C 272.65 376.13 269.31 374.81 268.00 373.00
C 257.32 366.45 244.66 369.56 232.00 369.00 C 219.34 368.44 204.82 369.42 192.00 369.00
C 192.00 343.33 192.00 317.67 192.00 292.00
C 193.95 285.86 205.03 298.14 208.25 301.75 C 211.46 305.36 219.04 312.44 223.25 316.75 C 227.45 321.07 233.58 327.19 238.25 331.75 C 242.91 336.32 248.56 342.21 253.00 347.00
C 253.74 347.67 255.63 350.58 255.00 350.00
C 256.08 350.54 256.64 350.60 258.00 351.00
C 260.80 350.86 262.96 349.71 266.00 351.00
C 266.48 350.91 267.57 351.17 268.00 351.00
C 268.48 348.38 272.41 346.71 274.92 342.92 C 277.43 339.13 277.61 333.53 276.00 329.00
C 276.00 329.00 276.25 328.21 276.00 328.00
C 274.82 326.99 273.25 326.02 272.00 325.00
C 244.33 302.29 222.76 271.06 195.00 249.00
C 193.53 248.20 192.74 247.16 191.00 247.00
C 191.00 247.00 190.49 247.08 190.00 247.00
C 176.83 244.84 162.67 245.86 149.00 246.00 C 135.33 246.14 120.68 244.91 107.00 246.00
C 95.66 246.90 88.65 257.46 80.75 264.75 C 72.86 272.04 66.69 279.90 58.75 286.75 C 50.81 293.60 44.57 303.18 36.25 309.25 C 27.93 315.31 22.89 327.06 15.00 332.00 Z"/>
</g>
<g fill="None" fill-opacity="0.0" stroke="#E8F0F7" stroke-opacity="0.81" stroke-width="0.3"><path d="
M 272.00 325.00 
C 264.92 318.19 257.43 310.52 251.00 303.00
C 234.07 286.07 217.22 266.32 199.00 251.00
C 197.72 250.09 196.24 249.67 195.00 249.00
C 222.76 271.06 244.33 302.29 272.00 325.00 Z"/>
</g>
<g fill="None" fill-opacity="0.0" stroke="#AFC7DA" stroke-opacity="0.41" stroke-width="0.3"><path d="
M 251.00 303.00 
C 243.24 293.92 234.05 284.98 225.25 276.75 C 216.45 268.52 208.79 257.95 199.00 251.00
C 217.22 266.32 234.07 286.07 251.00 303.00 Z"/>
</g>
<g fill="None" fill-opacity="0.0" stroke="#D1E0EE" stroke-opacity="0.45" stroke-width="0.3"><path d="
M 350.00 284.00 
C 350.08 283.81 351.50 284.00 352.00 284.00
C 354.48 282.94 366.07 281.24 368.00 284.00
C 371.24 288.63 366.47 299.21 368.00 305.00 C 369.53 310.79 367.33 318.62 368.00 325.00 C 368.67 331.38 367.67 339.40 368.00 346.00 C 368.33 352.60 367.83 359.33 368.00 366.00 C 368.17 372.67 367.87 379.26 368.00 386.00 C 368.13 392.74 367.82 400.25 368.00 407.00 C 368.18 413.75 367.64 420.32 368.00 427.00 C 368.36 433.68 367.22 440.39 368.00 447.00
C 368.08 447.19 369.83 446.76 370.00 447.00
C 370.00 392.00 370.00 337.00 370.00 282.00
C 367.34 282.09 361.32 281.88 359.00 282.00 C 356.68 282.12 349.07 280.96 350.00 284.00 Z"/>
</g>
<g fill="None" fill-opacity="0.0" stroke="#DEDEFF" stroke-opacity="0.03" stroke-width="0.3"><path d="
M 352.00 284.00 
C 357.33 284.00 362.67 284.00 368.00 284.00
C 366.07 281.24 354.48 282.94 352.00 284.00 Z"/>
</g>
<g fill="None" fill-opacity="0.0" stroke="#D3DFEC" stroke-opacity="0.66" stroke-width="0.3"><path d="
M 27.00 350.00 
C 27.22 350.12 27.00 351.00 27.00 351.00
C 30.31 351.81 31.69 351.81 35.00 351.00
C 36.74 350.31 39.34 348.24 41.00 347.00
C 45.73 342.88 50.58 337.42 55.00 333.00
C 58.37 329.06 62.11 325.33 66.00 322.00
C 68.92 319.08 72.13 315.87 75.00 313.00
C 77.90 309.60 81.94 304.11 85.75 301.75 C 89.56 299.39 93.17 291.12 97.00 290.00
C 90.34 291.48 86.12 302.19 80.25 306.25 C 74.37 310.30 69.88 316.82 64.25 322.25 C 58.62 327.68 53.28 332.06 47.75 338.75 C 42.22 345.45 35.83 349.20 27.00 350.00 Z"/>
</g>
<g fill="None" fill-opacity="0.0" stroke="#94B0C7" stroke-opacity="0.17" stroke-width="0.3"><path d="
M 75.00 313.00 
C 72.22 316.25 69.20 319.26 66.00 322.00
C 62.11 325.33 58.37 329.06 55.00 333.00
C 50.84 337.87 46.11 343.20 41.00 347.00
C 39.34 348.24 36.74 350.31 35.00 351.00
C 42.49 349.17 46.91 341.80 52.75 336.75 C 58.60 331.70 62.80 325.82 68.25 321.25 C 73.70 316.67 78.99 309.07 84.25 305.25 C 89.51 301.44 95.16 290.15 101.00 291.00
C 101.49 291.07 102.00 291.00 102.00 291.00
C 101.50 289.51 98.28 289.72 97.00 290.00
C 93.17 291.12 89.56 299.39 85.75 301.75 C 81.94 304.11 77.90 309.60 75.00 313.00 Z"/>
</g>
<g fill="None" fill-opacity="0.0" stroke="#EDF5FB" stroke-opacity="0.82" stroke-width="0.3"><path d="
M 192.00 292.00 
C 192.00 291.96 193.00 292.00 193.00 292.00
C 197.64 288.28 204.49 299.86 208.75 303.25 C 213.02 306.64 218.69 313.52 223.25 317.75 C 227.81 321.98 233.09 327.58 237.75 332.25 C 242.42 336.91 248.13 342.56 253.00 347.00
C 248.56 342.21 242.91 336.32 238.25 331.75 C 233.58 327.19 227.45 321.07 223.25 316.75 C 219.04 312.44 211.46 305.36 208.25 301.75 C 205.03 298.14 193.95 285.86 192.00 292.00 Z"/>
</g>
<g fill="None" fill-opacity="0.0" stroke="#768FA5" stroke-opacity="0.32" stroke-width="0.3"><path d="
M 101.00 368.00 
C 101.50 368.00 102.00 368.00 102.00 368.00
C 103.14 355.35 101.96 341.66 102.00 329.00 C 102.04 316.34 103.13 303.56 102.00 291.00
C 102.00 291.00 101.49 291.07 101.00 291.00
C 99.86 303.65 101.04 317.34 101.00 330.00 C 100.96 342.66 99.87 355.44 101.00 368.00 Z"/>
</g>
<g fill="None" fill-opacity="0.0" stroke="#A3BBD0" stroke-opacity="0.36" stroke-width="0.3"><path d="
M 193.00 292.00 
C 193.95 292.19 195.06 291.76 196.00 292.00
C 203.59 293.93 208.03 305.85 214.75 310.25 C 221.47 314.65 226.72 323.47 233.25 328.75 C 239.77 334.03 245.94 342.26 252.00 348.00
C 252.96 348.75 253.75 349.38 255.00 350.00
C 255.63 350.58 253.74 347.67 253.00 347.00
C 248.13 342.56 242.42 336.91 237.75 332.25 C 233.09 327.58 227.81 321.98 223.25 317.75 C 218.69 313.52 213.02 306.64 208.75 303.25 C 204.49 299.86 197.64 288.28 193.00 292.00 Z"/>
</g>
<g fill="None" fill-opacity="0.0" stroke="#D2E1EF" stroke-opacity="0.43" stroke-width="0.3"><path d="
M 268.00 373.00 
C 267.47 372.26 267.42 370.45 267.00 370.00
C 243.65 365.52 218.20 369.19 194.00 368.00
C 192.48 355.95 196.02 340.73 194.00 329.00 C 191.98 317.27 198.43 302.33 193.00 292.00
C 193.00 292.00 192.00 291.96 192.00 292.00
C 192.00 317.67 192.00 343.33 192.00 369.00
C 204.82 369.42 219.34 368.44 232.00 369.00 C 244.66 369.56 257.32 366.45 268.00 373.00 Z"/>
</g>
<g fill="None" fill-opacity="0.0" stroke="#466F9C" stroke-opacity="0.04" stroke-width="0.3"><path d="
M 252.00 348.00 
C 245.94 342.26 239.77 334.03 233.25 328.75 C 226.72 323.47 221.47 314.65 214.75 310.25 C 208.03 305.85 203.59 293.93 196.00 292.00
C 202.72 295.52 207.93 306.47 214.75 311.25 C 221.56 316.04 226.44 324.23 233.25 329.75 C 240.05 335.27 245.11 342.62 252.00 348.00 Z"/>
</g>
<g fill="None" fill-opacity="0.0" stroke="#A1BAD0" stroke-opacity="0.35" stroke-width="0.3"><path d="
M 66.00 322.00 
C 69.20 319.26 72.22 316.25 75.00 313.00
C 72.13 315.87 68.92 319.08 66.00 322.00 Z"/>
</g>
<g fill="None" fill-opacity="0.0" stroke="#92AECA" stroke-opacity="0.22" stroke-width="0.3"><path d="
M 268.00 351.00 
C 274.35 348.51 285.88 335.18 276.00 329.00
C 277.61 333.53 277.43 339.13 274.92 342.92 C 272.41 346.71 268.48 348.38 268.00 351.00 Z"/>
</g>
<g fill="None" fill-opacity="0.0" stroke="#6F829C" stroke-opacity="0.08" stroke-width="0.3"><path d="
M 16.00 341.00 
C 16.04 340.50 16.00 340.00 16.00 340.00
C 15.20 337.75 14.83 335.49 15.00 333.00
C 13.61 334.79 13.30 339.72 16.00 341.00 Z"/>
</g>
<g fill="None" fill-opacity="0.0" stroke="#9EB7CE" stroke-opacity="0.34" stroke-width="0.3"><path d="
M 41.00 347.00 
C 46.11 343.20 50.84 337.87 55.00 333.00
C 50.58 337.42 45.73 342.88 41.00 347.00 Z"/>
</g>
<g fill="None" fill-opacity="0.0" stroke="#9EB6CF" stroke-opacity="0.24" stroke-width="0.3"><path d="
M 16.00 341.00 
C 15.54 346.90 22.44 349.89 27.00 351.00
C 27.00 351.00 27.22 350.12 27.00 350.00
C 21.99 347.12 19.04 344.72 16.00 340.00
C 16.00 340.00 16.04 340.50 16.00 341.00 Z"/>
</g>
<g fill="None" fill-opacity="0.0" stroke="#A9C5D4" stroke-opacity="0.35" stroke-width="0.3"><path d="
M 258.00 351.00 
C 262.72 352.40 262.65 351.61 266.00 351.00
C 262.96 349.71 260.80 350.86 258.00 351.00 Z"/>
</g>
<g fill="None" fill-opacity="0.0" stroke="#D8E5F0" stroke-opacity="0.64" stroke-width="0.3"><path d="
M 23.00 373.00 
C 22.75 373.23 23.19 374.59 23.00 375.00
C 27.70 370.74 33.76 369.77 40.00 370.00 C 46.24 370.23 55.02 370.10 61.00 370.00 C 66.98 369.90 78.00 370.45 83.00 370.00 C 88.00 369.55 101.77 372.06 102.00 368.00
C 102.00 368.00 101.50 368.00 101.00 368.00
C 88.01 368.00 71.65 367.47 59.00 368.00 C 46.35 368.53 31.97 364.69 23.00 373.00 Z"/>
</g>
<g fill="None" fill-opacity="0.0" stroke="#88A0B5" stroke-opacity="0.17" stroke-width="0.3"><path d="
M 268.00 373.00 
C 269.31 374.81 272.65 376.13 274.00 378.00
C 272.49 374.40 270.54 371.81 267.00 370.00
C 267.42 370.45 267.47 372.26 268.00 373.00 Z"/>
</g>
<g fill="None" fill-opacity="0.0" stroke="#607993" stroke-opacity="0.11" stroke-width="0.3"><path d="
M 18.00 382.00 
C 18.03 382.35 18.95 382.77 19.00 383.00
C 19.48 379.16 21.45 378.24 23.00 375.00
C 23.19 374.59 22.75 373.23 23.00 373.00
C 20.42 375.41 18.91 378.65 18.00 382.00 Z"/>
</g>
<g fill="None" fill-opacity="0.0" stroke="#B6D7E9" stroke-opacity="0.36" stroke-width="0.3"><path d="
M 276.00 386.00 
C 276.06 385.51 276.00 385.00 276.00 385.00
C 278.07 382.11 275.72 382.33 275.00 381.00
C 275.14 382.34 274.03 384.25 276.00 386.00 Z"/>
</g>
<g fill="None" fill-opacity="0.0" stroke="#CCE3EF" stroke-opacity="0.39" stroke-width="0.3"><path d="
M 17.00 392.00 
C 17.08 392.19 18.87 391.78 19.00 392.00
C 18.59 389.10 19.63 385.85 19.00 383.00
C 18.95 382.77 18.03 382.35 18.00 382.00
C 17.25 384.78 16.51 388.50 17.00 392.00 Z"/>
</g>
<g fill="None" fill-opacity="0.0" stroke="#87A4BB" stroke-opacity="0.12" stroke-width="0.3"><path d="
M 276.00 386.00 
C 275.73 388.36 278.12 390.42 278.00 389.00
C 278.21 387.50 278.32 384.44 276.00 385.00
C 276.00 385.00 276.06 385.51 276.00 386.00 Z"/>
</g>
<g fill="None" fill-opacity="0.0" stroke="#759BB3" stroke-opacity="0.15" stroke-width="0.3"><path d="
M 106.00 481.00 
C 104.65 480.65 102.26 477.79 101.00 477.00
C 91.08 470.73 81.71 457.76 72.75 449.25 C 63.79 440.73 52.34 430.50 44.75 421.25 C 37.17 412.00 20.66 403.65 19.00 392.00
C 18.87 391.78 17.08 392.19 17.00 392.00
C 18.38 401.89 32.19 408.09 38.25 415.75 C 44.31 423.42 53.08 431.20 59.92 438.08 C 66.75 444.96 75.19 453.82 82.70 460.30 C 90.21 466.77 95.27 479.29 106.00 481.00 Z"/>
</g>
<g fill="None" fill-opacity="0.0" stroke="#9FB8D0" stroke-opacity="0.24" stroke-width="0.3"><path d="
M 188.00 480.00 
C 187.71 480.11 186.08 480.98 186.00 481.00
C 200.44 479.97 208.36 462.12 218.77 453.77 C 229.18 445.42 239.24 433.56 248.92 423.92 C 258.59 414.27 271.99 404.34 277.00 392.00
C 270.27 403.03 257.55 412.64 248.25 422.25 C 238.94 431.86 228.82 443.13 218.75 451.75 C 208.69 460.38 200.33 475.36 188.00 480.00 Z"/>
</g>
<g fill="None" fill-opacity="0.0" stroke="#95B2C5" stroke-opacity="0.20" stroke-width="0.3"><path d="
M 130.00 456.00 
C 130.54 453.73 128.48 452.23 129.00 450.00
C 122.44 445.42 113.10 437.39 107.75 430.25 C 102.40 423.11 89.68 417.18 88.00 409.00
C 87.90 408.52 88.00 408.00 88.00 408.00
C 83.21 412.64 96.29 420.98 99.75 425.25 C 103.21 429.51 111.05 436.11 115.25 440.75 C 119.45 445.39 126.13 451.17 130.00 456.00 Z"/>
</g>
<g fill="None" fill-opacity="0.0" stroke="#7E95AA" stroke-opacity="0.34" stroke-width="0.3"><path d="
M 88.00 409.00 
C 107.48 410.76 127.43 408.33 147.00 409.00 C 166.57 409.67 186.41 408.97 206.00 409.00
C 206.50 409.00 207.00 409.00 207.00 409.00
C 202.69 404.52 190.64 409.33 184.00 408.00 C 177.36 406.67 167.38 408.55 160.00 408.00 C 152.62 407.45 143.70 408.12 136.00 408.00 C 128.30 407.88 119.82 407.78 112.00 408.00 C 104.18 408.22 95.81 407.30 88.00 408.00
C 88.00 408.00 87.90 408.52 88.00 409.00 Z"/>
</g>
<g fill="None" fill-opacity="0.0" stroke="#A5BED5" stroke-opacity="0.28" stroke-width="0.3"><path d="
M 205.00 413.00 
C 196.95 428.96 173.82 437.01 166.00 453.00
C 173.52 447.74 178.83 438.51 186.25 433.25 C 193.66 427.99 198.70 416.46 207.00 413.00
C 207.00 412.15 207.43 409.71 207.00 409.00
C 207.00 409.00 206.50 409.00 206.00 409.00
C 205.65 410.61 205.75 411.50 205.00 413.00 Z"/>
</g>
<g fill="None" fill-opacity="0.0" stroke="#9DB8CB" stroke-opacity="0.06" stroke-width="0.3"><path d="
M 164.00 457.00 
C 164.20 456.43 165.73 455.51 166.00 455.00
C 166.21 454.61 166.00 454.00 166.00 454.00
C 166.00 453.50 166.00 453.00 166.00 453.00
C 173.82 437.01 196.95 428.96 205.00 413.00
C 200.13 420.62 188.60 426.23 183.25 434.25 C 177.90 442.26 165.32 447.10 164.00 457.00 Z"/>
</g>
<g fill="None" fill-opacity="0.0" stroke="#C8DAE9" stroke-opacity="0.58" stroke-width="0.3"><path d="
M 166.00 453.00 
C 166.00 453.00 166.00 453.50 166.00 454.00
C 181.45 443.16 191.58 424.77 207.00 414.00
C 207.00 414.00 207.00 413.50 207.00 413.00
C 198.70 416.46 193.66 427.99 186.25 433.25 C 178.83 438.51 173.52 447.74 166.00 453.00 Z"/>
</g>
<g fill="None" fill-opacity="0.0" stroke="#F1F6FB" stroke-opacity="0.87" stroke-width="0.3"><path d="
M 166.00 454.00 
C 166.00 454.00 166.21 454.61 166.00 455.00
C 173.45 451.89 180.84 440.44 186.75 434.75 C 192.66 429.06 203.40 421.36 207.00 414.00
C 191.58 424.77 181.45 443.16 166.00 454.00 Z"/>
</g>
<g fill="None" fill-opacity="0.0" stroke="#8EACBE" stroke-opacity="0.18" stroke-width="0.3"><path d="
M 379.00 461.00 
C 374.86 457.19 370.80 453.01 370.00 447.00
C 369.83 446.76 368.08 447.19 368.00 447.00
C 368.86 454.27 374.95 458.61 379.00 461.00 Z"/>
</g>
<g fill="None" fill-opacity="0.0" stroke="#9EB5CD" stroke-opacity="0.24" stroke-width="0.3"><path d="
M 401.00 453.00 
C 396.47 458.73 389.45 464.34 382.00 463.00
C 391.31 466.95 403.48 459.01 404.00 449.00
C 403.71 450.43 401.93 451.82 401.00 453.00 Z"/>
</g>
<g fill="None" fill-opacity="0.0" stroke="#93B8CC" stroke-opacity="0.24" stroke-width="0.3"><path d="
M 329.00 463.00 
C 337.67 464.92 344.31 461.06 348.00 453.00
C 344.98 457.28 336.38 462.86 329.00 463.00 Z"/>
</g>
<g fill="None" fill-opacity="0.0" stroke="#BAC9D6" stroke-opacity="0.60" stroke-width="0.3"><path d="
M 164.00 457.00 
C 163.67 459.48 163.83 462.50 164.00 465.00
C 164.00 465.04 165.00 465.00 165.00 465.00
C 165.30 461.71 164.43 457.92 166.00 455.00
C 165.73 455.51 164.20 456.43 164.00 457.00 Z"/>
</g>
<g fill="None" fill-opacity="0.0" stroke="#97B3CC" stroke-opacity="0.26" stroke-width="0.3"><path d="
M 116.00 479.00 
C 115.84 479.06 116.00 480.00 116.00 480.00
C 125.14 477.77 134.01 467.87 130.00 458.00
C 128.54 466.35 126.14 475.38 116.00 479.00 Z"/>
</g>
<g fill="None" fill-opacity="0.0" stroke="#97B3C9" stroke-opacity="0.17" stroke-width="0.3"><path d="
M 178.00 480.00 
C 175.57 479.09 174.79 477.37 173.00 476.00
C 168.34 473.17 166.94 470.16 165.00 465.00
C 165.00 465.00 164.00 465.04 164.00 465.00
C 164.59 473.65 170.97 478.68 178.00 480.00 Z"/>
</g>
<g fill="None" fill-opacity="0.0" stroke="#C0D0DF" stroke-opacity="0.58" stroke-width="0.3"><path d="
M 101.00 477.00 
C 102.26 477.79 104.65 480.65 106.00 481.00
C 109.47 481.55 112.87 480.76 116.00 480.00
C 116.00 480.00 115.84 479.06 116.00 479.00
C 110.43 478.63 105.36 478.98 101.00 477.00 Z"/>
</g>
<g fill="None" fill-opacity="0.0" stroke="#C8D8E5" stroke-opacity="0.62" stroke-width="0.3"><path d="
M 178.00 480.00 
C 180.49 480.47 183.19 481.80 186.00 481.00
C 186.08 480.98 187.71 480.11 188.00 480.00
C 183.74 481.12 177.30 478.61 173.00 476.00
C 174.79 477.37 175.57 479.09 178.00 480.00 Z"/>
</g>
<g fill="#000000" fill-opacity="0.00" stroke="None">
<path d="
M 0.00 512.00 
L 512.00 512.00
L 512.00 0.00
L 0.00 0.00
L 0.00 512.00
M 334.00 122.00 
C 342.28 122.00 350.74 122.71 359.00 122.00 C 367.26 121.29 376.92 123.79 385.00 122.00
C 391.31 119.95 395.23 110.00 401.25 106.25 C 407.27 102.49 411.01 94.28 416.92 89.92 C 422.82 85.56 427.90 77.56 434.00 74.00
C 434.20 73.68 434.68 73.20 435.00 73.00
C 439.07 64.41 450.11 57.49 457.00 51.00
C 457.50 48.59 463.35 42.97 465.00 41.00
C 467.69 37.79 472.59 32.58 477.00 32.00
C 478.94 30.98 486.83 29.65 488.00 32.00
C 491.86 31.74 498.47 40.42 499.00 44.00
C 499.54 47.63 498.39 50.86 497.00 54.00
C 494.18 60.38 487.44 65.25 482.25 70.25 C 477.06 75.25 472.49 81.24 467.08 86.08 C 461.67 90.93 456.87 96.81 451.75 101.75 C 446.62 106.68 440.82 112.03 435.77 116.77 C 430.72 121.51 425.74 128.80 420.25 132.25 C 414.76 135.71 410.42 147.34 404.00 148.00
C 404.00 173.31 401.72 199.81 404.00 225.00
C 404.00 224.96 405.00 225.00 405.00 225.00
C 409.59 229.44 404.66 241.13 406.00 248.00 C 407.34 254.87 405.41 265.35 406.00 273.00 C 406.59 280.65 405.75 290.03 406.00 298.00 C 406.25 305.97 405.93 314.95 406.00 323.00 C 406.07 331.05 406.08 338.95 406.00 347.00 C 405.92 355.05 406.27 364.02 406.00 372.00 C 405.73 379.98 406.64 389.34 406.00 397.00 C 405.36 404.66 407.43 415.10 406.00 422.00 C 404.57 428.90 409.65 441.50 405.00 446.00
C 404.74 446.25 404.00 446.00 404.00 446.00
C 404.00 446.99 404.05 448.01 404.00 449.00
C 403.48 459.01 391.31 466.95 382.00 463.00
C 380.51 462.37 380.24 462.14 379.00 461.00
C 374.95 458.61 368.86 454.27 368.00 447.00
C 367.22 440.39 368.36 433.68 368.00 427.00 C 367.64 420.32 368.18 413.75 368.00 407.00 C 367.82 400.25 368.13 392.74 368.00 386.00 C 367.87 379.26 368.17 372.67 368.00 366.00 C 367.83 359.33 368.33 352.60 368.00 346.00 C 367.67 339.40 368.67 331.38 368.00 325.00 C 367.33 318.62 369.53 310.79 368.00 305.00 C 366.47 299.21 371.24 288.63 368.00 284.00
C 362.67 284.00 357.33 284.00 352.00 284.00
C 351.50 284.00 350.08 283.81 350.00 284.00
C 346.50 291.88 351.54 303.21 350.00 312.00 C 348.46 320.79 350.74 331.85 350.00 341.00 C 349.26 350.15 350.37 359.69 350.00 369.00 C 349.63 378.31 350.28 388.68 350.00 398.00 C 349.72 407.32 350.38 416.79 350.00 426.00 C 349.62 435.21 351.60 445.13 348.00 453.00
C 344.31 461.06 337.67 464.92 329.00 463.00
C 324.96 462.10 321.87 460.98 319.00 458.00
C 306.47 444.97 316.33 418.71 314.00 400.00 C 311.67 381.29 314.91 356.97 314.00 337.00 C 313.09 317.03 314.08 294.54 314.00 274.00 C 313.92 253.46 313.31 231.80 314.00 211.00 C 314.69 190.20 312.12 167.81 314.00 147.00
C 303.81 138.74 295.91 128.71 286.10 119.90 C 276.29 111.09 268.17 100.29 257.92 92.08 C 247.67 83.88 241.46 70.99 230.23 63.77 C 219.00 56.55 214.27 33.18 233.00 31.00
C 234.54 30.82 236.45 30.86 238.00 31.00
C 247.45 31.85 253.18 40.73 259.30 46.70 C 265.41 52.68 271.81 58.60 277.75 65.25 C 283.70 71.90 291.74 77.73 297.08 83.92 C 302.42 90.10 310.87 96.30 315.25 102.75 C 319.63 109.20 332.64 114.44 334.00 122.00
M 368.00 47.00 
C 377.26 50.59 386.42 54.03 389.00 65.00
C 389.11 65.47 389.00 66.00 389.00 66.00
C 396.05 68.88 393.15 85.29 391.01 91.01 C 388.87 96.73 381.24 104.80 375.00 107.00
C 374.13 107.31 373.25 107.74 372.00 108.00
C 368.98 109.33 367.18 111.61 363.00 112.00
C 360.60 112.22 356.59 112.64 355.00 111.00
C 351.36 110.56 350.10 109.93 348.00 109.00
C 335.56 103.51 332.00 98.12 327.00 86.00
C 326.82 85.57 327.00 85.00 327.00 85.00
C 317.60 71.08 336.73 51.64 349.00 47.00
C 351.24 46.15 352.49 45.40 355.00 45.00
C 357.34 44.63 361.70 44.43 364.00 45.00
C 365.40 45.35 366.75 46.19 368.00 47.00
M 155.00 169.00 
C 158.86 170.09 162.89 171.66 166.00 174.00
C 169.25 176.44 172.76 179.66 175.00 183.00
C 183.06 194.99 181.35 210.74 173.00 221.00
C 171.25 224.27 168.70 225.82 166.00 228.00
C 164.62 229.11 163.80 230.09 162.00 231.00
C 158.46 232.78 152.92 234.55 149.00 235.00
C 147.82 235.14 146.18 235.17 145.00 235.00
C 142.88 234.69 138.47 233.14 137.00 232.00
C 124.41 227.81 117.76 220.34 115.00 207.00
C 114.52 204.68 113.80 201.97 114.00 199.00
C 114.64 189.57 120.57 177.57 129.00 173.00
C 129.72 172.61 131.14 172.40 132.00 172.00
C 133.07 171.50 133.39 171.00 135.00 171.00
C 137.15 170.46 139.00 168.44 141.00 168.00
C 145.27 167.07 151.46 168.00 155.00 169.00
M 187.00 244.00 
C 187.95 244.41 188.73 244.67 190.00 245.00
C 196.53 246.70 202.11 251.32 206.75 256.25 C 211.40 261.17 216.65 266.23 221.25 270.75 C 225.85 275.28 231.67 280.83 235.75 285.25 C 239.83 289.66 247.55 295.79 249.92 300.08 C 252.29 304.36 259.63 310.01 262.75 314.25 C 265.87 318.49 277.82 325.15 276.00 328.00
C 276.25 328.21 276.00 329.00 276.00 329.00
C 285.88 335.18 274.35 348.51 268.00 351.00
C 267.57 351.17 266.48 350.91 266.00 351.00
C 262.65 351.61 262.72 352.40 258.00 351.00
C 256.64 350.60 256.08 350.54 255.00 350.00
C 253.75 349.38 252.96 348.75 252.00 348.00
C 245.11 342.62 240.05 335.27 233.25 329.75 C 226.44 324.23 221.56 316.04 214.75 311.25 C 207.93 306.47 202.72 295.52 196.00 292.00
C 195.06 291.76 193.95 292.19 193.00 292.00
C 198.43 302.33 191.98 317.27 194.00 329.00 C 196.02 340.73 192.48 355.95 194.00 368.00
C 218.20 369.19 243.65 365.52 267.00 370.00
C 270.54 371.81 272.49 374.40 274.00 378.00
C 274.49 379.17 274.86 379.67 275.00 381.00
C 275.72 382.33 278.07 382.11 276.00 385.00
C 278.32 384.44 278.21 387.50 278.00 389.00
C 277.91 389.63 277.24 391.40 277.00 392.00
C 271.99 404.34 258.59 414.27 248.92 423.92 C 239.24 433.56 229.18 445.42 218.77 453.77 C 208.36 462.12 200.44 479.97 186.00 481.00
C 183.19 481.80 180.49 480.47 178.00 480.00
C 170.97 478.68 164.59 473.65 164.00 465.00
C 163.83 462.50 163.67 459.48 164.00 457.00
C 165.32 447.10 177.90 442.26 183.25 434.25 C 188.60 426.23 200.13 420.62 205.00 413.00
C 205.75 411.50 205.65 410.61 206.00 409.00
C 186.41 408.97 166.57 409.67 147.00 409.00 C 127.43 408.33 107.48 410.76 88.00 409.00
C 89.68 417.18 102.40 423.11 107.75 430.25 C 113.10 437.39 122.44 445.42 129.00 450.00
C 128.48 452.23 130.54 453.73 130.00 456.00
C 130.02 456.50 129.83 457.57 130.00 458.00
C 134.01 467.87 125.14 477.77 116.00 480.00
C 112.87 480.76 109.47 481.55 106.00 481.00
C 95.27 479.29 90.21 466.77 82.70 460.30 C 75.19 453.82 66.75 444.96 59.92 438.08 C 53.08 431.20 44.31 423.42 38.25 415.75 C 32.19 408.09 18.38 401.89 17.00 392.00
C 16.51 388.50 17.25 384.78 18.00 382.00
C 18.91 378.65 20.42 375.41 23.00 373.00
C 31.97 364.69 46.35 368.53 59.00 368.00 C 71.65 367.47 88.01 368.00 101.00 368.00
C 99.87 355.44 100.96 342.66 101.00 330.00 C 101.04 317.34 99.86 303.65 101.00 291.00
C 95.16 290.15 89.51 301.44 84.25 305.25 C 78.99 309.07 73.70 316.67 68.25 321.25 C 62.80 325.82 58.60 331.70 52.75 336.75 C 46.91 341.80 42.49 349.17 35.00 351.00
C 31.69 351.81 30.31 351.81 27.00 351.00
C 22.44 349.89 15.54 346.90 16.00 341.00
C 13.30 339.72 13.61 334.79 15.00 333.00
C 15.03 332.50 15.00 332.00 15.00 332.00
C 17.23 318.36 35.04 310.90 43.23 300.23 C 51.42 289.56 64.15 279.64 73.75 269.75 C 83.35 259.86 94.08 245.86 108.00 243.00
C 108.90 242.82 110.08 243.00 111.00 243.00
C 123.10 243.00 137.09 241.82 149.00 243.00 C 160.91 244.18 176.53 239.51 187.00 244.00 Z"/>
</g>
<g fill="#7FA7BC" fill-opacity="0.13" stroke="None">
<path d="
M 314.00 147.00 
C 312.13 142.48 305.50 137.46 302.00 134.00
C 292.69 124.78 283.17 115.26 274.00 106.00
C 262.60 96.16 252.67 84.57 242.00 74.00
C 239.05 71.08 235.87 67.90 233.00 65.00
C 229.81 62.25 226.57 59.35 224.00 56.00
C 217.75 47.85 222.72 33.24 233.00 31.00
C 214.27 33.18 219.00 56.55 230.23 63.77 C 241.46 70.99 247.67 83.88 257.92 92.08 C 268.17 100.29 276.29 111.09 286.10 119.90 C 295.91 128.71 303.81 138.74 314.00 147.00 Z"/>
</g>
<g fill="#FEFEFE" fill-opacity="1.00" stroke="None">
<path d="
M 224.00 56.00 
C 229.60 61.49 237.36 66.78 242.75 73.25 C 248.14 79.72 255.26 84.94 260.75 91.25 C 266.25 97.56 274.04 103.44 279.25 109.75 C 284.45 116.06 292.97 121.28 297.25 127.75 C 301.53 134.22 314.20 139.46 315.00 147.00
C 316.86 167.72 314.01 189.24 315.00 210.00 C 315.99 230.76 314.21 252.35 315.00 273.00 C 315.79 293.65 313.88 315.71 315.00 336.00 C 316.12 356.29 312.82 379.53 315.00 399.00 C 317.18 418.47 308.56 441.82 319.00 458.00
C 321.87 460.98 324.96 462.10 329.00 463.00
C 336.38 462.86 344.98 457.28 348.00 453.00
C 351.60 445.13 349.62 435.21 350.00 426.00 C 350.38 416.79 349.72 407.32 350.00 398.00 C 350.28 388.68 349.63 378.31 350.00 369.00 C 350.37 359.69 349.26 350.15 350.00 341.00 C 350.74 331.85 348.46 320.79 350.00 312.00 C 351.54 303.21 346.50 291.88 350.00 284.00
C 349.07 280.96 356.68 282.12 359.00 282.00 C 361.32 281.88 367.34 282.09 370.00 282.00
C 370.00 337.00 370.00 392.00 370.00 447.00
C 370.80 453.01 374.86 457.19 379.00 461.00
C 380.24 462.14 380.51 462.37 382.00 463.00
C 389.45 464.34 396.47 458.73 401.00 453.00
C 408.08 440.82 401.13 423.18 403.00 409.00 C 404.87 394.82 402.16 377.81 403.00 363.00 C 403.84 348.19 402.63 332.09 403.00 317.00 C 403.37 301.91 402.86 286.21 403.00 271.00 C 403.14 255.79 403.00 240.24 403.00 225.00
C 403.00 216.94 402.42 206.86 403.00 199.00 C 403.58 191.14 401.45 180.12 403.00 173.00 C 404.55 165.88 399.13 151.69 404.00 147.00
C 415.62 138.86 424.91 126.02 435.25 116.25 C 445.58 106.47 456.89 95.87 466.25 85.25 C 475.61 74.62 489.87 65.75 497.00 54.00
C 498.39 50.86 499.54 47.63 499.00 44.00
C 497.79 39.12 490.95 35.14 487.00 33.00
C 483.69 33.04 480.41 33.23 477.00 33.00
C 473.02 35.13 469.20 38.80 466.00 42.00
C 463.25 44.75 460.49 48.09 458.00 51.00
C 449.52 60.92 440.70 67.93 431.75 77.75 C 422.80 87.58 413.78 94.14 404.75 104.75 C 395.72 115.37 384.93 125.49 370.00 123.00 C 355.07 120.51 333.55 127.48 324.25 114.75 C 314.94 102.02 306.23 99.20 297.75 88.25 C 289.27 77.30 278.16 71.84 270.75 61.25 C 263.35 50.66 248.82 45.56 244.00 34.00
C 241.95 33.52 239.59 31.35 238.00 31.00
C 236.45 30.86 234.54 30.82 233.00 31.00
C 222.72 33.24 217.75 47.85 224.00 56.00 Z"/>
</g>
<g fill="#A1B9D0" fill-opacity="0.06" stroke="None">
<path d="
M 244.00 34.00 
C 244.47 34.11 245.00 34.00 245.00 34.00
C 256.64 39.69 264.10 54.41 274.25 62.75 C 284.39 71.10 294.47 82.68 303.75 92.25 C 313.03 101.81 325.40 111.14 333.00 122.00
C 333.40 122.20 334.00 122.00 334.00 122.00
C 332.64 114.44 319.63 109.20 315.25 102.75 C 310.87 96.30 302.42 90.10 297.08 83.92 C 291.74 77.73 283.70 71.90 277.75 65.25 C 271.81 58.60 265.41 52.68 259.30 46.70 C 253.18 40.73 247.45 31.85 238.00 31.00
C 239.59 31.35 241.95 33.52 244.00 34.00 Z"/>
</g>
<g fill="#AFC2D4" fill-opacity="0.47" stroke="None">
<path d="
M 477.00 32.00 
C 476.79 32.11 477.00 33.00 477.00 33.00
C 480.41 33.23 483.69 33.04 487.00 33.00
C 487.17 33.00 487.66 32.02 488.00 32.00
C 486.83 29.65 478.94 30.98 477.00 32.00 Z"/>
</g>
<g fill="#98B9CB" fill-opacity="0.20" stroke="None">
<path d="
M 465.00 41.00 
C 464.98 41.07 466.06 41.71 466.00 42.00
C 469.20 38.80 473.02 35.13 477.00 33.00
C 477.00 33.00 476.79 32.11 477.00 32.00
C 472.59 32.58 467.69 37.79 465.00 41.00 Z"/>
</g>
<g fill="#92AFC4" fill-opacity="0.25" stroke="None">
<path d="
M 487.00 33.00 
C 490.95 35.14 497.79 39.12 499.00 44.00
C 498.47 40.42 491.86 31.74 488.00 32.00
C 487.66 32.02 487.17 33.00 487.00 33.00 Z"/>
</g>
<g fill="#C5D5E4" fill-opacity="0.58" stroke="None">
<path d="
M 458.00 51.00 
C 457.84 51.23 457.00 51.00 457.00 51.00
C 452.00 58.16 442.38 68.44 435.00 73.00
C 434.68 73.20 434.20 73.68 434.00 74.00
C 428.92 82.22 417.50 92.01 410.25 98.25 C 402.99 104.48 394.05 119.99 385.00 122.00
C 376.92 123.79 367.26 121.29 359.00 122.00 C 350.74 122.71 342.28 122.00 334.00 122.00
C 334.00 122.00 333.40 122.20 333.00 122.00
C 321.36 116.31 313.90 101.59 303.75 93.25 C 293.61 84.90 283.53 73.32 274.25 63.75 C 264.97 54.19 252.60 44.86 245.00 34.00
C 245.00 34.00 244.47 34.11 244.00 34.00
C 248.82 45.56 263.35 50.66 270.75 61.25 C 278.16 71.84 289.27 77.30 297.75 88.25 C 306.23 99.20 314.94 102.02 324.25 114.75 C 333.55 127.48 355.07 120.51 370.00 123.00 C 384.93 125.49 395.72 115.37 404.75 104.75 C 413.78 94.14 422.80 87.58 431.75 77.75 C 440.70 67.93 449.52 60.92 458.00 51.00 Z"/>
</g>
<g fill="#9EBAD1" fill-opacity="0.29" stroke="None">
<path d="
M 333.00 122.00 
C 325.40 111.14 313.03 101.81 303.75 92.25 C 294.47 82.68 284.39 71.10 274.25 62.75 C 264.10 54.41 256.64 39.69 245.00 34.00
C 252.60 44.86 264.97 54.19 274.25 63.75 C 283.53 73.32 293.61 84.90 303.75 93.25 C 313.90 101.59 321.36 116.31 333.00 122.00 Z"/>
</g>
<g fill="#6C89A3" fill-opacity="0.18" stroke="None">
<path d="
M 457.00 51.00 
C 457.00 51.00 457.84 51.23 458.00 51.00
C 460.49 48.09 463.25 44.75 466.00 42.00
C 466.06 41.71 464.98 41.07 465.00 41.00
C 463.35 42.97 457.50 48.59 457.00 51.00 Z"/>
</g>
<g fill="#FDFDFE" fill-opacity="0.98" stroke="None">
<path d="
M 349.00 47.00 
C 345.15 49.70 342.79 52.75 337.75 55.75 C 332.71 58.75 332.74 64.57 329.67 68.67 C 326.61 72.78 329.15 82.05 327.00 85.00
C 327.00 85.00 326.82 85.57 327.00 86.00
C 331.23 88.65 331.36 96.16 335.75 99.25 C 340.14 102.34 343.19 107.20 348.00 109.00
C 350.06 109.77 352.73 109.85 355.00 110.00
C 357.86 110.19 361.15 110.29 364.00 110.00
C 366.87 109.71 369.20 108.58 372.00 108.00
C 373.25 107.74 374.13 107.31 375.00 107.00
C 390.08 95.80 391.82 83.45 389.00 66.00
C 389.00 66.00 389.11 65.47 389.00 65.00
C 385.13 62.58 384.28 56.99 379.97 55.03 C 375.67 53.07 371.65 49.35 368.00 47.00
C 366.75 46.19 365.40 45.35 364.00 45.00
C 363.34 44.90 355.74 44.95 355.00 45.00
C 352.49 45.40 351.24 46.15 349.00 47.00 Z"/>
</g>
<g fill="#33556A" fill-opacity="0.05" stroke="None">
<path d="
M 364.00 45.00 
C 361.70 44.43 357.34 44.63 355.00 45.00
C 355.74 44.95 363.34 44.90 364.00 45.00 Z"/>
</g>
<g fill="#98B4CE" fill-opacity="0.23" stroke="None">
<path d="
M 327.00 85.00 
C 329.15 82.05 326.61 72.78 329.67 68.67 C 332.74 64.57 332.71 58.75 337.75 55.75 C 342.79 52.75 345.15 49.70 349.00 47.00
C 336.73 51.64 317.60 71.08 327.00 85.00 Z"/>
</g>
<g fill="#93B1C7" fill-opacity="0.25" stroke="None">
<path d="
M 389.00 65.00 
C 386.42 54.03 377.26 50.59 368.00 47.00
C 371.65 49.35 375.67 53.07 379.97 55.03 C 384.28 56.99 385.13 62.58 389.00 65.00 Z"/>
</g>
<g fill="#B2CEDF" fill-opacity="0.09" stroke="None">
<path d="
M 435.00 73.00 
C 442.38 68.44 452.00 58.16 457.00 51.00
C 450.11 57.49 439.07 64.41 435.00 73.00 Z"/>
</g>
<g fill="#5E8398" fill-opacity="0.12" stroke="None">
<path d="
M 404.00 147.00 
C 403.77 147.16 404.00 148.00 404.00 148.00
C 410.42 147.34 414.76 135.71 420.25 132.25 C 425.74 128.80 430.72 121.51 435.77 116.77 C 440.82 112.03 446.62 106.68 451.75 101.75 C 456.87 96.81 461.67 90.93 467.08 86.08 C 472.49 81.24 477.06 75.25 482.25 70.25 C 487.44 65.25 494.18 60.38 497.00 54.00
C 489.87 65.75 475.61 74.62 466.25 85.25 C 456.89 95.87 445.58 106.47 435.25 116.25 C 424.91 126.02 415.62 138.86 404.00 147.00 Z"/>
</g>
<g fill="#DFEAF2" fill-opacity="0.75" stroke="None">
<path d="
M 233.00 65.00 
C 236.24 67.80 239.25 70.81 242.00 74.00
C 252.67 84.57 262.60 96.16 274.00 106.00
C 283.79 114.45 293.59 124.26 302.00 134.00
C 305.50 137.46 312.13 142.48 314.00 147.00
C 314.07 147.18 315.00 147.00 315.00 147.00
C 314.20 139.46 301.53 134.22 297.25 127.75 C 292.97 121.28 284.45 116.06 279.25 109.75 C 274.04 103.44 266.25 97.56 260.75 91.25 C 255.26 84.94 248.14 79.72 242.75 73.25 C 237.36 66.78 229.60 61.49 224.00 56.00
C 226.57 59.35 229.81 62.25 233.00 65.00 Z"/>
</g>
<g fill="#B6CBDD" fill-opacity="0.48" stroke="None">
<path d="
M 242.00 74.00 
C 239.25 70.81 236.24 67.80 233.00 65.00
C 235.87 67.90 239.05 71.08 242.00 74.00 Z"/>
</g>
<g fill="#87A8C4" fill-opacity="0.19" stroke="None">
<path d="
M 375.00 107.00 
C 381.24 104.80 388.87 96.73 391.01 91.01 C 393.15 85.29 396.05 68.88 389.00 66.00
C 391.82 83.45 390.08 95.80 375.00 107.00 Z"/>
</g>
<g fill="#527A90" fill-opacity="0.10" stroke="None">
<path d="
M 385.00 122.00 
C 394.05 119.99 402.99 104.48 410.25 98.25 C 417.50 92.01 428.92 82.22 434.00 74.00
C 427.90 77.56 422.82 85.56 416.92 89.92 C 411.01 94.28 407.27 102.49 401.25 106.25 C 395.23 110.00 391.31 119.95 385.00 122.00 Z"/>
</g>
<g fill="#92B0C5" fill-opacity="0.20" stroke="None">
<path d="
M 348.00 109.00 
C 343.19 107.20 340.14 102.34 335.75 99.25 C 331.36 96.16 331.23 88.65 327.00 86.00
C 332.00 98.12 335.56 103.51 348.00 109.00 Z"/>
</g>
<g fill="#B4C9DB" fill-opacity="0.47" stroke="None">
<path d="
M 302.00 134.00 
C 293.59 124.26 283.79 114.45 274.00 106.00
C 283.17 115.26 292.69 124.78 302.00 134.00 Z"/>
</g>
<g fill="#7FA8BF" fill-opacity="0.10" stroke="None">
<path d="
M 364.00 110.00 
C 363.62 110.22 363.26 111.88 363.00 112.00
C 367.18 111.61 368.98 109.33 372.00 108.00
C 369.20 108.58 366.87 109.71 364.00 110.00 Z"/>
</g>
<g fill="#6281B6" fill-opacity="0.07" stroke="None">
<path d="
M 355.00 111.00 
C 354.75 110.74 355.00 110.00 355.00 110.00
C 352.73 109.85 350.06 109.77 348.00 109.00
C 350.10 109.93 351.36 110.56 355.00 111.00 Z"/>
</g>
<g fill="#CEDEEC" fill-opacity="0.40" stroke="None">
<path d="
M 355.00 111.00 
C 356.59 112.64 360.60 112.22 363.00 112.00
C 363.26 111.88 363.62 110.22 364.00 110.00
C 361.15 110.29 357.86 110.19 355.00 110.00
C 355.00 110.00 354.75 110.74 355.00 111.00 Z"/>
</g>
<g fill="#738DA3" fill-opacity="0.27" stroke="None">
<path d="
M 319.00 458.00 
C 308.56 441.82 317.18 418.47 315.00 399.00 C 312.82 379.53 316.12 356.29 315.00 336.00 C 313.88 315.71 315.79 293.65 315.00 273.00 C 314.21 252.35 315.99 230.76 315.00 210.00 C 314.01 189.24 316.86 167.72 315.00 147.00
C 315.00 147.00 314.07 147.18 314.00 147.00
C 312.12 167.81 314.69 190.20 314.00 211.00 C 313.31 231.80 313.92 253.46 314.00 274.00 C 314.08 294.54 313.09 317.03 314.00 337.00 C 314.91 356.97 311.67 381.29 314.00 400.00 C 316.33 418.71 306.47 444.97 319.00 458.00 Z"/>
</g>
<g fill="#CDD6DE" fill-opacity="0.74" stroke="None">
<path d="
M 403.00 225.00 
C 403.00 224.96 404.00 225.00 404.00 225.00
C 401.72 199.81 404.00 173.31 404.00 148.00
C 404.00 148.00 403.77 147.16 404.00 147.00
C 399.13 151.69 404.55 165.88 403.00 173.00 C 401.45 180.12 403.58 191.14 403.00 199.00 C 402.42 206.86 403.00 216.94 403.00 225.00 Z"/>
</g>
<g fill="#B4C8D8" fill-opacity="0.50" stroke="None">
<path d="
M 135.00 171.00 
C 136.95 171.00 138.89 170.38 141.00 170.00
C 140.82 170.30 140.13 168.51 141.00 168.00
C 139.00 168.44 137.15 170.46 135.00 171.00 Z"/>
</g>
<g fill="#C8D7E8" fill-opacity="0.34" stroke="None">
<path d="
M 141.00 170.00 
C 145.49 169.20 150.45 170.41 155.00 170.00
C 154.78 169.88 155.00 169.00 155.00 169.00
C 151.46 168.00 145.27 167.07 141.00 168.00
C 140.13 168.51 140.82 170.30 141.00 170.00 Z"/>
</g>
<g fill="#91B0C5" fill-opacity="0.24" stroke="None">
<path d="
M 155.00 170.00 
C 160.59 173.21 165.84 174.73 170.00 180.00
C 172.85 182.85 175.46 185.16 177.00 189.00
C 181.46 200.08 177.58 212.43 173.00 221.00
C 181.35 210.74 183.06 194.99 175.00 183.00
C 172.80 180.21 168.64 176.33 166.00 174.00
C 162.89 171.66 158.86 170.09 155.00 169.00
C 155.00 169.00 154.78 169.88 155.00 170.00 Z"/>
</g>
<g fill="#FDFDFE" fill-opacity="0.99" stroke="None">
<path d="
M 135.00 171.00 
C 133.39 171.00 133.07 171.50 132.00 172.00
C 131.15 172.93 128.50 175.89 126.00 178.00
C 120.78 184.05 115.49 191.29 114.00 199.00
C 113.80 201.97 114.52 204.68 115.00 207.00
C 118.53 216.56 126.15 228.19 137.00 231.00
C 139.32 231.60 143.07 232.73 145.00 233.00
C 146.27 233.18 147.71 233.00 149.00 233.00
C 152.33 232.54 156.17 230.14 160.00 230.00
C 160.50 229.98 161.00 230.00 161.00 230.00
C 162.60 227.54 165.21 225.62 168.00 225.00
C 167.70 226.25 166.17 226.71 166.00 228.00
C 168.70 225.82 171.25 224.27 173.00 221.00
C 177.58 212.43 181.46 200.08 177.00 189.00
C 175.55 186.19 172.11 182.67 170.00 180.00
C 165.84 174.73 160.59 173.21 155.00 170.00
C 150.45 170.41 145.49 169.20 141.00 170.00
C 138.89 170.38 136.95 171.00 135.00 171.00 Z"/>
</g>
<g fill="#BBCEDF" fill-opacity="0.43" stroke="None">
<path d="
M 129.00 173.00 
C 128.31 173.54 126.86 177.00 126.00 178.00
C 128.50 175.89 131.15 172.93 132.00 172.00
C 131.14 172.40 129.72 172.61 129.00 173.00 Z"/>
</g>
<g fill="#85A4BC" fill-opacity="0.18" stroke="None">
<path d="
M 114.00 199.00 
C 115.49 191.29 120.78 184.05 126.00 178.00
C 126.86 177.00 128.31 173.54 129.00 173.00
C 120.57 177.57 114.64 189.57 114.00 199.00 Z"/>
</g>
<g fill="#6981A1" fill-opacity="0.05" stroke="None">
<path d="
M 175.00 183.00 
C 172.76 179.66 169.25 176.44 166.00 174.00
C 168.64 176.33 172.80 180.21 175.00 183.00 Z"/>
</g>
<g fill="#DCE7F2" fill-opacity="0.71" stroke="None">
<path d="
M 177.00 189.00 
C 175.46 185.16 172.85 182.85 170.00 180.00
C 172.11 182.67 175.55 186.19 177.00 189.00 Z"/>
</g>
<g fill="#93ACC2" fill-opacity="0.24" stroke="None">
<path d="
M 137.00 232.00 
C 136.76 231.81 137.00 231.00 137.00 231.00
C 126.15 228.19 118.53 216.56 115.00 207.00
C 117.76 220.34 124.41 227.81 137.00 232.00 Z"/>
</g>
<g fill="#B3D0DF" fill-opacity="0.44" stroke="None">
<path d="
M 161.00 230.00 
C 161.35 230.03 161.80 230.98 162.00 231.00
C 163.80 230.09 164.62 229.11 166.00 228.00
C 166.17 226.71 167.70 226.25 168.00 225.00
C 165.21 225.62 162.60 227.54 161.00 230.00 Z"/>
</g>
<g fill="#E7EFF5" fill-opacity="0.84" stroke="None">
<path d="
M 401.00 453.00 
C 401.93 451.82 403.71 450.43 404.00 449.00
C 404.05 448.01 404.00 446.99 404.00 446.00
C 404.00 409.35 405.25 372.65 404.00 336.00 C 402.75 299.35 407.30 261.53 404.00 225.00
C 404.00 225.00 403.00 224.96 403.00 225.00
C 403.00 240.24 403.14 255.79 403.00 271.00 C 402.86 286.21 403.37 301.91 403.00 317.00 C 402.63 332.09 403.84 348.19 403.00 363.00 C 402.16 377.81 404.87 394.82 403.00 409.00 C 401.13 423.18 408.08 440.82 401.00 453.00 Z"/>
</g>
<g fill="#A6C0D7" fill-opacity="0.31" stroke="None">
<path d="
M 404.00 446.00 
C 404.00 446.00 404.74 446.25 405.00 446.00
C 408.27 409.88 405.02 372.33 405.00 336.00 C 404.98 299.67 408.24 261.21 405.00 225.00
C 405.00 225.00 404.00 224.96 404.00 225.00
C 407.30 261.53 402.75 299.35 404.00 336.00 C 405.25 372.65 404.00 409.35 404.00 446.00 Z"/>
</g>
<g fill="#B5B5DA" fill-opacity="0.03" stroke="None">
<path d="
M 405.00 446.00 
C 409.65 441.50 404.57 428.90 406.00 422.00 C 407.43 415.10 405.36 404.66 406.00 397.00 C 406.64 389.34 405.73 379.98 406.00 372.00 C 406.27 364.02 405.92 355.05 406.00 347.00 C 406.08 338.95 406.07 331.05 406.00 323.00 C 405.93 314.95 406.25 305.97 406.00 298.00 C 405.75 290.03 406.59 280.65 406.00 273.00 C 405.41 265.35 407.34 254.87 406.00 248.00 C 404.66 241.13 409.59 229.44 405.00 225.00
C 408.24 261.21 404.98 299.67 405.00 336.00 C 405.02 372.33 408.27 409.88 405.00 446.00 Z"/>
</g>
<g fill="#D8E3EC" fill-opacity="0.75" stroke="None">
<path d="
M 149.00 233.00 
C 149.50 233.00 150.00 233.00 150.00 233.00
C 153.35 232.92 157.56 231.98 160.00 230.00
C 156.17 230.14 152.33 232.54 149.00 233.00 Z"/>
</g>
<g fill="#7CA4BD" fill-opacity="0.14" stroke="None">
<path d="
M 150.00 233.00 
C 149.95 232.95 148.95 235.02 149.00 235.00
C 152.92 234.55 158.46 232.78 162.00 231.00
C 161.80 230.98 161.35 230.03 161.00 230.00
C 161.00 230.00 160.50 229.98 160.00 230.00
C 157.56 231.98 153.35 232.92 150.00 233.00 Z"/>
</g>
<g fill="#A4BDCC" fill-opacity="0.44" stroke="None">
<path d="
M 137.00 232.00 
C 138.47 233.14 142.88 234.69 145.00 235.00
C 144.76 234.68 145.25 233.28 145.00 233.00
C 143.07 232.73 139.32 231.60 137.00 231.00
C 137.00 231.00 136.76 231.81 137.00 232.00 Z"/>
</g>
<g fill="#BED5E7" fill-opacity="0.27" stroke="None">
<path d="
M 145.00 235.00 
C 146.18 235.17 147.82 235.14 149.00 235.00
C 148.95 235.02 149.95 232.95 150.00 233.00
C 150.00 233.00 149.50 233.00 149.00 233.00
C 147.71 233.00 146.27 233.18 145.00 233.00
C 145.25 233.28 144.76 234.68 145.00 235.00 Z"/>
</g>
<g fill="#A0B9D4" fill-opacity="0.21" stroke="None">
<path d="
M 15.00 332.00 
C 22.89 327.06 27.93 315.31 36.25 309.25 C 44.57 303.18 50.81 293.60 58.75 286.75 C 66.69 279.90 72.86 272.04 80.75 264.75 C 88.65 257.46 95.66 246.90 107.00 246.00
C 107.94 245.69 108.57 245.12 110.00 245.00
C 109.69 244.89 108.21 243.04 108.00 243.00
C 94.08 245.86 83.35 259.86 73.75 269.75 C 64.15 279.64 51.42 289.56 43.23 300.23 C 35.04 310.90 17.23 318.36 15.00 332.00 Z"/>
</g>
<g fill="#C9DAEA" fill-opacity="0.43" stroke="None">
<path d="
M 110.00 245.00 
C 118.58 244.27 128.47 244.95 137.00 245.00 C 145.53 245.05 155.83 244.13 164.00 245.00 C 172.17 245.87 183.78 241.95 190.00 247.00
C 190.49 247.08 191.00 247.00 191.00 247.00
C 190.94 247.05 189.98 244.98 190.00 245.00
C 188.73 244.67 187.95 244.41 187.00 244.00
C 174.93 241.34 161.35 245.39 149.00 244.00 C 136.65 242.61 122.63 245.55 111.00 243.00
C 110.08 243.00 108.90 242.82 108.00 243.00
C 108.21 243.04 109.69 244.89 110.00 245.00 Z"/>
</g>
<g fill="#C1FFFF" fill-opacity="0.02" stroke="None">
<path d="
M 187.00 244.00 
C 176.53 239.51 160.91 244.18 149.00 243.00 C 137.09 241.82 123.10 243.00 111.00 243.00
C 122.63 245.55 136.65 242.61 149.00 244.00 C 161.35 245.39 174.93 241.34 187.00 244.00 Z"/>
</g>
<g fill="#EBF2F7" fill-opacity="0.87" stroke="None">
<path d="
M 107.00 246.00 
C 120.68 244.91 135.33 246.14 149.00 246.00 C 162.67 245.86 176.83 244.84 190.00 247.00
C 183.78 241.95 172.17 245.87 164.00 245.00 C 155.83 244.13 145.53 245.05 137.00 245.00 C 128.47 244.95 118.58 244.27 110.00 245.00
C 108.57 245.12 107.94 245.69 107.00 246.00 Z"/>
</g>
<g fill="#88A6BE" fill-opacity="0.13" stroke="None">
<path d="
M 191.00 247.00 
C 192.74 247.16 193.53 248.20 195.00 249.00
C 196.24 249.67 197.72 250.09 199.00 251.00
C 208.79 257.95 216.45 268.52 225.25 276.75 C 234.05 284.98 243.24 293.92 251.00 303.00
C 257.43 310.52 264.92 318.19 272.00 325.00
C 273.25 326.02 274.82 326.99 276.00 328.00
C 277.82 325.15 265.87 318.49 262.75 314.25 C 259.63 310.01 252.29 304.36 249.92 300.08 C 247.55 295.79 239.83 289.66 235.75 285.25 C 231.67 280.83 225.85 275.28 221.25 270.75 C 216.65 266.23 211.40 261.17 206.75 256.25 C 202.11 251.32 196.53 246.70 190.00 245.00
C 189.98 244.98 190.94 247.05 191.00 247.00 Z"/>
</g>
<g fill="#FEFEFE" fill-opacity="1.00" stroke="None">
<path d="
M 15.00 332.00 
C 15.00 332.00 15.03 332.50 15.00 333.00
C 14.83 335.49 15.20 337.75 16.00 340.00
C 19.04 344.72 21.99 347.12 27.00 350.00
C 35.83 349.20 42.22 345.45 47.75 338.75 C 53.28 332.06 58.62 327.68 64.25 322.25 C 69.88 316.82 74.37 310.30 80.25 306.25 C 86.12 302.19 90.34 291.48 97.00 290.00
C 98.28 289.72 101.50 289.51 102.00 291.00
C 103.13 303.56 102.04 316.34 102.00 329.00 C 101.96 341.66 103.14 355.35 102.00 368.00
C 101.77 372.06 88.00 369.55 83.00 370.00 C 78.00 370.45 66.98 369.90 61.00 370.00 C 55.02 370.10 46.24 370.23 40.00 370.00 C 33.76 369.77 27.70 370.74 23.00 375.00
C 21.45 378.24 19.48 379.16 19.00 383.00
C 19.63 385.85 18.59 389.10 19.00 392.00
C 20.66 403.65 37.17 412.00 44.75 421.25 C 52.34 430.50 63.79 440.73 72.75 449.25 C 81.71 457.76 91.08 470.73 101.00 477.00
C 105.36 478.98 110.43 478.63 116.00 479.00
C 126.14 475.38 128.54 466.35 130.00 458.00
C 129.83 457.57 130.02 456.50 130.00 456.00
C 126.13 451.17 119.45 445.39 115.25 440.75 C 111.05 436.11 103.21 429.51 99.75 425.25 C 96.29 420.98 83.21 412.64 88.00 408.00
C 95.81 407.30 104.18 408.22 112.00 408.00 C 119.82 407.78 128.30 407.88 136.00 408.00 C 143.70 408.12 152.62 407.45 160.00 408.00 C 167.38 408.55 177.36 406.67 184.00 408.00 C 190.64 409.33 202.69 404.52 207.00 409.00
C 207.43 409.71 207.00 412.15 207.00 413.00
C 207.00 413.50 207.00 414.00 207.00 414.00
C 203.40 421.36 192.66 429.06 186.75 434.75 C 180.84 440.44 173.45 451.89 166.00 455.00
C 164.43 457.92 165.30 461.71 165.00 465.00
C 166.94 470.16 168.34 473.17 173.00 476.00
C 177.30 478.61 183.74 481.12 188.00 480.00
C 200.33 475.36 208.69 460.38 218.75 451.75 C 228.82 443.13 238.94 431.86 248.25 422.25 C 257.55 412.64 270.27 403.03 277.00 392.00
C 277.24 391.40 277.91 389.63 278.00 389.00
C 278.12 390.42 275.73 388.36 276.00 386.00
C 274.03 384.25 275.14 382.34 275.00 381.00
C 274.86 379.67 274.49 379.17 274.00 378.00
C 272.65 376.13 269.31 374.81 268.00 373.00
C 257.32 366.45 244.66 369.56 232.00 369.00 C 219.34 368.44 204.82 369.42 192.00 369.00
C 192.00 343.33 192.00 317.67 192.00 292.00
C 193.95 285.86 205.03 298.14 208.25 301.75 C 211.46 305.36 219.04 312.44 223.25 316.75 C 227.45 321.07 233.58 327.19 238.25 331.75 C 242.91 336.32 248.56 342.21 253.00 347.00
C 253.74 347.67 255.63 350.58 255.00 350.00
C 256.08 350.54 256.64 350.60 258.00 351.00
C 260.80 350.86 262.96 349.71 266.00 351.00
C 266.48 350.91 267.57 351.17 268.00 351.00
C 268.48 348.38 272.41 346.71 274.92 342.92 C 277.43 339.13 277.61 333.53 276.00 329.00
C 276.00 329.00 276.25 328.21 276.00 328.00
C 274.82 326.99 273.25 326.02 272.00 325.00
C 244.33 302.29 222.76 271.06 195.00 249.00
C 193.53 248.20 192.74 247.16 191.00 247.00
C 191.00 247.00 190.49 247.08 190.00 247.00
C 176.83 244.84 162.67 245.86 149.00 246.00 C 135.33 246.14 120.68 244.91 107.00 246.00
C 95.66 246.90 88.65 257.46 80.75 264.75 C 72.86 272.04 66.69 279.90 58.75 286.75 C 50.81 293.60 44.57 303.18 36.25 309.25 C 27.93 315.31 22.89 327.06 15.00 332.00 Z"/>
</g>
<g fill="#E8F0F7" fill-opacity="0.81" stroke="None">
<path d="
M 272.00 325.00 
C 264.92 318.19 257.43 310.52 251.00 303.00
C 234.07 286.07 217.22 266.32 199.00 251.00
C 197.72 250.09 196.24 249.67 195.00 249.00
C 222.76 271.06 244.33 302.29 272.00 325.00 Z"/>
</g>
<g fill="#AFC7DA" fill-opacity="0.41" stroke="None">
<path d="
M 251.00 303.00 
C 243.24 293.92 234.05 284.98 225.25 276.75 C 216.45 268.52 208.79 257.95 199.00 251.00
C 217.22 266.32 234.07 286.07 251.00 303.00 Z"/>
</g>
<g fill="#D1E0EE" fill-opacity="0.45" stroke="None">
<path d="
M 350.00 284.00 
C 350.08 283.81 351.50 284.00 352.00 284.00
C 354.48 282.94 366.07 281.24 368.00 284.00
C 371.24 288.63 366.47 299.21 368.00 305.00 C 369.53 310.79 367.33 318.62 368.00 325.00 C 368.67 331.38 367.67 339.40 368.00 346.00 C 368.33 352.60 367.83 359.33 368.00 366.00 C 368.17 372.67 367.87 379.26 368.00 386.00 C 368.13 392.74 367.82 400.25 368.00 407.00 C 368.18 413.75 367.64 420.32 368.00 427.00 C 368.36 433.68 367.22 440.39 368.00 447.00
C 368.08 447.19 369.83 446.76 370.00 447.00
C 370.00 392.00 370.00 337.00 370.00 282.00
C 367.34 282.09 361.32 281.88 359.00 282.00 C 356.68 282.12 349.07 280.96 350.00 284.00 Z"/>
</g>
<g fill="#DEDEFF" fill-opacity="0.03" stroke="None">
<path d="
M 352.00 284.00 
C 357.33 284.00 362.67 284.00 368.00 284.00
C 366.07 281.24 354.48 282.94 352.00 284.00 Z"/>
</g>
<g fill="#D3DFEC" fill-opacity="0.66" stroke="None">
<path d="
M 27.00 350.00 
C 27.22 350.12 27.00 351.00 27.00 351.00
C 30.31 351.81 31.69 351.81 35.00 351.00
C 36.74 350.31 39.34 348.24 41.00 347.00
C 45.73 342.88 50.58 337.42 55.00 333.00
C 58.37 329.06 62.11 325.33 66.00 322.00
C 68.92 319.08 72.13 315.87 75.00 313.00
C 77.90 309.60 81.94 304.11 85.75 301.75 C 89.56 299.39 93.17 291.12 97.00 290.00
C 90.34 291.48 86.12 302.19 80.25 306.25 C 74.37 310.30 69.88 316.82 64.25 322.25 C 58.62 327.68 53.28 332.06 47.75 338.75 C 42.22 345.45 35.83 349.20 27.00 350.00 Z"/>
</g>
<g fill="#94B0C7" fill-opacity="0.17" stroke="None">
<path d="
M 75.00 313.00 
C 72.22 316.25 69.20 319.26 66.00 322.00
C 62.11 325.33 58.37 329.06 55.00 333.00
C 50.84 337.87 46.11 343.20 41.00 347.00
C 39.34 348.24 36.74 350.31 35.00 351.00
C 42.49 349.17 46.91 341.80 52.75 336.75 C 58.60 331.70 62.80 325.82 68.25 321.25 C 73.70 316.67 78.99 309.07 84.25 305.25 C 89.51 301.44 95.16 290.15 101.00 291.00
C 101.49 291.07 102.00 291.00 102.00 291.00
C 101.50 289.51 98.28 289.72 97.00 290.00
C 93.17 291.12 89.56 299.39 85.75 301.75 C 81.94 304.11 77.90 309.60 75.00 313.00 Z"/>
</g>
<g fill="#EDF5FB" fill-opacity="0.82" stroke="None">
<path d="
M 192.00 292.00 
C 192.00 291.96 193.00 292.00 193.00 292.00
C 197.64 288.28 204.49 299.86 208.75 303.25 C 213.02 306.64 218.69 313.52 223.25 317.75 C 227.81 321.98 233.09 327.58 237.75 332.25 C 242.42 336.91 248.13 342.56 253.00 347.00
C 248.56 342.21 242.91 336.32 238.25 331.75 C 233.58 327.19 227.45 321.07 223.25 316.75 C 219.04 312.44 211.46 305.36 208.25 301.75 C 205.03 298.14 193.95 285.86 192.00 292.00 Z"/>
</g>
<g fill="#768FA5" fill-opacity="0.32" stroke="None">
<path d="
M 101.00 368.00 
C 101.50 368.00 102.00 368.00 102.00 368.00
C 103.14 355.35 101.96 341.66 102.00 329.00 C 102.04 316.34 103.13 303.56 102.00 291.00
C 102.00 291.00 101.49 291.07 101.00 291.00
C 99.86 303.65 101.04 317.34 101.00 330.00 C 100.96 342.66 99.87 355.44 101.00 368.00 Z"/>
</g>
<g fill="#A3BBD0" fill-opacity="0.36" stroke="None">
<path d="
M 193.00 292.00 
C 193.95 292.19 195.06 291.76 196.00 292.00
C 203.59 293.93 208.03 305.85 214.75 310.25 C 221.47 314.65 226.72 323.47 233.25 328.75 C 239.77 334.03 245.94 342.26 252.00 348.00
C 252.96 348.75 253.75 349.38 255.00 350.00
C 255.63 350.58 253.74 347.67 253.00 347.00
C 248.13 342.56 242.42 336.91 237.75 332.25 C 233.09 327.58 227.81 321.98 223.25 317.75 C 218.69 313.52 213.02 306.64 208.75 303.25 C 204.49 299.86 197.64 288.28 193.00 292.00 Z"/>
</g>
<g fill="#D2E1EF" fill-opacity="0.43" stroke="None">
<path d="
M 268.00 373.00 
C 267.47 372.26 267.42 370.45 267.00 370.00
C 243.65 365.52 218.20 369.19 194.00 368.00
C 192.48 355.95 196.02 340.73 194.00 329.00 C 191.98 317.27 198.43 302.33 193.00 292.00
C 193.00 292.00 192.00 291.96 192.00 292.00
C 192.00 317.67 192.00 343.33 192.00 369.00
C 204.82 369.42 219.34 368.44 232.00 369.00 C 244.66 369.56 257.32 366.45 268.00 373.00 Z"/>
</g>
<g fill="#466F9C" fill-opacity="0.04" stroke="None">
<path d="
M 252.00 348.00 
C 245.94 342.26 239.77 334.03 233.25 328.75 C 226.72 323.47 221.47 314.65 214.75 310.25 C 208.03 305.85 203.59 293.93 196.00 292.00
C 202.72 295.52 207.93 306.47 214.75 311.25 C 221.56 316.04 226.44 324.23 233.25 329.75 C 240.05 335.27 245.11 342.62 252.00 348.00 Z"/>
</g>
<g fill="#A1BAD0" fill-opacity="0.35" stroke="None">
<path d="
M 66.00 322.00 
C 69.20 319.26 72.22 316.25 75.00 313.00
C 72.13 315.87 68.92 319.08 66.00 322.00 Z"/>
</g>
<g fill="#92AECA" fill-opacity="0.22" stroke="None">
<path d="
M 268.00 351.00 
C 274.35 348.51 285.88 335.18 276.00 329.00
C 277.61 333.53 277.43 339.13 274.92 342.92 C 272.41 346.71 268.48 348.38 268.00 351.00 Z"/>
</g>
<g fill="#6F829C" fill-opacity="0.08" stroke="None">
<path d="
M 16.00 341.00 
C 16.04 340.50 16.00 340.00 16.00 340.00
C 15.20 337.75 14.83 335.49 15.00 333.00
C 13.61 334.79 13.30 339.72 16.00 341.00 Z"/>
</g>
<g fill="#9EB7CE" fill-opacity="0.34" stroke="None">
<path d="
M 41.00 347.00 
C 46.11 343.20 50.84 337.87 55.00 333.00
C 50.58 337.42 45.73 342.88 41.00 347.00 Z"/>
</g>
<g fill="#9EB6CF" fill-opacity="0.24" stroke="None">
<path d="
M 16.00 341.00 
C 15.54 346.90 22.44 349.89 27.00 351.00
C 27.00 351.00 27.22 350.12 27.00 350.00
C 21.99 347.12 19.04 344.72 16.00 340.00
C 16.00 340.00 16.04 340.50 16.00 341.00 Z"/>
</g>
<g fill="#A9C5D4" fill-opacity="0.35" stroke="None">
<path d="
M 258.00 351.00 
C 262.72 352.40 262.65 351.61 266.00 351.00
C 262.96 349.71 260.80 350.86 258.00 351.00 Z"/>
</g>
<g fill="#D8E5F0" fill-opacity="0.64" stroke="None">
<path d="
M 23.00 373.00 
C 22.75 373.23 23.19 374.59 23.00 375.00
C 27.70 370.74 33.76 369.77 40.00 370.00 C 46.24 370.23 55.02 370.10 61.00 370.00 C 66.98 369.90 78.00 370.45 83.00 370.00 C 88.00 369.55 101.77 372.06 102.00 368.00
C 102.00 368.00 101.50 368.00 101.00 368.00
C 88.01 368.00 71.65 367.47 59.00 368.00 C 46.35 368.53 31.97 364.69 23.00 373.00 Z"/>
</g>
<g fill="#88A0B5" fill-opacity="0.17" stroke="None">
<path d="
M 268.00 373.00 
C 269.31 374.81 272.65 376.13 274.00 378.00
C 272.49 374.40 270.54 371.81 267.00 370.00
C 267.42 370.45 267.47 372.26 268.00 373.00 Z"/>
</g>
<g fill="#607993" fill-opacity="0.11" stroke="None">
<path d="
M 18.00 382.00 
C 18.03 382.35 18.95 382.77 19.00 383.00
C 19.48 379.16 21.45 378.24 23.00 375.00
C 23.19 374.59 22.75 373.23 23.00 373.00
C 20.42 375.41 18.91 378.65 18.00 382.00 Z"/>
</g>
<g fill="#B6D7E9" fill-opacity="0.36" stroke="None">
<path d="
M 276.00 386.00 
C 276.06 385.51 276.00 385.00 276.00 385.00
C 278.07 382.11 275.72 382.33 275.00 381.00
C 275.14 382.34 274.03 384.25 276.00 386.00 Z"/>
</g>
<g fill="#CCE3EF" fill-opacity="0.39" stroke="None">
<path d="
M 17.00 392.00 
C 17.08 392.19 18.87 391.78 19.00 392.00
C 18.59 389.10 19.63 385.85 19.00 383.00
C 18.95 382.77 18.03 382.35 18.00 382.00
C 17.25 384.78 16.51 388.50 17.00 392.00 Z"/>
</g>
<g fill="#87A4BB" fill-opacity="0.12" stroke="None">
<path d="
M 276.00 386.00 
C 275.73 388.36 278.12 390.42 278.00 389.00
C 278.21 387.50 278.32 384.44 276.00 385.00
C 276.00 385.00 276.06 385.51 276.00 386.00 Z"/>
</g>
<g fill="#759BB3" fill-opacity="0.15" stroke="None">
<path d="
M 106.00 481.00 
C 104.65 480.65 102.26 477.79 101.00 477.00
C 91.08 470.73 81.71 457.76 72.75 449.25 C 63.79 440.73 52.34 430.50 44.75 421.25 C 37.17 412.00 20.66 403.65 19.00 392.00
C 18.87 391.78 17.08 392.19 17.00 392.00
C 18.38 401.89 32.19 408.09 38.25 415.75 C 44.31 423.42 53.08 431.20 59.92 438.08 C 66.75 444.96 75.19 453.82 82.70 460.30 C 90.21 466.77 95.27 479.29 106.00 481.00 Z"/>
</g>
<g fill="#9FB8D0" fill-opacity="0.24" stroke="None">
<path d="
M 188.00 480.00 
C 187.71 480.11 186.08 480.98 186.00 481.00
C 200.44 479.97 208.36 462.12 218.77 453.77 C 229.18 445.42 239.24 433.56 248.92 423.92 C 258.59 414.27 271.99 404.34 277.00 392.00
C 270.27 403.03 257.55 412.64 248.25 422.25 C 238.94 431.86 228.82 443.13 218.75 451.75 C 208.69 460.38 200.33 475.36 188.00 480.00 Z"/>
</g>
<g fill="#95B2C5" fill-opacity="0.20" stroke="None">
<path d="
M 130.00 456.00 
C 130.54 453.73 128.48 452.23 129.00 450.00
C 122.44 445.42 113.10 437.39 107.75 430.25 C 102.40 423.11 89.68 417.18 88.00 409.00
C 87.90 408.52 88.00 408.00 88.00 408.00
C 83.21 412.64 96.29 420.98 99.75 425.25 C 103.21 429.51 111.05 436.11 115.25 440.75 C 119.45 445.39 126.13 451.17 130.00 456.00 Z"/>
</g>
<g fill="#7E95AA" fill-opacity="0.34" stroke="None">
<path d="
M 88.00 409.00 
C 107.48 410.76 127.43 408.33 147.00 409.00 C 166.57 409.67 186.41 408.97 206.00 409.00
C 206.50 409.00 207.00 409.00 207.00 409.00
C 202.69 404.52 190.64 409.33 184.00 408.00 C 177.36 406.67 167.38 408.55 160.00 408.00 C 152.62 407.45 143.70 408.12 136.00 408.00 C 128.30 407.88 119.82 407.78 112.00 408.00 C 104.18 408.22 95.81 407.30 88.00 408.00
C 88.00 408.00 87.90 408.52 88.00 409.00 Z"/>
</g>
<g fill="#A5BED5" fill-opacity="0.28" stroke="None">
<path d="
M 205.00 413.00 
C 196.95 428.96 173.82 437.01 166.00 453.00
C 173.52 447.74 178.83 438.51 186.25 433.25 C 193.66 427.99 198.70 416.46 207.00 413.00
C 207.00 412.15 207.43 409.71 207.00 409.00
C 207.00 409.00 206.50 409.00 206.00 409.00
C 205.65 410.61 205.75 411.50 205.00 413.00 Z"/>
</g>
<g fill="#9DB8CB" fill-opacity="0.06" stroke="None">
<path d="
M 164.00 457.00 
C 164.20 456.43 165.73 455.51 166.00 455.00
C 166.21 454.61 166.00 454.00 166.00 454.00
C 166.00 453.50 166.00 453.00 166.00 453.00
C 173.82 437.01 196.95 428.96 205.00 413.00
C 200.13 420.62 188.60 426.23 183.25 434.25 C 177.90 442.26 165.32 447.10 164.00 457.00 Z"/>
</g>
<g fill="#C8DAE9" fill-opacity="0.58" stroke="None">
<path d="
M 166.00 453.00 
C 166.00 453.00 166.00 453.50 166.00 454.00
C 181.45 443.16 191.58 424.77 207.00 414.00
C 207.00 414.00 207.00 413.50 207.00 413.00
C 198.70 416.46 193.66 427.99 186.25 433.25 C 178.83 438.51 173.52 447.74 166.00 453.00 Z"/>
</g>
<g fill="#F1F6FB" fill-opacity="0.87" stroke="None">
<path d="
M 166.00 454.00 
C 166.00 454.00 166.21 454.61 166.00 455.00
C 173.45 451.89 180.84 440.44 186.75 434.75 C 192.66 429.06 203.40 421.36 207.00 414.00
C 191.58 424.77 181.45 443.16 166.00 454.00 Z"/>
</g>
<g fill="#8EACBE" fill-opacity="0.18" stroke="None">
<path d="
M 379.00 461.00 
C 374.86 457.19 370.80 453.01 370.00 447.00
C 369.83 446.76 368.08 447.19 368.00 447.00
C 368.86 454.27 374.95 458.61 379.00 461.00 Z"/>
</g>
<g fill="#9EB5CD" fill-opacity="0.24" stroke="None">
<path d="
M 401.00 453.00 
C 396.47 458.73 389.45 464.34 382.00 463.00
C 391.31 466.95 403.48 459.01 404.00 449.00
C 403.71 450.43 401.93 451.82 401.00 453.00 Z"/>
</g>
<g fill="#93B8CC" fill-opacity="0.24" stroke="None">
<path d="
M 329.00 463.00 
C 337.67 464.92 344.31 461.06 348.00 453.00
C 344.98 457.28 336.38 462.86 329.00 463.00 Z"/>
</g>
<g fill="#BAC9D6" fill-opacity="0.60" stroke="None">
<path d="
M 164.00 457.00 
C 163.67 459.48 163.83 462.50 164.00 465.00
C 164.00 465.04 165.00 465.00 165.00 465.00
C 165.30 461.71 164.43 457.92 166.00 455.00
C 165.73 455.51 164.20 456.43 164.00 457.00 Z"/>
</g>
<g fill="#97B3CC" fill-opacity="0.26" stroke="None">
<path d="
M 116.00 479.00 
C 115.84 479.06 116.00 480.00 116.00 480.00
C 125.14 477.77 134.01 467.87 130.00 458.00
C 128.54 466.35 126.14 475.38 116.00 479.00 Z"/>
</g>
<g fill="#97B3C9" fill-opacity="0.17" stroke="None">
<path d="
M 178.00 480.00 
C 175.57 479.09 174.79 477.37 173.00 476.00
C 168.34 473.17 166.94 470.16 165.00 465.00
C 165.00 465.00 164.00 465.04 164.00 465.00
C 164.59 473.65 170.97 478.68 178.00 480.00 Z"/>
</g>
<g fill="#C0D0DF" fill-opacity="0.58" stroke="None">
<path d="
M 101.00 477.00 
C 102.26 477.79 104.65 480.65 106.00 481.00
C 109.47 481.55 112.87 480.76 116.00 480.00
C 116.00 480.00 115.84 479.06 116.00 479.00
C 110.43 478.63 105.36 478.98 101.00 477.00 Z"/>
</g>
<g fill="#C8D8E5" fill-opacity="0.62" stroke="None">
<path d="
M 178.00 480.00 
C 180.49 480.47 183.19 481.80 186.00 481.00
C 186.08 480.98 187.71 480.11 188.00 480.00
C 183.74 481.12 177.30 478.61 173.00 476.00
C 174.79 477.37 175.57 479.09 178.00 480.00 Z"/>
</g>
</svg>