<svg xmlns="http://www.w3.org/2000/svg" xmlns:v="https://svgstorm.com"
viewBox = "0 0 256 256"
width="256"
height="256">
<g fill="None" fill-opacity="0.0" stroke="#000000" stroke-opacity="0.00" stroke-width="0.3"><path d="
M 0.00 116.00 
C 5.98 110.75 11.76 104.52 20.00 104.00
C 24.87 95.03 26.47 88.61 28.80 78.75 C 31.13 68.89 29.71 57.36 34.31 47.31 C 38.91 37.25 44.69 33.03 42.00 19.00 C 39.31 4.97 55.47 6.17 67.00 7.00 C 78.53 7.83 91.11 6.63 103.00 7.00 C 114.89 7.37 127.95 6.82 140.00 7.00 C 152.05 7.18 163.87 6.91 176.00 7.00 C 188.13 7.09 200.82 6.93 213.00 7.00
C 215.40 18.13 210.78 32.21 218.77 41.23 C 226.76 50.25 223.76 63.29 226.00 74.00 C 228.24 84.71 230.95 94.47 236.00 104.00
C 244.19 104.48 250.09 110.83 256.00 116.00
L 256.00 0.00
L 0.00 0.00
L 0.00 116.00 Z"/>
</g>
<g fill="None" fill-opacity="0.0" stroke="#FEFEFE" stroke-opacity="0.97" stroke-width="0.3"><path d="
M 0.00 116.00 
L 0.00 126.00
C 3.12 125.83 4.86 122.16 8.00 122.00
C 7.21 126.91 5.37 136.01 5.22 141.22 C 5.08 146.43 1.48 160.69 7.00 158.00
C 6.93 156.56 8.51 153.49 10.00 153.00
C 10.17 155.14 9.89 157.84 8.00 159.00
C 5.64 166.76 24.92 161.47 22.00 152.00
C 24.09 154.20 20.84 157.90 22.00 161.00
C 29.55 152.61 36.77 139.39 37.98 126.98 C 39.18 114.56 44.54 102.87 51.77 91.77 C 59.00 80.67 64.93 69.93 65.22 56.78 C 65.50 43.63 70.65 28.92 74.00 17.00
C 81.41 55.72 70.96 91.64 69.00 131.00 C 67.04 170.36 90.26 204.75 84.00 244.00
C 96.33 244.00 108.67 244.00 121.00 244.00
C 127.71 210.60 122.21 171.53 128.00 138.00
C 127.13 136.89 126.70 135.70 127.00 134.00
C 129.53 133.37 128.90 136.53 129.00 138.00
C 132.15 172.90 130.59 210.09 135.00 244.00
C 147.33 244.00 159.67 244.00 172.00 244.00
C 168.08 221.08 174.16 200.82 180.59 179.25 C 187.02 157.69 187.89 131.07 187.00 108.00
C 185.72 105.98 184.24 104.03 183.00 102.00
C 178.69 94.97 175.67 85.45 169.00 81.00
C 173.03 86.93 161.24 99.73 158.25 91.75 C 155.26 83.78 164.15 79.53 162.98 70.98 C 161.80 62.42 175.21 63.31 180.00 67.00
C 180.03 69.74 178.37 72.08 179.00 75.00
C 179.04 75.59 179.67 76.89 180.00 78.00
C 180.25 77.75 181.00 78.00 181.00 78.00
C 185.55 74.50 190.66 81.67 195.00 75.00
C 193.48 72.38 196.78 73.07 196.00 75.00
C 198.91 82.75 204.11 89.83 207.92 97.08 C 211.72 104.33 218.82 113.48 217.98 122.02 C 217.13 130.57 223.85 138.98 224.98 147.02 C 226.10 155.07 234.96 166.59 235.00 154.00
C 233.94 162.11 248.99 166.54 248.00 159.00
C 246.88 158.01 244.97 154.04 247.00 153.00
C 247.91 154.94 249.33 156.68 249.00 159.00
C 249.90 159.63 250.85 160.10 252.00 160.00
C 251.43 147.90 250.97 135.10 248.00 124.00
C 247.64 121.91 249.26 118.92 249.00 122.00
C 251.19 121.67 253.42 126.86 256.00 126.00
L 256.00 116.00
C 250.09 110.83 244.19 104.48 236.00 104.00
C 230.95 94.47 228.24 84.71 226.00 74.00 C 223.76 63.29 226.76 50.25 218.77 41.23 C 210.78 32.21 215.40 18.13 213.00 7.00
C 200.82 6.93 188.13 7.09 176.00 7.00 C 163.87 6.91 152.05 7.18 140.00 7.00 C 127.95 6.82 114.89 7.37 103.00 7.00 C 91.11 6.63 78.53 7.83 67.00 7.00 C 55.47 6.17 39.31 4.97 42.00 19.00 C 44.69 33.03 38.91 37.25 34.31 47.31 C 29.71 57.36 31.13 68.89 28.80 78.75 C 26.47 88.61 24.87 95.03 20.00 104.00
C 11.76 104.52 5.98 110.75 0.00 116.00
M 75.00 13.00 
C 75.81 13.81 74.69 16.77 73.29 15.63 C 71.90 14.50 74.10 12.10 75.00 13.00
M 183.00 17.00 
C 182.68 25.60 187.55 34.47 189.97 42.03 C 192.40 49.58 186.85 62.13 193.00 67.00
C 194.05 67.91 195.08 69.40 195.00 71.00
C 193.57 70.12 191.40 69.99 193.00 68.00
C 188.92 67.69 185.19 65.98 181.00 66.00
C 178.42 50.30 178.26 32.48 182.00 17.00
C 180.95 15.62 180.66 13.69 183.00 13.00
C 183.00 14.33 183.00 15.67 183.00 17.00
M 26.00 144.00 
C 25.69 151.65 20.49 146.59 26.00 144.00
M 233.00 153.00 
C 231.32 150.54 230.69 147.36 230.00 144.00
C 233.00 144.47 235.10 150.81 233.00 153.00 Z"/>
</g>
<g fill="None" fill-opacity="0.0" stroke="#FFFFFF" stroke-opacity="0.37" stroke-width="0.3"><path d="
M 75.00 13.00 
C 74.10 12.10 71.90 14.50 73.29 15.63 C 74.69 16.77 75.81 13.81 75.00 13.00 Z"/>
</g>
<g fill="None" fill-opacity="0.0" stroke="#FFFFFF" stroke-opacity="0.35" stroke-width="0.3"><path d="
M 182.00 17.00 
C 182.01 16.94 183.00 17.00 183.00 17.00
C 183.00 15.67 183.00 14.33 183.00 13.00
C 180.66 13.69 180.95 15.62 182.00 17.00 Z"/>
</g>
<g fill="None" fill-opacity="0.0" stroke="#000000" stroke-opacity="0.00" stroke-width="0.3"><path d="
M 8.00 159.00 
C 8.08 158.74 7.01 158.18 7.00 158.00
C 1.48 160.69 5.08 146.43 5.22 141.22 C 5.37 136.01 7.21 126.91 8.00 122.00
C 4.86 122.16 3.12 125.83 0.00 126.00
L 0.00 256.00
L 256.00 256.00
L 256.00 126.00
C 253.42 126.86 251.19 121.67 249.00 122.00
C 248.97 122.33 247.94 123.05 248.00 124.00
C 250.97 135.10 251.43 147.90 252.00 160.00
C 250.85 160.10 249.90 159.63 249.00 159.00
C 248.66 158.76 248.00 159.00 248.00 159.00
C 248.99 166.54 233.94 162.11 235.00 154.00
C 234.96 166.59 226.10 155.07 224.98 147.02 C 223.85 138.98 217.13 130.57 217.98 122.02 C 218.82 113.48 211.72 104.33 207.92 97.08 C 204.11 89.83 198.91 82.75 196.00 75.00
C 195.94 74.84 195.00 75.00 195.00 75.00
C 190.66 81.67 185.55 74.50 181.00 78.00
C 185.20 85.31 186.48 91.91 192.77 98.23 C 199.06 104.55 194.29 119.54 187.00 108.00
C 187.89 131.07 187.02 157.69 180.59 179.25 C 174.16 200.82 168.08 221.08 172.00 244.00
C 159.67 244.00 147.33 244.00 135.00 244.00
C 130.59 210.09 132.15 172.90 129.00 138.00
C 129.00 137.96 128.00 138.00 128.00 138.00
C 122.21 171.53 127.71 210.60 121.00 244.00
C 108.67 244.00 96.33 244.00 84.00 244.00
C 90.26 204.75 67.04 170.36 69.00 131.00 C 70.96 91.64 81.41 55.72 74.00 17.00
C 70.65 28.92 65.50 43.63 65.22 56.78 C 64.93 69.93 59.00 80.67 51.77 91.77 C 44.54 102.87 39.18 114.56 37.98 126.98 C 36.77 139.39 29.55 152.61 22.00 161.00
C 20.84 157.90 24.09 154.20 22.00 152.00
C 24.92 161.47 5.64 166.76 8.00 159.00 Z"/>
</g>
<g fill="None" fill-opacity="0.0" stroke="#000000" stroke-opacity="0.00" stroke-width="0.3"><path d="
M 193.00 68.00 
C 193.17 67.57 193.00 67.00 193.00 67.00
C 186.85 62.13 192.40 49.58 189.97 42.03 C 187.55 34.47 182.68 25.60 183.00 17.00
C 183.00 17.00 182.01 16.94 182.00 17.00
C 178.26 32.48 178.42 50.30 181.00 66.00
C 185.19 65.98 188.92 67.69 193.00 68.00 Z"/>
</g>
<g fill="None" fill-opacity="0.0" stroke="#000000" stroke-opacity="0.00" stroke-width="0.3"><path d="
M 183.00 102.00 
C 181.23 96.34 181.15 85.97 180.00 79.00
C 177.70 77.86 178.94 76.11 179.00 75.00
C 178.37 72.08 180.03 69.74 180.00 67.00
C 175.21 63.31 161.80 62.42 162.98 70.98 C 164.15 79.53 155.26 83.78 158.25 91.75 C 161.24 99.73 173.03 86.93 169.00 81.00
C 175.67 85.45 178.69 94.97 183.00 102.00 Z"/>
</g>
<g fill="None" fill-opacity="0.0" stroke="#FFFFFF" stroke-opacity="0.74" stroke-width="0.3"><path d="
M 193.00 68.00 
C 191.40 69.99 193.57 70.12 195.00 71.00
C 195.08 69.40 194.05 67.91 193.00 67.00
C 193.00 67.00 193.17 67.57 193.00 68.00 Z"/>
</g>
<g fill="None" fill-opacity="0.0" stroke="#FFFFFF" stroke-opacity="0.68" stroke-width="0.3"><path d="
M 195.00 75.00 
C 195.00 75.00 195.94 74.84 196.00 75.00
C 196.78 73.07 193.48 72.38 195.00 75.00 Z"/>
</g>
<g fill="None" fill-opacity="0.0" stroke="#6F727C" stroke-opacity="0.27" stroke-width="0.3"><path d="
M 180.00 79.00 
C 179.92 78.51 180.00 78.00 180.00 78.00
C 179.67 76.89 179.04 75.59 179.00 75.00
C 178.94 76.11 177.70 77.86 180.00 79.00 Z"/>
</g>
<g fill="None" fill-opacity="0.0" stroke="#F8F8F8" stroke-opacity="0.84" stroke-width="0.3"><path d="
M 180.00 79.00 
C 181.15 85.97 181.23 96.34 183.00 102.00
C 184.24 104.03 185.72 105.98 187.00 108.00
C 194.29 119.54 199.06 104.55 192.77 98.23 C 186.48 91.91 185.20 85.31 181.00 78.00
C 181.00 78.00 180.25 77.75 180.00 78.00
C 180.00 78.00 179.92 78.51 180.00 79.00 Z"/>
</g>
<g fill="None" fill-opacity="0.0" stroke="#FFFFFF" stroke-opacity="0.74" stroke-width="0.3"><path d="
M 248.00 124.00 
C 247.94 123.05 248.97 122.33 249.00 122.00
C 249.26 118.92 247.64 121.91 248.00 124.00 Z"/>
</g>
<g fill="None" fill-opacity="0.0" stroke="#FFFFFF" stroke-opacity="0.46" stroke-width="0.3"><path d="
M 128.00 138.00 
C 128.00 138.00 129.00 137.96 129.00 138.00
C 128.90 136.53 129.53 133.37 127.00 134.00
C 126.70 135.70 127.13 136.89 128.00 138.00 Z"/>
</g>
<g fill="None" fill-opacity="0.0" stroke="#FFFFFF" stroke-opacity="0.54" stroke-width="0.3"><path d="
M 26.00 144.00 
C 20.49 146.59 25.69 151.65 26.00 144.00 Z"/>
</g>
<g fill="None" fill-opacity="0.0" stroke="#C8C8C8" stroke-opacity="0.52" stroke-width="0.3"><path d="
M 233.00 153.00 
C 235.10 150.81 233.00 144.47 230.00 144.00
C 230.69 147.36 231.32 150.54 233.00 153.00 Z"/>
</g>
<g fill="None" fill-opacity="0.0" stroke="#FFFFFF" stroke-opacity="0.58" stroke-width="0.3"><path d="
M 7.00 158.00 
C 7.01 158.18 8.08 158.74 8.00 159.00
C 9.89 157.84 10.17 155.14 10.00 153.00
C 8.51 153.49 6.93 156.56 7.00 158.00 Z"/>
</g>
<g fill="None" fill-opacity="0.0" stroke="#FFFFFF" stroke-opacity="0.56" stroke-width="0.3"><path d="
M 248.00 159.00 
C 248.00 159.00 248.66 158.76 249.00 159.00
C 249.33 156.68 247.91 154.94 247.00 153.00
C 244.97 154.04 246.88 158.01 248.00 159.00 Z"/>
</g>
<g fill="#000000" fill-opacity="0.00" stroke="None">
<path d="
M 0.00 116.00 
C 5.98 110.75 11.76 104.52 20.00 104.00
C 24.87 95.03 26.47 88.61 28.80 78.75 C 31.13 68.89 29.71 57.36 34.31 47.31 C 38.91 37.25 44.69 33.03 42.00 19.00 C 39.31 4.97 55.47 6.17 67.00 7.00 C 78.53 7.83 91.11 6.63 103.00 7.00 C 114.89 7.37 127.95 6.82 140.00 7.00 C 152.05 7.18 163.87 6.91 176.00 7.00 C 188.13 7.09 200.82 6.93 213.00 7.00
C 215.40 18.13 210.78 32.21 218.77 41.23 C 226.76 50.25 223.76 63.29 226.00 74.00 C 228.24 84.71 230.95 94.47 236.00 104.00
C 244.19 104.48 250.09 110.83 256.00 116.00
L 256.00 0.00
L 0.00 0.00
L 0.00 116.00 Z"/>
</g>
<g fill="#FEFEFE" fill-opacity="0.97" stroke="None">
<path d="
M 0.00 116.00 
L 0.00 126.00
C 3.12 125.83 4.86 122.16 8.00 122.00
C 7.21 126.91 5.37 136.01 5.22 141.22 C 5.08 146.43 1.48 160.69 7.00 158.00
C 6.93 156.56 8.51 153.49 10.00 153.00
C 10.17 155.14 9.89 157.84 8.00 159.00
C 5.64 166.76 24.92 161.47 22.00 152.00
C 24.09 154.20 20.84 157.90 22.00 161.00
C 29.55 152.61 36.77 139.39 37.98 126.98 C 39.18 114.56 44.54 102.87 51.77 91.77 C 59.00 80.67 64.93 69.93 65.22 56.78 C 65.50 43.63 70.65 28.92 74.00 17.00
C 81.41 55.72 70.96 91.64 69.00 131.00 C 67.04 170.36 90.26 204.75 84.00 244.00
C 96.33 244.00 108.67 244.00 121.00 244.00
C 127.71 210.60 122.21 171.53 128.00 138.00
C 127.13 136.89 126.70 135.70 127.00 134.00
C 129.53 133.37 128.90 136.53 129.00 138.00
C 132.15 172.90 130.59 210.09 135.00 244.00
C 147.33 244.00 159.67 244.00 172.00 244.00
C 168.08 221.08 174.16 200.82 180.59 179.25 C 187.02 157.69 187.89 131.07 187.00 108.00
C 185.72 105.98 184.24 104.03 183.00 102.00
C 178.69 94.97 175.67 85.45 169.00 81.00
C 173.03 86.93 161.24 99.73 158.25 91.75 C 155.26 83.78 164.15 79.53 162.98 70.98 C 161.80 62.42 175.21 63.31 180.00 67.00
C 180.03 69.74 178.37 72.08 179.00 75.00
C 179.04 75.59 179.67 76.89 180.00 78.00
C 180.25 77.75 181.00 78.00 181.00 78.00
C 185.55 74.50 190.66 81.67 195.00 75.00
C 193.48 72.38 196.78 73.07 196.00 75.00
C 198.91 82.75 204.11 89.83 207.92 97.08 C 211.72 104.33 218.82 113.48 217.98 122.02 C 217.13 130.57 223.85 138.98 224.98 147.02 C 226.10 155.07 234.96 166.59 235.00 154.00
C 233.94 162.11 248.99 166.54 248.00 159.00
C 246.88 158.01 244.97 154.04 247.00 153.00
C 247.91 154.94 249.33 156.68 249.00 159.00
C 249.90 159.63 250.85 160.10 252.00 160.00
C 251.43 147.90 250.97 135.10 248.00 124.00
C 247.64 121.91 249.26 118.92 249.00 122.00
C 251.19 121.67 253.42 126.86 256.00 126.00
L 256.00 116.00
C 250.09 110.83 244.19 104.48 236.00 104.00
C 230.95 94.47 228.24 84.71 226.00 74.00 C 223.76 63.29 226.76 50.25 218.77 41.23 C 210.78 32.21 215.40 18.13 213.00 7.00
C 200.82 6.93 188.13 7.09 176.00 7.00 C 163.87 6.91 152.05 7.18 140.00 7.00 C 127.95 6.82 114.89 7.37 103.00 7.00 C 91.11 6.63 78.53 7.83 67.00 7.00 C 55.47 6.17 39.31 4.97 42.00 19.00 C 44.69 33.03 38.91 37.25 34.31 47.31 C 29.71 57.36 31.13 68.89 28.80 78.75 C 26.47 88.61 24.87 95.03 20.00 104.00
C 11.76 104.52 5.98 110.75 0.00 116.00
M 75.00 13.00 
C 75.81 13.81 74.69 16.77 73.29 15.63 C 71.90 14.50 74.10 12.10 75.00 13.00
M 183.00 17.00 
C 182.68 25.60 187.55 34.47 189.97 42.03 C 192.40 49.58 186.85 62.13 193.00 67.00
C 194.05 67.91 195.08 69.40 195.00 71.00
C 193.57 70.12 191.40 69.99 193.00 68.00
C 188.92 67.69 185.19 65.98 181.00 66.00
C 178.42 50.30 178.26 32.48 182.00 17.00
C 180.95 15.62 180.66 13.69 183.00 13.00
C 183.00 14.33 183.00 15.67 183.00 17.00
M 26.00 144.00 
C 25.69 151.65 20.49 146.59 26.00 144.00
M 233.00 153.00 
C 231.32 150.54 230.69 147.36 230.00 144.00
C 233.00 144.47 235.10 150.81 233.00 153.00 Z"/>
</g>
<g fill="#FFFFFF" fill-opacity="0.37" stroke="None">
<path d="
M 75.00 13.00 
C 74.10 12.10 71.90 14.50 73.29 15.63 C 74.69 16.77 75.81 13.81 75.00 13.00 Z"/>
</g>
<g fill="#FFFFFF" fill-opacity="0.35" stroke="None">
<path d="
M 182.00 17.00 
C 182.01 16.94 183.00 17.00 183.00 17.00
C 183.00 15.67 183.00 14.33 183.00 13.00
C 180.66 13.69 180.95 15.62 182.00 17.00 Z"/>
</g>
<g fill="#000000" fill-opacity="0.00" stroke="None">
<path d="
M 8.00 159.00 
C 8.08 158.74 7.01 158.18 7.00 158.00
C 1.48 160.69 5.08 146.43 5.22 141.22 C 5.37 136.01 7.21 126.91 8.00 122.00
C 4.86 122.16 3.12 125.83 0.00 126.00
L 0.00 256.00
L 256.00 256.00
L 256.00 126.00
C 253.42 126.86 251.19 121.67 249.00 122.00
C 248.97 122.33 247.94 123.05 248.00 124.00
C 250.97 135.10 251.43 147.90 252.00 160.00
C 250.85 160.10 249.90 159.63 249.00 159.00
C 248.66 158.76 248.00 159.00 248.00 159.00
C 248.99 166.54 233.94 162.11 235.00 154.00
C 234.96 166.59 226.10 155.07 224.98 147.02 C 223.85 138.98 217.13 130.57 217.98 122.02 C 218.82 113.48 211.72 104.33 207.92 97.08 C 204.11 89.83 198.91 82.75 196.00 75.00
C 195.94 74.84 195.00 75.00 195.00 75.00
C 190.66 81.67 185.55 74.50 181.00 78.00
C 185.20 85.31 186.48 91.91 192.77 98.23 C 199.06 104.55 194.29 119.54 187.00 108.00
C 187.89 131.07 187.02 157.69 180.59 179.25 C 174.16 200.82 168.08 221.08 172.00 244.00
C 159.67 244.00 147.33 244.00 135.00 244.00
C 130.59 210.09 132.15 172.90 129.00 138.00
C 129.00 137.96 128.00 138.00 128.00 138.00
C 122.21 171.53 127.71 210.60 121.00 244.00
C 108.67 244.00 96.33 244.00 84.00 244.00
C 90.26 204.75 67.04 170.36 69.00 131.00 C 70.96 91.64 81.41 55.72 74.00 17.00
C 70.65 28.92 65.50 43.63 65.22 56.78 C 64.93 69.93 59.00 80.67 51.77 91.77 C 44.54 102.87 39.18 114.56 37.98 126.98 C 36.77 139.39 29.55 152.61 22.00 161.00
C 20.84 157.90 24.09 154.20 22.00 152.00
C 24.92 161.47 5.64 166.76 8.00 159.00 Z"/>
</g>
<g fill="#000000" fill-opacity="0.00" stroke="None">
<path d="
M 193.00 68.00 
C 193.17 67.57 193.00 67.00 193.00 67.00
C 186.85 62.13 192.40 49.58 189.97 42.03 C 187.55 34.47 182.68 25.60 183.00 17.00
C 183.00 17.00 182.01 16.94 182.00 17.00
C 178.26 32.48 178.42 50.30 181.00 66.00
C 185.19 65.98 188.92 67.69 193.00 68.00 Z"/>
</g>
<g fill="#000000" fill-opacity="0.00" stroke="None">
<path d="
M 183.00 102.00 
C 181.23 96.34 181.15 85.97 180.00 79.00
C 177.70 77.86 178.94 76.11 179.00 75.00
C 178.37 72.08 180.03 69.74 180.00 67.00
C 175.21 63.31 161.80 62.42 162.98 70.98 C 164.15 79.53 155.26 83.78 158.25 91.75 C 161.24 99.73 173.03 86.93 169.00 81.00
C 175.67 85.45 178.69 94.97 183.00 102.00 Z"/>
</g>
<g fill="#FFFFFF" fill-opacity="0.74" stroke="None">
<path d="
M 193.00 68.00 
C 191.40 69.99 193.57 70.12 195.00 71.00
C 195.08 69.40 194.05 67.91 193.00 67.00
C 193.00 67.00 193.17 67.57 193.00 68.00 Z"/>
</g>
<g fill="#FFFFFF" fill-opacity="0.68" stroke="None">
<path d="
M 195.00 75.00 
C 195.00 75.00 195.94 74.84 196.00 75.00
C 196.78 73.07 193.48 72.38 195.00 75.00 Z"/>
</g>
<g fill="#6F727C" fill-opacity="0.27" stroke="None">
<path d="
M 180.00 79.00 
C 179.92 78.51 180.00 78.00 180.00 78.00
C 179.67 76.89 179.04 75.59 179.00 75.00
C 178.94 76.11 177.70 77.86 180.00 79.00 Z"/>
</g>
<g fill="#F8F8F8" fill-opacity="0.84" stroke="None">
<path d="
M 180.00 79.00 
C 181.15 85.97 181.23 96.34 183.00 102.00
C 184.24 104.03 185.72 105.98 187.00 108.00
C 194.29 119.54 199.06 104.55 192.77 98.23 C 186.48 91.91 185.20 85.31 181.00 78.00
C 181.00 78.00 180.25 77.75 180.00 78.00
C 180.00 78.00 179.92 78.51 180.00 79.00 Z"/>
</g>
<g fill="#FFFFFF" fill-opacity="0.74" stroke="None">
<path d="
M 248.00 124.00 
C 247.94 123.05 248.97 122.33 249.00 122.00
C 249.26 118.92 247.64 121.91 248.00 124.00 Z"/>
</g>
<g fill="#FFFFFF" fill-opacity="0.46" stroke="None">
<path d="
M 128.00 138.00 
C 128.00 138.00 129.00 137.96 129.00 138.00
C 128.90 136.53 129.53 133.37 127.00 134.00
C 126.70 135.70 127.13 136.89 128.00 138.00 Z"/>
</g>
<g fill="#FFFFFF" fill-opacity="0.54" stroke="None">
<path d="
M 26.00 144.00 
C 20.49 146.59 25.69 151.65 26.00 144.00 Z"/>
</g>
<g fill="#C8C8C8" fill-opacity="0.52" stroke="None">
<path d="
M 233.00 153.00 
C 235.10 150.81 233.00 144.47 230.00 144.00
C 230.69 147.36 231.32 150.54 233.00 153.00 Z"/>
</g>
<g fill="#FFFFFF" fill-opacity="0.58" stroke="None">
<path d="
M 7.00 158.00 
C 7.01 158.18 8.08 158.74 8.00 159.00
C 9.89 157.84 10.17 155.14 10.00 153.00
C 8.51 153.49 6.93 156.56 7.00 158.00 Z"/>
</g>
<g fill="#FFFFFF" fill-opacity="0.56" stroke="None">
<path d="
M 248.00 159.00 
C 248.00 159.00 248.66 158.76 249.00 159.00
C 249.33 156.68 247.91 154.94 247.00 153.00
C 244.97 154.04 246.88 158.01 248.00 159.00 Z"/>
</g>
</svg>