<svg xmlns="http://www.w3.org/2000/svg" xmlns:v="https://svgstorm.com"
viewBox = "0 0 256 256"
width="256"
height="256">
<g fill="None" fill-opacity="0.0" stroke="#000000" stroke-opacity="0.00" stroke-width="0.3"><path d="
M 0.00 256.00 
L 256.00 256.00
L 256.00 0.00
L 0.00 0.00
L 0.00 256.00
M 210.00 144.00 
C 217.31 142.90 224.59 150.25 216.00 154.00
C 215.46 154.23 208.35 156.32 208.00 156.00
C 206.07 166.05 212.61 175.98 210.00 187.00 C 207.39 198.02 215.44 203.83 218.92 213.08 C 222.40 222.33 221.71 234.27 224.00 244.00
C 214.00 244.00 204.00 244.00 194.00 244.00
C 184.20 224.75 187.01 201.88 179.00 182.00
C 178.84 181.66 178.04 181.22 178.00 181.00
C 174.13 202.35 176.65 223.05 178.00 244.00
C 142.33 244.00 106.67 244.00 71.00 244.00
C 72.01 223.24 75.79 202.17 71.00 181.00
C 71.00 181.02 70.00 181.00 70.00 181.00
C 68.80 191.18 63.86 199.79 63.00 210.00 C 62.14 220.21 62.50 231.13 57.07 240.07 C 51.65 249.02 34.22 241.53 25.00 244.00
C 29.72 233.84 23.96 220.45 30.93 210.93 C 37.89 201.41 39.28 192.17 39.00 180.00 C 38.72 167.83 42.37 158.66 39.07 146.93 C 35.78 135.20 41.85 124.98 45.77 114.77 C 49.69 104.56 60.08 102.14 70.00 100.00 C 79.92 97.87 86.97 92.05 97.69 88.69 C 108.41 85.34 101.34 66.74 98.22 59.78 C 95.11 52.81 83.14 37.34 96.00 35.00
C 83.62 -3.95 164.73 -3.87 152.00 35.00
C 166.15 37.72 151.88 52.01 149.07 59.07 C 146.27 66.13 138.71 83.68 149.08 87.92 C 159.44 92.16 167.11 95.80 177.00 99.00 C 186.90 102.19 196.90 102.85 202.30 112.70 C 207.71 122.54 210.63 132.31 210.00 144.00 Z"/>
</g>
<g fill="None" fill-opacity="0.0" stroke="#FEFEFE" stroke-opacity="0.98" stroke-width="0.3"><path d="
M 70.00 181.00 
C 68.95 179.62 68.66 177.69 71.00 177.00
C 71.00 178.33 71.00 179.67 71.00 181.00
C 75.79 202.17 72.01 223.24 71.00 244.00
C 106.67 244.00 142.33 244.00 178.00 244.00
C 176.65 223.05 174.13 202.35 178.00 181.00
C 177.73 179.44 177.61 176.54 180.00 177.00
C 179.61 178.57 180.94 181.22 179.00 182.00
C 187.01 201.88 184.20 224.75 194.00 244.00
C 204.00 244.00 214.00 244.00 224.00 244.00
C 221.71 234.27 222.40 222.33 218.92 213.08 C 215.44 203.83 207.39 198.02 210.00 187.00 C 212.61 175.98 206.07 166.05 208.00 156.00
C 208.11 155.44 208.98 154.14 209.00 154.00
C 209.25 152.39 208.26 152.92 208.00 152.00
C 201.55 152.90 189.32 156.30 181.00 153.00
C 180.77 157.99 187.10 159.93 189.00 164.00
C 185.51 164.05 182.52 165.96 179.00 166.00
C 174.45 161.30 172.65 158.15 167.25 153.75 C 161.84 149.35 169.36 142.23 173.25 139.25 C 177.14 136.27 181.28 125.28 187.67 129.33 C 194.06 133.38 181.41 141.31 181.00 145.00
C 190.00 145.00 199.00 145.00 208.00 145.00
C 208.47 144.88 209.08 144.14 210.00 144.00
C 210.63 132.31 207.71 122.54 202.30 112.70 C 196.90 102.85 186.90 102.19 177.00 99.00 C 167.11 95.80 159.44 92.16 149.08 87.92 C 138.71 83.68 146.27 66.13 149.07 59.07 C 151.88 52.01 166.15 37.72 152.00 35.00
C 164.73 -3.87 83.62 -3.95 96.00 35.00
C 83.14 37.34 95.11 52.81 98.22 59.78 C 101.34 66.74 108.41 85.34 97.69 88.69 C 86.97 92.05 79.92 97.87 70.00 100.00 C 60.08 102.14 49.69 104.56 45.77 114.77 C 41.85 124.98 35.78 135.20 39.07 146.93 C 42.37 158.66 38.72 167.83 39.00 180.00 C 39.28 192.17 37.89 201.41 30.93 210.93 C 23.96 220.45 29.72 233.84 25.00 244.00
C 34.22 241.53 51.65 249.02 57.07 240.07 C 62.50 231.13 62.14 220.21 63.00 210.00 C 63.86 199.79 68.80 191.18 70.00 181.00 Z"/>
</g>
<g fill="None" fill-opacity="0.0" stroke="#000000" stroke-opacity="0.00" stroke-width="0.3"><path d="
M 208.00 152.00 
C 207.65 150.77 207.48 146.15 208.00 145.00
C 199.00 145.00 190.00 145.00 181.00 145.00
C 181.41 141.31 194.06 133.38 187.67 129.33 C 181.28 125.28 177.14 136.27 173.25 139.25 C 169.36 142.23 161.84 149.35 167.25 153.75 C 172.65 158.15 174.45 161.30 179.00 166.00
C 182.52 165.96 185.51 164.05 189.00 164.00
C 187.10 159.93 180.77 157.99 181.00 153.00
C 189.32 156.30 201.55 152.90 208.00 152.00 Z"/>
</g>
<g fill="None" fill-opacity="0.0" stroke="#FAFAFB" stroke-opacity="0.86" stroke-width="0.3"><path d="
M 208.00 145.00 
C 207.48 146.15 207.65 150.77 208.00 152.00
C 208.26 152.92 209.25 152.39 209.00 154.00
C 210.90 153.14 213.96 154.52 216.00 154.00
C 224.59 150.25 217.31 142.90 210.00 144.00
C 209.08 144.14 208.47 144.88 208.00 145.00 Z"/>
</g>
<g fill="None" fill-opacity="0.0" stroke="#FDFDFD" stroke-opacity="0.11" stroke-width="0.3"><path d="
M 208.00 156.00 
C 208.35 156.32 215.46 154.23 216.00 154.00
C 213.96 154.52 210.90 153.14 209.00 154.00
C 208.98 154.14 208.11 155.44 208.00 156.00 Z"/>
</g>
<g fill="None" fill-opacity="0.0" stroke="#FFFFFF" stroke-opacity="0.42" stroke-width="0.3"><path d="
M 70.00 181.00 
C 70.00 181.00 71.00 181.02 71.00 181.00
C 71.00 179.67 71.00 178.33 71.00 177.00
C 68.66 177.69 68.95 179.62 70.00 181.00 Z"/>
</g>
<g fill="None" fill-opacity="0.0" stroke="#FFFFFF" stroke-opacity="0.41" stroke-width="0.3"><path d="
M 178.00 181.00 
C 178.04 181.22 178.84 181.66 179.00 182.00
C 180.94 181.22 179.61 178.57 180.00 177.00
C 177.61 176.54 177.73 179.44 178.00 181.00 Z"/>
</g>
<g fill="#000000" fill-opacity="0.00" stroke="None">
<path d="
M 0.00 256.00 
L 256.00 256.00
L 256.00 0.00
L 0.00 0.00
L 0.00 256.00
M 210.00 144.00 
C 217.31 142.90 224.59 150.25 216.00 154.00
C 215.46 154.23 208.35 156.32 208.00 156.00
C 206.07 166.05 212.61 175.98 210.00 187.00 C 207.39 198.02 215.44 203.83 218.92 213.08 C 222.40 222.33 221.71 234.27 224.00 244.00
C 214.00 244.00 204.00 244.00 194.00 244.00
C 184.20 224.75 187.01 201.88 179.00 182.00
C 178.84 181.66 178.04 181.22 178.00 181.00
C 174.13 202.35 176.65 223.05 178.00 244.00
C 142.33 244.00 106.67 244.00 71.00 244.00
C 72.01 223.24 75.79 202.17 71.00 181.00
C 71.00 181.02 70.00 181.00 70.00 181.00
C 68.80 191.18 63.86 199.79 63.00 210.00 C 62.14 220.21 62.50 231.13 57.07 240.07 C 51.65 249.02 34.22 241.53 25.00 244.00
C 29.72 233.84 23.96 220.45 30.93 210.93 C 37.89 201.41 39.28 192.17 39.00 180.00 C 38.72 167.83 42.37 158.66 39.07 146.93 C 35.78 135.20 41.85 124.98 45.77 114.77 C 49.69 104.56 60.08 102.14 70.00 100.00 C 79.92 97.87 86.97 92.05 97.69 88.69 C 108.41 85.34 101.34 66.74 98.22 59.78 C 95.11 52.81 83.14 37.34 96.00 35.00
C 83.62 -3.95 164.73 -3.87 152.00 35.00
C 166.15 37.72 151.88 52.01 149.07 59.07 C 146.27 66.13 138.71 83.68 149.08 87.92 C 159.44 92.16 167.11 95.80 177.00 99.00 C 186.90 102.19 196.90 102.85 202.30 112.70 C 207.71 122.54 210.63 132.31 210.00 144.00 Z"/>
</g>
<g fill="#FEFEFE" fill-opacity="0.98" stroke="None">
<path d="
M 70.00 181.00 
C 68.95 179.62 68.66 177.69 71.00 177.00
C 71.00 178.33 71.00 179.67 71.00 181.00
C 75.79 202.17 72.01 223.24 71.00 244.00
C 106.67 244.00 142.33 244.00 178.00 244.00
C 176.65 223.05 174.13 202.35 178.00 181.00
C 177.73 179.44 177.61 176.54 180.00 177.00
C 179.61 178.57 180.94 181.22 179.00 182.00
C 187.01 201.88 184.20 224.75 194.00 244.00
C 204.00 244.00 214.00 244.00 224.00 244.00
C 221.71 234.27 222.40 222.33 218.92 213.08 C 215.44 203.83 207.39 198.02 210.00 187.00 C 212.61 175.98 206.07 166.05 208.00 156.00
C 208.11 155.44 208.98 154.14 209.00 154.00
C 209.25 152.39 208.26 152.92 208.00 152.00
C 201.55 152.90 189.32 156.30 181.00 153.00
C 180.77 157.99 187.10 159.93 189.00 164.00
C 185.51 164.05 182.52 165.96 179.00 166.00
C 174.45 161.30 172.65 158.15 167.25 153.75 C 161.84 149.35 169.36 142.23 173.25 139.25 C 177.14 136.27 181.28 125.28 187.67 129.33 C 194.06 133.38 181.41 141.31 181.00 145.00
C 190.00 145.00 199.00 145.00 208.00 145.00
C 208.47 144.88 209.08 144.14 210.00 144.00
C 210.63 132.31 207.71 122.54 202.30 112.70 C 196.90 102.85 186.90 102.19 177.00 99.00 C 167.11 95.80 159.44 92.16 149.08 87.92 C 138.71 83.68 146.27 66.13 149.07 59.07 C 151.88 52.01 166.15 37.72 152.00 35.00
C 164.73 -3.87 83.62 -3.95 96.00 35.00
C 83.14 37.34 95.11 52.81 98.22 59.78 C 101.34 66.74 108.41 85.34 97.69 88.69 C 86.97 92.05 79.92 97.87 70.00 100.00 C 60.08 102.14 49.69 104.56 45.77 114.77 C 41.85 124.98 35.78 135.20 39.07 146.93 C 42.37 158.66 38.72 167.83 39.00 180.00 C 39.28 192.17 37.89 201.41 30.93 210.93 C 23.96 220.45 29.72 233.84 25.00 244.00
C 34.22 241.53 51.65 249.02 57.07 240.07 C 62.50 231.13 62.14 220.21 63.00 210.00 C 63.86 199.79 68.80 191.18 70.00 181.00 Z"/>
</g>
<g fill="#000000" fill-opacity="0.00" stroke="None">
<path d="
M 208.00 152.00 
C 207.65 150.77 207.48 146.15 208.00 145.00
C 199.00 145.00 190.00 145.00 181.00 145.00
C 181.41 141.31 194.06 133.38 187.67 129.33 C 181.28 125.28 177.14 136.27 173.25 139.25 C 169.36 142.23 161.84 149.35 167.25 153.75 C 172.65 158.15 174.45 161.30 179.00 166.00
C 182.52 165.96 185.51 164.05 189.00 164.00
C 187.10 159.93 180.77 157.99 181.00 153.00
C 189.32 156.30 201.55 152.90 208.00 152.00 Z"/>
</g>
<g fill="#FAFAFB" fill-opacity="0.86" stroke="None">
<path d="
M 208.00 145.00 
C 207.48 146.15 207.65 150.77 208.00 152.00
C 208.26 152.92 209.25 152.39 209.00 154.00
C 210.90 153.14 213.96 154.52 216.00 154.00
C 224.59 150.25 217.31 142.90 210.00 144.00
C 209.08 144.14 208.47 144.88 208.00 145.00 Z"/>
</g>
<g fill="#FDFDFD" fill-opacity="0.11" stroke="None">
<path d="
M 208.00 156.00 
C 208.35 156.32 215.46 154.23 216.00 154.00
C 213.96 154.52 210.90 153.14 209.00 154.00
C 208.98 154.14 208.11 155.44 208.00 156.00 Z"/>
</g>
<g fill="#FFFFFF" fill-opacity="0.42" stroke="None">
<path d="
M 70.00 181.00 
C 70.00 181.00 71.00 181.02 71.00 181.00
C 71.00 179.67 71.00 178.33 71.00 177.00
C 68.66 177.69 68.95 179.62 70.00 181.00 Z"/>
</g>
<g fill="#FFFFFF" fill-opacity="0.41" stroke="None">
<path d="
M 178.00 181.00 
C 178.04 181.22 178.84 181.66 179.00 182.00
C 180.94 181.22 179.61 178.57 180.00 177.00
C 177.61 176.54 177.73 179.44 178.00 181.00 Z"/>
</g>
</svg>