<svg xmlns="http://www.w3.org/2000/svg" xmlns:v="https://svgstorm.com"
viewBox = "0 0 512 512"
width="512"
height="512">
<g fill="None" fill-opacity="0.0" stroke="#000000" stroke-opacity="0.00" stroke-width="0.3"><path d="
M 0.00 512.00 
L 512.00 512.00
L 512.00 0.00
L 0.00 0.00
L 0.00 512.00
M 178.00 64.00 
C 177.78 64.57 176.05 63.66 177.27 62.25 C 178.49 60.83 180.00 61.00 180.00 61.00
C 191.01 52.74 198.96 38.77 213.00 35.00
C 210.90 32.59 215.12 31.19 217.00 31.00
C 216.76 32.88 214.45 32.46 214.00 34.00
C 220.84 28.49 230.55 28.65 239.01 26.01 C 247.47 23.37 261.08 24.81 270.00 25.00 C 278.92 25.19 287.33 30.56 295.23 32.77 C 303.13 34.98 310.19 43.07 316.00 42.00
C 319.75 49.33 326.99 53.65 332.75 61.25 C 338.51 68.85 342.94 75.83 346.92 85.08 C 350.91 94.32 353.25 105.29 354.00 116.00 C 354.75 126.71 352.87 140.71 350.22 150.22 C 347.58 159.74 340.49 169.02 342.00 175.00
C 330.38 184.10 322.93 196.88 308.30 205.30 C 293.68 213.73 274.85 220.90 256.99 220.99 C 239.14 221.08 219.99 214.28 205.25 205.75 C 190.51 197.21 182.64 184.32 171.00 175.00
C 172.53 168.02 165.73 161.47 163.22 152.78 C 160.71 144.09 158.80 132.89 159.00 123.00 C 159.20 113.11 159.96 101.92 162.98 92.98 C 166.00 84.03 171.04 77.69 172.00 69.00
C 174.23 73.07 175.61 65.44 178.00 64.00
M 158.00 111.00 
C 158.00 118.67 158.00 126.33 158.00 134.00
C 156.36 127.41 156.31 117.52 158.00 111.00
M 356.00 111.00 
C 356.00 118.67 356.00 126.33 356.00 134.00
C 354.36 127.41 354.32 117.52 356.00 111.00
M 199.00 228.00 
C 200.98 230.01 201.06 230.27 202.00 234.00
C 211.74 250.14 220.00 267.38 228.64 281.70 C 237.29 296.01 244.90 317.66 254.00 333.00
C 275.74 295.48 297.66 257.35 318.00 219.00
C 346.22 234.78 366.06 265.72 372.00 297.00
C 362.01 297.91 353.19 306.42 351.00 316.00
C 350.92 317.90 353.09 320.71 352.00 323.00
C 349.80 322.26 352.31 318.67 350.00 318.00
C 348.68 333.00 354.71 348.28 370.22 352.78 C 385.74 357.27 403.55 348.70 404.00 333.00
C 407.62 338.03 407.94 325.17 407.02 319.98 C 406.11 314.79 403.80 307.05 398.75 303.25 C 393.70 299.44 387.84 295.49 381.00 296.00
C 378.87 287.24 375.48 278.06 372.23 269.77 C 368.98 261.49 363.91 254.84 359.75 247.25 C 355.58 239.67 346.75 237.90 346.00 230.00
C 352.08 232.34 358.95 237.44 364.70 240.30 C 370.44 243.17 376.34 251.15 381.00 249.00
C 387.83 260.02 400.91 267.94 409.75 279.25 C 418.60 290.56 427.93 302.77 435.00 315.00
C 435.47 315.51 440.28 318.81 440.00 322.00
C 438.75 321.70 438.29 320.17 437.00 320.00
C 442.36 330.94 448.44 343.27 450.98 355.02 C 453.51 366.78 461.47 384.75 455.70 395.70 C 449.93 406.64 441.04 412.99 433.25 422.25 C 425.45 431.51 413.19 435.89 405.00 444.00
C 403.80 445.18 404.74 445.64 402.92 446.92 C 401.09 448.19 400.97 446.01 401.00 446.00
C 387.75 454.91 369.52 463.07 354.00 466.00
C 354.30 466.05 355.90 467.47 356.00 468.00
C 352.75 467.73 350.28 470.27 347.00 470.00
C 347.88 467.93 351.04 468.79 352.00 467.00
C 322.35 477.09 289.25 478.94 257.00 479.00 C 224.75 479.06 190.76 477.13 161.00 467.00
C 162.46 467.93 164.87 468.46 166.00 470.00
C 162.75 470.27 160.28 467.73 157.00 468.00
C 157.08 466.74 159.06 467.44 159.00 466.00
C 143.48 463.07 125.24 454.91 112.00 446.00
C 112.36 446.08 111.57 448.23 109.92 447.06 C 108.26 445.89 109.03 445.02 108.00 444.00
C 97.01 433.12 79.79 424.11 69.00 414.00
C 72.32 412.77 68.92 410.01 67.00 409.00
C 66.43 408.63 66.94 409.33 64.75 408.24 C 62.56 407.15 64.73 405.29 65.00 406.00
C 56.11 394.88 53.76 385.11 57.78 371.78 C 61.80 358.44 62.92 347.01 67.98 334.98 C 73.03 322.94 78.60 314.57 81.00 303.00
C 84.22 305.58 91.47 293.36 90.00 289.00
C 91.95 286.73 94.90 288.43 96.00 285.00
C 95.25 286.41 95.72 279.90 98.00 279.00
C 99.86 279.46 98.16 281.04 98.00 282.00
C 112.90 258.51 140.43 243.18 163.00 230.00
C 141.26 253.44 130.56 284.84 130.00 317.00
C 115.41 319.55 102.19 333.43 97.08 347.08 C 91.97 360.72 80.84 385.77 98.00 394.00
C 85.13 407.73 117.06 411.30 108.00 396.00
C 108.41 398.84 109.08 405.03 105.00 405.00
C 108.45 402.56 106.06 397.29 107.00 395.00
C 102.92 390.39 87.16 391.46 91.00 380.00 C 94.84 368.54 91.64 365.74 95.93 356.93 C 100.21 348.11 101.77 343.37 107.25 336.25 C 112.73 329.13 117.67 325.84 125.00 322.00
C 121.05 321.19 128.17 318.85 130.00 319.00
C 129.29 320.64 126.62 320.29 126.00 322.00
C 144.25 318.59 160.16 325.85 168.76 340.25 C 177.36 354.64 182.68 372.12 182.00 390.00
C 187.41 361.24 170.83 320.54 138.00 316.00
C 138.44 298.80 144.06 282.05 146.00 266.00
C 151.06 270.66 147.43 258.86 150.31 257.31 C 153.19 255.75 156.92 251.73 156.00 247.00
C 158.97 249.29 162.37 241.46 165.75 237.75 C 169.13 234.05 172.49 229.17 177.23 226.23 C 181.97 223.29 188.19 219.99 194.00 219.00
C 195.17 222.06 197.02 225.49 199.00 228.00
M 163.00 233.00 
C 163.74 233.74 162.18 232.18 163.00 233.00
M 381.00 304.00 
C 406.94 306.83 402.27 348.41 376.00 345.00 C 349.73 341.59 355.13 301.18 381.00 304.00
M 148.00 321.00 
C 142.76 318.81 136.88 318.77 131.00 319.00
C 135.71 317.43 144.37 316.63 148.00 321.00
M 227.00 479.00 
C 221.97 482.00 215.68 478.13 210.00 479.00
C 215.00 476.14 221.22 480.32 227.00 479.00
M 295.00 479.00 
C 292.90 481.08 288.85 479.50 286.00 480.00
C 288.10 477.92 292.15 479.50 295.00 479.00
M 244.00 480.00 
C 240.25 482.22 234.51 480.41 230.00 481.00
C 233.75 478.78 239.49 480.59 244.00 480.00
M 283.00 480.00 
C 279.25 482.22 273.51 480.41 269.00 481.00
C 272.75 478.78 278.49 480.59 283.00 480.00 Z"/>
</g>
<g fill="None" fill-opacity="0.0" stroke="#FEFEFE" stroke-opacity="0.98" stroke-width="0.3"><path d="
M 214.00 34.00 
C 212.57 35.80 214.24 34.67 213.00 35.00
C 198.96 38.77 191.01 52.74 180.00 61.00
C 178.78 62.92 179.14 62.57 178.00 64.00
C 175.61 65.44 174.23 73.07 172.00 69.00
C 171.04 77.69 166.00 84.03 162.98 92.98 C 159.96 101.92 159.20 113.11 159.00 123.00 C 158.80 132.89 160.71 144.09 163.22 152.78 C 165.73 161.47 172.53 168.02 171.00 175.00
C 182.64 184.32 190.51 197.21 205.25 205.75 C 219.99 214.28 239.14 221.08 256.99 220.99 C 274.85 220.90 293.68 213.73 308.30 205.30 C 322.93 196.88 330.38 184.10 342.00 175.00
C 340.49 169.02 347.58 159.74 350.22 150.22 C 352.87 140.71 354.75 126.71 354.00 116.00 C 353.25 105.29 350.91 94.32 346.92 85.08 C 342.94 75.83 338.51 68.85 332.75 61.25 C 326.99 53.65 319.75 49.33 316.00 42.00
C 310.19 43.07 303.13 34.98 295.23 32.77 C 287.33 30.56 278.92 25.19 270.00 25.00 C 261.08 24.81 247.47 23.37 239.01 26.01 C 230.55 28.65 220.84 28.49 214.00 34.00 Z"/>
</g>
<g fill="None" fill-opacity="0.0" stroke="#B6B6B6" stroke-opacity="0.09" stroke-width="0.3"><path d="
M 213.00 35.00 
C 214.24 34.67 212.57 35.80 214.00 34.00
C 214.45 32.46 216.76 32.88 217.00 31.00
C 215.12 31.19 210.90 32.59 213.00 35.00 Z"/>
</g>
<g fill="None" fill-opacity="0.0" stroke="#949494" stroke-opacity="0.09" stroke-width="0.3"><path d="
M 178.00 64.00 
C 179.14 62.57 178.78 62.92 180.00 61.00
C 180.00 61.00 178.49 60.83 177.27 62.25 C 176.05 63.66 177.78 64.57 178.00 64.00 Z"/>
</g>
<g fill="None" fill-opacity="0.0" stroke="#FFFFFF" stroke-opacity="0.00" stroke-width="0.3"><path d="
M 158.00 111.00 
C 156.31 117.52 156.36 127.41 158.00 134.00
C 158.00 126.33 158.00 118.67 158.00 111.00 Z"/>
</g>
<g fill="None" fill-opacity="0.0" stroke="#FFFFFF" stroke-opacity="0.00" stroke-width="0.3"><path d="
M 356.00 111.00 
C 354.32 117.52 354.36 127.41 356.00 134.00
C 356.00 126.33 356.00 118.67 356.00 111.00 Z"/>
</g>
<g fill="None" fill-opacity="0.0" stroke="#FEFEFE" stroke-opacity="0.98" stroke-width="0.3"><path d="
M 126.00 322.00 
C 125.52 322.09 125.00 322.00 125.00 322.00
C 117.67 325.84 112.73 329.13 107.25 336.25 C 101.77 343.37 100.21 348.11 95.93 356.93 C 91.64 365.74 94.84 368.54 91.00 380.00 C 87.16 391.46 102.92 390.39 107.00 395.00
C 107.23 395.26 107.77 395.72 108.00 396.00
C 117.06 411.30 85.13 407.73 98.00 394.00
C 80.84 385.77 91.97 360.72 97.08 347.08 C 102.19 333.43 115.41 319.55 130.00 317.00
C 130.56 284.84 141.26 253.44 163.00 230.00
C 140.43 243.18 112.90 258.51 98.00 282.00
C 97.50 284.54 97.42 283.60 96.00 285.00
C 94.90 288.43 91.95 286.73 90.00 289.00
C 91.47 293.36 84.22 305.58 81.00 303.00
C 78.60 314.57 73.03 322.94 67.98 334.98 C 62.92 347.01 61.80 358.44 57.78 371.78 C 53.76 385.11 56.11 394.88 65.00 406.00
C 65.90 407.12 65.82 407.39 67.00 409.00
C 68.92 410.01 72.32 412.77 69.00 414.00
C 79.79 424.11 97.01 433.12 108.00 444.00
C 108.76 444.43 110.28 444.84 112.00 446.00
C 125.24 454.91 143.48 463.07 159.00 466.00
C 160.52 466.29 159.93 466.32 161.00 467.00
C 190.76 477.13 224.75 479.06 257.00 479.00 C 289.25 478.94 322.35 477.09 352.00 467.00
C 352.88 466.44 352.72 466.24 354.00 466.00
C 369.52 463.07 387.75 454.91 401.00 446.00
C 402.87 444.74 403.96 444.60 405.00 444.00
C 413.19 435.89 425.45 431.51 433.25 422.25 C 441.04 412.99 449.93 406.64 455.70 395.70 C 461.47 384.75 453.51 366.78 450.98 355.02 C 448.44 343.27 442.36 330.94 437.00 320.00
C 436.20 318.38 435.76 316.52 435.00 315.00
C 427.93 302.77 418.60 290.56 409.75 279.25 C 400.91 267.94 387.83 260.02 381.00 249.00
C 376.34 251.15 370.44 243.17 364.70 240.30 C 358.95 237.44 352.08 232.34 346.00 230.00
C 346.75 237.90 355.58 239.67 359.75 247.25 C 363.91 254.84 368.98 261.49 372.23 269.77 C 375.48 278.06 378.87 287.24 381.00 296.00
C 387.84 295.49 393.70 299.44 398.75 303.25 C 403.80 307.05 406.11 314.79 407.02 319.98 C 407.94 325.17 407.62 338.03 404.00 333.00
C 403.55 348.70 385.74 357.27 370.22 352.78 C 354.71 348.28 348.68 333.00 350.00 318.00
C 350.23 315.34 349.90 317.95 351.00 316.00
C 353.19 306.42 362.01 297.91 372.00 297.00
C 366.06 265.72 346.22 234.78 318.00 219.00
C 297.66 257.35 275.74 295.48 254.00 333.00
C 244.90 317.66 237.29 296.01 228.64 281.70 C 220.00 267.38 211.74 250.14 202.00 234.00
C 201.26 232.77 200.19 230.48 199.00 228.00
C 197.02 225.49 195.17 222.06 194.00 219.00
C 188.19 219.99 181.97 223.29 177.23 226.23 C 172.49 229.17 169.13 234.05 165.75 237.75 C 162.37 241.46 158.97 249.29 156.00 247.00
C 156.92 251.73 153.19 255.75 150.31 257.31 C 147.43 258.86 151.06 270.66 146.00 266.00
C 144.06 282.05 138.44 298.80 138.00 316.00
C 170.83 320.54 187.41 361.24 182.00 390.00
C 182.68 372.12 177.36 354.64 168.76 340.25 C 160.16 325.85 144.25 318.59 126.00 322.00
M 338.00 395.00 
C 336.91 399.58 323.56 395.73 318.00 397.00
C 315.70 401.75 320.99 411.73 318.00 416.00
C 316.61 417.98 303.34 417.91 302.00 416.00
C 299.01 411.74 304.30 401.75 302.00 397.00
C 296.48 395.67 283.11 399.67 282.00 395.00
C 280.87 390.27 282.85 384.80 282.00 380.00
C 288.67 380.00 295.33 380.00 302.00 380.00
C 302.00 373.33 302.00 366.67 302.00 360.00
C 307.33 360.00 312.67 360.00 318.00 360.00
C 318.00 366.67 318.00 373.33 318.00 380.00
C 324.67 380.00 331.33 380.00 338.00 380.00
C 338.00 385.00 338.00 390.00 338.00 395.00
M 162.00 398.00 
C 161.91 395.31 161.10 397.74 163.00 396.00
C 166.14 393.13 169.69 391.90 174.00 394.00
C 175.33 392.07 177.67 390.42 180.00 390.00
C 178.81 391.71 177.35 394.12 175.00 394.00
C 182.45 405.91 159.70 413.00 162.00 398.00 Z"/>
</g>
<g fill="None" fill-opacity="0.0" stroke="#808080" stroke-opacity="0.05" stroke-width="0.3"><path d="
M 199.00 228.00 
C 200.19 230.48 201.26 232.77 202.00 234.00
C 201.06 230.27 200.98 230.01 199.00 228.00 Z"/>
</g>
<g fill="None" fill-opacity="0.0" stroke="#FFFFFF" stroke-opacity="0.00" stroke-width="0.3"><path d="
M 163.00 233.00 
C 162.18 232.18 163.74 233.74 163.00 233.00 Z"/>
</g>
<g fill="None" fill-opacity="0.0" stroke="#949494" stroke-opacity="0.06" stroke-width="0.3"><path d="
M 96.00 285.00 
C 97.42 283.60 97.50 284.54 98.00 282.00
C 98.16 281.04 99.86 279.46 98.00 279.00
C 95.72 279.90 95.25 286.41 96.00 285.00 Z"/>
</g>
<g fill="None" fill-opacity="0.0" stroke="#FFFFFF" stroke-opacity="0.93" stroke-width="0.3"><path d="
M 381.00 304.00 
C 355.13 301.18 349.73 341.59 376.00 345.00 C 402.27 348.41 406.94 306.83 381.00 304.00 Z"/>
</g>
<g fill="None" fill-opacity="0.0" stroke="#8C8C8C" stroke-opacity="0.00" stroke-width="0.3"><path d="
M 435.00 315.00 
C 435.76 316.52 436.20 318.38 437.00 320.00
C 438.29 320.17 438.75 321.70 440.00 322.00
C 440.28 318.81 435.47 315.51 435.00 315.00 Z"/>
</g>
<g fill="None" fill-opacity="0.0" stroke="#DADADA" stroke-opacity="0.09" stroke-width="0.3"><path d="
M 350.00 318.00 
C 352.31 318.67 349.80 322.26 352.00 323.00
C 353.09 320.71 350.92 317.90 351.00 316.00
C 349.90 317.95 350.23 315.34 350.00 318.00 Z"/>
</g>
<g fill="None" fill-opacity="0.0" stroke="#DCDCDC" stroke-opacity="0.00" stroke-width="0.3"><path d="
M 148.00 321.00 
C 144.37 316.63 135.71 317.43 131.00 319.00
C 136.88 318.77 142.76 318.81 148.00 321.00 Z"/>
</g>
<g fill="None" fill-opacity="0.0" stroke="#B6B6B6" stroke-opacity="0.00" stroke-width="0.3"><path d="
M 125.00 322.00 
C 125.00 322.00 125.52 322.09 126.00 322.00
C 126.62 320.29 129.29 320.64 130.00 319.00
C 128.17 318.85 121.05 321.19 125.00 322.00 Z"/>
</g>
<g fill="None" fill-opacity="0.0" stroke="#000000" stroke-opacity="0.00" stroke-width="0.3"><path d="
M 282.00 395.00 
C 285.54 393.24 300.75 394.42 302.00 397.00
C 304.30 401.75 299.01 411.74 302.00 416.00
C 306.81 414.37 313.21 414.39 318.00 416.00
C 320.99 411.73 315.70 401.75 318.00 397.00
C 319.24 394.43 334.46 393.25 338.00 395.00
C 338.00 390.00 338.00 385.00 338.00 380.00
C 331.33 380.00 324.67 380.00 318.00 380.00
C 318.00 373.33 318.00 366.67 318.00 360.00
C 312.67 360.00 307.33 360.00 302.00 360.00
C 302.00 366.67 302.00 373.33 302.00 380.00
C 295.33 380.00 288.67 380.00 282.00 380.00
C 282.85 384.80 280.87 390.27 282.00 395.00
M 317.00 361.00 
C 313.58 363.21 308.18 361.42 304.00 362.00
C 304.00 367.67 304.00 373.33 304.00 379.00
C 301.73 373.91 303.62 366.84 303.00 361.00
C 307.67 361.00 312.33 361.00 317.00 361.00
M 302.00 381.00 
C 296.58 383.28 289.18 381.37 283.00 382.00
C 288.42 379.72 295.82 381.63 302.00 381.00
M 337.00 381.00 
C 331.58 383.28 324.18 381.37 318.00 382.00
C 323.42 379.72 330.82 381.63 337.00 381.00
M 304.00 397.00 
C 304.00 402.67 304.00 408.33 304.00 414.00
C 302.38 409.41 302.30 401.52 304.00 397.00 Z"/>
</g>
<g fill="None" fill-opacity="0.0" stroke="#FFFFFF" stroke-opacity="0.00" stroke-width="0.3"><path d="
M 317.00 361.00 
C 312.33 361.00 307.67 361.00 303.00 361.00
C 303.62 366.84 301.73 373.91 304.00 379.00
C 304.00 373.33 304.00 367.67 304.00 362.00
C 308.18 361.42 313.58 363.21 317.00 361.00 Z"/>
</g>
<g fill="None" fill-opacity="0.0" stroke="#FFFFFF" stroke-opacity="0.01" stroke-width="0.3"><path d="
M 302.00 381.00 
C 295.82 381.63 288.42 379.72 283.00 382.00
C 289.18 381.37 296.58 383.28 302.00 381.00 Z"/>
</g>
<g fill="None" fill-opacity="0.0" stroke="#FFFFFF" stroke-opacity="0.01" stroke-width="0.3"><path d="
M 337.00 381.00 
C 330.82 381.63 323.42 379.72 318.00 382.00
C 324.18 381.37 331.58 383.28 337.00 381.00 Z"/>
</g>
<g fill="None" fill-opacity="0.0" stroke="#000000" stroke-opacity="0.00" stroke-width="0.3"><path d="
M 163.00 396.00 
C 166.22 396.07 162.92 399.66 164.00 402.00
C 162.02 401.53 164.11 398.40 162.00 398.00
C 159.70 413.00 182.45 405.91 175.00 394.00
C 177.35 394.12 178.81 391.71 180.00 390.00
C 177.67 390.42 175.33 392.07 174.00 394.00
C 169.69 391.90 166.14 393.13 163.00 396.00 Z"/>
</g>
<g fill="None" fill-opacity="0.0" stroke="#B3B3B3" stroke-opacity="0.00" stroke-width="0.3"><path d="
M 108.00 396.00 
C 107.77 395.72 107.23 395.26 107.00 395.00
C 106.06 397.29 108.45 402.56 105.00 405.00
C 109.08 405.03 108.41 398.84 108.00 396.00 Z"/>
</g>
<g fill="None" fill-opacity="0.0" stroke="#FFFFFF" stroke-opacity="0.39" stroke-width="0.3"><path d="
M 302.00 397.00 
C 300.75 394.42 285.54 393.24 282.00 395.00
C 283.11 399.67 296.48 395.67 302.00 397.00 Z"/>
</g>
<g fill="None" fill-opacity="0.0" stroke="#FFFFFF" stroke-opacity="0.39" stroke-width="0.3"><path d="
M 318.00 397.00 
C 323.56 395.73 336.91 399.58 338.00 395.00
C 334.46 393.25 319.24 394.43 318.00 397.00 Z"/>
</g>
<g fill="None" fill-opacity="0.0" stroke="#BDBDBD" stroke-opacity="0.08" stroke-width="0.3"><path d="
M 162.00 398.00 
C 164.11 398.40 162.02 401.53 164.00 402.00
C 162.92 399.66 166.22 396.07 163.00 396.00
C 161.10 397.74 161.91 395.31 162.00 398.00 Z"/>
</g>
<g fill="None" fill-opacity="0.0" stroke="#FFFFFF" stroke-opacity="0.00" stroke-width="0.3"><path d="
M 304.00 397.00 
C 302.30 401.52 302.38 409.41 304.00 414.00
C 304.00 408.33 304.00 402.67 304.00 397.00 Z"/>
</g>
<g fill="None" fill-opacity="0.0" stroke="#949494" stroke-opacity="0.08" stroke-width="0.3"><path d="
M 67.00 409.00 
C 65.82 407.39 65.90 407.12 65.00 406.00
C 64.73 405.29 62.56 407.15 64.75 408.24 C 66.94 409.33 66.43 408.63 67.00 409.00 Z"/>
</g>
<g fill="None" fill-opacity="0.0" stroke="#FFFFFF" stroke-opacity="0.37" stroke-width="0.3"><path d="
M 302.00 416.00 
C 303.34 417.91 316.61 417.98 318.00 416.00
C 313.21 414.39 306.81 414.37 302.00 416.00 Z"/>
</g>
<g fill="None" fill-opacity="0.0" stroke="#808080" stroke-opacity="0.08" stroke-width="0.3"><path d="
M 108.00 444.00 
C 109.03 445.02 108.26 445.89 109.92 447.06 C 111.57 448.23 112.36 446.08 112.00 446.00
C 110.28 444.84 108.76 444.43 108.00 444.00 Z"/>
</g>
<g fill="None" fill-opacity="0.0" stroke="#808080" stroke-opacity="0.07" stroke-width="0.3"><path d="
M 401.00 446.00 
C 400.97 446.01 401.09 448.19 402.92 446.92 C 404.74 445.64 403.80 445.18 405.00 444.00
C 403.96 444.60 402.87 444.74 401.00 446.00 Z"/>
</g>
<g fill="None" fill-opacity="0.0" stroke="#B3B3B3" stroke-opacity="0.01" stroke-width="0.3"><path d="
M 161.00 467.00 
C 159.93 466.32 160.52 466.29 159.00 466.00
C 159.06 467.44 157.08 466.74 157.00 468.00
C 160.28 467.73 162.75 470.27 166.00 470.00
C 164.87 468.46 162.46 467.93 161.00 467.00 Z"/>
</g>
<g fill="None" fill-opacity="0.0" stroke="#B3B3B3" stroke-opacity="0.01" stroke-width="0.3"><path d="
M 352.00 467.00 
C 351.04 468.79 347.88 467.93 347.00 470.00
C 350.28 470.27 352.75 467.73 356.00 468.00
C 355.90 467.47 354.30 466.05 354.00 466.00
C 352.72 466.24 352.88 466.44 352.00 467.00 Z"/>
</g>
<g fill="None" fill-opacity="0.0" stroke="#FFFFFF" stroke-opacity="0.01" stroke-width="0.3"><path d="
M 227.00 479.00 
C 221.22 480.32 215.00 476.14 210.00 479.00
C 215.68 478.13 221.97 482.00 227.00 479.00 Z"/>
</g>
<g fill="None" fill-opacity="0.0" stroke="#FFFFFF" stroke-opacity="0.01" stroke-width="0.3"><path d="
M 295.00 479.00 
C 292.15 479.50 288.10 477.92 286.00 480.00
C 288.85 479.50 292.90 481.08 295.00 479.00 Z"/>
</g>
<g fill="None" fill-opacity="0.0" stroke="#FFFFFF" stroke-opacity="0.00" stroke-width="0.3"><path d="
M 244.00 480.00 
C 239.49 480.59 233.75 478.78 230.00 481.00
C 234.51 480.41 240.25 482.22 244.00 480.00 Z"/>
</g>
<g fill="None" fill-opacity="0.0" stroke="#FFFFFF" stroke-opacity="0.00" stroke-width="0.3"><path d="
M 283.00 480.00 
C 278.49 480.59 272.75 478.78 269.00 481.00
C 273.51 480.41 279.25 482.22 283.00 480.00 Z"/>
</g>
<g fill="#000000" fill-opacity="0.00" stroke="None">
<path d="
M 0.00 512.00 
L 512.00 512.00
L 512.00 0.00
L 0.00 0.00
L 0.00 512.00
M 178.00 64.00 
C 177.78 64.57 176.05 63.66 177.27 62.25 C 178.49 60.83 180.00 61.00 180.00 61.00
C 191.01 52.74 198.96 38.77 213.00 35.00
C 210.90 32.59 215.12 31.19 217.00 31.00
C 216.76 32.88 214.45 32.46 214.00 34.00
C 220.84 28.49 230.55 28.65 239.01 26.01 C 247.47 23.37 261.08 24.81 270.00 25.00 C 278.92 25.19 287.33 30.56 295.23 32.77 C 303.13 34.98 310.19 43.07 316.00 42.00
C 319.75 49.33 326.99 53.65 332.75 61.25 C 338.51 68.85 342.94 75.83 346.92 85.08 C 350.91 94.32 353.25 105.29 354.00 116.00 C 354.75 126.71 352.87 140.71 350.22 150.22 C 347.58 159.74 340.49 169.02 342.00 175.00
C 330.38 184.10 322.93 196.88 308.30 205.30 C 293.68 213.73 274.85 220.90 256.99 220.99 C 239.14 221.08 219.99 214.28 205.25 205.75 C 190.51 197.21 182.64 184.32 171.00 175.00
C 172.53 168.02 165.73 161.47 163.22 152.78 C 160.71 144.09 158.80 132.89 159.00 123.00 C 159.20 113.11 159.96 101.92 162.98 92.98 C 166.00 84.03 171.04 77.69 172.00 69.00
C 174.23 73.07 175.61 65.44 178.00 64.00
M 158.00 111.00 
C 158.00 118.67 158.00 126.33 158.00 134.00
C 156.36 127.41 156.31 117.52 158.00 111.00
M 356.00 111.00 
C 356.00 118.67 356.00 126.33 356.00 134.00
C 354.36 127.41 354.32 117.52 356.00 111.00
M 199.00 228.00 
C 200.98 230.01 201.06 230.27 202.00 234.00
C 211.74 250.14 220.00 267.38 228.64 281.70 C 237.29 296.01 244.90 317.66 254.00 333.00
C 275.74 295.48 297.66 257.35 318.00 219.00
C 346.22 234.78 366.06 265.72 372.00 297.00
C 362.01 297.91 353.19 306.42 351.00 316.00
C 350.92 317.90 353.09 320.71 352.00 323.00
C 349.80 322.26 352.31 318.67 350.00 318.00
C 348.68 333.00 354.71 348.28 370.22 352.78 C 385.74 357.27 403.55 348.70 404.00 333.00
C 407.62 338.03 407.94 325.17 407.02 319.98 C 406.11 314.79 403.80 307.05 398.75 303.25 C 393.70 299.44 387.84 295.49 381.00 296.00
C 378.87 287.24 375.48 278.06 372.23 269.77 C 368.98 261.49 363.91 254.84 359.75 247.25 C 355.58 239.67 346.75 237.90 346.00 230.00
C 352.08 232.34 358.95 237.44 364.70 240.30 C 370.44 243.17 376.34 251.15 381.00 249.00
C 387.83 260.02 400.91 267.94 409.75 279.25 C 418.60 290.56 427.93 302.77 435.00 315.00
C 435.47 315.51 440.28 318.81 440.00 322.00
C 438.75 321.70 438.29 320.17 437.00 320.00
C 442.36 330.94 448.44 343.27 450.98 355.02 C 453.51 366.78 461.47 384.75 455.70 395.70 C 449.93 406.64 441.04 412.99 433.25 422.25 C 425.45 431.51 413.19 435.89 405.00 444.00
C 403.80 445.18 404.74 445.64 402.92 446.92 C 401.09 448.19 400.97 446.01 401.00 446.00
C 387.75 454.91 369.52 463.07 354.00 466.00
C 354.30 466.05 355.90 467.47 356.00 468.00
C 352.75 467.73 350.28 470.27 347.00 470.00
C 347.88 467.93 351.04 468.79 352.00 467.00
C 322.35 477.09 289.25 478.94 257.00 479.00 C 224.75 479.06 190.76 477.13 161.00 467.00
C 162.46 467.93 164.87 468.46 166.00 470.00
C 162.75 470.27 160.28 467.73 157.00 468.00
C 157.08 466.74 159.06 467.44 159.00 466.00
C 143.48 463.07 125.24 454.91 112.00 446.00
C 112.36 446.08 111.57 448.23 109.92 447.06 C 108.26 445.89 109.03 445.02 108.00 444.00
C 97.01 433.12 79.79 424.11 69.00 414.00
C 72.32 412.77 68.92 410.01 67.00 409.00
C 66.43 408.63 66.94 409.33 64.75 408.24 C 62.56 407.15 64.73 405.29 65.00 406.00
C 56.11 394.88 53.76 385.11 57.78 371.78 C 61.80 358.44 62.92 347.01 67.98 334.98 C 73.03 322.94 78.60 314.57 81.00 303.00
C 84.22 305.58 91.47 293.36 90.00 289.00
C 91.95 286.73 94.90 288.43 96.00 285.00
C 95.25 286.41 95.72 279.90 98.00 279.00
C 99.86 279.46 98.16 281.04 98.00 282.00
C 112.90 258.51 140.43 243.18 163.00 230.00
C 141.26 253.44 130.56 284.84 130.00 317.00
C 115.41 319.55 102.19 333.43 97.08 347.08 C 91.97 360.72 80.84 385.77 98.00 394.00
C 85.13 407.73 117.06 411.30 108.00 396.00
C 108.41 398.84 109.08 405.03 105.00 405.00
C 108.45 402.56 106.06 397.29 107.00 395.00
C 102.92 390.39 87.16 391.46 91.00 380.00 C 94.84 368.54 91.64 365.74 95.93 356.93 C 100.21 348.11 101.77 343.37 107.25 336.25 C 112.73 329.13 117.67 325.84 125.00 322.00
C 121.05 321.19 128.17 318.85 130.00 319.00
C 129.29 320.64 126.62 320.29 126.00 322.00
C 144.25 318.59 160.16 325.85 168.76 340.25 C 177.36 354.64 182.68 372.12 182.00 390.00
C 187.41 361.24 170.83 320.54 138.00 316.00
C 138.44 298.80 144.06 282.05 146.00 266.00
C 151.06 270.66 147.43 258.86 150.31 257.31 C 153.19 255.75 156.92 251.73 156.00 247.00
C 158.97 249.29 162.37 241.46 165.75 237.75 C 169.13 234.05 172.49 229.17 177.23 226.23 C 181.97 223.29 188.19 219.99 194.00 219.00
C 195.17 222.06 197.02 225.49 199.00 228.00
M 163.00 233.00 
C 163.74 233.74 162.18 232.18 163.00 233.00
M 381.00 304.00 
C 406.94 306.83 402.27 348.41 376.00 345.00 C 349.73 341.59 355.13 301.18 381.00 304.00
M 148.00 321.00 
C 142.76 318.81 136.88 318.77 131.00 319.00
C 135.71 317.43 144.37 316.63 148.00 321.00
M 227.00 479.00 
C 221.97 482.00 215.68 478.13 210.00 479.00
C 215.00 476.14 221.22 480.32 227.00 479.00
M 295.00 479.00 
C 292.90 481.08 288.85 479.50 286.00 480.00
C 288.10 477.92 292.15 479.50 295.00 479.00
M 244.00 480.00 
C 240.25 482.22 234.51 480.41 230.00 481.00
C 233.75 478.78 239.49 480.59 244.00 480.00
M 283.00 480.00 
C 279.25 482.22 273.51 480.41 269.00 481.00
C 272.75 478.78 278.49 480.59 283.00 480.00 Z"/>
</g>
<g fill="#FEFEFE" fill-opacity="0.98" stroke="None">
<path d="
M 214.00 34.00 
C 212.57 35.80 214.24 34.67 213.00 35.00
C 198.96 38.77 191.01 52.74 180.00 61.00
C 178.78 62.92 179.14 62.57 178.00 64.00
C 175.61 65.44 174.23 73.07 172.00 69.00
C 171.04 77.69 166.00 84.03 162.98 92.98 C 159.96 101.92 159.20 113.11 159.00 123.00 C 158.80 132.89 160.71 144.09 163.22 152.78 C 165.73 161.47 172.53 168.02 171.00 175.00
C 182.64 184.32 190.51 197.21 205.25 205.75 C 219.99 214.28 239.14 221.08 256.99 220.99 C 274.85 220.90 293.68 213.73 308.30 205.30 C 322.93 196.88 330.38 184.10 342.00 175.00
C 340.49 169.02 347.58 159.74 350.22 150.22 C 352.87 140.71 354.75 126.71 354.00 116.00 C 353.25 105.29 350.91 94.32 346.92 85.08 C 342.94 75.83 338.51 68.85 332.75 61.25 C 326.99 53.65 319.75 49.33 316.00 42.00
C 310.19 43.07 303.13 34.98 295.23 32.77 C 287.33 30.56 278.92 25.19 270.00 25.00 C 261.08 24.81 247.47 23.37 239.01 26.01 C 230.55 28.65 220.84 28.49 214.00 34.00 Z"/>
</g>
<g fill="#B6B6B6" fill-opacity="0.09" stroke="None">
<path d="
M 213.00 35.00 
C 214.24 34.67 212.57 35.80 214.00 34.00
C 214.45 32.46 216.76 32.88 217.00 31.00
C 215.12 31.19 210.90 32.59 213.00 35.00 Z"/>
</g>
<g fill="#949494" fill-opacity="0.09" stroke="None">
<path d="
M 178.00 64.00 
C 179.14 62.57 178.78 62.92 180.00 61.00
C 180.00 61.00 178.49 60.83 177.27 62.25 C 176.05 63.66 177.78 64.57 178.00 64.00 Z"/>
</g>
<g fill="#FFFFFF" fill-opacity="0.00" stroke="None">
<path d="
M 158.00 111.00 
C 156.31 117.52 156.36 127.41 158.00 134.00
C 158.00 126.33 158.00 118.67 158.00 111.00 Z"/>
</g>
<g fill="#FFFFFF" fill-opacity="0.00" stroke="None">
<path d="
M 356.00 111.00 
C 354.32 117.52 354.36 127.41 356.00 134.00
C 356.00 126.33 356.00 118.67 356.00 111.00 Z"/>
</g>
<g fill="#FEFEFE" fill-opacity="0.98" stroke="None">
<path d="
M 126.00 322.00 
C 125.52 322.09 125.00 322.00 125.00 322.00
C 117.67 325.84 112.73 329.13 107.25 336.25 C 101.77 343.37 100.21 348.11 95.93 356.93 C 91.64 365.74 94.84 368.54 91.00 380.00 C 87.16 391.46 102.92 390.39 107.00 395.00
C 107.23 395.26 107.77 395.72 108.00 396.00
C 117.06 411.30 85.13 407.73 98.00 394.00
C 80.84 385.77 91.97 360.72 97.08 347.08 C 102.19 333.43 115.41 319.55 130.00 317.00
C 130.56 284.84 141.26 253.44 163.00 230.00
C 140.43 243.18 112.90 258.51 98.00 282.00
C 97.50 284.54 97.42 283.60 96.00 285.00
C 94.90 288.43 91.95 286.73 90.00 289.00
C 91.47 293.36 84.22 305.58 81.00 303.00
C 78.60 314.57 73.03 322.94 67.98 334.98 C 62.92 347.01 61.80 358.44 57.78 371.78 C 53.76 385.11 56.11 394.88 65.00 406.00
C 65.90 407.12 65.82 407.39 67.00 409.00
C 68.92 410.01 72.32 412.77 69.00 414.00
C 79.79 424.11 97.01 433.12 108.00 444.00
C 108.76 444.43 110.28 444.84 112.00 446.00
C 125.24 454.91 143.48 463.07 159.00 466.00
C 160.52 466.29 159.93 466.32 161.00 467.00
C 190.76 477.13 224.75 479.06 257.00 479.00 C 289.25 478.94 322.35 477.09 352.00 467.00
C 352.88 466.44 352.72 466.24 354.00 466.00
C 369.52 463.07 387.75 454.91 401.00 446.00
C 402.87 444.74 403.96 444.60 405.00 444.00
C 413.19 435.89 425.45 431.51 433.25 422.25 C 441.04 412.99 449.93 406.64 455.70 395.70 C 461.47 384.75 453.51 366.78 450.98 355.02 C 448.44 343.27 442.36 330.94 437.00 320.00
C 436.20 318.38 435.76 316.52 435.00 315.00
C 427.93 302.77 418.60 290.56 409.75 279.25 C 400.91 267.94 387.83 260.02 381.00 249.00
C 376.34 251.15 370.44 243.17 364.70 240.30 C 358.95 237.44 352.08 232.34 346.00 230.00
C 346.75 237.90 355.58 239.67 359.75 247.25 C 363.91 254.84 368.98 261.49 372.23 269.77 C 375.48 278.06 378.87 287.24 381.00 296.00
C 387.84 295.49 393.70 299.44 398.75 303.25 C 403.80 307.05 406.11 314.79 407.02 319.98 C 407.94 325.17 407.62 338.03 404.00 333.00
C 403.55 348.70 385.74 357.27 370.22 352.78 C 354.71 348.28 348.68 333.00 350.00 318.00
C 350.23 315.34 349.90 317.95 351.00 316.00
C 353.19 306.42 362.01 297.91 372.00 297.00
C 366.06 265.72 346.22 234.78 318.00 219.00
C 297.66 257.35 275.74 295.48 254.00 333.00
C 244.90 317.66 237.29 296.01 228.64 281.70 C 220.00 267.38 211.74 250.14 202.00 234.00
C 201.26 232.77 200.19 230.48 199.00 228.00
C 197.02 225.49 195.17 222.06 194.00 219.00
C 188.19 219.99 181.97 223.29 177.23 226.23 C 172.49 229.17 169.13 234.05 165.75 237.75 C 162.37 241.46 158.97 249.29 156.00 247.00
C 156.92 251.73 153.19 255.75 150.31 257.31 C 147.43 258.86 151.06 270.66 146.00 266.00
C 144.06 282.05 138.44 298.80 138.00 316.00
C 170.83 320.54 187.41 361.24 182.00 390.00
C 182.68 372.12 177.36 354.64 168.76 340.25 C 160.16 325.85 144.25 318.59 126.00 322.00
M 338.00 395.00 
C 336.91 399.58 323.56 395.73 318.00 397.00
C 315.70 401.75 320.99 411.73 318.00 416.00
C 316.61 417.98 303.34 417.91 302.00 416.00
C 299.01 411.74 304.30 401.75 302.00 397.00
C 296.48 395.67 283.11 399.67 282.00 395.00
C 280.87 390.27 282.85 384.80 282.00 380.00
C 288.67 380.00 295.33 380.00 302.00 380.00
C 302.00 373.33 302.00 366.67 302.00 360.00
C 307.33 360.00 312.67 360.00 318.00 360.00
C 318.00 366.67 318.00 373.33 318.00 380.00
C 324.67 380.00 331.33 380.00 338.00 380.00
C 338.00 385.00 338.00 390.00 338.00 395.00
M 162.00 398.00 
C 161.91 395.31 161.10 397.74 163.00 396.00
C 166.14 393.13 169.69 391.90 174.00 394.00
C 175.33 392.07 177.67 390.42 180.00 390.00
C 178.81 391.71 177.35 394.12 175.00 394.00
C 182.45 405.91 159.70 413.00 162.00 398.00 Z"/>
</g>
<g fill="#808080" fill-opacity="0.05" stroke="None">
<path d="
M 199.00 228.00 
C 200.19 230.48 201.26 232.77 202.00 234.00
C 201.06 230.27 200.98 230.01 199.00 228.00 Z"/>
</g>
<g fill="#FFFFFF" fill-opacity="0.00" stroke="None">
<path d="
M 163.00 233.00 
C 162.18 232.18 163.74 233.74 163.00 233.00 Z"/>
</g>
<g fill="#949494" fill-opacity="0.06" stroke="None">
<path d="
M 96.00 285.00 
C 97.42 283.60 97.50 284.54 98.00 282.00
C 98.16 281.04 99.86 279.46 98.00 279.00
C 95.72 279.90 95.25 286.41 96.00 285.00 Z"/>
</g>
<g fill="#FFFFFF" fill-opacity="0.93" stroke="None">
<path d="
M 381.00 304.00 
C 355.13 301.18 349.73 341.59 376.00 345.00 C 402.27 348.41 406.94 306.83 381.00 304.00 Z"/>
</g>
<g fill="#8C8C8C" fill-opacity="0.00" stroke="None">
<path d="
M 435.00 315.00 
C 435.76 316.52 436.20 318.38 437.00 320.00
C 438.29 320.17 438.75 321.70 440.00 322.00
C 440.28 318.81 435.47 315.51 435.00 315.00 Z"/>
</g>
<g fill="#DADADA" fill-opacity="0.09" stroke="None">
<path d="
M 350.00 318.00 
C 352.31 318.67 349.80 322.26 352.00 323.00
C 353.09 320.71 350.92 317.90 351.00 316.00
C 349.90 317.95 350.23 315.34 350.00 318.00 Z"/>
</g>
<g fill="#DCDCDC" fill-opacity="0.00" stroke="None">
<path d="
M 148.00 321.00 
C 144.37 316.63 135.71 317.43 131.00 319.00
C 136.88 318.77 142.76 318.81 148.00 321.00 Z"/>
</g>
<g fill="#B6B6B6" fill-opacity="0.00" stroke="None">
<path d="
M 125.00 322.00 
C 125.00 322.00 125.52 322.09 126.00 322.00
C 126.62 320.29 129.29 320.64 130.00 319.00
C 128.17 318.85 121.05 321.19 125.00 322.00 Z"/>
</g>
<g fill="#000000" fill-opacity="0.00" stroke="None">
<path d="
M 282.00 395.00 
C 285.54 393.24 300.75 394.42 302.00 397.00
C 304.30 401.75 299.01 411.74 302.00 416.00
C 306.81 414.37 313.21 414.39 318.00 416.00
C 320.99 411.73 315.70 401.75 318.00 397.00
C 319.24 394.43 334.46 393.25 338.00 395.00
C 338.00 390.00 338.00 385.00 338.00 380.00
C 331.33 380.00 324.67 380.00 318.00 380.00
C 318.00 373.33 318.00 366.67 318.00 360.00
C 312.67 360.00 307.33 360.00 302.00 360.00
C 302.00 366.67 302.00 373.33 302.00 380.00
C 295.33 380.00 288.67 380.00 282.00 380.00
C 282.85 384.80 280.87 390.27 282.00 395.00
M 317.00 361.00 
C 313.58 363.21 308.18 361.42 304.00 362.00
C 304.00 367.67 304.00 373.33 304.00 379.00
C 301.73 373.91 303.62 366.84 303.00 361.00
C 307.67 361.00 312.33 361.00 317.00 361.00
M 302.00 381.00 
C 296.58 383.28 289.18 381.37 283.00 382.00
C 288.42 379.72 295.82 381.63 302.00 381.00
M 337.00 381.00 
C 331.58 383.28 324.18 381.37 318.00 382.00
C 323.42 379.72 330.82 381.63 337.00 381.00
M 304.00 397.00 
C 304.00 402.67 304.00 408.33 304.00 414.00
C 302.38 409.41 302.30 401.52 304.00 397.00 Z"/>
</g>
<g fill="#FFFFFF" fill-opacity="0.00" stroke="None">
<path d="
M 317.00 361.00 
C 312.33 361.00 307.67 361.00 303.00 361.00
C 303.62 366.84 301.73 373.91 304.00 379.00
C 304.00 373.33 304.00 367.67 304.00 362.00
C 308.18 361.42 313.58 363.21 317.00 361.00 Z"/>
</g>
<g fill="#FFFFFF" fill-opacity="0.01" stroke="None">
<path d="
M 302.00 381.00 
C 295.82 381.63 288.42 379.72 283.00 382.00
C 289.18 381.37 296.58 383.28 302.00 381.00 Z"/>
</g>
<g fill="#FFFFFF" fill-opacity="0.01" stroke="None">
<path d="
M 337.00 381.00 
C 330.82 381.63 323.42 379.72 318.00 382.00
C 324.18 381.37 331.58 383.28 337.00 381.00 Z"/>
</g>
<g fill="#000000" fill-opacity="0.00" stroke="None">
<path d="
M 163.00 396.00 
C 166.22 396.07 162.92 399.66 164.00 402.00
C 162.02 401.53 164.11 398.40 162.00 398.00
C 159.70 413.00 182.45 405.91 175.00 394.00
C 177.35 394.12 178.81 391.71 180.00 390.00
C 177.67 390.42 175.33 392.07 174.00 394.00
C 169.69 391.90 166.14 393.13 163.00 396.00 Z"/>
</g>
<g fill="#B3B3B3" fill-opacity="0.00" stroke="None">
<path d="
M 108.00 396.00 
C 107.77 395.72 107.23 395.26 107.00 395.00
C 106.06 397.29 108.45 402.56 105.00 405.00
C 109.08 405.03 108.41 398.84 108.00 396.00 Z"/>
</g>
<g fill="#FFFFFF" fill-opacity="0.39" stroke="None">
<path d="
M 302.00 397.00 
C 300.75 394.42 285.54 393.24 282.00 395.00
C 283.11 399.67 296.48 395.67 302.00 397.00 Z"/>
</g>
<g fill="#FFFFFF" fill-opacity="0.39" stroke="None">
<path d="
M 318.00 397.00 
C 323.56 395.73 336.91 399.58 338.00 395.00
C 334.46 393.25 319.24 394.43 318.00 397.00 Z"/>
</g>
<g fill="#BDBDBD" fill-opacity="0.08" stroke="None">
<path d="
M 162.00 398.00 
C 164.11 398.40 162.02 401.53 164.00 402.00
C 162.92 399.66 166.22 396.07 163.00 396.00
C 161.10 397.74 161.91 395.31 162.00 398.00 Z"/>
</g>
<g fill="#FFFFFF" fill-opacity="0.00" stroke="None">
<path d="
M 304.00 397.00 
C 302.30 401.52 302.38 409.41 304.00 414.00
C 304.00 408.33 304.00 402.67 304.00 397.00 Z"/>
</g>
<g fill="#949494" fill-opacity="0.08" stroke="None">
<path d="
M 67.00 409.00 
C 65.82 407.39 65.90 407.12 65.00 406.00
C 64.73 405.29 62.56 407.15 64.75 408.24 C 66.94 409.33 66.43 408.63 67.00 409.00 Z"/>
</g>
<g fill="#FFFFFF" fill-opacity="0.37" stroke="None">
<path d="
M 302.00 416.00 
C 303.34 417.91 316.61 417.98 318.00 416.00
C 313.21 414.39 306.81 414.37 302.00 416.00 Z"/>
</g>
<g fill="#808080" fill-opacity="0.08" stroke="None">
<path d="
M 108.00 444.00 
C 109.03 445.02 108.26 445.89 109.92 447.06 C 111.57 448.23 112.36 446.08 112.00 446.00
C 110.28 444.84 108.76 444.43 108.00 444.00 Z"/>
</g>
<g fill="#808080" fill-opacity="0.07" stroke="None">
<path d="
M 401.00 446.00 
C 400.97 446.01 401.09 448.19 402.92 446.92 C 404.74 445.64 403.80 445.18 405.00 444.00
C 403.96 444.60 402.87 444.74 401.00 446.00 Z"/>
</g>
<g fill="#B3B3B3" fill-opacity="0.01" stroke="None">
<path d="
M 161.00 467.00 
C 159.93 466.32 160.52 466.29 159.00 466.00
C 159.06 467.44 157.08 466.74 157.00 468.00
C 160.28 467.73 162.75 470.27 166.00 470.00
C 164.87 468.46 162.46 467.93 161.00 467.00 Z"/>
</g>
<g fill="#B3B3B3" fill-opacity="0.01" stroke="None">
<path d="
M 352.00 467.00 
C 351.04 468.79 347.88 467.93 347.00 470.00
C 350.28 470.27 352.75 467.73 356.00 468.00
C 355.90 467.47 354.30 466.05 354.00 466.00
C 352.72 466.24 352.88 466.44 352.00 467.00 Z"/>
</g>
<g fill="#FFFFFF" fill-opacity="0.01" stroke="None">
<path d="
M 227.00 479.00 
C 221.22 480.32 215.00 476.14 210.00 479.00
C 215.68 478.13 221.97 482.00 227.00 479.00 Z"/>
</g>
<g fill="#FFFFFF" fill-opacity="0.01" stroke="None">
<path d="
M 295.00 479.00 
C 292.15 479.50 288.10 477.92 286.00 480.00
C 288.85 479.50 292.90 481.08 295.00 479.00 Z"/>
</g>
<g fill="#FFFFFF" fill-opacity="0.00" stroke="None">
<path d="
M 244.00 480.00 
C 239.49 480.59 233.75 478.78 230.00 481.00
C 234.51 480.41 240.25 482.22 244.00 480.00 Z"/>
</g>
<g fill="#FFFFFF" fill-opacity="0.00" stroke="None">
<path d="
M 283.00 480.00 
C 278.49 480.59 272.75 478.78 269.00 481.00
C 273.51 480.41 279.25 482.22 283.00 480.00 Z"/>
</g>
</svg>