<svg xmlns="http://www.w3.org/2000/svg" xmlns:v="https://svgstorm.com"
viewBox = "0 0 256 256"
width="256"
height="256">
<g fill="None" fill-opacity="0.0" stroke="#000000" stroke-opacity="0.00" stroke-width="0.3"><path d="
M 0.00 256.00 
L 256.00 256.00
L 256.00 0.00
L 0.00 0.00
L 0.00 256.00
M 127.00 7.00 
C 125.61 15.72 125.19 23.89 125.00 33.00 C 124.81 42.11 125.28 52.91 125.00 62.00 C 124.72 71.09 123.13 80.08 123.02 89.02 C 122.92 97.97 119.68 103.53 118.02 112.02 C 116.37 120.52 119.32 131.04 119.33 139.67 C 119.34 148.30 120.73 158.30 119.00 167.00 C 117.27 175.70 119.08 185.15 118.00 194.00 C 116.92 202.85 123.05 210.87 120.02 219.02 C 117.00 227.18 122.66 237.32 119.00 243.00
C 115.24 248.62 108.98 241.86 103.78 243.78 C 98.58 245.70 91.98 241.53 87.00 241.00
C 92.27 233.59 96.34 226.68 96.78 216.78 C 97.22 206.88 94.34 198.44 91.22 188.78 C 88.11 179.12 86.38 170.47 83.22 160.78 C 80.07 151.09 78.09 138.67 79.00 128.00 C 79.91 117.33 83.55 108.44 84.93 97.93 C 86.31 87.41 85.61 76.20 82.67 66.33 C 79.73 56.46 77.57 47.92 75.02 37.98 C 72.48 28.03 70.46 17.30 69.00 7.00
C 88.33 7.00 107.67 7.00 127.00 7.00
M 139.00 188.00 
C 138.91 184.83 138.08 179.88 138.00 176.00
C 137.43 147.51 138.51 121.06 133.22 93.78 C 127.93 66.50 134.62 34.56 130.00 7.00
C 149.00 7.00 168.00 7.00 187.00 7.00
C 186.59 15.05 184.02 22.86 182.67 30.67 C 181.33 38.49 178.51 45.22 177.02 53.02 C 175.54 60.83 172.22 67.15 171.22 75.22 C 170.22 83.29 170.70 94.02 172.00 102.00 C 173.29 109.99 175.28 116.53 176.33 124.67 C 177.38 132.81 177.32 142.52 175.22 150.22 C 173.13 157.93 171.45 164.76 169.22 172.22 C 167.00 179.69 165.49 186.68 163.07 194.07 C 160.66 201.46 158.34 208.17 159.32 215.68 C 160.30 223.19 159.24 230.21 166.70 235.30 C 174.16 240.39 157.73 246.79 152.33 243.67 C 146.93 240.55 133.01 253.27 135.78 237.78 C 138.55 222.29 135.01 204.23 139.00 188.00
M 202.00 96.00 
C 212.29 94.41 219.39 98.13 230.00 96.00 C 240.61 93.87 243.09 107.25 232.00 107.00 C 220.90 106.75 213.74 107.19 203.00 107.00
C 208.66 108.92 213.00 123.50 204.97 122.97 C 196.94 122.45 197.33 112.90 190.25 109.75 C 183.16 106.61 183.13 96.47 189.92 92.92 C 196.71 89.37 196.22 79.97 205.01 80.01 C 213.80 80.05 207.74 93.34 202.00 96.00 Z"/>
</g>
<g fill="None" fill-opacity="0.0" stroke="#FFFFFF" stroke-opacity="0.96" stroke-width="0.3"><path d="
M 127.00 7.00 
C 107.67 7.00 88.33 7.00 69.00 7.00
C 70.46 17.30 72.48 28.03 75.02 37.98 C 77.57 47.92 79.73 56.46 82.67 66.33 C 85.61 76.20 86.31 87.41 84.93 97.93 C 83.55 108.44 79.91 117.33 79.00 128.00 C 78.09 138.67 80.07 151.09 83.22 160.78 C 86.38 170.47 88.11 179.12 91.22 188.78 C 94.34 198.44 97.22 206.88 96.78 216.78 C 96.34 226.68 92.27 233.59 87.00 241.00
C 91.98 241.53 98.58 245.70 103.78 243.78 C 108.98 241.86 115.24 248.62 119.00 243.00
C 122.66 237.32 117.00 227.18 120.02 219.02 C 123.05 210.87 116.92 202.85 118.00 194.00 C 119.08 185.15 117.27 175.70 119.00 167.00 C 120.73 158.30 119.34 148.30 119.33 139.67 C 119.32 131.04 116.37 120.52 118.02 112.02 C 119.68 103.53 122.92 97.97 123.02 89.02 C 123.13 80.08 124.72 71.09 125.00 62.00 C 125.28 52.91 124.81 42.11 125.00 33.00 C 125.19 23.89 125.61 15.72 127.00 7.00 Z"/>
</g>
<g fill="None" fill-opacity="0.0" stroke="#FFFFFF" stroke-opacity="0.96" stroke-width="0.3"><path d="
M 138.00 176.00 
C 138.82 179.42 139.92 182.78 139.00 188.00
C 135.01 204.23 138.55 222.29 135.78 237.78 C 133.01 253.27 146.93 240.55 152.33 243.67 C 157.73 246.79 174.16 240.39 166.70 235.30 C 159.24 230.21 160.30 223.19 159.32 215.68 C 158.34 208.17 160.66 201.46 163.07 194.07 C 165.49 186.68 167.00 179.69 169.22 172.22 C 171.45 164.76 173.13 157.93 175.22 150.22 C 177.32 142.52 177.38 132.81 176.33 124.67 C 175.28 116.53 173.29 109.99 172.00 102.00 C 170.70 94.02 170.22 83.29 171.22 75.22 C 172.22 67.15 175.54 60.83 177.02 53.02 C 178.51 45.22 181.33 38.49 182.67 30.67 C 184.02 22.86 186.59 15.05 187.00 7.00
C 168.00 7.00 149.00 7.00 130.00 7.00
C 134.62 34.56 127.93 66.50 133.22 93.78 C 138.51 121.06 137.43 147.51 138.00 176.00 Z"/>
</g>
<g fill="None" fill-opacity="0.0" stroke="#FEFEFE" stroke-opacity="0.89" stroke-width="0.3"><path d="
M 202.00 96.00 
C 207.74 93.34 213.80 80.05 205.01 80.01 C 196.22 79.97 196.71 89.37 189.92 92.92 C 183.13 96.47 183.16 106.61 190.25 109.75 C 197.33 112.90 196.94 122.45 204.97 122.97 C 213.00 123.50 208.66 108.92 203.00 107.00
C 213.74 107.19 220.90 106.75 232.00 107.00 C 243.09 107.25 240.61 93.87 230.00 96.00 C 219.39 98.13 212.29 94.41 202.00 96.00 Z"/>
</g>
<g fill="None" fill-opacity="0.0" stroke="#FFFFFF" stroke-opacity="0.44" stroke-width="0.3"><path d="
M 139.00 188.00 
C 139.92 182.78 138.82 179.42 138.00 176.00
C 138.08 179.88 138.91 184.83 139.00 188.00 Z"/>
</g>
<g fill="#000000" fill-opacity="0.00" stroke="None">
<path d="
M 0.00 256.00 
L 256.00 256.00
L 256.00 0.00
L 0.00 0.00
L 0.00 256.00
M 127.00 7.00 
C 125.61 15.72 125.19 23.89 125.00 33.00 C 124.81 42.11 125.28 52.91 125.00 62.00 C 124.72 71.09 123.13 80.08 123.02 89.02 C 122.92 97.97 119.68 103.53 118.02 112.02 C 116.37 120.52 119.32 131.04 119.33 139.67 C 119.34 148.30 120.73 158.30 119.00 167.00 C 117.27 175.70 119.08 185.15 118.00 194.00 C 116.92 202.85 123.05 210.87 120.02 219.02 C 117.00 227.18 122.66 237.32 119.00 243.00
C 115.24 248.62 108.98 241.86 103.78 243.78 C 98.58 245.70 91.98 241.53 87.00 241.00
C 92.27 233.59 96.34 226.68 96.78 216.78 C 97.22 206.88 94.34 198.44 91.22 188.78 C 88.11 179.12 86.38 170.47 83.22 160.78 C 80.07 151.09 78.09 138.67 79.00 128.00 C 79.91 117.33 83.55 108.44 84.93 97.93 C 86.31 87.41 85.61 76.20 82.67 66.33 C 79.73 56.46 77.57 47.92 75.02 37.98 C 72.48 28.03 70.46 17.30 69.00 7.00
C 88.33 7.00 107.67 7.00 127.00 7.00
M 139.00 188.00 
C 138.91 184.83 138.08 179.88 138.00 176.00
C 137.43 147.51 138.51 121.06 133.22 93.78 C 127.93 66.50 134.62 34.56 130.00 7.00
C 149.00 7.00 168.00 7.00 187.00 7.00
C 186.59 15.05 184.02 22.86 182.67 30.67 C 181.33 38.49 178.51 45.22 177.02 53.02 C 175.54 60.83 172.22 67.15 171.22 75.22 C 170.22 83.29 170.70 94.02 172.00 102.00 C 173.29 109.99 175.28 116.53 176.33 124.67 C 177.38 132.81 177.32 142.52 175.22 150.22 C 173.13 157.93 171.45 164.76 169.22 172.22 C 167.00 179.69 165.49 186.68 163.07 194.07 C 160.66 201.46 158.34 208.17 159.32 215.68 C 160.30 223.19 159.24 230.21 166.70 235.30 C 174.16 240.39 157.73 246.79 152.33 243.67 C 146.93 240.55 133.01 253.27 135.78 237.78 C 138.55 222.29 135.01 204.23 139.00 188.00
M 202.00 96.00 
C 212.29 94.41 219.39 98.13 230.00 96.00 C 240.61 93.87 243.09 107.25 232.00 107.00 C 220.90 106.75 213.74 107.19 203.00 107.00
C 208.66 108.92 213.00 123.50 204.97 122.97 C 196.94 122.45 197.33 112.90 190.25 109.75 C 183.16 106.61 183.13 96.47 189.92 92.92 C 196.71 89.37 196.22 79.97 205.01 80.01 C 213.80 80.05 207.74 93.34 202.00 96.00 Z"/>
</g>
<g fill="#FFFFFF" fill-opacity="0.96" stroke="None">
<path d="
M 127.00 7.00 
C 107.67 7.00 88.33 7.00 69.00 7.00
C 70.46 17.30 72.48 28.03 75.02 37.98 C 77.57 47.92 79.73 56.46 82.67 66.33 C 85.61 76.20 86.31 87.41 84.93 97.93 C 83.55 108.44 79.91 117.33 79.00 128.00 C 78.09 138.67 80.07 151.09 83.22 160.78 C 86.38 170.47 88.11 179.12 91.22 188.78 C 94.34 198.44 97.22 206.88 96.78 216.78 C 96.34 226.68 92.27 233.59 87.00 241.00
C 91.98 241.53 98.58 245.70 103.78 243.78 C 108.98 241.86 115.24 248.62 119.00 243.00
C 122.66 237.32 117.00 227.18 120.02 219.02 C 123.05 210.87 116.92 202.85 118.00 194.00 C 119.08 185.15 117.27 175.70 119.00 167.00 C 120.73 158.30 119.34 148.30 119.33 139.67 C 119.32 131.04 116.37 120.52 118.02 112.02 C 119.68 103.53 122.92 97.97 123.02 89.02 C 123.13 80.08 124.72 71.09 125.00 62.00 C 125.28 52.91 124.81 42.11 125.00 33.00 C 125.19 23.89 125.61 15.72 127.00 7.00 Z"/>
</g>
<g fill="#FFFFFF" fill-opacity="0.96" stroke="None">
<path d="
M 138.00 176.00 
C 138.82 179.42 139.92 182.78 139.00 188.00
C 135.01 204.23 138.55 222.29 135.78 237.78 C 133.01 253.27 146.93 240.55 152.33 243.67 C 157.73 246.79 174.16 240.39 166.70 235.30 C 159.24 230.21 160.30 223.19 159.32 215.68 C 158.34 208.17 160.66 201.46 163.07 194.07 C 165.49 186.68 167.00 179.69 169.22 172.22 C 171.45 164.76 173.13 157.93 175.22 150.22 C 177.32 142.52 177.38 132.81 176.33 124.67 C 175.28 116.53 173.29 109.99 172.00 102.00 C 170.70 94.02 170.22 83.29 171.22 75.22 C 172.22 67.15 175.54 60.83 177.02 53.02 C 178.51 45.22 181.33 38.49 182.67 30.67 C 184.02 22.86 186.59 15.05 187.00 7.00
C 168.00 7.00 149.00 7.00 130.00 7.00
C 134.62 34.56 127.93 66.50 133.22 93.78 C 138.51 121.06 137.43 147.51 138.00 176.00 Z"/>
</g>
<g fill="#FEFEFE" fill-opacity="0.89" stroke="None">
<path d="
M 202.00 96.00 
C 207.74 93.34 213.80 80.05 205.01 80.01 C 196.22 79.97 196.71 89.37 189.92 92.92 C 183.13 96.47 183.16 106.61 190.25 109.75 C 197.33 112.90 196.94 122.45 204.97 122.97 C 213.00 123.50 208.66 108.92 203.00 107.00
C 213.74 107.19 220.90 106.75 232.00 107.00 C 243.09 107.25 240.61 93.87 230.00 96.00 C 219.39 98.13 212.29 94.41 202.00 96.00 Z"/>
</g>
<g fill="#FFFFFF" fill-opacity="0.44" stroke="None">
<path d="
M 139.00 188.00 
C 139.92 182.78 138.82 179.42 138.00 176.00
C 138.08 179.88 138.91 184.83 139.00 188.00 Z"/>
</g>
</svg>