<svg xmlns="http://www.w3.org/2000/svg" xmlns:v="https://svgstorm.com"
viewBox = "0 0 512 512"
width="512"
height="512">
<g fill="None" fill-opacity="0.0" stroke="#000000" stroke-opacity="0.00" stroke-width="0.3"><path d="
M 0.00 512.00 
L 512.00 512.00
L 512.00 0.00
L 0.00 0.00
L 0.00 512.00
M 290.00 114.00 
C 291.08 116.66 293.56 119.74 295.00 123.00
C 301.72 138.21 308.16 157.20 315.00 174.00
C 316.85 176.00 317.95 177.18 319.00 180.00
C 319.68 181.84 319.91 182.93 320.00 185.00
C 320.30 185.72 321.66 186.68 321.00 188.00
C 326.43 187.90 331.40 189.71 337.00 189.00
C 341.94 189.00 346.13 189.81 351.00 190.00
C 361.49 190.40 371.69 191.79 381.00 193.00
C 387.92 193.90 395.05 193.86 402.00 194.00
C 408.35 194.13 415.59 195.51 422.00 195.00 C 428.41 194.49 435.67 197.09 440.00 198.00
C 451.45 196.93 464.28 198.96 475.00 200.00
C 480.94 200.58 487.04 199.57 493.00 200.00
C 484.99 212.43 471.68 221.41 460.00 230.00
C 454.48 238.74 440.70 249.58 432.00 255.00
C 431.64 255.22 431.00 255.00 431.00 255.00
C 426.22 265.66 409.44 272.22 401.75 281.75 C 394.05 291.27 380.34 298.02 371.00 307.00
C 366.94 310.90 363.76 312.65 364.00 319.00
C 369.97 331.40 370.73 346.63 374.00 360.00
C 375.30 365.34 376.80 368.81 378.00 375.00
C 378.34 376.76 378.93 378.08 379.00 380.00
C 379.02 380.50 378.81 381.58 379.00 382.00
C 385.33 390.77 386.07 408.02 388.00 419.00
C 388.22 420.23 388.83 422.23 389.00 424.00
C 390.32 428.56 393.13 435.71 394.00 442.00
C 394.14 442.98 393.85 444.02 394.00 445.00
C 397.21 452.15 398.26 463.06 401.00 471.00
C 401.53 472.53 402.85 474.40 403.00 476.00
C 403.16 477.65 402.88 479.34 403.00 481.00
C 400.86 481.52 400.19 478.43 398.00 479.00
C 389.44 475.42 381.76 468.28 374.00 464.00
C 372.04 462.92 370.63 461.02 369.00 460.00
C 365.15 457.59 354.17 454.87 353.00 450.00
C 349.95 449.77 345.38 448.06 344.00 445.00
C 329.31 440.32 317.69 428.00 303.90 421.10 C 290.11 414.20 276.76 404.57 264.00 397.00
C 261.57 395.56 258.20 394.92 257.00 392.00
C 250.87 393.34 246.74 399.74 240.00 401.00
C 238.37 401.96 236.82 403.92 235.00 405.00
C 225.32 410.75 217.58 417.34 207.00 421.00
C 200.53 425.31 193.45 430.89 186.00 435.00
C 180.64 437.96 174.47 443.80 168.00 445.00
C 165.97 446.32 164.68 448.57 162.00 450.00
C 150.68 456.04 137.49 462.80 127.00 470.00
C 125.43 471.07 123.06 472.79 121.00 474.00
C 117.44 476.09 114.04 480.99 109.00 481.00
C 111.85 471.16 112.11 458.30 117.00 450.00
C 117.14 449.04 116.97 447.97 117.00 447.00
C 117.32 437.52 120.80 427.86 123.00 419.00 C 125.20 410.14 125.93 397.21 131.00 391.00
C 131.20 390.30 130.39 389.29 130.02 387.98 C 129.65 386.66 131.97 386.12 132.00 386.00
C 132.64 383.48 132.59 380.58 133.00 378.00
C 133.54 374.62 133.01 371.48 136.00 370.00
C 136.15 369.55 136.00 369.00 136.00 369.00
C 134.19 366.76 137.39 360.55 138.00 357.00
C 138.97 351.38 140.89 346.57 142.00 341.00
C 143.98 331.10 146.42 323.03 148.00 313.00
C 141.43 309.64 136.36 304.34 131.00 299.00
C 130.84 298.77 130.00 299.00 130.00 299.00
C 127.66 297.86 124.78 294.78 123.00 293.00
C 116.08 287.42 107.72 281.77 102.00 275.00
C 101.33 274.21 100.67 273.66 100.00 273.00
C 93.13 268.14 95.44 269.72 88.23 263.77 C 81.03 257.81 71.82 249.27 64.77 243.23 C 57.72 237.19 57.54 238.03 52.75 233.25 C 47.97 228.46 44.13 227.11 40.32 223.68 C 36.51 220.25 31.93 215.07 28.92 213.08 C 25.92 211.08 16.71 204.28 18.00 202.00
C 19.46 199.42 29.16 201.27 32.00 201.00
C 38.79 200.36 46.11 199.37 53.00 199.00
C 61.92 198.52 71.02 197.13 80.00 198.00
C 87.29 196.46 97.59 195.30 107.00 195.00 C 116.41 194.70 126.46 193.92 136.00 193.00
C 148.66 191.77 163.21 189.53 177.00 189.00
C 180.60 188.86 187.74 190.21 190.00 187.00
C 190.25 185.83 190.65 185.14 191.00 184.00
C 194.15 173.71 198.88 163.82 203.00 154.00
C 205.34 148.41 208.25 140.96 211.00 135.00
C 226.10 102.34 239.92 63.32 254.00 30.00
C 268.00 55.98 280.06 86.76 290.00 114.00 Z"/>
</g>
<g fill="None" fill-opacity="0.0" stroke="#FFFFFF" stroke-opacity="0.98" stroke-width="0.3"><path d="
M 211.00 135.00 
C 212.00 135.00 213.00 135.00 214.00 135.00
C 209.49 140.49 209.70 153.20 203.00 154.00
C 198.88 163.82 194.15 173.71 191.00 184.00
C 191.00 183.78 193.55 191.12 188.77 190.77 C 183.99 190.42 179.96 193.05 177.00 190.00
C 176.75 189.74 177.00 189.00 177.00 189.00
C 163.21 189.53 148.66 191.77 136.00 193.00
C 128.55 195.65 118.36 195.50 108.98 196.98 C 99.60 198.45 89.08 198.88 80.00 198.00
C 71.02 197.13 61.92 198.52 53.00 199.00
C 50.51 199.73 46.57 203.76 41.99 202.99 C 37.41 202.23 32.47 203.57 28.00 204.00
C 25.60 204.23 23.04 203.44 21.00 205.00
C 20.07 203.78 20.17 201.57 18.00 202.00
C 16.71 204.28 25.92 211.08 28.92 213.08 C 31.93 215.07 36.51 220.25 40.32 223.68 C 44.13 227.11 47.97 228.46 52.75 233.25 C 57.54 238.03 57.72 237.19 64.77 243.23 C 71.82 249.27 81.03 257.81 88.23 263.77 C 95.44 269.72 93.13 268.14 100.00 273.00
C 98.08 271.09 95.60 268.53 95.00 266.00
C 106.62 276.91 123.45 286.78 131.00 299.00
C 136.36 304.34 141.43 309.64 148.00 313.00
C 146.42 323.03 143.98 331.10 142.00 341.00
C 142.58 340.18 144.11 340.06 145.00 340.00
C 141.77 345.10 144.69 354.93 138.00 357.00
C 137.39 360.55 134.19 366.76 136.00 369.00
C 137.72 370.64 135.65 376.55 134.00 378.00
C 133.72 378.25 133.00 378.00 133.00 378.00
C 132.59 380.58 132.64 383.48 132.00 386.00
C 132.62 385.33 133.04 384.38 134.00 384.00
C 133.50 385.92 133.43 392.56 131.00 391.00
C 125.93 397.21 125.20 410.14 123.00 419.00 C 120.80 427.86 117.32 437.52 117.00 447.00
C 117.07 447.73 121.24 455.91 115.00 456.00
C 116.45 454.23 115.57 451.78 117.00 450.00
C 112.11 458.30 111.85 471.16 109.00 481.00
C 114.04 480.99 117.44 476.09 121.00 474.00
C 120.28 474.92 129.03 464.48 127.00 470.00
C 137.49 462.80 150.68 456.04 162.00 450.00
C 162.65 449.09 160.43 447.55 162.76 445.75 C 165.08 443.96 165.93 445.39 168.00 445.00
C 174.47 443.80 180.64 437.96 186.00 435.00
C 192.19 427.76 197.46 424.31 207.00 421.00
C 217.58 417.34 225.32 410.75 235.00 405.00
C 236.63 403.13 234.86 404.12 235.80 401.75 C 236.74 399.39 239.33 401.13 240.00 401.00
C 246.74 399.74 250.87 393.34 257.00 392.00
C 261.84 390.94 262.47 394.96 264.00 397.00
C 276.76 404.57 290.11 414.20 303.90 421.10 C 317.69 428.00 329.31 440.32 344.00 445.00
C 343.81 444.59 344.00 444.00 344.00 444.00
C 345.16 442.79 352.20 447.15 353.00 449.00
C 353.18 449.42 353.00 450.00 353.00 450.00
C 354.17 454.87 365.15 457.59 369.00 460.00
C 368.47 459.04 367.81 458.20 368.00 457.00
C 370.05 458.98 375.91 460.51 374.00 464.00
C 381.76 468.28 389.44 475.42 398.00 479.00
C 397.77 478.85 398.00 478.00 398.00 478.00
C 394.43 474.98 397.32 475.78 400.00 477.00
C 401.31 474.94 397.12 469.02 401.00 471.00
C 398.26 463.06 397.21 452.15 394.00 445.00
C 394.29 446.94 395.40 449.09 396.00 451.00
C 392.27 451.56 390.13 440.25 394.00 442.00
C 393.13 435.71 390.32 428.56 389.00 424.00
C 389.15 425.50 390.82 427.18 390.00 429.00
C 386.57 427.37 386.74 420.90 386.00 417.00
C 387.26 417.08 386.56 419.06 388.00 419.00
C 386.07 408.02 385.33 390.77 379.00 382.00
C 379.73 383.61 380.36 385.09 380.00 387.00
C 377.50 387.22 375.16 379.87 379.00 380.00
C 378.93 378.08 378.34 376.76 378.00 375.00
C 376.82 372.65 376.16 371.15 374.22 367.78 C 372.29 364.40 373.87 361.60 374.00 360.00
C 370.73 346.63 369.97 331.40 364.00 319.00
C 363.91 318.80 363.00 319.00 363.00 319.00
C 358.66 314.80 364.46 307.11 369.00 306.00
C 370.25 305.70 371.21 304.60 371.00 307.00
C 380.34 298.02 394.05 291.27 401.75 281.75 C 409.44 272.22 426.22 265.66 431.00 255.00
C 428.21 256.37 426.75 259.69 424.00 261.00
C 424.02 255.61 432.71 251.14 437.00 248.00
C 437.04 251.15 432.98 252.30 432.00 255.00
C 440.70 249.58 454.48 238.74 460.00 230.00
C 465.63 221.08 479.41 212.42 488.00 204.00
C 485.08 201.52 473.78 204.65 475.00 200.00
C 464.28 198.96 451.45 196.93 440.00 198.00
C 427.48 199.17 414.66 196.69 402.00 196.00
C 394.34 195.58 386.65 195.30 381.00 193.00
C 371.69 191.79 361.49 190.40 351.00 190.00
C 350.52 190.10 347.54 193.44 345.00 192.00 C 342.46 190.56 339.84 191.11 337.00 191.00
C 329.00 190.69 320.34 192.62 320.00 185.00
C 319.91 182.93 319.68 181.84 319.00 180.00
C 318.94 180.30 317.54 181.89 317.00 182.00
C 314.53 179.43 313.24 174.94 313.00 171.00
C 314.67 171.24 313.17 173.85 315.00 174.00
C 308.16 157.20 301.72 138.21 295.00 123.00
C 291.11 118.66 290.27 119.45 290.00 114.00
C 280.06 86.76 268.00 55.98 254.00 30.00
C 239.92 63.32 226.10 102.34 211.00 135.00
M 150.00 193.00 
C 148.04 194.52 142.89 194.72 141.00 193.00
C 143.44 191.70 147.99 191.14 150.00 193.00
M 376.00 192.00 
C 373.57 194.13 369.18 192.47 366.00 193.00
C 368.43 190.87 372.82 192.53 376.00 192.00
M 403.00 277.00 
C 401.69 280.68 397.70 284.75 394.00 286.00
C 396.54 282.70 399.69 279.44 403.00 277.00
M 383.00 467.00 
C 380.20 467.49 377.17 464.69 377.00 462.00
C 378.97 463.72 381.95 464.37 383.00 467.00 Z"/>
</g>
<g fill="None" fill-opacity="0.0" stroke="#FFFFFF" stroke-opacity="0.41" stroke-width="0.3"><path d="
M 295.00 123.00 
C 293.56 119.74 291.08 116.66 290.00 114.00
C 290.27 119.45 291.11 118.66 295.00 123.00 Z"/>
</g>
<g fill="None" fill-opacity="0.0" stroke="#FFFFFF" stroke-opacity="0.46" stroke-width="0.3"><path d="
M 203.00 154.00 
C 209.70 153.20 209.49 140.49 214.00 135.00
C 213.00 135.00 212.00 135.00 211.00 135.00
C 208.25 140.96 205.34 148.41 203.00 154.00 Z"/>
</g>
<g fill="None" fill-opacity="0.0" stroke="#FFFFFF" stroke-opacity="0.56" stroke-width="0.3"><path d="
M 319.00 180.00 
C 317.95 177.18 316.85 176.00 315.00 174.00
C 313.17 173.85 314.67 171.24 313.00 171.00
C 313.24 174.94 314.53 179.43 317.00 182.00
C 317.54 181.89 318.94 180.30 319.00 180.00 Z"/>
</g>
<g fill="None" fill-opacity="0.0" stroke="#FFFFFF" stroke-opacity="0.72" stroke-width="0.3"><path d="
M 190.00 187.00 
C 189.23 190.60 182.29 190.48 177.00 190.00
C 179.96 193.05 183.99 190.42 188.77 190.77 C 193.55 191.12 191.00 183.78 191.00 184.00
C 190.65 185.14 190.25 185.83 190.00 187.00 Z"/>
</g>
<g fill="None" fill-opacity="0.0" stroke="#FFFFFF" stroke-opacity="0.55" stroke-width="0.3"><path d="
M 337.00 191.00 
C 336.86 190.96 337.19 189.08 337.00 189.00
C 331.40 189.71 326.43 187.90 321.00 188.00
C 321.66 186.68 320.30 185.72 320.00 185.00
C 320.34 192.62 329.00 190.69 337.00 191.00 Z"/>
</g>
<g fill="None" fill-opacity="0.0" stroke="#FFFFFF" stroke-opacity="0.29" stroke-width="0.3"><path d="
M 177.00 189.00 
C 177.00 189.00 176.75 189.74 177.00 190.00
C 182.29 190.48 189.23 190.60 190.00 187.00
C 187.74 190.21 180.60 188.86 177.00 189.00 Z"/>
</g>
<g fill="None" fill-opacity="0.0" stroke="#FFFFFF" stroke-opacity="0.41" stroke-width="0.3"><path d="
M 337.00 191.00 
C 339.84 191.11 342.46 190.56 345.00 192.00 C 347.54 193.44 350.52 190.10 351.00 190.00
C 346.13 189.81 341.94 189.00 337.00 189.00
C 337.19 189.08 336.86 190.96 337.00 191.00 Z"/>
</g>
<g fill="None" fill-opacity="0.0" stroke="#FFFFFF" stroke-opacity="0.62" stroke-width="0.3"><path d="
M 150.00 193.00 
C 147.99 191.14 143.44 191.70 141.00 193.00
C 142.89 194.72 148.04 194.52 150.00 193.00 Z"/>
</g>
<g fill="None" fill-opacity="0.0" stroke="#FFFFFF" stroke-opacity="0.36" stroke-width="0.3"><path d="
M 376.00 192.00 
C 372.82 192.53 368.43 190.87 366.00 193.00
C 369.18 192.47 373.57 194.13 376.00 192.00 Z"/>
</g>
<g fill="None" fill-opacity="0.0" stroke="#FFFFFF" stroke-opacity="0.47" stroke-width="0.3"><path d="
M 80.00 198.00 
C 89.08 198.88 99.60 198.45 108.98 196.98 C 118.36 195.50 128.55 195.65 136.00 193.00
C 126.46 193.92 116.41 194.70 107.00 195.00 C 97.59 195.30 87.29 196.46 80.00 198.00 Z"/>
</g>
<g fill="None" fill-opacity="0.0" stroke="#FFFFFF" stroke-opacity="0.53" stroke-width="0.3"><path d="
M 402.00 196.00 
C 401.84 195.94 402.19 194.08 402.00 194.00
C 395.05 193.86 387.92 193.90 381.00 193.00
C 386.65 195.30 394.34 195.58 402.00 196.00 Z"/>
</g>
<g fill="None" fill-opacity="0.0" stroke="#FFFFFF" stroke-opacity="0.41" stroke-width="0.3"><path d="
M 402.00 196.00 
C 414.66 196.69 427.48 199.17 440.00 198.00
C 435.67 197.09 428.41 194.49 422.00 195.00 C 415.59 195.51 408.35 194.13 402.00 194.00
C 402.19 194.08 401.84 195.94 402.00 196.00 Z"/>
</g>
<g fill="None" fill-opacity="0.0" stroke="#FFFFFF" stroke-opacity="0.49" stroke-width="0.3"><path d="
M 32.00 201.00 
C 30.77 201.44 28.41 203.86 28.00 204.00
C 32.47 203.57 37.41 202.23 41.99 202.99 C 46.57 203.76 50.51 199.73 53.00 199.00
C 46.11 199.37 38.79 200.36 32.00 201.00 Z"/>
</g>
<g fill="None" fill-opacity="0.0" stroke="#FFFFFF" stroke-opacity="0.41" stroke-width="0.3"><path d="
M 460.00 230.00 
C 471.68 221.41 484.99 212.43 493.00 200.00
C 487.04 199.57 480.94 200.58 475.00 200.00
C 473.78 204.65 485.08 201.52 488.00 204.00
C 479.41 212.42 465.63 221.08 460.00 230.00 Z"/>
</g>
<g fill="None" fill-opacity="0.0" stroke="#FFFFFF" stroke-opacity="0.32" stroke-width="0.3"><path d="
M 18.00 202.00 
C 20.17 201.57 20.07 203.78 21.00 205.00
C 23.04 203.44 25.60 204.23 28.00 204.00
C 28.41 203.86 30.77 201.44 32.00 201.00
C 29.16 201.27 19.46 199.42 18.00 202.00 Z"/>
</g>
<g fill="None" fill-opacity="0.0" stroke="#FFFFFF" stroke-opacity="0.68" stroke-width="0.3"><path d="
M 431.00 255.00 
C 431.00 255.00 431.64 255.22 432.00 255.00
C 432.98 252.30 437.04 251.15 437.00 248.00
C 432.71 251.14 424.02 255.61 424.00 261.00
C 426.75 259.69 428.21 256.37 431.00 255.00 Z"/>
</g>
<g fill="None" fill-opacity="0.0" stroke="#FFFFFF" stroke-opacity="0.68" stroke-width="0.3"><path d="
M 100.00 273.00 
C 100.67 273.66 101.33 274.21 102.00 275.00
C 104.74 277.12 108.15 278.56 111.00 281.00
C 117.72 286.75 123.80 293.18 130.00 299.00
C 130.00 299.00 130.84 298.77 131.00 299.00
C 123.45 286.78 106.62 276.91 95.00 266.00
C 95.60 268.53 98.08 271.09 100.00 273.00 Z"/>
</g>
<g fill="None" fill-opacity="0.0" stroke="#FFFFFF" stroke-opacity="0.12" stroke-width="0.3"><path d="
M 123.00 293.00 
C 118.95 288.95 114.96 284.96 111.00 281.00
C 108.15 278.56 104.74 277.12 102.00 275.00
C 107.72 281.77 116.08 287.42 123.00 293.00 Z"/>
</g>
<g fill="None" fill-opacity="0.0" stroke="#FFFFFF" stroke-opacity="0.56" stroke-width="0.3"><path d="
M 403.00 277.00 
C 399.69 279.44 396.54 282.70 394.00 286.00
C 397.70 284.75 401.69 280.68 403.00 277.00 Z"/>
</g>
<g fill="None" fill-opacity="0.0" stroke="#FFFFFF" stroke-opacity="0.33" stroke-width="0.3"><path d="
M 123.00 293.00 
C 124.78 294.78 127.66 297.86 130.00 299.00
C 123.80 293.18 117.72 286.75 111.00 281.00
C 114.96 284.96 118.95 288.95 123.00 293.00 Z"/>
</g>
<g fill="None" fill-opacity="0.0" stroke="#FFFFFF" stroke-opacity="0.25" stroke-width="0.3"><path d="
M 369.00 306.00 
C 365.28 308.34 362.17 314.47 363.00 319.00
C 363.00 319.00 363.91 318.80 364.00 319.00
C 363.76 312.65 366.94 310.90 371.00 307.00
C 371.21 304.60 370.25 305.70 369.00 306.00 Z"/>
</g>
<g fill="None" fill-opacity="0.0" stroke="#FFFFFF" stroke-opacity="0.74" stroke-width="0.3"><path d="
M 363.00 319.00 
C 362.17 314.47 365.28 308.34 369.00 306.00
C 364.46 307.11 358.66 314.80 363.00 319.00 Z"/>
</g>
<g fill="None" fill-opacity="0.0" stroke="#FFFFFF" stroke-opacity="0.53" stroke-width="0.3"><path d="
M 142.00 341.00 
C 140.89 346.57 138.97 351.38 138.00 357.00
C 144.69 354.93 141.77 345.10 145.00 340.00
C 144.11 340.06 142.58 340.18 142.00 341.00 Z"/>
</g>
<g fill="None" fill-opacity="0.0" stroke="#FFFFFF" stroke-opacity="0.40" stroke-width="0.3"><path d="
M 378.00 375.00 
C 376.80 368.81 375.30 365.34 374.00 360.00
C 373.87 361.60 372.29 364.40 374.22 367.78 C 376.16 371.15 376.82 372.65 378.00 375.00 Z"/>
</g>
<g fill="None" fill-opacity="0.0" stroke="#FFFFFF" stroke-opacity="0.53" stroke-width="0.3"><path d="
M 136.00 370.00 
C 135.15 372.66 134.77 375.32 134.00 378.00
C 135.65 376.55 137.72 370.64 136.00 369.00
C 136.00 369.00 136.15 369.55 136.00 370.00 Z"/>
</g>
<g fill="None" fill-opacity="0.0" stroke="#FFFFFF" stroke-opacity="0.13" stroke-width="0.3"><path d="
M 133.00 378.00 
C 133.00 378.00 133.72 378.25 134.00 378.00
C 134.77 375.32 135.15 372.66 136.00 370.00
C 133.01 371.48 133.54 374.62 133.00 378.00 Z"/>
</g>
<g fill="None" fill-opacity="0.0" stroke="#FFFFFF" stroke-opacity="0.60" stroke-width="0.3"><path d="
M 379.00 382.00 
C 378.81 381.58 379.02 380.50 379.00 380.00
C 375.16 379.87 377.50 387.22 380.00 387.00
C 380.36 385.09 379.73 383.61 379.00 382.00 Z"/>
</g>
<g fill="None" fill-opacity="0.0" stroke="#FFFFFF" stroke-opacity="0.49" stroke-width="0.3"><path d="
M 132.00 386.00 
C 131.97 386.12 129.65 386.66 130.02 387.98 C 130.39 389.29 131.20 390.30 131.00 391.00
C 133.43 392.56 133.50 385.92 134.00 384.00
C 133.04 384.38 132.62 385.33 132.00 386.00 Z"/>
</g>
<g fill="None" fill-opacity="0.0" stroke="#FFFFFF" stroke-opacity="0.40" stroke-width="0.3"><path d="
M 257.00 392.00 
C 258.20 394.92 261.57 395.56 264.00 397.00
C 262.47 394.96 261.84 390.94 257.00 392.00 Z"/>
</g>
<g fill="None" fill-opacity="0.0" stroke="#FFFFFF" stroke-opacity="0.40" stroke-width="0.3"><path d="
M 235.00 405.00 
C 236.82 403.92 238.37 401.96 240.00 401.00
C 239.33 401.13 236.74 399.39 235.80 401.75 C 234.86 404.12 236.63 403.13 235.00 405.00 Z"/>
</g>
<g fill="None" fill-opacity="0.0" stroke="#FFFFFF" stroke-opacity="0.64" stroke-width="0.3"><path d="
M 389.00 424.00 
C 388.83 422.23 388.22 420.23 388.00 419.00
C 386.56 419.06 387.26 417.08 386.00 417.00
C 386.74 420.90 386.57 427.37 390.00 429.00
C 390.82 427.18 389.15 425.50 389.00 424.00 Z"/>
</g>
<g fill="None" fill-opacity="0.0" stroke="#FFFFFF" stroke-opacity="0.43" stroke-width="0.3"><path d="
M 186.00 435.00 
C 193.45 430.89 200.53 425.31 207.00 421.00
C 197.46 424.31 192.19 427.76 186.00 435.00 Z"/>
</g>
<g fill="None" fill-opacity="0.0" stroke="#FFFFFF" stroke-opacity="0.64" stroke-width="0.3"><path d="
M 394.00 445.00 
C 393.85 444.02 394.14 442.98 394.00 442.00
C 390.13 440.25 392.27 451.56 396.00 451.00
C 395.40 449.09 394.29 446.94 394.00 445.00 Z"/>
</g>
<g fill="None" fill-opacity="0.0" stroke="#FFFFFF" stroke-opacity="0.72" stroke-width="0.3"><path d="
M 344.00 444.00 
C 347.13 445.76 349.43 448.28 353.00 449.00
C 352.20 447.15 345.16 442.79 344.00 444.00 Z"/>
</g>
<g fill="None" fill-opacity="0.0" stroke="#FFFFFF" stroke-opacity="0.47" stroke-width="0.3"><path d="
M 162.00 450.00 
C 164.68 448.57 165.97 446.32 168.00 445.00
C 165.93 445.39 165.08 443.96 162.76 445.75 C 160.43 447.55 162.65 449.09 162.00 450.00 Z"/>
</g>
<g fill="None" fill-opacity="0.0" stroke="#FFFFFF" stroke-opacity="0.22" stroke-width="0.3"><path d="
M 344.00 445.00 
C 345.38 448.06 349.95 449.77 353.00 450.00
C 353.00 450.00 353.18 449.42 353.00 449.00
C 349.43 448.28 347.13 445.76 344.00 444.00
C 344.00 444.00 343.81 444.59 344.00 445.00 Z"/>
</g>
<g fill="None" fill-opacity="0.0" stroke="#FFFFFF" stroke-opacity="0.64" stroke-width="0.3"><path d="
M 117.00 450.00 
C 115.57 451.78 116.45 454.23 115.00 456.00
C 121.24 455.91 117.07 447.73 117.00 447.00
C 116.97 447.97 117.14 449.04 117.00 450.00 Z"/>
</g>
<g fill="None" fill-opacity="0.0" stroke="#FFFFFF" stroke-opacity="0.47" stroke-width="0.3"><path d="
M 369.00 460.00 
C 370.63 461.02 372.04 462.92 374.00 464.00
C 375.91 460.51 370.05 458.98 368.00 457.00
C 367.81 458.20 368.47 459.04 369.00 460.00 Z"/>
</g>
<g fill="None" fill-opacity="0.0" stroke="#FFFFFF" stroke-opacity="0.74" stroke-width="0.3"><path d="
M 383.00 467.00 
C 381.95 464.37 378.97 463.72 377.00 462.00
C 377.17 464.69 380.20 467.49 383.00 467.00 Z"/>
</g>
<g fill="None" fill-opacity="0.0" stroke="#FFFFFF" stroke-opacity="0.45" stroke-width="0.3"><path d="
M 121.00 474.00 
C 123.06 472.79 125.43 471.07 127.00 470.00
C 129.03 464.48 120.28 474.92 121.00 474.00 Z"/>
</g>
<g fill="None" fill-opacity="0.0" stroke="#FFFFFF" stroke-opacity="0.45" stroke-width="0.3"><path d="
M 398.00 478.00 
C 399.09 478.54 400.77 478.70 402.00 479.00
C 402.11 478.00 401.53 476.27 403.00 476.00
C 402.85 474.40 401.53 472.53 401.00 471.00
C 397.12 469.02 401.31 474.94 400.00 477.00
C 397.32 475.78 394.43 474.98 398.00 478.00 Z"/>
</g>
<g fill="None" fill-opacity="0.0" stroke="#FFFFFF" stroke-opacity="0.20" stroke-width="0.3"><path d="
M 398.00 478.00 
C 398.00 478.00 397.77 478.85 398.00 479.00
C 400.19 478.43 400.86 481.52 403.00 481.00
C 402.88 479.34 403.16 477.65 403.00 476.00
C 401.53 476.27 402.11 478.00 402.00 479.00
C 400.77 478.70 399.09 478.54 398.00 478.00 Z"/>
</g>
<g fill="#000000" fill-opacity="0.00" stroke="None">
<path d="
M 0.00 512.00 
L 512.00 512.00
L 512.00 0.00
L 0.00 0.00
L 0.00 512.00
M 290.00 114.00 
C 291.08 116.66 293.56 119.74 295.00 123.00
C 301.72 138.21 308.16 157.20 315.00 174.00
C 316.85 176.00 317.95 177.18 319.00 180.00
C 319.68 181.84 319.91 182.93 320.00 185.00
C 320.30 185.72 321.66 186.68 321.00 188.00
C 326.43 187.90 331.40 189.71 337.00 189.00
C 341.94 189.00 346.13 189.81 351.00 190.00
C 361.49 190.40 371.69 191.79 381.00 193.00
C 387.92 193.90 395.05 193.86 402.00 194.00
C 408.35 194.13 415.59 195.51 422.00 195.00 C 428.41 194.49 435.67 197.09 440.00 198.00
C 451.45 196.93 464.28 198.96 475.00 200.00
C 480.94 200.58 487.04 199.57 493.00 200.00
C 484.99 212.43 471.68 221.41 460.00 230.00
C 454.48 238.74 440.70 249.58 432.00 255.00
C 431.64 255.22 431.00 255.00 431.00 255.00
C 426.22 265.66 409.44 272.22 401.75 281.75 C 394.05 291.27 380.34 298.02 371.00 307.00
C 366.94 310.90 363.76 312.65 364.00 319.00
C 369.97 331.40 370.73 346.63 374.00 360.00
C 375.30 365.34 376.80 368.81 378.00 375.00
C 378.34 376.76 378.93 378.08 379.00 380.00
C 379.02 380.50 378.81 381.58 379.00 382.00
C 385.33 390.77 386.07 408.02 388.00 419.00
C 388.22 420.23 388.83 422.23 389.00 424.00
C 390.32 428.56 393.13 435.71 394.00 442.00
C 394.14 442.98 393.85 444.02 394.00 445.00
C 397.21 452.15 398.26 463.06 401.00 471.00
C 401.53 472.53 402.85 474.40 403.00 476.00
C 403.16 477.65 402.88 479.34 403.00 481.00
C 400.86 481.52 400.19 478.43 398.00 479.00
C 389.44 475.42 381.76 468.28 374.00 464.00
C 372.04 462.92 370.63 461.02 369.00 460.00
C 365.15 457.59 354.17 454.87 353.00 450.00
C 349.95 449.77 345.38 448.06 344.00 445.00
C 329.31 440.32 317.69 428.00 303.90 421.10 C 290.11 414.20 276.76 404.57 264.00 397.00
C 261.57 395.56 258.20 394.92 257.00 392.00
C 250.87 393.34 246.74 399.74 240.00 401.00
C 238.37 401.96 236.82 403.92 235.00 405.00
C 225.32 410.75 217.58 417.34 207.00 421.00
C 200.53 425.31 193.45 430.89 186.00 435.00
C 180.64 437.96 174.47 443.80 168.00 445.00
C 165.97 446.32 164.68 448.57 162.00 450.00
C 150.68 456.04 137.49 462.80 127.00 470.00
C 125.43 471.07 123.06 472.79 121.00 474.00
C 117.44 476.09 114.04 480.99 109.00 481.00
C 111.85 471.16 112.11 458.30 117.00 450.00
C 117.14 449.04 116.97 447.97 117.00 447.00
C 117.32 437.52 120.80 427.86 123.00 419.00 C 125.20 410.14 125.93 397.21 131.00 391.00
C 131.20 390.30 130.39 389.29 130.02 387.98 C 129.65 386.66 131.97 386.12 132.00 386.00
C 132.64 383.48 132.59 380.58 133.00 378.00
C 133.54 374.62 133.01 371.48 136.00 370.00
C 136.15 369.55 136.00 369.00 136.00 369.00
C 134.19 366.76 137.39 360.55 138.00 357.00
C 138.97 351.38 140.89 346.57 142.00 341.00
C 143.98 331.10 146.42 323.03 148.00 313.00
C 141.43 309.64 136.36 304.34 131.00 299.00
C 130.84 298.77 130.00 299.00 130.00 299.00
C 127.66 297.86 124.78 294.78 123.00 293.00
C 116.08 287.42 107.72 281.77 102.00 275.00
C 101.33 274.21 100.67 273.66 100.00 273.00
C 93.13 268.14 95.44 269.72 88.23 263.77 C 81.03 257.81 71.82 249.27 64.77 243.23 C 57.72 237.19 57.54 238.03 52.75 233.25 C 47.97 228.46 44.13 227.11 40.32 223.68 C 36.51 220.25 31.93 215.07 28.92 213.08 C 25.92 211.08 16.71 204.28 18.00 202.00
C 19.46 199.42 29.16 201.27 32.00 201.00
C 38.79 200.36 46.11 199.37 53.00 199.00
C 61.92 198.52 71.02 197.13 80.00 198.00
C 87.29 196.46 97.59 195.30 107.00 195.00 C 116.41 194.70 126.46 193.92 136.00 193.00
C 148.66 191.77 163.21 189.53 177.00 189.00
C 180.60 188.86 187.74 190.21 190.00 187.00
C 190.25 185.83 190.65 185.14 191.00 184.00
C 194.15 173.71 198.88 163.82 203.00 154.00
C 205.34 148.41 208.25 140.96 211.00 135.00
C 226.10 102.34 239.92 63.32 254.00 30.00
C 268.00 55.98 280.06 86.76 290.00 114.00 Z"/>
</g>
<g fill="#FFFFFF" fill-opacity="0.98" stroke="None">
<path d="
M 211.00 135.00 
C 212.00 135.00 213.00 135.00 214.00 135.00
C 209.49 140.49 209.70 153.20 203.00 154.00
C 198.88 163.82 194.15 173.71 191.00 184.00
C 191.00 183.78 193.55 191.12 188.77 190.77 C 183.99 190.42 179.96 193.05 177.00 190.00
C 176.75 189.74 177.00 189.00 177.00 189.00
C 163.21 189.53 148.66 191.77 136.00 193.00
C 128.55 195.65 118.36 195.50 108.98 196.98 C 99.60 198.45 89.08 198.88 80.00 198.00
C 71.02 197.13 61.92 198.52 53.00 199.00
C 50.51 199.73 46.57 203.76 41.99 202.99 C 37.41 202.23 32.47 203.57 28.00 204.00
C 25.60 204.23 23.04 203.44 21.00 205.00
C 20.07 203.78 20.17 201.57 18.00 202.00
C 16.71 204.28 25.92 211.08 28.92 213.08 C 31.93 215.07 36.51 220.25 40.32 223.68 C 44.13 227.11 47.97 228.46 52.75 233.25 C 57.54 238.03 57.72 237.19 64.77 243.23 C 71.82 249.27 81.03 257.81 88.23 263.77 C 95.44 269.72 93.13 268.14 100.00 273.00
C 98.08 271.09 95.60 268.53 95.00 266.00
C 106.62 276.91 123.45 286.78 131.00 299.00
C 136.36 304.34 141.43 309.64 148.00 313.00
C 146.42 323.03 143.98 331.10 142.00 341.00
C 142.58 340.18 144.11 340.06 145.00 340.00
C 141.77 345.10 144.69 354.93 138.00 357.00
C 137.39 360.55 134.19 366.76 136.00 369.00
C 137.72 370.64 135.65 376.55 134.00 378.00
C 133.72 378.25 133.00 378.00 133.00 378.00
C 132.59 380.58 132.64 383.48 132.00 386.00
C 132.62 385.33 133.04 384.38 134.00 384.00
C 133.50 385.92 133.43 392.56 131.00 391.00
C 125.93 397.21 125.20 410.14 123.00 419.00 C 120.80 427.86 117.32 437.52 117.00 447.00
C 117.07 447.73 121.24 455.91 115.00 456.00
C 116.45 454.23 115.57 451.78 117.00 450.00
C 112.11 458.30 111.85 471.16 109.00 481.00
C 114.04 480.99 117.44 476.09 121.00 474.00
C 120.28 474.92 129.03 464.48 127.00 470.00
C 137.49 462.80 150.68 456.04 162.00 450.00
C 162.65 449.09 160.43 447.55 162.76 445.75 C 165.08 443.96 165.93 445.39 168.00 445.00
C 174.47 443.80 180.64 437.96 186.00 435.00
C 192.19 427.76 197.46 424.31 207.00 421.00
C 217.58 417.34 225.32 410.75 235.00 405.00
C 236.63 403.13 234.86 404.12 235.80 401.75 C 236.74 399.39 239.33 401.13 240.00 401.00
C 246.74 399.74 250.87 393.34 257.00 392.00
C 261.84 390.94 262.47 394.96 264.00 397.00
C 276.76 404.57 290.11 414.20 303.90 421.10 C 317.69 428.00 329.31 440.32 344.00 445.00
C 343.81 444.59 344.00 444.00 344.00 444.00
C 345.16 442.79 352.20 447.15 353.00 449.00
C 353.18 449.42 353.00 450.00 353.00 450.00
C 354.17 454.87 365.15 457.59 369.00 460.00
C 368.47 459.04 367.81 458.20 368.00 457.00
C 370.05 458.98 375.91 460.51 374.00 464.00
C 381.76 468.28 389.44 475.42 398.00 479.00
C 397.77 478.85 398.00 478.00 398.00 478.00
C 394.43 474.98 397.32 475.78 400.00 477.00
C 401.31 474.94 397.12 469.02 401.00 471.00
C 398.26 463.06 397.21 452.15 394.00 445.00
C 394.29 446.94 395.40 449.09 396.00 451.00
C 392.27 451.56 390.13 440.25 394.00 442.00
C 393.13 435.71 390.32 428.56 389.00 424.00
C 389.15 425.50 390.82 427.18 390.00 429.00
C 386.57 427.37 386.74 420.90 386.00 417.00
C 387.26 417.08 386.56 419.06 388.00 419.00
C 386.07 408.02 385.33 390.77 379.00 382.00
C 379.73 383.61 380.36 385.09 380.00 387.00
C 377.50 387.22 375.16 379.87 379.00 380.00
C 378.93 378.08 378.34 376.76 378.00 375.00
C 376.82 372.65 376.16 371.15 374.22 367.78 C 372.29 364.40 373.87 361.60 374.00 360.00
C 370.73 346.63 369.97 331.40 364.00 319.00
C 363.91 318.80 363.00 319.00 363.00 319.00
C 358.66 314.80 364.46 307.11 369.00 306.00
C 370.25 305.70 371.21 304.60 371.00 307.00
C 380.34 298.02 394.05 291.27 401.75 281.75 C 409.44 272.22 426.22 265.66 431.00 255.00
C 428.21 256.37 426.75 259.69 424.00 261.00
C 424.02 255.61 432.71 251.14 437.00 248.00
C 437.04 251.15 432.98 252.30 432.00 255.00
C 440.70 249.58 454.48 238.74 460.00 230.00
C 465.63 221.08 479.41 212.42 488.00 204.00
C 485.08 201.52 473.78 204.65 475.00 200.00
C 464.28 198.96 451.45 196.93 440.00 198.00
C 427.48 199.17 414.66 196.69 402.00 196.00
C 394.34 195.58 386.65 195.30 381.00 193.00
C 371.69 191.79 361.49 190.40 351.00 190.00
C 350.52 190.10 347.54 193.44 345.00 192.00 C 342.46 190.56 339.84 191.11 337.00 191.00
C 329.00 190.69 320.34 192.62 320.00 185.00
C 319.91 182.93 319.68 181.84 319.00 180.00
C 318.94 180.30 317.54 181.89 317.00 182.00
C 314.53 179.43 313.24 174.94 313.00 171.00
C 314.67 171.24 313.17 173.85 315.00 174.00
C 308.16 157.20 301.72 138.21 295.00 123.00
C 291.11 118.66 290.27 119.45 290.00 114.00
C 280.06 86.76 268.00 55.98 254.00 30.00
C 239.92 63.32 226.10 102.34 211.00 135.00
M 150.00 193.00 
C 148.04 194.52 142.89 194.72 141.00 193.00
C 143.44 191.70 147.99 191.14 150.00 193.00
M 376.00 192.00 
C 373.57 194.13 369.18 192.47 366.00 193.00
C 368.43 190.87 372.82 192.53 376.00 192.00
M 403.00 277.00 
C 401.69 280.68 397.70 284.75 394.00 286.00
C 396.54 282.70 399.69 279.44 403.00 277.00
M 383.00 467.00 
C 380.20 467.49 377.17 464.69 377.00 462.00
C 378.97 463.72 381.95 464.37 383.00 467.00 Z"/>
</g>
<g fill="#FFFFFF" fill-opacity="0.41" stroke="None">
<path d="
M 295.00 123.00 
C 293.56 119.74 291.08 116.66 290.00 114.00
C 290.27 119.45 291.11 118.66 295.00 123.00 Z"/>
</g>
<g fill="#FFFFFF" fill-opacity="0.46" stroke="None">
<path d="
M 203.00 154.00 
C 209.70 153.20 209.49 140.49 214.00 135.00
C 213.00 135.00 212.00 135.00 211.00 135.00
C 208.25 140.96 205.34 148.41 203.00 154.00 Z"/>
</g>
<g fill="#FFFFFF" fill-opacity="0.56" stroke="None">
<path d="
M 319.00 180.00 
C 317.95 177.18 316.85 176.00 315.00 174.00
C 313.17 173.85 314.67 171.24 313.00 171.00
C 313.24 174.94 314.53 179.43 317.00 182.00
C 317.54 181.89 318.94 180.30 319.00 180.00 Z"/>
</g>
<g fill="#FFFFFF" fill-opacity="0.72" stroke="None">
<path d="
M 190.00 187.00 
C 189.23 190.60 182.29 190.48 177.00 190.00
C 179.96 193.05 183.99 190.42 188.77 190.77 C 193.55 191.12 191.00 183.78 191.00 184.00
C 190.65 185.14 190.25 185.83 190.00 187.00 Z"/>
</g>
<g fill="#FFFFFF" fill-opacity="0.55" stroke="None">
<path d="
M 337.00 191.00 
C 336.86 190.96 337.19 189.08 337.00 189.00
C 331.40 189.71 326.43 187.90 321.00 188.00
C 321.66 186.68 320.30 185.72 320.00 185.00
C 320.34 192.62 329.00 190.69 337.00 191.00 Z"/>
</g>
<g fill="#FFFFFF" fill-opacity="0.29" stroke="None">
<path d="
M 177.00 189.00 
C 177.00 189.00 176.75 189.74 177.00 190.00
C 182.29 190.48 189.23 190.60 190.00 187.00
C 187.74 190.21 180.60 188.86 177.00 189.00 Z"/>
</g>
<g fill="#FFFFFF" fill-opacity="0.41" stroke="None">
<path d="
M 337.00 191.00 
C 339.84 191.11 342.46 190.56 345.00 192.00 C 347.54 193.44 350.52 190.10 351.00 190.00
C 346.13 189.81 341.94 189.00 337.00 189.00
C 337.19 189.08 336.86 190.96 337.00 191.00 Z"/>
</g>
<g fill="#FFFFFF" fill-opacity="0.62" stroke="None">
<path d="
M 150.00 193.00 
C 147.99 191.14 143.44 191.70 141.00 193.00
C 142.89 194.72 148.04 194.52 150.00 193.00 Z"/>
</g>
<g fill="#FFFFFF" fill-opacity="0.36" stroke="None">
<path d="
M 376.00 192.00 
C 372.82 192.53 368.43 190.87 366.00 193.00
C 369.18 192.47 373.57 194.13 376.00 192.00 Z"/>
</g>
<g fill="#FFFFFF" fill-opacity="0.47" stroke="None">
<path d="
M 80.00 198.00 
C 89.08 198.88 99.60 198.45 108.98 196.98 C 118.36 195.50 128.55 195.65 136.00 193.00
C 126.46 193.92 116.41 194.70 107.00 195.00 C 97.59 195.30 87.29 196.46 80.00 198.00 Z"/>
</g>
<g fill="#FFFFFF" fill-opacity="0.53" stroke="None">
<path d="
M 402.00 196.00 
C 401.84 195.94 402.19 194.08 402.00 194.00
C 395.05 193.86 387.92 193.90 381.00 193.00
C 386.65 195.30 394.34 195.58 402.00 196.00 Z"/>
</g>
<g fill="#FFFFFF" fill-opacity="0.41" stroke="None">
<path d="
M 402.00 196.00 
C 414.66 196.69 427.48 199.17 440.00 198.00
C 435.67 197.09 428.41 194.49 422.00 195.00 C 415.59 195.51 408.35 194.13 402.00 194.00
C 402.19 194.08 401.84 195.94 402.00 196.00 Z"/>
</g>
<g fill="#FFFFFF" fill-opacity="0.49" stroke="None">
<path d="
M 32.00 201.00 
C 30.77 201.44 28.41 203.86 28.00 204.00
C 32.47 203.57 37.41 202.23 41.99 202.99 C 46.57 203.76 50.51 199.73 53.00 199.00
C 46.11 199.37 38.79 200.36 32.00 201.00 Z"/>
</g>
<g fill="#FFFFFF" fill-opacity="0.41" stroke="None">
<path d="
M 460.00 230.00 
C 471.68 221.41 484.99 212.43 493.00 200.00
C 487.04 199.57 480.94 200.58 475.00 200.00
C 473.78 204.65 485.08 201.52 488.00 204.00
C 479.41 212.42 465.63 221.08 460.00 230.00 Z"/>
</g>
<g fill="#FFFFFF" fill-opacity="0.32" stroke="None">
<path d="
M 18.00 202.00 
C 20.17 201.57 20.07 203.78 21.00 205.00
C 23.04 203.44 25.60 204.23 28.00 204.00
C 28.41 203.86 30.77 201.44 32.00 201.00
C 29.16 201.27 19.46 199.42 18.00 202.00 Z"/>
</g>
<g fill="#FFFFFF" fill-opacity="0.68" stroke="None">
<path d="
M 431.00 255.00 
C 431.00 255.00 431.64 255.22 432.00 255.00
C 432.98 252.30 437.04 251.15 437.00 248.00
C 432.71 251.14 424.02 255.61 424.00 261.00
C 426.75 259.69 428.21 256.37 431.00 255.00 Z"/>
</g>
<g fill="#FFFFFF" fill-opacity="0.68" stroke="None">
<path d="
M 100.00 273.00 
C 100.67 273.66 101.33 274.21 102.00 275.00
C 104.74 277.12 108.15 278.56 111.00 281.00
C 117.72 286.75 123.80 293.18 130.00 299.00
C 130.00 299.00 130.84 298.77 131.00 299.00
C 123.45 286.78 106.62 276.91 95.00 266.00
C 95.60 268.53 98.08 271.09 100.00 273.00 Z"/>
</g>
<g fill="#FFFFFF" fill-opacity="0.12" stroke="None">
<path d="
M 123.00 293.00 
C 118.95 288.95 114.96 284.96 111.00 281.00
C 108.15 278.56 104.74 277.12 102.00 275.00
C 107.72 281.77 116.08 287.42 123.00 293.00 Z"/>
</g>
<g fill="#FFFFFF" fill-opacity="0.56" stroke="None">
<path d="
M 403.00 277.00 
C 399.69 279.44 396.54 282.70 394.00 286.00
C 397.70 284.75 401.69 280.68 403.00 277.00 Z"/>
</g>
<g fill="#FFFFFF" fill-opacity="0.33" stroke="None">
<path d="
M 123.00 293.00 
C 124.78 294.78 127.66 297.86 130.00 299.00
C 123.80 293.18 117.72 286.75 111.00 281.00
C 114.96 284.96 118.95 288.95 123.00 293.00 Z"/>
</g>
<g fill="#FFFFFF" fill-opacity="0.25" stroke="None">
<path d="
M 369.00 306.00 
C 365.28 308.34 362.17 314.47 363.00 319.00
C 363.00 319.00 363.91 318.80 364.00 319.00
C 363.76 312.65 366.94 310.90 371.00 307.00
C 371.21 304.60 370.25 305.70 369.00 306.00 Z"/>
</g>
<g fill="#FFFFFF" fill-opacity="0.74" stroke="None">
<path d="
M 363.00 319.00 
C 362.17 314.47 365.28 308.34 369.00 306.00
C 364.46 307.11 358.66 314.80 363.00 319.00 Z"/>
</g>
<g fill="#FFFFFF" fill-opacity="0.53" stroke="None">
<path d="
M 142.00 341.00 
C 140.89 346.57 138.97 351.38 138.00 357.00
C 144.69 354.93 141.77 345.10 145.00 340.00
C 144.11 340.06 142.58 340.18 142.00 341.00 Z"/>
</g>
<g fill="#FFFFFF" fill-opacity="0.40" stroke="None">
<path d="
M 378.00 375.00 
C 376.80 368.81 375.30 365.34 374.00 360.00
C 373.87 361.60 372.29 364.40 374.22 367.78 C 376.16 371.15 376.82 372.65 378.00 375.00 Z"/>
</g>
<g fill="#FFFFFF" fill-opacity="0.53" stroke="None">
<path d="
M 136.00 370.00 
C 135.15 372.66 134.77 375.32 134.00 378.00
C 135.65 376.55 137.72 370.64 136.00 369.00
C 136.00 369.00 136.15 369.55 136.00 370.00 Z"/>
</g>
<g fill="#FFFFFF" fill-opacity="0.13" stroke="None">
<path d="
M 133.00 378.00 
C 133.00 378.00 133.72 378.25 134.00 378.00
C 134.77 375.32 135.15 372.66 136.00 370.00
C 133.01 371.48 133.54 374.62 133.00 378.00 Z"/>
</g>
<g fill="#FFFFFF" fill-opacity="0.60" stroke="None">
<path d="
M 379.00 382.00 
C 378.81 381.58 379.02 380.50 379.00 380.00
C 375.16 379.87 377.50 387.22 380.00 387.00
C 380.36 385.09 379.73 383.61 379.00 382.00 Z"/>
</g>
<g fill="#FFFFFF" fill-opacity="0.49" stroke="None">
<path d="
M 132.00 386.00 
C 131.97 386.12 129.65 386.66 130.02 387.98 C 130.39 389.29 131.20 390.30 131.00 391.00
C 133.43 392.56 133.50 385.92 134.00 384.00
C 133.04 384.38 132.62 385.33 132.00 386.00 Z"/>
</g>
<g fill="#FFFFFF" fill-opacity="0.40" stroke="None">
<path d="
M 257.00 392.00 
C 258.20 394.92 261.57 395.56 264.00 397.00
C 262.47 394.96 261.84 390.94 257.00 392.00 Z"/>
</g>
<g fill="#FFFFFF" fill-opacity="0.40" stroke="None">
<path d="
M 235.00 405.00 
C 236.82 403.92 238.37 401.96 240.00 401.00
C 239.33 401.13 236.74 399.39 235.80 401.75 C 234.86 404.12 236.63 403.13 235.00 405.00 Z"/>
</g>
<g fill="#FFFFFF" fill-opacity="0.64" stroke="None">
<path d="
M 389.00 424.00 
C 388.83 422.23 388.22 420.23 388.00 419.00
C 386.56 419.06 387.26 417.08 386.00 417.00
C 386.74 420.90 386.57 427.37 390.00 429.00
C 390.82 427.18 389.15 425.50 389.00 424.00 Z"/>
</g>
<g fill="#FFFFFF" fill-opacity="0.43" stroke="None">
<path d="
M 186.00 435.00 
C 193.45 430.89 200.53 425.31 207.00 421.00
C 197.46 424.31 192.19 427.76 186.00 435.00 Z"/>
</g>
<g fill="#FFFFFF" fill-opacity="0.64" stroke="None">
<path d="
M 394.00 445.00 
C 393.85 444.02 394.14 442.98 394.00 442.00
C 390.13 440.25 392.27 451.56 396.00 451.00
C 395.40 449.09 394.29 446.94 394.00 445.00 Z"/>
</g>
<g fill="#FFFFFF" fill-opacity="0.72" stroke="None">
<path d="
M 344.00 444.00 
C 347.13 445.76 349.43 448.28 353.00 449.00
C 352.20 447.15 345.16 442.79 344.00 444.00 Z"/>
</g>
<g fill="#FFFFFF" fill-opacity="0.47" stroke="None">
<path d="
M 162.00 450.00 
C 164.68 448.57 165.97 446.32 168.00 445.00
C 165.93 445.39 165.08 443.96 162.76 445.75 C 160.43 447.55 162.65 449.09 162.00 450.00 Z"/>
</g>
<g fill="#FFFFFF" fill-opacity="0.22" stroke="None">
<path d="
M 344.00 445.00 
C 345.38 448.06 349.95 449.77 353.00 450.00
C 353.00 450.00 353.18 449.42 353.00 449.00
C 349.43 448.28 347.13 445.76 344.00 444.00
C 344.00 444.00 343.81 444.59 344.00 445.00 Z"/>
</g>
<g fill="#FFFFFF" fill-opacity="0.64" stroke="None">
<path d="
M 117.00 450.00 
C 115.57 451.78 116.45 454.23 115.00 456.00
C 121.24 455.91 117.07 447.73 117.00 447.00
C 116.97 447.97 117.14 449.04 117.00 450.00 Z"/>
</g>
<g fill="#FFFFFF" fill-opacity="0.47" stroke="None">
<path d="
M 369.00 460.00 
C 370.63 461.02 372.04 462.92 374.00 464.00
C 375.91 460.51 370.05 458.98 368.00 457.00
C 367.81 458.20 368.47 459.04 369.00 460.00 Z"/>
</g>
<g fill="#FFFFFF" fill-opacity="0.74" stroke="None">
<path d="
M 383.00 467.00 
C 381.95 464.37 378.97 463.72 377.00 462.00
C 377.17 464.69 380.20 467.49 383.00 467.00 Z"/>
</g>
<g fill="#FFFFFF" fill-opacity="0.45" stroke="None">
<path d="
M 121.00 474.00 
C 123.06 472.79 125.43 471.07 127.00 470.00
C 129.03 464.48 120.28 474.92 121.00 474.00 Z"/>
</g>
<g fill="#FFFFFF" fill-opacity="0.45" stroke="None">
<path d="
M 398.00 478.00 
C 399.09 478.54 400.77 478.70 402.00 479.00
C 402.11 478.00 401.53 476.27 403.00 476.00
C 402.85 474.40 401.53 472.53 401.00 471.00
C 397.12 469.02 401.31 474.94 400.00 477.00
C 397.32 475.78 394.43 474.98 398.00 478.00 Z"/>
</g>
<g fill="#FFFFFF" fill-opacity="0.20" stroke="None">
<path d="
M 398.00 478.00 
C 398.00 478.00 397.77 478.85 398.00 479.00
C 400.19 478.43 400.86 481.52 403.00 481.00
C 402.88 479.34 403.16 477.65 403.00 476.00
C 401.53 476.27 402.11 478.00 402.00 479.00
C 400.77 478.70 399.09 478.54 398.00 478.00 Z"/>
</g>
</svg>