<svg xmlns="http://www.w3.org/2000/svg" xmlns:v="https://svgstorm.com"
viewBox = "0 0 512 512"
width="512"
height="512">
<g fill="None" fill-opacity="0.0" stroke="#000000" stroke-opacity="0.00" stroke-width="0.3"><path d="
M 0.00 512.00 
L 512.00 512.00
L 512.00 0.00
L 0.00 0.00
L 0.00 512.00
M 334.00 122.00 
C 342.28 122.00 350.74 122.71 359.00 122.00 C 367.26 121.29 376.92 123.79 385.00 122.00
C 391.31 119.95 395.23 110.00 401.25 106.25 C 407.27 102.49 411.01 94.28 416.92 89.92 C 422.82 85.56 427.90 77.56 434.00 74.00
C 434.20 73.68 434.68 73.20 435.00 73.00
C 439.07 64.41 450.11 57.49 457.00 51.00
C 457.50 48.59 463.35 42.97 465.00 41.00
C 467.69 37.79 472.59 32.58 477.00 32.00
C 478.94 30.98 486.83 29.65 488.00 32.00
C 491.86 31.74 498.47 40.42 499.00 44.00
C 499.54 47.63 498.39 50.86 497.00 54.00
C 494.18 60.38 487.44 65.25 482.25 70.25 C 477.06 75.25 472.49 81.24 467.08 86.08 C 461.67 90.93 456.87 96.81 451.75 101.75 C 446.62 106.68 440.82 112.03 435.77 116.77 C 430.72 121.51 425.74 128.80 420.25 132.25 C 414.76 135.71 410.42 147.34 404.00 148.00
C 404.00 173.31 401.72 199.81 404.00 225.00
C 404.00 224.96 405.00 225.00 405.00 225.00
C 409.59 229.44 404.66 241.13 406.00 248.00 C 407.34 254.87 405.41 265.35 406.00 273.00 C 406.59 280.65 405.75 290.03 406.00 298.00 C 406.25 305.97 405.93 314.95 406.00 323.00 C 406.07 331.05 406.08 338.95 406.00 347.00 C 405.92 355.05 406.27 364.02 406.00 372.00 C 405.73 379.98 406.64 389.34 406.00 397.00 C 405.36 404.66 407.43 415.10 406.00 422.00 C 404.57 428.90 409.65 441.50 405.00 446.00
C 404.74 446.25 404.00 446.00 404.00 446.00
C 404.00 446.99 404.05 448.01 404.00 449.00
C 403.48 459.01 391.31 466.95 382.00 463.00
C 380.51 462.37 380.24 462.14 379.00 461.00
C 374.95 458.61 368.86 454.27 368.00 447.00
C 367.22 440.39 368.36 433.68 368.00 427.00 C 367.64 420.32 368.18 413.75 368.00 407.00 C 367.82 400.25 368.13 392.74 368.00 386.00 C 367.87 379.26 368.17 372.67 368.00 366.00 C 367.83 359.33 368.33 352.60 368.00 346.00 C 367.67 339.40 368.67 331.38 368.00 325.00 C 367.33 318.62 369.53 310.79 368.00 305.00 C 366.47 299.21 371.24 288.63 368.00 284.00
C 362.67 284.00 357.33 284.00 352.00 284.00
C 351.50 284.00 350.08 283.81 350.00 284.00
C 346.50 291.88 351.54 303.21 350.00 312.00 C 348.46 320.79 350.74 331.85 350.00 341.00 C 349.26 350.15 350.37 359.69 350.00 369.00 C 349.63 378.31 350.28 388.68 350.00 398.00 C 349.72 407.32 350.38 416.79 350.00 426.00 C 349.62 435.21 351.60 445.13 348.00 453.00
C 344.31 461.06 337.67 464.92 329.00 463.00
C 324.96 462.10 321.87 460.98 319.00 458.00
C 306.47 444.97 316.33 418.71 314.00 400.00 C 311.67 381.29 314.91 356.97 314.00 337.00 C 313.09 317.03 314.08 294.54 314.00 274.00 C 313.92 253.46 313.31 231.80 314.00 211.00 C 314.69 190.20 312.12 167.81 314.00 147.00
C 303.81 138.74 295.91 128.71 286.10 119.90 C 276.29 111.09 268.17 100.29 257.92 92.08 C 247.67 83.88 241.46 70.99 230.23 63.77 C 219.00 56.55 214.27 33.18 233.00 31.00
C 234.54 30.82 236.45 30.86 238.00 31.00
C 247.45 31.85 253.18 40.73 259.30 46.70 C 265.41 52.68 271.81 58.60 277.75 65.25 C 283.70 71.90 291.74 77.73 297.08 83.92 C 302.42 90.10 310.87 96.30 315.25 102.75 C 319.63 109.20 332.64 114.44 334.00 122.00
M 368.00 47.00 
C 377.26 50.59 386.42 54.03 389.00 65.00
C 389.11 65.47 389.00 66.00 389.00 66.00
C 396.05 68.88 393.15 85.29 391.01 91.01 C 388.87 96.73 381.24 104.80 375.00 107.00
C 374.13 107.31 373.25 107.74 372.00 108.00
C 368.98 109.33 367.18 111.61 363.00 112.00
C 360.60 112.22 356.59 112.64 355.00 111.00
C 351.36 110.56 350.10 109.93 348.00 109.00
C 335.56 103.51 332.00 98.12 327.00 86.00
C 326.82 85.57 327.00 85.00 327.00 85.00
C 317.60 71.08 336.73 51.64 349.00 47.00
C 351.24 46.15 352.49 45.40 355.00 45.00
C 357.34 44.63 361.70 44.43 364.00 45.00
C 365.40 45.35 366.75 46.19 368.00 47.00
M 155.00 169.00 
C 158.86 170.09 162.89 171.66 166.00 174.00
C 169.25 176.44 172.76 179.66 175.00 183.00
C 183.06 194.99 181.35 210.74 173.00 221.00
C 171.25 224.27 168.70 225.82 166.00 228.00
C 164.62 229.11 163.80 230.09 162.00 231.00
C 158.46 232.78 152.92 234.55 149.00 235.00
C 147.82 235.14 146.18 235.17 145.00 235.00
C 142.88 234.69 138.47 233.14 137.00 232.00
C 124.41 227.81 117.76 220.34 115.00 207.00
C 114.52 204.68 113.80 201.97 114.00 199.00
C 114.64 189.57 120.57 177.57 129.00 173.00
C 129.72 172.61 131.14 172.40 132.00 172.00
C 133.07 171.50 133.39 171.00 135.00 171.00
C 137.15 170.46 139.00 168.44 141.00 168.00
C 145.27 167.07 151.46 168.00 155.00 169.00
M 187.00 244.00 
C 187.95 244.41 188.73 244.67 190.00 245.00
C 195.57 246.45 200.78 249.98 204.75 254.25 C 208.72 258.51 212.82 262.21 216.75 266.25 C 220.68 270.29 225.48 274.64 228.90 278.10 C 232.32 281.56 237.98 287.46 240.75 290.25 C 243.52 293.03 252.57 301.48 252.00 302.00
C 255.37 312.33 266.66 315.75 273.75 324.25 C 280.85 332.74 280.37 346.14 268.00 351.00
C 267.57 351.17 266.48 350.91 266.00 351.00
C 262.65 351.61 262.72 352.40 258.00 351.00
C 256.64 350.60 256.08 350.54 255.00 350.00
C 253.75 349.38 252.96 348.75 252.00 348.00
C 245.11 342.62 240.05 335.27 233.25 329.75 C 226.44 324.23 221.56 316.04 214.75 311.25 C 207.93 306.47 202.72 295.52 196.00 292.00
C 195.06 291.76 193.95 292.19 193.00 292.00
C 198.43 302.33 191.98 317.27 194.00 329.00 C 196.02 340.73 192.48 355.95 194.00 368.00
C 218.20 369.19 243.65 365.52 267.00 370.00
C 270.54 371.81 272.49 374.40 274.00 378.00
C 274.49 379.17 274.86 379.67 275.00 381.00
C 275.72 382.33 278.07 382.11 276.00 385.00
C 278.32 384.44 278.21 387.50 278.00 389.00
C 277.91 389.63 277.24 391.40 277.00 392.00
C 272.21 403.81 259.27 414.34 249.75 423.75 C 240.22 433.15 229.44 444.93 219.30 453.30 C 209.17 461.68 200.80 479.29 187.00 481.00
C 183.13 481.48 179.63 480.56 176.00 480.00
C 176.00 468.33 176.00 456.67 176.00 445.00
C 176.00 444.50 176.00 444.00 176.00 444.00
C 176.00 443.50 176.00 443.00 176.00 443.00
C 176.00 442.50 176.00 442.00 176.00 442.00
C 181.77 430.21 198.34 423.43 205.00 413.00
C 205.75 411.50 205.65 410.61 206.00 409.00
C 201.84 408.99 194.88 409.68 191.00 409.00 C 187.12 408.32 178.18 411.11 176.00 408.00
C 174.43 405.76 177.18 400.51 176.00 398.00
C 167.67 398.00 159.33 398.00 151.00 398.00
C 151.00 401.33 151.00 404.67 151.00 408.00
C 148.17 412.04 129.73 407.30 129.00 408.00
C 131.94 400.95 142.74 394.26 148.00 389.00
C 156.81 378.69 167.32 369.35 177.00 360.00
C 165.16 348.09 154.31 335.23 142.00 324.00
C 131.21 334.20 120.29 345.21 109.00 355.00
C 108.11 355.89 100.99 363.72 101.00 362.00
C 98.13 358.85 102.16 349.74 101.00 345.00 C 99.84 340.26 101.42 332.40 101.00 327.00 C 100.58 321.60 100.96 314.66 101.00 309.00 C 101.04 303.34 100.48 296.70 101.00 291.00
C 94.67 290.08 89.55 302.64 83.75 305.75 C 77.95 308.87 74.07 319.61 67.00 321.00
C 60.90 322.20 52.18 321.33 46.00 321.00 C 39.82 320.67 30.71 323.09 25.00 321.00
C 22.12 319.94 31.68 311.41 34.92 307.92 C 38.16 304.43 45.36 298.44 49.25 294.25 C 53.13 290.05 58.22 285.00 62.70 280.70 C 67.18 276.40 72.01 270.98 76.70 266.70 C 81.39 262.43 85.46 257.50 89.92 252.92 C 94.38 248.34 102.33 244.16 108.00 243.00
C 108.90 242.82 110.08 243.00 111.00 243.00
C 123.10 243.00 137.09 241.82 149.00 243.00 C 160.91 244.18 176.53 239.51 187.00 244.00
M 87.00 327.00 
C 87.00 330.33 87.00 333.67 87.00 337.00
C 66.00 337.00 45.00 337.00 24.00 337.00
C 24.00 381.67 24.00 426.33 24.00 471.00
C 68.67 471.00 113.33 471.00 158.00 471.00
C 158.00 448.33 158.00 425.67 158.00 403.00
C 161.33 403.00 164.67 403.00 168.00 403.00
C 168.00 429.00 168.00 455.00 168.00 481.00
C 116.67 481.00 65.33 481.00 14.00 481.00
C 14.00 429.67 14.00 378.33 14.00 327.00
C 38.33 327.00 62.67 327.00 87.00 327.00
M 141.00 334.00 
C 148.84 342.66 157.38 351.22 166.00 359.00
C 163.09 364.35 157.35 370.13 152.00 373.00
C 145.46 363.98 136.01 354.51 127.00 348.00
C 130.49 343.37 136.21 338.16 141.00 334.00
M 32.00 351.00 
C 30.47 348.67 33.15 343.58 32.00 341.00
C 36.67 341.00 41.33 341.00 46.00 341.00
C 49.78 342.29 35.06 355.65 32.00 351.00
M 124.00 352.00 
C 131.93 360.12 139.78 369.90 149.00 376.00
C 144.14 383.42 135.81 390.90 129.25 397.25 C 122.68 403.60 115.39 412.08 108.75 417.75 C 102.12 423.43 94.77 437.53 87.25 430.75 C 79.73 423.98 73.75 416.27 66.00 410.00
C 83.53 389.98 104.00 369.50 124.00 352.00
M 85.00 378.00 
C 80.39 382.61 76.50 386.81 71.25 391.25 C 65.99 395.68 63.37 401.51 56.75 404.75 C 50.13 408.00 52.34 420.87 48.00 424.00
C 46.58 425.02 32.75 411.83 32.00 409.00
C 31.88 408.53 32.00 408.00 32.00 408.00
C 32.00 402.20 31.10 394.62 32.00 389.00 C 32.90 383.38 29.60 374.96 32.00 370.00
C 34.32 365.21 45.02 368.84 51.00 368.00 C 56.98 367.16 66.37 368.44 73.00 368.00 C 79.63 367.56 88.20 368.33 95.00 368.00
C 92.13 371.64 88.64 375.23 85.00 378.00
M 86.00 440.00 
C 71.98 443.78 58.52 449.56 45.00 455.00
C 49.14 440.78 55.81 427.28 60.00 413.00
C 68.18 420.98 79.87 430.69 86.00 440.00
M 130.00 456.00 
C 130.02 456.50 129.83 457.57 130.00 458.00
C 130.87 460.15 131.56 464.63 129.00 466.00
C 124.54 468.38 114.24 465.68 109.00 466.00 C 103.76 466.32 94.07 467.52 89.00 466.00
C 86.08 465.13 82.60 459.94 80.75 458.25 C 78.90 456.56 72.75 451.70 74.00 450.00
C 77.24 445.58 87.62 447.23 92.02 444.02 C 96.43 440.82 100.35 434.89 105.00 432.00
C 109.84 429.00 112.32 435.88 116.75 439.25 C 121.19 442.61 123.28 448.83 129.00 450.00
C 128.48 452.23 130.54 453.73 130.00 456.00 Z"/>
</g>
<g fill="None" fill-opacity="0.0" stroke="#7FA7BC" stroke-opacity="0.13" stroke-width="0.3"><path d="
M 314.00 147.00 
C 312.13 142.48 305.50 137.46 302.00 134.00
C 292.69 124.78 283.17 115.26 274.00 106.00
C 262.60 96.16 252.67 84.57 242.00 74.00
C 239.05 71.08 235.87 67.90 233.00 65.00
C 229.81 62.25 226.57 59.35 224.00 56.00
C 217.75 47.85 222.72 33.24 233.00 31.00
C 214.27 33.18 219.00 56.55 230.23 63.77 C 241.46 70.99 247.67 83.88 257.92 92.08 C 268.17 100.29 276.29 111.09 286.10 119.90 C 295.91 128.71 303.81 138.74 314.00 147.00 Z"/>
</g>
<g fill="None" fill-opacity="0.0" stroke="#FEFEFE" stroke-opacity="1.00" stroke-width="0.3"><path d="
M 224.00 56.00 
C 229.60 61.49 237.36 66.78 242.75 73.25 C 248.14 79.72 255.26 84.94 260.75 91.25 C 266.25 97.56 274.04 103.44 279.25 109.75 C 284.45 116.06 292.97 121.28 297.25 127.75 C 301.53 134.22 314.20 139.46 315.00 147.00
C 316.86 167.72 314.01 189.24 315.00 210.00 C 315.99 230.76 314.21 252.35 315.00 273.00 C 315.79 293.65 313.88 315.71 315.00 336.00 C 316.12 356.29 312.82 379.53 315.00 399.00 C 317.18 418.47 308.56 441.82 319.00 458.00
C 321.87 460.98 324.96 462.10 329.00 463.00
C 336.38 462.86 344.98 457.28 348.00 453.00
C 351.60 445.13 349.62 435.21 350.00 426.00 C 350.38 416.79 349.72 407.32 350.00 398.00 C 350.28 388.68 349.63 378.31 350.00 369.00 C 350.37 359.69 349.26 350.15 350.00 341.00 C 350.74 331.85 348.46 320.79 350.00 312.00 C 351.54 303.21 346.50 291.88 350.00 284.00
C 349.07 280.96 356.68 282.12 359.00 282.00 C 361.32 281.88 367.34 282.09 370.00 282.00
C 370.00 337.00 370.00 392.00 370.00 447.00
C 370.80 453.01 374.86 457.19 379.00 461.00
C 380.24 462.14 380.51 462.37 382.00 463.00
C 389.45 464.34 396.47 458.73 401.00 453.00
C 408.08 440.82 401.13 423.18 403.00 409.00 C 404.87 394.82 402.16 377.81 403.00 363.00 C 403.84 348.19 402.63 332.09 403.00 317.00 C 403.37 301.91 402.86 286.21 403.00 271.00 C 403.14 255.79 403.00 240.24 403.00 225.00
C 403.00 216.94 402.42 206.86 403.00 199.00 C 403.58 191.14 401.45 180.12 403.00 173.00 C 404.55 165.88 399.13 151.69 404.00 147.00
C 415.62 138.86 424.91 126.02 435.25 116.25 C 445.58 106.47 456.89 95.87 466.25 85.25 C 475.61 74.62 489.87 65.75 497.00 54.00
C 498.39 50.86 499.54 47.63 499.00 44.00
C 497.79 39.12 490.95 35.14 487.00 33.00
C 483.69 33.04 480.41 33.23 477.00 33.00
C 473.02 35.13 469.20 38.80 466.00 42.00
C 463.25 44.75 460.49 48.09 458.00 51.00
C 449.52 60.92 440.70 67.93 431.75 77.75 C 422.80 87.58 413.78 94.14 404.75 104.75 C 395.72 115.37 384.93 125.49 370.00 123.00 C 355.07 120.51 333.55 127.48 324.25 114.75 C 314.94 102.02 306.23 99.20 297.75 88.25 C 289.27 77.30 278.16 71.84 270.75 61.25 C 263.35 50.66 248.82 45.56 244.00 34.00
C 241.95 33.52 239.59 31.35 238.00 31.00
C 236.45 30.86 234.54 30.82 233.00 31.00
C 222.72 33.24 217.75 47.85 224.00 56.00 Z"/>
</g>
<g fill="None" fill-opacity="0.0" stroke="#A1B9D0" stroke-opacity="0.06" stroke-width="0.3"><path d="
M 244.00 34.00 
C 244.47 34.11 245.00 34.00 245.00 34.00
C 256.64 39.69 264.10 54.41 274.25 62.75 C 284.39 71.10 294.47 82.68 303.75 92.25 C 313.03 101.81 325.40 111.14 333.00 122.00
C 333.40 122.20 334.00 122.00 334.00 122.00
C 332.64 114.44 319.63 109.20 315.25 102.75 C 310.87 96.30 302.42 90.10 297.08 83.92 C 291.74 77.73 283.70 71.90 277.75 65.25 C 271.81 58.60 265.41 52.68 259.30 46.70 C 253.18 40.73 247.45 31.85 238.00 31.00
C 239.59 31.35 241.95 33.52 244.00 34.00 Z"/>
</g>
<g fill="None" fill-opacity="0.0" stroke="#AFC2D4" stroke-opacity="0.47" stroke-width="0.3"><path d="
M 477.00 32.00 
C 476.79 32.11 477.00 33.00 477.00 33.00
C 480.41 33.23 483.69 33.04 487.00 33.00
C 487.17 33.00 487.66 32.02 488.00 32.00
C 486.83 29.65 478.94 30.98 477.00 32.00 Z"/>
</g>
<g fill="None" fill-opacity="0.0" stroke="#98B9CB" stroke-opacity="0.20" stroke-width="0.3"><path d="
M 465.00 41.00 
C 464.98 41.07 466.06 41.71 466.00 42.00
C 469.20 38.80 473.02 35.13 477.00 33.00
C 477.00 33.00 476.79 32.11 477.00 32.00
C 472.59 32.58 467.69 37.79 465.00 41.00 Z"/>
</g>
<g fill="None" fill-opacity="0.0" stroke="#92AFC4" stroke-opacity="0.25" stroke-width="0.3"><path d="
M 487.00 33.00 
C 490.95 35.14 497.79 39.12 499.00 44.00
C 498.47 40.42 491.86 31.74 488.00 32.00
C 487.66 32.02 487.17 33.00 487.00 33.00 Z"/>
</g>
<g fill="None" fill-opacity="0.0" stroke="#C5D5E4" stroke-opacity="0.58" stroke-width="0.3"><path d="
M 458.00 51.00 
C 457.84 51.23 457.00 51.00 457.00 51.00
C 452.00 58.16 442.38 68.44 435.00 73.00
C 434.68 73.20 434.20 73.68 434.00 74.00
C 428.92 82.22 417.50 92.01 410.25 98.25 C 402.99 104.48 394.05 119.99 385.00 122.00
C 376.92 123.79 367.26 121.29 359.00 122.00 C 350.74 122.71 342.28 122.00 334.00 122.00
C 334.00 122.00 333.40 122.20 333.00 122.00
C 321.36 116.31 313.90 101.59 303.75 93.25 C 293.61 84.90 283.53 73.32 274.25 63.75 C 264.97 54.19 252.60 44.86 245.00 34.00
C 245.00 34.00 244.47 34.11 244.00 34.00
C 248.82 45.56 263.35 50.66 270.75 61.25 C 278.16 71.84 289.27 77.30 297.75 88.25 C 306.23 99.20 314.94 102.02 324.25 114.75 C 333.55 127.48 355.07 120.51 370.00 123.00 C 384.93 125.49 395.72 115.37 404.75 104.75 C 413.78 94.14 422.80 87.58 431.75 77.75 C 440.70 67.93 449.52 60.92 458.00 51.00 Z"/>
</g>
<g fill="None" fill-opacity="0.0" stroke="#9EBAD1" stroke-opacity="0.29" stroke-width="0.3"><path d="
M 333.00 122.00 
C 325.40 111.14 313.03 101.81 303.75 92.25 C 294.47 82.68 284.39 71.10 274.25 62.75 C 264.10 54.41 256.64 39.69 245.00 34.00
C 252.60 44.86 264.97 54.19 274.25 63.75 C 283.53 73.32 293.61 84.90 303.75 93.25 C 313.90 101.59 321.36 116.31 333.00 122.00 Z"/>
</g>
<g fill="None" fill-opacity="0.0" stroke="#6C89A3" stroke-opacity="0.18" stroke-width="0.3"><path d="
M 457.00 51.00 
C 457.00 51.00 457.84 51.23 458.00 51.00
C 460.49 48.09 463.25 44.75 466.00 42.00
C 466.06 41.71 464.98 41.07 465.00 41.00
C 463.35 42.97 457.50 48.59 457.00 51.00 Z"/>
</g>
<g fill="None" fill-opacity="0.0" stroke="#FDFDFE" stroke-opacity="0.98" stroke-width="0.3"><path d="
M 349.00 47.00 
C 345.15 49.70 342.79 52.75 337.75 55.75 C 332.71 58.75 332.74 64.57 329.67 68.67 C 326.61 72.78 329.15 82.05 327.00 85.00
C 327.00 85.00 326.82 85.57 327.00 86.00
C 331.23 88.65 331.36 96.16 335.75 99.25 C 340.14 102.34 343.19 107.20 348.00 109.00
C 350.06 109.77 352.73 109.85 355.00 110.00
C 357.86 110.19 361.15 110.29 364.00 110.00
C 366.87 109.71 369.20 108.58 372.00 108.00
C 373.25 107.74 374.13 107.31 375.00 107.00
C 390.08 95.80 391.82 83.45 389.00 66.00
C 389.00 66.00 389.11 65.47 389.00 65.00
C 385.13 62.58 384.28 56.99 379.97 55.03 C 375.67 53.07 371.65 49.35 368.00 47.00
C 366.75 46.19 365.40 45.35 364.00 45.00
C 363.34 44.90 355.74 44.95 355.00 45.00
C 352.49 45.40 351.24 46.15 349.00 47.00 Z"/>
</g>
<g fill="None" fill-opacity="0.0" stroke="#33556A" stroke-opacity="0.05" stroke-width="0.3"><path d="
M 364.00 45.00 
C 361.70 44.43 357.34 44.63 355.00 45.00
C 355.74 44.95 363.34 44.90 364.00 45.00 Z"/>
</g>
<g fill="None" fill-opacity="0.0" stroke="#98B4CE" stroke-opacity="0.23" stroke-width="0.3"><path d="
M 327.00 85.00 
C 329.15 82.05 326.61 72.78 329.67 68.67 C 332.74 64.57 332.71 58.75 337.75 55.75 C 342.79 52.75 345.15 49.70 349.00 47.00
C 336.73 51.64 317.60 71.08 327.00 85.00 Z"/>
</g>
<g fill="None" fill-opacity="0.0" stroke="#93B1C7" stroke-opacity="0.25" stroke-width="0.3"><path d="
M 389.00 65.00 
C 386.42 54.03 377.26 50.59 368.00 47.00
C 371.65 49.35 375.67 53.07 379.97 55.03 C 384.28 56.99 385.13 62.58 389.00 65.00 Z"/>
</g>
<g fill="None" fill-opacity="0.0" stroke="#B2CEDF" stroke-opacity="0.09" stroke-width="0.3"><path d="
M 435.00 73.00 
C 442.38 68.44 452.00 58.16 457.00 51.00
C 450.11 57.49 439.07 64.41 435.00 73.00 Z"/>
</g>
<g fill="None" fill-opacity="0.0" stroke="#5E8398" stroke-opacity="0.12" stroke-width="0.3"><path d="
M 404.00 147.00 
C 403.77 147.16 404.00 148.00 404.00 148.00
C 410.42 147.34 414.76 135.71 420.25 132.25 C 425.74 128.80 430.72 121.51 435.77 116.77 C 440.82 112.03 446.62 106.68 451.75 101.75 C 456.87 96.81 461.67 90.93 467.08 86.08 C 472.49 81.24 477.06 75.25 482.25 70.25 C 487.44 65.25 494.18 60.38 497.00 54.00
C 489.87 65.75 475.61 74.62 466.25 85.25 C 456.89 95.87 445.58 106.47 435.25 116.25 C 424.91 126.02 415.62 138.86 404.00 147.00 Z"/>
</g>
<g fill="None" fill-opacity="0.0" stroke="#DFEAF2" stroke-opacity="0.75" stroke-width="0.3"><path d="
M 233.00 65.00 
C 236.24 67.80 239.25 70.81 242.00 74.00
C 252.67 84.57 262.60 96.16 274.00 106.00
C 283.79 114.45 293.59 124.26 302.00 134.00
C 305.50 137.46 312.13 142.48 314.00 147.00
C 314.07 147.18 315.00 147.00 315.00 147.00
C 314.20 139.46 301.53 134.22 297.25 127.75 C 292.97 121.28 284.45 116.06 279.25 109.75 C 274.04 103.44 266.25 97.56 260.75 91.25 C 255.26 84.94 248.14 79.72 242.75 73.25 C 237.36 66.78 229.60 61.49 224.00 56.00
C 226.57 59.35 229.81 62.25 233.00 65.00 Z"/>
</g>
<g fill="None" fill-opacity="0.0" stroke="#B6CBDD" stroke-opacity="0.48" stroke-width="0.3"><path d="
M 242.00 74.00 
C 239.25 70.81 236.24 67.80 233.00 65.00
C 235.87 67.90 239.05 71.08 242.00 74.00 Z"/>
</g>
<g fill="None" fill-opacity="0.0" stroke="#87A8C4" stroke-opacity="0.19" stroke-width="0.3"><path d="
M 375.00 107.00 
C 381.24 104.80 388.87 96.73 391.01 91.01 C 393.15 85.29 396.05 68.88 389.00 66.00
C 391.82 83.45 390.08 95.80 375.00 107.00 Z"/>
</g>
<g fill="None" fill-opacity="0.0" stroke="#527A90" stroke-opacity="0.10" stroke-width="0.3"><path d="
M 385.00 122.00 
C 394.05 119.99 402.99 104.48 410.25 98.25 C 417.50 92.01 428.92 82.22 434.00 74.00
C 427.90 77.56 422.82 85.56 416.92 89.92 C 411.01 94.28 407.27 102.49 401.25 106.25 C 395.23 110.00 391.31 119.95 385.00 122.00 Z"/>
</g>
<g fill="None" fill-opacity="0.0" stroke="#92B0C5" stroke-opacity="0.20" stroke-width="0.3"><path d="
M 348.00 109.00 
C 343.19 107.20 340.14 102.34 335.75 99.25 C 331.36 96.16 331.23 88.65 327.00 86.00
C 332.00 98.12 335.56 103.51 348.00 109.00 Z"/>
</g>
<g fill="None" fill-opacity="0.0" stroke="#B4C9DB" stroke-opacity="0.47" stroke-width="0.3"><path d="
M 302.00 134.00 
C 293.59 124.26 283.79 114.45 274.00 106.00
C 283.17 115.26 292.69 124.78 302.00 134.00 Z"/>
</g>
<g fill="None" fill-opacity="0.0" stroke="#7FA8BF" stroke-opacity="0.10" stroke-width="0.3"><path d="
M 364.00 110.00 
C 363.62 110.22 363.26 111.88 363.00 112.00
C 367.18 111.61 368.98 109.33 372.00 108.00
C 369.20 108.58 366.87 109.71 364.00 110.00 Z"/>
</g>
<g fill="None" fill-opacity="0.0" stroke="#6281B6" stroke-opacity="0.07" stroke-width="0.3"><path d="
M 355.00 111.00 
C 354.75 110.74 355.00 110.00 355.00 110.00
C 352.73 109.85 350.06 109.77 348.00 109.00
C 350.10 109.93 351.36 110.56 355.00 111.00 Z"/>
</g>
<g fill="None" fill-opacity="0.0" stroke="#CEDEEC" stroke-opacity="0.40" stroke-width="0.3"><path d="
M 355.00 111.00 
C 356.59 112.64 360.60 112.22 363.00 112.00
C 363.26 111.88 363.62 110.22 364.00 110.00
C 361.15 110.29 357.86 110.19 355.00 110.00
C 355.00 110.00 354.75 110.74 355.00 111.00 Z"/>
</g>
<g fill="None" fill-opacity="0.0" stroke="#738DA3" stroke-opacity="0.27" stroke-width="0.3"><path d="
M 319.00 458.00 
C 308.56 441.82 317.18 418.47 315.00 399.00 C 312.82 379.53 316.12 356.29 315.00 336.00 C 313.88 315.71 315.79 293.65 315.00 273.00 C 314.21 252.35 315.99 230.76 315.00 210.00 C 314.01 189.24 316.86 167.72 315.00 147.00
C 315.00 147.00 314.07 147.18 314.00 147.00
C 312.12 167.81 314.69 190.20 314.00 211.00 C 313.31 231.80 313.92 253.46 314.00 274.00 C 314.08 294.54 313.09 317.03 314.00 337.00 C 314.91 356.97 311.67 381.29 314.00 400.00 C 316.33 418.71 306.47 444.97 319.00 458.00 Z"/>
</g>
<g fill="None" fill-opacity="0.0" stroke="#CDD6DE" stroke-opacity="0.74" stroke-width="0.3"><path d="
M 403.00 225.00 
C 403.00 224.96 404.00 225.00 404.00 225.00
C 401.72 199.81 404.00 173.31 404.00 148.00
C 404.00 148.00 403.77 147.16 404.00 147.00
C 399.13 151.69 404.55 165.88 403.00 173.00 C 401.45 180.12 403.58 191.14 403.00 199.00 C 402.42 206.86 403.00 216.94 403.00 225.00 Z"/>
</g>
<g fill="None" fill-opacity="0.0" stroke="#B4C8D8" stroke-opacity="0.50" stroke-width="0.3"><path d="
M 135.00 171.00 
C 136.95 171.00 138.89 170.38 141.00 170.00
C 140.82 170.30 140.13 168.51 141.00 168.00
C 139.00 168.44 137.15 170.46 135.00 171.00 Z"/>
</g>
<g fill="None" fill-opacity="0.0" stroke="#C8D7E8" stroke-opacity="0.34" stroke-width="0.3"><path d="
M 141.00 170.00 
C 145.49 169.20 150.45 170.41 155.00 170.00
C 154.78 169.88 155.00 169.00 155.00 169.00
C 151.46 168.00 145.27 167.07 141.00 168.00
C 140.13 168.51 140.82 170.30 141.00 170.00 Z"/>
</g>
<g fill="None" fill-opacity="0.0" stroke="#91B0C5" stroke-opacity="0.24" stroke-width="0.3"><path d="
M 155.00 170.00 
C 160.59 173.21 165.84 174.73 170.00 180.00
C 172.85 182.85 175.46 185.16 177.00 189.00
C 181.46 200.08 177.58 212.43 173.00 221.00
C 181.35 210.74 183.06 194.99 175.00 183.00
C 172.80 180.21 168.64 176.33 166.00 174.00
C 162.89 171.66 158.86 170.09 155.00 169.00
C 155.00 169.00 154.78 169.88 155.00 170.00 Z"/>
</g>
<g fill="None" fill-opacity="0.0" stroke="#FDFDFE" stroke-opacity="0.99" stroke-width="0.3"><path d="
M 135.00 171.00 
C 133.39 171.00 133.07 171.50 132.00 172.00
C 131.15 172.93 128.50 175.89 126.00 178.00
C 120.78 184.05 115.49 191.29 114.00 199.00
C 113.80 201.97 114.52 204.68 115.00 207.00
C 118.53 216.56 126.15 228.19 137.00 231.00
C 139.32 231.60 143.07 232.73 145.00 233.00
C 146.27 233.18 147.71 233.00 149.00 233.00
C 152.33 232.54 156.17 230.14 160.00 230.00
C 160.50 229.98 161.00 230.00 161.00 230.00
C 162.60 227.54 165.21 225.62 168.00 225.00
C 167.70 226.25 166.17 226.71 166.00 228.00
C 168.70 225.82 171.25 224.27 173.00 221.00
C 177.58 212.43 181.46 200.08 177.00 189.00
C 175.55 186.19 172.11 182.67 170.00 180.00
C 165.84 174.73 160.59 173.21 155.00 170.00
C 150.45 170.41 145.49 169.20 141.00 170.00
C 138.89 170.38 136.95 171.00 135.00 171.00 Z"/>
</g>
<g fill="None" fill-opacity="0.0" stroke="#BBCEDF" stroke-opacity="0.43" stroke-width="0.3"><path d="
M 129.00 173.00 
C 128.31 173.54 126.86 177.00 126.00 178.00
C 128.50 175.89 131.15 172.93 132.00 172.00
C 131.14 172.40 129.72 172.61 129.00 173.00 Z"/>
</g>
<g fill="None" fill-opacity="0.0" stroke="#85A4BC" stroke-opacity="0.18" stroke-width="0.3"><path d="
M 114.00 199.00 
C 115.49 191.29 120.78 184.05 126.00 178.00
C 126.86 177.00 128.31 173.54 129.00 173.00
C 120.57 177.57 114.64 189.57 114.00 199.00 Z"/>
</g>
<g fill="None" fill-opacity="0.0" stroke="#6981A1" stroke-opacity="0.05" stroke-width="0.3"><path d="
M 175.00 183.00 
C 172.76 179.66 169.25 176.44 166.00 174.00
C 168.64 176.33 172.80 180.21 175.00 183.00 Z"/>
</g>
<g fill="None" fill-opacity="0.0" stroke="#DCE7F2" stroke-opacity="0.71" stroke-width="0.3"><path d="
M 177.00 189.00 
C 175.46 185.16 172.85 182.85 170.00 180.00
C 172.11 182.67 175.55 186.19 177.00 189.00 Z"/>
</g>
<g fill="None" fill-opacity="0.0" stroke="#93ACC2" stroke-opacity="0.24" stroke-width="0.3"><path d="
M 137.00 232.00 
C 136.76 231.81 137.00 231.00 137.00 231.00
C 126.15 228.19 118.53 216.56 115.00 207.00
C 117.76 220.34 124.41 227.81 137.00 232.00 Z"/>
</g>
<g fill="None" fill-opacity="0.0" stroke="#B3D0DF" stroke-opacity="0.44" stroke-width="0.3"><path d="
M 161.00 230.00 
C 161.35 230.03 161.80 230.98 162.00 231.00
C 163.80 230.09 164.62 229.11 166.00 228.00
C 166.17 226.71 167.70 226.25 168.00 225.00
C 165.21 225.62 162.60 227.54 161.00 230.00 Z"/>
</g>
<g fill="None" fill-opacity="0.0" stroke="#E7EFF5" stroke-opacity="0.84" stroke-width="0.3"><path d="
M 401.00 453.00 
C 401.93 451.82 403.71 450.43 404.00 449.00
C 404.05 448.01 404.00 446.99 404.00 446.00
C 404.00 409.35 405.25 372.65 404.00 336.00 C 402.75 299.35 407.30 261.53 404.00 225.00
C 404.00 225.00 403.00 224.96 403.00 225.00
C 403.00 240.24 403.14 255.79 403.00 271.00 C 402.86 286.21 403.37 301.91 403.00 317.00 C 402.63 332.09 403.84 348.19 403.00 363.00 C 402.16 377.81 404.87 394.82 403.00 409.00 C 401.13 423.18 408.08 440.82 401.00 453.00 Z"/>
</g>
<g fill="None" fill-opacity="0.0" stroke="#A6C0D7" stroke-opacity="0.31" stroke-width="0.3"><path d="
M 404.00 446.00 
C 404.00 446.00 404.74 446.25 405.00 446.00
C 408.27 409.88 405.02 372.33 405.00 336.00 C 404.98 299.67 408.24 261.21 405.00 225.00
C 405.00 225.00 404.00 224.96 404.00 225.00
C 407.30 261.53 402.75 299.35 404.00 336.00 C 405.25 372.65 404.00 409.35 404.00 446.00 Z"/>
</g>
<g fill="None" fill-opacity="0.0" stroke="#B5B5DA" stroke-opacity="0.03" stroke-width="0.3"><path d="
M 405.00 446.00 
C 409.65 441.50 404.57 428.90 406.00 422.00 C 407.43 415.10 405.36 404.66 406.00 397.00 C 406.64 389.34 405.73 379.98 406.00 372.00 C 406.27 364.02 405.92 355.05 406.00 347.00 C 406.08 338.95 406.07 331.05 406.00 323.00 C 405.93 314.95 406.25 305.97 406.00 298.00 C 405.75 290.03 406.59 280.65 406.00 273.00 C 405.41 265.35 407.34 254.87 406.00 248.00 C 404.66 241.13 409.59 229.44 405.00 225.00
C 408.24 261.21 404.98 299.67 405.00 336.00 C 405.02 372.33 408.27 409.88 405.00 446.00 Z"/>
</g>
<g fill="None" fill-opacity="0.0" stroke="#D8E3EC" stroke-opacity="0.75" stroke-width="0.3"><path d="
M 149.00 233.00 
C 149.50 233.00 150.00 233.00 150.00 233.00
C 153.35 232.92 157.56 231.98 160.00 230.00
C 156.17 230.14 152.33 232.54 149.00 233.00 Z"/>
</g>
<g fill="None" fill-opacity="0.0" stroke="#7CA4BD" stroke-opacity="0.14" stroke-width="0.3"><path d="
M 150.00 233.00 
C 149.95 232.95 148.95 235.02 149.00 235.00
C 152.92 234.55 158.46 232.78 162.00 231.00
C 161.80 230.98 161.35 230.03 161.00 230.00
C 161.00 230.00 160.50 229.98 160.00 230.00
C 157.56 231.98 153.35 232.92 150.00 233.00 Z"/>
</g>
<g fill="None" fill-opacity="0.0" stroke="#A4BDCC" stroke-opacity="0.44" stroke-width="0.3"><path d="
M 137.00 232.00 
C 138.47 233.14 142.88 234.69 145.00 235.00
C 144.76 234.68 145.25 233.28 145.00 233.00
C 143.07 232.73 139.32 231.60 137.00 231.00
C 137.00 231.00 136.76 231.81 137.00 232.00 Z"/>
</g>
<g fill="None" fill-opacity="0.0" stroke="#BED5E7" stroke-opacity="0.27" stroke-width="0.3"><path d="
M 145.00 235.00 
C 146.18 235.17 147.82 235.14 149.00 235.00
C 148.95 235.02 149.95 232.95 150.00 233.00
C 150.00 233.00 149.50 233.00 149.00 233.00
C 147.71 233.00 146.27 233.18 145.00 233.00
C 145.25 233.28 144.76 234.68 145.00 235.00 Z"/>
</g>
<g fill="None" fill-opacity="0.0" stroke="#A0B9D4" stroke-opacity="0.21" stroke-width="0.3"><path d="
M 25.00 321.00 
C 29.68 319.85 33.08 310.53 37.75 307.75 C 42.43 304.97 46.26 298.44 50.75 294.75 C 55.25 291.06 59.33 285.92 63.75 281.75 C 68.18 277.59 72.34 273.28 76.75 268.75 C 81.16 264.22 85.30 260.77 89.75 255.75 C 94.20 250.73 100.14 246.54 107.00 246.00
C 107.94 245.69 108.57 245.12 110.00 245.00
C 109.69 244.89 108.21 243.04 108.00 243.00
C 102.33 244.16 94.38 248.34 89.92 252.92 C 85.46 257.50 81.39 262.43 76.70 266.70 C 72.01 270.98 67.18 276.40 62.70 280.70 C 58.22 285.00 53.13 290.05 49.25 294.25 C 45.36 298.44 38.16 304.43 34.92 307.92 C 31.68 311.41 22.12 319.94 25.00 321.00 Z"/>
</g>
<g fill="None" fill-opacity="0.0" stroke="#C9DAEA" stroke-opacity="0.43" stroke-width="0.3"><path d="
M 110.00 245.00 
C 118.58 244.27 128.47 244.95 137.00 245.00 C 145.53 245.05 155.83 244.13 164.00 245.00 C 172.17 245.87 183.78 241.95 190.00 247.00
C 190.49 247.08 191.00 247.00 191.00 247.00
C 190.94 247.05 189.98 244.98 190.00 245.00
C 188.73 244.67 187.95 244.41 187.00 244.00
C 174.93 241.34 161.35 245.39 149.00 244.00 C 136.65 242.61 122.63 245.55 111.00 243.00
C 110.08 243.00 108.90 242.82 108.00 243.00
C 108.21 243.04 109.69 244.89 110.00 245.00 Z"/>
</g>
<g fill="None" fill-opacity="0.0" stroke="#C1FFFF" stroke-opacity="0.02" stroke-width="0.3"><path d="
M 187.00 244.00 
C 176.53 239.51 160.91 244.18 149.00 243.00 C 137.09 241.82 123.10 243.00 111.00 243.00
C 122.63 245.55 136.65 242.61 149.00 244.00 C 161.35 245.39 174.93 241.34 187.00 244.00 Z"/>
</g>
<g fill="None" fill-opacity="0.0" stroke="#EBF2F7" stroke-opacity="0.87" stroke-width="0.3"><path d="
M 107.00 246.00 
C 120.68 244.91 135.33 246.14 149.00 246.00 C 162.67 245.86 176.83 244.84 190.00 247.00
C 183.78 241.95 172.17 245.87 164.00 245.00 C 155.83 244.13 145.53 245.05 137.00 245.00 C 128.47 244.95 118.58 244.27 110.00 245.00
C 108.57 245.12 107.94 245.69 107.00 246.00 Z"/>
</g>
<g fill="None" fill-opacity="0.0" stroke="#89A6BF" stroke-opacity="0.10" stroke-width="0.3"><path d="
M 191.00 247.00 
C 192.74 247.16 193.53 248.20 195.00 249.00
C 196.24 249.67 197.72 250.09 199.00 251.00
C 208.61 257.82 215.30 269.32 224.75 276.25 C 234.21 283.18 240.56 296.88 251.00 302.00
C 251.40 302.20 252.00 302.00 252.00 302.00
C 252.57 301.48 243.52 293.03 240.75 290.25 C 237.98 287.46 232.32 281.56 228.90 278.10 C 225.48 274.64 220.68 270.29 216.75 266.25 C 212.82 262.21 208.72 258.51 204.75 254.25 C 200.78 249.98 195.57 246.45 190.00 245.00
C 189.98 244.98 190.94 247.05 191.00 247.00 Z"/>
</g>
<g fill="None" fill-opacity="0.0" stroke="#FEFEFE" stroke-opacity="0.99" stroke-width="0.3"><path d="
M 25.00 321.00 
C 30.71 323.09 39.82 320.67 46.00 321.00 C 52.18 321.33 60.90 322.20 67.00 321.00
C 72.20 319.08 78.25 306.54 83.25 304.25 C 88.25 301.95 96.56 285.39 102.00 291.00
C 103.01 302.19 102.18 313.72 102.00 325.00 C 101.82 336.29 103.38 348.77 102.00 360.00
C 103.63 357.72 106.89 356.51 109.00 355.00
C 120.29 345.21 131.21 334.20 142.00 324.00
C 154.31 335.23 165.16 348.09 177.00 360.00
C 167.32 369.35 156.81 378.69 148.00 389.00
C 142.45 395.49 134.85 401.06 130.00 408.00
C 137.00 408.00 144.00 408.00 151.00 408.00
C 151.00 404.67 151.00 401.33 151.00 398.00
C 159.33 398.00 167.67 398.00 176.00 398.00
C 177.18 400.51 174.43 405.76 176.00 408.00
C 180.70 408.67 187.51 407.11 192.00 408.00 C 196.49 408.89 203.95 405.83 207.00 409.00
C 207.43 409.71 207.00 412.15 207.00 413.00
C 207.00 413.50 207.00 414.00 207.00 414.00
C 204.24 419.65 196.27 425.40 191.75 429.75 C 187.23 434.11 181.71 442.62 176.00 445.00
C 176.00 456.67 176.00 468.33 176.00 480.00
C 179.63 480.56 183.13 481.48 187.00 481.00
C 196.38 478.68 202.54 466.47 210.25 460.25 C 217.96 454.03 225.32 444.76 232.75 437.75 C 240.19 430.74 248.13 422.72 255.25 415.25 C 262.37 407.78 271.85 400.45 277.00 392.00
C 277.24 391.40 277.91 389.63 278.00 389.00
C 278.12 390.42 275.73 388.36 276.00 386.00
C 274.03 384.25 275.14 382.34 275.00 381.00
C 274.86 379.67 274.49 379.17 274.00 378.00
C 272.65 376.13 269.31 374.81 268.00 373.00
C 257.32 366.45 244.66 369.56 232.00 369.00 C 219.34 368.44 204.82 369.42 192.00 369.00
C 192.00 343.33 192.00 317.67 192.00 292.00
C 193.95 285.86 205.03 298.14 208.25 301.75 C 211.46 305.36 219.04 312.44 223.25 316.75 C 227.45 321.07 233.58 327.19 238.25 331.75 C 242.91 336.32 248.56 342.21 253.00 347.00
C 253.74 347.67 255.63 350.58 255.00 350.00
C 256.08 350.54 256.64 350.60 258.00 351.00
C 260.80 350.86 262.96 349.71 266.00 351.00
C 266.48 350.91 267.57 351.17 268.00 351.00
C 268.66 347.39 274.72 346.20 276.75 340.75 C 278.78 335.31 275.94 328.61 272.00 325.00
C 245.74 300.96 222.59 270.93 195.00 249.00
C 193.53 248.20 192.74 247.16 191.00 247.00
C 191.00 247.00 190.49 247.08 190.00 247.00
C 176.83 244.84 162.67 245.86 149.00 246.00 C 135.33 246.14 120.68 244.91 107.00 246.00
C 100.14 246.54 94.20 250.73 89.75 255.75 C 85.30 260.77 81.16 264.22 76.75 268.75 C 72.34 273.28 68.18 277.59 63.75 281.75 C 59.33 285.92 55.25 291.06 50.75 294.75 C 46.26 298.44 42.43 304.97 37.75 307.75 C 33.08 310.53 29.68 319.85 25.00 321.00 Z"/>
</g>
<g fill="None" fill-opacity="0.0" stroke="#E8F0F7" stroke-opacity="0.81" stroke-width="0.3"><path d="
M 272.00 325.00 
C 265.98 318.56 254.83 310.83 251.00 303.00
C 234.07 286.07 217.22 266.32 199.00 251.00
C 197.72 250.09 196.24 249.67 195.00 249.00
C 222.59 270.93 245.74 300.96 272.00 325.00 Z"/>
</g>
<g fill="None" fill-opacity="0.0" stroke="#AFC7DA" stroke-opacity="0.41" stroke-width="0.3"><path d="
M 251.00 303.00 
C 250.80 302.60 251.00 302.00 251.00 302.00
C 240.56 296.88 234.21 283.18 224.75 276.25 C 215.30 269.32 208.61 257.82 199.00 251.00
C 217.22 266.32 234.07 286.07 251.00 303.00 Z"/>
</g>
<g fill="None" fill-opacity="0.0" stroke="#D1E0EE" stroke-opacity="0.45" stroke-width="0.3"><path d="
M 350.00 284.00 
C 350.08 283.81 351.50 284.00 352.00 284.00
C 354.48 282.94 366.07 281.24 368.00 284.00
C 371.24 288.63 366.47 299.21 368.00 305.00 C 369.53 310.79 367.33 318.62 368.00 325.00 C 368.67 331.38 367.67 339.40 368.00 346.00 C 368.33 352.60 367.83 359.33 368.00 366.00 C 368.17 372.67 367.87 379.26 368.00 386.00 C 368.13 392.74 367.82 400.25 368.00 407.00 C 368.18 413.75 367.64 420.32 368.00 427.00 C 368.36 433.68 367.22 440.39 368.00 447.00
C 368.08 447.19 369.83 446.76 370.00 447.00
C 370.00 392.00 370.00 337.00 370.00 282.00
C 367.34 282.09 361.32 281.88 359.00 282.00 C 356.68 282.12 349.07 280.96 350.00 284.00 Z"/>
</g>
<g fill="None" fill-opacity="0.0" stroke="#DEDEFF" stroke-opacity="0.03" stroke-width="0.3"><path d="
M 352.00 284.00 
C 357.33 284.00 362.67 284.00 368.00 284.00
C 366.07 281.24 354.48 282.94 352.00 284.00 Z"/>
</g>
<g fill="None" fill-opacity="0.0" stroke="#9AB4CB" stroke-opacity="0.22" stroke-width="0.3"><path d="
M 67.00 321.00 
C 74.07 319.61 77.95 308.87 83.75 305.75 C 89.55 302.64 94.67 290.08 101.00 291.00
C 101.49 291.07 102.00 291.00 102.00 291.00
C 96.56 285.39 88.25 301.95 83.25 304.25 C 78.25 306.54 72.20 319.08 67.00 321.00 Z"/>
</g>
<g fill="None" fill-opacity="0.0" stroke="#EDF5FB" stroke-opacity="0.82" stroke-width="0.3"><path d="
M 192.00 292.00 
C 192.00 291.96 193.00 292.00 193.00 292.00
C 197.64 288.28 204.49 299.86 208.75 303.25 C 213.02 306.64 218.69 313.52 223.25 317.75 C 227.81 321.98 233.09 327.58 237.75 332.25 C 242.42 336.91 248.13 342.56 253.00 347.00
C 248.56 342.21 242.91 336.32 238.25 331.75 C 233.58 327.19 227.45 321.07 223.25 316.75 C 219.04 312.44 211.46 305.36 208.25 301.75 C 205.03 298.14 193.95 285.86 192.00 292.00 Z"/>
</g>
<g fill="None" fill-opacity="0.0" stroke="#758EA4" stroke-opacity="0.32" stroke-width="0.3"><path d="
M 101.00 362.00 
C 101.67 362.74 102.00 359.99 102.00 360.00
C 103.38 348.77 101.82 336.29 102.00 325.00 C 102.18 313.72 103.01 302.19 102.00 291.00
C 102.00 291.00 101.49 291.07 101.00 291.00
C 100.48 296.70 101.04 303.34 101.00 309.00 C 100.96 314.66 100.58 321.60 101.00 327.00 C 101.42 332.40 99.84 340.26 101.00 345.00 C 102.16 349.74 98.13 358.85 101.00 362.00 Z"/>
</g>
<g fill="None" fill-opacity="0.0" stroke="#A3BBD0" stroke-opacity="0.36" stroke-width="0.3"><path d="
M 193.00 292.00 
C 193.95 292.19 195.06 291.76 196.00 292.00
C 203.59 293.93 208.03 305.85 214.75 310.25 C 221.47 314.65 226.72 323.47 233.25 328.75 C 239.77 334.03 245.94 342.26 252.00 348.00
C 252.96 348.75 253.75 349.38 255.00 350.00
C 255.63 350.58 253.74 347.67 253.00 347.00
C 248.13 342.56 242.42 336.91 237.75 332.25 C 233.09 327.58 227.81 321.98 223.25 317.75 C 218.69 313.52 213.02 306.64 208.75 303.25 C 204.49 299.86 197.64 288.28 193.00 292.00 Z"/>
</g>
<g fill="None" fill-opacity="0.0" stroke="#D2E1EF" stroke-opacity="0.43" stroke-width="0.3"><path d="
M 268.00 373.00 
C 267.47 372.26 267.42 370.45 267.00 370.00
C 243.65 365.52 218.20 369.19 194.00 368.00
C 192.48 355.95 196.02 340.73 194.00 329.00 C 191.98 317.27 198.43 302.33 193.00 292.00
C 193.00 292.00 192.00 291.96 192.00 292.00
C 192.00 317.67 192.00 343.33 192.00 369.00
C 204.82 369.42 219.34 368.44 232.00 369.00 C 244.66 369.56 257.32 366.45 268.00 373.00 Z"/>
</g>
<g fill="None" fill-opacity="0.0" stroke="#466F9C" stroke-opacity="0.04" stroke-width="0.3"><path d="
M 252.00 348.00 
C 245.94 342.26 239.77 334.03 233.25 328.75 C 226.72 323.47 221.47 314.65 214.75 310.25 C 208.03 305.85 203.59 293.93 196.00 292.00
C 202.72 295.52 207.93 306.47 214.75 311.25 C 221.56 316.04 226.44 324.23 233.25 329.75 C 240.05 335.27 245.11 342.62 252.00 348.00 Z"/>
</g>
<g fill="None" fill-opacity="0.0" stroke="#8DAAC4" stroke-opacity="0.22" stroke-width="0.3"><path d="
M 251.00 303.00 
C 254.83 310.83 265.98 318.56 272.00 325.00
C 275.94 328.61 278.78 335.31 276.75 340.75 C 274.72 346.20 268.66 347.39 268.00 351.00
C 280.37 346.14 280.85 332.74 273.75 324.25 C 266.66 315.75 255.37 312.33 252.00 302.00
C 252.00 302.00 251.40 302.20 251.00 302.00
C 251.00 302.00 250.80 302.60 251.00 303.00 Z"/>
</g>
<g fill="None" fill-opacity="0.0" stroke="#FFFFFF" stroke-opacity="0.91" stroke-width="0.3"><path d="
M 87.00 327.00 
C 62.67 327.00 38.33 327.00 14.00 327.00
C 14.00 378.33 14.00 429.67 14.00 481.00
C 65.33 481.00 116.67 481.00 168.00 481.00
C 168.00 455.00 168.00 429.00 168.00 403.00
C 164.67 403.00 161.33 403.00 158.00 403.00
C 158.00 425.67 158.00 448.33 158.00 471.00
C 113.33 471.00 68.67 471.00 24.00 471.00
C 24.00 426.33 24.00 381.67 24.00 337.00
C 45.00 337.00 66.00 337.00 87.00 337.00
C 87.00 333.67 87.00 330.33 87.00 327.00 Z"/>
</g>
<g fill="None" fill-opacity="0.0" stroke="#FFFFFF" stroke-opacity="0.94" stroke-width="0.3"><path d="
M 141.00 334.00 
C 136.21 338.16 130.49 343.37 127.00 348.00
C 136.01 354.51 145.46 363.98 152.00 373.00
C 157.35 370.13 163.09 364.35 166.00 359.00
C 157.38 351.22 148.84 342.66 141.00 334.00 Z"/>
</g>
<g fill="None" fill-opacity="0.0" stroke="#FBFCFD" stroke-opacity="0.97" stroke-width="0.3"><path d="
M 32.00 351.00 
C 37.06 348.79 42.86 346.13 46.00 341.00
C 41.33 341.00 36.67 341.00 32.00 341.00
C 33.15 343.58 30.47 348.67 32.00 351.00 Z"/>
</g>
<g fill="None" fill-opacity="0.0" stroke="#92B1C8" stroke-opacity="0.23" stroke-width="0.3"><path d="
M 32.00 351.00 
C 35.06 355.65 49.78 342.29 46.00 341.00
C 42.86 346.13 37.06 348.79 32.00 351.00 Z"/>
</g>
<g fill="None" fill-opacity="0.0" stroke="#A9C5D4" stroke-opacity="0.35" stroke-width="0.3"><path d="
M 258.00 351.00 
C 262.72 352.40 262.65 351.61 266.00 351.00
C 262.96 349.71 260.80 350.86 258.00 351.00 Z"/>
</g>
<g fill="None" fill-opacity="0.0" stroke="#FFFFFF" stroke-opacity="0.96" stroke-width="0.3"><path d="
M 124.00 352.00 
C 104.00 369.50 83.53 389.98 66.00 410.00
C 73.75 416.27 79.73 423.98 87.25 430.75 C 94.77 437.53 102.12 423.43 108.75 417.75 C 115.39 412.08 122.68 403.60 129.25 397.25 C 135.81 390.90 144.14 383.42 149.00 376.00
C 139.78 369.90 131.93 360.12 124.00 352.00 Z"/>
</g>
<g fill="None" fill-opacity="0.0" stroke="#F4FFFF" stroke-opacity="0.33" stroke-width="0.3"><path d="
M 102.00 360.00 
C 102.00 359.99 101.67 362.74 101.00 362.00
C 100.99 363.72 108.11 355.89 109.00 355.00
C 106.89 356.51 103.63 357.72 102.00 360.00 Z"/>
</g>
<g fill="None" fill-opacity="0.0" stroke="#E0EAF4" stroke-opacity="0.63" stroke-width="0.3"><path d="
M 32.00 370.00 
C 51.67 370.00 71.33 370.00 91.00 370.00
C 89.97 373.01 83.88 375.48 85.00 378.00
C 88.64 375.23 92.13 371.64 95.00 368.00
C 88.20 368.33 79.63 367.56 73.00 368.00 C 66.37 368.44 56.98 367.16 51.00 368.00 C 45.02 368.84 34.32 365.21 32.00 370.00 Z"/>
</g>
<g fill="None" fill-opacity="0.0" stroke="#FEFFFF" stroke-opacity="0.98" stroke-width="0.3"><path d="
M 32.00 408.00 
C 38.54 410.73 42.56 419.96 48.00 424.00
C 52.34 420.87 50.13 408.00 56.75 404.75 C 63.37 401.51 65.99 395.68 71.25 391.25 C 76.50 386.81 80.39 382.61 85.00 378.00
C 83.88 375.48 89.97 373.01 91.00 370.00
C 71.33 370.00 51.67 370.00 32.00 370.00
C 29.60 374.96 32.90 383.38 32.00 389.00 C 31.10 394.62 32.00 402.20 32.00 408.00 Z"/>
</g>
<g fill="None" fill-opacity="0.0" stroke="#88A0B5" stroke-opacity="0.17" stroke-width="0.3"><path d="
M 268.00 373.00 
C 269.31 374.81 272.65 376.13 274.00 378.00
C 272.49 374.40 270.54 371.81 267.00 370.00
C 267.42 370.45 267.47 372.26 268.00 373.00 Z"/>
</g>
<g fill="None" fill-opacity="0.0" stroke="#B6D7E9" stroke-opacity="0.36" stroke-width="0.3"><path d="
M 276.00 386.00 
C 276.06 385.51 276.00 385.00 276.00 385.00
C 278.07 382.11 275.72 382.33 275.00 381.00
C 275.14 382.34 274.03 384.25 276.00 386.00 Z"/>
</g>
<g fill="None" fill-opacity="0.0" stroke="#87A4BB" stroke-opacity="0.12" stroke-width="0.3"><path d="
M 276.00 386.00 
C 275.73 388.36 278.12 390.42 278.00 389.00
C 278.21 387.50 278.32 384.44 276.00 385.00
C 276.00 385.00 276.06 385.51 276.00 386.00 Z"/>
</g>
<g fill="None" fill-opacity="0.0" stroke="#FFFFFF" stroke-opacity="0.25" stroke-width="0.3"><path d="
M 129.00 408.00 
C 129.26 407.75 130.00 408.00 130.00 408.00
C 134.85 401.06 142.45 395.49 148.00 389.00
C 142.74 394.26 131.94 400.95 129.00 408.00 Z"/>
</g>
<g fill="None" fill-opacity="0.0" stroke="#9FB8D0" stroke-opacity="0.24" stroke-width="0.3"><path d="
M 187.00 481.00 
C 200.80 479.29 209.17 461.68 219.30 453.30 C 229.44 444.93 240.22 433.15 249.75 423.75 C 259.27 414.34 272.21 403.81 277.00 392.00
C 271.85 400.45 262.37 407.78 255.25 415.25 C 248.13 422.72 240.19 430.74 232.75 437.75 C 225.32 444.76 217.96 454.03 210.25 460.25 C 202.54 466.47 196.38 478.68 187.00 481.00 Z"/>
</g>
<g fill="None" fill-opacity="0.0" stroke="#DEE9F3" stroke-opacity="0.72" stroke-width="0.3"><path d="
M 32.00 409.00 
C 37.95 413.16 42.13 419.84 48.00 424.00
C 42.56 419.96 38.54 410.73 32.00 408.00
C 32.00 408.00 31.88 408.53 32.00 409.00 Z"/>
</g>
<g fill="None" fill-opacity="0.0" stroke="#7D95AA" stroke-opacity="0.33" stroke-width="0.3"><path d="
M 151.00 408.00 
C 144.00 408.00 137.00 408.00 130.00 408.00
C 130.00 408.00 129.26 407.75 129.00 408.00
C 129.73 407.30 148.17 412.04 151.00 408.00 Z"/>
</g>
<g fill="None" fill-opacity="0.0" stroke="#7F96AB" stroke-opacity="0.35" stroke-width="0.3"><path d="
M 206.00 409.00 
C 206.50 409.00 207.00 409.00 207.00 409.00
C 203.95 405.83 196.49 408.89 192.00 408.00 C 187.51 407.11 180.70 408.67 176.00 408.00
C 178.18 411.11 187.12 408.32 191.00 409.00 C 194.88 409.68 201.84 408.99 206.00 409.00 Z"/>
</g>
<g fill="None" fill-opacity="0.0" stroke="#769AB1" stroke-opacity="0.18" stroke-width="0.3"><path d="
M 48.00 424.00 
C 42.13 419.84 37.95 413.16 32.00 409.00
C 32.75 411.83 46.58 425.02 48.00 424.00 Z"/>
</g>
<g fill="None" fill-opacity="0.0" stroke="#A3BDD3" stroke-opacity="0.27" stroke-width="0.3"><path d="
M 205.00 413.00 
C 202.13 418.70 195.03 422.99 190.75 427.75 C 186.47 432.51 181.18 438.37 176.00 442.00
C 176.00 442.00 176.00 442.50 176.00 443.00
C 181.67 439.03 185.70 432.29 191.25 428.25 C 196.80 424.20 200.72 415.62 207.00 413.00
C 207.00 412.15 207.43 409.71 207.00 409.00
C 207.00 409.00 206.50 409.00 206.00 409.00
C 205.65 410.61 205.75 411.50 205.00 413.00 Z"/>
</g>
<g fill="None" fill-opacity="0.0" stroke="#FFFFFF" stroke-opacity="0.93" stroke-width="0.3"><path d="
M 86.00 440.00 
C 79.87 430.69 68.18 420.98 60.00 413.00
C 55.81 427.28 49.14 440.78 45.00 455.00
C 58.52 449.56 71.98 443.78 86.00 440.00 Z"/>
</g>
<g fill="None" fill-opacity="0.0" stroke="#A2BDD0" stroke-opacity="0.05" stroke-width="0.3"><path d="
M 176.00 442.00 
C 181.18 438.37 186.47 432.51 190.75 427.75 C 195.03 422.99 202.13 418.70 205.00 413.00
C 198.34 423.43 181.77 430.21 176.00 442.00 Z"/>
</g>
<g fill="None" fill-opacity="0.0" stroke="#C7D9E9" stroke-opacity="0.58" stroke-width="0.3"><path d="
M 176.00 443.00 
C 176.00 443.00 176.00 443.50 176.00 444.00
C 187.66 435.84 195.39 422.11 207.00 414.00
C 207.00 414.00 207.00 413.50 207.00 413.00
C 200.72 415.62 196.80 424.20 191.25 428.25 C 185.70 432.29 181.67 439.03 176.00 443.00 Z"/>
</g>
<g fill="None" fill-opacity="0.0" stroke="#F1F6FB" stroke-opacity="0.87" stroke-width="0.3"><path d="
M 176.00 444.00 
C 176.00 444.00 176.00 444.50 176.00 445.00
C 181.71 442.62 187.23 434.11 191.75 429.75 C 196.27 425.40 204.24 419.65 207.00 414.00
C 195.39 422.11 187.66 435.84 176.00 444.00 Z"/>
</g>
<g fill="None" fill-opacity="0.0" stroke="#97B4C6" stroke-opacity="0.19" stroke-width="0.3"><path d="
M 105.00 432.00 
C 109.55 431.62 114.04 440.45 117.75 443.25 C 121.47 446.05 127.16 452.45 130.00 456.00
C 130.54 453.73 128.48 452.23 129.00 450.00
C 123.28 448.83 121.19 442.61 116.75 439.25 C 112.32 435.88 109.84 429.00 105.00 432.00 Z"/>
</g>
<g fill="None" fill-opacity="0.0" stroke="#FDFEFE" stroke-opacity="0.97" stroke-width="0.3"><path d="
M 74.00 450.00 
C 79.37 453.05 83.34 463.91 89.00 466.00
C 94.07 467.52 103.76 466.32 109.00 466.00 C 114.24 465.68 124.54 468.38 129.00 466.00
C 129.10 463.00 129.63 460.12 130.00 458.00
C 129.83 457.57 130.02 456.50 130.00 456.00
C 127.16 452.45 121.47 446.05 117.75 443.25 C 114.04 440.45 109.55 431.62 105.00 432.00
C 100.35 434.89 96.43 440.82 92.02 444.02 C 87.62 447.23 77.24 445.58 74.00 450.00 Z"/>
</g>
<g fill="None" fill-opacity="0.0" stroke="#8EACBE" stroke-opacity="0.18" stroke-width="0.3"><path d="
M 379.00 461.00 
C 374.86 457.19 370.80 453.01 370.00 447.00
C 369.83 446.76 368.08 447.19 368.00 447.00
C 368.86 454.27 374.95 458.61 379.00 461.00 Z"/>
</g>
<g fill="None" fill-opacity="0.0" stroke="#9EB5CD" stroke-opacity="0.24" stroke-width="0.3"><path d="
M 401.00 453.00 
C 396.47 458.73 389.45 464.34 382.00 463.00
C 391.31 466.95 403.48 459.01 404.00 449.00
C 403.71 450.43 401.93 451.82 401.00 453.00 Z"/>
</g>
<g fill="None" fill-opacity="0.0" stroke="#7196AE" stroke-opacity="0.16" stroke-width="0.3"><path d="
M 89.00 466.00 
C 83.34 463.91 79.37 453.05 74.00 450.00
C 72.75 451.70 78.90 456.56 80.75 458.25 C 82.60 459.94 86.08 465.13 89.00 466.00 Z"/>
</g>
<g fill="None" fill-opacity="0.0" stroke="#93B8CC" stroke-opacity="0.24" stroke-width="0.3"><path d="
M 329.00 463.00 
C 337.67 464.92 344.31 461.06 348.00 453.00
C 344.98 457.28 336.38 462.86 329.00 463.00 Z"/>
</g>
<g fill="None" fill-opacity="0.0" stroke="#A3BCCE" stroke-opacity="0.33" stroke-width="0.3"><path d="
M 129.00 466.00 
C 131.56 464.63 130.87 460.15 130.00 458.00
C 129.63 460.12 129.10 463.00 129.00 466.00 Z"/>
</g>
<g fill="#000000" fill-opacity="0.00" stroke="None">
<path d="
M 0.00 512.00 
L 512.00 512.00
L 512.00 0.00
L 0.00 0.00
L 0.00 512.00
M 334.00 122.00 
C 342.28 122.00 350.74 122.71 359.00 122.00 C 367.26 121.29 376.92 123.79 385.00 122.00
C 391.31 119.95 395.23 110.00 401.25 106.25 C 407.27 102.49 411.01 94.28 416.92 89.92 C 422.82 85.56 427.90 77.56 434.00 74.00
C 434.20 73.68 434.68 73.20 435.00 73.00
C 439.07 64.41 450.11 57.49 457.00 51.00
C 457.50 48.59 463.35 42.97 465.00 41.00
C 467.69 37.79 472.59 32.58 477.00 32.00
C 478.94 30.98 486.83 29.65 488.00 32.00
C 491.86 31.74 498.47 40.42 499.00 44.00
C 499.54 47.63 498.39 50.86 497.00 54.00
C 494.18 60.38 487.44 65.25 482.25 70.25 C 477.06 75.25 472.49 81.24 467.08 86.08 C 461.67 90.93 456.87 96.81 451.75 101.75 C 446.62 106.68 440.82 112.03 435.77 116.77 C 430.72 121.51 425.74 128.80 420.25 132.25 C 414.76 135.71 410.42 147.34 404.00 148.00
C 404.00 173.31 401.72 199.81 404.00 225.00
C 404.00 224.96 405.00 225.00 405.00 225.00
C 409.59 229.44 404.66 241.13 406.00 248.00 C 407.34 254.87 405.41 265.35 406.00 273.00 C 406.59 280.65 405.75 290.03 406.00 298.00 C 406.25 305.97 405.93 314.95 406.00 323.00 C 406.07 331.05 406.08 338.95 406.00 347.00 C 405.92 355.05 406.27 364.02 406.00 372.00 C 405.73 379.98 406.64 389.34 406.00 397.00 C 405.36 404.66 407.43 415.10 406.00 422.00 C 404.57 428.90 409.65 441.50 405.00 446.00
C 404.74 446.25 404.00 446.00 404.00 446.00
C 404.00 446.99 404.05 448.01 404.00 449.00
C 403.48 459.01 391.31 466.95 382.00 463.00
C 380.51 462.37 380.24 462.14 379.00 461.00
C 374.95 458.61 368.86 454.27 368.00 447.00
C 367.22 440.39 368.36 433.68 368.00 427.00 C 367.64 420.32 368.18 413.75 368.00 407.00 C 367.82 400.25 368.13 392.74 368.00 386.00 C 367.87 379.26 368.17 372.67 368.00 366.00 C 367.83 359.33 368.33 352.60 368.00 346.00 C 367.67 339.40 368.67 331.38 368.00 325.00 C 367.33 318.62 369.53 310.79 368.00 305.00 C 366.47 299.21 371.24 288.63 368.00 284.00
C 362.67 284.00 357.33 284.00 352.00 284.00
C 351.50 284.00 350.08 283.81 350.00 284.00
C 346.50 291.88 351.54 303.21 350.00 312.00 C 348.46 320.79 350.74 331.85 350.00 341.00 C 349.26 350.15 350.37 359.69 350.00 369.00 C 349.63 378.31 350.28 388.68 350.00 398.00 C 349.72 407.32 350.38 416.79 350.00 426.00 C 349.62 435.21 351.60 445.13 348.00 453.00
C 344.31 461.06 337.67 464.92 329.00 463.00
C 324.96 462.10 321.87 460.98 319.00 458.00
C 306.47 444.97 316.33 418.71 314.00 400.00 C 311.67 381.29 314.91 356.97 314.00 337.00 C 313.09 317.03 314.08 294.54 314.00 274.00 C 313.92 253.46 313.31 231.80 314.00 211.00 C 314.69 190.20 312.12 167.81 314.00 147.00
C 303.81 138.74 295.91 128.71 286.10 119.90 C 276.29 111.09 268.17 100.29 257.92 92.08 C 247.67 83.88 241.46 70.99 230.23 63.77 C 219.00 56.55 214.27 33.18 233.00 31.00
C 234.54 30.82 236.45 30.86 238.00 31.00
C 247.45 31.85 253.18 40.73 259.30 46.70 C 265.41 52.68 271.81 58.60 277.75 65.25 C 283.70 71.90 291.74 77.73 297.08 83.92 C 302.42 90.10 310.87 96.30 315.25 102.75 C 319.63 109.20 332.64 114.44 334.00 122.00
M 368.00 47.00 
C 377.26 50.59 386.42 54.03 389.00 65.00
C 389.11 65.47 389.00 66.00 389.00 66.00
C 396.05 68.88 393.15 85.29 391.01 91.01 C 388.87 96.73 381.24 104.80 375.00 107.00
C 374.13 107.31 373.25 107.74 372.00 108.00
C 368.98 109.33 367.18 111.61 363.00 112.00
C 360.60 112.22 356.59 112.64 355.00 111.00
C 351.36 110.56 350.10 109.93 348.00 109.00
C 335.56 103.51 332.00 98.12 327.00 86.00
C 326.82 85.57 327.00 85.00 327.00 85.00
C 317.60 71.08 336.73 51.64 349.00 47.00
C 351.24 46.15 352.49 45.40 355.00 45.00
C 357.34 44.63 361.70 44.43 364.00 45.00
C 365.40 45.35 366.75 46.19 368.00 47.00
M 155.00 169.00 
C 158.86 170.09 162.89 171.66 166.00 174.00
C 169.25 176.44 172.76 179.66 175.00 183.00
C 183.06 194.99 181.35 210.74 173.00 221.00
C 171.25 224.27 168.70 225.82 166.00 228.00
C 164.62 229.11 163.80 230.09 162.00 231.00
C 158.46 232.78 152.92 234.55 149.00 235.00
C 147.82 235.14 146.18 235.17 145.00 235.00
C 142.88 234.69 138.47 233.14 137.00 232.00
C 124.41 227.81 117.76 220.34 115.00 207.00
C 114.52 204.68 113.80 201.97 114.00 199.00
C 114.64 189.57 120.57 177.57 129.00 173.00
C 129.72 172.61 131.14 172.40 132.00 172.00
C 133.07 171.50 133.39 171.00 135.00 171.00
C 137.15 170.46 139.00 168.44 141.00 168.00
C 145.27 167.07 151.46 168.00 155.00 169.00
M 187.00 244.00 
C 187.95 244.41 188.73 244.67 190.00 245.00
C 195.57 246.45 200.78 249.98 204.75 254.25 C 208.72 258.51 212.82 262.21 216.75 266.25 C 220.68 270.29 225.48 274.64 228.90 278.10 C 232.32 281.56 237.98 287.46 240.75 290.25 C 243.52 293.03 252.57 301.48 252.00 302.00
C 255.37 312.33 266.66 315.75 273.75 324.25 C 280.85 332.74 280.37 346.14 268.00 351.00
C 267.57 351.17 266.48 350.91 266.00 351.00
C 262.65 351.61 262.72 352.40 258.00 351.00
C 256.64 350.60 256.08 350.54 255.00 350.00
C 253.75 349.38 252.96 348.75 252.00 348.00
C 245.11 342.62 240.05 335.27 233.25 329.75 C 226.44 324.23 221.56 316.04 214.75 311.25 C 207.93 306.47 202.72 295.52 196.00 292.00
C 195.06 291.76 193.95 292.19 193.00 292.00
C 198.43 302.33 191.98 317.27 194.00 329.00 C 196.02 340.73 192.48 355.95 194.00 368.00
C 218.20 369.19 243.65 365.52 267.00 370.00
C 270.54 371.81 272.49 374.40 274.00 378.00
C 274.49 379.17 274.86 379.67 275.00 381.00
C 275.72 382.33 278.07 382.11 276.00 385.00
C 278.32 384.44 278.21 387.50 278.00 389.00
C 277.91 389.63 277.24 391.40 277.00 392.00
C 272.21 403.81 259.27 414.34 249.75 423.75 C 240.22 433.15 229.44 444.93 219.30 453.30 C 209.17 461.68 200.80 479.29 187.00 481.00
C 183.13 481.48 179.63 480.56 176.00 480.00
C 176.00 468.33 176.00 456.67 176.00 445.00
C 176.00 444.50 176.00 444.00 176.00 444.00
C 176.00 443.50 176.00 443.00 176.00 443.00
C 176.00 442.50 176.00 442.00 176.00 442.00
C 181.77 430.21 198.34 423.43 205.00 413.00
C 205.75 411.50 205.65 410.61 206.00 409.00
C 201.84 408.99 194.88 409.68 191.00 409.00 C 187.12 408.32 178.18 411.11 176.00 408.00
C 174.43 405.76 177.18 400.51 176.00 398.00
C 167.67 398.00 159.33 398.00 151.00 398.00
C 151.00 401.33 151.00 404.67 151.00 408.00
C 148.17 412.04 129.73 407.30 129.00 408.00
C 131.94 400.95 142.74 394.26 148.00 389.00
C 156.81 378.69 167.32 369.35 177.00 360.00
C 165.16 348.09 154.31 335.23 142.00 324.00
C 131.21 334.20 120.29 345.21 109.00 355.00
C 108.11 355.89 100.99 363.72 101.00 362.00
C 98.13 358.85 102.16 349.74 101.00 345.00 C 99.84 340.26 101.42 332.40 101.00 327.00 C 100.58 321.60 100.96 314.66 101.00 309.00 C 101.04 303.34 100.48 296.70 101.00 291.00
C 94.67 290.08 89.55 302.64 83.75 305.75 C 77.95 308.87 74.07 319.61 67.00 321.00
C 60.90 322.20 52.18 321.33 46.00 321.00 C 39.82 320.67 30.71 323.09 25.00 321.00
C 22.12 319.94 31.68 311.41 34.92 307.92 C 38.16 304.43 45.36 298.44 49.25 294.25 C 53.13 290.05 58.22 285.00 62.70 280.70 C 67.18 276.40 72.01 270.98 76.70 266.70 C 81.39 262.43 85.46 257.50 89.92 252.92 C 94.38 248.34 102.33 244.16 108.00 243.00
C 108.90 242.82 110.08 243.00 111.00 243.00
C 123.10 243.00 137.09 241.82 149.00 243.00 C 160.91 244.18 176.53 239.51 187.00 244.00
M 87.00 327.00 
C 87.00 330.33 87.00 333.67 87.00 337.00
C 66.00 337.00 45.00 337.00 24.00 337.00
C 24.00 381.67 24.00 426.33 24.00 471.00
C 68.67 471.00 113.33 471.00 158.00 471.00
C 158.00 448.33 158.00 425.67 158.00 403.00
C 161.33 403.00 164.67 403.00 168.00 403.00
C 168.00 429.00 168.00 455.00 168.00 481.00
C 116.67 481.00 65.33 481.00 14.00 481.00
C 14.00 429.67 14.00 378.33 14.00 327.00
C 38.33 327.00 62.67 327.00 87.00 327.00
M 141.00 334.00 
C 148.84 342.66 157.38 351.22 166.00 359.00
C 163.09 364.35 157.35 370.13 152.00 373.00
C 145.46 363.98 136.01 354.51 127.00 348.00
C 130.49 343.37 136.21 338.16 141.00 334.00
M 32.00 351.00 
C 30.47 348.67 33.15 343.58 32.00 341.00
C 36.67 341.00 41.33 341.00 46.00 341.00
C 49.78 342.29 35.06 355.65 32.00 351.00
M 124.00 352.00 
C 131.93 360.12 139.78 369.90 149.00 376.00
C 144.14 383.42 135.81 390.90 129.25 397.25 C 122.68 403.60 115.39 412.08 108.75 417.75 C 102.12 423.43 94.77 437.53 87.25 430.75 C 79.73 423.98 73.75 416.27 66.00 410.00
C 83.53 389.98 104.00 369.50 124.00 352.00
M 85.00 378.00 
C 80.39 382.61 76.50 386.81 71.25 391.25 C 65.99 395.68 63.37 401.51 56.75 404.75 C 50.13 408.00 52.34 420.87 48.00 424.00
C 46.58 425.02 32.75 411.83 32.00 409.00
C 31.88 408.53 32.00 408.00 32.00 408.00
C 32.00 402.20 31.10 394.62 32.00 389.00 C 32.90 383.38 29.60 374.96 32.00 370.00
C 34.32 365.21 45.02 368.84 51.00 368.00 C 56.98 367.16 66.37 368.44 73.00 368.00 C 79.63 367.56 88.20 368.33 95.00 368.00
C 92.13 371.64 88.64 375.23 85.00 378.00
M 86.00 440.00 
C 71.98 443.78 58.52 449.56 45.00 455.00
C 49.14 440.78 55.81 427.28 60.00 413.00
C 68.18 420.98 79.87 430.69 86.00 440.00
M 130.00 456.00 
C 130.02 456.50 129.83 457.57 130.00 458.00
C 130.87 460.15 131.56 464.63 129.00 466.00
C 124.54 468.38 114.24 465.68 109.00 466.00 C 103.76 466.32 94.07 467.52 89.00 466.00
C 86.08 465.13 82.60 459.94 80.75 458.25 C 78.90 456.56 72.75 451.70 74.00 450.00
C 77.24 445.58 87.62 447.23 92.02 444.02 C 96.43 440.82 100.35 434.89 105.00 432.00
C 109.84 429.00 112.32 435.88 116.75 439.25 C 121.19 442.61 123.28 448.83 129.00 450.00
C 128.48 452.23 130.54 453.73 130.00 456.00 Z"/>
</g>
<g fill="#7FA7BC" fill-opacity="0.13" stroke="None">
<path d="
M 314.00 147.00 
C 312.13 142.48 305.50 137.46 302.00 134.00
C 292.69 124.78 283.17 115.26 274.00 106.00
C 262.60 96.16 252.67 84.57 242.00 74.00
C 239.05 71.08 235.87 67.90 233.00 65.00
C 229.81 62.25 226.57 59.35 224.00 56.00
C 217.75 47.85 222.72 33.24 233.00 31.00
C 214.27 33.18 219.00 56.55 230.23 63.77 C 241.46 70.99 247.67 83.88 257.92 92.08 C 268.17 100.29 276.29 111.09 286.10 119.90 C 295.91 128.71 303.81 138.74 314.00 147.00 Z"/>
</g>
<g fill="#FEFEFE" fill-opacity="1.00" stroke="None">
<path d="
M 224.00 56.00 
C 229.60 61.49 237.36 66.78 242.75 73.25 C 248.14 79.72 255.26 84.94 260.75 91.25 C 266.25 97.56 274.04 103.44 279.25 109.75 C 284.45 116.06 292.97 121.28 297.25 127.75 C 301.53 134.22 314.20 139.46 315.00 147.00
C 316.86 167.72 314.01 189.24 315.00 210.00 C 315.99 230.76 314.21 252.35 315.00 273.00 C 315.79 293.65 313.88 315.71 315.00 336.00 C 316.12 356.29 312.82 379.53 315.00 399.00 C 317.18 418.47 308.56 441.82 319.00 458.00
C 321.87 460.98 324.96 462.10 329.00 463.00
C 336.38 462.86 344.98 457.28 348.00 453.00
C 351.60 445.13 349.62 435.21 350.00 426.00 C 350.38 416.79 349.72 407.32 350.00 398.00 C 350.28 388.68 349.63 378.31 350.00 369.00 C 350.37 359.69 349.26 350.15 350.00 341.00 C 350.74 331.85 348.46 320.79 350.00 312.00 C 351.54 303.21 346.50 291.88 350.00 284.00
C 349.07 280.96 356.68 282.12 359.00 282.00 C 361.32 281.88 367.34 282.09 370.00 282.00
C 370.00 337.00 370.00 392.00 370.00 447.00
C 370.80 453.01 374.86 457.19 379.00 461.00
C 380.24 462.14 380.51 462.37 382.00 463.00
C 389.45 464.34 396.47 458.73 401.00 453.00
C 408.08 440.82 401.13 423.18 403.00 409.00 C 404.87 394.82 402.16 377.81 403.00 363.00 C 403.84 348.19 402.63 332.09 403.00 317.00 C 403.37 301.91 402.86 286.21 403.00 271.00 C 403.14 255.79 403.00 240.24 403.00 225.00
C 403.00 216.94 402.42 206.86 403.00 199.00 C 403.58 191.14 401.45 180.12 403.00 173.00 C 404.55 165.88 399.13 151.69 404.00 147.00
C 415.62 138.86 424.91 126.02 435.25 116.25 C 445.58 106.47 456.89 95.87 466.25 85.25 C 475.61 74.62 489.87 65.75 497.00 54.00
C 498.39 50.86 499.54 47.63 499.00 44.00
C 497.79 39.12 490.95 35.14 487.00 33.00
C 483.69 33.04 480.41 33.23 477.00 33.00
C 473.02 35.13 469.20 38.80 466.00 42.00
C 463.25 44.75 460.49 48.09 458.00 51.00
C 449.52 60.92 440.70 67.93 431.75 77.75 C 422.80 87.58 413.78 94.14 404.75 104.75 C 395.72 115.37 384.93 125.49 370.00 123.00 C 355.07 120.51 333.55 127.48 324.25 114.75 C 314.94 102.02 306.23 99.20 297.75 88.25 C 289.27 77.30 278.16 71.84 270.75 61.25 C 263.35 50.66 248.82 45.56 244.00 34.00
C 241.95 33.52 239.59 31.35 238.00 31.00
C 236.45 30.86 234.54 30.82 233.00 31.00
C 222.72 33.24 217.75 47.85 224.00 56.00 Z"/>
</g>
<g fill="#A1B9D0" fill-opacity="0.06" stroke="None">
<path d="
M 244.00 34.00 
C 244.47 34.11 245.00 34.00 245.00 34.00
C 256.64 39.69 264.10 54.41 274.25 62.75 C 284.39 71.10 294.47 82.68 303.75 92.25 C 313.03 101.81 325.40 111.14 333.00 122.00
C 333.40 122.20 334.00 122.00 334.00 122.00
C 332.64 114.44 319.63 109.20 315.25 102.75 C 310.87 96.30 302.42 90.10 297.08 83.92 C 291.74 77.73 283.70 71.90 277.75 65.25 C 271.81 58.60 265.41 52.68 259.30 46.70 C 253.18 40.73 247.45 31.85 238.00 31.00
C 239.59 31.35 241.95 33.52 244.00 34.00 Z"/>
</g>
<g fill="#AFC2D4" fill-opacity="0.47" stroke="None">
<path d="
M 477.00 32.00 
C 476.79 32.11 477.00 33.00 477.00 33.00
C 480.41 33.23 483.69 33.04 487.00 33.00
C 487.17 33.00 487.66 32.02 488.00 32.00
C 486.83 29.65 478.94 30.98 477.00 32.00 Z"/>
</g>
<g fill="#98B9CB" fill-opacity="0.20" stroke="None">
<path d="
M 465.00 41.00 
C 464.98 41.07 466.06 41.71 466.00 42.00
C 469.20 38.80 473.02 35.13 477.00 33.00
C 477.00 33.00 476.79 32.11 477.00 32.00
C 472.59 32.58 467.69 37.79 465.00 41.00 Z"/>
</g>
<g fill="#92AFC4" fill-opacity="0.25" stroke="None">
<path d="
M 487.00 33.00 
C 490.95 35.14 497.79 39.12 499.00 44.00
C 498.47 40.42 491.86 31.74 488.00 32.00
C 487.66 32.02 487.17 33.00 487.00 33.00 Z"/>
</g>
<g fill="#C5D5E4" fill-opacity="0.58" stroke="None">
<path d="
M 458.00 51.00 
C 457.84 51.23 457.00 51.00 457.00 51.00
C 452.00 58.16 442.38 68.44 435.00 73.00
C 434.68 73.20 434.20 73.68 434.00 74.00
C 428.92 82.22 417.50 92.01 410.25 98.25 C 402.99 104.48 394.05 119.99 385.00 122.00
C 376.92 123.79 367.26 121.29 359.00 122.00 C 350.74 122.71 342.28 122.00 334.00 122.00
C 334.00 122.00 333.40 122.20 333.00 122.00
C 321.36 116.31 313.90 101.59 303.75 93.25 C 293.61 84.90 283.53 73.32 274.25 63.75 C 264.97 54.19 252.60 44.86 245.00 34.00
C 245.00 34.00 244.47 34.11 244.00 34.00
C 248.82 45.56 263.35 50.66 270.75 61.25 C 278.16 71.84 289.27 77.30 297.75 88.25 C 306.23 99.20 314.94 102.02 324.25 114.75 C 333.55 127.48 355.07 120.51 370.00 123.00 C 384.93 125.49 395.72 115.37 404.75 104.75 C 413.78 94.14 422.80 87.58 431.75 77.75 C 440.70 67.93 449.52 60.92 458.00 51.00 Z"/>
</g>
<g fill="#9EBAD1" fill-opacity="0.29" stroke="None">
<path d="
M 333.00 122.00 
C 325.40 111.14 313.03 101.81 303.75 92.25 C 294.47 82.68 284.39 71.10 274.25 62.75 C 264.10 54.41 256.64 39.69 245.00 34.00
C 252.60 44.86 264.97 54.19 274.25 63.75 C 283.53 73.32 293.61 84.90 303.75 93.25 C 313.90 101.59 321.36 116.31 333.00 122.00 Z"/>
</g>
<g fill="#6C89A3" fill-opacity="0.18" stroke="None">
<path d="
M 457.00 51.00 
C 457.00 51.00 457.84 51.23 458.00 51.00
C 460.49 48.09 463.25 44.75 466.00 42.00
C 466.06 41.71 464.98 41.07 465.00 41.00
C 463.35 42.97 457.50 48.59 457.00 51.00 Z"/>
</g>
<g fill="#FDFDFE" fill-opacity="0.98" stroke="None">
<path d="
M 349.00 47.00 
C 345.15 49.70 342.79 52.75 337.75 55.75 C 332.71 58.75 332.74 64.57 329.67 68.67 C 326.61 72.78 329.15 82.05 327.00 85.00
C 327.00 85.00 326.82 85.57 327.00 86.00
C 331.23 88.65 331.36 96.16 335.75 99.25 C 340.14 102.34 343.19 107.20 348.00 109.00
C 350.06 109.77 352.73 109.85 355.00 110.00
C 357.86 110.19 361.15 110.29 364.00 110.00
C 366.87 109.71 369.20 108.58 372.00 108.00
C 373.25 107.74 374.13 107.31 375.00 107.00
C 390.08 95.80 391.82 83.45 389.00 66.00
C 389.00 66.00 389.11 65.47 389.00 65.00
C 385.13 62.58 384.28 56.99 379.97 55.03 C 375.67 53.07 371.65 49.35 368.00 47.00
C 366.75 46.19 365.40 45.35 364.00 45.00
C 363.34 44.90 355.74 44.95 355.00 45.00
C 352.49 45.40 351.24 46.15 349.00 47.00 Z"/>
</g>
<g fill="#33556A" fill-opacity="0.05" stroke="None">
<path d="
M 364.00 45.00 
C 361.70 44.43 357.34 44.63 355.00 45.00
C 355.74 44.95 363.34 44.90 364.00 45.00 Z"/>
</g>
<g fill="#98B4CE" fill-opacity="0.23" stroke="None">
<path d="
M 327.00 85.00 
C 329.15 82.05 326.61 72.78 329.67 68.67 C 332.74 64.57 332.71 58.75 337.75 55.75 C 342.79 52.75 345.15 49.70 349.00 47.00
C 336.73 51.64 317.60 71.08 327.00 85.00 Z"/>
</g>
<g fill="#93B1C7" fill-opacity="0.25" stroke="None">
<path d="
M 389.00 65.00 
C 386.42 54.03 377.26 50.59 368.00 47.00
C 371.65 49.35 375.67 53.07 379.97 55.03 C 384.28 56.99 385.13 62.58 389.00 65.00 Z"/>
</g>
<g fill="#B2CEDF" fill-opacity="0.09" stroke="None">
<path d="
M 435.00 73.00 
C 442.38 68.44 452.00 58.16 457.00 51.00
C 450.11 57.49 439.07 64.41 435.00 73.00 Z"/>
</g>
<g fill="#5E8398" fill-opacity="0.12" stroke="None">
<path d="
M 404.00 147.00 
C 403.77 147.16 404.00 148.00 404.00 148.00
C 410.42 147.34 414.76 135.71 420.25 132.25 C 425.74 128.80 430.72 121.51 435.77 116.77 C 440.82 112.03 446.62 106.68 451.75 101.75 C 456.87 96.81 461.67 90.93 467.08 86.08 C 472.49 81.24 477.06 75.25 482.25 70.25 C 487.44 65.25 494.18 60.38 497.00 54.00
C 489.87 65.75 475.61 74.62 466.25 85.25 C 456.89 95.87 445.58 106.47 435.25 116.25 C 424.91 126.02 415.62 138.86 404.00 147.00 Z"/>
</g>
<g fill="#DFEAF2" fill-opacity="0.75" stroke="None">
<path d="
M 233.00 65.00 
C 236.24 67.80 239.25 70.81 242.00 74.00
C 252.67 84.57 262.60 96.16 274.00 106.00
C 283.79 114.45 293.59 124.26 302.00 134.00
C 305.50 137.46 312.13 142.48 314.00 147.00
C 314.07 147.18 315.00 147.00 315.00 147.00
C 314.20 139.46 301.53 134.22 297.25 127.75 C 292.97 121.28 284.45 116.06 279.25 109.75 C 274.04 103.44 266.25 97.56 260.75 91.25 C 255.26 84.94 248.14 79.72 242.75 73.25 C 237.36 66.78 229.60 61.49 224.00 56.00
C 226.57 59.35 229.81 62.25 233.00 65.00 Z"/>
</g>
<g fill="#B6CBDD" fill-opacity="0.48" stroke="None">
<path d="
M 242.00 74.00 
C 239.25 70.81 236.24 67.80 233.00 65.00
C 235.87 67.90 239.05 71.08 242.00 74.00 Z"/>
</g>
<g fill="#87A8C4" fill-opacity="0.19" stroke="None">
<path d="
M 375.00 107.00 
C 381.24 104.80 388.87 96.73 391.01 91.01 C 393.15 85.29 396.05 68.88 389.00 66.00
C 391.82 83.45 390.08 95.80 375.00 107.00 Z"/>
</g>
<g fill="#527A90" fill-opacity="0.10" stroke="None">
<path d="
M 385.00 122.00 
C 394.05 119.99 402.99 104.48 410.25 98.25 C 417.50 92.01 428.92 82.22 434.00 74.00
C 427.90 77.56 422.82 85.56 416.92 89.92 C 411.01 94.28 407.27 102.49 401.25 106.25 C 395.23 110.00 391.31 119.95 385.00 122.00 Z"/>
</g>
<g fill="#92B0C5" fill-opacity="0.20" stroke="None">
<path d="
M 348.00 109.00 
C 343.19 107.20 340.14 102.34 335.75 99.25 C 331.36 96.16 331.23 88.65 327.00 86.00
C 332.00 98.12 335.56 103.51 348.00 109.00 Z"/>
</g>
<g fill="#B4C9DB" fill-opacity="0.47" stroke="None">
<path d="
M 302.00 134.00 
C 293.59 124.26 283.79 114.45 274.00 106.00
C 283.17 115.26 292.69 124.78 302.00 134.00 Z"/>
</g>
<g fill="#7FA8BF" fill-opacity="0.10" stroke="None">
<path d="
M 364.00 110.00 
C 363.62 110.22 363.26 111.88 363.00 112.00
C 367.18 111.61 368.98 109.33 372.00 108.00
C 369.20 108.58 366.87 109.71 364.00 110.00 Z"/>
</g>
<g fill="#6281B6" fill-opacity="0.07" stroke="None">
<path d="
M 355.00 111.00 
C 354.75 110.74 355.00 110.00 355.00 110.00
C 352.73 109.85 350.06 109.77 348.00 109.00
C 350.10 109.93 351.36 110.56 355.00 111.00 Z"/>
</g>
<g fill="#CEDEEC" fill-opacity="0.40" stroke="None">
<path d="
M 355.00 111.00 
C 356.59 112.64 360.60 112.22 363.00 112.00
C 363.26 111.88 363.62 110.22 364.00 110.00
C 361.15 110.29 357.86 110.19 355.00 110.00
C 355.00 110.00 354.75 110.74 355.00 111.00 Z"/>
</g>
<g fill="#738DA3" fill-opacity="0.27" stroke="None">
<path d="
M 319.00 458.00 
C 308.56 441.82 317.18 418.47 315.00 399.00 C 312.82 379.53 316.12 356.29 315.00 336.00 C 313.88 315.71 315.79 293.65 315.00 273.00 C 314.21 252.35 315.99 230.76 315.00 210.00 C 314.01 189.24 316.86 167.72 315.00 147.00
C 315.00 147.00 314.07 147.18 314.00 147.00
C 312.12 167.81 314.69 190.20 314.00 211.00 C 313.31 231.80 313.92 253.46 314.00 274.00 C 314.08 294.54 313.09 317.03 314.00 337.00 C 314.91 356.97 311.67 381.29 314.00 400.00 C 316.33 418.71 306.47 444.97 319.00 458.00 Z"/>
</g>
<g fill="#CDD6DE" fill-opacity="0.74" stroke="None">
<path d="
M 403.00 225.00 
C 403.00 224.96 404.00 225.00 404.00 225.00
C 401.72 199.81 404.00 173.31 404.00 148.00
C 404.00 148.00 403.77 147.16 404.00 147.00
C 399.13 151.69 404.55 165.88 403.00 173.00 C 401.45 180.12 403.58 191.14 403.00 199.00 C 402.42 206.86 403.00 216.94 403.00 225.00 Z"/>
</g>
<g fill="#B4C8D8" fill-opacity="0.50" stroke="None">
<path d="
M 135.00 171.00 
C 136.95 171.00 138.89 170.38 141.00 170.00
C 140.82 170.30 140.13 168.51 141.00 168.00
C 139.00 168.44 137.15 170.46 135.00 171.00 Z"/>
</g>
<g fill="#C8D7E8" fill-opacity="0.34" stroke="None">
<path d="
M 141.00 170.00 
C 145.49 169.20 150.45 170.41 155.00 170.00
C 154.78 169.88 155.00 169.00 155.00 169.00
C 151.46 168.00 145.27 167.07 141.00 168.00
C 140.13 168.51 140.82 170.30 141.00 170.00 Z"/>
</g>
<g fill="#91B0C5" fill-opacity="0.24" stroke="None">
<path d="
M 155.00 170.00 
C 160.59 173.21 165.84 174.73 170.00 180.00
C 172.85 182.85 175.46 185.16 177.00 189.00
C 181.46 200.08 177.58 212.43 173.00 221.00
C 181.35 210.74 183.06 194.99 175.00 183.00
C 172.80 180.21 168.64 176.33 166.00 174.00
C 162.89 171.66 158.86 170.09 155.00 169.00
C 155.00 169.00 154.78 169.88 155.00 170.00 Z"/>
</g>
<g fill="#FDFDFE" fill-opacity="0.99" stroke="None">
<path d="
M 135.00 171.00 
C 133.39 171.00 133.07 171.50 132.00 172.00
C 131.15 172.93 128.50 175.89 126.00 178.00
C 120.78 184.05 115.49 191.29 114.00 199.00
C 113.80 201.97 114.52 204.68 115.00 207.00
C 118.53 216.56 126.15 228.19 137.00 231.00
C 139.32 231.60 143.07 232.73 145.00 233.00
C 146.27 233.18 147.71 233.00 149.00 233.00
C 152.33 232.54 156.17 230.14 160.00 230.00
C 160.50 229.98 161.00 230.00 161.00 230.00
C 162.60 227.54 165.21 225.62 168.00 225.00
C 167.70 226.25 166.17 226.71 166.00 228.00
C 168.70 225.82 171.25 224.27 173.00 221.00
C 177.58 212.43 181.46 200.08 177.00 189.00
C 175.55 186.19 172.11 182.67 170.00 180.00
C 165.84 174.73 160.59 173.21 155.00 170.00
C 150.45 170.41 145.49 169.20 141.00 170.00
C 138.89 170.38 136.95 171.00 135.00 171.00 Z"/>
</g>
<g fill="#BBCEDF" fill-opacity="0.43" stroke="None">
<path d="
M 129.00 173.00 
C 128.31 173.54 126.86 177.00 126.00 178.00
C 128.50 175.89 131.15 172.93 132.00 172.00
C 131.14 172.40 129.72 172.61 129.00 173.00 Z"/>
</g>
<g fill="#85A4BC" fill-opacity="0.18" stroke="None">
<path d="
M 114.00 199.00 
C 115.49 191.29 120.78 184.05 126.00 178.00
C 126.86 177.00 128.31 173.54 129.00 173.00
C 120.57 177.57 114.64 189.57 114.00 199.00 Z"/>
</g>
<g fill="#6981A1" fill-opacity="0.05" stroke="None">
<path d="
M 175.00 183.00 
C 172.76 179.66 169.25 176.44 166.00 174.00
C 168.64 176.33 172.80 180.21 175.00 183.00 Z"/>
</g>
<g fill="#DCE7F2" fill-opacity="0.71" stroke="None">
<path d="
M 177.00 189.00 
C 175.46 185.16 172.85 182.85 170.00 180.00
C 172.11 182.67 175.55 186.19 177.00 189.00 Z"/>
</g>
<g fill="#93ACC2" fill-opacity="0.24" stroke="None">
<path d="
M 137.00 232.00 
C 136.76 231.81 137.00 231.00 137.00 231.00
C 126.15 228.19 118.53 216.56 115.00 207.00
C 117.76 220.34 124.41 227.81 137.00 232.00 Z"/>
</g>
<g fill="#B3D0DF" fill-opacity="0.44" stroke="None">
<path d="
M 161.00 230.00 
C 161.35 230.03 161.80 230.98 162.00 231.00
C 163.80 230.09 164.62 229.11 166.00 228.00
C 166.17 226.71 167.70 226.25 168.00 225.00
C 165.21 225.62 162.60 227.54 161.00 230.00 Z"/>
</g>
<g fill="#E7EFF5" fill-opacity="0.84" stroke="None">
<path d="
M 401.00 453.00 
C 401.93 451.82 403.71 450.43 404.00 449.00
C 404.05 448.01 404.00 446.99 404.00 446.00
C 404.00 409.35 405.25 372.65 404.00 336.00 C 402.75 299.35 407.30 261.53 404.00 225.00
C 404.00 225.00 403.00 224.96 403.00 225.00
C 403.00 240.24 403.14 255.79 403.00 271.00 C 402.86 286.21 403.37 301.91 403.00 317.00 C 402.63 332.09 403.84 348.19 403.00 363.00 C 402.16 377.81 404.87 394.82 403.00 409.00 C 401.13 423.18 408.08 440.82 401.00 453.00 Z"/>
</g>
<g fill="#A6C0D7" fill-opacity="0.31" stroke="None">
<path d="
M 404.00 446.00 
C 404.00 446.00 404.74 446.25 405.00 446.00
C 408.27 409.88 405.02 372.33 405.00 336.00 C 404.98 299.67 408.24 261.21 405.00 225.00
C 405.00 225.00 404.00 224.96 404.00 225.00
C 407.30 261.53 402.75 299.35 404.00 336.00 C 405.25 372.65 404.00 409.35 404.00 446.00 Z"/>
</g>
<g fill="#B5B5DA" fill-opacity="0.03" stroke="None">
<path d="
M 405.00 446.00 
C 409.65 441.50 404.57 428.90 406.00 422.00 C 407.43 415.10 405.36 404.66 406.00 397.00 C 406.64 389.34 405.73 379.98 406.00 372.00 C 406.27 364.02 405.92 355.05 406.00 347.00 C 406.08 338.95 406.07 331.05 406.00 323.00 C 405.93 314.95 406.25 305.97 406.00 298.00 C 405.75 290.03 406.59 280.65 406.00 273.00 C 405.41 265.35 407.34 254.87 406.00 248.00 C 404.66 241.13 409.59 229.44 405.00 225.00
C 408.24 261.21 404.98 299.67 405.00 336.00 C 405.02 372.33 408.27 409.88 405.00 446.00 Z"/>
</g>
<g fill="#D8E3EC" fill-opacity="0.75" stroke="None">
<path d="
M 149.00 233.00 
C 149.50 233.00 150.00 233.00 150.00 233.00
C 153.35 232.92 157.56 231.98 160.00 230.00
C 156.17 230.14 152.33 232.54 149.00 233.00 Z"/>
</g>
<g fill="#7CA4BD" fill-opacity="0.14" stroke="None">
<path d="
M 150.00 233.00 
C 149.95 232.95 148.95 235.02 149.00 235.00
C 152.92 234.55 158.46 232.78 162.00 231.00
C 161.80 230.98 161.35 230.03 161.00 230.00
C 161.00 230.00 160.50 229.98 160.00 230.00
C 157.56 231.98 153.35 232.92 150.00 233.00 Z"/>
</g>
<g fill="#A4BDCC" fill-opacity="0.44" stroke="None">
<path d="
M 137.00 232.00 
C 138.47 233.14 142.88 234.69 145.00 235.00
C 144.76 234.68 145.25 233.28 145.00 233.00
C 143.07 232.73 139.32 231.60 137.00 231.00
C 137.00 231.00 136.76 231.81 137.00 232.00 Z"/>
</g>
<g fill="#BED5E7" fill-opacity="0.27" stroke="None">
<path d="
M 145.00 235.00 
C 146.18 235.17 147.82 235.14 149.00 235.00
C 148.95 235.02 149.95 232.95 150.00 233.00
C 150.00 233.00 149.50 233.00 149.00 233.00
C 147.71 233.00 146.27 233.18 145.00 233.00
C 145.25 233.28 144.76 234.68 145.00 235.00 Z"/>
</g>
<g fill="#A0B9D4" fill-opacity="0.21" stroke="None">
<path d="
M 25.00 321.00 
C 29.68 319.85 33.08 310.53 37.75 307.75 C 42.43 304.97 46.26 298.44 50.75 294.75 C 55.25 291.06 59.33 285.92 63.75 281.75 C 68.18 277.59 72.34 273.28 76.75 268.75 C 81.16 264.22 85.30 260.77 89.75 255.75 C 94.20 250.73 100.14 246.54 107.00 246.00
C 107.94 245.69 108.57 245.12 110.00 245.00
C 109.69 244.89 108.21 243.04 108.00 243.00
C 102.33 244.16 94.38 248.34 89.92 252.92 C 85.46 257.50 81.39 262.43 76.70 266.70 C 72.01 270.98 67.18 276.40 62.70 280.70 C 58.22 285.00 53.13 290.05 49.25 294.25 C 45.36 298.44 38.16 304.43 34.92 307.92 C 31.68 311.41 22.12 319.94 25.00 321.00 Z"/>
</g>
<g fill="#C9DAEA" fill-opacity="0.43" stroke="None">
<path d="
M 110.00 245.00 
C 118.58 244.27 128.47 244.95 137.00 245.00 C 145.53 245.05 155.83 244.13 164.00 245.00 C 172.17 245.87 183.78 241.95 190.00 247.00
C 190.49 247.08 191.00 247.00 191.00 247.00
C 190.94 247.05 189.98 244.98 190.00 245.00
C 188.73 244.67 187.95 244.41 187.00 244.00
C 174.93 241.34 161.35 245.39 149.00 244.00 C 136.65 242.61 122.63 245.55 111.00 243.00
C 110.08 243.00 108.90 242.82 108.00 243.00
C 108.21 243.04 109.69 244.89 110.00 245.00 Z"/>
</g>
<g fill="#C1FFFF" fill-opacity="0.02" stroke="None">
<path d="
M 187.00 244.00 
C 176.53 239.51 160.91 244.18 149.00 243.00 C 137.09 241.82 123.10 243.00 111.00 243.00
C 122.63 245.55 136.65 242.61 149.00 244.00 C 161.35 245.39 174.93 241.34 187.00 244.00 Z"/>
</g>
<g fill="#EBF2F7" fill-opacity="0.87" stroke="None">
<path d="
M 107.00 246.00 
C 120.68 244.91 135.33 246.14 149.00 246.00 C 162.67 245.86 176.83 244.84 190.00 247.00
C 183.78 241.95 172.17 245.87 164.00 245.00 C 155.83 244.13 145.53 245.05 137.00 245.00 C 128.47 244.95 118.58 244.27 110.00 245.00
C 108.57 245.12 107.94 245.69 107.00 246.00 Z"/>
</g>
<g fill="#89A6BF" fill-opacity="0.10" stroke="None">
<path d="
M 191.00 247.00 
C 192.74 247.16 193.53 248.20 195.00 249.00
C 196.24 249.67 197.72 250.09 199.00 251.00
C 208.61 257.82 215.30 269.32 224.75 276.25 C 234.21 283.18 240.56 296.88 251.00 302.00
C 251.40 302.20 252.00 302.00 252.00 302.00
C 252.57 301.48 243.52 293.03 240.75 290.25 C 237.98 287.46 232.32 281.56 228.90 278.10 C 225.48 274.64 220.68 270.29 216.75 266.25 C 212.82 262.21 208.72 258.51 204.75 254.25 C 200.78 249.98 195.57 246.45 190.00 245.00
C 189.98 244.98 190.94 247.05 191.00 247.00 Z"/>
</g>
<g fill="#FEFEFE" fill-opacity="0.99" stroke="None">
<path d="
M 25.00 321.00 
C 30.71 323.09 39.82 320.67 46.00 321.00 C 52.18 321.33 60.90 322.20 67.00 321.00
C 72.20 319.08 78.25 306.54 83.25 304.25 C 88.25 301.95 96.56 285.39 102.00 291.00
C 103.01 302.19 102.18 313.72 102.00 325.00 C 101.82 336.29 103.38 348.77 102.00 360.00
C 103.63 357.72 106.89 356.51 109.00 355.00
C 120.29 345.21 131.21 334.20 142.00 324.00
C 154.31 335.23 165.16 348.09 177.00 360.00
C 167.32 369.35 156.81 378.69 148.00 389.00
C 142.45 395.49 134.85 401.06 130.00 408.00
C 137.00 408.00 144.00 408.00 151.00 408.00
C 151.00 404.67 151.00 401.33 151.00 398.00
C 159.33 398.00 167.67 398.00 176.00 398.00
C 177.18 400.51 174.43 405.76 176.00 408.00
C 180.70 408.67 187.51 407.11 192.00 408.00 C 196.49 408.89 203.95 405.83 207.00 409.00
C 207.43 409.71 207.00 412.15 207.00 413.00
C 207.00 413.50 207.00 414.00 207.00 414.00
C 204.24 419.65 196.27 425.40 191.75 429.75 C 187.23 434.11 181.71 442.62 176.00 445.00
C 176.00 456.67 176.00 468.33 176.00 480.00
C 179.63 480.56 183.13 481.48 187.00 481.00
C 196.38 478.68 202.54 466.47 210.25 460.25 C 217.96 454.03 225.32 444.76 232.75 437.75 C 240.19 430.74 248.13 422.72 255.25 415.25 C 262.37 407.78 271.85 400.45 277.00 392.00
C 277.24 391.40 277.91 389.63 278.00 389.00
C 278.12 390.42 275.73 388.36 276.00 386.00
C 274.03 384.25 275.14 382.34 275.00 381.00
C 274.86 379.67 274.49 379.17 274.00 378.00
C 272.65 376.13 269.31 374.81 268.00 373.00
C 257.32 366.45 244.66 369.56 232.00 369.00 C 219.34 368.44 204.82 369.42 192.00 369.00
C 192.00 343.33 192.00 317.67 192.00 292.00
C 193.95 285.86 205.03 298.14 208.25 301.75 C 211.46 305.36 219.04 312.44 223.25 316.75 C 227.45 321.07 233.58 327.19 238.25 331.75 C 242.91 336.32 248.56 342.21 253.00 347.00
C 253.74 347.67 255.63 350.58 255.00 350.00
C 256.08 350.54 256.64 350.60 258.00 351.00
C 260.80 350.86 262.96 349.71 266.00 351.00
C 266.48 350.91 267.57 351.17 268.00 351.00
C 268.66 347.39 274.72 346.20 276.75 340.75 C 278.78 335.31 275.94 328.61 272.00 325.00
C 245.74 300.96 222.59 270.93 195.00 249.00
C 193.53 248.20 192.74 247.16 191.00 247.00
C 191.00 247.00 190.49 247.08 190.00 247.00
C 176.83 244.84 162.67 245.86 149.00 246.00 C 135.33 246.14 120.68 244.91 107.00 246.00
C 100.14 246.54 94.20 250.73 89.75 255.75 C 85.30 260.77 81.16 264.22 76.75 268.75 C 72.34 273.28 68.18 277.59 63.75 281.75 C 59.33 285.92 55.25 291.06 50.75 294.75 C 46.26 298.44 42.43 304.97 37.75 307.75 C 33.08 310.53 29.68 319.85 25.00 321.00 Z"/>
</g>
<g fill="#E8F0F7" fill-opacity="0.81" stroke="None">
<path d="
M 272.00 325.00 
C 265.98 318.56 254.83 310.83 251.00 303.00
C 234.07 286.07 217.22 266.32 199.00 251.00
C 197.72 250.09 196.24 249.67 195.00 249.00
C 222.59 270.93 245.74 300.96 272.00 325.00 Z"/>
</g>
<g fill="#AFC7DA" fill-opacity="0.41" stroke="None">
<path d="
M 251.00 303.00 
C 250.80 302.60 251.00 302.00 251.00 302.00
C 240.56 296.88 234.21 283.18 224.75 276.25 C 215.30 269.32 208.61 257.82 199.00 251.00
C 217.22 266.32 234.07 286.07 251.00 303.00 Z"/>
</g>
<g fill="#D1E0EE" fill-opacity="0.45" stroke="None">
<path d="
M 350.00 284.00 
C 350.08 283.81 351.50 284.00 352.00 284.00
C 354.48 282.94 366.07 281.24 368.00 284.00
C 371.24 288.63 366.47 299.21 368.00 305.00 C 369.53 310.79 367.33 318.62 368.00 325.00 C 368.67 331.38 367.67 339.40 368.00 346.00 C 368.33 352.60 367.83 359.33 368.00 366.00 C 368.17 372.67 367.87 379.26 368.00 386.00 C 368.13 392.74 367.82 400.25 368.00 407.00 C 368.18 413.75 367.64 420.32 368.00 427.00 C 368.36 433.68 367.22 440.39 368.00 447.00
C 368.08 447.19 369.83 446.76 370.00 447.00
C 370.00 392.00 370.00 337.00 370.00 282.00
C 367.34 282.09 361.32 281.88 359.00 282.00 C 356.68 282.12 349.07 280.96 350.00 284.00 Z"/>
</g>
<g fill="#DEDEFF" fill-opacity="0.03" stroke="None">
<path d="
M 352.00 284.00 
C 357.33 284.00 362.67 284.00 368.00 284.00
C 366.07 281.24 354.48 282.94 352.00 284.00 Z"/>
</g>
<g fill="#9AB4CB" fill-opacity="0.22" stroke="None">
<path d="
M 67.00 321.00 
C 74.07 319.61 77.95 308.87 83.75 305.75 C 89.55 302.64 94.67 290.08 101.00 291.00
C 101.49 291.07 102.00 291.00 102.00 291.00
C 96.56 285.39 88.25 301.95 83.25 304.25 C 78.25 306.54 72.20 319.08 67.00 321.00 Z"/>
</g>
<g fill="#EDF5FB" fill-opacity="0.82" stroke="None">
<path d="
M 192.00 292.00 
C 192.00 291.96 193.00 292.00 193.00 292.00
C 197.64 288.28 204.49 299.86 208.75 303.25 C 213.02 306.64 218.69 313.52 223.25 317.75 C 227.81 321.98 233.09 327.58 237.75 332.25 C 242.42 336.91 248.13 342.56 253.00 347.00
C 248.56 342.21 242.91 336.32 238.25 331.75 C 233.58 327.19 227.45 321.07 223.25 316.75 C 219.04 312.44 211.46 305.36 208.25 301.75 C 205.03 298.14 193.95 285.86 192.00 292.00 Z"/>
</g>
<g fill="#758EA4" fill-opacity="0.32" stroke="None">
<path d="
M 101.00 362.00 
C 101.67 362.74 102.00 359.99 102.00 360.00
C 103.38 348.77 101.82 336.29 102.00 325.00 C 102.18 313.72 103.01 302.19 102.00 291.00
C 102.00 291.00 101.49 291.07 101.00 291.00
C 100.48 296.70 101.04 303.34 101.00 309.00 C 100.96 314.66 100.58 321.60 101.00 327.00 C 101.42 332.40 99.84 340.26 101.00 345.00 C 102.16 349.74 98.13 358.85 101.00 362.00 Z"/>
</g>
<g fill="#A3BBD0" fill-opacity="0.36" stroke="None">
<path d="
M 193.00 292.00 
C 193.95 292.19 195.06 291.76 196.00 292.00
C 203.59 293.93 208.03 305.85 214.75 310.25 C 221.47 314.65 226.72 323.47 233.25 328.75 C 239.77 334.03 245.94 342.26 252.00 348.00
C 252.96 348.75 253.75 349.38 255.00 350.00
C 255.63 350.58 253.74 347.67 253.00 347.00
C 248.13 342.56 242.42 336.91 237.75 332.25 C 233.09 327.58 227.81 321.98 223.25 317.75 C 218.69 313.52 213.02 306.64 208.75 303.25 C 204.49 299.86 197.64 288.28 193.00 292.00 Z"/>
</g>
<g fill="#D2E1EF" fill-opacity="0.43" stroke="None">
<path d="
M 268.00 373.00 
C 267.47 372.26 267.42 370.45 267.00 370.00
C 243.65 365.52 218.20 369.19 194.00 368.00
C 192.48 355.95 196.02 340.73 194.00 329.00 C 191.98 317.27 198.43 302.33 193.00 292.00
C 193.00 292.00 192.00 291.96 192.00 292.00
C 192.00 317.67 192.00 343.33 192.00 369.00
C 204.82 369.42 219.34 368.44 232.00 369.00 C 244.66 369.56 257.32 366.45 268.00 373.00 Z"/>
</g>
<g fill="#466F9C" fill-opacity="0.04" stroke="None">
<path d="
M 252.00 348.00 
C 245.94 342.26 239.77 334.03 233.25 328.75 C 226.72 323.47 221.47 314.65 214.75 310.25 C 208.03 305.85 203.59 293.93 196.00 292.00
C 202.72 295.52 207.93 306.47 214.75 311.25 C 221.56 316.04 226.44 324.23 233.25 329.75 C 240.05 335.27 245.11 342.62 252.00 348.00 Z"/>
</g>
<g fill="#8DAAC4" fill-opacity="0.22" stroke="None">
<path d="
M 251.00 303.00 
C 254.83 310.83 265.98 318.56 272.00 325.00
C 275.94 328.61 278.78 335.31 276.75 340.75 C 274.72 346.20 268.66 347.39 268.00 351.00
C 280.37 346.14 280.85 332.74 273.75 324.25 C 266.66 315.75 255.37 312.33 252.00 302.00
C 252.00 302.00 251.40 302.20 251.00 302.00
C 251.00 302.00 250.80 302.60 251.00 303.00 Z"/>
</g>
<g fill="#FFFFFF" fill-opacity="0.91" stroke="None">
<path d="
M 87.00 327.00 
C 62.67 327.00 38.33 327.00 14.00 327.00
C 14.00 378.33 14.00 429.67 14.00 481.00
C 65.33 481.00 116.67 481.00 168.00 481.00
C 168.00 455.00 168.00 429.00 168.00 403.00
C 164.67 403.00 161.33 403.00 158.00 403.00
C 158.00 425.67 158.00 448.33 158.00 471.00
C 113.33 471.00 68.67 471.00 24.00 471.00
C 24.00 426.33 24.00 381.67 24.00 337.00
C 45.00 337.00 66.00 337.00 87.00 337.00
C 87.00 333.67 87.00 330.33 87.00 327.00 Z"/>
</g>
<g fill="#FFFFFF" fill-opacity="0.94" stroke="None">
<path d="
M 141.00 334.00 
C 136.21 338.16 130.49 343.37 127.00 348.00
C 136.01 354.51 145.46 363.98 152.00 373.00
C 157.35 370.13 163.09 364.35 166.00 359.00
C 157.38 351.22 148.84 342.66 141.00 334.00 Z"/>
</g>
<g fill="#FBFCFD" fill-opacity="0.97" stroke="None">
<path d="
M 32.00 351.00 
C 37.06 348.79 42.86 346.13 46.00 341.00
C 41.33 341.00 36.67 341.00 32.00 341.00
C 33.15 343.58 30.47 348.67 32.00 351.00 Z"/>
</g>
<g fill="#92B1C8" fill-opacity="0.23" stroke="None">
<path d="
M 32.00 351.00 
C 35.06 355.65 49.78 342.29 46.00 341.00
C 42.86 346.13 37.06 348.79 32.00 351.00 Z"/>
</g>
<g fill="#A9C5D4" fill-opacity="0.35" stroke="None">
<path d="
M 258.00 351.00 
C 262.72 352.40 262.65 351.61 266.00 351.00
C 262.96 349.71 260.80 350.86 258.00 351.00 Z"/>
</g>
<g fill="#FFFFFF" fill-opacity="0.96" stroke="None">
<path d="
M 124.00 352.00 
C 104.00 369.50 83.53 389.98 66.00 410.00
C 73.75 416.27 79.73 423.98 87.25 430.75 C 94.77 437.53 102.12 423.43 108.75 417.75 C 115.39 412.08 122.68 403.60 129.25 397.25 C 135.81 390.90 144.14 383.42 149.00 376.00
C 139.78 369.90 131.93 360.12 124.00 352.00 Z"/>
</g>
<g fill="#F4FFFF" fill-opacity="0.33" stroke="None">
<path d="
M 102.00 360.00 
C 102.00 359.99 101.67 362.74 101.00 362.00
C 100.99 363.72 108.11 355.89 109.00 355.00
C 106.89 356.51 103.63 357.72 102.00 360.00 Z"/>
</g>
<g fill="#E0EAF4" fill-opacity="0.63" stroke="None">
<path d="
M 32.00 370.00 
C 51.67 370.00 71.33 370.00 91.00 370.00
C 89.97 373.01 83.88 375.48 85.00 378.00
C 88.64 375.23 92.13 371.64 95.00 368.00
C 88.20 368.33 79.63 367.56 73.00 368.00 C 66.37 368.44 56.98 367.16 51.00 368.00 C 45.02 368.84 34.32 365.21 32.00 370.00 Z"/>
</g>
<g fill="#FEFFFF" fill-opacity="0.98" stroke="None">
<path d="
M 32.00 408.00 
C 38.54 410.73 42.56 419.96 48.00 424.00
C 52.34 420.87 50.13 408.00 56.75 404.75 C 63.37 401.51 65.99 395.68 71.25 391.25 C 76.50 386.81 80.39 382.61 85.00 378.00
C 83.88 375.48 89.97 373.01 91.00 370.00
C 71.33 370.00 51.67 370.00 32.00 370.00
C 29.60 374.96 32.90 383.38 32.00 389.00 C 31.10 394.62 32.00 402.20 32.00 408.00 Z"/>
</g>
<g fill="#88A0B5" fill-opacity="0.17" stroke="None">
<path d="
M 268.00 373.00 
C 269.31 374.81 272.65 376.13 274.00 378.00
C 272.49 374.40 270.54 371.81 267.00 370.00
C 267.42 370.45 267.47 372.26 268.00 373.00 Z"/>
</g>
<g fill="#B6D7E9" fill-opacity="0.36" stroke="None">
<path d="
M 276.00 386.00 
C 276.06 385.51 276.00 385.00 276.00 385.00
C 278.07 382.11 275.72 382.33 275.00 381.00
C 275.14 382.34 274.03 384.25 276.00 386.00 Z"/>
</g>
<g fill="#87A4BB" fill-opacity="0.12" stroke="None">
<path d="
M 276.00 386.00 
C 275.73 388.36 278.12 390.42 278.00 389.00
C 278.21 387.50 278.32 384.44 276.00 385.00
C 276.00 385.00 276.06 385.51 276.00 386.00 Z"/>
</g>
<g fill="#FFFFFF" fill-opacity="0.25" stroke="None">
<path d="
M 129.00 408.00 
C 129.26 407.75 130.00 408.00 130.00 408.00
C 134.85 401.06 142.45 395.49 148.00 389.00
C 142.74 394.26 131.94 400.95 129.00 408.00 Z"/>
</g>
<g fill="#9FB8D0" fill-opacity="0.24" stroke="None">
<path d="
M 187.00 481.00 
C 200.80 479.29 209.17 461.68 219.30 453.30 C 229.44 444.93 240.22 433.15 249.75 423.75 C 259.27 414.34 272.21 403.81 277.00 392.00
C 271.85 400.45 262.37 407.78 255.25 415.25 C 248.13 422.72 240.19 430.74 232.75 437.75 C 225.32 444.76 217.96 454.03 210.25 460.25 C 202.54 466.47 196.38 478.68 187.00 481.00 Z"/>
</g>
<g fill="#DEE9F3" fill-opacity="0.72" stroke="None">
<path d="
M 32.00 409.00 
C 37.95 413.16 42.13 419.84 48.00 424.00
C 42.56 419.96 38.54 410.73 32.00 408.00
C 32.00 408.00 31.88 408.53 32.00 409.00 Z"/>
</g>
<g fill="#7D95AA" fill-opacity="0.33" stroke="None">
<path d="
M 151.00 408.00 
C 144.00 408.00 137.00 408.00 130.00 408.00
C 130.00 408.00 129.26 407.75 129.00 408.00
C 129.73 407.30 148.17 412.04 151.00 408.00 Z"/>
</g>
<g fill="#7F96AB" fill-opacity="0.35" stroke="None">
<path d="
M 206.00 409.00 
C 206.50 409.00 207.00 409.00 207.00 409.00
C 203.95 405.83 196.49 408.89 192.00 408.00 C 187.51 407.11 180.70 408.67 176.00 408.00
C 178.18 411.11 187.12 408.32 191.00 409.00 C 194.88 409.68 201.84 408.99 206.00 409.00 Z"/>
</g>
<g fill="#769AB1" fill-opacity="0.18" stroke="None">
<path d="
M 48.00 424.00 
C 42.13 419.84 37.95 413.16 32.00 409.00
C 32.75 411.83 46.58 425.02 48.00 424.00 Z"/>
</g>
<g fill="#A3BDD3" fill-opacity="0.27" stroke="None">
<path d="
M 205.00 413.00 
C 202.13 418.70 195.03 422.99 190.75 427.75 C 186.47 432.51 181.18 438.37 176.00 442.00
C 176.00 442.00 176.00 442.50 176.00 443.00
C 181.67 439.03 185.70 432.29 191.25 428.25 C 196.80 424.20 200.72 415.62 207.00 413.00
C 207.00 412.15 207.43 409.71 207.00 409.00
C 207.00 409.00 206.50 409.00 206.00 409.00
C 205.65 410.61 205.75 411.50 205.00 413.00 Z"/>
</g>
<g fill="#FFFFFF" fill-opacity="0.93" stroke="None">
<path d="
M 86.00 440.00 
C 79.87 430.69 68.18 420.98 60.00 413.00
C 55.81 427.28 49.14 440.78 45.00 455.00
C 58.52 449.56 71.98 443.78 86.00 440.00 Z"/>
</g>
<g fill="#A2BDD0" fill-opacity="0.05" stroke="None">
<path d="
M 176.00 442.00 
C 181.18 438.37 186.47 432.51 190.75 427.75 C 195.03 422.99 202.13 418.70 205.00 413.00
C 198.34 423.43 181.77 430.21 176.00 442.00 Z"/>
</g>
<g fill="#C7D9E9" fill-opacity="0.58" stroke="None">
<path d="
M 176.00 443.00 
C 176.00 443.00 176.00 443.50 176.00 444.00
C 187.66 435.84 195.39 422.11 207.00 414.00
C 207.00 414.00 207.00 413.50 207.00 413.00
C 200.72 415.62 196.80 424.20 191.25 428.25 C 185.70 432.29 181.67 439.03 176.00 443.00 Z"/>
</g>
<g fill="#F1F6FB" fill-opacity="0.87" stroke="None">
<path d="
M 176.00 444.00 
C 176.00 444.00 176.00 444.50 176.00 445.00
C 181.71 442.62 187.23 434.11 191.75 429.75 C 196.27 425.40 204.24 419.65 207.00 414.00
C 195.39 422.11 187.66 435.84 176.00 444.00 Z"/>
</g>
<g fill="#97B4C6" fill-opacity="0.19" stroke="None">
<path d="
M 105.00 432.00 
C 109.55 431.62 114.04 440.45 117.75 443.25 C 121.47 446.05 127.16 452.45 130.00 456.00
C 130.54 453.73 128.48 452.23 129.00 450.00
C 123.28 448.83 121.19 442.61 116.75 439.25 C 112.32 435.88 109.84 429.00 105.00 432.00 Z"/>
</g>
<g fill="#FDFEFE" fill-opacity="0.97" stroke="None">
<path d="
M 74.00 450.00 
C 79.37 453.05 83.34 463.91 89.00 466.00
C 94.07 467.52 103.76 466.32 109.00 466.00 C 114.24 465.68 124.54 468.38 129.00 466.00
C 129.10 463.00 129.63 460.12 130.00 458.00
C 129.83 457.57 130.02 456.50 130.00 456.00
C 127.16 452.45 121.47 446.05 117.75 443.25 C 114.04 440.45 109.55 431.62 105.00 432.00
C 100.35 434.89 96.43 440.82 92.02 444.02 C 87.62 447.23 77.24 445.58 74.00 450.00 Z"/>
</g>
<g fill="#8EACBE" fill-opacity="0.18" stroke="None">
<path d="
M 379.00 461.00 
C 374.86 457.19 370.80 453.01 370.00 447.00
C 369.83 446.76 368.08 447.19 368.00 447.00
C 368.86 454.27 374.95 458.61 379.00 461.00 Z"/>
</g>
<g fill="#9EB5CD" fill-opacity="0.24" stroke="None">
<path d="
M 401.00 453.00 
C 396.47 458.73 389.45 464.34 382.00 463.00
C 391.31 466.95 403.48 459.01 404.00 449.00
C 403.71 450.43 401.93 451.82 401.00 453.00 Z"/>
</g>
<g fill="#7196AE" fill-opacity="0.16" stroke="None">
<path d="
M 89.00 466.00 
C 83.34 463.91 79.37 453.05 74.00 450.00
C 72.75 451.70 78.90 456.56 80.75 458.25 C 82.60 459.94 86.08 465.13 89.00 466.00 Z"/>
</g>
<g fill="#93B8CC" fill-opacity="0.24" stroke="None">
<path d="
M 329.00 463.00 
C 337.67 464.92 344.31 461.06 348.00 453.00
C 344.98 457.28 336.38 462.86 329.00 463.00 Z"/>
</g>
<g fill="#A3BCCE" fill-opacity="0.33" stroke="None">
<path d="
M 129.00 466.00 
C 131.56 464.63 130.87 460.15 130.00 458.00
C 129.63 460.12 129.10 463.00 129.00 466.00 Z"/>
</g>
</svg>