<svg xmlns="http://www.w3.org/2000/svg" xmlns:v="https://svgstorm.com"
viewBox = "0 0 512 512"
width="512"
height="512">
<g fill="None" fill-opacity="0.0" stroke="#000000" stroke-opacity="0.00" stroke-width="0.3"><path d="
M 0.00 512.00 
L 512.00 512.00
L 512.00 0.00
L 0.00 0.00
L 0.00 512.00
M 178.00 63.00 
C 177.78 63.57 176.05 62.66 177.27 61.25 C 178.49 59.83 180.00 60.00 180.00 60.00
C 191.01 51.74 198.96 37.77 213.00 34.00
C 210.90 31.59 215.12 30.19 217.00 30.00
C 216.75 31.88 214.45 31.46 214.00 33.00
C 220.84 27.49 230.55 27.65 239.01 25.01 C 247.47 22.37 261.08 23.81 270.00 24.00 C 278.92 24.19 287.33 29.56 295.23 31.77 C 303.13 33.98 310.19 42.07 316.00 41.00
C 319.74 48.32 327.00 52.66 332.75 60.25 C 338.50 67.83 342.95 74.86 346.92 84.08 C 350.90 93.29 353.28 104.36 354.00 115.00 C 354.72 125.64 352.80 139.65 350.07 149.07 C 347.35 158.50 340.31 167.04 342.00 173.00
C 330.38 182.10 322.93 194.88 308.30 203.30 C 293.68 211.73 274.85 218.90 256.99 218.99 C 239.14 219.08 219.99 212.28 205.25 203.75 C 190.51 195.21 182.64 182.32 171.00 173.00
C 172.51 166.04 165.76 159.44 163.22 150.78 C 160.69 142.11 158.85 130.84 159.00 121.00 C 159.15 111.16 160.24 100.15 163.32 91.32 C 166.41 82.50 170.96 76.55 172.00 68.00
C 174.23 72.07 175.61 64.44 178.00 63.00
M 158.00 110.00 
C 158.00 117.33 158.00 124.67 158.00 132.00
C 156.36 125.74 156.31 116.19 158.00 110.00
M 356.00 110.00 
C 356.00 117.33 356.00 124.67 356.00 132.00
C 354.36 125.74 354.31 116.19 356.00 110.00
M 182.00 225.00 
C 185.66 227.98 188.64 231.89 192.00 235.00
C 209.72 248.99 229.01 258.54 252.00 259.00
C 254.99 259.06 258.01 259.06 261.00 259.00
C 283.27 258.55 304.16 249.39 321.00 235.00
C 323.76 232.24 328.06 224.93 332.00 224.00
C 338.02 222.58 344.90 228.82 350.23 230.77 C 355.56 232.72 361.20 238.36 366.25 240.75 C 371.29 243.14 377.16 250.26 381.00 248.00
C 383.02 250.39 382.28 253.60 386.00 255.00
C 385.51 254.78 386.55 252.88 388.25 254.76 C 389.95 256.64 388.27 256.89 389.00 258.00
C 407.50 271.22 425.23 294.43 435.00 314.00
C 435.47 314.51 440.28 317.81 440.00 321.00
C 438.75 320.70 438.29 319.17 437.00 319.00
C 443.54 332.34 448.35 345.51 452.33 359.67 C 456.31 373.83 460.99 390.97 450.23 402.23 C 439.47 413.49 433.49 420.50 425.00 431.00
C 422.31 427.56 419.08 433.96 415.75 435.75 C 412.42 437.55 407.85 440.54 405.00 443.00
C 403.80 444.19 404.74 444.64 402.92 445.92 C 401.09 447.19 400.97 445.01 401.00 445.00
C 387.75 453.91 369.52 462.07 354.00 465.00
C 354.30 465.05 355.90 466.47 356.00 467.00
C 352.75 466.73 350.28 469.27 347.00 469.00
C 347.88 466.93 351.04 467.79 352.00 466.00
C 344.43 468.58 337.43 469.94 329.33 471.33 C 321.23 472.71 313.25 475.03 304.78 475.78 C 296.31 476.53 287.66 477.26 278.98 477.98 C 270.29 478.69 258.86 478.03 250.00 478.00 C 241.14 477.97 230.38 478.65 222.00 477.00 C 213.62 475.35 219.17 460.89 218.00 453.00 C 216.83 445.11 218.61 432.74 218.00 424.00 C 217.39 415.26 218.46 403.97 218.00 395.00
C 208.00 395.00 198.00 395.00 188.00 395.00
C 188.00 417.33 188.00 439.67 188.00 462.00
C 162.96 463.86 138.84 461.84 118.00 449.00
C 138.86 441.95 154.67 421.84 170.75 405.75 C 186.84 389.66 201.88 372.15 219.00 357.00
C 207.64 344.52 194.90 332.48 183.00 321.00
C 165.78 337.32 147.91 352.89 131.75 370.75 C 115.59 388.62 91.21 402.78 87.00 427.00
C 72.63 419.72 72.00 408.08 73.00 393.00 C 74.00 377.92 72.25 360.31 73.00 345.00
C 94.00 345.00 115.00 345.00 136.00 345.00
C 136.00 336.00 136.00 327.00 136.00 318.00
C 115.67 318.00 95.33 318.00 75.00 318.00
C 77.58 312.40 81.24 307.88 81.00 302.00
C 84.22 304.58 91.47 292.36 90.00 288.00
C 91.95 285.73 94.90 287.42 96.00 284.00
C 95.25 285.41 95.72 278.90 98.00 278.00
C 99.86 278.46 98.16 280.04 98.00 281.00
C 102.35 274.15 109.61 268.53 115.25 262.25 C 120.89 255.97 129.06 250.49 135.70 245.70 C 142.33 240.91 150.21 234.85 157.23 231.23 C 164.25 227.61 176.06 220.16 182.00 225.00
M 127.00 326.00 
C 127.00 329.33 127.00 332.67 127.00 336.00
C 106.00 336.00 85.00 336.00 64.00 336.00
C 64.00 380.67 64.00 425.33 64.00 470.00
C 108.67 470.00 153.33 470.00 198.00 470.00
C 198.00 447.33 198.00 424.67 198.00 402.00
C 201.33 402.00 204.67 402.00 208.00 402.00
C 208.00 428.00 208.00 454.00 208.00 480.00
C 156.67 480.00 105.33 480.00 54.00 480.00
C 54.00 428.67 54.00 377.33 54.00 326.00
C 78.33 326.00 102.67 326.00 127.00 326.00
M 181.00 333.00 
C 188.84 341.66 197.38 350.22 206.00 358.00
C 203.08 363.35 197.35 369.13 192.00 372.00
C 185.46 362.98 176.01 353.51 167.00 347.00
C 170.49 342.37 176.21 337.16 181.00 333.00
M 164.00 351.00 
C 171.93 359.12 179.78 368.90 189.00 375.00
C 184.14 382.42 175.81 389.90 169.25 396.25 C 162.68 402.60 155.39 411.08 148.75 416.75 C 142.12 422.43 134.77 436.53 127.25 429.75 C 119.73 422.98 113.75 415.27 106.00 409.00
C 123.53 388.98 144.00 368.50 164.00 351.00
M 126.00 439.00 
C 111.98 442.78 98.52 448.56 85.00 454.00
C 89.14 439.78 95.81 426.28 100.00 412.00
C 108.18 419.98 119.87 429.69 126.00 439.00
M 227.00 478.00 
C 224.90 480.08 220.85 478.50 218.00 479.00
C 220.10 476.92 224.15 478.50 227.00 478.00
M 295.00 478.00 
C 292.90 480.08 288.85 478.50 286.00 479.00
C 288.10 476.92 292.15 478.50 295.00 478.00
M 244.00 479.00 
C 240.25 481.22 234.51 479.41 230.00 480.00
C 233.75 477.78 239.49 479.59 244.00 479.00
M 283.00 479.00 
C 279.25 481.22 273.51 479.41 269.00 480.00
C 272.75 477.78 278.49 479.59 283.00 479.00 Z"/>
</g>
<g fill="None" fill-opacity="0.0" stroke="#FEFEFE" stroke-opacity="0.98" stroke-width="0.3"><path d="
M 214.00 33.00 
C 212.57 34.80 214.24 33.67 213.00 34.00
C 198.96 37.77 191.01 51.74 180.00 60.00
C 178.78 61.92 179.14 61.57 178.00 63.00
C 175.61 64.44 174.23 72.07 172.00 68.00
C 170.96 76.55 166.41 82.50 163.32 91.32 C 160.24 100.15 159.15 111.16 159.00 121.00 C 158.85 130.84 160.69 142.11 163.22 150.78 C 165.76 159.44 172.51 166.04 171.00 173.00
C 182.64 182.32 190.51 195.21 205.25 203.75 C 219.99 212.28 239.14 219.08 256.99 218.99 C 274.85 218.90 293.68 211.73 308.30 203.30 C 322.93 194.88 330.38 182.10 342.00 173.00
C 340.31 167.04 347.35 158.50 350.07 149.07 C 352.80 139.65 354.72 125.64 354.00 115.00 C 353.28 104.36 350.90 93.29 346.92 84.08 C 342.95 74.86 338.50 67.83 332.75 60.25 C 327.00 52.66 319.74 48.32 316.00 41.00
C 310.19 42.07 303.13 33.98 295.23 31.77 C 287.33 29.56 278.92 24.19 270.00 24.00 C 261.08 23.81 247.47 22.37 239.01 25.01 C 230.55 27.65 220.84 27.49 214.00 33.00 Z"/>
</g>
<g fill="None" fill-opacity="0.0" stroke="#B6B6B6" stroke-opacity="0.09" stroke-width="0.3"><path d="
M 213.00 34.00 
C 214.24 33.67 212.57 34.80 214.00 33.00
C 214.45 31.46 216.75 31.88 217.00 30.00
C 215.12 30.19 210.90 31.59 213.00 34.00 Z"/>
</g>
<g fill="None" fill-opacity="0.0" stroke="#949494" stroke-opacity="0.09" stroke-width="0.3"><path d="
M 178.00 63.00 
C 179.14 61.57 178.78 61.92 180.00 60.00
C 180.00 60.00 178.49 59.83 177.27 61.25 C 176.05 62.66 177.78 63.57 178.00 63.00 Z"/>
</g>
<g fill="None" fill-opacity="0.0" stroke="#FFFFFF" stroke-opacity="0.01" stroke-width="0.3"><path d="
M 158.00 110.00 
C 156.31 116.19 156.36 125.74 158.00 132.00
C 158.00 124.67 158.00 117.33 158.00 110.00 Z"/>
</g>
<g fill="None" fill-opacity="0.0" stroke="#FFFFFF" stroke-opacity="0.01" stroke-width="0.3"><path d="
M 356.00 110.00 
C 354.31 116.19 354.36 125.74 356.00 132.00
C 356.00 124.67 356.00 117.33 356.00 110.00 Z"/>
</g>
<g fill="None" fill-opacity="0.0" stroke="#FEFEFE" stroke-opacity="0.98" stroke-width="0.3"><path d="
M 98.00 281.00 
C 97.50 283.54 97.42 282.60 96.00 284.00
C 94.90 287.42 91.95 285.73 90.00 288.00
C 91.47 292.36 84.22 304.58 81.00 302.00
C 81.24 307.88 77.58 312.40 75.00 318.00
C 95.33 318.00 115.67 318.00 136.00 318.00
C 136.00 327.00 136.00 336.00 136.00 345.00
C 115.00 345.00 94.00 345.00 73.00 345.00
C 72.25 360.31 74.00 377.92 73.00 393.00 C 72.00 408.08 72.63 419.72 87.00 427.00
C 91.21 402.78 115.59 388.62 131.75 370.75 C 147.91 352.89 165.78 337.32 183.00 321.00
C 194.90 332.48 207.64 344.52 219.00 357.00
C 201.88 372.15 186.84 389.66 170.75 405.75 C 154.67 421.84 138.86 441.95 118.00 449.00
C 138.84 461.84 162.96 463.86 188.00 462.00
C 188.00 439.67 188.00 417.33 188.00 395.00
C 198.00 395.00 208.00 395.00 218.00 395.00
C 218.46 403.97 217.39 415.26 218.00 424.00 C 218.61 432.74 216.83 445.11 218.00 453.00 C 219.17 460.89 213.62 475.35 222.00 477.00 C 230.38 478.65 241.14 477.97 250.00 478.00 C 258.86 478.03 270.29 478.69 278.98 477.98 C 287.66 477.26 296.31 476.53 304.78 475.78 C 313.25 475.03 321.23 472.71 329.33 471.33 C 337.43 469.94 344.43 468.58 352.00 466.00
C 352.88 465.44 352.72 465.24 354.00 465.00
C 369.52 462.07 387.75 453.91 401.00 445.00
C 402.87 443.74 403.96 443.60 405.00 443.00
C 407.85 440.54 412.42 437.55 415.75 435.75 C 419.08 433.96 422.31 427.56 425.00 431.00
C 433.49 420.50 439.47 413.49 450.23 402.23 C 460.99 390.97 456.31 373.83 452.33 359.67 C 448.35 345.51 443.54 332.34 437.00 319.00
C 436.20 317.37 435.76 315.52 435.00 314.00
C 425.23 294.43 407.50 271.22 389.00 258.00
C 388.44 257.60 387.19 256.35 386.00 255.00
C 382.28 253.60 383.02 250.39 381.00 248.00
C 377.16 250.26 371.29 243.14 366.25 240.75 C 361.20 238.36 355.56 232.72 350.23 230.77 C 344.90 228.82 338.02 222.58 332.00 224.00
C 329.14 224.88 323.54 232.83 321.00 235.00
C 304.16 249.39 283.27 258.55 261.00 259.00
C 258.03 259.36 254.91 259.35 252.00 259.00
C 229.01 258.54 209.72 248.99 192.00 235.00
C 188.27 232.06 185.32 228.19 182.00 225.00
C 176.06 220.16 164.25 227.61 157.23 231.23 C 150.21 234.85 142.33 240.91 135.70 245.70 C 129.06 250.49 120.89 255.97 115.25 262.25 C 109.61 268.53 102.35 274.15 98.00 281.00
M 353.00 310.00 
C 377.18 313.93 373.05 341.13 362.08 356.08 C 351.12 371.03 343.26 385.79 333.70 402.70 C 324.13 419.61 292.11 417.41 289.22 396.78 C 286.34 376.15 305.01 361.69 312.77 345.77 C 320.53 329.85 332.26 306.63 353.00 310.00 Z"/>
</g>
<g fill="None" fill-opacity="0.0" stroke="#B16D6D" stroke-opacity="0.24" stroke-width="0.3"><path d="
M 321.00 235.00 
C 323.54 232.83 329.14 224.88 332.00 224.00
C 328.06 224.93 323.76 232.24 321.00 235.00 Z"/>
</g>
<g fill="None" fill-opacity="0.0" stroke="#B77B7A" stroke-opacity="0.29" stroke-width="0.3"><path d="
M 192.00 235.00 
C 188.64 231.89 185.66 227.98 182.00 225.00
C 185.32 228.19 188.27 232.06 192.00 235.00 Z"/>
</g>
<g fill="None" fill-opacity="0.0" stroke="#B3B3B3" stroke-opacity="0.21" stroke-width="0.3"><path d="
M 386.00 255.00 
C 387.19 256.35 388.44 257.60 389.00 258.00
C 388.27 256.89 389.95 256.64 388.25 254.76 C 386.55 252.88 385.51 254.78 386.00 255.00 Z"/>
</g>
<g fill="None" fill-opacity="0.0" stroke="#C08989" stroke-opacity="0.27" stroke-width="0.3"><path d="
M 261.00 259.00 
C 258.01 259.06 254.99 259.06 252.00 259.00
C 254.91 259.35 258.03 259.36 261.00 259.00 Z"/>
</g>
<g fill="None" fill-opacity="0.0" stroke="#949494" stroke-opacity="0.06" stroke-width="0.3"><path d="
M 96.00 284.00 
C 97.42 282.60 97.50 283.54 98.00 281.00
C 98.16 280.04 99.86 278.46 98.00 278.00
C 95.72 278.90 95.25 285.41 96.00 284.00 Z"/>
</g>
<g fill="None" fill-opacity="0.0" stroke="#010101" stroke-opacity="0.03" stroke-width="0.3"><path d="
M 353.00 310.00 
C 332.26 306.63 320.53 329.85 312.77 345.77 C 305.01 361.69 286.34 376.15 289.22 396.78 C 292.11 417.41 324.13 419.61 333.70 402.70 C 343.26 385.79 351.12 371.03 362.08 356.08 C 373.05 341.13 377.18 313.93 353.00 310.00
M 346.00 372.00 
C 335.38 366.47 325.91 358.69 315.00 354.00
C 324.00 341.03 334.59 304.76 357.23 317.77 C 379.87 330.79 353.66 357.51 346.00 372.00
M 345.00 373.00 
C 336.01 385.97 325.41 422.24 302.77 409.23 C 280.13 396.21 306.33 369.49 314.00 355.00
C 324.62 360.53 334.09 368.31 345.00 373.00 Z"/>
</g>
<g fill="None" fill-opacity="0.0" stroke="#8C8C8C" stroke-opacity="0.00" stroke-width="0.3"><path d="
M 435.00 314.00 
C 435.76 315.52 436.20 317.37 437.00 319.00
C 438.29 319.17 438.75 320.70 440.00 321.00
C 440.28 317.81 435.47 314.51 435.00 314.00 Z"/>
</g>
<g fill="None" fill-opacity="0.0" stroke="#FAFAFA" stroke-opacity="0.97" stroke-width="0.3"><path d="
M 346.00 372.00 
C 353.66 357.51 379.87 330.79 357.23 317.77 C 334.59 304.76 324.00 341.03 315.00 354.00
C 325.91 358.69 335.38 366.47 346.00 372.00 Z"/>
</g>
<g fill="None" fill-opacity="0.0" stroke="#FFFFFF" stroke-opacity="0.91" stroke-width="0.3"><path d="
M 127.00 326.00 
C 102.67 326.00 78.33 326.00 54.00 326.00
C 54.00 377.33 54.00 428.67 54.00 480.00
C 105.33 480.00 156.67 480.00 208.00 480.00
C 208.00 454.00 208.00 428.00 208.00 402.00
C 204.67 402.00 201.33 402.00 198.00 402.00
C 198.00 424.67 198.00 447.33 198.00 470.00
C 153.33 470.00 108.67 470.00 64.00 470.00
C 64.00 425.33 64.00 380.67 64.00 336.00
C 85.00 336.00 106.00 336.00 127.00 336.00
C 127.00 332.67 127.00 329.33 127.00 326.00 Z"/>
</g>
<g fill="None" fill-opacity="0.0" stroke="#FFFFFF" stroke-opacity="0.94" stroke-width="0.3"><path d="
M 181.00 333.00 
C 176.21 337.16 170.49 342.37 167.00 347.00
C 176.01 353.51 185.46 362.98 192.00 372.00
C 197.35 369.13 203.08 363.35 206.00 358.00
C 197.38 350.22 188.84 341.66 181.00 333.00 Z"/>
</g>
<g fill="None" fill-opacity="0.0" stroke="#FFFFFF" stroke-opacity="0.96" stroke-width="0.3"><path d="
M 164.00 351.00 
C 144.00 368.50 123.53 388.98 106.00 409.00
C 113.75 415.27 119.73 422.98 127.25 429.75 C 134.77 436.53 142.12 422.43 148.75 416.75 C 155.39 411.08 162.68 402.60 169.25 396.25 C 175.81 389.90 184.14 382.42 189.00 375.00
C 179.78 368.90 171.93 359.12 164.00 351.00 Z"/>
</g>
<g fill="None" fill-opacity="0.0" stroke="#FAFAFA" stroke-opacity="0.97" stroke-width="0.3"><path d="
M 345.00 373.00 
C 334.09 368.31 324.62 360.53 314.00 355.00
C 306.33 369.49 280.13 396.21 302.77 409.23 C 325.41 422.24 336.01 385.97 345.00 373.00 Z"/>
</g>
<g fill="None" fill-opacity="0.0" stroke="#FFFFFF" stroke-opacity="0.93" stroke-width="0.3"><path d="
M 126.00 439.00 
C 119.87 429.69 108.18 419.98 100.00 412.00
C 95.81 426.28 89.14 439.78 85.00 454.00
C 98.52 448.56 111.98 442.78 126.00 439.00 Z"/>
</g>
<g fill="None" fill-opacity="0.0" stroke="#808080" stroke-opacity="0.07" stroke-width="0.3"><path d="
M 401.00 445.00 
C 400.97 445.01 401.09 447.19 402.92 445.92 C 404.74 444.64 403.80 444.19 405.00 443.00
C 403.96 443.60 402.87 443.74 401.00 445.00 Z"/>
</g>
<g fill="None" fill-opacity="0.0" stroke="#B3B3B3" stroke-opacity="0.01" stroke-width="0.3"><path d="
M 352.00 466.00 
C 351.04 467.79 347.88 466.93 347.00 469.00
C 350.28 469.27 352.75 466.73 356.00 467.00
C 355.90 466.47 354.30 465.05 354.00 465.00
C 352.72 465.24 352.88 465.44 352.00 466.00 Z"/>
</g>
<g fill="None" fill-opacity="0.0" stroke="#FFFFFF" stroke-opacity="0.01" stroke-width="0.3"><path d="
M 227.00 478.00 
C 224.15 478.50 220.10 476.92 218.00 479.00
C 220.85 478.50 224.90 480.08 227.00 478.00 Z"/>
</g>
<g fill="None" fill-opacity="0.0" stroke="#FFFFFF" stroke-opacity="0.01" stroke-width="0.3"><path d="
M 295.00 478.00 
C 292.15 478.50 288.10 476.92 286.00 479.00
C 288.85 478.50 292.90 480.08 295.00 478.00 Z"/>
</g>
<g fill="None" fill-opacity="0.0" stroke="#FFFFFF" stroke-opacity="0.00" stroke-width="0.3"><path d="
M 244.00 479.00 
C 239.49 479.59 233.75 477.78 230.00 480.00
C 234.51 479.41 240.25 481.22 244.00 479.00 Z"/>
</g>
<g fill="None" fill-opacity="0.0" stroke="#FFFFFF" stroke-opacity="0.00" stroke-width="0.3"><path d="
M 283.00 479.00 
C 278.49 479.59 272.75 477.78 269.00 480.00
C 273.51 479.41 279.25 481.22 283.00 479.00 Z"/>
</g>
<g fill="#000000" fill-opacity="0.00" stroke="None">
<path d="
M 0.00 512.00 
L 512.00 512.00
L 512.00 0.00
L 0.00 0.00
L 0.00 512.00
M 178.00 63.00 
C 177.78 63.57 176.05 62.66 177.27 61.25 C 178.49 59.83 180.00 60.00 180.00 60.00
C 191.01 51.74 198.96 37.77 213.00 34.00
C 210.90 31.59 215.12 30.19 217.00 30.00
C 216.75 31.88 214.45 31.46 214.00 33.00
C 220.84 27.49 230.55 27.65 239.01 25.01 C 247.47 22.37 261.08 23.81 270.00 24.00 C 278.92 24.19 287.33 29.56 295.23 31.77 C 303.13 33.98 310.19 42.07 316.00 41.00
C 319.74 48.32 327.00 52.66 332.75 60.25 C 338.50 67.83 342.95 74.86 346.92 84.08 C 350.90 93.29 353.28 104.36 354.00 115.00 C 354.72 125.64 352.80 139.65 350.07 149.07 C 347.35 158.50 340.31 167.04 342.00 173.00
C 330.38 182.10 322.93 194.88 308.30 203.30 C 293.68 211.73 274.85 218.90 256.99 218.99 C 239.14 219.08 219.99 212.28 205.25 203.75 C 190.51 195.21 182.64 182.32 171.00 173.00
C 172.51 166.04 165.76 159.44 163.22 150.78 C 160.69 142.11 158.85 130.84 159.00 121.00 C 159.15 111.16 160.24 100.15 163.32 91.32 C 166.41 82.50 170.96 76.55 172.00 68.00
C 174.23 72.07 175.61 64.44 178.00 63.00
M 158.00 110.00 
C 158.00 117.33 158.00 124.67 158.00 132.00
C 156.36 125.74 156.31 116.19 158.00 110.00
M 356.00 110.00 
C 356.00 117.33 356.00 124.67 356.00 132.00
C 354.36 125.74 354.31 116.19 356.00 110.00
M 182.00 225.00 
C 185.66 227.98 188.64 231.89 192.00 235.00
C 209.72 248.99 229.01 258.54 252.00 259.00
C 254.99 259.06 258.01 259.06 261.00 259.00
C 283.27 258.55 304.16 249.39 321.00 235.00
C 323.76 232.24 328.06 224.93 332.00 224.00
C 338.02 222.58 344.90 228.82 350.23 230.77 C 355.56 232.72 361.20 238.36 366.25 240.75 C 371.29 243.14 377.16 250.26 381.00 248.00
C 383.02 250.39 382.28 253.60 386.00 255.00
C 385.51 254.78 386.55 252.88 388.25 254.76 C 389.95 256.64 388.27 256.89 389.00 258.00
C 407.50 271.22 425.23 294.43 435.00 314.00
C 435.47 314.51 440.28 317.81 440.00 321.00
C 438.75 320.70 438.29 319.17 437.00 319.00
C 443.54 332.34 448.35 345.51 452.33 359.67 C 456.31 373.83 460.99 390.97 450.23 402.23 C 439.47 413.49 433.49 420.50 425.00 431.00
C 422.31 427.56 419.08 433.96 415.75 435.75 C 412.42 437.55 407.85 440.54 405.00 443.00
C 403.80 444.19 404.74 444.64 402.92 445.92 C 401.09 447.19 400.97 445.01 401.00 445.00
C 387.75 453.91 369.52 462.07 354.00 465.00
C 354.30 465.05 355.90 466.47 356.00 467.00
C 352.75 466.73 350.28 469.27 347.00 469.00
C 347.88 466.93 351.04 467.79 352.00 466.00
C 344.43 468.58 337.43 469.94 329.33 471.33 C 321.23 472.71 313.25 475.03 304.78 475.78 C 296.31 476.53 287.66 477.26 278.98 477.98 C 270.29 478.69 258.86 478.03 250.00 478.00 C 241.14 477.97 230.38 478.65 222.00 477.00 C 213.62 475.35 219.17 460.89 218.00 453.00 C 216.83 445.11 218.61 432.74 218.00 424.00 C 217.39 415.26 218.46 403.97 218.00 395.00
C 208.00 395.00 198.00 395.00 188.00 395.00
C 188.00 417.33 188.00 439.67 188.00 462.00
C 162.96 463.86 138.84 461.84 118.00 449.00
C 138.86 441.95 154.67 421.84 170.75 405.75 C 186.84 389.66 201.88 372.15 219.00 357.00
C 207.64 344.52 194.90 332.48 183.00 321.00
C 165.78 337.32 147.91 352.89 131.75 370.75 C 115.59 388.62 91.21 402.78 87.00 427.00
C 72.63 419.72 72.00 408.08 73.00 393.00 C 74.00 377.92 72.25 360.31 73.00 345.00
C 94.00 345.00 115.00 345.00 136.00 345.00
C 136.00 336.00 136.00 327.00 136.00 318.00
C 115.67 318.00 95.33 318.00 75.00 318.00
C 77.58 312.40 81.24 307.88 81.00 302.00
C 84.22 304.58 91.47 292.36 90.00 288.00
C 91.95 285.73 94.90 287.42 96.00 284.00
C 95.25 285.41 95.72 278.90 98.00 278.00
C 99.86 278.46 98.16 280.04 98.00 281.00
C 102.35 274.15 109.61 268.53 115.25 262.25 C 120.89 255.97 129.06 250.49 135.70 245.70 C 142.33 240.91 150.21 234.85 157.23 231.23 C 164.25 227.61 176.06 220.16 182.00 225.00
M 127.00 326.00 
C 127.00 329.33 127.00 332.67 127.00 336.00
C 106.00 336.00 85.00 336.00 64.00 336.00
C 64.00 380.67 64.00 425.33 64.00 470.00
C 108.67 470.00 153.33 470.00 198.00 470.00
C 198.00 447.33 198.00 424.67 198.00 402.00
C 201.33 402.00 204.67 402.00 208.00 402.00
C 208.00 428.00 208.00 454.00 208.00 480.00
C 156.67 480.00 105.33 480.00 54.00 480.00
C 54.00 428.67 54.00 377.33 54.00 326.00
C 78.33 326.00 102.67 326.00 127.00 326.00
M 181.00 333.00 
C 188.84 341.66 197.38 350.22 206.00 358.00
C 203.08 363.35 197.35 369.13 192.00 372.00
C 185.46 362.98 176.01 353.51 167.00 347.00
C 170.49 342.37 176.21 337.16 181.00 333.00
M 164.00 351.00 
C 171.93 359.12 179.78 368.90 189.00 375.00
C 184.14 382.42 175.81 389.90 169.25 396.25 C 162.68 402.60 155.39 411.08 148.75 416.75 C 142.12 422.43 134.77 436.53 127.25 429.75 C 119.73 422.98 113.75 415.27 106.00 409.00
C 123.53 388.98 144.00 368.50 164.00 351.00
M 126.00 439.00 
C 111.98 442.78 98.52 448.56 85.00 454.00
C 89.14 439.78 95.81 426.28 100.00 412.00
C 108.18 419.98 119.87 429.69 126.00 439.00
M 227.00 478.00 
C 224.90 480.08 220.85 478.50 218.00 479.00
C 220.10 476.92 224.15 478.50 227.00 478.00
M 295.00 478.00 
C 292.90 480.08 288.85 478.50 286.00 479.00
C 288.10 476.92 292.15 478.50 295.00 478.00
M 244.00 479.00 
C 240.25 481.22 234.51 479.41 230.00 480.00
C 233.75 477.78 239.49 479.59 244.00 479.00
M 283.00 479.00 
C 279.25 481.22 273.51 479.41 269.00 480.00
C 272.75 477.78 278.49 479.59 283.00 479.00 Z"/>
</g>
<g fill="#FEFEFE" fill-opacity="0.98" stroke="None">
<path d="
M 214.00 33.00 
C 212.57 34.80 214.24 33.67 213.00 34.00
C 198.96 37.77 191.01 51.74 180.00 60.00
C 178.78 61.92 179.14 61.57 178.00 63.00
C 175.61 64.44 174.23 72.07 172.00 68.00
C 170.96 76.55 166.41 82.50 163.32 91.32 C 160.24 100.15 159.15 111.16 159.00 121.00 C 158.85 130.84 160.69 142.11 163.22 150.78 C 165.76 159.44 172.51 166.04 171.00 173.00
C 182.64 182.32 190.51 195.21 205.25 203.75 C 219.99 212.28 239.14 219.08 256.99 218.99 C 274.85 218.90 293.68 211.73 308.30 203.30 C 322.93 194.88 330.38 182.10 342.00 173.00
C 340.31 167.04 347.35 158.50 350.07 149.07 C 352.80 139.65 354.72 125.64 354.00 115.00 C 353.28 104.36 350.90 93.29 346.92 84.08 C 342.95 74.86 338.50 67.83 332.75 60.25 C 327.00 52.66 319.74 48.32 316.00 41.00
C 310.19 42.07 303.13 33.98 295.23 31.77 C 287.33 29.56 278.92 24.19 270.00 24.00 C 261.08 23.81 247.47 22.37 239.01 25.01 C 230.55 27.65 220.84 27.49 214.00 33.00 Z"/>
</g>
<g fill="#B6B6B6" fill-opacity="0.09" stroke="None">
<path d="
M 213.00 34.00 
C 214.24 33.67 212.57 34.80 214.00 33.00
C 214.45 31.46 216.75 31.88 217.00 30.00
C 215.12 30.19 210.90 31.59 213.00 34.00 Z"/>
</g>
<g fill="#949494" fill-opacity="0.09" stroke="None">
<path d="
M 178.00 63.00 
C 179.14 61.57 178.78 61.92 180.00 60.00
C 180.00 60.00 178.49 59.83 177.27 61.25 C 176.05 62.66 177.78 63.57 178.00 63.00 Z"/>
</g>
<g fill="#FFFFFF" fill-opacity="0.01" stroke="None">
<path d="
M 158.00 110.00 
C 156.31 116.19 156.36 125.74 158.00 132.00
C 158.00 124.67 158.00 117.33 158.00 110.00 Z"/>
</g>
<g fill="#FFFFFF" fill-opacity="0.01" stroke="None">
<path d="
M 356.00 110.00 
C 354.31 116.19 354.36 125.74 356.00 132.00
C 356.00 124.67 356.00 117.33 356.00 110.00 Z"/>
</g>
<g fill="#FEFEFE" fill-opacity="0.98" stroke="None">
<path d="
M 98.00 281.00 
C 97.50 283.54 97.42 282.60 96.00 284.00
C 94.90 287.42 91.95 285.73 90.00 288.00
C 91.47 292.36 84.22 304.58 81.00 302.00
C 81.24 307.88 77.58 312.40 75.00 318.00
C 95.33 318.00 115.67 318.00 136.00 318.00
C 136.00 327.00 136.00 336.00 136.00 345.00
C 115.00 345.00 94.00 345.00 73.00 345.00
C 72.25 360.31 74.00 377.92 73.00 393.00 C 72.00 408.08 72.63 419.72 87.00 427.00
C 91.21 402.78 115.59 388.62 131.75 370.75 C 147.91 352.89 165.78 337.32 183.00 321.00
C 194.90 332.48 207.64 344.52 219.00 357.00
C 201.88 372.15 186.84 389.66 170.75 405.75 C 154.67 421.84 138.86 441.95 118.00 449.00
C 138.84 461.84 162.96 463.86 188.00 462.00
C 188.00 439.67 188.00 417.33 188.00 395.00
C 198.00 395.00 208.00 395.00 218.00 395.00
C 218.46 403.97 217.39 415.26 218.00 424.00 C 218.61 432.74 216.83 445.11 218.00 453.00 C 219.17 460.89 213.62 475.35 222.00 477.00 C 230.38 478.65 241.14 477.97 250.00 478.00 C 258.86 478.03 270.29 478.69 278.98 477.98 C 287.66 477.26 296.31 476.53 304.78 475.78 C 313.25 475.03 321.23 472.71 329.33 471.33 C 337.43 469.94 344.43 468.58 352.00 466.00
C 352.88 465.44 352.72 465.24 354.00 465.00
C 369.52 462.07 387.75 453.91 401.00 445.00
C 402.87 443.74 403.96 443.60 405.00 443.00
C 407.85 440.54 412.42 437.55 415.75 435.75 C 419.08 433.96 422.31 427.56 425.00 431.00
C 433.49 420.50 439.47 413.49 450.23 402.23 C 460.99 390.97 456.31 373.83 452.33 359.67 C 448.35 345.51 443.54 332.34 437.00 319.00
C 436.20 317.37 435.76 315.52 435.00 314.00
C 425.23 294.43 407.50 271.22 389.00 258.00
C 388.44 257.60 387.19 256.35 386.00 255.00
C 382.28 253.60 383.02 250.39 381.00 248.00
C 377.16 250.26 371.29 243.14 366.25 240.75 C 361.20 238.36 355.56 232.72 350.23 230.77 C 344.90 228.82 338.02 222.58 332.00 224.00
C 329.14 224.88 323.54 232.83 321.00 235.00
C 304.16 249.39 283.27 258.55 261.00 259.00
C 258.03 259.36 254.91 259.35 252.00 259.00
C 229.01 258.54 209.72 248.99 192.00 235.00
C 188.27 232.06 185.32 228.19 182.00 225.00
C 176.06 220.16 164.25 227.61 157.23 231.23 C 150.21 234.85 142.33 240.91 135.70 245.70 C 129.06 250.49 120.89 255.97 115.25 262.25 C 109.61 268.53 102.35 274.15 98.00 281.00
M 353.00 310.00 
C 377.18 313.93 373.05 341.13 362.08 356.08 C 351.12 371.03 343.26 385.79 333.70 402.70 C 324.13 419.61 292.11 417.41 289.22 396.78 C 286.34 376.15 305.01 361.69 312.77 345.77 C 320.53 329.85 332.26 306.63 353.00 310.00 Z"/>
</g>
<g fill="#B16D6D" fill-opacity="0.24" stroke="None">
<path d="
M 321.00 235.00 
C 323.54 232.83 329.14 224.88 332.00 224.00
C 328.06 224.93 323.76 232.24 321.00 235.00 Z"/>
</g>
<g fill="#B77B7A" fill-opacity="0.29" stroke="None">
<path d="
M 192.00 235.00 
C 188.64 231.89 185.66 227.98 182.00 225.00
C 185.32 228.19 188.27 232.06 192.00 235.00 Z"/>
</g>
<g fill="#B3B3B3" fill-opacity="0.21" stroke="None">
<path d="
M 386.00 255.00 
C 387.19 256.35 388.44 257.60 389.00 258.00
C 388.27 256.89 389.95 256.64 388.25 254.76 C 386.55 252.88 385.51 254.78 386.00 255.00 Z"/>
</g>
<g fill="#C08989" fill-opacity="0.27" stroke="None">
<path d="
M 261.00 259.00 
C 258.01 259.06 254.99 259.06 252.00 259.00
C 254.91 259.35 258.03 259.36 261.00 259.00 Z"/>
</g>
<g fill="#949494" fill-opacity="0.06" stroke="None">
<path d="
M 96.00 284.00 
C 97.42 282.60 97.50 283.54 98.00 281.00
C 98.16 280.04 99.86 278.46 98.00 278.00
C 95.72 278.90 95.25 285.41 96.00 284.00 Z"/>
</g>
<g fill="#010101" fill-opacity="0.03" stroke="None">
<path d="
M 353.00 310.00 
C 332.26 306.63 320.53 329.85 312.77 345.77 C 305.01 361.69 286.34 376.15 289.22 396.78 C 292.11 417.41 324.13 419.61 333.70 402.70 C 343.26 385.79 351.12 371.03 362.08 356.08 C 373.05 341.13 377.18 313.93 353.00 310.00
M 346.00 372.00 
C 335.38 366.47 325.91 358.69 315.00 354.00
C 324.00 341.03 334.59 304.76 357.23 317.77 C 379.87 330.79 353.66 357.51 346.00 372.00
M 345.00 373.00 
C 336.01 385.97 325.41 422.24 302.77 409.23 C 280.13 396.21 306.33 369.49 314.00 355.00
C 324.62 360.53 334.09 368.31 345.00 373.00 Z"/>
</g>
<g fill="#8C8C8C" fill-opacity="0.00" stroke="None">
<path d="
M 435.00 314.00 
C 435.76 315.52 436.20 317.37 437.00 319.00
C 438.29 319.17 438.75 320.70 440.00 321.00
C 440.28 317.81 435.47 314.51 435.00 314.00 Z"/>
</g>
<g fill="#FAFAFA" fill-opacity="0.97" stroke="None">
<path d="
M 346.00 372.00 
C 353.66 357.51 379.87 330.79 357.23 317.77 C 334.59 304.76 324.00 341.03 315.00 354.00
C 325.91 358.69 335.38 366.47 346.00 372.00 Z"/>
</g>
<g fill="#FFFFFF" fill-opacity="0.91" stroke="None">
<path d="
M 127.00 326.00 
C 102.67 326.00 78.33 326.00 54.00 326.00
C 54.00 377.33 54.00 428.67 54.00 480.00
C 105.33 480.00 156.67 480.00 208.00 480.00
C 208.00 454.00 208.00 428.00 208.00 402.00
C 204.67 402.00 201.33 402.00 198.00 402.00
C 198.00 424.67 198.00 447.33 198.00 470.00
C 153.33 470.00 108.67 470.00 64.00 470.00
C 64.00 425.33 64.00 380.67 64.00 336.00
C 85.00 336.00 106.00 336.00 127.00 336.00
C 127.00 332.67 127.00 329.33 127.00 326.00 Z"/>
</g>
<g fill="#FFFFFF" fill-opacity="0.94" stroke="None">
<path d="
M 181.00 333.00 
C 176.21 337.16 170.49 342.37 167.00 347.00
C 176.01 353.51 185.46 362.98 192.00 372.00
C 197.35 369.13 203.08 363.35 206.00 358.00
C 197.38 350.22 188.84 341.66 181.00 333.00 Z"/>
</g>
<g fill="#FFFFFF" fill-opacity="0.96" stroke="None">
<path d="
M 164.00 351.00 
C 144.00 368.50 123.53 388.98 106.00 409.00
C 113.75 415.27 119.73 422.98 127.25 429.75 C 134.77 436.53 142.12 422.43 148.75 416.75 C 155.39 411.08 162.68 402.60 169.25 396.25 C 175.81 389.90 184.14 382.42 189.00 375.00
C 179.78 368.90 171.93 359.12 164.00 351.00 Z"/>
</g>
<g fill="#FAFAFA" fill-opacity="0.97" stroke="None">
<path d="
M 345.00 373.00 
C 334.09 368.31 324.62 360.53 314.00 355.00
C 306.33 369.49 280.13 396.21 302.77 409.23 C 325.41 422.24 336.01 385.97 345.00 373.00 Z"/>
</g>
<g fill="#FFFFFF" fill-opacity="0.93" stroke="None">
<path d="
M 126.00 439.00 
C 119.87 429.69 108.18 419.98 100.00 412.00
C 95.81 426.28 89.14 439.78 85.00 454.00
C 98.52 448.56 111.98 442.78 126.00 439.00 Z"/>
</g>
<g fill="#808080" fill-opacity="0.07" stroke="None">
<path d="
M 401.00 445.00 
C 400.97 445.01 401.09 447.19 402.92 445.92 C 404.74 444.64 403.80 444.19 405.00 443.00
C 403.96 443.60 402.87 443.74 401.00 445.00 Z"/>
</g>
<g fill="#B3B3B3" fill-opacity="0.01" stroke="None">
<path d="
M 352.00 466.00 
C 351.04 467.79 347.88 466.93 347.00 469.00
C 350.28 469.27 352.75 466.73 356.00 467.00
C 355.90 466.47 354.30 465.05 354.00 465.00
C 352.72 465.24 352.88 465.44 352.00 466.00 Z"/>
</g>
<g fill="#FFFFFF" fill-opacity="0.01" stroke="None">
<path d="
M 227.00 478.00 
C 224.15 478.50 220.10 476.92 218.00 479.00
C 220.85 478.50 224.90 480.08 227.00 478.00 Z"/>
</g>
<g fill="#FFFFFF" fill-opacity="0.01" stroke="None">
<path d="
M 295.00 478.00 
C 292.15 478.50 288.10 476.92 286.00 479.00
C 288.85 478.50 292.90 480.08 295.00 478.00 Z"/>
</g>
<g fill="#FFFFFF" fill-opacity="0.00" stroke="None">
<path d="
M 244.00 479.00 
C 239.49 479.59 233.75 477.78 230.00 480.00
C 234.51 479.41 240.25 481.22 244.00 479.00 Z"/>
</g>
<g fill="#FFFFFF" fill-opacity="0.00" stroke="None">
<path d="
M 283.00 479.00 
C 278.49 479.59 272.75 477.78 269.00 480.00
C 273.51 479.41 279.25 481.22 283.00 479.00 Z"/>
</g>
</svg>